<svg version="1.1" id="Capa_1" xmlns="http://www.w3.org/2000/svg" x="0" y="0" viewBox="0 0 337.5 58" xml:space="preserve"><style>.st0{fill:#2f2f2f}</style><g id="XMLID_8_"><path id="XMLID_17_" class="st0" d="M82.1 16.7L69.5 42.3h4.1l1.5-3.4h14l1.7 3.4h4L82.1 16.7zm-5.7 19l5.8-11.3 5.4 11.3H76.4z"/><path id="XMLID_16_" class="st0" d="M122.1 17.3h-3.7v25h11.5V39h-7.8z"/><path id="XMLID_15_" class="st0" d="M154.5 20.5l5.3.1v21.7h3.7V20.6l5.2-.1v-3.3h-14.1z"/><path id="XMLID_14_" class="st0" d="M193.6 17.3h3.8v25h-3.8z"/><path id="XMLID_13_" class="st0" d="M222.5 16.9v25.5h4.1V27.8l8.4 8.8 8.4-8.8.1 14.6h3.8V17.1l-12.5 13.8z"/><path id="XMLID_12_" class="st0" d="M275.9 30.8h7.3v-3.6h-7.3V21h7.8l-.1-3.8-11.5.1v25h11.5l.1-3.9h-7.8z"/><path id="XMLID_9_" class="st0" d="M319.3 16.7l-12.6 25.6h4.1l1.5-3.4h14l1.7 3.4h4l-12.7-25.6zm-5.7 19l5.8-11.3 5.4 11.3h-11.2z"/></g><path id="XMLID_7_" fill="#0091d2" d="M4.1 35.7l-.2.1.2-.1z"/><g id="XMLID_3_"><path id="XMLID_6_" fill="#751816" d="M6.2 45.9L32 54.5 6.2 35.8z"/><path id="XMLID_5_" fill="#ad0c1f" d="M48.7 24.4L6.2 35.8 32 54.5l19.5-12H39.8z"/><path id="XMLID_4_" fill="#ca611f" d="M6.2 35.8l42.5-11.4 9.8-19.9z"/></g></svg>