<svg width="11" height="23" viewBox="0 0 11 23" fill="none" xmlns="http://www.w3.org/2000/svg">
<path fill-rule="evenodd" clip-rule="evenodd" d="M2.22892 11.5966V22.7423C2.22892 22.8711 2.3494 23 2.46988 23H6.3253C6.44578 23 6.56627 22.8711 6.56627 22.7423V11.4034H9.39759C9.51807 11.4034 9.63855 11.2745 9.63855 11.1457L9.87952 7.73109C9.87952 7.53781 9.75904 7.40896 9.63855 7.40896H6.62651V5.02521C6.62651 4.44538 7.04819 3.9944 7.59036 3.9944H9.75904C9.87952 3.9944 10.0602 3.86555 10.0602 3.73669V0.257703C10.0602 0.128852 9.93976 0 9.75904 0H6.08434C3.91566 0 2.22892 1.86835 2.22892 4.12325V7.40896H0.240964C0.120482 7.40896 0 7.53781 0 7.73109V11.1457C0 11.2745 0.120482 11.4034 0.240964 11.4034H2.16867V11.5966H2.22892Z" fill="#01E7B8"/>
</svg>
