<svg width="24" height="23" viewBox="0 0 24 23" fill="none" xmlns="http://www.w3.org/2000/svg">
<g clip-path="url(#clip0_233_53)">
<path d="M24 14.0864V22.6019C24 22.8407 23.841 22.9999 23.6026 22.9999H19.2318C18.9934 22.9999 18.8344 22.8407 18.8344 22.6019V14.7231C18.8344 12.6538 18.1192 11.2213 16.2119 11.2213C14.7814 11.2213 13.9867 12.1763 13.5894 13.1314C13.4305 13.4497 13.4305 13.9272 13.4305 14.4047V22.6815C13.4305 22.9203 13.2715 23.0795 13.0331 23.0795H8.66224C8.42383 23.0795 8.26489 22.9203 8.26489 22.6815C8.26489 20.6123 8.34436 10.3459 8.26489 7.95835C8.26489 7.71959 8.42383 7.56042 8.66224 7.56042H13.0331C13.2715 7.56042 13.4305 7.71959 13.4305 7.95835V9.7888C13.4305 9.7888 13.4305 9.7888 13.4305 9.86838V9.7888C14.1457 8.75419 15.3377 7.24208 18.0397 7.24208C21.4569 7.08291 24 9.31129 24 14.0864ZM0.715222 22.9999H5.08608C5.32449 22.9999 5.48343 22.8407 5.48343 22.6019V7.87876C5.48343 7.64001 5.32449 7.48084 5.08608 7.48084H0.715222C0.476811 7.48084 0.317871 7.64001 0.317871 7.87876V22.6019C0.317871 22.7611 0.476811 22.9999 0.715222 22.9999Z" fill="#01E7B8"/>
<path d="M5.48344 2.78547C5.48344 4.29758 4.21192 5.57093 2.70199 5.57093C1.19205 5.57093 0 4.29758 0 2.78547C0 1.27336 1.27152 0 2.78146 0C4.29139 0 5.48344 1.27336 5.48344 2.78547Z" fill="#01E7B8"/>
</g>
<defs>
<clipPath id="clip0_233_53">
<rect width="24" height="23" fill="white"/>
</clipPath>
</defs>
</svg>
