<svg xmlns="http://www.w3.org/2000/svg" viewBox="0 0 306.2 86.9"><path d="M60.4 40l1.9-4 12.1-25.4L10.8 50v13.7l30.4 10.5 27.3-17.3H52.4l8-16.9zm6-20.4L58 37.2l-35.2 9.3 43.6-26.9zM14.2 61.3v-7l17.4 13-17.4-6zM57 60.2L41.2 70.3 16.3 51.7l39.8-10.5-6.8 14.3-2.3 4.8h10zm41.7-32.3l-14.2 30H89l1.7-3.9h15.7l1.9 3.9h4.5l-14.1-30zm-6.5 22.3L98.7 37l6.1 13.2H92.2zm37.5-21.6h-4.2v29.3h13v-3.8h-8.8zm22.4 3.8l6 .1v25.4h4.2V32.5l5.9-.1v-3.8h-16zm30.1-3.8h4.2v29.3h-4.2zm18.5-.4v29.9h4.6V41l9.5 10.3 9.4-10.3.1 17.1h4.3V28.4l-14 16.2zm46.1 16.3h8.2v-4.3h-8.2V33h8.9l-.1-4.4h-13v29.3h13l.1-4.6h-8.9zm35-16.6l-14.2 30h4.6l1.7-3.9h15.7l1.9 3.9h4.5l-14.2-30zm-6.5 22.3l6.5-13.2 6.1 13.2h-12.6z" fill="#002c6b"/></svg>