<svg version="1.1" id="Capa_1" xmlns="http://www.w3.org/2000/svg" xmlns:xlink="http://www.w3.org/1999/xlink" x="0" y="0" viewBox="0 0 200 200" xml:space="preserve"><style>.st0{fill:#002c6b}.st1{clip-path:url(#SVGID_2_)}</style><path class="st0" d="M192.3 51.9h-63.4c-4 0-7.2 3.2-7.2 7.2v122.1c0 4 3.2 7.2 7.2 7.2h63.4c4 0 7.2-3.2 7.2-7.2V59.1c0-4-3.2-7.2-7.2-7.2zm-67.6 30.4h71.8V160h-71.8V82.3zm4.2-27.4h63.4c2.3 0 4.2 1.9 4.2 4.2v20.2h-71.8V59.1c0-2.3 1.9-4.2 4.2-4.2zm63.4 130.4h-63.4c-2.3 0-4.2-1.9-4.2-4.2V163h71.8v18.2c0 2.3-1.9 4.1-4.2 4.1z"/><path class="st0" d="M161 69.3h13c.8 0 1.5-.7 1.5-1.5s-.7-1.5-1.5-1.5h-13c-.8 0-1.5.7-1.5 1.5s.7 1.5 1.5 1.5z"/><circle class="st0" cx="150" cy="67.8" r="2.9"/><path class="st0" d="M160.6 170c-2.1 0-3.8 1.7-3.8 3.8s1.7 3.8 3.8 3.8c2.1 0 3.8-1.7 3.8-3.8s-1.7-3.8-3.8-3.8z"/><defs><path id="SVGID_1_" d="M189.2 53.1h-66.1v104H-2.8V17.9h192z"/></defs><clipPath id="SVGID_2_"><use xlink:href="#SVGID_1_" overflow="visible"/></clipPath><g class="st1"><path class="st0" d="M166.7 127.4H31.8c-4 0-7.2-3.2-7.2-7.2V39.8c0-4 3.2-7.2 7.2-7.2h134.9c4 0 7.2 3.2 7.2 7.2v80.5c0 3.9-3.3 7.1-7.2 7.1zM31.8 35.6c-2.3 0-4.2 1.9-4.2 4.2v80.5c0 2.3 1.9 4.2 4.2 4.2h134.9c2.3 0 4.2-1.9 4.2-4.2V39.8c0-2.3-1.9-4.2-4.2-4.2H31.8z"/></g><g class="st1"><path class="st0" d="M191 150.8H7.4c-4 0-7.2-3.2-7.2-7.2v-9.2h198v9.2c0 4-3.2 7.2-7.2 7.2zM3.2 137.4v6.2c0 2.3 1.9 4.2 4.2 4.2H191c2.3 0 4.2-1.9 4.2-4.2v-6.2H3.2z"/></g><g class="st1"><path class="st0" d="M16.9 28.8c0-2.3 1.9-4.2 4.2-4.2h156.2c2.3 0 4.2 1.9 4.2 4.2v106.9h3V28.8c0-4-3.2-7.2-7.2-7.2H21.1c-4 0-7.2 3.2-7.2 7.2v106.9h3V28.8z"/></g></svg>