<svg version="1.1" id="Capa_1" xmlns="http://www.w3.org/2000/svg" x="0" y="0" viewBox="0 0 200 200" xml:space="preserve"><style>.st0{fill:#002c6b}</style><path class="st0" d="M100.1 49.3c-17.9 0-32.4 14.6-32.4 32.4 0 17.9 14.6 32.4 32.4 32.4 17.9 0 32.4-14.6 32.4-32.4 0-17.9-14.6-32.4-32.4-32.4zm0 61.4c-16 0-29-13-29-29s13-29 29-29 29 13 28.9 29c0 16-13 29-28.9 29z"/><path class="st0" d="M93.4 70.3c-.3-.4-.7-.6-1.1-.7-.5-.1-.9 0-1.3.3L77.4 80.3c-.8.6-.9 1.6-.3 2.4l.3.3L91 93.3c.8.6 1.8.4 2.4-.3.3-.4.4-.8.3-1.3s-.3-.9-.7-1.1l-11.8-8.9 11.8-9c.8-.5 1-1.6.4-2.4zm14.6-.6c-.5.1-.9.3-1.1.7-.6.8-.4 1.8.3 2.4l11.8 8.9-11.8 8.9c-.4.3-.6.7-.7 1.1-.1.5 0 .9.3 1.3.6.8 1.6.9 2.4.4L122.9 83c.8-.6.9-1.6.3-2.4l-.3-.3L109.3 70c-.4-.3-.8-.4-1.3-.3zm-5.3-5c-.9-.1-1.8.5-2 1.4l-4.6 30.6c-.1.5 0 .9.3 1.3s.7.6 1.1.7c.9.1 1.8-.5 1.9-1.4l4.6-30.6c.1-.5 0-.9-.3-1.3-.2-.4-.6-.6-1-.7z"/><path class="st0" d="M152.6 72.4l-10.2-1-.1-.3c-1.1-4.1-2.7-8-4.9-11.5l-.2-.3 6.8-8.6c.1-.5-.1-1.1-.5-1.5l-10.7-10.8c-.6-.6-1.6-.7-2.3-.1l-7.8 6.5-.3-.2c-3.6-2.2-7.5-3.8-11.6-4.9l-.3-.1-1-10.2c-.1-.9-.8-1.6-1.7-1.6H92.5c-.9 0-1.6.7-1.7 1.6l-1 10.1-.3.1c-4.1 1-8 2.7-11.6 4.9l-.3.2-7.8-6.5c-.7-.6-1.7-.5-2.3.1L56.7 49.1c-.4.4-.6 1-.5 1.6l.1.2h-.1l6.4 8.1.4.2-.1.2C60.7 63 59.1 66.9 58 71l-.1.3-10.2 1c-.9.1-1.6.8-1.6 1.7v15.3c0 .9.7 1.6 1.6 1.7l10.2 1 .1.3c1.1 4.1 2.7 8 4.9 11.6l.2.3-6.5 7.8c-.6.7-.5 1.7.1 2.3l10.8 10.8c.6.6 1.6.7 2.3.1l7.8-6.5.3.2c3.6 2.2 7.5 3.8 11.6 4.9l.3.1v.3l.9 9.7c.1.8.8 1.5 1.6 1.5h15.4c.9 0 1.6-.7 1.7-1.5l1-10.1.3-.1c4.1-1 8-2.7 11.6-4.9l.3-.2 7.8 6.5c.7.6 1.7.5 2.3-.1l10.8-10.8c.6-.6.7-1.6.1-2.3l-6.5-7.8.2-.3c2.2-3.6 3.8-7.5 4.9-11.6l.1-.3 10.1-1c.9-.1 1.6-.8 1.6-1.7V74.1c.2-.9-.5-1.7-1.4-1.7zm-1.8 15.4l-9.8.9c-.7.1-1.4.6-1.5 1.3-1.1 4.8-3 9.3-5.7 13.4-.4.6-.4 1.4.1 2l6.3 7.6-8.6 8.6-7.6-6.3c-.6-.5-1.4-.5-2-.1-4.1 2.7-8.6 4.6-13.4 5.6-.7.1-1.3.7-1.3 1.4l-1 9.7H94.1l-1-9.7c-.1-.7-.6-1.3-1.3-1.5-4.8-1.1-9.3-2.9-13.4-5.6-.6-.4-1.4-.3-2 .1l-7.6 6.3-8.6-8.6 6.3-7.6c.5-.6.5-1.4.1-2-2.7-4.1-4.6-8.6-5.6-13.4-.2-.7-.8-1.3-1.6-1.3l-9.9-1v-12l9.9-1c.7-.1 1.4-.6 1.5-1.3 1.1-4.8 3-9.3 5.7-13.4.4-.6.4-1.4-.1-2l-6.3-7.6 8.6-8.6 7.6 6.3c.6.5 1.4.5 2 .1 4.1-2.7 8.6-4.6 13.4-5.6.7-.2 1.3-.8 1.3-1.5l1-9.8h12.2l1 9.8c.1.8.6 1.4 1.4 1.5 4.8 1.1 9.3 3 13.4 5.7.6.4 1.4.4 2-.1l7.5-6.3 8.5 8.6-6.3 7.6c-.5.6-.5 1.4-.1 2 2.7 4.1 4.6 8.6 5.6 13.4.2.7.8 1.3 1.6 1.3l9.9 1v12.1z"/><path class="st0" d="M183.7 58.9h-48.4l1.4 3h47.1c2.3 0 4.2 1.9 4.2 4.2v79.7H12.3V66c0-2.3 1.9-4.2 4.2-4.2h46.2l1.1-3H16.5c-4 0-7.2 3.2-7.2 7.2v102.4c0 4 3.2 7.2 7.2 7.2H84c0 .1-.1.3-.1.4v11H65.8c-.8 0-1.5.7-1.5 1.5s.7 1.5 1.5 1.5h68.6c.8 0 1.5-.7 1.5-1.5s-.7-1.5-1.5-1.5h-18.1v-11c0-.1 0-.3-.1-.4h67.5c4 0 7.2-3.2 7.2-7.2V66c0-3.9-3.2-7.1-7.2-7.1zM113.3 176v11H87v-11c0-.1 0-.3-.1-.4h26.4v.4zm74.6-7.5c0 2.3-1.9 4.2-4.2 4.2H16.5c-2.3 0-4.2-1.9-4.2-4.2v-19.7h175.6v19.7z"/></svg>