<svg version="1.1" id="Capa_1" xmlns="http://www.w3.org/2000/svg" x="0" y="0" viewBox="0 0 200 200" xml:space="preserve"><style>.st0{fill:#002c6b}</style><path class="st0" d="M62.9 101c-.3 0-.6.1-.9.2-.4.2-.7.6-.8 1-.1.4-.1.9.2 1.3s.6.7 1 .8c.4.1.9.1 1.3-.2.4-.2.7-.6.8-1 .1-.4.1-.9-.2-1.3-.3-.5-.8-.8-1.4-.8zm-8.1 4.9c-.4-.1-.9-.1-1.3.2l-4.3 2.5c-.7.4-1.6.5-2.4.3-.8-.2-1.5-.8-2-1.5-.3-.5-.9-.9-1.5-.9-.3 0-.6.1-.9.2-.4.2-.7.6-.8 1-.1.4-.1.9.2 1.3 1.8 3.2 5.9 4.3 9.1 2.4l4.3-2.5c.8-.5 1.1-1.5.6-2.3-.2-.3-.6-.5-1-.7z"/><path class="st0" d="M132.8 88.1l-8.4-14.6 5.5-8.3c.4-.5.4-1.2.1-1.8l-4.9-8.5c-.3-.6-.9-.9-1.6-.9l-10 .6-9.3-16.2c-1.2-2.1-3.3-3.3-5.7-3.3-2.3 0-4.5 1.1-5.7 3.1L60.3 79.3l-21 12.1c-3.8 2.2-6.5 5.8-7.7 10-1.1 4.3-.6 8.7 1.6 12.5 4.1 7.1 12.9 10.1 20.4 7.1l.6-.2.1.2 12.8 22c1.2 2.1 3.2 3.6 5.5 4.2 2.4.6 4.8.3 7-.9 2.1-1.2 3.6-3.2 4.2-5.5.6-2.4.3-4.8-.9-6.9l-7.8-13.5 7.1-4.1c.8-.5 1.1-1.5.6-2.3l-3.7-6.5 1-.2c.4-.1 2.5-.5 47.3-9.3 2.4-.1 4.5-1.4 5.6-3.5 1-2 1-4.4-.2-6.4zm-10.3-30.7l3.9 6.7-4 6-7.1-12.3 7.2-.4zm-68.4 59.7c-2 1.1-4.2 1.7-6.5 1.7-4.7 0-9-2.5-11.4-6.5-1.1-2-1.8-4.2-1.8-6.5 0-4.7 2.5-9 6.5-11.3l20-11.5L74 105.7l-19.9 11.4zm25.6 18.2l.5.9c.5 1.2.6 2.5.3 3.7-.4 1.5-1.3 2.7-2.7 3.5-.9.5-1.8.8-2.8.8-.5 0-1-.1-1.5-.2-1.5-.4-2.7-1.3-3.4-2.6l-12.7-22 9.8-5.7 12.5 21.6zm-6.3-17.9l-3.2-5.6 5.6-3.2 3.2 5.6-5.6 3.2zm48.1-21.7l-44.3 8.7-13.6-23.6.1-.1 28.5-36.3.2.3 29.4 50.9-.3.1zm8.4-2.7c-.6 1-1.6 1.6-2.7 1.6-.2 0-.3 0-.5.1h-.1c-.2 0-.4.1-.7.1l-.5.1-.1-.2-30.8-53.3.8-1.1c.2-.2.2-.3.3-.4.9-1.5 2.4-1.6 2.8-1.5.5 0 1.9.2 2.7 1.6l28.7 49.7c.6 1.1.6 2.3.1 3.3zm34.7-51l-1.5-.9c-3-1.8-7-1.2-9.3 1.4l-2.9 3.2-4.1-1.4c-1.4-.5-2.9-.5-4.3-.2-1.9.5-3.5 1.7-4.6 3.4L137 49c-2.1 3.5-1 8.1 2.6 10.2l15.7 9.4c.9.5 2 .2 2.5-.6l9.4-15.7c2.1-3.6 1-8.2-2.6-10.3zm-.5 8.3l-8.4 14.1-14.1-8.4c-1.8-1.1-2.4-3.4-1.3-5.2l.9-1.5c.9-1.6 2.8-2.2 4.6-1.6l5.2 1.9c.7.2 1.5.1 2-.5l3.7-4.1c2.8-2.8 6.2.1 6.2.1.9.5 1.5 1.4 1.7 2.3.2 1 0 2.1-.5 2.9zm-31.9-26.7c-.1-.2-.3-.3-.5-.5l-10-6.7c-.8-.5-1.8-.3-2.3.5-.2.3-.3.6-.3.9v13.4c0 .6.3 1.2.9 1.5.5.3 1.2.3 1.7-.1l10-6.7c.8-.5 1-1.5.5-2.3zm-9.8 4.5V21l5.4 3.6-5.4 3.5z"/><path class="st0" d="M124.1 9.5c-8.3 0-15.1 6.7-15.1 15.1 0 8.3 6.7 15.1 15.1 15.1 8.3 0 15.1-6.7 15.1-15.1s-6.8-15.1-15.1-15.1zm0 26.8c-6.5 0-11.7-5.2-11.7-11.7 0-6.5 5.2-11.7 11.7-11.7 6.5 0 11.7 5.2 11.7 11.7s-5.2 11.7-11.7 11.7zm23.7 25l-4.7-3h-19.4l1.4 3z"/><path class="st0" d="M184.3 58.3h-22.8l-1.9 3h24.7c2.3 0 4.2 1.9 4.2 4.2v79.7h-10v-35.5c0-.8-.7-1.5-1.5-1.5s-1.5.7-1.5 1.5v35.5H25.9v-35.5c0-.8-.7-1.5-1.5-1.5s-1.5.7-1.5 1.5v35.5h-10V65.5c0-2.3 1.9-4.2 4.2-4.2h59.5l2.4-3H17.1c-4 0-7.2 3.2-7.2 7.2v102.4c0 4 3.2 7.2 7.2 7.2h67.5c0 .1-.1.3-.1.4v11H66.4c-.8 0-1.5.7-1.5 1.5s.7 1.5 1.5 1.5H135c.8 0 1.5-.7 1.5-1.5s-.7-1.5-1.5-1.5h-18.1v-11c0-.1 0-.3-.1-.4h67.5c4 0 7.2-3.2 7.2-7.2V65.5c0-4-3.3-7.2-7.2-7.2zm-70.5 117.2v11H87.5v-11c0-.1 0-.3-.1-.4h26.4c.1.1 0 .2 0 .4zm74.7-7.6c0 2.3-1.9 4.2-4.2 4.2H17.1c-2.3 0-4.2-1.9-4.2-4.2v-19.7h175.6v19.7z"/></svg>