<svg version="1.1" id="Capa_1" xmlns="http://www.w3.org/2000/svg" x="0" y="0" viewBox="0 0 200 200" xml:space="preserve"><style>.st0{fill:#002c6b}</style><path class="st0" d="M183.4 28.7H16.2c-4 0-7.2 3.2-7.2 7.2v102.4c0 4 3.2 7.2 7.2 7.2h67.5c0 .1-.1.3-.1.4v11H65.5c-.8 0-1.5.7-1.5 1.5s.7 1.5 1.5 1.5h68.6c.8 0 1.5-.7 1.5-1.5s-.7-1.5-1.5-1.5H116v-11c0-.1 0-.3-.1-.4h67.5c4 0 7.2-3.2 7.2-7.2V35.9c0-4-3.2-7.2-7.2-7.2zm-167.2 3h167.2c2.3 0 4.2 1.9 4.2 4.2v79.7H12V35.9c0-2.3 1.9-4.2 4.2-4.2zM113 145.9v11H86.7v-11c0-.1 0-.3-.1-.4H113v.4zm70.4-3.4H16.2c-2.3 0-4.2-1.9-4.2-4.2v-19.7h175.6v19.7c0 2.3-1.9 4.2-4.2 4.2z"/><path class="st0" d="M34.2 103.8c5.6 0 10.1-4.5 10.1-10.1 0-1.7-.4-3.3-1.2-4.7l27-19.3c1.8 1.8 4.3 2.9 7 2.9 3.1 0 5.9-1.4 7.8-3.7.1.2.2.3.4.5l27.9 19.9c-.6 1.3-1 2.8-1 4.4 0 5.6 4.5 10.1 10.1 10.1s10.1-4.5 10.1-10.1c0-1.7-.4-3.3-1.2-4.7l27-19.3c1.8 1.8 4.3 2.9 7 2.9 5.6 0 10.1-4.5 10.1-10.1s-4.5-10.1-10.1-10.1-10.1 4.5-10.1 10.1c0 1.7.4 3.4 1.2 4.8l-27 19.2c-1.8-1.8-4.4-3-7.1-3-2.9 0-5.5 1.2-7.4 3.2L87.2 67c-.2-.2-.5-.3-.8-.3.6-1.3.9-2.7.9-4.2 0-5.6-4.5-10.1-10.1-10.1S67.1 57 67.1 62.5c0 1.7.4 3.4 1.2 4.8l-27 19.2c-1.8-1.8-4.4-3-7.1-3-5.6 0-10.1 4.5-10.1 10.1s4.6 10.2 10.1 10.2zm131.2-48.4c3.9 0 7.1 3.2 7.1 7.1s-3.2 7.1-7.1 7.1-7.1-3.2-7.1-7.1 3.2-7.1 7.1-7.1zm-43 31.2c3.9 0 7.1 3.2 7.1 7.1s-3.2 7.1-7.1 7.1-7.1-3.2-7.1-7.1 3.2-7.1 7.1-7.1zM77.2 55.4c3.9 0 7.1 3.2 7.1 7.1s-3.2 7.1-7.1 7.1-7.1-3.2-7.1-7.1 3.2-7.1 7.1-7.1zm-43 31.2c3.9 0 7.1 3.2 7.1 7.1s-3.2 7.1-7.1 7.1-7.1-3.2-7.1-7.1 3.2-7.1 7.1-7.1zm88.7 89.2h-2.6v-2.6c0-.9-.7-1.6-1.6-1.6-.9 0-1.6.7-1.6 1.6v2.6h-5.2v-2.6c0-.9-.7-1.6-1.6-1.6s-1.6.7-1.6 1.6v2.6h-5.2v-2.6c0-.9-.7-1.6-1.6-1.6-.9 0-1.6.7-1.6 1.6v2.6h-5.2v-2.6c0-.9-.7-1.6-1.6-1.6-.9 0-1.6.7-1.6 1.6v2.6h-5.2v-2.6c0-.9-.7-1.6-1.6-1.6s-1.6.7-1.6 1.6v2.6h-5.2v-2.6c0-.9-.7-1.6-1.6-1.6-.9 0-1.6.7-1.6 1.6v2.6h-5.2v-2.6c0-.9-.7-1.6-1.6-1.6-.9 0-1.6.7-1.6 1.6v2.6h-5.2v-2.6c0-.9-.7-1.6-1.6-1.6s-1.6.7-1.6 1.6v2.6h-5.2v-2.6c0-.9-.7-1.6-1.6-1.6-.9 0-1.6.7-1.6 1.6v2.6h-2.6c-.9 0-1.6.7-1.6 1.6s.7 1.6 1.6 1.6h75.5c.9 0 1.6-.7 1.6-1.6s-.6-1.6-1.5-1.6zm23.1-8.4h-4.2c-4.4 0-7.9 3.5-7.9 7.9v2.1c0 .9.7 1.6 1.6 1.6h16.8c.9 0 1.6-.7 1.6-1.6v-2.1c0-4.4-3.6-7.9-7.9-7.9zm4.7 8.4h-13.6v-.5c0-2.6 2.1-4.7 4.7-4.7h4.2c2.6 0 4.7 2.1 4.7 4.7v.5z"/></svg>