<svg version="1.1" id="Capa_1" xmlns="http://www.w3.org/2000/svg" x="0" y="0" viewBox="0 0 118 118" xml:space="preserve"><style>.st0{fill:none}.st1{fill:#002c6b}</style><path class="st0" d="M61.4 59.1c5 0 9.1-4.1 9.1-9.1s-4.1-9-9.1-9-9.1 4.1-9.1 9.1 4.1 9 9.1 9zm0-15.1c3.3 0 6 2.7 6 6s-2.7 6-6 6-6-2.7-6-6 2.7-6 6-6z"/><path class="st0" d="M46.6 57.7l-2.4 4 5.5 5.5 4-2.4 2.5 1 .4 1.2.9 3.4h7.8l1.1-4.5 2.7-1.1 4 2.4 5.5-5.5-2.4-4 1-2.5 1.2-.4 3.4-.9v-7.8L77.3 45l-1.1-2.7 2.4-4-5.6-5.4-4 2.4-2.7-1.1-1.1-4.5h-7.8l-1.1 4.5-2.7 1.1-4-2.4-5.5 5.5 2.4 4-1 2.6-4.5 1.2V54l4.5 1.1 1.1 2.6zm14.8-21.2c7.5 0 13.6 6.1 13.6 13.6s-6.1 13.6-13.6 13.6-13.6-6.1-13.6-13.6 6.1-13.6 13.6-13.6z"/><path class="st0" d="M104.4 50.1c0-24.8-20.1-44.9-44.9-44.9S14.6 25.3 14.6 50.1v2.3h-1.2l4.6 5.5 4.6-5.5h-1.2v-2.3c0-21 17.1-38.1 38.1-38.1s38.1 17.1 38.1 38.1-17.1 38.1-38.1 38.1H42.9V95h16.6c24.8 0 44.9-20.2 44.9-44.9z"/><path class="st0" d="M61.4 51.6c.8 0 1.5-.7 1.5-1.5s-.7-1.5-1.5-1.5-1.5.7-1.5 1.5.7 1.5 1.5 1.5zM29.3 73.1H6.7c-.8 0-1.5.7-1.5 1.5v37.7c0 .8.7 1.5 1.5 1.5h22.6c.8 0 1.5-.7 1.5-1.5V74.6c0-.8-.7-1.5-1.5-1.5zm-16.6 37.7H8.2v-4.5h4.5v4.5zm7.5 0h-4.5v-4.5h4.5v4.5zm7.6 0h-4.5v-4.5h4.5v4.5zm0-7.5H8.2v-4.5h19.6v4.5zm0-7.6H8.2v-4.5h19.6v4.5zm0-7.5H8.2v-4.5h19.6v4.5zm0-7.6H8.2v-4.5h19.6v4.5zm15.1 18.9v3h44.5c0-1 .2-2 .4-3H42.9zm60-7.5c-6 0-10.9 4.9-10.9 10.9s4.9 10.9 10.9 10.9 10.9-4.9 10.9-10.9S108.9 92 102.9 92zm-1.9 19.8l-5.6-5.6 3.2-3.2 2.4 2.4 8.1-8.1 3.2 3.2-11.3 11.3z"/><path class="st1" d="M102.9 88.2c-5.2 0-10.1 2.8-12.7 7.4l-.1.2H76.5l1.7-.7c18.2-7.6 30-25.3 30-44.9 0-26.8-21.8-48.7-48.7-48.7-26.3 0-47.7 20.6-48.7 46.8v.4H5.3l12.7 15 12.7-15.2h-5.5v-.4c1-18.2 16.1-32.4 34.3-32.4 18.9 0 34.3 15.4 34.3 34.3S78.4 84.4 59.5 84.4H39.1v21.9h49.5l.1.3c1.7 6.5 7.5 11 14.2 11 8.1 0 14.7-6.6 14.7-14.7s-6.6-14.7-14.7-14.7zm-60.8-.8h17.4c20.6 0 37.4-16.8 37.4-37.4 0-20.6-16.8-37.4-37.4-37.4S22.1 29.5 22.1 50.1v1.5h2.1L18 59l-6.2-7.4h2.1v-1.5c0-25.2 20.5-45.7 45.7-45.7 25.2 0 45.7 20.5 45.7 45.7S84.7 95.7 59.5 95.7H42.1v-8.3zm46.6 11.8c-.3 1.2-.5 2.5-.5 3.7v.4h-46v-4.5h46.6l-.1.4zm14.2 15.4c-6.5 0-11.7-5.2-11.7-11.7s5.2-11.7 11.7-11.7 11.7 5.2 11.7 11.7-5.2 11.7-11.7 11.7z"/><path class="st1" d="M109.1 98.3l-8.1 8.1-2.4-2.4-2.2 2.1 4.6 4.6 10.3-10.2zm-79.8-29H6.7c-2.9 0-5.3 2.4-5.3 5.3v37.7c0 2.9 2.4 5.3 5.3 5.3h22.6c2.9 0 5.3-2.4 5.3-5.3V74.6c0-2.9-2.4-5.3-5.3-5.3zm2.3 43c0 1.2-1 2.3-2.3 2.3H6.7c-1.2 0-2.3-1-2.3-2.3V74.6c0-1.2 1-2.3 2.3-2.3h22.6c1.2 0 2.3 1 2.3 2.3v37.7zm29.8-49.4c7.1 0 12.8-5.8 12.8-12.8s-5.8-12.8-12.8-12.8S48.6 43 48.6 50.1s5.7 12.8 12.8 12.8zm0-22.6c5.4 0 9.8 4.4 9.8 9.8s-4.4 9.8-9.8 9.8-9.8-4.4-9.8-9.8 4.4-9.8 9.8-9.8z"/><path class="st1" d="M39.5 62.3l9.7 9.7 4.2-2.5 1.2 4.8h13.7l1.2-4.8 4.2 2.5 9.7-9.7-2.5-4.2 4.8-1.2V43.2L80.8 42l2.5-4.2-9.7-9.7-4.2 2.5-1.2-4.8H54.5l-1.2 4.8-4.2-2.5-9.7 9.7L42 42l-4.8 1.2v13.7l4.8 1.2-2.5 4.2zm.8-7.8v-9l4.7-1.2.8-2-2.5-4.2 6.3-6.3 4.2 2.5 2-.8 1.2-4.7h9l1.2 4.7 2 .8 4.2-2.5 6.3 6.3-2.7 4.3.8 2 4.7 1.2v9l-4 1-.8.3-.7 1.8 2.5 4.2-6.3 6.3-4.2-2.5-2 .8-1.2 4.7h-9l-1-4-.3-.8-1.8-.7-4.2 2.5-6.3-6.3 2.5-4.2-.8-2-4.6-1.2z"/><path class="st1" d="M61.4 55.4c2.9 0 5.3-2.4 5.3-5.3s-2.4-5.3-5.3-5.3-5.3 2.4-5.3 5.3 2.4 5.3 5.3 5.3zm0-7.6c1.2 0 2.3 1 2.3 2.3s-1 2.3-2.3 2.3c-1.2 0-2.3-1-2.3-2.3s1-2.3 2.3-2.3zM8.9 76.9H27v3H8.9zm0 7.5H27v3H8.9zm0 7.6H27v3H8.9zm0 7.5H27v3H8.9zm15.1 7.6h3v3h-3zm-7.5 0h3v3h-3zm-7.6 0h3v3h-3z"/></svg>