<svg xmlns="http://www.w3.org/2000/svg"><defs><font id="antipastoregular" horiz-adv-x="1148"><font-face units-per-em="2048" ascent="1638" descent="-410"/><glyph horiz-adv-x="0"/><glyph horiz-adv-x="682"/><glyph horiz-adv-x="315"/><glyph horiz-adv-x="315"/><glyph horiz-adv-x="315"/><glyph unicode="!" horiz-adv-x="311" d="M72 84q0 35 24.5 59.5T156 168t59.5-24.5T240 84t-25-59.5T156 0q-35 0-59.5 24.5T72 84zm20 326v835q0 27 18.5 45.5T156 1309t45-18.5 18-45.5V410q0-27-18.5-45.5T156 346q-27 0-45.5 18.5T92 410z"/><glyph unicode="&quot;" horiz-adv-x="550" d="M98 985v315q0 27 18.5 45.5T162 1364t45-18.5 18-45.5V985q0-23-18.5-43T162 922q-27 0-45.5 18T98 985zm221 0v315q0 27 18.5 45.5T383 1364t45-18.5 18-45.5V985q0-23-18-43t-45-20-45.5 18-18.5 45z"/><glyph unicode="#" horiz-adv-x="1296" d="M61 477q0 27 18.5 45.5T125 541h197l94 295H264q-27 0-45 18t-18 45 18.5 45.5T264 963h193l110 348q6 20 23.5 31.5T629 1354q29 0 45-20.5t16-43.5q0-12-2-18l-98-309h307l111 348q6 20 23.5 31.5t37.5 11.5q29 0 45-20.5t16-43.5q0-12-2-18l-98-309h141q27 0 45.5-18.5T1235 899t-18.5-45-45.5-18H989l-94-295h147q27 0 45.5-18.5T1106 477t-18.5-45-45.5-18H854L735 43q-6-20-24.5-32.5T674-2q-29 0-46.5 20.5T610 61q0 8 4 21l107 332H414L295 43q-6-20-24.5-32.5T233-2q-29 0-46 20.5T170 61q0 8 4 21l107 332H125q-27 0-45.5 18.5T61 477zm396 64h305l94 295H549z"/><glyph unicode="$" horiz-adv-x="987" d="M74 246q0 23 16 43t51 20q37 0 56-33 14-29 39.5-52t57.5-41.5 66.5-31T430 133v547q-57 20-114.5 47T213 790.5t-72.5 84T113 981q0 68 26.5 123t71.5 95 101.5 65.5T430 1300v127q0 27 18.5 45.5T494 1491t45-18.5 18-45.5v-122q78-8 158-44t143-122q14-23 14-43 0-29-18-48.5t-47-19.5q-37 0-57 33-39 61-91.5 84.5T557 1176V776q2 0 3-1t5-1q78-29 141.5-61.5T816 635t71.5-104.5T913 389q0-74-28.5-139.5T807 133 693.5 48 557 4v-143q0-27-18.5-45.5T494-203q-27 0-45.5 18.5T430-139V4q-49 6-110.5 26.5T202.5 84t-92 74T74 246zm168 735q0-29 16-51.5t43-42 60.5-35.5 68.5-31v353q-35-6-68.5-20.5t-60.5-37-43-56.5-16-79zm315-848q47 8 89 31.5t73 57.5 49 77 18 90q0 96-63.5 151.5T557 635V133z"/><glyph unicode="%" horiz-adv-x="1353" d="M70 1065q0 61 23.5 114.5T157 1273t93 63.5 115 23.5q61 0 114-23.5t93-63.5 63.5-93.5T659 1065t-23.5-114.5T572 857t-93-63.5T365 770t-114.5 23.5T157 857t-63.5 93.5T70 1065zm127 0q0-70 49-119t119-49 118.5 49 48.5 119-49 119-118 49q-70 0-119-49t-49-119zM399 57q0 14 4 23l410 1229q6 20 23.5 33.5T877 1356q27 0 43-22.5t16-43.5q0-12-2-16L524 43q-8-23-25.5-34T461-2q-29 0-45.5 18.5T399 57zm293 236q0 61 23.5 114.5T779 501t93.5 63.5T987 588t114.5-23.5T1195 501t63.5-93.5T1282 293t-23.5-114.5T1195 85t-93-63.5T987-2q-61 0-114.5 23.5T779 85t-63.5 93.5T692 293zm127 0q0-70 49.5-119T987 125q70 0 119 49t49 119-49 119-119 49-119-49-49-119z"/><glyph unicode="&amp;" horiz-adv-x="1179" d="M78 365q0 98 46 181t124 134q-2 0-2 2-66 47-106 123t-40 164q0 74 28 138t76 112.5 112.5 76T455 1323t138-27.5 112.5-76 76-113T809 969q0-66-23.5-125.5T722 737t-95.5-78.5T508 618l303-270 174 158q16 14 41 14 27 0 44-18.5t17-44.5q0-29-20-47L905 262l174-164q20-18 21-47 0-27-17.5-46T1038-14q-23 0-43 16L811 176l-76-70q-59-53-125.5-86.5T455-14q-78 0-146.5 29.5T188.5 96t-81 121T78 365zm125 0q0-53 19.5-98.5t54-80 79.5-54 99-19.5q63 0 123.5 38.5T717 262L348 592q-66-31-105.5-92.5T203 365zm26 604q0-47 16.5-87t47.5-71 72-48.5 90-19.5q47 0 88 17.5t71.5 48.5 48 72 17.5 88-17.5 88-48 71.5-71.5 48-88 17.5-88-17.5-72-48-48.5-71.5-17.5-88z"/><glyph unicode="'" horiz-adv-x="323" d="M98 989v316q0 27 18.5 45t45.5 18 45-18.5 18-44.5V989q0-27-18.5-45T162 926q-27 0-45.5 18.5T98 989z"/><glyph unicode="(" horiz-adv-x="575" d="M72 164v981q0 74 27.5 140.5T176 1402t114.5 80.5T430 1513q33 0 52.5-18t19.5-45-18.5-45.5T438 1386q-49 0-93-19t-76.5-52-51-77-18.5-93V164q0-49 18.5-93t51-77T345-58.5 438-78q27 0 45.5-18.5T502-141q0-27-18.5-45.5T438-205q-76 0-142.5 29T179-97 100.5 20.5 72 164z"/><glyph unicode=")" horiz-adv-x="577" d="M74-141q0 27 18.5 45T137-78q49 0 93 19.5T307-6t51.5 77 18.5 93v981q0 49-18.5 93t-51.5 77-77 52-93 19q-27 0-45 18.5T74 1450t19.5 45 51.5 18q74 0 139.5-30.5t115-80.5 77-116.5T504 1145V164q0-76-29-143.5T396-97t-116.5-79T137-205q-27 0-45 18.5T74-141z"/><glyph unicode="*" horiz-adv-x="636" d="M74 1036q0 16 7 30.5t23 23.5l91 51-91 51q-29 16-28 55 0 29 19.5 45.5T137 1309q10 0 31-9l88-51v103q0 27 18.5 45t42.5 18q27 0 45.5-18.5T381 1352v-105l90 53q14 8 35 9 18 0 37.5-15.5T563 1249q0-37-31-55l-88-53 91-51q29-18 28-54 0-29-18.5-45T504 975q-16 0-31 8l-92 51V930q0-25-18.5-43.5T317 868q-25 0-43 18.5T256 930v102l-88-51q-20-8-31-8-20 0-41.5 16.5T74 1036z"/><glyph unicode="+" horiz-adv-x="858" d="M49 635q0 27 18.5 45t45.5 18h252v254q0 27 18 45.5t45 18.5 45.5-18.5T492 952V698h253q27 0 45.5-18t18.5-45-18.5-45.5T745 571H492V317q0-27-18.5-45T428 254t-45 18.5-18 44.5v254H113q-27 0-45.5 18.5T49 635z"/><glyph unicode="," horiz-adv-x="323" d="M98 80q0 27 18.5 45t45.5 18 45-18.5T225 80v-316q0-23-18.5-43T162-299q-27 0-45.5 18.5T98-236V80z"/><glyph unicode="-" horiz-adv-x="950" d="M96 637q0 27 18.5 45t45.5 18h631q27 0 45-18t18-45-18.5-45.5T791 573H160q-27 0-45.5 18.5T96 637z"/><glyph unicode="." horiz-adv-x="329" d="M80 84q0 35 24.5 59.5T164 168t59.5-24.5T248 84t-24.5-59.5T164 0t-59.5 24.5T80 84z"/><glyph unicode="/" horiz-adv-x="630" d="M53 61q0 8 4 21l394 1229q6 20 23.5 31.5T512 1354q29 0 45-20.5t16-43.5q0-12-2-18L178 43q-6-20-24.5-32.5T117-2Q88-2 70.5 18.5T53 61z"/><glyph unicode="0" horiz-adv-x="1464" d="M80 651q0 135 51 254t139 208 207 140.5 254 51.5 254-51.5 208-140.5 140-208 51-254-51-253.5-140-207T985 51 731 0 477 51 270 190.5t-139 207T80 651zm127 0q0-109 41-205t111.5-166.5 167-111.5T731 127q109 0 205 41t168 111.5 112.5 167T1257 651q0 109-40.5 205T1104 1024t-168 113-205 41-205-41-166.5-113T248 856t-41-205z"/><glyph unicode="1" horiz-adv-x="520" d="M76 1092q0 16 7 30.5t23 24.5l230 145q20 14 47 15 27 0 45-16.5t18-45.5V63q0-27-18-45T383 0t-45.5 18.5T319 63v1065l-147-90q-16-10-33-10-23 0-43 17.5T76 1092z"/><glyph unicode="2" horiz-adv-x="993" d="M80 66q2 27 35 59l454 432q70 66 113 114t67.5 88 33 75.5T791 911q0 59-20.5 110.5T713 1112t-88.5 60.5T512 1194q-96 0-167-52t-95-145q-8-27-21.5-44T188 936t-44 17.5-17 43.5q0 45 27.5 100.5t79 102.5 124 79 164.5 32q82 0 152.5-33t124-88 84-130T913 903q0-100-48-192.5T713 524L283 125h565q27 0 45-18.5T911 61t-18.5-44T848 0H158q-6 0-19.5 2t-26 9T90 31.5 80 66z"/><glyph unicode="3" horiz-adv-x="968" d="M74 397q0 27 18.5 45.5T137 461q27 0 45.5-18.5T201 397q0-59 22.5-110t60.5-89 89-60.5T483 115q57 0 109.5 22.5T683 198t60.5 89T766 397q0 57-21.5 107.5T686 593t-86 61.5T494 680h-11q-27 0-45 18.5T420 743q0 27 18.5 45.5T483 807h9q74 4 126 57.5T670 993q0 78-54.5 132.5T483 1180t-132-54.5T297 995q0-29-18.5-46T231 932t-46 17.5-17 45.5q0 63 24.5 121t67.5 101 100.5 67.5T483 1309q66 0 123.5-24.5T707 1217t67.5-100.5T799 993q0-74-31-136t-82-105q92-53 149.5-146.5T893 397q0-84-33-158.5t-88-130-130-88T483-12 324.5 20.5t-130 88-88 130T74 397z"/><glyph unicode="4" horiz-adv-x="937" d="M70 381q0 27 14 49l526 852q18 27 49 27 25 0 45.5-19.5T725 1239V430h82q27 0 45-18.5t18-44.5q0-27-18-45.5T807 303h-82V70q0-27-18.5-45.5T662 6q-27 0-45.5 18.5T598 70v233H143q-33 0-53 22.5T70 381zm159 49h369v584z"/><glyph unicode="5" horiz-adv-x="1021" d="M78 293q0 23 14 40t43 17q23 0 42.5-16.5T209 295q41-76 116.5-122T494 127q68 0 126 25.5T722 222t69.5 102.5T817 451t-25.5 126T722 679t-102.5 69.5T494 774q-27 0-60-4t-63.5-14.5-57-26.5-43.5-41q-16-23-30.5-37T201 637q-25 0-41.5 18.5T143 696q0 4 1 6.5t1 6.5l88 540q2 25 20.5 42.5T297 1309h506q27 0 45-18.5t18-45.5-18.5-45-44.5-18H350l-53-326q94 45 197 45 92 0 174-36t143-97 97-143 36-174-36-174-97-143.5T668 36 494 0Q363 0 257.5 66.5T92 242q-14 23-14 51z"/><glyph unicode="6" horiz-adv-x="1007" d="M66 438q0 70 22.5 134.5T150 696l372 584q10 14 24.5 21.5t31.5 7.5q29 0 45-19.5t16-44.5q0-18-8-33L408 864q23 4 46 7t48 3q90 0 170-33.5t139-93T905 608t35-170-35-170-94-139-139-94T502 0 332 35t-139.5 94-93 139T66 438zm127 0q0-66 24.5-122t65.5-97 97-65.5T502 129q63 0 120.5 24.5T722 219t66.5 97.5T813 438q0 63-24.5 120.5T722 658t-99.5 67T502 750q-66 0-122-25t-97-67-65.5-99T193 438z"/><glyph unicode="7" horiz-adv-x="858" d="M61 1243q0 27 18.5 45.5T125 1307h606q31 0 47.5-19.5T795 1243q0-16-7-31L254 33Q234 0 197 0q-29 0-46.5 20.5T133 63q0 16 8 31l484 1086H125q-27 0-45.5 18.5T61 1243z"/><glyph unicode="8" horiz-adv-x="960" d="M78 403q0 111 54 202.5T276 750q-53 45-82.5 107.5T164 993q0 66 24.5 123.5T256 1217t100.5 67.5T479 1309q66 0 123-24.5t100-67.5 68-100.5T795 993q0-74-31-136t-84-105q92-53 147.5-145.5T883 403q0-84-32-156.5t-86-128-128-87T479 0 322.5 31.5t-127 87-86 128T78 403zm129-2q0-57 21.5-106t58.5-86 86-58.5T479 129t107.5 21.5T674 209t58.5 86T754 401t-21.5 107.5T674 596t-87.5 58.5T479 676t-106-21.5-86-58.5-58.5-87T207 401zm84 592q0-39 14-73.5t40-60 60.5-40T479 805t74 14.5 60.5 40 40 60T668 993t-14.5 74-40 60.5-60.5 40-74 14.5-73.5-14.5-60.5-40-40-60.5-14-74z"/><glyph unicode="9" horiz-adv-x="1005" d="M66 870q0 90 34.5 170t94 139.5T334 1274t170 35 170-35 139-94.5 93-139T940 870q0-70-23.5-135T856 612L483 29Q463-2 428-2q-29 0-46 20.5T365 63q0 16 10 33l223 348q-23-4-46.5-7t-47.5-3q-90 0-170 34t-139.5 93.5-94 139T66 870zm127 0q0-66 24.5-122t66.5-98 98-66.5T504 559q63 0 120.5 24.5T723 650t65.5 98.5T813 870q0 63-24.5 121t-65.5 98.5-98.5 65.5-120.5 25q-66 0-122-25t-98-65.5-66.5-98.5T193 870z"/><glyph unicode=":" horiz-adv-x="337" d="M84 84q0 35 24.5 59.5T168 168t59.5-24.5T252 84t-24.5-59.5T168 0t-59.5 24.5T84 84zm0 825q0 35 24.5 59.5T168 993t59.5-24.5T252 909t-24.5-59.5T168 825t-59.5 24.5T84 909z"/><glyph unicode=";" horiz-adv-x="303" d="M68 907q0 35 24.5 59.5T152 991t59.5-24.5T236 907t-25-59.5-59-24.5q-35 0-59.5 24.5T68 907zM86 80q0 27 18.5 45t45.5 18 45-18.5T213 80v-316q0-23-18.5-43T150-299q-27 0-45.5 18.5T86-236V80z"/><glyph unicode="=" horiz-adv-x="923" d="M96 471q0 27 18.5 45.5T160 535h604q27 0 45-18.5t18-45.5-18-45-45-18H160q-27 0-45.5 18T96 471zm0 418q0 27 18.5 45t45.5 18h604q27 0 45-18.5t18-44.5q0-27-18-45.5T764 825H160q-27 0-45.5 18.5T96 889z"/><glyph unicode="&gt;" horiz-adv-x="786" d="M74 905q0 27 17.5 43.5T133 965q20 0 35-9l520-278q23-12 23-47 0-33-25-45L168 309q-14-8-31-8-25 0-43 15.5T76 360q0 18 11 35t28 25l436 213-447 221q-16 8-23 21.5T74 905z"/><glyph unicode="?" horiz-adv-x="919" d="M57 905q0 84 32 158t86 128 127 86 157 32q82 0 155.5-32t128-86 86-128T860 907q0-84-31.5-156.5t-86-127-128-86T459 506h-64v-96q0-33-18.5-52.5T332 338q-27 0-45.5 19.5T268 410v151q0 33 19.5 52.5T340 633h119q57 0 107 21.5t87 58.5 58.5 86T733 905t-21.5 107.5T653 1100t-87 58.5-107 21.5q-55 0-104.5-21.5T267 1100t-59.5-87T186 905q0-29-18-46t-47-17-46.5 17.5T57 905zM248 84q0 35 24.5 59.5T332 168t59.5-24.5T416 84t-24.5-59.5T332 0t-59.5 24.5T248 84z"/><glyph unicode="@" horiz-adv-x="1632" d="M76 625q0 154 58.5 289T292 1149t234.5 158.5T815 1366q154 0 289-58.5t235.5-158.5T1498 913.5t58-288.5q0-61-11-130t-41.5-125.5-84-93T1284 240q-76 0-128 47t-83 110q-47-47-116.5-80.5T815 283t-134.5 26.5T571 383t-73.5 109.5T471 627t26.5 134T571 870.5t109.5 74T815 971t134.5-26.5 109.5-74 73.5-110T1159 627V496q0-55 37-92t90-37q47 0 76 24.5t44 62.5 19.5 83 4.5 86q0 127-48.5 239.5T1250 1058t-195.5 131-239.5 48-238.5-48T382 1058 251 862.5 203 623t48-239 131-195T576.5 58 815 10q47 0 94 6.5T997 35q18 6 35 6 25 0 43.5-14.5T1094-16q0-29-30-48.5T991-95t-91-15.5-85-4.5q-154 0-289 58.5t-234 158T134.5 336 76 625zm522 2q0-92 62.5-154.5T815 410q88 0 150.5 60.5T1032 627q0 92-62.5 154.5T815 844t-154.5-62.5T598 627z"/><glyph unicode="A" horiz-adv-x="1288" d="M70 63q0 12 6 25l510 1174q6 16 22.5 31.5T645 1309t36.5-14.5T707 1262L1212 88q4-8 5-25 0-25-16.5-43T1155 2q-43 0-59 39L932 416H356L193 41q-8-18-24.5-28.5T133 2q-29 0-46 18.5T70 63zm342 480h465l-232 528z"/><glyph unicode="B" horiz-adv-x="1001" d="M88 63v1182q0 27 18.5 45.5T152 1309h364q66 0 123-24.5t100-67.5 69-101.5T834 991q0-74-33-137t-86-109q90-51 144-142t54-204q0-82-30.5-154.5t-85-127-127-86T516 0H152q-27 0-45.5 18.5T88 63zm127 64h301q55 0 104.5 22.5t86 59.5 58 86T786 399t-21.5 105.5-58 87.5-86 58.5T516 672H215V127zm0 672h301q39 0 74 16t60.5 43 40 61.5T705 991q0 39-14.5 73t-40 60.5-60.5 42-74 15.5H215V799z"/><glyph unicode="C" horiz-adv-x="1310" d="M80 651q0 135 51 254t139 208 207 140.5 254 51.5q137 0 257-53.5t210-145.5q10-10 18.5-26.5t8.5-32.5q0-27-18.5-41.5T1163 991q-31 1-49 21-74 63-172 114.5T731 1178q-109 0-205-41t-166.5-113T248 856t-41-205 41-205 111.5-166.5 167-111.5T731 127q115 0 214 44t171 122q10 12 25.5 18t32.5 6q27 0 40-18t13-41q0-33-19-51-90-98-213-152.5T731 0Q596 0 477 51T270 190.5t-139 207T80 651z"/><glyph unicode="D" horiz-adv-x="1243" d="M86 63v1182q0 27 18.5 45.5T150 1309h352q135 0 253.5-51.5t208-140.5T1104 909.5t51-254.5q0-135-51-254.5t-140.5-209T755.5 51 502 0H150q-27 0-45.5 18.5T86 63zm127 64h289q109 0 205 42t167.5 113.5 112.5 168 41 204.5q0 109-41 205t-112.5 168-168 113-204.5 41H213V127z"/><glyph unicode="E" horiz-adv-x="903" d="M76 63v1182q0 27 18.5 45.5T139 1309h623q27 0 45-18.5t18-45.5-18.5-45-44.5-18H203V725h372q27 0 45.5-18.5T639 662q0-27-18.5-45.5T575 598H203V127h559q27 0 45-18.5T825 63t-18.5-45T762 0H139q-27 0-45 18.5T76 63z"/><glyph unicode="F" horiz-adv-x="890" d="M70 63v1182q0 27 18 45.5t45 18.5h625q27 0 45-18.5t18-45.5-18.5-45-44.5-18H197V725h354q27 0 45-18.5t18-44.5q0-27-18-45.5T551 598H197V63q0-27-18.5-45T133 0 88 18.5 70 63z"/><glyph unicode="G" horiz-adv-x="1425" d="M78 651q0 135 51 254t139 208 207 140.5 254 51.5q164 0 302-74t226-197q14-23 15-43 0-20-16.5-39.5T1210 932q-14 0-29.5 6t-27.5 23q-98 115-206.5 166T729 1178t-205-41-166.5-113T246 856t-41-205 41-205 111.5-166.5 167-111.5T729 127q86 0 163 25.5t141.5 70.5T1146 331.5t77 139.5H938q-27 0-45.5 18.5T874 535t18.5 45 45.5 18h371q29 0 45-19.5t16-46.5q0-4-1-8t-1-8q-23-111-81-206t-143-163.5T952.5 39 729 0Q594 0 475 51T268 190.5t-139 207T78 651z"/><glyph unicode="H" horiz-adv-x="1103" d="M98 63v1182q0 27 18.5 45.5T162 1309t45-18.5 18-45.5V670h654v575q0 27 18 45.5t45 18.5 45.5-18.5 18.5-45.5V63q0-27-18.5-45T942 0t-45 18.5T879 63v480H225V63q0-27-18.5-45T162 0q-27 0-45.5 18.5T98 63z"/><glyph unicode="I" horiz-adv-x="329" d="M100 63v1182q0 27 18.5 45.5T164 1309t45-18.5 18-45.5V63q0-27-18.5-45T164 0q-27 0-45.5 18.5T100 63z"/><glyph unicode="J" horiz-adv-x="288" d="M-287-307q0 27 18.5 45t45.5 18q68 0 126 24.5T3-152 69.5-51.5 94 72v1173q0 27 18.5 45.5T158 1309t45-18.5 18-45.5V72q0-90-34.5-171t-94-141.5T-48-336t-175-35q-27 0-45.5 18.5T-287-307z"/><glyph unicode="K" horiz-adv-x="1067" d="M94 63v1182q0 27 18.5 45.5T158 1309t45-18.5 18-45.5V702l641 588q18 18 45 19 27 0 45.5-18.5T971 1245t-19-45L512 797 954 96q10-16 11-33 0-23-17.5-43T901 0q-35 0-53 31L418 711 221 530V63q0-27-18.5-45T158 0q-27 0-45.5 18.5T94 63z"/><glyph unicode="L" horiz-adv-x="786" d="M70 63v1182q0 27 18 45.5t45 18.5 45.5-18.5T197 1245V127h520q27 0 45-18.5T780 63t-18.5-45T717 0H133q-27 0-45 18.5T70 63z"/><glyph unicode="M" horiz-adv-x="1572" d="M90 61q0 2 1 4.5t1 6.5l168 1183q4 23 21.5 38.5T324 1309q43 0 59-39L799 233l413 1037q16 39 60 39 25 0 42-16.5t21-41.5L1479 70V59q0-25-16.5-42T1423 0q-29 0-47 15.5T1354 53l-115 942L860 43q-8-18-24.5-32.5T799-4t-37 15.5T739 43l-387 963L217 55q-4-25-22.5-40T154 0q-29 4-46.5 20.5T90 61z"/><glyph unicode="N" d="M98 63v1182q0 27 18.5 45.5T162 1309q23 0 34-9.5t23-25.5l705-998v969q0 27 18.5 45.5T987 1309q27 0 45.5-18.5t18.5-45.5V63q0-27-18.5-45T987 0q-23 0-37 13.5T926 43l-701 991V63q0-27-18.5-45T162 0q-27 0-45.5 18.5T98 63z"/><glyph unicode="O" horiz-adv-x="1464" d="M80 651q0 135 51 254t139 208 207 140.5 254 51.5 254-51.5 208-140.5 140-208 51-254-51-253.5-140-207T985 51 731 0 477 51 270 190.5t-139 207T80 651zm127 0q0-109 41-205t111.5-166.5 167-111.5T731 127q109 0 205 41t168 111.5 112.5 167T1257 651q0 109-40.5 205T1104 1024t-168 113-205 41-205-41-166.5-113T248 856t-41-205z"/><glyph unicode="P" horiz-adv-x="894" d="M72 63v1180q0 27 18.5 46.5T135 1309h334q74 0 137.5-28t111.5-76 75.5-111.5T821 958t-27.5-136T718 711t-111.5-75T469 608H199V63q0-27-18.5-45T135 0 90 18.5 72 63zm127 672h270q45 0 86 17.5t71.5 48 48 70.5 17.5 87q0 45-17.5 86t-48 72-71.5 48.5-86 17.5H199V735z"/><glyph unicode="Q" horiz-adv-x="1460" d="M78 651q0 135 51 254t139 208 207 140.5 254 51.5 254-51.5 208-140.5 140-208 51-254q0-96-26.5-185T1281 302t-115.5-135.5T1018 68q14-14 38.5-19.5t48-11.5 40-18.5T1161-25q0-27-18.5-45T1098-88q-68 0-121 30.5T889 18q-35-8-73-13t-87-5Q604 0 486.5 49t-208 137T133 393 78 651zm127 0q0-154 77.5-277.5T487 184l-4 43q0 57 19.5 105.5T556 417t78 55.5 95 19.5q49 0 93-19.5t78-53.5 53.5-78 19.5-93v-23l-6-43q63 33 116.5 81t91 108.5 59 131T1255 651q0 109-40.5 205T1102 1024t-168 113-205 41-205-41-166.5-113T246 856t-41-205zm405-405q0-47 33-81t86-38q49 0 84 35t35 84-35 84-84 35-84-35-35-84z"/><glyph unicode="R" horiz-adv-x="946" d="M92 63v1180q0 27 18.5 46.5T156 1309h336q74 0 137-28t111-76 76-111.5T844 958q0-66-22.5-123T760 732t-93.5-77.5T551 612l311-506q6-10 11.5-22t5.5-27q0-16-15.5-36.5T819 0q-18 0-33.5 10T760 37L410 608H219V63q0-27-18.5-45T156 0q-27 0-45.5 18.5T92 63zm127 672h273q45 0 85.5 17.5t71.5 48 48.5 70.5 17.5 87q0 45-17.5 86t-48.5 72-71.5 48.5T492 1182H219V735z"/><glyph unicode="S" horiz-adv-x="987" d="M72 244q0 25 19.5 45t47.5 20q39 0 58-33 18-37 54-64.5t79-47 87-28.5 79-9q55 0 108 20.5t93 55.5 64.5 83T786 389t-21.5 96-60 72-92 55.5T498 657q-61 18-130 46t-125.5 67-93 91T113 981q0 78 34.5 138.5t90 102.5 124 63.5T498 1307q45 0 93-7.5t95-26 91-51 81-83.5q12-18 12-43 0-29-17-48.5t-46-19.5q-37 0-57 33-25 41-58 64.5t-66.5 36T558 1177t-60 3q-41 0-86-10.5t-83-33-62.5-60.5-24.5-95q0-41 35.5-74t87-57.5 106.5-43 94-32.5q78-29 141.5-61.5T816 635t71.5-104.5T913 389t-34.5-153.5-93-124-134.5-82T494 0q-57 0-120 15.5t-119 43T152.5 125 82 211q-10 16-10 33z"/><glyph unicode="T" horiz-adv-x="944" d="M53 1245q0 27 18.5 45.5T117 1309h710q27 0 45.5-18.5T891 1245t-18.5-45-45.5-18H537V63q0-27-18.5-45T473 0t-45 18.5T410 63v1119H117q-27 0-45.5 18.5T53 1245z"/><glyph unicode="U" horiz-adv-x="1095" d="M92 455v788q0 23 18.5 44.5T158 1309t45-20.5 16-47.5V455q0-68 25.5-127.5T314 224t104.5-70.5T547 127t127 26.5T778 224t72 103.5T877 455v788q0 23 18 44.5t47 21.5 45.5-22.5 16.5-45.5V455q0-94-37-177t-98.5-144.5T724 36 547 0 370 36t-144.5 97.5-97.5 144T92 455z"/><glyph unicode="V" horiz-adv-x="1153" d="M70 1247q0 25 17 43.5t46 18.5q18 0 34.5-11.5T193 1270L578 238l380 1032q8 16 23.5 27.5t36.5 11.5q29 0 45-18.5t16-43.5q0-16-4-24L639 47q-8-18-25.5-32.5T578 0q-20 0-37 15.5T518 47L76 1223q-6 12-6 24z"/><glyph unicode="W" horiz-adv-x="1810" d="M82 1247q0 25 17.5 43.5T145 1309q18 0 35-11.5t25-27.5L590 238l250 1011q4 18 21.5 39t43.5 21q27 0 42.5-18.5T971 1249l254-1011 381 1032q8 16 23.5 27.5t35.5 11.5q29 0 45-18.5t16-43.5q0-16-4-24L1286 47q-8-18-24.5-32.5T1219 0q-27 0-44.5 15.5T1153 47l-248 954L662 47q-4-18-22.5-32.5T596 0q-27 0-43 15.5T530 47L88 1223q-6 12-6 24z"/><glyph unicode="X" horiz-adv-x="1503" d="M96 63q0 27 19 46l547 546-547 547q-18 18-19 45 0 27 18.5 45.5T160 1311t45-19l547-547 546 547q18 18 45 19 27 0 45.5-18.5t18.5-45.5-18-45L842 655l547-546q18-18 18-46 0-27-18.5-45T1343 0t-45 18L752 565 205 18Q187 0 160 0t-45.5 18.5T96 63z"/><glyph unicode="Y" horiz-adv-x="1060" d="M70 1243q0 25 17 44.5t46 19.5q35 0 53-27l344-514 344 514q18 27 54 27 27 0 45-19.5t18-44.5q0-18-10-35L594 633V63q0-27-18.5-45T530 0t-45 18.5T467 63v570L82 1208q-12 14-12 35z"/><glyph unicode="Z" horiz-adv-x="1116" d="M72 63q0 16 12 39l778 1080H135q-27 0-45 18.5T72 1245q0 27 18.5 45.5T135 1309h846q27 0 45-18.5t18-45.5q0-16-9-30.5t-7-12.5L248 127h733q27 0 45-18.5t18-45.5-18-45-45-18H135q-27 0-45 18.5T72 63z"/><glyph unicode="[" horiz-adv-x="548" d="M74-262v1565q0 27 18.5 45t44.5 18h273q27 0 45-18.5t18-44.5q0-27-18.5-45.5T410 1239H201V-199h209q27 0 45-18.5t18-44.5q0-27-18.5-45.5T410-326H137q-27 0-45 18.5T74-262z"/><glyph unicode="\" horiz-adv-x="630" d="M53 1290q0 23 17.5 43.5T117 1354q20 0 37.5-11.5T178 1311L571 82q4-12 4-21 0-23-17-43T512-2q-20 2-37.5 13.5T451 43L57 1272q-4 12-4 18z"/><glyph unicode="]" horiz-adv-x="550" d="M76-262q0 27 18.5 45t44.5 18h209v1438H139q-27 0-45 18.5T76 1303t18.5 45 44.5 18h273q27 0 45-18.5t18-44.5V-262q0-27-18.5-45.5T412-326H139q-27 0-45 18.5T76-262z"/><glyph unicode="^" horiz-adv-x="1282" d="M68 545q0 18 8 35 0 2 3 7t17.5 26.5 44 66.5 84 127 137 207T565 1321q10 16 26.5 33.5T637 1372t42-15.5 28-35.5q119-182 202.5-307t138-207 85-127 46-66.5T1197 587t5-7q8-14 8-31 0-20-16-40t-43-20q-33 0-49 27l-467 660-445-650q-10-14-27.5-27.5T125 485q-25 0-41 18.5T68 545z"/><glyph unicode="_" horiz-adv-x="1146" d="M96 63q0 27 18.5 45.5T160 127h827q27 0 45.5-18.5T1051 63t-18.5-45T987 0H160q-27 0-45.5 18.5T96 63z"/><glyph unicode="`" horiz-adv-x="417" d="M61 1397q0 23 17.5 44t46.5 21q16 0 30.5-7t22.5-23l170-293q6-16 6-29 0-25-17.5-45.5T291 1044q-39 0-53 31L68 1370q-6 12-7 27z"/><glyph unicode="a" horiz-adv-x="1159" d="M84 494q0 102 38 193t104.5 158.5T384 952t198 39q98 0 187-40t156.5-107.5T1033 686t40-192V61q0-27-18.5-45T1010-2q-27 0-45.5 18.5T946 61v125q-68-76-163-130T578 2Q476 2 386.5 39t-157 102.5T123 297 84 494zm127 0q0-76 28.5-142.5t79-117 117-79T578 127q74 0 139 27.5t115.5 77 80 116T946 494q0 76-28.5 143.5t-79 117.5-118 78.5T578 862q-76 0-142.5-28.5t-117-78.5-79-118T211 494z"/><glyph unicode="b" horiz-adv-x="1142" d="M76 63v1182q0 27 18.5 45.5T139 1309q27 0 45.5-18.5T203 1245V803q68 74 162 128t208 58q98 0 187.5-40t157-107.5T1025 684t40-192q0-100-39-189.5t-105.5-157T764 39 569 0Q458 0 364 42T203 158V63q0-27-18.5-45T139 0 94 18.5 76 63zm127 412q2-74 32.5-137.5t80-110.5 115-74.5T569 125q76 0 143.5 28.5t118 79 79 117T938 492t-28.5 143-79 117.5-118 79T569 860q-74 0-139-27.5T315.5 756t-80-117T203 492v-17z"/><glyph unicode="c" horiz-adv-x="1028" d="M84 492q0 102 38 191t104.5 155.5 158 106.5T582 989q82 0 147.5-24.5t112.5-56 72.5-63.5 25.5-48q0-23-18.5-39.5T881 741q-27 0-45 19-51 45-117 72.5T578 860q-76 0-142.5-28.5t-117-79-79-118T211 492q0-76 28.5-142.5t79-117 117-79T578 125t141 27.5T836 229q18 18 45 19 25 0 44-17.5t19-44.5q0-16-23.5-48T850 75.5t-115.5-53T578 0Q476 0 386.5 37t-157 102.5T123 295 84 492z"/><glyph unicode="d" horiz-adv-x="1142" d="M76 494q0 102 40 192t107.5 157.5T380 951t187 40q115-4 209-58t162-128v440q0 27 18.5 45.5t44.5 18.5q27 0 45.5-18.5t18.5-45.5V63q0-27-18.5-45T1001 0t-45 18.5T938 63v97l-18-19Q852 75 762 38.5T571 2Q467 2 377 41T220.5 147.5 115 304 76 494zm127 0q0-76 28.5-142.5t78.5-117 118-79T571 127q76 0 142.5 28.5t117 79 79 117T938 494q-4 80-34 147.5T825 758t-114.5 76.5T571 862q-76 0-143.5-28.5T310 755t-78.5-118T203 494z"/><glyph unicode="e" d="M80 494q0 102 38 191t104.5 155.5T380 947t198 44q96 0 185-39t156.5-106.5T1028 689t41-191q0-31-20.5-47.5T1006 434H211q10-66 43-122t81-97 109.5-64.5T573 127q76 0 141.5 27.5T831 231q18 18 46 19 27 0 45-18.5t18-45.5-18-45Q854 65 769 33.5T573 2Q471 2 382 39T225.5 141.5 119 297 80 494zm133 67h723q-12 63-45 118.5T810 775t-108.5 63.5T573 862t-128-23.5T337 775t-80-95-44-119z"/><glyph unicode="f" horiz-adv-x="591" d="M55 932q0 27 18.5 45t45.5 18h84v43q0 55 20.5 104.5t57 86.5 86 58.5T473 1309q27 0 45.5-18.5T537 1245t-18.5-45-45.5-18q-59 0-101-42t-42-102v-43h139q27 0 45-18.5t18-44.5q0-27-18-45.5T469 868H330V63q0-27-18.5-45T266 0t-45 18.5T203 63v805h-84q-27 0-45.5 18.5T55 932z"/><glyph unicode="g" horiz-adv-x="1159" d="M84 492q0 102 38 191t104.5 155.5T384 945t198 44q106-2 200.5-47T946 819v90q0 27 18.5 45.5T1010 973t45-18.5 18-45.5V119q0-100-39-189.5t-105.5-157T772-334t-194-39-192.5 37T229-233l-2 2q-18 18-18 43 0 27 19.5 46t45.5 19q27 0 43-16 51-51 117-80t144-29q76 0 143 29t117.5 79 79 116.5T946 119v45Q878 88 783 44T578 0Q476 0 386.5 37t-157 102.5T123 295 84 492zm127 0q0-76 28.5-142.5t79-117 117-79T578 125q74 0 139 27.5T832.5 227t80 110.5T946 475v31q-4 74-33.5 138.5t-80 112.5-116 75.5T578 860q-76 0-142.5-28.5t-117-79-79-118T211 492z"/><glyph unicode="h" horiz-adv-x="897" d="M80 63v1182q0 27 18.5 45.5T143 1309q27 0 45.5-18.5T207 1245V901q47 41 108.5 65.5T446 991q76 0 143.5-28.5t118-78.5 79-118T815 623V63q0-27-18.5-45T752 0q-27 0-45.5 18.5T688 63v560q0 49-19.5 93t-52 76.5-76.5 51-94 18.5q-49 0-92-18.5t-75.5-49-51-72.5-20.5-89V63q0-29-17.5-46T143 0q-27 0-44 18.5T80 63z"/><glyph unicode="i" horiz-adv-x="315" d="M74 1225q0 35 24.5 59.5T158 1309t59.5-24.5T242 1225t-24.5-59.5T158 1141t-59.5 24.5T74 1225zM94 63v869q0 27 18.5 45t45.5 18 45-18.5 18-44.5V63q0-27-18.5-45T158 0q-27 0-45.5 18.5T94 63z"/><glyph unicode="j" horiz-adv-x="299" d="M-182-307q0 27 18.5 45t44.5 18q68 0 109 27t63.5 62.5T83-85t7 48v969q0 27 18.5 45t45.5 18 45-18.5 18-44.5V-37q0-45-17.5-102.5T142-248 38.5-335-119-371q-27 0-45 18.5t-18 45.5zM70 1225q0 35 24.5 59.5T154 1309t59.5-24.5T238 1225t-25-59.5-59-24.5q-35 0-59.5 24.5T70 1225z"/><glyph unicode="k" horiz-adv-x="815" d="M78 63v1180q0 27 18.5 45.5T141 1307q27 0 45.5-18.5T205 1243V563l413 412q18 18 46 18 27 0 45-18.5t18-44.5q0-27-18-45L414 598 727 94q8-14 8-31 0-23-17.5-44T674-2q-35 0-56 33L322 506 205 389V63q0-27-18.5-45T141 0 96 18.5 78 63z"/><glyph unicode="l" horiz-adv-x="331" d="M102 63v1182q0 27 18.5 45.5T166 1309t45-18.5 18-45.5V63q0-27-18-45T166 0t-45.5 18.5T102 63z"/><glyph unicode="m" horiz-adv-x="1406" d="M96 63v869q0 27 18.5 45t45.5 18 45-18.5 18-44.5v-23q35 35 91.5 63.5T430 1001q86 0 155.5-37.5T700 862q47 63 117 101t156 38q70 0 131-26.5t106-71.5 72-106.5 27-130.5V63q0-27-18.5-45T1245 0t-45 18.5-18 44.5v603q0 43-16.5 80.5t-45 66.5-66.5 45-81 16-81-16-65.5-45-44-66.5T766 666V63q0-27-18.5-45T702 0t-45 18.5T639 63v603q-4 90-64.5 149T430 874q-86 0-144.5-58T223 674V63q0-27-18.5-45T160 0q-27 0-45.5 18.5T96 63z"/><glyph unicode="n" horiz-adv-x="925" d="M94 63v869q0 27 18.5 45t45.5 18 45-18.5 18-44.5v-27q47 41 108.5 65.5T461 995q76 0 143.5-28.5T722 888t78.5-118T829 627V63q0-27-18-45T766 0t-45.5 18.5T702 63v564q0 49-19 93t-52 76.5-77 51-93 18.5-92-18.5-76-49-51.5-72.5-20.5-89V63q0-27-18.5-45T158 0q-27 0-45.5 18.5T94 63z"/><glyph unicode="o" d="M80 494q0 102 38 191t104.5 155.5 158 106.5T578 991q98 0 187-40t156.5-107.5T1029 686t40-192q0-100-39-189.5t-105.5-157T768 41 573 2Q471 2 382 39T225.5 141.5 119 297 80 494zm127 0q0-76 28.5-142.5t79-117 117-79T573 127q76 0 143.5 28.5t118 79 79 117T942 494t-28.5 143.5-79 117.5-118 78.5T573 862t-142-28.5T314.5 755t-79-118T207 494z"/><glyph unicode="p" horiz-adv-x="1140" d="M76-307V932q0 27 18.5 45t44.5 18q27 0 45.5-18.5T203 932V829q68 76 162 118t204 42q104 0 194.5-39t157-106.5T1026 687t39-189q0-102-40-192.5t-107.5-158T761 40 573 0Q458 4 364 58.5T203 186v-493q0-27-18.5-45.5T139-371t-45 18.5T76-307zm127 805q2-80 32.5-147.5t80-117 115-77T569 129q76 0 143.5 28.5t118 79 79 118T938 498t-28.5 142.5-79 116.5-118 78.5T569 864q-74 0-139-27.5T315.5 762t-80-111.5T203 512v-14z"/><glyph unicode="q" horiz-adv-x="1140" d="M76 498q0 100 39 189t105.5 156.5T377 950t194 39q109 0 203-42t164-118v103q0 27 18.5 45t44.5 18q27 0 45.5-18.5T1065 932V-307q0-27-18.5-45.5T1001-371t-45 18.5-18 45.5v493q-68-74-162-128T567 0q-98 0-187 40T223.5 147.5 116 305 76 498zm127 0q0-76 28.5-143.5t78.5-118 118-79T571 129q74 0 139.5 27.5t114.5 77 79 117T938 498q0 76-28.5 142.5t-79 116.5-117 78.5T571 864t-143.5-28.5T310 757t-78.5-117T203 498z"/><glyph unicode="r" horiz-adv-x="661" d="M72 63v869q0 27 18.5 45t44.5 18q27 0 45.5-18.5T199 932V831q66 72 158 118t200 46q33 0 52.5-18.5T629 932q0-27-19.5-45.5T557 868q-74 0-137.5-28.5T308 762t-77.5-112.5T199 516V63q0-27-18.5-45T135 0 90 18.5 72 63z"/><glyph unicode="s" horiz-adv-x="892" d="M84 242q0 27 17.5 47t45.5 20q23 0 40.5-13t27.5-36q27-66 91.5-99.5T442 127q100 0 171 46t71 130q0 68-69.5 115T442 479q-147 20-238 80.5T113 735q0 72 28.5 121t75.5 80 106.5 44T442 993q49 0 104.5-11T649 948.5t78-55.5 31-78q0-23-15.5-44T692 750q-39 0-59 45-18 39-71.5 58T442 872q-35 0-70.5-5t-64-20.5-48-42T240 735q0-31 19.5-53.5t49-37.5 65.5-23.5 68-14.5q76-12 142.5-35.5t117-60.5 80-88T811 303t-28.5-124-79-96-118-61.5T442 0Q313 0 216 59.5T86 223q-2 6-2 19z"/><glyph unicode="t" horiz-adv-x="626" d="M51 932q0 27 18.5 45t45.5 18h135v250q0 27 18.5 45.5T313 1309q27 0 45.5-18.5T377 1245V995h135q27 0 45-18.5t18-44.5q0-27-18-45.5T512 868H377V63q0-27-18.5-45T313 0t-45 18.5T250 63v805H115q-27 0-45.5 18.5T51 932z"/><glyph unicode="u" horiz-adv-x="927" d="M96 369v561q0 27 18.5 45t45.5 18 45-18.5 18-44.5V369q0-49 19.5-93.5t52.5-77 77-51 93-18.5 92 18.5 75 49 51 72.5 22 89v572q0 27 18 45t45 18 45-18.5 18-44.5V63q0-27-18-45T768 0t-45 18.5T705 63v27q-47-41-108.5-65.5T465 0q-76 0-143.5 28.5t-117.5 79-79 118T96 369z"/><glyph unicode="v" horiz-adv-x="927" d="M72 932q0 27 15 44t44 17q23 0 39-10t23-27l266-727 276 727q6 16 22.5 26.5T793 993q29 0 46-19.5t17-41.5q0-12-6-25-2-4-15.5-42t-49-134-98-261T526 51q-8-23-23.5-37T459 0q-29 0-46.5 17.5T389 51q-86 236-145.5 398.5t-96 262-53 144.5T78 903q-6 12-6 29z"/><glyph unicode="w" horiz-adv-x="1286" d="M88 932q0 27 15.5 44t43.5 17q23 0 39.5-10t22.5-27l266-727 98 258q-41 111-69.5 190t-47 128-26.5 72.5-8 25.5q-6 12-6 29 0 27 15 44t44 17q23 0 39-10t23-27l104-297 111 297q6 16 22.5 26.5T809 993q29 0 46-19.5t17-41.5q0-12-6-25-2-2-9-23.5T831.5 814t-48-128T709 485l94-256 276 727q6 16 22.5 26.5T1137 993q29 0 46-19.5t17-41.5q0-12-6-25-2-4-15.5-42t-49-134-98-261T870 51q-8-23-23.5-37T803 0q-29 0-46.5 17.5T733 51q-27 72-49 138.5T641 313q-23-57-46.5-123.5T543 51q-8-23-23.5-37T475 0t-46 17.5T406 51q-86 236-145.5 398.5t-96.5 262T110.5 856 94 903q-6 12-6 29z"/><glyph unicode="x" horiz-adv-x="1171" d="M94 61q0 25 19 48l383 387-381 387q-20 25-21 47 0 29 20.5 45t45.5 16q27 0 43-16l383-389 383 389q16 16 43 16 25 0 44-16.5t19-44.5q0-27-18-47L674 496l385-387q18-23 18-48t-19.5-43T1014 0q-27 0-45 20L586 406 203 20Q185 0 158 0q-25 0-44.5 18.5T94 61z"/><glyph unicode="y" horiz-adv-x="921" d="M68 932q0 27 15 44t44 17q23 0 39-10t22-27l267-727 276 727q6 16 22.5 26.5T788 993q29 0 46.5-19.5T852 932q0-12-6-25L379-330q-16-41-57-41-29 0-46.5 19.5T258-307q0 6 1 11t3 11L385 51q-86 236-145.5 398.5t-96.5 262T90 856t-16 47q-6 12-6 29z"/><glyph unicode="z" horiz-adv-x="1107" d="M88 61q0 25 18 48l699 757H154q-27 0-45.5 18.5T90 930t18.5 45 45.5 18h798q23 0 42.5-18.5T1014 932q0-25-21-49L303 127h653q27 0 45.5-18.5T1020 63t-18.5-45T956 0H152q-27 0-45.5 18.5T88 61z"/><glyph unicode="{" horiz-adv-x="727" d="M59 653q0 27 18.5 45.5T123 717h115v428q0 74 27.5 140.5T342 1402t114.5 80.5T596 1513q33 0 52.5-18t19.5-45-18.5-45.5T604 1386q-49 0-93-19t-77-52-51-77-18-93V164q0-49 18-93t51-77 77-52.5T604-78q27 0 45.5-18.5T668-141q0-27-18.5-45.5T604-205q-76 0-142.5 29T345-97 266.5 20.5 238 164v426H123q-27 0-45.5 18.5T59 653z"/><glyph unicode="|" horiz-adv-x="329" d="M100-262v1567q0 27 18.5 45t45.5 18 45-18.5 18-44.5V-262q0-27-18.5-45.5T164-326q-27 0-45.5 18.5T100-262z"/><glyph unicode="}" horiz-adv-x="727" d="M59-141q0 27 18.5 45T123-78q49 0 93 19.5T293-6t51 77 18 93v981q0 49-18 93t-51 77-77 52-93 19q-27 0-45.5 18.5T59 1450t19.5 45 52.5 18q74 0 139.5-30.5T385 1402t76.5-116.5T489 1145V717h115q27 0 45.5-18.5T668 653t-18.5-45-45.5-18H489V164q0-76-28.5-143.5T382-97t-116.5-79T123-205q-27 0-45.5 18.5T59-141z"/><glyph unicode="~" horiz-adv-x="1079" d="M88 565q0 25 18 43 20 27 48 55.5t59 52 65.5 39T350 770q23 0 41.5-2t36.5-8 39.5-16.5T518 719q35-18 62.5-37.5t53-35 50.5-25 53-9.5q39 0 65.5 22.5t46 50.5 38 50.5T930 758q29 0 43-19.5t14-42.5q0-35-25.5-71.5T898 559t-82-47-79-18q-27 0-46 2t-39.5 9-42 19.5T557 557q-53 35-100 63.5T350 649q-35 0-63.5-22.5t-52-48-45-48T147 508q-23 0-41 16.5T88 565z"/><glyph unicode="¡" horiz-adv-x="413" d="M123 952q0-35 24.5-59.5T207 868t59.5 24.5T291 952t-25 59.5-59 24.5q-35 0-59.5-24.5T123 952zm20-1161q0-27 18.5-45.5T207-273t45 18.5 18 45.5v835q0 27-18.5 45.5T207 690q-27 0-45.5-18.5T143 626v-835z"/><glyph unicode="¢" horiz-adv-x="989" d="M63 489q0 90 30 171t84 144.5T305 912t162 63v201q0 29 20.5 49t51.5 20q29 0 48-20.5t19-48.5V983q70-8 128.5-32.5t99-54.5 63.5-57.5 23-43.5q0-23-18.5-39.5T860 739q-27 0-45 19-43 37-96 61.5T606 854V125q59 8 112.5 34.5T815 227q18 18 45 19 25 0 44.5-17.5T924 184q0-18-21.5-46.5T841 80t-99.5-51.5T606 0v-133q0-29-19.5-49.5T539-203q-31 0-51.5 20.5T467-133V6q-86 14-160 56T179 167.5 94 313 63 489zm127 0q0-66 20.5-123T268 262t88.5-81T467 133v713q-59-16-110.5-49T268 717t-57.5-105.5T190 489z"/><glyph unicode="£" horiz-adv-x="1126" d="M59 528q0 27 18.5 45.5T123 592h92v383q0 43 17.5 101.5T290 1186t103.5 87 157.5 36q27 0 45-18.5t18-45.5-18-45-45-18q-68 0-109-28t-63.5-62.5T349 1023t-7-48V592h102q27 0 45.5-18.5T508 528t-18.5-45-45.5-18H342V127h662q27 0 45-18.5t18-45.5-18.5-45T1004 0H279q-25 0-44.5 18.5T215 63v402h-92q-27 0-45.5 18.5T59 528z"/><glyph unicode="¤" horiz-adv-x="1173" d="M92 692q0 109 42 201t114 160l-139 204q-14 29-15 48 0 18 15.5 38.5T156 1364q39 0 59-33l137-205q53 29 112.5 46.5T590 1190q57 0 111.5-14.5T805 1137l137 194q25 33 57 33 31 0 47.5-19.5t16.5-41.5q0-27-16-46l-138-192q78-70 125-166t47-207q0-113-47-209T907 317q49-72 78-114.5t43-65 20-29.5l5-8q12-18 12-37 0-27-18.5-46T999-2q-35 0-51 29l-5 8-20.5 31.5-44 67.5L801 250q-49-23-102.5-36T586 201q-127 0-236 57L213 27Q195-2 160-2q-27 0-44.5 18.5T98 61q0 20 11 39l139 230q-72 66-114 159T92 692zm129 0q0-76 29-142.5T329 433t116.5-78.5T588 326t143.5 28.5T849 433t78.5 116.5T956 692t-28.5 143.5-78.5 118-117.5 79T588 1061t-142.5-28.5-116.5-79-79-118T221 692z"/><glyph unicode="¥" horiz-adv-x="1085" d="M70 1249q0 18 16 39t45 21q33 0 57-33l353-508 354 508q10 16 25.5 24.5t31.5 8.5q29 0 45.5-19.5t16.5-42.5-17-43L627 688h217q27 0 45-18.5t18-44.5q0-27-18.5-45.5T844 561H604V434h240q27 0 45-18.5t18-44.5q0-27-18.5-45.5T844 307H604V63q0-27-18.5-45T541 0q-27 0-45.5 18.5T477 63v244H240q-27 0-45.5 18.5T176 371t18.5 45 45.5 18h237v127H240q-27 0-45.5 18.5T176 625t18.5 45 45.5 18h213L84 1204q-14 29-14 45z"/><glyph unicode="¦" horiz-adv-x="329" d="M100-311v1609q0 27 18.5 45.5T164 1362t45-18.5 18-45.5V-311q0-27-18.5-45.5T164-375q-27 0-45.5 18.5T100-311z"/><glyph unicode="§" horiz-adv-x="995" d="M82 436q0 94 38.5 175.5T225 750q-59 43-94 103T96 985q0 68 31 127t84 102 125 69 151 26q78 0 149-24.5t125-67.5 86-100.5T879 993q0-33-17.5-51T817 924t-45 17-18 44q0 35-20.5 71t-56.5 64.5-84 46-106 17.5q-55 0-103-16.5t-85-43-57.5-63.5-20.5-76q0-59 32-93t87-75q35 14 73 22.5t79 8.5q86 0 160.5-33t130-88 88-130T903 436t-32.5-160.5T782 145q59-43 94-103t35-132q0-68-30.5-127t-84-102-125-69T520-414t-150.5 24.5T246-322t-85 100.5T129-98q0 33 17.5 51T190-29q27 0 45.5-17T254-90q0-35 20.5-71t56.5-64.5 84-46T520-289q55 0 103.5 16.5t85 43 57 62.5T786-90q0 55-30.5 90T678 70q-84-43-186-43-86 0-161 31.5t-130.5 87-87 130T82 436zm127 0q0-59 22.5-110.5t61.5-90 90-61T494 152q57 0 109 22.5t90 61 60.5 90T776 436q0 57-22.5 109.5T693 636t-90 60.5T494 719q-59 0-110.5-22.5T293 636t-61.5-90.5T209 436z"/><glyph unicode="¨" horiz-adv-x="675" d="M92 1518q0 35 24.5 59.5T176 1602t59.5-25 24.5-59q0-35-24.5-59.5T176 1434t-59.5 24.5T92 1518zm324 0q0 35 24.5 59.5T500 1602t59.5-25 24.5-59q0-35-24.5-59.5T500 1434t-59.5 24.5T416 1518z"/><glyph unicode="©" horiz-adv-x="1640" d="M80 662q0 154 58.5 288.5t157.5 235 234 159 289 58.5 289-58.5 235.5-159 159-235.5 58.5-288q0-154-58.5-289t-159-234.5-235.5-158T819-78 530-19.5t-234 158T138.5 373 80 662zm127-3q0-127 48-238.5T386 226 580.5 95 819 47t239.5 48T1254 226t131.5 194.5T1434 659t-48.5 240-131.5 196-195.5 131-239.5 48-238.5-48T386 1095 255 899t-48-240zm260 3q0 72 27.5 134T569 905t109.5 75 134.5 28q51 0 94-13.5t75-32 52.5-37T1063 895q20-18 20-47 0-23-15-40t-42-17q-23 0-45.5 13t-48 30.5-54 31T815 879q-45 0-85-17.5T661.5 814t-46-69.5T598 659q0-92 62.5-154.5T815 442q45 0 84 15.5t68 44.5q18 20 45 20 29 0 46-19.5t17-43.5q0-35-29.5-61.5t-71.5-45-86-28-75-9.5q-72 0-134.5 28T569 418t-74.5 109.5T467 662z"/><glyph unicode="ª" horiz-adv-x="921" d="M84 985q0 80 28.5 148.5t80 120 121 81T463 1364q76 0 144.5-29.5t119.5-82 81-121T838 985V655q0-20-15.5-41.5T774 592t-48 21.5-15 41.5v76q-53-57-108.5-89T461 610q-78 0-146.5 29t-120 79-81 118.5T84 985zm129 2q0-51 19.5-97t53-80 80-53.5T463 737t97 19.5 80 53.5 53.5 80 19.5 97-19.5 97-53.5 80-80 53.5-97 19.5-97.5-19.5-80-53.5-53-80-19.5-97z"/><glyph unicode="«" horiz-adv-x="1093" d="M86 485q0 27 18 45l439 412q18 18 45 19 27 0 45-18.5t18-45.5-18-45L242 485l391-372q18-18 18-45t-18.5-45.5T588 4q-27 0-45 19L106 438q-20 20-20 47zm367 0q0 27 18 45l438 412q18 18 45 19 27 0 45.5-18.5T1018 897t-19-45L608 485l391-372q18-18 19-45 0-27-18.5-45.5T954 4t-45 19L471 440q-18 18-18 45z"/><glyph unicode="¬" horiz-adv-x="1087" d="M72 637q0 27 18.5 45t44.5 18h817q27 0 45.5-18t18.5-45V346q0-27-18.5-45T952 283t-45 18-18 45v227H135q-27 0-45 18.5T72 637z"/><glyph unicode="­" horiz-adv-x="950" d="M96 637q0 27 18.5 45t45.5 18h631q27 0 45-18t18-45-18.5-45.5T791 573H160q-27 0-45.5 18.5T96 637z"/><glyph unicode="®" horiz-adv-x="1640" d="M80 651q0 154 58.5 289T296 1175.5t234 159 289 58.5 289-58.5 235.5-159 159-235.5 58.5-289-58.5-289-159-234T1108-29.5 819-88 530-29.5 296 128 138.5 362.5 80 651zm127-2q0-127 48-238.5T386 216 580.5 85 819 37t239.5 48T1254 216t131.5 194.5T1434 649t-48.5 239.5T1254 1084t-195.5 131.5T819 1264t-238.5-48.5T386 1084 255 888.5 207 649zm465-303v295q2 74 31.5 141.5T782 902t116 83 144 31q29 0 47.5-18.5T1108 950t-18.5-47-47.5-18q-53-2-97-22.5T869.5 809t-50-76-20.5-92V346q0-27-18.5-45T735 283t-45 18-18 45z"/><glyph unicode="¯" horiz-adv-x="796" d="M78 1206q0 27 18.5 45.5T141 1270h461q27 0 45.5-18.5T666 1206t-18.5-45-45.5-18H141q-27 0-45 18.5T78 1206z"/><glyph unicode="°" horiz-adv-x="923" d="M80 928q0 80 29.5 149.5t82 121.5 121 82 148.5 30 149.5-30 121.5-82 82-121.5T844 928t-30-148.5-82-121-121.5-82T461 547t-148.5 29.5-121 82-82 121T80 928zm127 0q0-53 19.5-99.5t54-81 81-54T461 674t99 19.5 81 54 55.5 80.5T717 928q0 53-20.5 99t-55.5 81-81 55.5-99 20.5-99.5-20.5-81-55.5-54-81-19.5-99z"/><glyph unicode="±" horiz-adv-x="878" d="M59 330q0 27 18.5 45t45.5 18h631q27 0 45-18.5t18-44.5q0-27-18.5-45.5T754 266H123q-27 0-45.5 18.5T59 330zm0 518q0 27 18.5 45t45.5 18h252v254q0 27 18.5 45.5T438 1229q27 0 45.5-18.5T502 1165V911h254q27 0 45-18.5t18-44.5q0-27-18.5-45.5T756 784H502V530q0-27-18.5-45T438 467t-45 18.5-18 44.5v254H123q-27 0-45.5 18.5T59 848z"/><glyph unicode="²" horiz-adv-x="825" d="M84 602q0 20 12.5 34.5T119 659q135 106 211 168l114 93q45 37 58 45 25 20 51.5 46.5T580 1069t-15.5 52.5-40 35.5-54.5 21.5-60 7.5q-25 0-52.5-7.5t-52-19.5-41-31.5T246 1083q-2-35-20.5-53t-43.5-18q-23 0-43 17.5t-20 45.5q0 49 23.5 93t63.5 76 93 50.5 113 18.5q61 0 114.5-19.5t93-52.5 63.5-77 24-95q0-53-29-95t-70-81q-16-14-53-45-31-27-87-72T322 662h362q25-2 42-20.5t17-43.5q0-27-17-44t-42-19H147q-20 0-41.5 15T84 602z"/><glyph unicode="³" horiz-adv-x="694" d="M82 639q0 27 18.5 45t44.5 18q27 0 45.5-18t18.5-45q0-57 39-97t98-40 99 40 40 97q0 53-38.5 96T346 778q-27 0-44 18.5T285 842t17 44 44 17q59 0 99 41t40 98-39.5 97.5T346 1180q-59 0-98-40t-39-98q0-27-18.5-45T145 979t-45 18.5-18 44.5q0 55 20.5 103.5T159 1231t84 57.5 103 20.5 103.5-20.5 85-57.5 57-85.5T612 1042q0-59-25.5-112T518 842q43-37 68.5-89.5T612 639q0-47-18.5-94t-53-86-83.5-62.5T346 373q-55 0-103 20.5t-84 57-56.5 85T82 639z"/><glyph unicode="´" horiz-adv-x="415" d="M59 1110q0 14 7 27l170 295q16 31 53 30 29 0 46-20.5t17-44.5q0-16-6-29l-170-293q-8-16-22.5-24.5T123 1042q-29 0-46.5 22.5T59 1110z"/><glyph unicode="¶" horiz-adv-x="329" d="M100 63v1235q0 27 18.5 45.5T164 1362t45-18.5 18-45.5V63q0-27-18.5-45T164 0q-27 0-45.5 18.5T100 63z"/><glyph unicode="·" horiz-adv-x="309" d="M82 496q0 31 20.5 52t51.5 21 52-21.5 21-51.5q0-31-21.5-51.5T154 424q-31 0-51.5 20.5T82 496z"/><glyph unicode="¸" horiz-adv-x="493" d="M68-199q0 23 17 40.5t40 17.5q31 0 41-18.5t18.5-42 19.5-42 42-18.5q27 0 45 18.5t18 44.5q0 33-18.5 43.5t-42 18.5-42 20.5T188-70v191h115V-29q53-18 87-64t34-106q0-74-52.5-126T246-377q-74 0-126 52.5T68-199z"/><glyph unicode="¹" horiz-adv-x="518" d="M74 1094q0 16 7 30.5t23 24.5l230 145q20 14 47 15 27 0 45-16.5t18-45.5V606q0-27-18-45t-45-18-45.5 18.5T317 606v524l-147-90q-16-10-33-10-23 0-43 17.5T74 1094z"/><glyph unicode="º" horiz-adv-x="921" d="M80 928q0 80 29.5 148.5t82 120.5 121 82 148.5 30 148.5-30 120.5-82 82-120.5T842 928t-30-148.5-82-121-120.5-82T461 547t-148.5 29.5-121 82-82 121T80 928zm127 0q0-53 20.5-99.5t54-80 80-54T461 674q51 0 98 20.5t81 54 54.5 79.5T715 928q0 51-20.5 98t-54.5 81-81 54.5-98 20.5q-53 0-99.5-20.5t-80-54.5-54-81-20.5-98z"/><glyph unicode="»" horiz-adv-x="1093" d="M86 68q0 27 18 45l392 372-392 367q-18 18-18 45t18.5 45.5T150 961t45-19l438-412q18-18 18-45t-18-45L195 23Q177 5 150 4q-27 0-45.5 18.5T86 68zm367 0q0 27 18 45l391 372-391 367q-18 18-18 45t18 45.5 45 18.5 45-19l438-412q18-18 19-45 0-27-21-47L561 23Q543 5 516 4q-27 0-45 18.5T453 68z"/><glyph unicode="¼" horiz-adv-x="1187" d="M72 1135q0 16 7 30.5t23 24.5l230 145q20 14 47 15 27 0 45-16.5t18-45.5V647q0-27-18-45t-45-18-45.5 18.5T315 647v524l-147-90q-16-10-33-10-23 0-43 17.5T72 1135zM330 57q0 14 4 23l409 1229q6 20 24.5 32.5T807 1354q29 0 44-19.5t15-42.5q0-12-2-18L455 43q-8-23-25.5-34T391-2q-29 0-45 18.5T330 57zm321 246q0 12 2 19l131 432q12 45 60 45 29 0 46-19.5t17-46.5q0-10-2-16L801 365h127v110q0 27 18.5 45.5T991 539q27 0 45.5-18.5T1055 475V365q27 0 45-18.5t18-45.5-18.5-45-44.5-18V66q0-27-18.5-45.5T991 2t-45 18.5T928 66v172H719q-27 0-47.5 18T651 303z"/><glyph unicode="½" horiz-adv-x="1411" d="M70 1135q0 16 7 30.5t23 24.5l230 145q20 14 47 15 27 0 45-16.5t18-45.5V647q0-27-18.5-45T377 584q-27 0-45.5 18.5T313 647v524l-147-90q-16-10-33-10-23 0-43 17.5T70 1135zM328 57q0 14 4 23l409 1229q6 20 24.5 32.5T805 1354q29 0 44-19.5t15-42.5q0-12-2-18L453 43q-8-23-25.5-34T389-2q-29 0-45 18.5T328 57zm354 11q0 20 12.5 34.5T717 125q135 106 211 167.5t114 92.5q45 37 58 45 25 20 51.5 47t26.5 58-15.5 52-40 35.5T1068 644t-60 7q-25 0-52.5-7t-52-19.5-41-32T844 549q-2-35-20.5-53.5T780 477q-23 0-43 17.5T717 541q0 49 23.5 93t63.5 75.5 93 50 113 18.5q61 0 114.5-19.5t93-52T1281 630t24-95q0-53-29-95.5t-70-81.5q-16-14-53-45-31-27-87-71.5T920 127h362q25-2 42-20.5t17-43.5q0-27-17-44t-42-19H745q-20 0-41.5 15.5T682 68z"/><glyph unicode="¾" horiz-adv-x="1316" d="M72 694q0 27 18.5 45.5T135 758q27 0 45.5-18.5T199 694q0-57 38.5-97t98.5-40q59 0 99 40t40 97q0 55-39 95.5T336 834q-27 0-44.5 18T274 897t17.5 44 44.5 17q59 0 99 41t40 99q0 57-40 97t-99 40-98-40-39-97q0-27-18.5-45.5T135 1034t-45 18.5-18 45.5q0 55 20.5 103t56 85 84 57.5T336 1364t103-20.5 85-57.5 57.5-85 20.5-103q0-59-25.5-112.5T508 897q43-37 68.5-89T602 694q0-47-18.5-94t-53-86-84-62.5T336 428q-55 0-103.5 20.5t-84 57.5-56 85T72 694zM461 57q0 14 4 23l409 1229q6 20 23.5 32.5T938 1354q29 0 44-19.5t15-42.5q0-12-2-18L586 43q-8-23-25.5-34T522-2q-29 0-45 18.5T461 57zm315 246q0 12 2 19l131 432q12 45 60 45 29 0 46-19.5t17-46.5q0-10-2-16L926 365h127v110q0 27 18.5 45.5T1116 539q27 0 45.5-18.5T1180 475V365q27 0 45-18.5t18-45.5-18.5-45-44.5-18V66q0-27-18.5-45.5T1116 2t-45 18.5-18 45.5v172H844q-27 0-47.5 18T776 303z"/><glyph unicode="¿" horiz-adv-x="935" d="M-10 86q0 84 31.5 156.5t86 127 128 86T391 487h64v96q0 33 18.5 52.5T518 655q27 0 45.5-19.5T582 583V432q0-33-19.5-52.5T510 360H391q-57 0-107-21.5T197 280t-58.5-86T117 88t21.5-107.5T197-107t87-58.5T391-187q55 0 104.5 21.5T583-107t59.5 87T664 88q0 29 18 46t47 17 46.5-17.5T793 88q0-84-32-158t-86-128-127-86-157-32q-82 0-155.5 32t-128 86-86 128T-10 86zm444 823q0 35 24.5 59.5T518 993t59.5-24.5T602 909t-24.5-59.5T518 825t-59.5 24.5T434 909z"/><glyph unicode="À" horiz-adv-x="1288" d="M70 61q0 12 6 25l510 1174q6 16 22.5 31.5T645 1307t36.5-14.5T707 1260L1212 86q4-8 5-25 0-25-16.5-43T1155 0q-43 0-59 39L932 414H356L193 39q-8-18-24.5-28.5T133 0q-29 0-46 18.5T70 61zm325 1690q0 23 17.5 44t46.5 21q16 0 30.5-7t22.5-23l170-293q6-16 6-29 0-25-17.5-45.5T625 1398q-39 0-53 31l-170 295q-6 12-7 27zm17-1210h465l-232 528z"/><glyph unicode="Á" horiz-adv-x="1288" d="M70 63q0 12 6 25l510 1174q6 16 22.5 31.5T645 1309t36.5-14.5T707 1262L1212 88q4-8 5-25 0-25-16.5-43T1155 2q-43 0-59 39L932 416H356L193 41q-8-18-24.5-28.5T133 2q-29 0-46 18.5T70 63zm342 480h465l-232 528zm167 919q0 14 7 27l170 295q16 31 53 30 29 0 46-20.5t17-44.5q0-16-6-29l-170-293q-8-16-22.5-24.5T643 1394q-29 0-46.5 22.5T579 1462z"/><glyph unicode="Â" horiz-adv-x="1288" d="M70 63q0 12 6 25l510 1174q6 16 22.5 31.5T645 1309t36.5-14.5T707 1262L1212 88q4-8 5-25 0-25-16.5-43T1155 2q-43 0-59 39L932 416H356L193 41q-8-18-24.5-28.5T133 2q-29 0-46 18.5T70 63zm225 1352q0 27 19 45l284 273q18 18 45 18t45-18l287-268q18-18 19-45 0-27-18.5-45.5T930 1356t-45 18l-242 228-239-232q-18-18-45-18t-45.5 18.5T295 1415zm117-872h465l-232 528z"/><glyph unicode="Ã" horiz-adv-x="1288" d="M70 63q0 12 6 25l510 1174q6 16 22.5 31.5T645 1309t36.5-14.5T707 1262L1212 88q4-8 5-25 0-25-16.5-43T1155 2q-43 0-59 39L932 416H356L193 41q-8-18-24.5-28.5T133 2q-29 0-46 18.5T70 63zm159 1395q0 23 26.5 57.5T321 1583t85 56.5 85 23.5q43 0 85-24.5t82-54.5 75-54.5 63-24.5q39 0 66 22.5t46 50.5 37.5 50.5T989 1651q29 0 43-19.5t14-42.5q0-35-25.5-71.5T957 1452t-82-47-79-18q-43 0-81.5 24.5t-76.5 53-74 53-73 24.5q-25 0-47-12t-42.5-30.5-37-39.5-30.5-37q-14-23-46-22-23 0-41 16.5t-18 40.5zm183-915h465l-232 528z"/><glyph unicode="Ä" horiz-adv-x="1288" d="M70 63q0 12 6 25l510 1174q6 16 22.5 31.5T645 1309t36.5-14.5T707 1262L1212 88q4-8 5-25 0-25-16.5-43T1155 2q-43 0-59 39L932 416H356L193 41q-8-18-24.5-28.5T133 2q-29 0-46 18.5T70 63zm325 1416q0 35 24.5 59.5T479 1563t59.5-25 24.5-59q0-35-24.5-59.5T479 1395t-59.5 24.5T395 1479zm17-936h465l-232 528zm307 936q0 35 24.5 59.5T803 1563t59.5-25 24.5-59q0-35-24.5-59.5T803 1395t-59.5 24.5T719 1479z"/><glyph unicode="Å" horiz-adv-x="1288" d="M70 63q0 12 6 25l510 1174q6 16 22.5 31.5T645 1309t36.5-14.5T707 1262L1212 88q4-8 5-25 0-25-16.5-43T1155 2q-43 0-59 39L932 416H356L193 41q-8-18-24.5-28.5T133 2q-29 0-46 18.5T70 63zm342 480h465l-232 528zm39 1017q0 82 56 139.5t138 57.5 139.5-57.5T842 1560t-57.5-138-139.5-56-138 56-56 138zm123 0q0-33 19.5-52t51.5-19q33 0 53.5 19t20.5 52-20.5 53.5T645 1634t-52-20.5-19-53.5z"/><glyph unicode="Æ" horiz-adv-x="1961" d="M93 63q0 12 6 25l510 1174q6 16 22.5 31.5T668 1309t36.5-14.5T730 1262L1235 88q4-8 5-25 0-25-16.5-43T1178 2q-43 0-59 39L955 416H379L216 41q-8-18-24.5-28.5T156 2q-29 0-46 18.5T93 63zm342 480h465l-232 528zm677-480v1182q0 27 18.5 45.5t44.5 18.5h623q27 0 45-18.5t18-45.5-18.5-45-44.5-18h-559V725h372q27 0 45.5-18.5T1675 662q0-27-18.5-45.5T1611 598h-372V127h559q27 0 45-18.5t18-45.5-18.5-45T1798 0h-623q-27 0-45 18.5T1112 63z"/><glyph unicode="Ç" horiz-adv-x="1310" d="M80 651q0 135 51 254t139 208 207 140.5 254 51.5q137 0 257-53.5t210-145.5q10-10 18.5-26.5t8.5-32.5q0-27-18.5-41.5T1163 991q-31 1-49 21-74 63-172 114.5T731 1178q-109 0-205-41t-166.5-113T248 856t-41-205 41-205 111.5-166.5 167-111.5T731 127q115 0 214 44t171 122q10 12 25.5 18t32.5 6q27 0 40-18t13-41q0-33-19-51-90-98-213-152.5T731 0Q596 0 477 51T270 190.5t-139 207T80 651zm437-918q0 23 17 40.5t40 17.5q31 0 41-18.5t18.5-42 19.5-42 42-18.5q27 0 45 18.5t18 44.5q0 33-18.5 43.5t-42 18.5-42 20.5T637-138V53h115V-97q53-18 87-64t34-106q0-74-52.5-126T695-445q-74 0-126 52.5T517-267z"/><glyph unicode="È" horiz-adv-x="903" d="M76 63v1182q0 27 18.5 45.5T139 1309h623q27 0 45-18.5t18-45.5-18.5-45-44.5-18H203V725h372q27 0 45.5-18.5T639 662q0-27-18.5-45.5T575 598H203V127h559q27 0 45-18.5T825 63t-18.5-45T762 0H139q-27 0-45 18.5T76 63zm153 1688q0 23 17.5 44t46.5 21q16 0 30.5-7t22.5-23l170-293q6-16 6-29 0-25-17.5-45.5T459 1398q-39 0-53 31l-170 295q-6 12-7 27z"/><glyph unicode="É" horiz-adv-x="903" d="M76 63v1182q0 27 18.5 45.5T139 1309h623q27 0 45-18.5t18-45.5-18.5-45-44.5-18H203V725h372q27 0 45.5-18.5T639 662q0-27-18.5-45.5T575 598H203V127h559q27 0 45-18.5T825 63t-18.5-45T762 0H139q-27 0-45 18.5T76 63zm350 1399q0 14 7 27l170 295q16 31 53 30 29 0 46-20.5t17-44.5q0-16-6-29l-170-293q-8-16-22.5-24.5T490 1394q-29 0-46.5 22.5T426 1462z"/><glyph unicode="Ê" horiz-adv-x="903" d="M76 63v1182q0 27 18.5 45.5T139 1309h623q27 0 45-18.5t18-45.5-18.5-45-44.5-18H203V725h372q27 0 45.5-18.5T639 662q0-27-18.5-45.5T575 598H203V127h559q27 0 45-18.5T825 63t-18.5-45T762 0H139q-27 0-45 18.5T76 63zm32 1393q0 27 19 45l284 273q18 18 45 18t45-18l287-268q18-18 19-45 0-27-18.5-45.5T743 1397t-45 18l-242 228-239-232q-18-18-45-18t-45.5 18.5T108 1456z"/><glyph unicode="Ë" horiz-adv-x="903" d="M76 63v1182q0 27 18.5 45.5T139 1309h623q27 0 45-18.5t18-45.5-18.5-45-44.5-18H203V725h372q27 0 45.5-18.5T639 662q0-27-18.5-45.5T575 598H203V127h559q27 0 45-18.5T825 63t-18.5-45T762 0H139q-27 0-45 18.5T76 63zm135 1420q0 35 24.5 59.5T295 1567t59.5-25 24.5-59q0-35-24.5-59.5T295 1399t-59.5 24.5T211 1483zm324 0q0 35 24.5 59.5T619 1567t59.5-25 24.5-59q0-35-24.5-59.5T619 1399t-59.5 24.5T535 1483z"/><glyph unicode="Ì" horiz-adv-x="329" d="M-70 1753q0 23 17.5 44t46.5 21q16 0 30.5-7t22.5-23l170-293q6-16 6-29 0-25-17.5-45.5T160 1400q-39 0-53 31l-170 295q-6 12-7 27zM102 63v1182q0 27 18.5 45.5T166 1309t45-18.5 18-45.5V63q0-27-18.5-45T166 0q-27 0-45.5 18.5T102 63z"/><glyph unicode="Í" horiz-adv-x="329" d="M100 63v1182q0 27 18.5 45.5T164 1309t45-18.5 18-45.5V63q0-27-18.5-45T164 0q-27 0-45.5 18.5T100 63zm8 1403q0 14 7 27l170 295q16 31 53 30 29 0 46-20.5t17-44.5q0-16-6-29l-170-293q-8-16-22.5-24.5T172 1398q-29 0-46.5 22.5T108 1466z"/><glyph unicode="Î" horiz-adv-x="348" d="M-162 1448q0 27 19 45l284 273q18 18 45 18t45-18l287-268q18-18 19-45 0-27-18.5-45.5T473 1389t-45 18l-242 228-239-232q-18-18-45-18t-45.5 18.5-18.5 44.5zM108 63v1182q0 27 18.5 45.5T172 1309t45-18.5 18-45.5V63q0-27-18.5-45T172 0q-27 0-45.5 18.5T108 63z"/><glyph unicode="Ï" horiz-adv-x="307" d="M-92 1500q0 35 24.5 59.5T-8 1584t59.5-25 24.5-59q0-35-24.5-59.5T-8 1416t-59.5 24.5T-92 1500zM88 63v1182q0 27 18.5 45.5T152 1309t45-18.5 18-45.5V63q0-27-18.5-45T152 0q-27 0-45.5 18.5T88 63zm144 1437q0 35 24.5 59.5T316 1584t59.5-25 24.5-59q0-35-24.5-59.5T316 1416t-59.5 24.5T232 1500z"/><glyph unicode="Ð" horiz-adv-x="1382" d="M78 614q0 27 18.5 45.5T141 678h95v567q0 27 18 45.5t45 18.5h352q135 0 254-52.5t208-141.5 140.5-209 51.5-255-51.5-253.5-140.5-207T905 51 651 0H299q-27 0-45 18.5T236 63v488h-95q-27 0-45 18.5T78 614zm284-487h289q109 0 205 41t168 111.5 113 167 41 204.5q0 109-41 205t-113 169-168 115-205 42H362V678h109q27 0 45.5-18.5T535 614t-18.5-45-45.5-18H362V127z"/><glyph unicode="Ñ" d="M98 63v1182q0 27 18.5 45.5T162 1309q23 0 34-9.5t23-25.5l705-998v969q0 27 18.5 45.5T987 1309q27 0 45.5-18.5t18.5-45.5V63q0-27-18.5-45T987 0q-23 0-37 13.5T926 43l-701 991V63q0-27-18.5-45T162 0q-27 0-45.5 18.5T98 63zm68 1399q0 23 26.5 57.5T258 1587t85 56.5 85 23.5q43 0 85-24.5t82-54.5 75-54.5 63-24.5q39 0 66 22.5t46 50.5 37.5 50.5T926 1655q29 0 43-19.5t14-42.5q0-35-25.5-71.5T894 1456t-82-47-79-18q-43 0-81.5 24.5t-76.5 53-74 53-73 24.5q-25 0-47-12t-42.5-30.5-37-39.5-30.5-37q-14-23-46-22-23 0-41 16.5t-18 40.5z"/><glyph unicode="Ò" horiz-adv-x="1464" d="M80 651q0 135 51 254t139 208 207 140.5 254 51.5 254-51.5 208-140.5 140-208 51-254-51-253.5-140-207T985 51 731 0 477 51 270 190.5t-139 207T80 651zm127 0q0-109 41-205t111.5-166.5 167-111.5T731 127q109 0 205 41t168 111.5 112.5 167T1257 651q0 109-40.5 205T1104 1024t-168 113-205 41-205-41-166.5-113T248 856t-41-205zm286 1100q0 23 17.5 44t46.5 21q16 0 30.5-7t22.5-23l170-293q6-16 6-29 0-25-17.5-45.5T723 1398q-39 0-53 31l-170 295q-6 12-7 27z"/><glyph unicode="Ó" horiz-adv-x="1464" d="M80 651q0 135 51 254t139 208 207 140.5 254 51.5 254-51.5 208-140.5 140-208 51-254-51-253.5-140-207T985 51 731 0 477 51 270 190.5t-139 207T80 651zm127 0q0-109 41-205t111.5-166.5 167-111.5T731 127q109 0 205 41t168 111.5 112.5 167T1257 651q0 109-40.5 205T1104 1024t-168 113-205 41-205-41-166.5-113T248 856t-41-205zm466 813q0 14 7 27l170 295q16 31 53 30 29 0 46-20.5t17-44.5q0-16-6-29l-170-293q-8-16-22.5-24.5T737 1396q-29 0-46.5 22.5T673 1464z"/><glyph unicode="Ô" horiz-adv-x="1464" d="M80 651q0 135 51 254t139 208 207 140.5 254 51.5 254-51.5 208-140.5 140-208 51-254-51-253.5-140-207T985 51 731 0 477 51 270 190.5t-139 207T80 651zm127 0q0-109 41-205t111.5-166.5 167-111.5T731 127q109 0 205 41t168 111.5 112.5 167T1257 651q0 109-40.5 205T1104 1024t-168 113-205 41-205-41-166.5-113T248 856t-41-205zm178 784q0 27 19 45l284 273q18 18 45 18t45-18l287-268q18-18 19-45 0-27-18.5-45.5T1020 1376t-45 18l-242 228-239-232q-18-18-45-18t-45.5 18.5T385 1435z"/><glyph unicode="Õ" horiz-adv-x="1464" d="M80 651q0 135 51 254t139 208 207 140.5 254 51.5 254-51.5 208-140.5 140-208 51-254-51-253.5-140-207T985 51 731 0 477 51 270 190.5t-139 207T80 651zm127 0q0-109 41-205t111.5-166.5 167-111.5T731 127q109 0 205 41t168 111.5 112.5 167T1257 651q0 109-40.5 205T1104 1024t-168 113-205 41-205-41-166.5-113T248 856t-41-205zm108 807q0 23 26.5 57.5T407 1583t85 56.5 85 23.5q43 0 85-24.5t82-54.5 75-54.5 63-24.5q39 0 66 22.5t46 50.5 37.5 50.5 43.5 22.5q29 0 43-19.5t14-42.5q0-35-25.5-71.5T1043 1452t-82-47-79-18q-43 0-81.5 24.5t-76.5 53-74 53-73 24.5q-25 0-47-12t-42.5-30.5-37-39.5-30.5-37q-14-23-46-22-23 0-41 16.5t-18 40.5z"/><glyph unicode="Ö" horiz-adv-x="1464" d="M80 651q0 135 51 254t139 208 207 140.5 254 51.5 254-51.5 208-140.5 140-208 51-254-51-253.5-140-207T985 51 731 0 477 51 270 190.5t-139 207T80 651zm127 0q0-109 41-205t111.5-166.5 167-111.5T731 127q109 0 205 41t168 111.5 112.5 167T1257 651q0 109-40.5 205T1104 1024t-168 113-205 41-205-41-166.5-113T248 856t-41-205zm282 828q0 35 24.5 59.5T573 1563t59.5-25 24.5-59q0-35-24.5-59.5T573 1395t-59.5 24.5T489 1479zm324 0q0 35 24.5 59.5T897 1563t59.5-25 24.5-59q0-35-24.5-59.5T897 1395t-59.5 24.5T813 1479z"/><glyph unicode="×" horiz-adv-x="1079" d="M94 106q0 25 19 48l338 342-334 335q-20 25-21 48 0 29 20.5 45t45.5 16q27 0 43-16l336-338 333 336q16 16 44 16 25 0 44-16.5t19-44.5q0-27-18-48L629 496l338-338q18-23 18-47 0-25-19.5-43.5T922 49q-27 0-45 21L541 406 203 66q-18-20-45-21-25 0-44.5 18.5T94 106z"/><glyph unicode="Ø" horiz-adv-x="1464" d="M80 651q0 135 51 254t139 208 207 140.5 254 51.5 254-51.5 208-140.5 140-208 51-254-51-253.5-140-207T985 51 731 0 477 51 270 190.5t-139 207T80 651zm127 0q0-109 41-205t111.5-166.5 167-111.5T731 127q109 0 205 41t168 111.5 112.5 167T1257 651q0 109-40.5 205T1104 1024t-168 113-205 41-205-41-166.5-113T248 856t-41-205zM467 38q0 8 4 21l394 1229q6 20 23.5 31.5T926 1331q29 0 45-20.5t16-43.5q0-12-2-18L592 20q-6-20-24.5-32.5T531-25q-29 0-46.5 20.5T467 38z"/><glyph unicode="Ù" horiz-adv-x="1095" d="M92 455v788q0 23 18.5 44.5T158 1309t45-20.5 16-47.5V455q0-68 25.5-127.5T314 224t104.5-70.5T547 127t127 26.5T778 224t72 103.5T877 455v788q0 23 18 44.5t47 21.5 45.5-22.5 16.5-45.5V455q0-94-37-177t-98.5-144.5T724 36 547 0 370 36t-144.5 97.5-97.5 144T92 455zm233 1294q0 23 17.5 44t46.5 21q16 0 30.5-7t22.5-23l170-293q6-16 6-29 0-25-17.5-45.5T555 1396q-39 0-53 31l-170 295q-6 12-7 27z"/><glyph unicode="Ú" horiz-adv-x="1095" d="M92 455v788q0 23 18.5 44.5T158 1309t45-20.5 16-47.5V455q0-68 25.5-127.5T314 224t104.5-70.5T547 127t127 26.5T778 224t72 103.5T877 455v788q0 23 18 44.5t47 21.5 45.5-22.5 16.5-45.5V455q0-94-37-177t-98.5-144.5T724 36 547 0 370 36t-144.5 97.5-97.5 144T92 455zm350 1007q0 14 7 27l170 295q16 31 53 30 29 0 46-20.5t17-44.5q0-16-6-29l-170-293q-8-16-22.5-24.5T506 1394q-29 0-46.5 22.5T442 1462z"/><glyph unicode="Û" horiz-adv-x="1095" d="M92 455v788q0 23 18.5 44.5T158 1309t45-20.5 16-47.5V455q0-68 25.5-127.5T314 224t104.5-70.5T547 127t127 26.5T778 224t72 103.5T877 455v788q0 23 18 44.5t47 21.5 45.5-22.5 16.5-45.5V455q0-94-37-177t-98.5-144.5T724 36 547 0 370 36t-144.5 97.5-97.5 144T92 455zm123 1001q0 27 19 45l284 273q18 18 45 18t45-18l287-268q18-18 19-45 0-27-18.5-45.5T850 1397t-45 18l-242 228-239-232q-18-18-45-18t-45.5 18.5T215 1456z"/><glyph unicode="Ü" horiz-adv-x="1095" d="M92 455v788q0 23 18.5 44.5T158 1309t45-20.5 16-47.5V455q0-68 25.5-127.5T314 224t104.5-70.5T547 127t127 26.5T778 224t72 103.5T877 455v788q0 23 18 44.5t47 21.5 45.5-22.5 16.5-45.5V455q0-94-37-177t-98.5-144.5T724 36 547 0 370 36t-144.5 97.5-97.5 144T92 455zm209 1043q0 35 24.5 59.5T385 1582t59.5-25 24.5-59q0-35-24.5-59.5T385 1414t-59.5 24.5T301 1498zm324 0q0 35 24.5 59.5T709 1582t59.5-25 24.5-59q0-35-24.5-59.5T709 1414t-59.5 24.5T625 1498z"/><glyph unicode="Ý" horiz-adv-x="1060" d="M70 1243q0 25 17 44.5t46 19.5q35 0 53-27l344-514 344 514q18 27 54 27 27 0 45-19.5t18-44.5q0-18-10-35L594 633V63q0-27-18.5-45T530 0t-45 18.5T467 63v570L82 1208q-12 14-12 35zm386 219q0 14 7 27l170 295q16 31 53 30 29 0 46-20.5t17-44.5q0-16-6-29l-170-293q-8-16-22.5-24.5T520 1394q-29 0-46.5 22.5T456 1462z"/><glyph unicode="Þ" horiz-adv-x="1058" d="M70-307v1548q0 23 18 44.5t49 21.5q23 0 42.5-19.5T199 1241V801q45 37 94 64.5t95 46 87 27.5 70 9q100 0 187-39t151.5-103.5T984 654t36-181q0-98-38-184T878.5 138.5 727 37 547 0Q445 0 353.5 43T197 158v-465q0-27-18.5-45.5T133-371t-45 18.5T70-307zm129 780q0-72 28.5-135.5T303 227t110.5-74.5T547 125t132 27.5T789.5 227t77 110.5T895 473t-28.5 135.5-77 111.5T679 795.5 547 823t-133.5-29.5T303 715t-75.5-111.5T199 473z"/><glyph unicode="ß" horiz-adv-x="890" d="M88 49v944q0 78 29.5 147.5t81 121 120 81T465 1372t147.5-29.5 120.5-81 81-121T844 993q0-98-46-181T674 678q76-53 122-135t46-181q0-78-30-146.5T731 96 611.5 15.5 465-14q-27 0-45.5 18.5T401 49q0 27 18.5 45.5T465 113q119 10 186.5 81.5T719 362q0 51-18.5 95.5t-52.5 78-81 54T465 614q-27 0-45.5 18.5T401 678t18.5 45 45.5 18q53 0 99 19.5t81 54.5 54.5 80 19.5 98q0 51-19.5 97.5t-54.5 81-81 54-99 19.5-98-19.5-80-54-54.5-81T213 993V49q0-27-18.5-45T150-14q-27 0-44.5 18.5T88 49z"/><glyph unicode="à" horiz-adv-x="1159" d="M84 494q0 102 38 193t104.5 158.5T384 952t198 39q98 0 187-40t156.5-107.5T1033 686t40-192V61q0-27-18.5-45T1010-2q-27 0-45.5 18.5T946 61v125q-68-76-163-130T578 2Q476 2 386.5 39t-157 102.5T123 297 84 494zm127 0q0-76 28.5-142.5t79-117 117-79T578 127q74 0 139 27.5t115.5 77 80 116T946 494q0 76-28.5 143.5t-79 117.5-118 78.5T578 862q-76 0-142.5-28.5t-117-78.5-79-118T211 494zm118 956q0 23 17.5 44t46.5 21q16 0 30.5-7t22.5-23l170-293q6-16 6-29 0-25-17.5-45.5T559 1097q-39 0-53 31l-170 295q-6 12-7 27z"/><glyph unicode="á" horiz-adv-x="1159" d="M84 494q0 102 38 193t104.5 158.5T384 952t198 39q98 0 187-40t156.5-107.5T1033 686t40-192V61q0-27-18.5-45T1010-2q-27 0-45.5 18.5T946 61v125q-68-76-163-130T578 2Q476 2 386.5 39t-157 102.5T123 297 84 494zm127 0q0-76 28.5-142.5t79-117 117-79T578 127q74 0 139 27.5t115.5 77 80 116T946 494q0 76-28.5 143.5t-79 117.5-118 78.5T578 862q-76 0-142.5-28.5t-117-78.5-79-118T211 494zm313 671q0 14 7 27l170 295q16 31 53 30 29 0 46-20.5t17-44.5q0-16-6-29l-170-293q-8-16-22.5-24.5T588 1097q-29 0-46.5 22.5T524 1165z"/><glyph unicode="â" horiz-adv-x="1159" d="M84 498q0 102 38 193t104.5 158.5T384 956t198 39q98 0 187-40t156.5-107.5T1033 690t40-192V65q0-27-18.5-45T1010 2q-27 0-45.5 18.5T946 65v125q-68-76-163-130T578 6Q476 6 386.5 43t-157 102.5T123 301 84 498zm127 0q0-76 28.5-142.5t79-117 117-79T578 131q74 0 139 27.5t115.5 77 80 116T946 498q0 76-28.5 143.5t-79 117.5-118 78.5T578 866q-76 0-142.5-28.5t-117-78.5-79-118T211 498zm24 663q0 27 19 45l284 273q18 18 45 18t45-18l287-268q18-18 19-45 0-27-18.5-45.5T870 1102t-45 18l-242 228-239-232q-18-18-45-18t-45.5 18.5T235 1161z"/><glyph unicode="ã" horiz-adv-x="1159" d="M84 494q0 102 38 193t104.5 158.5T384 952t198 39q98 0 187-40t156.5-107.5T1033 686t40-192V61q0-27-18.5-45T1010-2q-27 0-45.5 18.5T946 61v125q-68-76-163-130T578 2Q476 2 386.5 39t-157 102.5T123 297 84 494zm98 649q0 23 26.5 57.5T274 1268t85 56.5 85 23.5q43 0 85-24.5t82-54.5 75-54.5 63-24.5q39 0 66 22.5t46 50.5 37.5 50.5T942 1336q29 0 43-19.5t14-42.5q0-35-25.5-71.5T910 1137t-82-47-79-18q-43 0-81.5 24.5t-76.5 53-74 53-73 24.5q-25 0-47-12t-42.5-30.5-37-39.5-30.5-37q-14-23-46-22-23 0-41 16.5t-18 40.5zm29-649q0-76 28.5-142.5t79-117 117-79T578 127q74 0 139 27.5t115.5 77 80 116T946 494q0 76-28.5 143.5t-79 117.5-118 78.5T578 862q-76 0-142.5-28.5t-117-78.5-79-118T211 494z"/><glyph unicode="ä" horiz-adv-x="1159" d="M84 494q0 102 38 193t104.5 158.5T384 952t198 39q98 0 187-40t156.5-107.5T1033 686t40-192V61q0-27-18.5-45T1010-2q-27 0-45.5 18.5T946 61v125q-68-76-163-130T578 2Q476 2 386.5 39t-157 102.5T123 297 84 494zm127 0q0-76 28.5-142.5t79-117 117-79T578 127q74 0 139 27.5t115.5 77 80 116T946 494q0 76-28.5 143.5t-79 117.5-118 78.5T578 862q-76 0-142.5-28.5t-117-78.5-79-118T211 494zm127 729q0 35 24.5 59.5T422 1307t59.5-25 24.5-59q0-35-24.5-59.5T422 1139t-59.5 24.5T338 1223zm324 0q0 35 24.5 59.5T746 1307t59.5-25 24.5-59q0-35-24.5-59.5T746 1139t-59.5 24.5T662 1223z"/><glyph unicode="å" horiz-adv-x="1159" d="M84 494q0 102 38 193t104.5 158.5T384 952t198 39q98 0 187-40t156.5-107.5T1033 686t40-192V61q0-27-18.5-45T1010-2q-27 0-45.5 18.5T946 61v125q-68-76-163-130T578 2Q476 2 386.5 39t-157 102.5T123 297 84 494zm127 0q0-76 28.5-142.5t79-117 117-79T578 127q74 0 139 27.5t115.5 77 80 116T946 494q0 76-28.5 143.5t-79 117.5-118 78.5T578 862q-76 0-142.5-28.5t-117-78.5-79-118T211 494zm176 794q0 82 56 139.5t138 57.5 139.5-57.5T778 1288t-57.5-138-139.5-56-138 56-56 138zm123 0q0-33 19.5-52t51.5-19q33 0 53.5 19t20.5 52-20.5 53.5T581 1362t-52-20.5-19-53.5z"/><glyph unicode="æ" horiz-adv-x="2023" d="M84 494q0 102 38 193t104.5 158.5T384 952t198 39q98 0 187-40t156.5-107.5T1033 686t40-192V61q0-27-18.5-45T1010-2q-27 0-45.5 18.5T946 61v125q-68-76-163-130T578 2Q476 2 386.5 39t-157 102.5T123 297 84 494zm127 0q0-76 28.5-142.5t79-117 117-79T578 127q74 0 139 27.5t115.5 77 80 116T946 494q0 76-28.5 143.5t-79 117.5-118 78.5T578 862q-76 0-142.5-28.5t-117-78.5-79-118T211 494zm737 0q0 102 38 191t104.5 155.5T1248 947t198 44q96 0 185-39t156.5-106.5T1896 689t41-191q0-31-20.5-47.5T1874 434h-795q10-66 43-122t81-97 109.5-64.5T1441 127q76 0 141.5 27.5T1699 231q18 18 46 19 27 0 45-18.5t18-45.5-18-45q-68-76-153-107.5T1441 2q-102 0-191 37t-156.5 102.5T987 297t-39 197zm133 67h723q-12 63-45 118.5t-81 95.5-108.5 63.5T1441 862t-128-23.5-108-63.5-80-95-44-119z"/><glyph unicode="ç" horiz-adv-x="1028" d="M84 492q0 102 38 191t104.5 155.5 158 106.5T582 989q82 0 147.5-24.5t112.5-56 72.5-63.5 25.5-48q0-23-18.5-39.5T881 741q-27 0-45 19-51 45-117 72.5T578 860q-76 0-142.5-28.5t-117-79-79-118T211 492q0-76 28.5-142.5t79-117 117-79T578 125t141 27.5T836 229q18 18 45 19 25 0 44-17.5t19-44.5q0-16-23.5-48T850 75.5t-115.5-53T578 0Q476 0 386.5 37t-157 102.5T123 295 84 492zm293-709q0 23 17 40.5t40 17.5q31 0 41-18.5t18.5-42 19.5-42 42-18.5q27 0 45 18.5t18 44.5q0 33-18.5 43.5t-42 18.5-42 20.5T497-88v191h115V-47q53-18 87-64t34-106q0-74-52.5-126T555-395q-74 0-126 52.5T377-217z"/><glyph unicode="è" d="M80 494q0 102 38 191t104.5 155.5T380 947t198 44q96 0 185-39t156.5-106.5T1028 689t41-191q0-31-20.5-47.5T1006 434H211q10-66 43-122t81-97 109.5-64.5T573 127q76 0 141.5 27.5T831 231q18 18 46 19 27 0 45-18.5t18-45.5-18-45Q854 65 769 33.5T573 2Q471 2 382 39T225.5 141.5 119 297 80 494zm133 67h723q-12 63-45 118.5T810 775t-108.5 63.5T573 862t-128-23.5T337 775t-80-95-44-119zm120 889q0 23 17.5 44t46.5 21q16 0 30.5-7t22.5-23l170-293q6-16 6-29 0-25-17.5-45.5T563 1097q-39 0-53 31l-170 295q-6 12-7 27z"/><glyph unicode="é" d="M80 494q0 102 38 191t104.5 155.5T380 947t198 44q96 0 185-39t156.5-106.5T1028 689t41-191q0-31-20.5-47.5T1006 434H211q10-66 43-122t81-97 109.5-64.5T573 127q76 0 141.5 27.5T831 231q18 18 46 19 27 0 45-18.5t18-45.5-18-45Q854 65 769 33.5T573 2Q471 2 382 39T225.5 141.5 119 297 80 494zm133 67h723q-12 63-45 118.5T810 775t-108.5 63.5T573 862t-128-23.5T337 775t-80-95-44-119zm307 604q0 14 7 27l170 295q16 31 53 30 29 0 46-20.5t17-44.5q0-16-6-29l-170-293q-8-16-22.5-24.5T584 1097q-29 0-46.5 22.5T520 1165z"/><glyph unicode="ê" d="M80 494q0 102 38 191t104.5 155.5T380 947t198 44q96 0 185-39t156.5-106.5T1028 689t41-191q0-31-20.5-47.5T1006 434H211q10-66 43-122t81-97 109.5-64.5T573 127q76 0 141.5 27.5T831 231q18 18 46 19 27 0 45-18.5t18-45.5-18-45Q854 65 769 33.5T573 2Q471 2 382 39T225.5 141.5 119 297 80 494zm127 667q0 27 19 45l284 273q18 18 45 18t45-18l287-268q18-18 19-45 0-27-18.5-45.5T842 1102t-45 18l-242 228-239-232q-18-18-45-18t-45.5 18.5T207 1161zm6-600h723q-12 63-45 118.5T810 775t-108.5 63.5T573 862t-128-23.5T337 775t-80-95-44-119z"/><glyph unicode="ë" d="M80 494q0 102 38 191t104.5 155.5T380 947t198 44q96 0 185-39t156.5-106.5T1028 689t41-191q0-31-20.5-47.5T1006 434H211q10-66 43-122t81-97 109.5-64.5T573 127q76 0 141.5 27.5T831 231q18 18 46 19 27 0 45-18.5t18-45.5-18-45Q854 65 769 33.5T573 2Q471 2 382 39T225.5 141.5 119 297 80 494zm133 67h723q-12 63-45 118.5T810 775t-108.5 63.5T573 862t-128-23.5T337 775t-80-95-44-119zm98 648q0 35 24.5 59.5T395 1293t59.5-25 24.5-59q0-35-24.5-59.5T395 1125t-59.5 24.5T311 1209zm324 0q0 35 24.5 59.5T719 1293t59.5-25 24.5-59q0-35-24.5-59.5T719 1125t-59.5 24.5T635 1209z"/><glyph unicode="ì" horiz-adv-x="288" d="M-80 1452q0 23 17.5 44t46.5 21q16 0 30.5-7t22.5-23l170-293q6-16 6-29 0-25-17.5-45.5T150 1099q-39 0-53 31l-170 295q-6 12-7 27zM94 63v855q0 27 18.5 45t44.5 18q27 0 45.5-18.5T221 918V63q0-27-18.5-45T157 0t-45 18.5T94 63z"/><glyph unicode="í" horiz-adv-x="288" d="M74 63v855q0 27 18.5 45t44.5 18q27 0 45.5-18.5T201 918V63q0-27-18.5-45T137 0 92 18.5 74 63zm3 1102q0 14 7 27l170 295q16 31 53 30 29 0 46-20.5t17-44.5q0-16-6-29l-170-293q-8-16-22.5-24.5T141 1097q-29 0-46.5 22.5T77 1165z"/><glyph unicode="î" horiz-adv-x="313" d="M-191 1142q0 27 19 45l284 273q18 18 45 18t45-18l287-268q18-18 19-45 0-27-18.5-45.5T444 1083t-45 18l-242 228-239-232q-18-18-45-18t-45.5 18.5-18.5 44.5zM92 63v855q0 27 18.5 45t44.5 18q27 0 45.5-18.5T219 918V63q0-27-18.5-45T155 0t-45 18.5T92 63z"/><glyph unicode="ï" horiz-adv-x="321" d="M-84 1217q0 35 24.5 59.5T0 1301t59.5-25 24.5-59q0-35-24.5-59.5T0 1133t-59.5 24.5T-84 1217zM97 63v855q0 27 18.5 45t44.5 18q27 0 45.5-18.5T224 918V63q0-27-18.5-45T160 0t-45 18.5T97 63zm143 1154q0 35 24.5 59.5T324 1301t59.5-25 24.5-59q0-35-24.5-59.5T324 1133t-59.5 24.5T240 1217z"/><glyph unicode="ð" horiz-adv-x="911" d="M74 387q0 80 29.5 149.5t82 122 121 82T455 770q74 0 139-25.5T711 672v321q0 14-7.5 47t-30 67-63.5 60.5-108 26.5q-27 0-45.5 18.5T438 1257q0 27 18.5 45.5T502 1321q94 0 157.5-35t102.5-85 56.5-107.5T836 993l2-606q0-80-30-148.5T726 118 604.5 36 455 6 306.5 36t-121 82-82 120.5T74 387zm127 0q0-53 19.5-99t54-81 80.5-54.5T455 133q53 0 99 19.5t81 54.5 55.5 81 20.5 99-20.5 99-55.5 81-81 55.5-99 20.5-99.5-20.5-81-55.5-54-81-19.5-99z"/><glyph unicode="ñ" horiz-adv-x="929" d="M49 1159q0 23 26.5 57.5T141 1284t85 56.5 85 23.5q43 0 85-24.5t82-54.5 75-54.5 63-24.5q39 0 66 22.5t46 50.5 37.5 50.5T809 1352q29 0 43-19.5t14-42.5q0-35-25.5-71.5T777 1153t-82-47-79-18q-43 0-81.5 24.5t-76.5 53-74 53-73 24.5q-25 0-47-12t-42.5-30.5-37-39.5-30.5-37q-14-23-46-22-23 0-41 16.5T49 1159zM94 63v869q0 27 18.5 45t45.5 18 45-18.5 18-44.5v-27q47 41 108.5 65.5T461 995q76 0 143.5-28.5T722 888t78.5-118T829 627V63q0-27-18-45T766 0t-45.5 18.5T702 63v564q0 49-19 93t-52 76.5-77 51-93 18.5-92-18.5-76-49-51.5-72.5-20.5-89V63q0-27-18.5-45T158 0q-27 0-45.5 18.5T94 63z"/><glyph unicode="ò" d="M80 494q0 102 38 191t104.5 155.5 158 106.5T578 991q98 0 187-40t156.5-107.5T1029 686t40-192q0-100-39-189.5t-105.5-157T768 41 573 2Q471 2 382 39T225.5 141.5 119 297 80 494zm127 0q0-76 28.5-142.5t79-117 117-79T573 127q76 0 143.5 28.5t118 79 79 117T942 494t-28.5 143.5-79 117.5-118 78.5T573 862t-142-28.5T314.5 755t-79-118T207 494zm110 948q0 23 17.5 44t46.5 21q16 0 30.5-7t22.5-23l170-293q6-16 6-29 0-25-17.5-45.5T547 1089q-39 0-53 31l-170 295q-6 12-7 27z"/><glyph unicode="ó" d="M80 494q0 102 38 191t104.5 155.5 158 106.5T578 991q98 0 187-40t156.5-107.5T1029 686t40-192q0-100-39-189.5t-105.5-157T768 41 573 2Q471 2 382 39T225.5 141.5 119 297 80 494zm127 0q0-76 28.5-142.5t79-117 117-79T573 127q76 0 143.5 28.5t118 79 79 117T942 494t-28.5 143.5-79 117.5-118 78.5T573 862t-142-28.5T314.5 755t-79-118T207 494zm305 669q0 14 7 27l170 295q16 31 53 30 29 0 46-20.5t17-44.5q0-16-6-29l-170-293q-8-16-22.5-24.5T576 1095q-29 0-46.5 22.5T512 1163z"/><glyph unicode="ô" d="M80 494q0 102 38 191t104.5 155.5 158 106.5T578 991q98 0 187-40t156.5-107.5T1029 686t40-192q0-100-39-189.5t-105.5-157T768 41 573 2Q471 2 382 39T225.5 141.5 119 297 80 494zm127 0q0-76 28.5-142.5t79-117 117-79T573 127q76 0 143.5 28.5t118 79 79 117T942 494t-28.5 143.5-79 117.5-118 78.5T573 862t-142-28.5T314.5 755t-79-118T207 494zm20 648q0 27 19 45l284 273q18 18 45 18t45-18l287-268q18-18 19-45 0-27-18.5-45.5T862 1083t-45 18l-242 228-239-232q-18-18-45-18t-45.5 18.5T227 1142z"/><glyph unicode="õ" d="M80 494q0 102 38 191t104.5 155.5 158 106.5T578 991q98 0 187-40t156.5-107.5T1029 686t40-192q0-100-39-189.5t-105.5-157T768 41 573 2Q471 2 382 39T225.5 141.5 119 297 80 494zm86 663q0 23 26.5 57.5T258 1282t85 56.5 85 23.5q43 0 85-24.5t82-54.5 75-54.5 63-24.5q39 0 66 22.5t46 50.5 37.5 50.5T926 1350q29 0 43-19.5t14-42.5q0-35-25.5-71.5T894 1151t-82-47-79-18q-43 0-81.5 24.5t-76.5 53-74 53-73 24.5q-25 0-47-12t-42.5-30.5-37-39.5-30.5-37q-14-23-46-22-23 0-41 16.5t-18 40.5zm41-663q0-76 28.5-142.5t79-117 117-79T573 127q76 0 143.5 28.5t118 79 79 117T942 494t-28.5 143.5-79 117.5-118 78.5T573 862t-142-28.5T314.5 755t-79-118T207 494z"/><glyph unicode="ö" d="M80 494q0 102 38 191t104.5 155.5 158 106.5T578 991q98 0 187-40t156.5-107.5T1029 686t40-192q0-100-39-189.5t-105.5-157T768 41 573 2Q471 2 382 39T225.5 141.5 119 297 80 494zm127 0q0-76 28.5-142.5t79-117 117-79T573 127q76 0 143.5 28.5t118 79 79 117T942 494t-28.5 143.5-79 117.5-118 78.5T573 862t-142-28.5T314.5 755t-79-118T207 494zm108 682q0 35 24.5 59.5T399 1260t59.5-25 24.5-59q0-35-24.5-59.5T399 1092t-59.5 24.5T315 1176zm324 0q0 35 24.5 59.5T723 1260t59.5-25 24.5-59q0-35-24.5-59.5T723 1092t-59.5 24.5T639 1176z"/><glyph unicode="÷" horiz-adv-x="892" d="M47 637q0 27 18.5 45t45.5 18h669q27 0 45.5-18t18.5-45-18.5-45.5T780 573H111q-27 0-45.5 18.5T47 637zm313-354q0 29 21.5 51t50.5 22q33 0 53.5-22.5T506 283q0-29-20.5-50.5T432 211q-29 0-50.5 21.5T360 283zm0 710q0 29 21.5 51.5T432 1067q33 0 53.5-22.5T506 993t-20.5-50-53.5-21q-29 0-50.5 21.5T360 993z"/><glyph unicode="ø" d="M80 494q0 102 38 191t104.5 155.5 158 106.5T578 991q98 0 187-40t156.5-107.5T1029 686t40-192q0-100-39-189.5t-105.5-157T768 41 573 2Q471 2 382 39T225.5 141.5 119 297 80 494zm127 0q0-76 28.5-142.5t79-117 117-79T573 127q76 0 143.5 28.5t118 79 79 117T942 494t-28.5 143.5-79 117.5-118 78.5T573 862t-142-28.5T314.5 755t-79-118T207 494zm108-595q0 8 4 21l394 1229q6 20 23.5 31.5T774 1192q29 0 45-20.5t16-43.5q0-12-2-18L440-119q-6-20-24.5-32.5T379-164q-29 0-46.5 20.5T315-101z"/><glyph unicode="ù" horiz-adv-x="927" d="M96 369v561q0 27 18.5 45t45.5 18 45-18.5 18-44.5V369q0-49 19.5-93.5t52.5-77 77-51 93-18.5 92 18.5 75 49 51 72.5 22 89v572q0 27 18 45t45 18 45-18.5 18-44.5V63q0-27-18-45T768 0t-45 18.5T705 63v27q-47-41-108.5-65.5T465 0q-76 0-143.5 28.5t-117.5 79-79 118T96 369zm135 1081q0 23 17.5 44t46.5 21q16 0 30.5-7t22.5-23l170-293q6-16 6-29 0-25-17.5-45.5T461 1097q-39 0-53 31l-170 295q-6 12-7 27z"/><glyph unicode="ú" horiz-adv-x="927" d="M96 369v561q0 27 18.5 45t45.5 18 45-18.5 18-44.5V369q0-49 19.5-93.5t52.5-77 77-51 93-18.5 92 18.5 75 49 51 72.5 22 89v572q0 27 18 45t45 18 45-18.5 18-44.5V63q0-27-18-45T768 0t-45 18.5T705 63v27q-47-41-108.5-65.5T465 0q-76 0-143.5 28.5t-117.5 79-79 118T96 369zm330 796q0 14 7 27l170 295q16 31 53 30 29 0 46-20.5t17-44.5q0-16-6-29l-170-293q-8-16-22.5-24.5T490 1097q-29 0-46.5 22.5T426 1165z"/><glyph unicode="û" horiz-adv-x="927" d="M96 369v561q0 27 18.5 45t45.5 18 45-18.5 18-44.5V369q0-49 19.5-93.5t52.5-77 77-51 93-18.5 92 18.5 75 49 51 72.5 22 89v572q0 27 18 45t45 18 45-18.5 18-44.5V63q0-27-18-45T768 0t-45 18.5T705 63v27q-47-41-108.5-65.5T465 0q-76 0-143.5 28.5t-117.5 79-79 118T96 369zm25 782q0 27 19 45l284 273q18 18 45 18t45-18l287-268q18-18 19-45 0-27-18.5-45.5T756 1092t-45 18l-242 228-239-232q-18-18-45-18t-45.5 18.5T121 1151z"/><glyph unicode="ü" horiz-adv-x="927" d="M96 369v561q0 27 18.5 45t45.5 18 45-18.5 18-44.5V369q0-49 19.5-93.5t52.5-77 77-51 93-18.5 92 18.5 75 49 51 72.5 22 89v572q0 27 18 45t45 18 45-18.5 18-44.5V63q0-27-18-45T768 0t-45 18.5T705 63v27q-47-41-108.5-65.5T465 0q-76 0-143.5 28.5t-117.5 79-79 118T96 369zm127 848q0 35 24.5 59.5T307 1301t59.5-25 24.5-59q0-35-24.5-59.5T307 1133t-59.5 24.5T223 1217zm324 0q0 35 24.5 59.5T631 1301t59.5-25 24.5-59q0-35-24.5-59.5T631 1133t-59.5 24.5T547 1217z"/><glyph unicode="ý" horiz-adv-x="921" d="M68 932q0 27 15 44t44 17q23 0 39-10t22-27l267-727 276 727q6 16 22.5 26.5T788 993q29 0 46.5-19.5T852 932q0-12-6-25L379-330q-16-41-57-41-29 0-46.5 19.5T258-307q0 6 1 11t3 11L385 51q-86 236-145.5 398.5t-96.5 262T90 856t-16 47q-6 12-6 29zm351 233q0 14 7 27l170 295q16 31 53 30 29 0 46-20.5t17-44.5q0-16-6-29l-170-293q-8-16-22.5-24.5T483 1097q-29 0-46.5 22.5T419 1165z"/><glyph unicode="þ" horiz-adv-x="1142" d="M76-256v1501q0 27 18.5 45.5T139 1309q27 0 45.5-18.5T203 1245V803q68 74 162 128t208 58q98 0 187.5-40t157-107.5T1025 684t40-192q0-100-39-189.5t-105.5-157T764 39 569 0Q458 0 364 42T203 158v-414q0-27-18.5-45T139-319t-45 18-18 45zm127 731q2-74 32.5-137.5t80-110.5 115-74.5T569 125q76 0 143.5 28.5t118 79 79 117T938 492t-28.5 143-79 117.5-118 79T569 860q-74 0-139-27.5T315.5 756t-80-117T203 492v-17z"/><glyph unicode="ÿ" horiz-adv-x="921" d="M68 932q0 27 15 44t44 17q23 0 39-10t22-27l267-727 276 727q6 16 22.5 26.5T788 993q29 0 46.5-19.5T852 932q0-12-6-25L379-330q-16-41-57-41-29 0-46.5 19.5T258-307q0 6 1 11t3 11L385 51q-86 236-145.5 398.5t-96.5 262T90 856t-16 47q-6 12-6 29zm163 287q0 35 24.5 59.5T315 1303t59.5-25 24.5-59q0-35-24.5-59.5T315 1135t-59.5 24.5T231 1219zm324 0q0 35 24.5 59.5T639 1303t59.5-25 24.5-59q0-35-24.5-59.5T639 1135t-59.5 24.5T555 1219z"/><glyph unicode="Œ" horiz-adv-x="2080" d="M80 651q0 135 51 254t139 208 207 140.5 254 51.5 254-51.5 208-140.5 140-208 51-254-51-253.5-140-207T985 51 731 0 477 51 270 190.5t-139 207T80 651zm127 0q0-109 41-205t111.5-166.5 167-111.5T731 127q109 0 205 41t168 111.5 112.5 167T1257 651q0 109-40.5 205T1104 1024t-168 113-205 41-205-41-166.5-113T248 856t-41-205zM1252 63v1182q0 27 18.5 45.5t44.5 18.5h623q27 0 45-18.5t18-45.5-18.5-45-44.5-18h-559V725h372q27 0 45.5-18.5T1815 662q0-27-18.5-45.5T1751 598h-372V127h559q27 0 45-18.5t18-45.5-18.5-45T1938 0h-623q-27 0-45 18.5T1252 63z"/><glyph unicode="œ" horiz-adv-x="2015" d="M80 494q0 102 38 191t104.5 155.5 158 106.5T578 991q98 0 187-40t156.5-107.5T1029 686t40-192q0-100-39-189.5t-105.5-157T768 41 573 2Q471 2 382 39T225.5 141.5 119 297 80 494zm127 0q0-76 28.5-142.5t79-117 117-79T573 127q76 0 143.5 28.5t118 79 79 117T942 494t-28.5 143.5-79 117.5-118 78.5T573 862t-142-28.5T314.5 755t-79-118T207 494zm739 0q0 102 38 191t104.5 155.5T1246 947t198 44q96 0 185-39t156.5-106.5T1894 689t41-191q0-31-20.5-47.5T1872 434h-795q10-66 43-122t81-97 109.5-64.5T1439 127q76 0 141.5 27.5T1697 231q18 18 46 19 27 0 45-18.5t18-45.5-18-45q-68-76-153-107.5T1439 2q-102 0-191 37t-156.5 102.5T985 297t-39 197zm133 67h723q-12 63-45 118.5t-81 95.5-108.5 63.5T1439 862t-128-23.5-108-63.5-80-95-44-119z"/><glyph unicode="Ÿ" horiz-adv-x="1060" d="M70 1243q0 25 17 44.5t46 19.5q35 0 53-27l344-514 344 514q18 27 54 27 27 0 45-19.5t18-44.5q0-18-10-35L594 633V63q0-27-18.5-45T530 0t-45 18.5T467 63v570L82 1208q-12 14-12 35zm198 257q0 35 24.5 59.5T352 1584t59.5-25 24.5-59q0-35-24.5-59.5T352 1416t-59.5 24.5T268 1500zm324 0q0 35 24.5 59.5T676 1584t59.5-25 24.5-59q0-35-24.5-59.5T676 1416t-59.5 24.5T592 1500z"/><glyph unicode="ˆ" horiz-adv-x="886" d="M96 1425q0 27 19 45l284 273q18 18 45 18t45-18l287-268q18-18 19-45 0-27-18.5-45.5T731 1366t-45 18l-242 228-239-232q-18-18-45-18t-45.5 18.5T96 1425z"/><glyph unicode="˜" horiz-adv-x="995" d="M88 1118q0 23 26.5 57.5T180 1243t85 56.5 85 23.5q43 0 85-24.5t82-54.5 75-54.5 63-24.5q39 0 66 22.5t46 50.5 37.5 50.5T848 1311q29 0 43-19.5t14-42.5q0-35-25.5-71.5T816 1112t-82-47-79-18q-43 0-81.5 24.5t-76.5 53-74 53-73 24.5q-25 0-47-12t-42.5-30.5-37-39.5-30.5-37q-14-23-46-22-23 0-41 16.5T88 1118z"/><glyph horiz-adv-x="909"/><glyph horiz-adv-x="1818"/><glyph horiz-adv-x="909"/><glyph horiz-adv-x="1818"/><glyph horiz-adv-x="606"/><glyph horiz-adv-x="454"/><glyph horiz-adv-x="303"/><glyph horiz-adv-x="303"/><glyph horiz-adv-x="227"/><glyph horiz-adv-x="363"/><glyph horiz-adv-x="101"/><glyph unicode="‐" horiz-adv-x="950" d="M96 637q0 27 18.5 45t45.5 18h631q27 0 45-18t18-45-18.5-45.5T791 573H160q-27 0-45.5 18.5T96 637z"/><glyph unicode="‑" horiz-adv-x="950" d="M96 637q0 27 18.5 45t45.5 18h631q27 0 45-18t18-45-18.5-45.5T791 573H160q-27 0-45.5 18.5T96 637z"/><glyph unicode="‒" horiz-adv-x="950" d="M96 637q0 27 18.5 45t45.5 18h631q27 0 45-18t18-45-18.5-45.5T791 573H160q-27 0-45.5 18.5T96 637z"/><glyph unicode="–" horiz-adv-x="950" d="M96 637q0 27 18.5 45t45.5 18h631q27 0 45-18t18-45-18.5-45.5T791 573H160q-27 0-45.5 18.5T96 637z"/><glyph unicode="—" horiz-adv-x="1144" d="M96 637q0 27 18.5 45t45.5 18h825q27 0 45.5-18t18.5-45-18.5-45.5T985 573H160q-27 0-45.5 18.5T96 637z"/><glyph unicode="‘" horiz-adv-x="415" d="M61 1241q0 20 16.5 41t45.5 21q39 0 57-31l168-293q6-12 6-29 0-27-18.5-47T289 883q-37 0-53 35L70 1210q-8 14-9 31z"/><glyph unicode="’" horiz-adv-x="417" d="M61 946q0 16 9 31l166 293q14 33 53 33 29 0 47-19.5t18-48.5q0-14-6-27L180 915q-20-33-57-32-29 0-45.5 20.5T61 946z"/><glyph unicode="‚" horiz-adv-x="313" d="M59-371q0 2 1 9.5t7.5 42T87-210 125 2q4 25 20.5 44.5T188 66q27 0 45.5-18.5T252 2q0-4-3-14.5t-15.5-46-38-108.5T123-371q-10-31-33-30-31 0-31 30z"/><glyph unicode="“" horiz-adv-x="729" d="M82 1233q0 29 18.5 48t46.5 19q39 0 54-32l166-293q8-14 8-31 0-23-16.5-43T313 881q-37 0-57 32L88 1206q-6 12-6 27zm270 0q0 29 18.5 48t47.5 19q39 0 53-32l166-293q8-14 8-31 0-23-16.5-43T584 881q-37 0-58 32l-168 293q-6 12-6 27z"/><glyph unicode="”" horiz-adv-x="729" d="M82 944q0 16 8 31l166 293q14 33 53 32 29 0 47.5-19t18.5-48q0-14-6-27L201 913q-20-33-58-32-29 0-45 20.5T82 944zm270 0q0 16 8 31l166 293q14 33 54 32 29 0 47-19t18-48q0-14-6-27L471 913q-20-33-57-32-29 0-45.5 20.5T352 944z"/><glyph unicode="„" horiz-adv-x="735" d="M82-371q0 2 1 9.5t7 42T109-210 147 2q4 25 20.5 44.5T211 66t45-18.5T274 2q0-4-3-14.5t-15-46T218.5-167 145-371q-10-31-32-30-31 0-31 30zm377 0q0 2 1 9.5t7 42T486-210 524 2q4 25 20.5 44.5T588 66t45-18.5T651 2q0-4-3-14.5t-15-46T595-167t-73-204q-10-31-33-30-31 0-30 30z"/><glyph unicode="•" horiz-adv-x="479" d="M80 494q0 68 48.5 113.5T238 653q37 0 66.5-14t51-37.5T388 549t11-55q0-66-48-112t-113-46q-66 0-112 46T80 494z"/><glyph unicode="…" horiz-adv-x="1146" d="M94 84q0 35 24.5 59.5T178 168t59.5-24.5T262 84t-24.5-59.5T178 0t-59.5 24.5T94 84zm395 0q0 35 25 59.5t59 24.5q35 0 59.5-24.5T657 84t-24.5-59.5T573 0t-59.5 24.5T489 84zm396 0q0 35 24.5 59.5T969 168t59.5-24.5T1053 84t-24.5-59.5T969 0t-59.5 24.5T885 84z"/><glyph horiz-adv-x="363"/><glyph unicode="‹" horiz-adv-x="710" d="M72 485q0 27 18 45l438 412q18 18 45 19 27 0 45.5-18.5T637 897t-19-45L227 485l391-372q18-18 19-45 0-27-18.5-45.5T573 4t-45 19L90 440q-18 18-18 45z"/><glyph unicode="›" horiz-adv-x="708" d="M72 68q0 27 18 45l391 372L90 852q-18 18-18 45t18.5 45.5T135 961q27 0 45-19l438-412q18-18 19-45 0-27-19-45L180 23Q162 5 135 4q-27 0-45 18.5T72 68z"/><glyph horiz-adv-x="454"/><glyph unicode="€" horiz-adv-x="1157" d="M78 498q0 27 18.5 45t44.5 18h39v191h-39q-27 0-45 18t-18 45 18.5 45.5T141 879h39q6 92 45 174t103.5 141 147.5 94 179 35q131 0 241-65.5t171-172.5q8-14 8-34 0-25-15.5-44.5T1014 987q-16 0-31.5 8.5T956 1020q-45 78-124.5 127T655 1196q-68 0-129-24.5T419 1104t-76-101.5T307 879h213q27 0 45.5-18.5T584 815t-18.5-45-45.5-18H307V561h213q27 0 45.5-18.5T584 498q0-27-18.5-45.5T520 434H307q6-68 35-126t76-102 107.5-68.5T655 113q98 0 178 48t125 126q20 31 58 30 29 0 45-19t16-44q0-16-10-37-61-104-171-167.5T655-14q-96 0-180 34.5t-147.5 95T225 258t-45 176h-39q-27 0-45 18.5T78 498z"/><glyph unicode="™" horiz-adv-x="1734" d="M90 1249q0 27 18.5 45.5T154 1313h401q27 0 45-18.5t18-45.5-18-45-45-18H418V778q0-27-18.5-45T354 715t-45 18.5-18 44.5v408H154q-27 0-45.5 18.5T90 1249zm602-473v268q0 55 20.5 104.5T770 1235t86 58.5 105 21.5q61 0 115-25.5t91-70.5q37 43 90.5 69.5T1374 1315q55 0 104.5-20.5t85-57.5 57-85 21.5-103V776q0-27-18-45t-45-18-45 18.5-18 44.5v275q-6 61-46 99t-96 38q-59 0-101-42t-42-102V776q0-27-18.5-45t-45.5-18-45 18.5-18 44.5v275q-4 59-45 98t-98 39q-59 0-100.5-41t-41.5-96V776q0-27-18.5-45T756 713q-27 0-45.5 18.5T692 776z"/><glyph unicode="◼" horiz-adv-x="993" d="M0 0v993h993V0H0z"/><glyph unicode="ﬁ" horiz-adv-x="825" d="M55 932q0 27 18.5 45t45.5 18h84v43q0 55 20.5 104.5t57 86.5 86 58.5T473 1309q27 0 45.5-18.5T537 1245t-18.5-45-45.5-18q-59 0-101-42t-42-102v-43h342q25-2 42-20.5t17-42.5V63q0-27-18.5-45T668 0q-27 0-45.5 18.5T604 63v805H330V63q0-27-18.5-45T266 0t-45 18.5T203 63v805h-84q-27 0-45.5 18.5T55 932zm529 293q0 35 24.5 59.5T668 1309t59.5-24.5T752 1225t-25-59.5-59-24.5q-35 0-59.5 24.5T584 1225z"/><glyph unicode="ﬂ" horiz-adv-x="839" d="M55 932q0 27 18.5 45t45.5 18h84v43q0 55 20.5 104.5t57 86.5 86 58.5T473 1309h201q27 0 45-18.5t18-45.5V63q0-27-18.5-45T674 0q-27 0-45.5 18.5T610 63v1119H473q-59 0-101-42t-42-102v-43h139q27 0 45-18.5t18-44.5q0-27-18-45.5T469 868H330V63q0-27-18.5-45T266 0t-45 18.5T203 63v805h-84q-27 0-45.5 18.5T55 932z"/></font>
</defs>
</svg>
