<svg version="1" xmlns="http://www.w3.org/2000/svg" width="896" height="896" viewBox="0 0 672 672"><path d="M666.7.7c-.3.5.3 1.7 1.4 2.6 2.2 1.9 2.5.9.6-1.8-.8-1-1.7-1.4-2-.8zM663.5 3c-.3 1.1-1.3 2-2.2 2-.8 0-1.3.6-1 1.3.3.8-.1 1.4-.8 1.4-.8 0-1.1-.7-.7-1.5.3-1 .1-1.3-.6-.8-.7.4-1.2 1.4-1.2 2.2 0 1.6-1.7 1.9-2.2.4-.2-.6-.9-.1-1.6 1.1-.8 1.2-.9 1.8-.3 1.5.5-.4 1.2-.2 1.5.3.7 1.1-1.3.9-3.1-.2-.9-.6-1.1-.3-.7.7.3.9.2 1.6-.4 1.6-.6 0-1.3-.6-1.5-1.3-.4-1-.6-1-.6 0-.1.7-.9 1.3-1.8 1.3-1 0-1.4.4-.8.8.6.4 1.1 1.4 1.3 2.2.3 1.1 0 1.1-1.5-.3-1.9-1.6-2-1.6-4 .7-1.2 1.3-1.8 2.8-1.5 3.1.4.4-.4.2-1.8-.5-2.2-1.2-2.4-1.2-1.2.2 1 1.3 1 1.8.1 2.4-.8.4-.9.3-.5-.4s.2-1.2-.3-1.2c-1 0-1.5 1.3-1.2 3.2 0 .4-1.1.5-2.4.2-1.4-.2-2.5 0-2.5.6s-.4.9-.9.5c-.6-.3-.8.5-.6 1.7.4 2.1.3 2.2-.9.5-1.8-2.3-2.5-2.1-1.9.5.4 1.9.3 2-.6.8-.7-1-1.1-1.1-1.1-.3 0 .7-.5 1.3-1.1 1.3-.5 0-.7-.5-.4-1 .3-.6.4-1 .1-1-.3 0-1 .9-1.6 2-.9 1.6-.8 1.9.7 1.4 1.4-.4 1.4-.3-.2.7-2.5 1.6-4.7 2.1-3.9.8.3-.5 1-.6 1.6-.3.7.5.8.2.4-.5-.6-.9-1.2-.9-2.5.3-1.2 1.1-2.1 1.3-2.9.6-.9-.7-.9-.7-.2.2.6.7 1 1.6 1 2.1 0 .4-.4.5-1 .2-.5-.3-1-.1-1 .5s-.5.8-1.2.4c-.8-.5-.9-.2-.4 1.2.4 1 .4 1.5 0 1.1-.4-.4-1.7.1-2.8 1-2.1 1.8-2.1 1.8-.3-.4 1.4-1.6 1.5-2.3.6-2.9-.8-.4-1-.3-.5.5.4.6 0 1.4-.8 1.7-.9.3-1.6 1.3-1.6 2.1 0 1.1-.7 1.4-2.5 1.1-1.9-.4-2.3-.2-1.5.7.8.9.2 1.6-2 2.5-1.6.7-3.6 1-4.3.7-1-.4-1.3.2-1.1 1.9.2 2.1 0 2.3-1.8 1.3-1.6-.9-1.9-.8-1.3.2.6.9.2 1.1-1.4.6-1.3-.3-2-.3-1.7 0 .3.4-.3 1.3-1.4 2-1.1.8-1.7 1.9-1.4 2.5.4.6-.1.6-1.4-.1-2.2-1.2-2.5 0-.7 2.9.8 1.3.7 1.3-.9.1-1.5-1.3-1.9-1.3-2.7 0-.6 1-.9 1-.9.1 0-.6-.5-1.2-1.1-1.2-.5 0-.7.5-.3 1.2.5.7.2.9-.9.5s-1.4-.2-1 .9c.3.7 1 1.4 1.6 1.4 2.1 0-.2 1.2-2.9 1.5-2.6.2-2.7.2-.9-1.1 1-.8 1.4-1.4.7-1.4s-1.7.9-2.4 1.9c-1 1.6-1.5 1.8-2.7.8-1.2-1-1.3-.9-.1 1.3 1.3 2.4 1.2 2.4-.5 1-1-.8-1.6-1-1.3-.5.4.6-.1 1.9-.9 3-1.5 1.9-1.5 1.9-.8-.5.5-1.9.4-2.1-.4-1-.6.8-1.1 1.1-1.1.6 0-.5-.7-.3-1.5.4-.9.7-1.4 1.9-1.1 2.6.3.8 0 1.1-1 .7-.7-.3-1.4-1-1.4-1.6 0-.6-.7-.1-1.6 1.1-.8 1.2-2 2-2.5 1.7-.5-.3-.6 0-.3.8s0 1.8-.7 2.3c-.8.5-1 .3-.4-.5.5-.9.2-.9-1.3 0-1.7 1.1-1.9 1.6-.9 2.8 1 1.2.9 1.3-1 .3-1.7-1-2.2-.9-2.9.6-.4.9-.7 2-.6 2.3.1.4-1.2.6-2.9.5-3.5-.3-7.9 2.6-8 5.2 0 1.1-.2 1.2-.6.4-.7-1.7-2.3-1.5-2.3.4 0 1.2-.6 1.5-2.1 1.1-1.7-.4-1.8-.3-.8.9s.9 1.3-.5.8c-1.1-.4-1.6-.2-1.4.6.2.7-.8 1.4-2.2 1.6-1.3.3-2.9 1-3.5 1.6-.7.8-.6.9.5.3.9-.5 1.2-.4.7.1-.9.9-1.3 1-4.3 1.3-1.4.1-1.5.3-.3 1.8 1.3 1.7 1.3 1.7-1.2.1-2.6-1.7-2.7-1.7-2.2.5.4 1.8.3 1.9-.6.7-.9-1.3-1.1-1.2-1.1.4s-.2 1.7-1.7.5c-1.1-1-1.4-1-.9-.2.4.7.2 1.3-.3 1.3-.6 0-1.1.8-1.2 1.7 0 1.1-.3 1.3-.6.5-.2-.6-.9-1.2-1.5-1.2s-.8.6-.5 1.4c.4 1 0 1.4-1.3 1.1-1.4-.3-1.7.1-1.3 1.3.6 1.5.5 1.5-1 .3s-1.7-1.2-1.2.1c.4.9 0 1.8-.9 2.1-1.1.4-1.4.1-1-1.1.2-.9-.3-.2-1.1 1.5-1.7 3.8-3 4.4-2 1 .7-2.2.7-2.2-.8-.2-.8 1.1-1.3 2.4-1 3 .2.5-.3.1-1.1-.9-1.4-1.7-1.6-1.8-1.6-.3 0 .9-.6 1.6-1.2 1.5-.8-.2-1.2.5-1 1.7.3 1.6.1 1.8-.9.7-.7-.6-1.8-1.2-2.3-1.2-.6 0-.4.5.4 1 1.3.8 1.2 1-.5 1.1-1.1.1-2.4.1-2.8 0-.5-.1-.6.3-.2.9.3.6 1 .8 1.5.5.5-.3 1.1-.1 1.4.4.3.5-1 .7-3 .5-2.9-.3-3.4-.1-2.4 1.1.9 1.1.7 1.2-1.2.8-1.9-.4-2-.3-.8.7 1.2.9 1 1.1-1.3.7-2.3-.4-2.5-.2-1.5 1.1 1.2 1.4 1 1.4-1.2.2-2.3-1.2-2.4-1.2-1.2.3 1.2 1.4 1.1 1.6-.7 1.2-1.4-.2-1.8.1-1.4 1.1.3.8 0 1.4-.6 1.4-.7 0-2.4 1.2-3.8 2.6-1.4 1.4-2.3 1.9-2 1 .4-.9.2-1.6-.3-1.6-.6 0-1 .5-1 1 0 .6-.3.9-.7.8-.5-.2-1.9.5-3.3 1.5-2.2 1.5-2.3 1.7-.5 1.8 1.1 0 1.5.3.8.5-.7.3-2.1 0-3.3-.6-2-1.1-2.1-1-.9 1.2.6 1.3.8 2 .4 1.5-.5-.4-1.7.1-2.8 1-1.1 1-1.7 1.2-1.3.5.4-.6.2-1.2-.3-1.2-1 0-1.4 1.2-1.3 3 0 .3-1.5.5-3.4.4-1.9-.1-3.2.1-2.9.6.2.4-.2 1.5-.9 2.5-1 1.4-1.5 1.5-2.1.5-.6-.9-.4-1.1.5-.5.9.5 1.1.4.6-.4-1-1.5-2.7-.4-2 1.4.4 1 0 1.3-1.5 1-1.5-.3-1.8 0-1.4 1.2.5 1.3.2 1.5-1.1 1-1.4-.6-1.7-.3-1.2.9.6 1.5.4 1.5-1.1.3s-1.6-1.2-1 .5c.6 1.5.5 1.7-.6.7-1.1-.9-1.7-.7-2.8.6-1.3 1.7-1.3 1.7.6.3 2-1.4 2-1.4.2.7-1.1 1.3-2.5 1.9-3.5 1.6-.9-.4-1.3-.2-.8.5.3.6.1 1.4-.5 1.8-.8.5-.9.3-.4-.5.5-.9.2-1.2-1.1-.9-1.1.2-1.8 1.1-1.8 2 .1 1-.1 1.7-.5 1.6-2.6-.3-4.1.3-3.5 1.4.5.9.2.8-.9-.1-1.5-1.2-1.7-1.2-1.2.1.5 1.2 0 1.5-1.8 1.3-1.7-.2-2.4.2-2.3 1.4 0 .9-.6 1.7-1.4 1.7-.8.1-1.9.2-2.4.3-.5 0-.2.9.5 1.8 1.2 1.5 1.2 1.6-.1.8-2.4-1.5-3.9-1.4-3.3.1.3.8.1 1.4-.5 1.4s-1.2-.4-1.4-.9c-.1-.5-1.2-.3-2.3.6-1.8 1.4-1.9 1.5-.1.9 1.5-.5 1.7-.4.8.7-.7.8-.8 1.8-.4 2.3.4.4-.1.2-1.1-.5-1.8-1.4-3.2-.9-3.2 1.2 0 .6-1.2 1.1-2.6 1.2-1.4 0-3.6.8-5 1.8-1.3 1-1.8 1.5-1.2 1.2.8-.4 1.1-.1.7.9-.3.8-1.2 1.2-2 .9-1-.4-1.2 0-.8 1.3.6 1.7.5 1.7-.9-.1-1.5-1.8-1.6-1.8-1.7-.3 0 1-.5 1.8-1.1 1.8-.5 0-.7.5-.3 1.1.4.8 0 .8-1.5 0-1.8-1-2-.9-1.4.6.6 1.6.5 1.7-1.2.3-1.5-1.2-1.7-1.2-1-.1.6 1.1.4 1.3-.8.8-1.9-.7-3.2.8-1.6 1.9.8.4.9.3.5-.4-.5-.8-.1-1 .9-.5 1.3.4 1.4.8.4 1.4-.7.4-2.1.3-3.1-.2-1.4-.8-1.6-.6-1.1.8.5 1.3.3 1.5-1.1 1-1.3-.5-1.7-.3-1.3.7.4 1 0 1.4-1.3 1.1-1.3-.3-1.7.1-1.3 1.1.3.8 0 1.4-.6 1.4s-1.1-.5-1.1-1c0-.6-.4-1-1-1-.5 0-.7.7-.3 1.5.3.9.2 1.5-.3 1.4-1.9-.3-3.4.1-3.4 1.1 0 .5.8.7 1.8.4 1.4-.5 1.4-.4.2.4-1 .8-1.9.7-2.9-.1-1.2-1-1.4-.9-.8.5.4 1.3.2 1.5-1 1.1-1.2-.5-1.4-.3-.8.7.5.9.4 1.1-.3.6-.7-.4-1.2-.2-1.2.5 0 .8-.5.7-1.7-.2-1.5-1.3-1.5-1.2-.3 1.1s1.2 2.4-.4 1c-2.1-1.6-4.9-2.3-4-.9.3.5 1 .7 1.5.4 1.4-.9 1.1.3-.8 2.5-1.2 1.3-2 1.6-2.9.9-.9-.7-1.7-.4-2.7 1.2-1.1 1.4-2.2 1.9-3.3 1.5-1.4-.5-1.5-.4-.5.8 1.1 1.3.9 1.5-.9 1.1-1.6-.3-2 0-1.6 1 .3.9-.1 1.2-1.4 1-1.4-.3-1.7.1-1.3 1.2.5 1.2.2 1.5-1 1-.9-.3-1.7-.2-1.7.3s-.7.7-1.5.4c-.9-.4-1.5 0-1.5 1 0 .9-.7 1.6-1.6 1.6-.9 0-1.2.5-.8 1.2.5.9.2.8-.9-.1-1-.8-2-1.1-2.4-.7-.3.3-.1.6.5.6.7 0 1.2.5 1.2 1.1 0 .6-.7.9-1.5.5-1-.3-1.5.1-1.5 1.1 0 1.4-.2 1.4-1.6-.3-.8-1-1.3-1.3-.9-.7.3.7.1 2.1-.5 3-.9 1.4-1 1.4-.7.2.3-.9-.1-1.6-.9-1.6-.7 0-1.1.4-.8.9.3.4 0 1.6-.5 2.5-.6 1-1.1 1.2-1.1.5 0-.6-.5-1.2-1.1-1.2-.6 0-.8.7-.5 1.6.3.8.2 1.2-.4.9-.6-.3-1-.2-1 .4 0 .6-.7.8-1.5.5-1.2-.5-1.4-.2-.8 1.2.6 1.7.5 1.7-1 .5-1.1-.9-1.7-1-1.7-.2 0 .6-.5 1.1-1.1 1.1-.5 0-.7-.5-.3-1.2.4-.6.3-.8-.4-.4-.6.3-.9 1.5-.7 2.5.3 1.5-.1 1.8-1.7 1.3-1.4-.3-1.9-.1-1.4.6.3.6.2 1.3-.3 1.6-.5.4-1.3.1-1.7-.5-.5-.8-.3-.9.6-.4.9.6 1.1.4.5-.5-.6-.9-1.9-.1-4.9 3.1-2.3 2.4-4 4.8-3.7 5.3.2.5-.2.6-.9.1-1-.6-.7-1.2 1-2.5 2.1-1.6 2.1-1.7.4-2.4-1-.4-1.5-.4-1.1 0 .9.9-1.3 3.5-2.4 2.9-.4-.3-.6.4-.4 1.6.3 1.7.2 1.9-1 .9-.8-.7-1.2-1.7-.8-2.3.3-.6.1-.7-.6-.3-.6.4-.9 1.1-.6 1.6.3.4-.2 1-1 1.4-.8.3-1.5 1.1-1.5 1.8 0 .9.3.9 1.2 0 .7-.7 1.6-1.2 2.2-1.2.5 0 .1.6-.9 1.4-1.3.9-2.6 1.1-3.6.6-1.6-.9-3.9.5-3.9 2.4 0 .5.7.1 1.5-1 .8-1 1.5-1.4 1.5-.8 0 .6-.9 1.9-2 2.9s-2 1.5-2 1c0-.4-.6-.2-1.4.4-1.1 1-1.7.8-2.6-.6-1.1-1.7-1.1-1.7-.6 0 .9 2.7-.3 4-2.2 2.5-1-.7-1.4-.8-1-.4.4.5.3 1.5-.3 2.3-1 1.1-1.5 1.1-2.7.1-1.3-1-1.4-1-.8-.1.4.7.2 1.3-.3 1.3-.6 0-1.1.8-1.1 1.7 0 1.5-.2 1.4-1.5-.3-1.5-1.9-1.5-1.9-.8 0 .5 1.5.3 1.8-1 1.3-1.2-.4-1.5-.1-1.2 1.4.2 1.1 0 1.7-.5 1.4-.4-.3-1.1.1-1.4.7-.3.7-.3.2 0-1.2l.5-2.5-1.4 2.3c-.7 1.2-1.7 1.9-2.2 1.5-.4-.4-.5.1-.1 1.1.6 1.7.5 1.7-1.1.5-1.5-1.2-1.6-1.2-1.1.3.9 2.3-.1 2.9-2.5 1.6-1.6-.8-1.9-.8-1.4.5.7 1.9-1.1 3.7-3.1 3-.9-.4-1.3-.2-.9.4.3.5 0 1-.8 1s-1.2-.3-1-.7c.2-.4-.2-.7-.9-.7-.8 0-1.2.7-.8 1.5.4 1.1.1 1.3-.8.7-.9-.5-1.1-.4-.6.3.4.7.2 1.2-.4 1.2-.6 0-.8.4-.5 1 .3.5.1 1-.4 1-.6 0-1.1-.5-1.1-1 0-.6-.5-1-1.1-1-.6 0-.9.7-.6 1.5.4.8.2 1.7-.4 2-.5.4-.6 1.1-.3 1.7.4.7.2.8-.5.4-.9-.6-.9-1.1-.1-2.1.8-.9.6-1.4-.5-1.9-.9-.3-1.4-.2-1 .3.3.5.2 1.7-.1 2.6-.5 1.3-.8 1.4-1.5.3-.7-1-.9-1-.9-.1 0 .7-.5 1.3-1.1 1.3-.5 0-.7-.5-.3-1.2.4-.7.3-.8-.5-.4-.6.4-.9 1.1-.6 1.6.3.5-1 1.6-3 2.4-2 .9-3.4 2-3.1 2.5.3.4-.8.7-2.4.6-1.6-.1-2.7.1-2.4.6.3.5 1 .7 1.5.4.5-.4.9-.1.9.4 0 .6-1.1 1.1-2.4 1.1-1.4 0-2.8.5-3.2 1.2-.5.7-.3.8.6.3.9-.6 1.1-.4.5.4-.5.9-1 1-1.8.2-.7-.7-1.6-.7-2.9 0-1.6.8-1.7 1.3-.7 2.5s.9 1.3-.6.8c-1.2-.5-1.6-.4-1.1.4.3.6.2 1.3-.3 1.6-.5.4-1.3.1-1.7-.5-.5-.8-.3-.9.6-.4.9.5 1.1.4.6-.4-.6-.9-1.1-.9-2.2 0-1.2 1-1.2 1.4-.2 2 .7.5.9.9.4.9s-1.8-.8-2.8-1.7c-1.1-1-1.9-1.3-1.8-.8.2.6.1 1.3 0 1.7-.3 1-.7 2.5-.9 3.5-.1.5-.6.1-1.1-.7-.8-1.3-1-1.2-1 .2 0 1-.5 1.8-1.1 1.8-.5 0-.7-.5-.3-1.2.4-.7.3-.8-.5-.4-.9.6-.9 1.1-.1 2.1.9 1.1.7 1.3-1.5.9-1.9-.3-2.4-.1-1.9.7.5.8.2 1-.8.7-.8-.4-2.1-.2-2.9.4-1.1.8-1 .8.5.4 1.6-.5 1.7-.4.6.8-1.3 1.7-3 1.7-4.3.1-.5-.6-.5.1-.1 1.5.6 2.1.5 2.3-.8 1.2-1.3-1-1.8-.9-2.9.5-1.2 1.4-1.2 1.6 0 .8 1-.6 1.2-.4.7.4-.5.7-1.5 1-2.3.7-.8-.3-2.5.6-4 2.2-1.4 1.5-3 2.6-3.5 2.4-.6-.2-.8.4-.5 1.2.5 1.2.1 1.3-1.7.6-2.1-.8-2.3-.6-1.9 1.3.4 1.8.3 1.9-.6.7-1-1.4-1.6-.7-1.1 1.5.1.5-.9.1-2.2-1-1.3-1.1-1.7-1.3-1.1-.5 1.8 1.9 1.6 3.5-.1 2.1-1.1-1-1.7-.7-2.9 1-1 1.3-2 1.8-2.8 1.4-.8-.6-1-.4-.4.5.6 1 .4 1.2-.8.7-.9-.3-1.6-.3-1.6.1.3 1.7-.2 3.2-.8 3.1-2.8-.5-3.5.1-2.2 1.8 1.2 1.4 1.2 1.5 0 .9-.8-.5-1.7-.3-2.3.5-.7 1-.8.8-.3-.8.3-1.2.1-2.5-.6-2.9-.7-.4-.9-.3-.6.4 1.2 1.8-.4 4.4-2.4 3.9-1.3-.4-1.6 0-1.4 1.4.3 1.6.1 1.7-1.5.9-1.6-.8-1.8-.7-1.5.9.2 1.4-.1 1.8-1.1 1.4-.7-.3-1.1-1-.7-1.6.3-.6.1-.7-.6-.3-.9.6-.9 1.1 0 2.2 1 1.2.9 1.3-.5.8-1.1-.4-1.6-.2-1.4.6.2.7-.7 1.4-2 1.6-1.4.2-2.1 0-1.7-.6.3-.5.4-1 .1-1-.3 0-1 .9-1.6 2-.9 1.6-.8 1.9.6 1.3 1.4-.5 1.4-.3-.2 1.5-1.9 2.3-3 2.9-1.9 1.2 1.1-1.8-.5-3-2.5-1.8-1 .7-1.7 1.5-1.5 1.9.3.3-.5 1.5-1.6 2.5-1.7 1.6-2.2 1.6-2.9.4-.8-1.2-1-1.2-1 .3 0 1-.4 1.6-.9 1.2-.6-.3-2 .5-3.2 1.7-1.2 1.3-1.9 1.6-1.5.8.5-.9.2-.9-.7.2-.8 1-1.8 1.4-2.2 1-.5-.4-.5.1-.2 1 .4 1.2.1 1.8-.8 1.8-.8 0-1.9.8-2.5 1.7-.9 1.6-1 1.6-.8.1.2-.9-.1-1.6-.7-1.5-.5.1-.9.8-.9 1.4.1.7-.7 1.3-1.7 1.3-1.1 0-1.9.6-1.9 1.2 0 .9-.4.8-1.1-.2-.9-1.2-1-1-.6.8.5 2 .3 2.2-1.1 1-.9-.7-1.3-.8-.9-.2.4.6-.3 2-1.5 3-2.1 1.9-2.1 1.9-.9-.3 1.4-2.7 1.4-4.5 0-2-.6.9-1.5 1.4-2.1 1.1-.7-.4-.8-.2-.4.4.4.7.2 1.2-.4 1.2-.6 0-.9.4-.6.9.3.5-.1 1.2-1 1.5-1 .4-1.3.2-.8-.7.5-.8.2-.8-.9.2-.9.7-1.4 1.8-1.1 2.5.3.6-.2.2-1.1-.9-1.7-2-1.7-2-1 .2.5 1.7.2 2.3-1 2.3-.9 0-1.4.4-1.1.8.3.5-.1.9-.9.9s-1.2-.4-1-.8c.7-1-2.2-.5-3.2.6-.4.4-.2.5.5.1s1.2-.1 1.2.8c0 1-.6 1.3-1.7.9-1.1-.5-1.4-.3-.8.6.6 1-.1 1.2-2.9.8-2-.3-3.3-.1-3 .4.3.5.9.7 1.3.5.4-.3 1.3-.1 2.1.5 1.1.6.5.8-1.8.5-2.7-.3-3-.1-2.1 1.1 1 1.1.8 1.2-.6.7-1.2-.5-1.6-.4-1.1.4.3.6.2 1.3-.3 1.6-.5.4-1.3.1-1.7-.5-.5-.8-.3-.9.6-.4.9.5 1.1.4.6-.4-.4-.6-1.2-.9-1.7-.5-.5.3-.7 1-.4 1.5.4.5.1.9-.5.9s-.9.4-.5.9c.3.5 0 1.3-.6 1.7-.7.4-.9.3-.6-.3.4-.6 0-1.3-.8-1.6-.9-.4-1.2-.1-.9.7.3.8 0 1.7-.7 2.2-.7.4-1 .3-.6-.2.3-.5-.3-1-1.3-1-1.4 0-1.6.3-.8 1.3 1.3 1.6-1.4 2.9-3.4 1.7-1.1-.6-1.1-.5 0 .8 1.1 1.4 1 1.6-.7 1.1-1.2-.3-1.8-.9-1.5-1.4.3-.5-.2-.6-1.1-.2-1.3.5-1.4.7-.3 1.4 1.1.7 1 1.1-.2 1.8-.8.5-1.8.7-2.2.5-.5-.3-1.2.5-1.7 1.8-.6 1.3-1 1.8-1 1.2-.1-.6-.8-1.1-1.6-1.1-1 0-1.2.4-.5 1.2.5.6.5 1.6-.2 2.5-.8 1.2-.9 1.2-.4-.3.8-2.6-.4-2.1-3.7 1.5-1.7 1.8-2.7 2.5-2.4 1.5.5-1.4.3-1.6-1.2-.8-1 .6-2 .9-2.2.7-.2-.2-1 .2-1.7 1-1.5 1.7-.8 1.8 2.1.3 2-1 2.1-1 .7.5-.9.9-2.8 1.7-4.2 1.8-2.2.2-2.5.5-1.5 1.7s.9 1.3-1.1.2c-1.9-1-2.3-1-2.1.1.3 2.6-.1 3.9-1.1 3.3-.6-.4-.8-1.2-.4-1.8.3-.7-.1-.4-1 .7-.8 1-2 1.5-2.7 1-.7-.4-1-.3-.6.2.3.6.2 1.6-.4 2.4-.7 1.2-.9 1.2-.9-.3 0-1-.5-1.5-1-1.2-.6.4-.8 1.1-.5 1.6.4.5.1.9-.5.9s-.9.4-.6.8c.3.5-.1.9-.8.9-.9 0-1.2-.7-.9-1.6.4-1 0-.9-1 .4-.8 1.1-1.3 2.3-1.1 2.6.2.4-.4 1-1.3 1.3-.9.4-2 .1-2.5-.6-.6-1.1-.8-1-.8 0 0 .7-.6 1-1.2.7-.7-.4-.4.1.7 1 2 1.7 2 1.7-.2 1-1.9-.5-2.2-.3-1.6 1.2.6 1.6.5 1.6-1 .4-.9-.7-1.8-1.1-1.8-.7-.1.3-.2 1-.3 1.5 0 .6-.7 1.6-1.4 2.3-1.1 1.1-1.2.9-.7-.7.6-1.8.5-1.8-.7-.4-1.1 1.4-1.3 14.2-1.2 73.5.1 39.6.2 72.6.3 73.5.1 1.1 1 1.6 2.7 1.6 1.5 0 2.9.4 3.3.9 1.1 1.6 4.5 4 3.7 2.6-1.2-2.1 6.1 0 7.6 2.2.5.7.8.6.8-.4 0-.9.5-.7 1.6.8 1.2 1.8 1.9 2.1 3 1.1 2-1.7 4.4-.4 3.9 2.1-.3 1.8-.2 2 1 1 .8-.6 2-.8 2.6-.4.8.5 1 .3.5-.7-.4-.8.1-.3 1.2 1 1.9 2.3 2 2.3 3 .5.6-1 1.2-1.4 1.2-.8 0 .5.7 1.9 1.5 3 1.5 1.9 1.5 1.9.8-.1l-.6-2 2.3 2c1.4 1.2 2 1.4 1.5.5-.8-1.3-.6-1.3.7-.2.9.7 3 1.4 4.6 1.4 2 .1 3.4.8 4 2.2.6 1.2 1.1 1.5 1.1.8.1-.6.6-1.2 1.2-1.2.5 0 .7.4.4 1-.3.5-.1 1 .4 1 .6 0 1.1-.6 1.2-1.3 0-.6.5.1 1.1 1.6.9 2.6 1.1 2.7 2.5 1 1.3-1.6 1.4-1.6.9-.1-.6 1.9.9 3.4 1.9 1.8.3-.5 1.1-1 1.6-1 .6 0 .7.5.3 1.1-.4.8 0 .8 1.5 0 1.7-.9 2-.9 1.5.3-.3.8 0 1.7.7 2.2.8.4 1 .3.5-.4-.4-.7-.1-1.2.7-1.2.8 0 1.9 1 2.6 2.2.6 1.3.9 1.5.7.6-.3-1 0-2 .6-2.4.6-.4.8-.3.5.3-.4.6.2 1.8 1.2 2.7 1.4 1.3 2.1 1.4 2.7.5.5-.8.3-1-.6-.4-.8.5-1.1.4-.7-.3.6-.9 2.7-.9 4.7-.2.3.1.8.2 1.2.1.4 0 .5.6.2 1.4-.5 1.1-.2 1.3 1 .9 1.1-.4 1.5-.2 1.1.8-.4.9 0 1.5.9 1.5.8 0 1.3-.4 1-.9-.3-.4.2-.8 1-.8.9 0 1.6.7 1.6 1.5 0 1.8 1.2 1.9 2.8.3.9-.9 1.2-.8 1.2.6 0 1.3.5 1.6 2 1.1 1.4-.5 1.8-.3 1.5.8-.4.8.1 1.4 1 1.4 1 0 1.4-.6 1-1.6-.3-1.1-.1-1 1 .3 1 1.4 1.8 1.6 2.7.8 1.3-1.1 4.8.6 4.8 2.3 0 .5-1 0-2.2-1.1-1.6-1.3-1.9-1.4-1-.2.7.9.9 1.8.5 2-.4.3-.2.3.5.2.6-.2 1.2.1 1.2.7s.7.3 1.6-.6c1.5-1.5 1.8-1.4 3.7.6 2 2.1 2.1 2.1 3.5.3 1.3-1.8 1.4-1.8.8.3-.6 1.8-.3 2.1 2.3 1.9 1.6-.1 2.9.1 2.8.5-.1.4.3.7.8.7.6 0 .9-.5.7-1.2-.1-.6.6-.2 1.6 1 .9 1.1 2.4 1.8 3.1 1.6 1-.3 1.1 0 .5.9-.6 1.2-.5 1.2.9 0 1-.8 2-1.1 2.4-.7.3.3.1.6-.6.6-.9 0-.9.4.1 1.4.9 1 1.5 1.1 2.1.2.5-.8 1-.6 1.7.6.6.9 1.7 1.5 2.5 1.2.8-.4 1.2-1 .9-1.5-.3-.5-.3-.9.1-.9.3 0 1 1.2 1.6 2.7 1 2.8 1.1 2.8 2.6.8 1.5-2 1.5-2 1.1 0-.4 1.7 0 2.1 1.8 2.1 1.2 0 2-.4 1.8-.8-.3-.5-1-.5-1.6-.2-.7.5-.8.2-.4-.5.6-.9 1.3-.8 2.7.5 1 .9 1.6 2.1 1.2 2.7-.3.6-.1.7.6.3.6-.4.9-1.1.7-1.5-.3-.4.2-.8 1.1-.8.9 0 1.8.9 2.1 1.9.2 1 .8 1.5 1.4 1.2.5-.3 1.6 0 2.5.8 1.2.9 1.5.9.9 0-.4-.6-.2-1.2.3-1.2.6 0 1.1.7 1.1 1.5 0 1.1.5 1.2 2.6.5 2.2-.9 2.7-.7 3.1 1.1.4 1.6.8 1.7 1.4.7.7-1 .9-.8.9.6 0 1.1.3 1.6.6 1.3.4-.3 1.5-.2 2.5.3 1.2.7 2 .7 2.4 0 1-1.6 2.5-1.2 2.5.7 0 1.5-.2 1.6-1 .3-.6-.9-1-1-1-.3 0 2 1.8 2.4 2.9.6.9-1.6 1-1.6 1.1.5 0 1.3.4 2 1 1.7.6-.4.8-1.1.4-1.7-.3-.5.8-.3 2.4.6 1.7.9 4 1.6 5.2 1.6 1.7 0 2.4.9 2.2 3.1-.1.3.5.6 1.3.6s1.2-.4.9-.8c-.2-.4.4-.7 1.5-.6 1.1 0 1.7.6 1.4 1.4-.3.7 0 1.3.6 1.3s1.1-.8 1.1-1.8c0-1.4.2-1.5.9-.2.6.8.7 1.8.4 2.4-.3.5-.1.6.5.2.5-.3 1.2-.3 1.5.1.2.5.2.2 0-.5-.1-.8.3-1.2.9-.9.7.2 1.2 1.3 1 2.3-.3 1.8-.3 1.8 1.2-.1.9-1.1 1.6-1.6 1.5-1-.3 2.3.2 2.7 1.8 1.4.9-.8 1.4-.9 1-.3-.4.7 0 1.4.8 1.7 1 .4 1.2.1.9-1.1-.3-1.1-.1-.9.8.4.7 1.2 1.9 1.9 2.5 1.7.7-.3 1.6.2 1.9 1.1.3.9 1 1.6 1.6 1.6.5 0 .7-.4.3-.9-.3-.5 0-1.3.6-1.7.7-.4.9-.3.6.2-.3.6-.2 1.6.4 2.4.7 1.3.9 1.2.9-.3 0-1.6.1-1.6 1.8 0 1.1 1 1.7 2.2 1.4 2.7-.3.5 0 .6.7.2.9-.6.9-1.2-.1-2.4-1.1-1.5-1.1-1.5.3-.5.9.7 2 .9 2.4.5.5-.4.5-.1.1.5-.4.7-.2 1.3.4 1.3.6 0 .8.5.4 1.2-.5.7-.3.8.7.2 2.1-1.3 6.1-1.3 5.6 0-.3.7.1 2 .8 2.9 1.2 1.7 1.3 1.7 1.9 0 .6-1.4.9-1.5 1.6-.3.5.7 1.6 1.5 2.4 1.6.9.1 1.4-.2 1-.7-.3-.5 0-.9.5-.9 1 0 1.5 1.4 1.2 3.3-.1.5.3.6.9.2.6-.3.8-1 .5-1.5-.3-.5 0-1.2.6-1.6.8-.4.9-.3.5.4s-.1 1.2.9 1.2c.9 0 1.3.4 1 1-.3.5.3 1 1.5 1s1.8.4 1.5 1c-.3.5-.1 1 .4 1 .6 0 1.1-.4 1.1-.8 0-.5.7-.9 1.5-.9.9 0 1.4.6 1.1 1.3-.3.8.2 1 1.6.6 1.5-.3 1.9-.1 1.4.7-.5.7-.2 1 .6.9.7-.2 1.2.2 1.1.7-.1.6.7 1.1 1.8 1.1 1.9 0 1.9-.1.3-1.3-1-.7-1.3-1.3-.7-1.3.7 0 1.9.7 2.7 1.6.9.9 1.6 1.1 1.6.4 0-.6.5-.8 1-.5.6.4.8 1 .5 1.5-.3.4.5.6 1.7.3 1.9-.4 2-.3.8.6-.8.6-1 1.1-.5 1.1.6 0 1.7-.6 2.4-1.3 1.1-1 1.2-.9.6.2s-.4 1.3.8.8c.9-.3 2.4.1 3.3 1 1.3 1.4 1.7 1.4 2.5.2.8-1.3 1.3-.5 1 1.4-.1.5.8.5 2 .2 1.5-.5 1.9-.4 1.4.5-.9 1.4 2.6 1 3.8-.5.5-.6.7-.4.4.5-.2.8-1 1.4-1.6 1.2-.7-.1-1 .2-.7.7.3.5 1.6.7 2.8.3 1.6-.4 1.9-.2 1.3.8-.5.8-.4 1.1.3.6.6-.3 1.3-.2 1.6.2.3.5 2.1.8 4.1.7 2.4-.2 3.8.2 4.5 1.4.6 1 .9 1.2 1 .3 0-.7.5-1 1-.7.8.5.8 1.1 0 2-.8 1-.8 1.5.1 2.1.7.4.9.3.5-.4-.3-.6.2-1.6 1.2-2.1 2.4-1.3 3.6-.3 2 1.6-.9 1.1-.7 1.2.8.6 1-.3 2.2-1.1 2.5-1.6.4-.5 1 .1 1.4 1.3.6 1.8.9 2 1.6.9.7-1.1.9-1 .9.5 0 1.9 0 1.9 1.3.1 1.1-1.4 1.6-1.5 2.2-.5.6.9.4 1.1-.5.5-.9-.6-1.1-.4-.5.4.4.7 1.6 1.1 2.6.8 1-.3 2.2 0 2.6.5.3.6.1.8-.5.4-.6-.3-1.3-.3-1.6.2-.2.4.8.8 2.4.7 1.5 0 2.6-.4 2.3-.9-.4-.5 0-.6.8-.1 1.6 1.1 4.8 1.4 4.7.6-.3-2.7.3-3.3 1.7-2.1 1.3 1.1 1.4 1 1-.3-.4-.8-.1-1.8.6-2.3.7-.4 1-.3.5.4-.3.6-.1 1.4.5 1.8.7.4.9.3.6-.3-.6-1 1.4-2.5 3.8-2.7.6-.1.9-.9.9-1.8-.1-1.1.5-1.5 1.8-1.3 1 .2 1.6 0 1.3-.6-.4-.5-.3-1.4.1-2 .4-.8.9-.7 1.5.2.6 1 .9 1.1.9.1 0-.6.8-1.2 1.9-1.2 2.4 0 4.5-2.5 3.5-4.2-.5-.7.3-.5 1.9.5 3 1.9 3.5 1.7 1.2-.6-1.3-1.3-1.3-1.6.1-2.1.8-.3 1.2-.2.9.4-1 1.7.4 1.1 2.5-1 1.2-1.2 2.6-1.8 3.2-1.4.7.5.9.2.6-.8-.4-.8 0-1.5.8-1.5.7 0 1.1.3.9.7-.2.4.2.7 1 .7 1 0 1.1-.5.4-1.9-.5-1-.6-1.8-.2-1.7 2.6.4 4.3-.3 4.3-1.9.1-1.6.1-1.6 1.1.1.6.9 1.5 1.5 2 1.1.7-.4.7-1 0-1.8s-.6-1.7.1-2.6c.8-1.2.9-1.1.4.4-.4 1.3-.2 1.7.8 1.3.7-.3 2 0 2.7.6.7.7.5.1-.6-1.2-1.1-1.4-1.4-2.1-.7-1.7.7.4 1.2.2 1.2-.6 0-.9.3-.9 1 .2.8 1.3 1 1.2 1-.3 0-.9.5-1.7 1.1-1.7.5 0 .8-.4.4-.9-.3-.5 0-1.3.6-1.7.7-.4.9-.3.5.4-.3.6-.2 1.3.3 1.6.5.3 1.1-.1 1.5-.9.3-.8 1.3-1.5 2.1-1.5 1 0 1.3-.5.9-1.3-.5-.8-.2-.7.9.2 1.5 1.2 1.7 1.2 1-.4-.5-1.4-.3-1.7 1-1.2.9.3 1.9.1 2.3-.5.5-.7.2-.8-.6-.3-.9.5-1.1.4-.6-.4.6-.9 1.1-.9 2.2 0 .8.6 1.7.9 2.1.5.3-.3.2-.6-.4-.6-.5 0-1-.7-1-1.5 0-1.2.3-1.2 1.6-.2.9.7 1.2.8.8.1-.4-.7 0-1.7.8-2.4 1.3-1.1 1.4-1 .9.5-.5 1.3-.4 1.6.5 1.1.7-.5 1.1-1.7.8-2.7-.3-1-.1-2.2.4-2.5.5-.3.9-.2.8.3-.3 2 .2 3.4 1.1 2.8.6-.4.8-1 .5-1.5-.5-.9 4.9-3.1 5.9-2.4.3.2.4.1.1-.3-.8-1 1.6-3.3 3.5-3.3 1 0 3.3-1.5 5.1-3.3 1.8-1.7 2.9-2.5 2.4-1.7-.6.9 0 .4 1.2-1 1.3-1.4 2.3-1.9 2.3-1.3 0 .7.5 1.3 1 1.3.7 0 .7-.6.1-1.9-.9-1.5-.7-1.8 1.2-1.7 1.2.1 3-.9 4-2.1 1-1.3 2.4-2 3-1.6.7.4.8 0 .3-1.2-.5-1.5-.4-1.6.9-.5 1.2 1 1.5 1 1.5-.1s.3-1.1 1.1.1c.9 1.2 1 1.1.6-.7-.3-1.4 0-2.1.7-2 .6.1 1-.4.8-1.1-.1-.8.2-1.1.8-.7.6.4.7 1.2.3 1.9-.4.7-.1.4.9-.6 1.2-1.3 1.8-1.5 2.1-.6.5 1.3 1.1-1.7.8-3.6-.1-.5.6-.3 1.5.5 1 .8 1.5.9 1.1.3-.8-1.4 2-2.7 3.5-1.7.7.4.9-.2.5-1.8-.5-2.2-.5-2.2.7-.7 1.8 2.4 2.5 2.2 2-.5-.2-1.2-.1-1.6.2-.8.5 1.1 1 .8 2.1-1l1.4-2.4-.7 2.5c-.6 2.3-.4 2.3 2.4-.9 2.1-2.3 3.6-3.1 4.8-2.7 1.4.5 1.5.4.5-.8-.9-1.1-.9-1.6 0-2.2.8-.4.9-.3.5.4-1.2 2 .4 1.3 2.7-1.1 1.2-1.3 1.8-1.6 1.2-.7-.5.9 0 .6 1.2-.7 2.3-2.4 3.9-3.1 2.7-1.1-.5.7-.3.8.5.4.7-.5 1-1.5.6-2.4-.5-1.3-.1-1.2 1.5.3 2 1.8 2.1 1.8 1.4 0-.6-1.4-.4-1.6.6-1 .9.6 1.1.4.5-.5-.6-1-.4-1.2.8-.7 1.2.4 1.4.2 1-1.1-.6-1.5-.5-1.6 1.3-.2 1 .8 1.6 1.1 1.2.6-1-1.2 2-3.9 3.6-3.3.8.3 1.3-.1 1.2-1.1-.1-1.1.5-1.6 1.8-1.4 1 .2 1.6 0 1.3-.5-.2-.4.4-1.6 1.3-2.6 1.3-1.4 2-1.5 2.6-.6.4.8.3 1-.4.5-.7-.4-1.2-.2-1.2.4 0 1.5 2.5.7 2.6-.8.3-2.5.4-2.5 1.9-.6 1.3 1.8 1.4 1.8.8-.4-.4-1.8-.2-2.1 1.2-1.5 1.2.4 1.6.3 1.2-.4-.4-.6 0-1.4.9-1.7.8-.3 1.2-1 .9-1.6-.3-.6.1-.7.9-.4.9.3 1.6.1 1.6-.5s.5-1.1 1.1-1.1c.5 0 .7.6.3 1.2-.5.9-.2.9.9-.1 1.3-1.1 1.7-1.1 1.7-.1 0 .8.3 1 .7.6.5-.4-.1-1.4-1.2-2.3-2-1.5-2-1.5.2-.8 1.9.5 2.2.3 1.6-1.2-.6-1.6-.5-1.6 1-.4 1.6 1.2 2.2.8 1.8-1.2-.1-.5.4-.5 1-.1.9.5 1 .2.5-1.1-.5-1.5-.4-1.6.9-.5 1.2 1 1.5.9 1.5-.6 0-1.7.1-1.7 1.5.2 1.3 1.6 1.4 1.6.9.1-.3-.9-.1-1.7.5-1.7s1.1.5 1.1 1.2c0 .6.2.9.5.6 1-.9-.7-3.8-1.8-3.1-.6.3-.7.1-.3-.6.6-.9 1.1-.9 2.2 0s1.4.9 1.4 0c0-.7.5-.9 1.2-.5.7.5.9.2.6-.8-.4-.8 0-1.5.8-1.5.7 0 1.1.4.8.8-.2.4.1 1.1.7 1.5.8.4.9.3.5-.5-.4-.6 0-1.4.8-1.7.9-.3 1.3-1.1 1-1.6-.4-.6.2-.8 1.7-.3 2.3.7 2.4.7.4-.8-2-1.6-1.9-1.6.4-1 1.9.5 2.2.3 1.6-.8-.7-1.2-.6-1.2.7-.1 1.3 1 1.8 1 2.4.1.4-.8.3-.9-.4-.5s-1.2.2-1.2-.5c0-.6.8-.9 2-.6 1.5.4 2 0 2-1.4 0-1 .5-1.9 1.1-1.9.5 0 .8.4.5.8-.3.5.1.9.8.9.8 0 1.2-.6.9-1.3-.7-1.8 1.6-2.8 3.3-1.3 1.2 1 1.3.9.8-.5-.7-1.9 2-4.5 4.9-4.6 1 0 1.6-.3 1.4-.8-.3-.4.2-1.3 1-2.1 1.3-1.2 1.4-1.1.9 1l-.7 2.4 1.4-2.4c1.1-1.8 1.6-2.1 2.1-1 .3.8.5.5.2-.7-.2-1.2.2-2.1 1-2.1.7 0 1 .5.7 1-.4.6-.1.7.6.3.7-.5 1-1.4.7-2.2-.3-.9 0-1.1 1.1-.7 1.2.5 1.4.2.9-.8-.5-.9-.3-.8.6.2 1.2 1.4 1.5 1.4 3.7-.7 1.3-1.2 2-2.7 1.7-3.3-.5-.8 0-.8 2-.1 2.2.9 2.5.8 1.6-.3-1.5-1.8-.3-3 1.5-1.5 1 .8 1.2.8.8-.4-.4-.9 0-1.5 1-1.6.8-.1 2.2-.3 3-.4.8-.1 1.2-.5.8-1-.3-.5.4-1.6 1.6-2.4 1.2-.9 1.8-2 1.5-2.6-.4-.7-.2-.8.5-.4.8.6.9 1.2.2 2-.8.9-.7 1.3.4 1.3.8 0 1.2-.4.9-.9-.3-.4 0-.8.6-.8s.9-.4.5-.9c-.3-.5-.1-1.2.5-1.6.5-.3 1-.1 1 .5 0 .8.6.8 2.1 0 1.6-.9 1.8-1.4.8-2.6-1-1.3-.8-1.3 1.6-.4 2.6 1 2.7.9 1.4-.6-1.3-1.6-1.2-1.6.8-.6 1.9 1 2 .9 1.6-.8-.3-1.2 0-2 .6-2 .7 0 1 .4.7.8-.3.5.1.9.8.9.9 0 1.2-.7.8-1.6-.5-1.4-.4-1.4 1.1-.2s1.7 1.2 1-.4c-.5-1.4-.3-1.7 1-1.2.9.3 1.7.2 1.7-.2 0-.5-.5-1.1-1.2-1.3-.7-.3-.5-.7.6-1.1 1-.4 1.5-.3 1.1.3-.3.6-.2 1 .3 1 .6 0 1.2-.7 1.6-1.5.3-.8 1-1.5 1.6-1.5.6 0 .8.5.4 1.2s-.3.8.5.4c.6-.4.9-1.2.5-1.7-.3-.6.3-1.3 1.5-1.6 2.4-.6 2.7-1.8.9-2.7-.7-.3-.3-.3.9-.1 2.6.7 3.8-.8 1.9-2.4-.9-.8-1.6-.8-2-.2-.4.6-1.4.7-2.3.4-1.2-.5-1.4-.3-.9.8.4.8 0 .5-.8-.5-1.2-1.5-1.6-1.6-1.6-.5 0 1.2-.2 1.2-1-.1-.8-1.2-1-1.2-1-.1 0 1.1-.3 1.1-1.7 0-1.1-1-1.4-1-.9-.2.4.8.1 1.3-.8 1.3s-1.6-.5-1.6-1.2c0-.6-.7-.3-1.5.8-1.2 1.5-1.4 1.6-.9.2.4-1.3.1-1.6-1.5-1.3-1.2.2-2.6.7-3.1 1-.6.3-1 0-1-.7 0-.8-.5-.6-1.1.5-1 1.7-1.2 1.7-2.9.2s-1.9-1.5-2.9.2-1 1.7-1.1-.2c0-1.5-.2-1.7-.9-.6-.6 1-1 1-1.6.1-.5-.8-1.2-.6-2.6.6-1.5 1.4-1.8 1.4-1.4.3.4-1.1-.2-1.5-2.5-1.4-1.9 0-2.9.4-2.6 1.2.3.7-.1 1-1 .6-.7-.3-1.4-1-1.5-1.7 0-.6-.4-.2-.9.9l-.9 2v-2c-.1-1.5-.3-1.7-1-.6-.6 1-1 1-1.6.1-.5-.8-1.2-.6-2.6.6-1.5 1.4-1.8 1.4-1.4.3.4-1.1-.2-1.5-2.5-1.4-1.9 0-2.9.4-2.6 1.2.3.7-.1 1-1 .6-.7-.3-1.4-1-1.4-1.7 0-.6-.5-.4-1 .4-.8 1.3-1 1.3-1 .1 0-1.1-.4-.9-1.5.5-1.2 1.5-1.4 1.6-.9.2.4-1.3.1-1.6-1.5-1.3-1.2.2-2.6.7-3.1 1-.6.3-1 0-1-.7 0-.8-.5-.6-1.1.5-1 1.7-1.2 1.7-2.9.2-1.3-1.2-2-1.3-2.5-.5-.6.9-1 .9-1.6-.1-.7-1.1-.9-1.1-.9.1 0 1.3-.1 1.3-1 0-.8-1.2-1-1.2-1-.1 0 1.1-.3 1.1-1.7 0-.9-.8-1.4-.9-1-.3.4.7 0 1.4-.8 1.8-1 .3-1.5-.1-1.5-1.2 0-1.5-.2-1.5-1-.2-.9 1.3-1 1.3-1 0s-.1-1.3-1 0c-.8 1.3-1 1.3-1 .1 0-1.1-.4-.9-1.4.5-1.4 1.8-1.5 1.8-2.2.1-.5-1.5-.9-1.6-1.5-.5-.7 1-.9 1-.9-.2 0-1.3-.1-1.3-1 0s-1.1 1.3-2 0c-.9-1.4-1.4-.8-1.1 1.5.1.5-.6.1-1.4-.9-1.1-1.4-1.5-1.6-1.5-.5 0 1.2-.2 1.2-1-.1-.8-1.2-1-1.2-1-.1 0 1.1-.3 1.1-1.7 0-1.1-1-1.4-1-.9-.1.4.7.1 1.2-.8 1.2s-1.6-.5-1.6-1.2c0-.6-.7-.3-1.5.8-1.2 1.5-1.4 1.6-.9.2.4-1.3.1-1.6-1.5-1.3-1.2.2-2.6.7-3.1 1-.6.3-1 0-1-.7 0-.8-.5-.6-1.1.5-1 1.7-1.2 1.7-2.9.2s-1.9-1.5-2.9.2-1 1.7-1.1-.2c0-1.5-.2-1.7-.9-.6-.6 1-1 1-1.6.1-.5-.8-1.2-.6-2.6.6-1.5 1.4-1.8 1.4-1.4.3.4-1.1-.2-1.5-2.5-1.4-1.9 0-2.9.4-2.6 1.2.3.7-.1 1-1 .6-.7-.3-1.4-1-1.5-1.7 0-.6-.4-.2-.9.9l-.9 2v-2c-.1-1.5-.3-1.7-1-.6-.6 1-1 1-1.6.1-.5-.8-1.2-.6-2.6.6-1.5 1.4-1.8 1.4-1.4.3.4-1.1-.2-1.5-2.5-1.4-1.9 0-2.9.4-2.6 1.2.3.7-.1 1-1 .6-.7-.3-1.4-1-1.4-1.7 0-.6-.5-.4-1 .4-.8 1.3-1 1.3-1 .1 0-1.1-.4-1-1.3.4-1 1.3-1.6 1.5-2.1.6-.4-.6-1.3-.8-1.9-.5-.9.5-.9.4 0-.6.6-.7.9-1.9.6-2.6-.3-.8.1-2.2.8-3.2 1.3-1.5 1.2-1.6-.4-.3-1.5 1.2-1.7 1.2-1.1-.3.3-.9 1.4-1.6 2.3-1.6 1.3 0 1.4-.2.1-.9-.8-.6-1.8-.7-2.2-.5-.4.3-.5-.3-.1-1.2.4-1.1.8-1.3 1.1-.6.5 1.7 2.9 1.5 3.6-.3.3-.8.1-1.5-.5-1.5s-.1-.9 1.2-2.1c1.3-1.1 1.9-1.8 1.2-1.5-.6.4-1.4.2-1.8-.4-.5-.8 1.3-1.4 3.6-1.2.3.1.6-.6.6-1.4 0-.8-.4-1.4-.9-1.4-.4 0-.8.4-.8 1 0 .5-.6 1-1.2 1-.7-.1-.2-1 1.1-2 1.3-1.1 1.8-2 1.1-2-.9 0-.9-.4-.2-1.2.6-.7 1-1.7 1-2.3 0-.5.6-1.1 1.4-1.3.8-.2.9 0 .3.5-.5.4-1.1 1.5-1.2 2.3-.2.8.5.4 1.4-.9 2-2.7 2.3-5.2.8-6.3-.6-.4-.2-.8.8-.8s1.5-.5 1.2-1c-.4-.6-.1-1.7.5-2.5s.9-1.9.5-2.4c-.3-.6 0-.8.8-.5.8.3 1.8 0 2.3-.7.5-.8.3-1-.7-.4-1.1.6-1.1.5-.2-.5.6-.7.9-1.9.6-2.8-.5-1.2-.1-1.4 1.5-1 1.5.4 1.9.2 1.5-.8-.3-.8-1-1.1-1.7-.7-.6.4-.5-.1.2-1 .8-.9 1-2.2.6-2.9-.6-.9-.3-.9.9.1 1.5 1.2 1.7 1.2 1.1-.3-.3-.9-.2-1.6.4-1.6.6 0 1.2.6 1.5 1.2.2.7.6.1.9-1.5.4-2.2.3-2.5-.9-1.6-.7.7-1.6.9-2 .5-.3-.3-.1-.6.5-.6.7 0 1.2-.5 1.2-1.1 0-.7.8-1.8 1.8-2.6.9-.8 1.2-1.2.6-.9-.6.3-1.1-.1-1.1-.9 0-.7.8-1.2 1.9-1 1 .2 1.6 0 1.3-.5-.3-.4.1-1.1.7-1.4.7-.3.2-.3-1.2 0l-2.5.6 2.4-1.7c1.8-1.4 2-1.9 1-2.6-1.1-.7-1-.9.3-.9.9 0 2-.5 2.4-1.2.4-.7.3-.8-.4-.4s-1.2.3-1.2-.2.9-1.2 2-1.5c1.1-.3 2-1.1 2-1.9 0-1-.3-.9-1 .2-.7 1.2-.9 1-.7-.7 0-1.2.5-1.9 1.1-1.6.5.4.7-.1.3-.9-.3-.9.1-2.5.8-3.6.8-1 1.1-2.3.7-2.7-.4-.5-.1-.5.6-.1 1 .6 1 1.1.1 2.2-.6.8-.8 1.4-.3 1.4s.2.5-.6 1.1c-1.3.9-1.3 1 0 .6.8-.2 1.6-.9 1.6-1.5.1-.7.3-1.5.4-2 .1-.4.2-1.1.1-1.6-.1-.4.6-1.4 1.5-2.1 1.3-.9 1.4-1.4.4-2-.9-.6-1.1-.4-.5.5.5.9.4 1.1-.3.6-1.4-.8 1.3-5.6 3.2-5.6.6 0 .4-.5-.4-1-1.2-.8-1.2-1-.1-1 .8 0 1.1-.7.8-2-.4-1.7-.3-1.8 1.6-.8 2.1 1.1 2.1 1 .7-.7-1.3-1.7-1.3-1.8.1-1.3.9.4 1.6.1 1.6-.8 0-.7-.5-1.1-1-.7-.5.3-.5-.3.1-1.3 1-1.8 1.2-2.6 1.2-4 0-.4.6-.1 1.4.5 1.2 1 1.3.8.9-1-.4-1.5-.3-2 .5-1.5.7.4 1.2.3 1.2-.3 0-.5-.6-1.1-1.2-1.3-.8-.3-.4-.9 1-1.7 1.2-.6 2.2-2.1 2.2-3.2 0-1.3-.4-1.8-1.2-1.3-.7.4-.8.3-.4-.5.4-.6 1.2-.9 1.7-.6.5.4.9-.1.9-1 0-1 .5-1.3 1.2-.9.6.4.8.3.5-.3-.4-.6 0-1.6.8-2.3.7-.6 1.1-1.9.8-2.7-.5-1.2-.3-1.4.8-.8 1.2.8 1.2.6 0-.8-1.1-1.4-1.1-1.8.3-2.3.9-.3 1.3-1 1-1.5-.3-.5-1-.6-1.6-.3-.7.4-.8.2-.4-.5.4-.6 1-.9 1.4-.7 1.1.7 2.9-1.8 2.6-3.7-.2-1.5 0-1.6 1.3-.5 1.5 1.2 1.5 1 .4-1.1-1.2-2.2-1.2-2.4.8-1.8 1.1.3 2.4 0 2.8-.5.3-.7.1-.8-.5-.4-.7.4-1.2.2-1.2-.4 0-.6-.5-.8-1.2-.4s-.8.3-.4-.4 1.5-1.2 2.4-1.2c1.5 0 1.5-.2.2-1s-.8-1.4 1.1-1.2c.3.1.6-.4.7-1.1.6-4.6.9-5.7 1.7-6.4.4-.5.5-.2 0 .6-.5.9-.4 1.2.2.8.6-.4 1-2 .9-3.7-.2-2.5 0-2.7 1.3-1.7 1.2.9 1.3.9.7-.1-.4-.6-.3-1.2.2-1.2 1.4 0 2.1-3.7.9-4.9-.7-.7-.5-1.2.6-1.7.9-.3 1.7-1 1.7-1.6 0-.5-.5-.6-1.1-.3-.5.4.2-1.1 1.8-3.3 1.5-2.2 3.1-3.8 3.6-3.5.4.2.7 0 .7-.6 0-.5-.6-1.2-1.2-1.4-1-.4-1-.6 0-.6.7-.1 1-.5.7-1.1-.3-.5 0-.7.8-.4.8.3 1.4-.2 1.4-1.1 0-.8-.5-1.5-1.1-1.6-.6 0-.1-.4 1.2-.9 1.2-.6 2.2-1.8 2.2-3 0-1.1.6-2 1.3-2 .9 0 .9-.2-.1-.9-1.1-.6-1-1 .3-1.5 1.5-.5 1.5-.9.4-2.3-1.2-1.4-1.2-1.6 0-.8 1.1.6 1.3.4.8-.8-.3-.9.1-2.1 1.1-2.9 1.5-1.1 1.6-1.1.4.3-1 1.4-1 1.8.3 2.3.9.3 1.3.2 1-.4-.9-1.5 1.4-5.2 2.8-4.3.7.4.7 0-.2-1-1.6-2-2.2-2.2-1.9-.6.2.6-.4 1.4-1.2 1.6-1.2.4-1.2.3-.2-.5.8-.5 1.2-1.3 1-1.8-.1-.5.7-1 2-1.2 2.2-.3 2.2-.5.6-1.6-1.3-1-1.4-1.5-.4-2.1.9-.5 1.1-.4.6.3-1.2 1.9-.2 1.4 1.8-1 1.4-1.6 1.5-2 .3-1.5-1.1.4-1.5 0-1.4-1.3.1-1.5.4-1.7 1.6-.7 1.2 1 1.3.8.9-1.5-.4-2.1-.2-2.5 1.1-2 1.4.5 1.4.4.1-1.3-.9-1.1-1-1.6-.2-1.1.7.4 1.2.2 1.2-.4 0-.6.6-.8 1.3-.4.6.4.3-.3-.8-1.6l-2-2.3 2.2 1.2c2.9 1.5 3.1 1.4 2.9-.7 0-.9-.8-2-1.6-2.4-1.2-.5-1.1-.7.4-.7 1.2-.1 1.6-.6 1.2-1.6-.3-1 .1-1.5 1.2-1.5 1.5 0 1.5-.2.2-1-1.2-.8-1-1 .8-1 1.3 0 2-.4 1.7-1-.4-.6-1.1-.7-1.7-.4-.7.4-.8.2-.4-.5.4-.6 1.2-.9 1.7-.6.5.4.9-.9.9-2.7 0-1.8.4-2.8.8-2.1.5.8 1.1.3 1.9-1.3.6-1.3.8-2.2.4-1.9-.4.2-.8-.2-.8-1s.3-1.4.6-1.3c2 .2 3.1-.3 2.6-1.2-.4-.6-1.2-.8-1.8-.4-.7.3-.1-.4 1.3-1.6 2.7-2.4 3.2-4.1 1.5-5.2-.6-.5-.4-.8.6-.8.9 0 1.6-.7 1.7-1.5.1-.8.3-2.2.4-3 .1-.8.5-1.2.9-.9.5.2.5 1.2.2 2.2-.3.9-.3 1.4.1 1.1.4-.4.9-1.9 1.2-3.4.3-1.9.1-2.4-.7-1.9-.8.4-.9.3-.5-.4s1.5-1.2 2.4-1.2c1.3 0 1.3-.2-.4-1.5-1.8-1.3-1.8-1.4.4-.8 1.8.4 2.1.2 1.5-1.2-.5-1.4-.3-1.6.8-1 1.1.7 1.1.5-.1-1-1.4-1.7-1.3-1.8.4-1.2 1.7.7 1.7.6.5-1-1.3-1.5-1.2-1.6 1.1-1 2.3.5 2.3.5.7-.7-1.6-1.3-1.6-1.4.4-1.9 1.7-.5 1.9-.9 1-2.6-1-1.8-.9-2 .6-1.4 1.6.6 1.6.5.5-1-.8-.9-1.2-2.2-.9-2.9.4-.8.6-.7.6.4.1 1.2.6 1.5 1.7 1.1 1.3-.5 1.3-.7.2-1.4-.9-.6-.9-.9-.1-.9.6 0 1-.9.8-2-.3-1.3 0-1.8.7-1.4.8.5.9.1.5-1-.5-1.3-.2-1.5 1.9-1.2 2 .4 2.3.2 1.5-.8-.7-.9-.7-1.6.2-2.5.9-.9.9-1.4-.3-2.1-1.4-.9-.7-1.4 1.3-1.1.4.1.3-.8-.3-1.9-.8-1.6-.8-1.8.4-1.4.9.3 1.7-.3 2.1-1.5.3-1.2 1.1-1.9 1.6-1.6.5.3.6-.1.3-1-.4-.9.2-2.6 1.2-3.8 1.9-2.2 1.9-2.2-.2-.5-3 2.6-3.9 2.2-1.2-.5 2.3-2.2 2.9-3.5 3.2-7.4.1-1.6.5-1.9 1.7-1.3 1.2.7 1.5.3 1.3-2-.1-1.6.3-2.8.8-2.7.6.1 1.3-.4 1.6-1.2.3-.8 0-1.1-.7-.7-.6.4-1.1.3-1.1-.3 0-.5 1-1.1 2.2-1.3 1.1-.2 2.2-1.1 2.4-2.1.1-1-.2-1.5-.9-1.1-.8.5-.7.2.1-.7.6-.7 1.2-2.3 1.2-3.6 0-1.5.5-2.1 1.4-1.7.9.3 1.3-.1 1.3-1.3-.1-1 .4-1.7 1.1-1.6 1.6.4 1.5-.2-.3-2-1.3-1.3-1.3-1.6.1-2.1.8-.3 1.2-.2.9.4-.3.6-.4 1-.1 1 .5 0 3.6-5.9 3.6-6.9 0-.3-.5.1-1 .9-.7 1.1-1 1.2-1 .2 0-.8 1.5-2.8 3.3-4.5 1.7-1.7 2.6-2.7 2-2.3-.8.4-1.3.1-1.3-.8s.5-1.6 1.1-1.6c.5 0 .8-.3.6-.8-.5-.7 1.7-3.3 2.5-2.9.2.1-.4-.4-1.2-1.2-1.3-1.2-1.2-1.3.7-.8 2.2.5 2.8-1.1.9-2.5-1.1-.8 1.1-3.8 2.7-3.8.6 0 .2.7-.9 1.6-1.8 1.4-1.8 1.5.4.4 1.3-.7 2.1-1.4 1.8-1.7-.2-.3-.1-1.6.5-3 .5-1.4.5-2.2 0-1.9-.5.4-.8-.2-.7-1.1.2-.9.8-1.9 1.4-2.1.7-.2.9-.9.6-1.4-.4-.7-.2-.8.4-.4.7.4 1.2.1 1.2-.9s.5-1.3 1.2-.9c.6.4.8.3.4-.4-.3-.6-.2-1.4.4-1.7.7-.4.8-1.1.1-1.8-1-1.3 1.1-5.2 2.2-4.1.8.9 2-4.3 1.3-5.5-.4-.6.2-.8 1.4-.6 1.8.3 1.9.1.9-1.7-.8-1.5-.8-1.9 0-1.4.6.4 1.5-.4 2.1-1.9.6-1.7 1.5-2.4 2.2-1.9 1 .5 1 .4.1-.6-1.3-1.4-.6-4.3.8-3.4.5.3.9.1.9-.5 0-.5-.6-1.1-1.2-1.3-.8-.3-.4-.9 1-1.7 1.2-.6 2.2-1.8 2.2-2.7 0-.8.7-1.7 1.5-2 1.4-.6 1.4-.8 0-1.8s-1.4-1.3 0-3.1c.9-1.1 1.3-1.3.9-.5-.7 1.2-.5 1.3.8.3.8-.7 1.7-1.1 1.9-.8.3.2.5-.5.5-1.5 0-1.3-.4-1.6-1-1-.6.6-1.5 1-2 1-.6 0-.5-.4.2-.9.8-.5 1.5-2 1.5-3.4.1-1.4.6-2.3 1.1-1.9.5.3.7-.2.3-1.1-.3-.9-.3-1.6.1-1.6 2.2.4 3-.3 2.7-2.2-.3-1.5.2-2.3 1.5-2.6 1.1-.3 1.7-.9 1.4-1.4-.3-.5-1-.6-1.6-.3-.7.4-.8.2-.4-.5.4-.6 1.2-.8 1.8-.5.7.5.9.1.5-.9-.3-.9-.3-1.6.1-1.6 1.9.3 2.5-.2 1.2-1.1-1.3-.8-1.1-1.1.8-1.6 1.2-.4 2.2-1.1 2.2-1.6s-.4-.7-.9-.3c-.5.3-1.3 0-1.7-.6-.4-.8-.3-.9.5-.5 1.1.7 1.9-.6 2.6-4.1.2-1 .4-2 .5-2.3.1-.3.2-.9.1-1.4-.1-.5.6-.3 1.5.5 1.2.9 1.5.9 1 .1-.4-.6-.3-1.2.2-1.2s1.2-.9 1.5-2c.3-1.1.2-1.8-.2-1.5-.4.2-.8-.2-.8-1s.4-1.2.9-.9c.4.3.8-.4.8-1.6 0-1.7.4-2 2.2-1.4 2.1.6 2.1.6.5-1-2.2-2.2-2.1-2.7.1-1.9.9.3 1.4.3 1-.2-.4-.4-.2-1.5.5-2.3.8-1.1.8-1.4 0-.9-.6.4-1.4.3-1.7-.2-.4-.5.5-.8 1.9-.7 2.1.3 2.3.1 1.3-1.7-.8-1.6-.8-1.9.4-1.4.8.3 1.5-.1 1.5-.9 0-.7-.4-1.1-.8-.9-.4.3-.6-.3-.4-1.2.2-1 .4-2.1.4-2.5.1-.4.8-.4 1.8-.1 1.1.4 1.4.3.9-.5-.4-.7-.3-1.2.3-1.2s.7-.7.4-1.7c-.5-1.2-.3-1.4.7-.8.8.5 1.1.4.6-.3-.3-.6.2-1.6 1.1-2.2 1.5-.9 1.5-1-.6-.4-1.6.4-2.1.3-1.7-.5.4-.6 1.6-1.1 2.7-1.1 1 0 1.9-.4 1.9-1 0-.5-.8-.6-1.7-.3-1.6.6-1.6.5-.5-1 .8-.8 2.1-1.3 3-1.1 1.4.5 1.4.3-.1-.6-1.6-1-1.7-1.3-.3-2.3 1.3-1.1 1.3-1.5-.4-3.5-1.8-2.2-1.9-2.2-2.5-.2zm2.6 1.7c1.3 1.6 1.2 1.7-.3.4-1-.7-1.8-1.5-1.8-1.7 0-.8.8-.3 2.1 1.3zm-23 12.6c-1 .9-1.1.8-.5-.6.3-1 .9-1.5 1.2-1.2.3.3 0 1.1-.7 1.8zM589 51.4c0 .3-.4.8-1 1.1-.5.3-1 .1-1-.4 0-.6.5-1.1 1-1.1.6 0 1 .2 1 .4zM564 66c0 .5-.5 1-1.1 1-.5 0-.7-.5-.4-1 .3-.6.8-1 1.1-1 .2 0 .4.4.4 1zm-5 2.7c0 .5-1 1.9-2.1 3.3l-2 2.5 1.6-3.3c1.5-3 2.5-4.1 2.5-2.5zM540 81c0 .5-.5 1-1.1 1-.5 0-.7-.5-.4-1 .3-.6.8-1 1.1-1 .2 0 .4.4.4 1zm89.5 5c-.3.5-1.2 1-1.8 1-.7 0-.6-.4.3-1 1.9-1.2 2.3-1.2 1.5 0zm-2 3c-.3.5-1.2 1-1.8 1-.7 0-.6-.4.3-1 1.9-1.2 2.3-1.2 1.5 0zm-43.4 7.8c-.8.3-.7.8.6 1.9 1.6 1.3 1.6 1.3-.6.2-2.2-1-2.3-.9-1.8 1 .3 1.2.1 1.9-.4 1.5-.5-.3-.9 0-.9.5 0 .6.6 1.1 1.3 1.1.8 0 .8.3-.2.9-.8.5-1.1 1.6-.7 2.6.6 1.6.4 1.6-1.1.4-1.5-1.3-1.6-1.2-1.1.9.5 1.8.4 2.1-.7 1.2-1-.8-1.3-.7-1.1.7 0 1 .6 2.1 1.1 2.5.6.4 0 .8-1.2.8-1.3 0-2.3.5-2.3 1.1 0 .5.5.7 1 .4 1.5-.9 1.2.4-.4 2-.7.8-1.7 1.1-2.1.7-.5-.4-.4 0 .1.8.4.8 1 2.3 1.1 3.3.3 1.7.2 1.7-1.3.3-.8-.9-1.8-1.6-2.2-1.6-.3 0-.1.5.6 1.2 1.5 1.5 1.6 3.8.1 3.8-.5 0-.7-.6-.3-1.3.5-.8.2-.7-1 .2-1.2 1-1.4 1.7-.6 2.5 1.6 1.6 1.2 3-.5 1.6-1.4-1.1-1.4-1-.6 1.4.7 1.8.7 2.6 0 2.6-.6 0-.7.5-.3 1.2.4.7.3.8-.4.4-1.9-1.2-3.3.3-2.2 2.3.7 1.4.3 2.3-1.7 3.9-2.7 2.2-3.9 5.2-2.2 5.2.6 0 .7.5.4 1-.4.6-1 .8-1.5.5-.5-.3-1.2 0-1.6.6-.4.7-.3.9.4.5.6-.3 1.3-.2 1.7.4.3.5-.1 1-.9 1-.9 0-1.6.7-1.6 1.6 0 .8-.4 1.2-1 .9-.5-.3-1-.1-1 .4 0 .6.6 1.1 1.3 1.2.9 0 .9.2-.1.6-.9.4-1 .8-.2 1.8s.8 1.5-.1 2.1c-.8.4-.9.3-.5-.4s.2-1.2-.5-1.2c-.6 0-.9.8-.6 1.9.3 1.5 0 1.8-1.7 1.4-1.2-.3-1.7-.1-1.1.4 2.1 1.7 1.6 3.5-.7 2.8-1.7-.5-1.9-.4-.9.4.8.5 1.6 1.6 1.7 2.5.2 1.2-.2 1.4-1.6.6-1.3-.7-2.1-.7-2.6.2-.4.6-.3.8.4.4.6-.3 1.3-.2 1.6.3.3.5-.1 1.2-1 1.5-1.3.5-1.4.9-.4 2.1.7.9 1 1.8.6 2.2-.3.3-.6.1-.6-.6s-.5-.9-1-.6c-.8.5-.8 1.1 0 2 .8 1 .8 1.5-.1 2.1-.7.4-.9.3-.6-.3.4-.6 0-1.3-.8-1.6-1-.4-1.2-.1-.8 1 .5 1.2.3 1.4-.8.8-1.2-.8-1.2-.6 0 .8 1.1 1.4 1.1 1.7 0 1.8-1 0-1 .2-.2.6 1 .3 1 .7 0 1.8-.7.7-1.5 1.1-1.9.8-.5-.2-.8.1-.8.6 0 .6.5 1.1 1.1 1.1 1.3 0-1 2.4-3.1 3.3-1.2.4-1.1.6.3.6 2 .1 2.3 2.1.3 2.1-.8 0-1.8.5-2.2 1.2-.4.7-.3.8.4.4 1.7-1 1 2.4-1 5.3-.9 1.3-1.5 2.8-1.4 3.5.2.6.1.8-.1.3-.3-.4-.9-.7-1.4-.7-.6 0-.7.4-.4 1 .3.5-.2 1-1.2 1.1-1.1 0-1.3.3-.5.6 1 .4 1 .8 0 2.1-1.1 1.3-1.1 1.4.1.7 1-.6 1.2-.4.7.4-.5.7-1.4 1-2.2.7-.7-.3-1.6 0-2 .6-.4.6-.3.8.4.4.6-.3 1.3-.2 1.7.4.4.6 1.1.7 1.7.4.6-.4.8-.2.4.4-.3.6-1.6.9-2.8.7-1.6-.3-1.9-.2-1 .7.8.8.8 1.7.1 3-.5 1-.7 2.3-.4 2.8.3.5 0 1.2-.6 1.6-.8.4-.9.3-.5-.4s0-1.2-1-1.2-1.4.3-1.1.7c.4.3-.1 1.2-1.1 2-1.3 1.1-1.4 1.3-.2 1.1.9-.2 1.5.1 1.5.7 0 .5-.3.9-.7.8-.8-.3-1.2 1.3-.9 3.1.1.5-.5.6-1.4.3-.8-.4-1.5-.1-1.6.6-.1.7-.2 2.3-.2 3.7-.1 1.5-.7 2.4-1.5 2.2-1-.2-1 .2-.3 1.7.8 1.5.5 2.4-1.4 4.5-1.3 1.4-2 2.6-1.5 2.6.6 0 1 .5 1 1.1 0 .5-.4.7-1 .4-.5-.3-1.1-.1-1.1.4-.1.6-.2 1.5-.3 2 0 .5-.5 1.3-1 1.8s-.6.3-.2-.5c.4-.6.3-1.2-.3-1.2-1.4 0-1.9 3.1-.9 5.9.8 2.1.7 2.2-.7 1.1-.8-.7-1.6-1.1-1.8-.9-2.4 4.2-2.5 4.7-1.4 5.9.9 1 .9 1.1-.2.5-1.1-.6-1.3-.2-.9 1.8.5 2.3.3 2.5-1.4 1.6-1.8-1-1.8-.9-.8 1.1.7 1.3.8 2 .2 1.6-.6-.3-1.3-.2-1.7.4-.3.5-.1 1 .5 1s.8.5.5 1c-.4.6-1.1.7-1.7.4-.7-.4-.8-.2-.4.4.4.7.1 1.2-.6 1.3-1 0-1 .2 0 .6 1.8.7 1.5 1.9-1.2 4.8-1.4 1.5-2.2 3.3-2 4 .3.7 0 1.6-.7 2.1-.7.4-1 .3-.6-.2.3-.6.2-1.6-.3-2.4-.6-1-.8-.3-.7 2 .1 1.9-.2 3.5-.8 3.5-.5.1-2.1.7-3.3 1.4-1.3.7-2.6 1-2.9.8-.2-.3.5-.8 1.6-1.2 1.2-.3 2.1-1.1 2.1-1.7 0-.7-.5-.6-1.5.2-.8.6-2 .8-2.6.4-.8-.4-.9-.3-.5.4s.2 1.2-.4 1.2c-.6 0-.8.5-.4 1.1.4.8.1.8-1.2.1-2.1-1-4.2-.6-6.2 1.5-1.7 1.6-3.8 1.1-3.4-.7.2-1 0-1.1-1.1-.2-.8.7-1.8.8-2.2.4-.5-.4-.5-.1-.1.6s1.2 1 1.7.7c.5-.4.9-.2.9.3 0 .6-.7 1.3-1.6 1.6-.8.3-1.2.2-.9-.4.3-.6.1-1-.4-1-.6 0-1.1.7-1.1 1.6 0 1.4-.1 1.4-1.6 0-1.7-1.8-2.8-2.1-1.9-.7.3.5.1 1.2-.5 1.6-.5.3-1 0-1-.7 0-.9-.3-.9-1 .2-.8 1.3-1 1.3-1 .1s-.3-1.2-1.2-.3c-1.5 1.5-4.2 1.6-3.2 0 .4-.7.3-.8-.5-.4-.6.4-.8 1.2-.5 1.8.5.7 0 .9-1.3.6-1.7-.5-2-.2-1.5 1.6.4 2.1.4 2.1-1.2.1-1-1.1-1.5-1.5-1.2-.9.3.7-.1 1.5-1 1.8-.8.3-1.2.2-.9-.4.3-.6.1-1-.4-1-.6 0-1.1.5-1.1 1.1 0 .8-.4.8-1.4 0-1.1-.9-1.7-.8-2.8.3-1.1 1-1.9 1.1-3.4.3-1.7-1-1.8-.9-.4.8 1.4 1.7 1.3 1.8-1.8 1.3-1.8-.2-3.5-.1-3.8.4-.3.5-1 .6-1.5.3-.5-.4-.9-.1-.9.4 0 .6-.7 1.1-1.6 1.1-.9 0-1.2-.5-.8-1.2.4-.7.3-.8-.4-.4s-1.2 1.5-1.2 2.4c-.1 1.5-.3 1.4-1.6-.3-1.6-2-1.6-2-1 .2.6 1.9.4 2.1-1.9 1.7-2-.3-2.5-.1-1.9.8.6 1 .3.9-.9-.1-1.4-1.1-1.7-1.1-1.7 0 0 1.2-.2 1.2-.9.1-.6-1.1-1-1-1.5.3-.5 1.5-.9 1.5-2.3.4-1.5-1.2-1.6-1.2-1 .3.3 1 .2 1.8-.3 1.8-.6 0-1-.4-1-.9 0-1.1-2.6-.8-3.7.4-.4.4-.3.5.3.2.7-.4 1.8.1 2.5 1.1 1.3 1.5 1.2 1.6-.3.3-1-.7-1.8-1-1.8-.7 0 .4-.9.2-1.9-.4-1.4-.7-2.2-.7-2.7.2-.4.6-.3.8.4.4.6-.3 1.3-.2 1.6.3.7 1.1-1.3.9-3.1-.2-.9-.6-1.3-.2-1.3.9 0 1.6-.1 1.6-1.6-.2-1.2-1.5-1.5-1.5-1-.2.2.9-.2 1.9-1 2.2-.8.3-1.3.2-1-.3.3-.5-.1-1.2-1-1.5-1-.4-1.3-.2-.8.6.5.7 0 .9-1.3.6-1.7-.4-2-.2-1.6 1.6.4 1.7.3 1.8-.6.6-1-1.3-1.1-1.3-1.1 0 0 .9-.3 1.1-.8.5-.4-.6-1.7-1.1-2.9-1.1-2.1-.1-2.8.7-2.4 2.9.1.5-.3.6-.8.3-.5-.4-1.2-.2-1.5.3-.6.9-5 .6-6.8-.5-.4-.3-1.1.2-1.4 1-.3.9-1 1.6-1.6 1.6-.5 0-.7-.4-.4-.8.3-.5-.1-.9-.9-.9s-1.2.4-1 .8c.3.4-.2 1-1.1 1.3-.8.3-1.2.2-.9-.4.4-.6-.1-.7-1.1-.3-1.3.5-1.5.3-.9-.7.5-.9.4-1.1-.4-.6-.9.6-.9 1.1 0 2.2 1 1.2.9 1.3-.6.8-1.4-.6-1.6-.4-1 .6.5.9.4 1.1-.4.6-.6-.4-1.9-.2-2.8.6-1.2.9-1.5.9-.9 0 .4-.7.1-1.2-.9-1.2-.9 0-1.3.4-1 1 .3.5-.1 1-1 1s-1.3-.4-1-1c.3-.6-.1-.7-.9-.4-.9.3-1.3 1.1-.9 1.8.3.6-.4.2-1.6-.9l-2.2-1.9 1 2.6c.8 2.2.8 2.6-.4 2.1-.8-.3-1.3-.9-1-1.4.3-.4-.4-.6-1.7-.4-1.2.3-2.6 1.2-3.1 2-.7 1.3-1.1 1.4-2.5.3-1.4-1.1-1.5-1-.8.6.7 2 .6 2-1.4.1-1.8-1.6-2-1.7-1.4-.2.4 1.2.2 1.6-.8 1.2-.8-.3-2 .1-2.7.9-.7.9-2.4 1.3-4.2 1.1-2.1-.3-2.8-.1-2.2.8.4.7-.2.5-1.2-.3s-1.6-1-1.2-.4c.9 1.6-2.8 2.5-4.2 1.1-1.8-1.8-1.2.5.6 2.7 1.3 1.5.9 1.4-1.1-.4-1.6-1.4-2.6-1.9-2.1-1.1.6 1.1.4 1.3-.9.8-1.4-.6-1.7-.3-1.2 1 .6 1.4.5 1.5-.5.6-.9-.9-1.9-.9-4.5.2-3 1.2-3.2 1.2-2.8-.3.5-1.4.2-1.3-1 .2-1.5 1.8-2.1 1.5-1.7-.8.1-.5-.5-.4-1.3.4-.9.7-1.6 1.8-1.6 2.4 0 .8.2.8.8 0 .5-.9 1.1-.8 2 .2 1.1 1.3 1 1.4-1.2 1-1.6-.3-2.6 0-2.7.7 0 .9-.2.8-.6-.1-.2-.6-1-.9-1.5-.6-.7.4-.8.2-.4-.4.5-.8.1-1-1-.5-1.3.5-1.5.3-.9-.7.5-.9.4-1.1-.4-.6-.9.6-.9 1.1 0 2.2 1.4 1.7.5 1.8-2.4.2-2.1-1-2.1-1-.7.7 1.4 1.7 1.4 1.8-.7.6-2-1-2.3-.9-2.3.6s-.2 1.6-1 .3c-.9-1.3-1.4-.8-1.1 1.2 0 .4-.8.5-1.9.3-1.1-.2-2-.1-2 .4 0 .4-1.1.7-2.5.7s-2.5-.5-2.5-1.1c0-.5-.5-.3-1 .5-.8 1.2-1.2 1.3-1.9.2-.6-1-1-.8-1.4.9-.5 2-.8 2.1-2.3.8-1.6-1.2-1.7-1.2-1.1.4.4 1.1.3 1.6-.3 1.2-.6-.3-1-.1-1 .6s-.6.5-1.3-.6c-1.1-1.4-1.6-1.5-2.2-.5-.6.9-.4 1.1.5.5.9-.5 1.1-.4.6.4-.6.9-1.1.9-2.4-.1-1.2-1-1.4-1-.8-.1.4.7.3 1.3-.1 1.3-.5 0-1.5-.6-2.2-1.3-1.1-1-1.2-.9-.6.2s.4 1.3-.9.8-1.7-.3-1.3.6c.3.8-.5 1.4-2.2 1.5-1.4.1-2.8.7-3 1.3-.2.7-.7.7-1.3-.2-.7-1.1-1.1-1.1-1.5-.2-.2.7-.9 1.3-1.4 1.3-.6 0-.7-.6-.3-1.3.6-1 .4-1-.7 0-.7.7-1.7 1.3-2.2 1.3-.4 0-.5-.6-.1-1.3.5-.9.4-.9-.6 0-1.1 1-1.1 1.5.1 2.9 1.3 1.6 1.2 1.6-.8.4-1.2-.8-2-1.7-1.7-2.1.2-.4 0-1-.5-1.4-.6-.3-.8.3-.6 1.4.4 2.3-1.9 4.8-3 3.1-.3-.5-1.1-1-1.6-1-.6 0-.7.6-.3 1.2.5.9.2.9-.9-.1-1.3-1-1.7-1-1.7-.1s-.4.9-1.7-.1c-1.1-1-1.4-1-.9-.2.5.9.1 1.3-1.1 1.3-1.1 0-2.5-.6-3.2-1.3-1-1-1.2-.9-.9.3.2.8-.3 1.4-1 1.2-.8-.1-1.1.2-.7.8.5.8 1.1.8 2 0 1-.8 1.5-.8 2.1.2.4.7.3 1-.1.5-.5-.4-1.7.1-2.8 1-1.1 1-1.7 1.2-1.3.5.9-1.6-1.6-1.6-3.3 0-1 .9-1.2.9-.7.1.4-.7-.1-1.1-1.3-1-1.6.1-1.8.4-.8 1.6.9 1.2.9 1.3 0 .7-.7-.4-1.9-.4-2.5.1-1.5.9-2 1-4.9 1.2-1.2 0-1.7.5-1.3 1.2.3.6-.6.3-2.2-.7-2.2-1.4-2.6-1.5-1.7-.3 1 1.3 1 1.6-.2 1.6-.8 0-1.5-.5-1.5-1.1 0-.6-.4-.5-.9.3s-1.6 1.1-2.6.8c-.9-.4-1.4-.3-1.1.1.3.4-.4 1.4-1.5 2-1.9 1.2-1.9 1.1-.8-1 1.2-2.3 1.2-2.3-.9-.4-1.2 1-2.8 1.6-3.7 1.2-.9-.3-1.4-.2-1.1.3.3.5-.1 1.2-1 1.5-.9.4-1.3.2-.8-.5.4-.7.1-1-.7-.7-.8.3-1.3 1-1.2 1.6.2.8-.5.9-2.3.2-2.3-.9-6.4.1-6.4 1.6 0 .2 1 0 2.1-.7 1.7-.9 2.4-.8 3.8.7 1.5 1.7 1.5 1.7-.2.4-1.5-1.1-2-1.1-2.6-.1-.9 1.4-2 1.4-3.9-.1-1-.8-1.1-.6-.6.8.6 1.6.5 1.7-.7.6-1.6-1.4-3.3-1.6-2.4-.2.3.5.1 1-.4 1-.6 0-1.1-.6-1.1-1.3 0-.8-.4-.7-1 .3-.9 1.3-1.1 1.3-2 0-.6-1-1-1.1-1-.3 0 .7-.7 1-1.7.7-1.5-.5-1.5-.4-.3.4.8.6 1.9.8 2.5.4.5-.3.4.2-.4 1.1-.7.9-1.9 1.7-2.5 1.7-.6 0-.4-.5.4-1 1.3-.8 1.3-1-.2-1-.9 0-2.2.8-2.8 1.7-.9 1.4-1 1.4-.7.2.3-.9-.1-1.6-.9-1.6-.7 0-1.1.4-.8.8.2.4 0 1-.6 1.4-.5.3-1 0-1-.7 0-.9-.3-.9-1 .2-.5.8-1 1-1 .4s-.7-1.1-1.5-1.1c-1.1 0-1.2.4-.3 1.4.8 1.1.7 1.2-.6.7-1.2-.5-1.5-.2-1 1.2.5 1.5.4 1.6-.4.4-.6-.8-.9-1.7-.6-2.1.2-.4-.1-1.1-.7-1.5-.8-.4-.9-.3-.5.4s.1 1.2-.8 1.2c-.8 0-1.8 1-2.1 2.1-.6 1.6-.9 1.8-1.5.8-.5-.7-.6-1.7-.4-2.1.9-1.5-.3-.8-1.7.9-1.2 1.4-1.2 1.6 0 .8 1-.5 1.2-.4.7.4-.4.6-1.3.8-1.9.4-1.8-1.1-3.8-1.2-3.1-.2.3.5 1 .6 1.6.3.7-.4.8-.2.4.4-.4.8-1.5.8-3.1.2-1.4-.5-2.5-.6-2.5-.2 0 .4-.5 0-1-.8-.8-1.3-1-1.2-1 .2 0 1-.4 1.8-1 1.8-.5 0-1-.2-1-.4s-.3-1.1-.6-1.9c-.3-1 .3-2 1.6-2.7 1.8-1 2.1-1 1.4.2-.4.7.2.5 1.3-.5 1.6-1.4 2.2-1.5 2.7-.5.3.7.3.2 0-1.1-.4-1.6-.3-2.1.5-1.7.6.4 1.1.2 1.1-.3 0-.6.5-1.1 1.1-1.1.5 0 .7.5.3 1.2-.5.7-.3.8.5.4.7-.5 1-1.4.7-2.1-.7-2 .4-2.6 2.8-1.3 1.9 1 2 1 .7-.6-1.2-1.4-1.2-1.6.4-1 1.4.6 1.6.4 1-.7-.8-1.2-.6-1.2.8 0 1.5 1.2 1.7 1.2 1.1-.4-.6-1.5-.5-1.6 1.7-.5 2 1.1 2.2 1.1 1.3-.1-.9-1.1-.9-1.7.2-2.7 1.3-1.2 1.8-.8 1.5 1.1-.1.5.3.6.9.2.5-.3 1-1.3 1-2.2 0-1.3.2-1.4 1.7-.2 1.2 1 1.5 1.1.9.1-1.1-1.8 1.1-4.1 3.5-3.7 1.2.2 1.9-.2 1.9-1.1 0-.8.7-1.7 1.5-2 .8-.4 1.2-1.1.8-1.7-.4-.6-.1-.7.6-.2.9.5 1 1 .2 1.8-.6.6-1.1 1.5-1.1 2.1 0 .5 1.3-.9 2.9-3.2 2.3-3.1 3.5-3.9 5-3.5 1.3.3 2.1.1 2.1-.6s-.6-.9-1.2-.5c-.8.4-1 .3-.5-.2s1.4-.9 2-.9c.7-.1 1.1-.7.9-1.4-.1-.7.2-1 .8-.6.6.4.7 1.2.3 1.9-.4.7 0 .3 1-.8 1.4-1.5 2-1.7 2.6-.7.6 1 .9.9 1.4-.3.3-.8.1-1.7-.6-2-.7-.2-.2-.5 1.1-.5 1.3-.1 2.1-.5 1.7-1-.3-.5 0-1.3.6-1.7.7-.4.9-.3.5.4-.3.6-.2 1.3.4 1.7.5.3 1 0 1-.8s.8-2.1 1.8-2.8c1.5-1.3 1.6-1.2.3.3-.9 1.2-1 1.8-.2 1.8.6 0 1.4-.7 1.7-1.5.4-.8 1-1.2 1.5-.9.5.3.9-.2.9-1 0-2 1.7-2.9 2.6-1.5.5.8.3.9-.6.4-.9-.5-1.1-.4-.6.4.4.6 1.2.9 1.7.5.5-.3.7-1 .4-1.5-.4-.5-.1-1 .4-1 .6-.1 1.5-.2 2-.3.5 0 1.3-.5 1.8-1 .5-.6.2-.6-.7-.1-1.3.7-1.3.6-.2-.7.9-1.1.9-1.8.2-2.1-.6-.3-.6-.5.1-.3.7.1 1.3 1 1.5 2 .1 1 .6 2.1.9 2.4.4.4.6 0 .5-.8-.5-3.5-.1-4.3 1.5-3 1.3 1.1 1.4 1 1-.3-.4-.8-.1-1.8.6-2.3.8-.4 1-.3.5.4-.4.7-.3 1.2.3 1.2 1.8 0 2.2-1.9.5-2.8-1.1-.6-1.3-1.1-.5-1.6.6-.4 1.1-.2 1.1.3 0 .6.7 1.1 1.5 1.1s1.5-.6 1.5-1.3c0-.8.4-.7 1 .3.8 1.3 1 1.2 1-.3 0-1.1.4-1.5 1.2-1.1.8.5.9.2.5-1-.6-1.4-.4-1.5 1.6-.5 2 1.1 2.1 1.1.8-.5-1.2-1.4-1.2-1.6.4-1 1.3.5 1.6.4 1.1-.5-.4-.6-.4-1.1.1-1 2 .3 3.4-.2 2.8-1.1-.4-.6.1-.7 1.1-.3 1.1.4 1.5.3 1-.5-.3-.6-.2-1.3.3-1.6.5-.4 1.3-.1 1.7.5.5.8.3.9-.6.4-.9-.5-1.1-.4-.6.4.4.6 1.2.9 1.7.5.5-.3.7-1 .4-1.5-.4-.5-.1-.9.5-.9s.9-.4.5-.9c-.3-.5 0-1.3.6-1.7.8-.4.9-.3.5.4-.9 1.5 2.7 1.1 4.6-.6.8-.6 1.7-1.1 1.9-.9.2.1-.3-.4-1.1-1.2-1.3-1.2-1.3-1.3.3-.8 1 .4 1.7.1 1.7-.6s.3-.8.8-.2c.4.5 1.3 1.1 2.1 1.3 1.2.3 1.2 0 .2-1.2-.9-1.1-.9-1.6.1-2.2 1.9-1.2 3.9-1.4 3.2-.3-.3.5-1 .6-1.6.3-.7-.5-.8-.2-.3.6.6 1 1.2.8 2.6-.8 1.8-2.3 3.5-3 2.3-1-.4.7-.3.8.5.4.9-.6.9-1.1 0-2.2-1.3-1.6.2-1.9 1.8-.3.8.8 1.3.7 1.8-.2.5-.8.4-1-.3-.5-1.9 1.1-1.4-.9.6-2.6 2.6-2.3 4.6-3.3 3.8-2-.4.7-.3 1.2.3 1.2.5 0 1.2-.6 1.4-1.3.4-.9.8-.9 1.5.2.8 1.1 1.1.9 1.8-1 .4-1.3.7-2.7.6-3.1-.1-.5.1-.7.6-.7 1.8.3 3.3-.2 2.8-.9-.3-.5.1-.9.9-.9 1.1 0 1.2.4.4 1.4-.7.8-.8 1.3-.1 1.3 1.2 0 2.4-2.8 1.7-4-.3-.5 0-1.2.6-1.6.7-.4.9-.3.5.4-.3.6-.2 1.3.4 1.7.5.3 1 .2 1-.4 0-.6.7-.8 1.5-.5 1 .4 1.5 0 1.5-1.4 0-1.2.5-2.4 1.2-2.8.7-.4.8-.3.4.4-1 1.7.3 1.5 2-.3 1.8-1.8 3.8-2 2.8-.3-.4.6-.3.8.4.4.6-.3.9-1.9.7-3.4-.2-1.5-.2-2.1.1-1.4.3.6 1 1 1.5.7.5-.4.6.2.3 1.2-.5 1.7-.5 1.7.6 0 .6-.9 1.8-1.7 2.5-1.7.8 0 1.5-.5 1.5-1.1 0-.5-.5-.7-1.2-.3-.6.4-.8.3-.4-.4.3-.6 1.5-.9 2.6-.7 1.1.2 1.7-.1 1.4-.8-.2-.7.6-1.8 1.8-2.6 2.1-1.3 2.2-1.3.9.3-.8.9-1.1 1.9-.7 2.3.3.3.6.1.6-.5 0-.7.7-1.2 1.5-1.2 1 0 1.5-.7 1.3-1.8-.2-1.3.3-1.6 2.1-1.4 1.8.2 2.2-.1 1.7-1.5-.4-1-.4-1.4 0-1 .4.4 1.8 0 3.2-.9 1.8-1.2 2.3-1.2 1.7-.3-.3.8 0 .6.8-.3 1.7-2.2 3.2-1.1 1.4 1.1-1.1 1.4-1 1.4.5.2 1.4-1 1.5-1.7.6-3.5-.6-1.1-.7-1.8-.3-1.4.5.4 1.5.2 2.3-.5 1.3-.9 1.4-.9.8 0-.4.7-.3 1.3.2 1.3s1.2-.9 1.5-2c.3-1.1 1.1-2 1.9-2 1 0 .9.3-.2 1.1-1.3.9-1.3 1 0 .6.9-.2 1.4-1.4 1.2-2.8-.1-1.3.1-1.9.5-1.3.5.6 1.6 1 2.6.8.9-.1 1.7.3 1.7.9 0 .5.3.8.6.5.3-.4 0-1.7-.6-3-1-1.8-1-2.1 0-1.1 1 .9 1.7.7 3.2-1.2 1.5-2 2.3-2.3 3.8-1.5 1.5.8 1.7.6 1.3-1.3-.4-1.8-.3-1.9.6-.7 1 1.3 1.1 1.3 1.1 0s.1-1.3 1 0c.8 1.3 1 1.2 1.1-.5.1-1.1.1-2.4 0-2.8-.1-.5.3-.6.8-.3s1.4-.1 2.1-.9c1-1.2 1.6-1.3 2.8-.3 1.1.9 1.4.9.9.1-.4-.6-.3-1.4.3-1.8.5-.3 1-.1 1 .4 0 .6.4 1.1.9 1.1s.7-1 .5-2.3c-.2-1.2-.1-1.6.2-.8.5 1.1 1 .8 2.1-1l1.4-2.4-.7 2.4c-.4 1.6-.3 2.1.5 1.7.6-.4 1.1-1.3 1.1-2 0-.8.7-1.9 1.5-2.6 1.2-1 1.5-1 1.5.1 0 1.2.2 1.2.9 0 .5-.7 1.3-1.1 1.9-.7 1.2.7 1-1.2-.3-3.4-.8-1.3-.7-1.3.8-.1 1.6 1.2 2.1 1.1 4.7-1.4 2.8-2.7 6.7-4.4 5.4-2.4-.3.5 0 .9.5.9.6 0 1.1-.9 1.1-2.1 0-1.1.4-1.8.9-1.5 1.3.8 4.2-.4 3.5-1.5-.3-.5.2-1 1-1 3.7-.3 4.1-.5 4-2.1-.1-1.4.2-1.5 1.7-.8 1.2.7 2 .6 2.5-.2.5-.7.3-.8-.6-.3-.8.5-1.1.3-.8-.6.3-.8 1.4-1.3 2.6-1.3 1.3.1 1.9-.3 1.5-1.2-.3-.8 0-1.4.6-1.4s1.1.6 1.1 1.2c.1.8.6.6 1.4-.4.7-1 1.7-1.4 2.1-1 .5.4.5.1.1-.6s-.1-1.2.8-1.2c.8 0 2.1-1 2.7-2.2 1.1-2 1.3-2 2.4-.5 1.1 1.6 1.3 1.6 1.9.2.3-.9.2-1.4-.3-1.1-.5.3-1.1 0-1.4-.7-.3-.8.5-1.3 2.4-1.3 1.8-.1 2.6.2 2.2.9-.3.6-.1.7.5.3.6-.3.9-1.6.7-2.7-.3-1.5-.1-1.8.8-1.1s2.5.2 5.5-1.9c2.4-1.6 4.7-2.7 5.3-2.4.5.4.9.1.9-.4 0-.6-.4-1.1-1-1.1-.5 0-1-.4-1-.9s1.1-.8 2.5-.7c1.3.2 3.3-.5 4.4-1.5 1-1 2.2-1.5 2.7-1.1.4.4.4.1-.1-.7-.6-1.1-.3-1.3 1.6-.8 2.3.6 2.4.6.4-1-2-1.5-1.9-1.5.4-.8 1.5.5 2.1.3 1.7-.3-.3-.5.1-1.3 1-1.6.8-.3 1.2-1.1.8-1.7-.4-.8-.3-.9.5-.5.9.6.9 1.2-.1 2.4-1 1.4-1 1.5.1.5.7-.6 1.9-1 2.5-.9.6.2.8.1.4-.1-1.4-.8-.8-2.5.6-2 .8.3 1.6-.2 1.9-1.4.4-1.3 1-1.7 2.3-1.2 1.4.5 1.6.3 1.1-1-.6-1.5-.4-1.6 1.4-.6 1.6.8 2 .8 1.4-.1-.4-.7.1-1.3 1.4-1.7 1.2-.3 2.1-.9 2.1-1.4 0-.5.5-.9 1.1-.9.5 0 .8.4.5.8-.3.5.1.9.8.9 1 0 1.2-.8.6-2.9-1-3.3-.3-3.7 1-.6.6 1.5.9 1.7.9.7.1-1.8 4.1-5.8 4.1-4.1 0 .7-.4 1.2-1 1.2-.5 0-1 .5-1 1 0 .6.8.5 2-.2 1.3-.8 1.8-2 1.5-3.3-.3-1.1-.2-1.4.1-.8.8 1.7 2.5 1.6 4.9-.4 1.8-1.4 1.9-1.5.1-.9-1.6.5-1.7.4-.7-.8.7-.8 1.9-1.2 2.7-.9.8.3 1.4-.1 1.4-.8 0-1.1.3-1.1 1 .1.8 1.3 1 1.2 1-.4s.2-1.7 1.7-.5c1.5 1.3 1.5 1.2.3-1.1-.7-1.4-.9-2.2-.5-1.8.5.4 1.5.2 2.3-.5 1.1-.8 1.4-.8.9 0-.8 1.3 1.8 1.2 3-.2.4-.4.2-.5-.4-.1-.7.4-1.3.3-1.3-.3 0-1.3 3.7-2.4 5.2-1.5 1 .6 1.1.5.1-.8-1.7-2-.5-3 2-1.7 1.1.6 1.7.7 1.3.1-.3-.5.3-2 1.4-3.2 1.1-1.3 2-1.8 2-1.2 0 .6-.4 1.4-1 1.7-.5.3-1 1-1 1.6 0 .5.9 0 2-1.1 1.2-1.2 1.9-2.4 1.6-2.9-.3-.4 0-.8.7-.9.7-.1 2.3-.3 3.7-.4 1.6-.2 2.5-.9 2.5-2 0-1 .5-1.8 1-1.9.6 0 1.7-.6 2.5-1.2 1.3-1 1.3-1 .1.5-.7 1-1.8 1.5-2.4 1.1-.6-.4-.7-.1-.2.7.6.9 1.7.3 4-2.3 1.8-2 3.5-4.2 3.8-4.9.4-.8.6-.7.6.4.1 2.5 2.2 2.3 2.8-.2.5-1.9.6-2 1.9-.3 1.2 1.6 1.3 1.5.4-1.1-1-2.6-.9-2.8.5-1.6 1.4 1.2 1.8 1.1 2.5 0 .5-.8.6-1.8.3-2.4-.3-.5-.1-.6.5-.2.6.3 1.3.2 1.7-.4.4-.6 1-.8 1.5-.5.4.3 1.3-.2 2-1s1.9-1.5 2.6-1.5c.8 0 1.4-.5 1.4-1.2 0-.6.3-.8.7-.4.4.3 1.3-.4 2.1-1.6.7-1.3 1.1-1.5.8-.6-.3 1 0 2 .6 2.4.6.4.8.3.4-.4-.3-.6-.2-1.3.4-1.7.6-.4.7-1.2.3-1.8-.4-.7.2-.5 1.2.3 1.7 1.4 1.8 1.3 1.2-.2-.6-1.7 1.2-2.2 2.3-.6.3.4 1.1-.1 1.8-1.2 1-1.7.9-1.8-.6-1.4-1.4.5-1.4.4-.2-.4 1-.8 1.8-.8 2.7 0 1 .8 1.2.7.7-.6-.5-1.2-.2-1.5 1-1s1.5.2.9-1.2c-.4-1.1-.3-1.5.5-1 .6.3 1.6-.2 2.2-1.1 1-1.6 1.1-1.6.6-.1-.3 1 0 2 .6 2.4.7.4.8.3.4-.4s-.2-1.2.4-1.2c.7 0 1-.6.7-1.3-.4-1 .2-1.3 2.1-1 1.8.3 2.3.2 1.4-.5-1-.7-1-1.1.3-2.2.8-.7 1.5-.9 1.5-.5s.8.1 1.8-.6c1.5-1.3 1.6-1.2.3.3-.7 1-1.8 1.5-2.4 1.1-.6-.3-.7-.1-.3.6.6.8 1.2.9 2 .2.7-.6 1.6-.8 1.9-.5.3.3.4-.9.2-2.7-.3-2.8-.2-3.1.6-1.6 1 1.8 1.1 1.8 2.6 0 .8-1 1.1-1.2.7-.4-.5 1-.3 1.2.5.7.7-.5 1-1.4.7-2.1-.3-.9.2-1.1 1.5-.8 1.3.4 1.9.1 1.7-.7-.2-.7.7-1.4 2-1.6 1.6-.3 2.1 0 1.6.8-.5 1-.3 1 .7 0s1.1-1.5.2-2c-.8-.5-.2-1.3 1.7-2.4 2.1-1.2 3.2-1.3 3.6-.6.5.7.2.8-.6.3-.9-.5-1.1-.4-.6.4.9 1.4 2.6.5 2.6-1.4 0-1.7 3.1-3.5 6-3.5 1.5 0 2-.5 1.7-1.4-.4-1-.1-1.3.9-.9.7.3 1.4 0 1.4-.7 0-.6.5-.8 1.2-.4.9.6.9.9-.1 1.2zM623 98c0 .5-.5 1-1.1 1-.5 0-.7-.5-.4-1 .3-.6.8-1 1.1-1 .2 0 .4.4.4 1zm-174.4 41.2c.4.7.3.8-.4.4s-1.2-.2-1.2.5-.3 1-.6.6c-.6-.5.3-2.7 1.1-2.7.2 0 .7.5 1.1 1.2zm116.1 3.4c-.3.3-1.2.4-1.9.1-.8-.3-.5-.6.6-.6 1.1-.1 1.7.2 1.3.5zm25 29c-.3.3-1.2.4-1.9.1-.8-.3-.5-.6.6-.6 1.1-.1 1.7.2 1.3.5zm-167.2 23.3c.3.5.2 1.2-.3 1.5-.5.3-.9-.1-.9-.9 0-1.7.3-1.9 1.2-.6zm-7.6 5.4c-.2.1-2 1.2-3.9 2.5l-3.5 2.3 3.4-3c1.9-1.7 3.7-2.8 4-2.6.2.3.2.6 0 .8zm158.2 5c-.6.8-.9 1.7-.6 2.1.3.3-.1.1-.7-.4-1-.9-1-1.3.2-2 2.1-1.3 2.4-1.2 1.1.3zM525 226c0 .5-.2 1-.4 1-.3 0-.8-.5-1.1-1-.3-.6-.1-1 .4-1 .6 0 1.1.4 1.1 1zm-224.3 4.5c0 .8-.4 1.2-.9.9-.4-.3-.8 0-.8.7s-.3.9-.6.6c-.4-.4-.1-1.3.6-2.2 1.5-1.9 1.7-1.9 1.7 0zm-31 21.1c-.3.3-1.2.4-1.9.1-.8-.3-.5-.6.6-.6 1.1-.1 1.7.2 1.3.5zm243.3-.2c0 .2-.8 1-1.7 1.7-1.6 1.3-1.7 1.2-.4-.4 1.3-1.6 2.1-2.1 2.1-1.3zm-10.3 23.1c0 .8-.4 1.2-.9.9-.5-.3-.6-1-.3-1.5.9-1.3 1.2-1.1 1.2.6zm-289 9.9c0 .8-.6 1.2-1.5.9-1.1-.5-1.1-.7 0-1.4.7-.5 1.3-.9 1.4-.9 0 0 .1.6.1 1.4zm-10.2 5.6c-.3.5-.1 1 .6 1s1 .3.6.6c-.9.9-2.8-.6-2.2-1.7.4-.5.8-.9 1.1-.9.3 0 .2.4-.1 1zm66 1c.3.6-.1.7-.9.4-1.8-.7-2.1-1.4-.7-1.4.6 0 1.3.4 1.6 1zm195 0c.3.5.1 1-.4 1-.6 0-1.1-.5-1.1-1 0-.6.2-1 .4-1 .3 0 .8.4 1.1 1zm-14.3 3.2c-.7.7-1.2.8-1.2.2 0-.6.3-1.4.7-1.7.3-.4.9-.5 1.2-.2.2.3-.1 1.1-.7 1.7zm-10 3c-.7.7-1.2.8-1.2.2 0-.6.3-1.4.7-1.7.3-.4.9-.5 1.2-.2.2.3-.1 1.1-.7 1.7zm-258.6 8c.4.7.4 1-.1.6-1.1-1.1-3.6 1.2-2.8 2.5.4.6.1.7-.6.3-.9-.6-.8-1.3.5-2.7 2-2.2 2.1-2.3 3-.7zm62.9.7c.3.5.2 1.2-.3 1.5-.5.3-.9-.1-.9-.9 0-1.7.3-1.9 1.2-.6zM401 308c0 .5-.2 1-.4 1-.3 0-.8-.5-1.1-1-.3-.6-.1-1 .4-1 .6 0 1.1.4 1.1 1zm122.7 1.2c-.3.8-.6.5-.6-.6-.1-1.1.2-1.7.5-1.3.3.3.4 1.2.1 1.9zm-360.5 7c-.7.7-1.2.8-1.2.2 0-1.4 1.2-2.6 1.9-1.9.2.3-.1 1.1-.7 1.7zm-2.2 2.2c0 .2-.6.9-1.4 1.5-1.1.9-1.6.9-2.2 0-.4-.7-.3-.9.4-.5.6.3 1.3.2 1.7-.4.6-1 1.5-1.4 1.5-.6zm193 .6c0 .5-.5 1-1.1 1-.5 0-.7-.5-.4-1 .3-.6.8-1 1.1-1 .2 0 .4.4.4 1zm121.9 6c.4 0 1.3-.6 2.1-1.3.8-.6.6-.2-.5 1.1-1.4 1.7-2.1 1.9-2.7 1-.4-.7-.8-.8-.8-.3 0 .6.5 1.6 1 2.1.7.7.4 1.8-1 3.4-1.4 1.6-1.7 2.7-1 3.5 1.3 1.6 0 2.8-1.6 1.4-.8-.7-1.4-.6-2 .2-.4.8-.3.9.4.5 1.3-.8 1.5.4.6 2.8-.3.9-1.1 1.3-1.8 1-.6-.3-.2.2.8 1 1.8 1.4 1.8 1.6.3 1.7-2.9.2-3.5.4-4.2 1-.3.4-.1 1 .6 1.5.8.5 1 .3.4-.6-.5-.8-.4-1.1.3-.6.6.4.9 1.3.6 2.1-.4.8-1 1.2-1.5.9-.5-.3-.9-.2-1 .3-.3 3.3-1.1 5.9-2 6.1-.6.3-.6.9.2 1.8 1 1.2.8 1.3-.7.7-1.7-.6-1.8-.5-.4 1.2.9 1.1 1 1.6.3 1.1-.7-.4-1.3-.2-1.3.3 0 .6-.3 1-.7 1-1.8-.3-2.4.2-1.6 1.3 1.1 1.8 1.3 3.9.3 3.3-1.3-.8-1.9 2.2-.7 3.4.8.8.8 1.1 0 1.1-.7 0-1.5-.5-1.8-1-.9-1.5-2.5-.2-1.9 1.5.4.8 1.1 1.2 1.7.8.6-.3.7-.1.3.6-.4.6-1.3 1-2 .9-.6-.2-1.1.1-1.1.7 0 .5.5.9 1 .7.6-.1-.1.7-1.5 1.9l-2.5 2.2 2.5-.7c2.1-.6 2.2-.5.7.4-1 .6-1.4 1.6-1 2.3.4.7-.1.6-1-.2-1-.8-2-1.1-2.4-.7-.3.3-.1.6.7.6 1 0 1 .4-.1 1.7-.8.9-.9 1.4-.2 1 .7-.5 1-.1.8 1-.1 1-1 1.7-1.9 1.7-1.6-.2-1.6-.1-.1 1.6 1.5 1.6 1.4 1.7-1.2 1.3-2.7-.5-2.8-.5-.8 1.2 1.1.9 1.4 1.3.6.9-1.1-.5-1.3-.3-.7 1.1.5 1.5.4 1.6-.8.6-1.3-1.1-1.4-.8-.6 2.1 1.2 4.1 1.2 4.8-.1 2.6-.8-1.4-1.3-1.5-2.3-.6-1.1 1.1-1 1.5.3 2.6.9.7 1.2 1.2.6 1.1-2.2-.3-2.9.2-1.5 1.1 1.3.8 1.3 1-.2 1-1.1 0-1.5.5-1.2 1.5.4.9 0 1.5-1 1.5-.9 0-1.7.4-1.7 1-.1.5-.2 1.4-.3 1.9 0 .5-.4 1.3-.8 1.7-.4.4-.2 1.4.5 2.2 1 1.3.9 1.4-.2.7-1.1-.6-1.3-.4-.8.7.3 1 0 1.5-1.1 1.4-1.2-.1-1.6.7-1.5 3.1 0 2-.4 3-1 2.6-.7-.4-.8 0-.3 1.2.5 1.5.4 1.6-.9.5-.8-.7-1.2-1.7-.8-2.3.3-.6.1-.7-.6-.3-.6.4-.8 1.3-.4 1.9.4.7.8 2.3.9 3.6.1 2.3.1 2.3-1.4.5-1.4-1.8-1.4-1.4.4 3.1.7 1.8.6 1.9-1.2.5-1-.8-1.6-1-1.2-.6.4.5 0 1.5-1 2.3-1.5 1.3-1.5 1.3.7.7 2.1-.5 2.2-.4 1 .9-.8.8-1.7 1.3-2.1 1-.5-.2-.8.1-.8.6 0 .6.5 1.1 1.1 1.1.8 0 .8.5-.1 1.5-.7.8-1.8 1.5-2.4 1.5-.6 0-.4-.5.4-1.1 1-.7 1.1-.9.2-.7-.8.2-1.3.7-1.2 1.2.1.5-.4 1.3-1.2 1.8-.9.7-.7.8.7.4 2-.6 2-.6.1.9-1.5 1.1-1.6 1.5-.5 1.6 1 0 1.1.2.1.6-.9.4-1 .8-.2 1.8s.8 1.5-.1 2.1c-.8.4-.9.3-.5-.4s.2-1.2-.5-1.2c-.6 0-.9.8-.6 1.9.3 1.5 0 1.8-1.7 1.4-1.2-.3-1.7-.1-1.1.4 1.8 1.5 1.7 3.6-.2 2.9-.9-.4-1.4-.4-1 0 .4.4.1 1.4-.6 2.3-1 1.4-1 1.4.4.4 1.3-1 1.6-1 1.6.2 0 .7-.3 1.4-.6 1.3-2-.2-3.1.3-2.6 1.2.4.6.1 1.7-.5 2.5-1 1.2-1 1.8 0 3 1.1 1.3 1 1.4-.5.9-1.2-.5-1.6-.4-1.1.4.3.6.1 1.4-.5 1.8-.8.4-.9.3-.5-.4s.3-1.2-.2-1.2c-.6 0-1.2.7-1.6 1.5-.3.8-.1 1.5.4 1.5 1.2 0 .3 4.2-1.1 5.1-.7.4-1.7.6-2.3.5-.6-.2-.8-.1-.3.1 1.5.9.7 3.2-1 2.7-1.6-.5-1.6-.5-.1.5 1.3.9 1.4 1.5.5 3.5-.7 1.3-1.5 2.2-1.9 2-.7-.5-1.2 1.9-.9 4 .1.5-.4.6-1.2.3-.7-.3-1.4.1-1.4.9 0 .7.4 1.1.9.8.4-.3.5.2.2 1.1-.5 1.1-1.4 1.5-2.7 1.1-1.5-.4-1.7-.2-.9.6.9.9.8 1.5-.1 2.7-.9 1.2-.9 1.3 0 .7.9-.5 1.1-.2.7.8-.3.9-1.1 1.3-1.8.9-.6-.4-.4.2.4 1.2s1 1.6.4 1.2c-.6-.3-2 .1-3 .9-1.7 1.4-1.7 1.5-.1 1 1.5-.5 1.6-.3.7 1.4-.6 1.1-.8 2.5-.5 3 .4.6-.1.7-1.1.3-1.2-.4-1.5-.3-1 .5.4.7.3 1.2-.3 1.2-.5 0-1.1-.6-1.4-1.3-.3-.6-.3.5-.2 2.6.4 3.7-1.7 7.3-3.6 6.2-.5-.4-.5.4 0 1.9 1 2.5-.7 5.4-2.4 3.8-.4-.4-.2.3.4 1.6 1 1.9.9 2.4-1.1 3.2-2.1 1-2.1 1 .5.5 1.6-.3 2.6-.2 2.3.3-.3.5.1.9.9.9s1.1-.5.8-1.1c-.3-.6 0-.5.8.1.7.7 1.7 1.3 2.2 1.3.4 0 .5-.6.1-1.3-.5-.8-.2-.8.9.2 1.4 1.1 1.7 1.1 1.7 0s.2-1.1 1 .1c.5.8 1 1.1 1 .6 0-.5.7-.3 1.5.4 1.3 1.1 1.4 1 .9-.6-.7-1.8-.7-1.8 1.5 0 1.9 1.8 2.1 1.8 1.5.2-.6-1.6-.4-1.6 3.1-.2 2.6 1.1 3.4 1.2 2.7.3-.8-1-.6-1.3.9-1.3 1.3 0 1.8.5 1.4 1.5-.5 1.2-.3 1.2 1.1 0 1.9-1.5 4.7-2.1 3.8-.8-.7 1.2.3 1.1 2.6-.1 1.3-.7 2.1-.7 2.5 0 .5.8 1.1.7 2.1-.1 1.1-.9 1.4-.8 1.4.5 0 1.6.1 1.6 1.6.1 1.1-1.1 2-1.3 2.8-.6.9.7 1.6.7 2.4-.1.9-.9 1.2-.8 1.2.7 0 1.8 0 1.8 1.6-.1 1.5-1.9 1.6-1.9.9 0-.6 1.9-.5 1.9 1.4.2 1.2-1.1 2.1-1.4 2.6-.7.3.6 1.1 1.1 1.6 1.1.6 0 .7-.6.3-1.3-.5-.8-.2-.8.9.2 1.4 1.1 1.7 1.1 1.7 0s.2-1.1 1 .1c.5.8 1 1.1 1 .6 0-.5.7-.3 1.5.4 1.3 1.1 1.4 1 .9-.6-.7-1.8-.7-1.8 1.5 0 1.9 1.8 2.1 1.8 1.5.2-.6-1.6-.4-1.6 3.1-.2 2.6 1.1 3.4 1.2 2.7.3-.8-1-.6-1.3.9-1.3 1.3 0 1.8.5 1.4 1.5-.5 1.2-.3 1.2 1.1 0 1.9-1.5 4.7-2.1 3.8-.8-.7 1.2.3 1.1 2.6-.1 1.3-.7 2.1-.7 2.5 0 .5.8 1.1.7 2.1-.1 1.1-.9 1.4-.8 1.4.5 0 1.6.1 1.6 1.6.1 1.2-1.1 2-1.3 2.9-.5.9.8 1.5.8 2 0 .4-.7 1.2-.7 2.5 0 2.5 1.3 3.3 1.3 2.4-.3-.5-.8-.2-.8.9.2.9.7 1.7 1.9 1.7 2.5 0 .6-.5.4-1-.4-.8-1.3-1-1.3-1 .2 0 1.2-.5 1.5-1.7 1.1-1.1-.4-1.4-.3-.9.5.4.7.3 1.2-.3 1.2s-.8.8-.5 1.7c.5 1.5.4 1.6-.5.3s-1.2-1.3-2-.1c-.5.8-1.4 1-2.2.6-.9-.6-1.1-.3-.6.9.5 1.2.3 1.5-.6.9-1.8-1.1-3.8-1.3-3.1-.2.3.5 1 .7 1.5.4.5-.4.9-.1.9.4 0 .6-.9 1.1-2.1 1.1-1.3 0-1.8.4-1.3 1.2.5.9.2.9-.9-.1-1.5-1.2-1.7-1.1-1.7.3 0 .9-.8 1.6-2.1 1.6-1.1 0-1.8.4-1.5.9.3.5-.1 1.4-.8 2-1 .8-1.6.9-2.1.1-.9-1.4-2.5-.2-1.9 1.4.3.8 0 1.7-.7 2.2-.8.4-1 .3-.5-.4 1.1-1.8-.5-1.4-1.9.5-.9 1.3-1.4 1.3-2 .3-.6-.9-.4-1.1.5-.5.9.5 1.1.4.6-.4-1.1-1.7-2.5-.4-2.1 1.9.4 2.3-.5 2.6-2.4.7-1.1-.9-1.2-.9-.7 0 .4.7.2 2.1-.4 3-1.1 1.7-1.1 1.7-.6 0 .3-.9.1-1.7-.4-1.7-.6 0-1 .6-1 1.3 0 1.4-5.8 6.2-6.6 5.4-.3-.2.7-1.2 2.1-2.1 1.4-.9 2.5-2.2 2.5-2.9 0-.6-.5-.4-1.1.6-.6.9-1.4 1.5-1.9 1.2-.4-.3-1.1.2-1.4 1.1-.3.8-1.1 1.2-1.7.8-.7-.4-.6.2.2 1.7 1.2 2.3 1.1 2.3-.6.9-1.7-1.3-1.8-1.3-1.3.1.5 1.3.2 1.6-1.3 1.2-1-.3-1.9-1-1.9-1.6 0-.6-.3-.7-.6-.4-.4.4-.1 1.3.5 2.1 1 1.2.8 1.7-1.1 2.7-1.3.7-3.3 1.3-4.5 1.3-1.2.1-2.5.5-3 1s-.3.6.5.2c.7-.4 1.2-.2 1.2.7 0 1-.8 1.3-2.5.9-2.3-.4-3 .4-2.6 3 0 .4-.7.4-1.6.1-1.2-.5-1.5-.2-1 1 .4 1.1.2 1.4-.8 1-.8-.3-1.2-1-.8-1.6.3-.6.1-.7-.6-.3-.6.4-.8 1.2-.5 1.8.5.7.1.9-.9.5-.9-.3-2.1.1-2.9 1.1-1.2 1.5-1.1 1.6.4.4 1.3-1.1 1.8-1.1 2.4 0 .4.7.4 1-.1.6-.4-.4-1.4-.3-2.2.3-1 .9-1.7.8-2.9-.1-1.2-1.1-1.5-1.1-1.2.1.2.8.8 1.7 1.3 2.1.6.4 0 .8-1.1.8-1.2 0-2.5.7-2.8 1.5-.4 1.2-1 1.3-2.5.6-1.7-.9-1.9-.8-1.7 1.2.2 1.6-.2 2.3-1.5 2.3-1.5 0-1.6-.3-.6-1.6s1-1.3-.4-.3c-.9.7-1.9.9-2.4.5-.4-.4-.2.3.4 1.5.7 1.3.8 2.3.2 2.3-.5 0-1.2-.6-1.4-1.3-.4-.7-.6-.6-.6.4-.1 2-2.2 3-5 2.4-1.1-.2-2-.1-2 .3.1.4.1 1.6 0 2.7-.1 1.7-.3 1.8-1.1.5-.9-1.5-1.1-1.3-1.4 1.2-.1.7-1 1.2-2 1-1-.2-1.5.1-1.2.7.4.5.1 1.3-.5 1.7-.8.5-.9.3-.4-.6.5-.8.3-1.1-.6-.8-.8.3-1.3 1.2-1.1 1.9.2.8-.5.6-2-.6-2.2-1.9-2.2-1.9-.8-.1 1.4 1.8 1.3 1.9-.4 1.3-1.5-.6-1.7-.5-.7.7 1.5 1.8-1.1 3-2.9 1.3-1-.9-1.2-.9-.8.3.3.9 0 2.4-.8 3.5-.9 1.1-1.4 1.4-1.4.6 0-1.1-.3-1.1-1.6 0-1.2 1-1.7 1-2.3 0-.6-1-1-.9-1.4.3-.3.8-.1 1.7.6 2 .7.2.4.5-.5.5-1 .1-1.8.7-1.9 1.3 0 1-.2 1-.6 0-.2-.6-.9-1.2-1.5-1.2s-.8.6-.5 1.4c.3.7-.3 2-1.4 2.9-2.1 1.8-2.2 1.7-1.3-.7.3-.9 1.1-1.3 1.7-.9.6.4.7.1.2-.7-.6-1-1.4-.7-3.1 1.5-1.5 1.8-2.6 2.5-3.5 1.9-1.1-.6-1.1-.5 0 .9 1.2 1.5 1.2 1.7-.4 1.1-1.4-.6-1.6-.4-1 .7.8 1.2.6 1.2-.8 0-1.6-1.2-1.7-1.2-1 .5.6 1.7.5 1.8-1.2.4s-1.7-1.3-1 .9c.4 1.4.3 2.1-.3 1.7-.5-.3-1.7.3-2.6 1.3-1 1.1-2.9 1.8-4.6 1.7-1.8-.1-2.6.2-2.3 1 .2.7-.1 1.5-.8 2-.8.4-1 .3-.5-.4.5-.8.1-1-.9-.6-.9.4-1.4 1.3-1 2.2.5 1.3.3 1.3-1.2.1-1.1-.9-1.4-1-.9-.1.5.8.1 1.2-1.1 1.2-1.5 0-1.6.2-.3 1 .8.5 1 1 .5 1-.6 0-1.7-.6-2.4-1.3-1.1-1-1.3-.9-.8.5.4 1.2.1 1.8-.8 1.8-1.8 0-2 1.7-.2 2.3.6.2-.1.4-1.8.3-1.6-.1-3.6-.5-4.4-1-1-.7-1.2-.6-.6.4s.4 1.2-1 .6c-1.4-.5-1.6-.4-.7.7.9 1 .8 1.4-.3 1.4-.7 0-1.4-.3-1.3-.6.2-2.1-.5-3-2.8-3.5-2.2-.6-2.4-.9-1.3-2.2.7-.8.8-1.4.3-1.3-.5.1-2 .1-3.4 0-2.1-.1-2.2-.3-1-1.2 1.2-.9 1-1-.8-.6-1.7.4-2.1.2-1.3-.7.7-.8.5-1.2-1-1.3-1.2-.1-1.7.3-1.3.9.4.6.3.8-.4.5-.5-.4-.8-1.5-.5-2.6.3-1.1-.2-2.1-1.3-2.5-1.4-.5-1.5-.4-.4.9s1 1.4-.4.9c-1.5-.6-2-1.7-1.7-3.7 0-.4-.9-.7-2.1-.7-1.9 0-2-.2-.8-1.1 1.3-.9 1.2-1-.2-.5-2.4.7-4.8-.3-4.8-2 0-.8-.5-1.4-1.1-1.4-.5 0-.7.5-.3 1.2.4.7.3.8-.5.4-.6-.4-.8-1.2-.5-1.8.5-.7.2-.9-.8-.5-2 .7-3.8-1.1-3.1-3.1.4-.9.2-1.3-.4-.9-1.2.8-4.6-2-3.9-3.2.3-.4-.7-.8-2.2-.9-2.7-.2-7.9-4.9-7.4-6.6.2-.5-.3-.4-1 .1-1 .8-1.8.8-3.2-.3-1.1-.8-1.4-1.4-.7-1.4s1-.4.6-1c-.3-.5-1.2-.7-2-.3-1.1.4-1.4 0-.9-1.3.6-1.5.4-1.7-.6-.7-1.8 1.6-4-.1-4-3.1 0-1.1-.4-1.7-.8-1.1-.4.5-1.3 1.1-2.1 1.3-1.2.3-1.2 0-.2-1.2s.8-1.6-.9-2.1c-1.2-.4-1.7-1.1-1.3-1.8.4-.7-.2-.5-1.2.3-1.3 1-1.6 1.1-1.1.2.6-.9.3-1.2-1-1-1.1.2-1.8-.2-1.7-1 .2-.6-.2-1.2-.8-1.2-.5 0-.7-.6-.3-1.3.6-.9.5-.9-.8.1s-1.8.9-2.9-.5c-.9-1.1-1-1.4-.2-.9.7.4 1.3.2 1.3-.3 0-.6-.7-1.1-1.5-1.1s-1.5-.6-1.5-1.3c0-.8-.4-.7-1 .3-.5.8-1 1.2-1.1.7-.5-2.4-.4-3.3.6-4 .6-.5.4-.7-.5-.4-.8.2-1.5.9-1.5 1.4 0 .6-.4 1.5-.9 2-.5.4-.7.4-.4-.2.3-.6.2-2.1-.3-3.4-.8-1.9-1.2-2.1-2.4-1.1-1.3 1.1-1.4 1-.9-.4.5-1.2.2-1.5-1-1-1.3.5-1.5.2-.9-1.2.6-1.6.5-1.7-.9-.6s-1.7 1-2-.9c-.2-1.2-1.4-2.8-2.8-3.7l-2.5-1.4 2.5 2.1c2.3 2.1 2.4 2.2.2 1.1-1.2-.6-2.6-.9-3.1-.6-.4.3-.6-.6-.3-2.1.3-1.8.1-2.4-.7-1.9-.6.4-1.1.1-1.1-.6 0-.9-.3-.9-1 .2-.8 1.3-1 1.2-1-.3 0-.9-.5-1.7-1.1-1.7-.5 0-.7.6-.3 1.2.4.7-.1.5-1.1-.4-1.6-1.5-1.6-1.9-.4-3.4 1.3-1.6 1.2-1.6-.8-.5-1.7.9-2.3.9-2.3 0 0-.6-.7-.8-1.6-.5-1.4.5-1.5.4-.5-.8.9-1.1.9-1.6 0-2.2-.8-.4-.9-.3-.5.4 1 1.7-.3 1.5-2.1-.3-.8-.8-2-1.2-2.6-.8-.8.5-.8.2 0-.9 1.7-1.9.4-3.2-1.5-1.5-1.3 1-1.4.9-.7-.2.6-1.1.4-1.3-.9-.8-1 .4-1.5.3-1.1-.3.3-.6-.1-1.3-.9-1.6-.9-.3-1.3-1.1-.9-1.7.4-.6 0-.8-1-.4-1 .3-1.7.2-1.7-.3 0-.8-3.8-2.6-5.1-2.3-.3.1-.6-.5-.6-1.2 0-1.2.3-1.2 1.6-.2 1.4 1.1 1.4 1 .2-.6-.8-1-2.1-1.5-2.9-1.2-1 .4-1.2 0-.8-1.1.5-1.4.4-1.5-.8-.5-1.3 1.1-1.5.9-1.1-1.1.4-2.3.4-2.3-1.2-.3-1.5 2-1.5 2-1-.2.3-1.3 0-2.6-.5-3-.7-.3-.8-.1-.4.5.4.7.2 1.2-.3 1.2-.6 0-1.1-.5-1.1-1.1 0-.6-.9-.9-2-.6-1.7.4-1.8.2-1-1.4.9-1.5.8-1.7-.6-1.2-1.3.5-1.5.3-.9-.8s.5-1.2-.6-.2c-.7.7-1.8 1.3-2.3 1.3-.6 0-.5-.4.3-.9 2-1.3-.3-4.1-3-3.6-1 .2-1.9-.1-1.9-.6 0-.6-.5-.7-1.2-.3-.7.4-.8.3-.4-.5.4-.6 1.1-.9 1.6-.6.5.3 1.1.1 1.5-.4.3-.6-.5-.8-1.9-.5-2 .3-2.4.1-2.1-1.5.2-1.4-.1-1.8-1.1-1.4-.7.3-1.1 1-.7 1.6.3.6.1.7-.5.3-.7-.4-1.2-1.4-1.2-2.2 0-.8-.5-1.4-1.1-1.4-.5 0-.7.6-.3 1.2.4.7-.2.5-1.3-.5-1.1-.9-2.2-1.5-2.5-1.2-.2.3-.5-.2-.5-1 0-1.3.3-1.3 1.9.2 1 .9 1.8 1.2 1.8.7s-1-1.6-2.2-2.4c-2.2-1.4-3-1.6-6.4-2.3-.8-.2-2-1-2.5-1.8s-.9-1-.9-.6c0 .5-.5.5-1 .2-.8-.5-.7-1.2.2-2.3.7-.9.8-1.3.2-.9-.6.3-2-.1-3-.9-1-.9-1.3-1.2-.5-.8 1 .5 1.2.3.7-.5-.6-.8-1.1-.9-2-.2-1 .8-1.8.5-3.2-1.1-1-1.2-1.3-1.8-.6-1.4.6.4 1.2.3 1.2-.2 0-1.8-3-2.2-3.1-.4 0 1.4-.2 1.4-.8-.3-.5-1.1-.7-2.3-.4-2.8.2-.4-.5-.7-1.7-.7s-1.9-.4-1.6-.9c.3-.5-.2-.8-1.2-.7-1 0-1.6-.5-1.4-1.3.2-.8-.3-1.1-1.2-.8-.9.4-1.8.2-2.1-.4-.4-.5-1.2-.6-1.8-.2-.8.4-.7.1.1-.9 1.1-1.4 1-1.7-.8-2.3-1.2-.4-1.7-1.1-1.3-1.8.4-.8.1-.7-.9.1-1.1.9-1.8 1-2.3.2-.3-.6-1.2-.7-1.8-.4-.7.4-.9.4-.5-.1 1-1.1-5.2-5.6-6.5-4.8-.6.3-.7.1-.3-.5.5-.9 1.3-.9 2.9 0 1.2.7 2.6 1.1 3 1 .5-.1.6.1.3.6-.2.4.4 1.3 1.4 2 1.4.9 2.1.9 2.6 0 .4-.7.3-.8-.4-.4-.6.3-1.6-.3-2.2-1.4-.6-1.1-1.4-1.9-1.8-1.6-.4.2-1.9-.4-3.2-1.5-5.6-4.4-8.3-6.2-7.6-5.1 1 1.7-.2 1.5-2-.2-1.5-1.6-1.9-3-.6-2.2.5.3.9-.2.9-1 0-1-.4-1.1-1.1-.4-1.3 1.3-2.9 1.3-2-.1.4-.7-.2-.7-1.7.1-1.3.7-2.1.9-1.7.5.4-.5.2-1.5-.5-2.4-1.1-1.4-1-1.5.8-.1s1.9 1.3.8-.1c-.7-.9-.9-2-.5-2.5.4-.4 0-.4-.8.2-2.3 1.6-4.5 1.1-4.5-1 0-1.1-.7-2.1-1.5-2.3-1.3-.4-1.3-.3 0 .6 1.2.8 1.1 1-.6.9-1.3-.1-2.1-.8-1.9-1.8.4-2.4-.6-3.2-2.3-1.8-1.3 1.1-1.5 1.1-1-.3.4-1.1-.4-2.6-2.3-4.3-1.6-1.4-2.9-2.2-2.9-1.6 0 .5.9 1.4 2 2 1.1.6 2 1.6 2 2.2 0 .7-.4.7-1.3-.1-.8-.6-1.8-.7-2.3-.3-.5.4-.6.3-.2-.2 1-1.2-1.1-3.8-2.4-3-.6.4-.8-.2-.3-1.5.3-1.2.3-2.1-.2-2-2.2.4-3.3-.3-3.4-1.9 0-1.4-.2-1.4-.9.3-.8 1.9-.9 1.9-.9-.3-.1-1.5-.7-2.2-2.1-2.2-1.1 0-2-.5-2-1 0-.6-.5-1-1.1-1-.5 0-.7.6-.3 1.2.5.9.2.8-.9-.1-1.4-1.1-1.5-1.6-.5-2.9 1-1.3 1-1.4.1-.8-.8.4-1.3.2-1.3-.6 0-.9-.3-.9-1 .2-.5.8-1 1-1 .5 0-.6-1.4-1.8-3.1-2.7-1.7-1-2.7-2.2-2.4-2.8.4-.6 1.1-.8 1.6-.4.5.3.7 1 .4 1.5-.3.5.1.6 1 .3 1.4-.6 1.1-1-1.2-2.6-1.5-1.1-2.1-1.8-1.2-1.5.9.3 2.2 0 2.9-.6 1-.9 1.1-.9.6 0-.9 1.7.6 1.7 2.3 0 .8-.6 1.1-.7.8-.1-.3.6 0 1.1.8 1.1s1.2-.4.9-.9c-.3-.4.4-.8 1.5-.8 1 0 2.1.5 2.3 1.2.3.7.7.5 1.1-.6.4-.9.3-1.5-.2-1.1-.5.3-1.2.1-1.6-.5-.4-.6.7-1 2.7-1 1.9 0 4-.6 4.7-1.3 1.1-1 1.3-1 .7 0-.4.7-.3 1.3.3 1.3.5 0 1.1-.6 1.4-1.3.3-.9.9-.9 2.5 0 1.7 1 1.9.9 1.5-.6-.3-1.1 0-2.2.6-2.5.6-.4.9-.1.5.7-.3.8.3 2 1.3 2.8 1.6 1.3 1.7 1.2.5-.2-1-1.3-.9-1.9.3-2.9.8-.7 1.5-.9 1.5-.5s.7.2 1.5-.5c1-.9 1.5-.9 1.5-.1 0 .6-.4 1.1-1 1.1-.5 0-1 .5-1 1.2 0 .6 1.2.1 2.7-1.3 1.4-1.3 2.3-1.9 2-1.3-.3.6.1 1.1.9 1.1s1.3-.6 1-1.3c-.3-.8 0-1.1.9-.7.8.3 1.2 1 .8 1.7-.4.7-.2.7.7-.1 1.1-1 1.1-1.5-.1-2.9-1.3-1.6-1.2-1.6.8-.4 1.2.8 2 1.7 1.7 2.1-.2.4 0 1 .5 1.4.6.3.8-.6.5-2.2-.4-2.5-.3-2.6 1-1.1 1.8 2.5 2.9 2.3 1.6-.2-1-1.9-1-2 .9-.8 1.6 1 2.3.9 3.8-.4 2.4-2.1 4.9-1.3 3.1 1-1.2 1.5-1.1 1.6.4.3 1-.7 1.8-2.1 1.9-3 0-1.1.3-.9.9.6 1.1 2.6 1.6 2.8 2.6 1.1.4-.6.3-.8-.4-.4-.6.4-1-.1-.9-1.3.1-1.5.4-1.7 1.4-.9.7.6 1.3.7 1.3.3 0-.4.8-.1 1.8.6 1.5 1.3 1.6 1.2.3-.3-.7-1-1.8-1.5-2.4-1.1-.5.3-.7.2-.4-.4.7-1.1 4.8-.9 6.8.3.8.4.9.3.5-.4-1-1.6.7-1.5 2.3 0 1 1.1 1.1 1 .6-.3-.4-1-.1-2 .6-2.5.7-.4 1-.3.6.3s0 1.3.7 1.6c1 .4 1.4 0 1.1-1.3-.3-1.3.1-1.7 1.1-1.3.7.3 1.1 1 .7 1.7-.3.6.4.1 1.6-1.2 1.8-1.8 2.6-2.1 3.7-1.1.8.6 1.7.9 2.1.5.3-.3 0-.6-.8-.7-.8 0-.1-.5 1.5-1 2-.5 3.4-.4 4.3.3 1.1.9 1.3.8 1.1-.3-.2-.8.4-1.3 1.5-1.2 1.3.1 1.7-.4 1.2-1.4-.4-1.3-.3-1.4 1-.3 1.2 1 1.8 1 3.2-.1 1.5-1.2 1.6-1.2.8.1-.6 1.1-.3 1 1.1-.2 1.6-1.4 2.3-1.5 3.4-.5 1 .9 1.1.9.6-.1-.4-.6-.2-1.2.4-1.2.6 0 .8-.5.4-1.2s-.3-.8.5-.4c.6.4.9 1.3.5 1.9-.3.7.1.4.9-.5.8-1 1.7-1.5 2.1-1.1.4.4 1.1.1 1.6-.7.7-1 1-1.1 1-.3 0 .7.5 1.3 1.1 1.3.5 0 .7-.5.3-1.2-.5-.7-.3-.8.7-.2 2 1.2 4 1.4 3.3.3-.3-.5-1-.6-1.6-.3-.6.4-.8.3-.5-.3.3-.5 2-.8 3.8-.5 2.4.4 3 .2 2.4-.8-.6-1-.4-1.2.8-.7 1.2.4 1.7.1 1.7-1 0-1.5.2-1.5 1.3.2 1.1 1.4 1.6 1.5 2.2.5.6-.9.4-1.1-.5-.5-.9.5-1.1.4-.6-.4.6-.9 1.1-.9 2.2 0s1.4.8 1.4-.2c0-1.1.2-1.1 1 .1.9 1.3 1.4.7 1.1-1.3 0-.4.6-.7 1.5-.7s1.2-.5.8-1.2c-.4-.7-.3-.8.5-.4.9.6.9 1.1.1 2.1s-.8 1.5.1 2.1c.8.4.9.3.5-.4-.7-1.1.6-1.7 2.8-1.3.5.1.3-.5-.4-1.4-.7-.8-1-1.8-.6-2.2.3-.3.6-.2.6.4 0 1.6 2.8 2.4 3.6 1.1.5-.7.2-.8-.7-.3-.8.5-1.1.4-.6 0 1.4-1.6 4.5-1.3 4 .4-.2.9.3.5 1.1-.9 1.2-2 1.5-2.2 1.6-.7 0 1 .4 1.6 1 1.2.5-.3.6-1.3.3-2.3-.6-1.5-.5-1.5 1-.3.9.7 1.4 1.8 1 2.4-.3.6-.1.7.5.3.9-.5.9-1.3 0-2.9-1-2-.9-2.1.5-.9 1.3 1.1 1.7 1 2.6-.5.9-1.7 1-1.7 1.6-.1.4 1 1.1 1.5 1.6 1.2.5-.3.7-.9.5-1.3-.3-.3.4-.7 1.5-.7 1 0 1.9.5 1.9 1s.3.6.7.2c.8-.7.9-1.1 1.2-3.9.1-.8.4-.7 1.1.3.9 1.3 1.2 1.2 2.5-.4.8-1.1 1.5-1.4 1.5-.7s.5.9 1 .6c.6-.3 1 .2 1.1 1.2.1 1.3.3 1.1.9-.7.4-1.4.9-1.8.9-1 .1 1.3.2 1.3 1.1 0 .5-.8 1-1 1-.3 0 .6.6 1 1.4.9 1.7-.2 4.7-3.2 4-3.9-1-.9 4 .5 5.4 1.6.9.7 1.1.6.7-.6-.4-.8-.1-1.8.6-2.3.8-.4 1-.3.5.4-.4.7-.3 1.2.3 1.2.5 0 1.3-.5 1.6-1 .3-.6 1.1-1 1.6-1 .6 0 .7.6.3 1.2-.6 1-.4 1 .8 0 1.3-1 1.7-1 2.1 0 .3.8.6.6.6-.6.1-1.5.4-1.6 1.6-.6.9.7 1.8 1 2.2.6.3-.3.1-.6-.5-.6-.7 0-1.2-.5-1.2-1.1 0-.6.7-.9 1.4-.6 1.1.4 1.3.1 1-1.1-.5-1.4-.4-1.5.5-.2.8 1.1 1.3 1.2 2.2.3.9-.9 1.8-.9 3.2-.2 1.2.7 1.7.7 1.3.1-.3-.5.1-1.2.9-1.6.8-.3 1.7 0 2.1.6.5.7.2.8-.6.3-.9-.5-1.1-.4-.6.4.6.9 1.1.9 2.1.1.8-.7 2-.8 2.7-.4 1.1.6 1.1.5 0-.8-1-1.3-1-1.7.3-2.2.9-.3 1.3-.2 1 .3-.3.5-.1 1.3.5 1.6.6.4 1 .3.9-.2-.3-2 .2-3.4 1.1-2.8.6.4.8 1 .6 1.4-.3.4.1.8.8.8.9 0 1.2-.7.8-1.6-.5-1.4-.4-1.4 1.3-.1 1.1.9 1.6 1 1.1.2-.4-.6-.2-1.2.3-1.2.6 0 1.1.6 1.2 1.2 0 1 .2 1 .6 0 .2-.6.9-1 1.4-.7.5.4.6 0 .3-.8s0-1.8.7-2.3c.7-.4 1-.3.5.4-.3.6.2 1.6 1.3 2.2 1.4.7 2.2.7 2.7-.2.4-.6.3-.8-.4-.4-.6.3-1.3.2-1.6-.3-.3-.5.1-1.1.9-1.5.8-.3 1.7 0 2.1.6.5.7 1.2.5 2.1-.7.7-1.1 1.3-1.4 1.3-.8 0 .6.8 1 1.8.9 2.1-.1 6.3-4.1 5.4-5.2-.4-.5.1-.2 1.1.5 1.7 1.3 2.4 2.7.9 1.7-.4-.2-1.4 0-2.2.5-1.1.7-.9.8.9.6 1.4-.2 2.7-.9 2.9-1.5.3-.9.9-.9 2.5 0 2.1 1.1 2.1 1 .7-.7-.8-1-1-1.6-.3-1.2.6.4 1.4.1 1.6-.5.3-.7.6-.4.6.7.1 1.9.3 1.8 2.2-.5 1.2-1.5 1.9-1.8 1.6-.8-.3.9 0 1.9.8 2.1.9.4 1.2-.2 1-1.8-.2-2 .1-2.3 1.6-1.5 1.1.6 1.9.6 2.1.1.2-.6 1.5-1.2 3.1-1.5 1.6-.3 2.5-.1 2.2.5-.4.5-.2.9.3.9s1.4-1 2.1-2.3c.6-1.2.9-1.4.7-.5-.3 1-.1 2 .5 2.3.5.4.8.1.7-.6-.2-.6.3-1.4 1-1.6.8-.3 1 .2.6 1.4-.5 1.7-.5 1.7.6 0 .6-.9 1.6-1.4 2.2-1.1.7.4.8.2.4-.4-.4-.7-.2-1.2.4-1.2.6 0 .8-.5.4-1.3-.5-.7-.1-.7 1 .2 1.5 1.3 1.9 1.3 2.7 0 .7-1.2.9-1.2.9.1s.2 1.3.9.1c1.2-1.8 3.9-2.3 4.8-.9.4.7.1.8-.7.3-.9-.5-1.1-.4-.6.3 1.2 2 2.7 1.3 2.2-1.1-.3-1.5.1-2.4.9-2.4.7 0 1.1.6.8 1.4-.4.9 0 1.1 1.1.7.9-.3 1.4-1 1.1-1.4-.3-.5 0-1.2.6-1.6.7-.4.9-.3.6.3-.4.6 0 1.3.8 1.7.8.3 1.7 0 2.1-.6.5-.7.2-.8-.6-.3-.9.5-1.1.4-.6-.4.6-.9 1.1-.9 2.1-.1s1.5.8 2.1-.1c.5-.8.3-.9-.7-.4-1.2.8-1.2.6 0-.8 1.4-1.7 2.6-2.4 1.7-.9-.2.4-.1 1.4.5 2.2.5 1 .9 1.1.9.3 0-.7.7-1 1.8-.6 1.4.5 1.3.3-.3-1.1-1.4-1.1-1.5-1.5-.5-1.4.8.2 1.4-.3 1.2-1-.2-.9.2-1.1 1-.6 1.9 1.2 5 1.5 4.4.5-.4-.5.2-.8 1.1-.6 1 .2 1.8.4 1.8.5 0 .1.8.3 1.7.5 1 .2 1.5-.2 1.2-1-.3-.7 0-1.6.7-2.1.7-.4 1-.3.6.3s0 1.4.9 1.7c1.2.4 1.5.2 1.1-.9-.4-.8-.1-1.7.5-2.1.6-.4.8-.3.4.4-.3.6-.2 1.3.4 1.7.6.4.7 1.1.4 1.7-.4.6-.2.8.3.5.6-.4.8-1.9.6-3.4-.3-1.9-.2-2.4.5-1.5 1 1.4 3.3 1.3 4.4-.3.5-.6.8-.5.8.4 0 1.1.3 1.1 1.5.1s1.5-1 1.6.1c0 .8.4.5.8-.5.7-1.8 2.6-2.7 6.1-2.7.8-.1 2.2-.3 3-.6 2.5-1 3.4-1 4.9.1 1.1.8 1.3.8.7-.2-.9-1.5 1.6-1.6 3.1-.1.8.8 1.3.7 1.8-.2.5-.7.4-1-.2-.6-.6.4-1.7-.1-2.4-1.1-.7-.9-.9-1.4-.5-1 .5.4 1.6.2 2.4-.5 1.3-.9 1.4-.9.8 0-.4.7-.2 1.3.3 1.3.6 0 1.1-.5 1.1-1.1 0-.5.5-.7 1-.4.6.4.7 1.2.3 1.8-.5.8-.2.8.9 0 .8-.7 1.9-.9 2.3-.5.5.4.5.1.1-.6s-1.2-.9-1.8-.6c-.6.4-.8.2-.5-.4.9-1.3 3-1 5.3.8 1.8 1.4 1.8 1.4.4-.4-1.4-1.8-1.3-1.9.8-1.4 2 .5 2.2.3 1.6-1.4-.5-1.8-.4-1.9.9-.7.8.8 1.3 1.7 1.1 2.1-.2.4.1 1 .7 1.4.8.4.9.3.5-.4s-.2-1.2.4-1.2c.7 0 .5-.7-.4-1.6-2.3-2.2-2-2.8.6-1 1.9 1.4 2.3 1.4 3.5-.2 1.4-1.6 1.4-1.6.9.2-.5 1.5-.4 1.7.7.8.8-.7 1.8-.8 2.3-.4.4.4.2-.2-.6-1.2-1.4-1.8-1.4-1.9.8-.7 1.7.9 2.2.9 2.2-.1.1-.9.4-.8 1.3.3 1.1 1.4 1.4 1.4 3.2-.4 2-2 2-2-.2-.8-1.5.8-2.3.8-2.3.1 0-.5.7-1 1.6-1 .9 0 1.2-.5.8-1.3-.4-.6.1-.4 1.2.5 1.9 1.6 2.2 1.7 4.4.1 1.7-1.2 2.5-1.3 2.8-.5.5 1.6 2.2.5 1.8-1.1-.1-.7-.1-.8.2-.4.2.4 1.1.2 1.9-.5 1.4-1.1 1.5-1 1 1.2-.4 1.4-.4 1.9-.1 1.2.3-.6 1.1-.9 1.6-.6.7.5.8.2.3-.6-.6-1-.3-1.2 1.2-.8 1.7.4 2 .1 1.7-1.6-.2-1.1-.1-1.5.2-.8.5 1 .9 1 2 .1s1.7-.9 2.8 0c1.1 1 1.6.9 2.4-.4.8-1.6 1-1.6 2.5 0 2.3 2.2 2.2.7 0-1.8-1.8-2-1.8-2 1.2-.1 3 1.8 3 1.8 1.5-.1-.8-1-1-1.6-.3-1.2.6.4 1.5.2 1.8-.3.5-.8 1.4-.5 2.8.7 1.2 1 1.9 1.4 1.5.9-.4-.4-.1-1.4.5-2.1 1-1.1 1.3-1 1.5.1.2.8.7 1.4 1.1 1.4zM121 343.4c0 .3-.4.8-1 1.1-.5.3-1 .1-1-.4 0-.6.5-1.1 1-1.1.6 0 1 .2 1 .4zm376 24c0 .3-.4.8-1 1.1-.5.3-1 .1-1-.4 0-.6.5-1.1 1-1.1.6 0 1 .2 1 .4zM161 371c0 .5-.5 1-1.1 1-.5 0-.7-.5-.4-1 .3-.6.8-1 1.1-1 .2 0 .4.4.4 1zm135.5.8c-.3.3-1.1 0-1.8-.7-.9-1-.8-1.1.6-.5 1 .3 1.5.9 1.2 1.2zm-157.9 0c-.2.4.5 1.4 1.7 2.1 1.8 1.1 2 1.1 1 0-.7-.7-1.3-1.8-1.3-2.4 0-.5.9.1 1.9 1.4 1.6 2 2.1 2.2 4.2 1.2l2.4-1.2-2.5 2c-1.5 1.2-2.7 1.6-3.1.9-.9-1.3-2-1.2-3 .4-.7 1-.9 1-.9 0 0-.7-.4-1.1-.9-.8-.5.3-1.5-.2-2.2-1.2-1.3-1.6-1.3-1.6.5-.2 1.8 1.4 1.9 1.3 1.4-.2-.4-.9-.4-1.9-.1-2.2.9-.9 1.5-.7.9.2zm130.2 6.7c-.3.3-.9-.2-1.2-1.2-.6-1.4-.5-1.5.5-.6.7.7 1 1.5.7 1.8zm222.7-1.5c-.3.5-1.2 1-1.8 1-.7 0-.6-.4.3-1 1.9-1.2 2.3-1.2 1.5 0zm-51.8 29.5c0 .8-.4 1.2-.9.9-.5-.3-.6-1-.3-1.5.9-1.3 1.2-1.1 1.2.6zM149.5 408c.3.5.1 1-.4 1-.6 0-1.1-.5-1.1-1 0-.6.2-1 .4-1 .3 0 .8.4 1.1 1zm304 51c.3.6-.1.7-.9.4-1.8-.7-2.1-1.4-.7-1.4.6 0 1.3.4 1.6 1zM41 464.1c0 .5.4.8.9.5.4-.3.7.5.6 1.9-.2 1.6.1 2.2 1 1.9.7-.3 1.6-.1 1.9.5.4.6 1.4.7 2.4.4 1.5-.6 1.5-.5.3 1s-1.2 1.7.4 1.1c1.4-.6 1.6-.4 1 .7-.7 1.1-.6 1.2.6.2 1.1-.9 1.8-.8 3.2.2 1.2.8 1.4 1.5.7 2-1.8 1.1-.1 2.6 1.8 1.6 1.4-.8 2.3-.2 4.2 2.7 3.1 4.6 3.6 5 6.5 4.7 1.3-.2 2.6.3 2.9 1.1.5 1.2.1 1.2-1.7.4-1.9-.9-2-.9-.6.2.9.7 1.4 2 1.1 2.8-.4 1.1-.1 1 1.2-.3 1.4-1.4 2.1-1.5 3.2-.6.8.6 1.4 1.4 1.4 1.6 0 .3-.7 0-1.5-.7-.9-.7-1.5-.8-1.5-.2 0 1.3 2.9 2.4 4.3 1.5.7-.4.7 0-.1.9-1.1 1.4-1 1.8 1 2.9 1.3.7 2.9 1.4 3.7 1.5.8.2 1.7.8 2.1 1.5.5.6 1.5.9 2.4.6 2.1-.8 2-.3-.1 1.9-1.7 1.7-1.7 1.7-.1 1.1 1-.3 2-.2 2.4.4.4.6 1.2.5 2.2-.3 1.2-1 1.4-1 .8-.1-.4.7-.2 1.3.3 1.3.6 0 1.1.5 1.1 1.1 0 .5-.6.7-1.2.3-.9-.5-.9-.2.1.9 1.6 2 1.8 2 2.7.5.5-.7.3-.8-.6-.3-.9.5-1.1.4-.6-.4.4-.6 1.2-.9 1.7-.5.5.3.7 1 .4 1.5-.6.8 1.6 1.4 3.8 1 .5-.1.6.3.3.8-.4.5.3 1.2 1.4 1.6 1.1.3 2 1.1 2 1.7 0 .6-.7.5-1.7-.3-1.6-1.3-1.7-1.2-.4.4 1 1.3 1.7 1.4 2.7.7 1-.9 1.1-.7.7.9-.3 1.3-.1 2.1.6 2.1s.9-.5.6-1c-.3-.6-.1-1 .4-1 .6 0 1.1.5 1.1 1.1 0 .5.5.7 1.1.3.7-.4.7.1-.1 1.6-1.1 2-1 2.1 1.2.9 2.1-1.1 2.2-1.1 1 .4-1.1 1.3-1.1 1.5 0 1.3.7-.1 1.8-.5 2.5-.9.8-.5.9 0 .5 1.5-.4 1.8-.2 2 1.7 1.5s2-.3.9 1.1c-1 1.2-1 1.4 0 .8.7-.4 1.2-.2 1.2.6 0 .9.3.9 1-.2.9-1.3 1-1.3 1.1 0 .1.8.1 2.2 0 3-.1.9.1 1.1.6.5.4-.6 1.4-1.1 2.2-1.3 1.1-.2 1.2 0 .3 1.1-1 1.2-.7 1.4 2 1.1 1.8-.2 2.9 0 2.3.4-.5.4-1.1 1.3-1.3 2.1-.3 1.2-.1 1.2 1.4 0s1.7-1.2.9 0c-.6 1.1-.4 1.3 1 .7 1.5-.5 1.6-.4.5.9-1.5 1.8 0 2 1.9.2.8-.6 1.1-.7.8-.1-.4.6 0 2 .8 3 1 1.3 1.4 1.4 1.2.4-.2-.8-.2-1.2 0-.7.3.4.9.5 1.4.1.5-.3.4.7-.1 2.3-.9 2.6-.9 2.7.5.9 1.3-1.7 1.5-1.8 1.5-.3 0 .9.5 1.7 1.1 1.7.5 0 .7-.5.3-1.2-.4-.7-.3-.8.5-.4.6.4.9 1.2.6 1.7-.4.5-.1.9.5.9s.9.4.5.9c-.3.5 0 1.3.6 1.7.8.4.9.3.5-.4s-.2-1.2.3-1.2c.6 0 1.1.4 1.1 1 0 .5.5 1 1.1 1 .5 0 .7-.6.4-1.3-.4-.6.3-.1 1.5 1.2 1.1 1.3 1.9 3 1.6 3.7-.3.8 0 1.1.8.8.7-.3 2.5.7 4 2.2 2.1 2.2 2.5 2.3 2.1.8-.4-1 .1-.6 1 .9s2 2.5 2.5 2.2c.6-.4 1-.3 1 .2 0 .4 1.4 1.4 3 2.1 1.7.8 2.8 1.8 2.4 2.3-.3.5.2.9 1 .9s1.8.9 2.1 2.1c.5 1.5 1 1.7 2 .9 1-.8 1.5-.8 2.1.1.5.8.3 1-.7.4-.8-.4-.5.1.6 1.2 1.1 1.1 2.3 1.9 2.7 1.7.3-.2.8.1 1 .6.2.6 1.3 1.2 2.5 1.3 1.2 0 1.9.5 1.7.9-.3.4 0 .8.6.8s.8.4.5 1c-.3.5.1 1 .9 1 .9 0 1.6.8 1.7 1.7 0 1.5.2 1.5.9-.2.8-1.8.9-1.8 1 .5.2 1.4.2 2.8.2 3.1-.1.3.6.6 1.4.6 1 0 1.1-.4.4-1.1-.5-.5-1-1.4-1-1.9s.7-.2 1.5.7c.8.8 1.5 2.2 1.5 3 0 .9.5 1.6 1.1 1.6.6 0 .8-.7.5-1.6-.5-1.4-.4-1.5.8-.5.8.7 1.2 1.9.9 2.7-.3.8-.2 1.4.3 1.3 2.3-.4 3.6.2 3.1 1.5-.4 1-.1 1.3.8.9.8-.3 1.2-.9.9-1.4-.3-.5 0-.9.5-.9 1.1 0 1.5 2.1 1.1 4.9-.1 1.3.1 1.3 1.4.2 1.3-1.1 1.9-1.1 3.1-.1.8.7 1.5 1.7 1.5 2.3 0 .6-.6.3-1.3-.8-1.1-1.4-1.6-1.5-2.2-.5-.5.9-.4 1.1.3.6 1.1-.7 1.7.7 1.2 2.9-.1.5.9.1 2.1-1 1.2-1.1 1.9-1.4 1.5-.7-.5.9-.1 1.5 1.3 1.9 1.2.3 2.1.9 2.1 1.4 0 .5.8.6 1.8.3 1.4-.5 1.5-.4.2.5-1.5 1-1.1 1.3 2 1.5.8.1 1.5.8 1.5 1.6s-.7 1.5-1.5 1.5-1.8.4-2.2 1c-.5.6-.8.5-.8-.3 0-.7-.5-1-1-.7-.6.3-1 .2-1-.3s-1.1-.8-2.3-.7c-1.5.2-2.4-.2-2.4-1.1 0-.9.4-1.1 1.2-.4.7.5 1.4.7 1.8.4.3-.3 1.6 0 2.8.7 2.3 1.2 2.3 1.2.8-1.1-.9-1.3-2.2-2.6-3-2.8-.8-.2-.5.2.5 1 1.8 1.4 1.8 1.5-.5 1.2-1.3-.1-2.4-.3-2.4-.4 0-.1-.8-.3-1.8-.5-.9-.2-1.5.1-1.1.6.3.5-.5.7-1.8.5-1.3-.2-2.2-.9-2-1.5.1-.6-.2-1.1-.7-1.1-.5 0-1.1-.6-1.4-1.2-.2-.7-.3-.2-.1 1.2.2 1.4.1 1.9-.2 1.2-.3-.6-.9-1-1.4-.7-.4.3-1.5-.7-2.5-2.1-1.6-2.4-1.7-2.5-4.2-.9-1.3.9-2.7 1.4-3.1 1.1-.3-.3.1-.6.9-.6 1.1 0 1.1-.2-.1-1-1.2-.8-1.2-1-.1-1 .8 0 1.1-.3.8-.6-.4-.4-1.4-.1-2.4.7-1.1.9-1.4 1-.9.1.9-1.6-.6-1.6-2.3 0-1.1 1.1-1.1.9-.2-.9 1.1-2.2 1-2.2-1.5-1.3-2.2.9-2.5.8-1.6-.3.8-1 .7-1.3-.7-1.3-1.3 0-1.7.5-1.3 1.5.5 1.4.4 1.4-1 .1-.9-.8-1.3-2-1-2.5.3-.6-.2-.4-1.1.4-2 1.6-2.3.1-.4-1.8 1-1.1.8-1.2-.9-.3-1.5.8-2.4.8-3.3-.1-1-.9-1.1-.8-.6.8.6 1.8.6 1.9-.5.2-1-1.5-1.4-1.6-2.8-.5-1 .8-1.3.9-.9.1.4-.6.3-1.4-.3-1.8-.6-.4-.8-1-.6-1.4.3-.4-.8-.5-2.5-.3-2 .3-2.9 0-2.9-.9 0-1.1-.2-1.1-1 .1-.5.8-1 1-1 .3 0-.6-1.3-1-2.9-.9-1.7.1-2.7-.2-2.5-.6.3-.4-.2-1.1-1-1.4-.9-.3-1.3-1.1-1-1.6.4-.6-.1-.6-1.3 0-2.4 1.3-4.6 1.1-6.7-.7-.9-.7-1.6-1-1.6-.5-.1.5-.7-.2-1.5-1.6-.9-1.5-1.4-1.9-1.5-1 0 1.3-.1 1.3-1 0s-1-1.3-1 0c0 1.2-.2 1.2-.9.2-.4-.8-1.1-1.3-1.5-1.3-.3.1-2.1.1-3.8.1l-3.3-.1 3-1.4 3-1.4-3.2.6c-2.3.4-3.3.2-3.3-.7 0-.8-.4-.9-1.2-.3-2.3 1.7-5.3 1-5-1.1.3-1.8.2-1.8-1.4-.5-1 .7-1.5.9-1.2.4.4-.6-.2-1.7-1.4-2.4-1.1-.7-1.7-.8-1.3-.2.3.6.1 1.1-.4 1.1-.6 0-1.1-.6-1.1-1.3 0-.8-.4-.7-1 .3-.8 1.2-1 1.2-1 .1 0-.9-.7-1.1-2.1-.8-1.7.5-1.8.3-.7-1.1.7-.9.8-1.4.4-1-.5.4-1.5.3-2.3-.4-1.1-.9-1.2-.7-.8.8.5 1.6.3 1.5-1.1-.3-1.2-1.8-2-2-3.4-1.3-1.3.7-2.1.6-2.6-.2-.5-.7-.3-.8.6-.3.8.5 1.1.4.6-.3-.4-.6-1.4-.8-2.3-.5-1.2.5-1.4.3-.8-.8.7-1.2.6-1.2-.7-.1-1.3 1-1.8 1-2.4.1-.5-.8-.3-.9.6-.4.9.5 1.1.4.6-.3-.5-.9-1.3-.9-2.6-.2s-2.2.6-3.2-.4c-.8-.7-2.5-1.3-3.9-1.2-1.7.1-2.4-.4-2.3-1.7.2-1.8.1-1.8-1.8 0-2 1.8-2.1 1.8-1-.4 1-1.8.9-2.1-.6-1.8-.9.1-2.3-.3-3.1-.9-1.1-.8-1.3-.8-.8.1.4.6.3 1.4-.3 1.8-.5.3-1-.1-1-.9s-.9-1.8-2-2.1c-1.1-.4-1.8-1-1.6-1.4.3-.4-.6-.7-1.9-.7-1.3 0-2.1.4-1.9.8.3.4.1.8-.5.8-.5 0-1.2-.6-1.5-1.3-.5-.9-.7-.9-1.2.1-.4.9-1.1.7-2.5-.9-1-1.2-1.6-2.6-1.2-3.2.3-.6.1-.7-.6-.3-.6.4-.9 1.1-.6 1.6.3.5 0 1.2-.6 1.6-.8.4-.9.3-.5-.4s.2-1.2-.4-1.2c-.6 0-.9-.4-.6-.8.3-.5-.1-.9-.9-.9s-1.2.3-1 .7c.2.4-.2.7-1 .7-1.8 0-1.9-.9-.2-2.7 1-1.2.9-1.2-.3-.4-.8.6-2.4 1.4-3.4 1.8-1.6.5-1.7.4-.6-.9.7-.9 1-1.8.6-2.2-.3-.3-.6-.1-.6.6s-.5.9-1 .6c-.6-.4-.7-1.1-.4-1.7.4-.7.2-.8-.5-.4-.6.4-.9 1.2-.6 1.7.3.5-.1.6-.9.3-.9-.3-1.3-1-1-1.5.3-.5-.2-.9-1-.9s-1.8-.5-2.2-1.2c-.4-.7-.3-.8.4-.4s1.2.4 1.3-.1c0-.4.2-2 .4-3.6.2-1.5-.1-2.7-.6-2.7-.6 0-.7.5-.3 1.2.5.7.3.8-.5.4-.9-.6-.8-1.2.4-2.6 1.1-1.2 1.3-2 .6-2.5-.8-.4-.8-1.2-.1-2.6.7-1.3.7-1.9 0-1.9-.5 0-1-.7-1-1.6 0-.8.4-1.3.8-1 .5.3.9-.1.9-.9s-.4-1.2-.8-1c-1.2.8-1.9-2.4-.6-3.2 1.9-1.2 1.8-4.6-.1-3.8-1.4.5-1.4.4.1-1.3 1.6-1.7 1.5-1.9-.1-3.6-.9-.9-1.2-1.6-.7-1.5 2.4.4 2.7-.2.9-1.6-1-.8-1.4-1.5-.9-1.4 2.3.3 2.9-.2 1.5-1.1-.9-.6-1.1-1.3-.5-1.8.6-.4 1.1-1.5 1.2-2.5.1-1.3-.4-1.7-1.5-1.2-1.5.5-1.5.4 0-1.1 1.7-1.7 1.7-1.9.1-3.7-1-1-1.3-1.8-.8-1.7 2.4.5 2.7-.1.9-1.6-1-.8-1.4-1.3-.7-1 .6.4 1.4.2 1.8-.4.3-.5.1-1-.5-1-1.3 0-.9-4.2.5-5.2.6-.5.5-.8-.4-.8-1.1 0-1.1-.3 0-1.7.8-.9.9-1.4.4-1.1-.6.4-1.7-.3-2.5-1.5-1.2-2-1.2-2.1.2-.9 1.4 1.1 1.6.9 1.3-2.2-.3-2.7 0-3.4 1.1-2.9 1.2.4 1.2.8.2 2.2-1.2 1.4-1.1 1.5.5.2 1.3-1 1.5-1.7.6-2.7-.8-1-.8-1.4 0-1.4.6 0 1.1.5 1.1 1.1zm8 3.3c0 .2-.7.7-1.6 1-.8.3-1.2.2-.9-.4.6-1 2.5-1.4 2.5-.6zm65.5 7.5c.3.5.2 1.2-.3 1.5-.5.3-.9-.1-.9-.9 0-1.7.3-1.9 1.2-.6zm-50.6 5.7c.4-.3.8.1.8.9 0 1.1-.4 1.2-1.4.4-.7-.6-1.3-1.7-1.2-2.3 0-.7.2-.6.6.2.2.6.8 1 1.2.8zm376.7 4.3c-.4.5-.1 1.1.6 1.3.8.3.6.6-.4 1-1.1.5-1.5.2-1.3-1 .5-2.3.4-2.2 1.1-2.2.3 0 .3.4 0 .9zm50.4 3.5c0 .2-.8 1-1.7 1.7-1.6 1.3-1.7 1.2-.4-.4 1.3-1.6 2.1-2.1 2.1-1.3zm48 0c0 .2-.8 1-1.7 1.7-1.6 1.3-1.7 1.2-.4-.4 1.3-1.6 2.1-2.1 2.1-1.3zm48 0c0 .2-.8 1-1.7 1.7-1.6 1.3-1.7 1.2-.4-.4 1.3-1.6 2.1-2.1 2.1-1.3zm11.7 3.1c0 .8-.4 1.2-.9.9-.5-.3-.6-1-.3-1.5.9-1.3 1.2-1.1 1.2.6zM78 492c.8.5 1.2 1.1 1 1.4-.3.2-1.4-.2-2.4-1-2.2-1.5-1-1.9 1.4-.4zm482 28.5c0 .2-1 1-2.2 1.6-2.1 1.1-2.2 1.1-.9-.4 1.3-1.6 3.1-2.3 3.1-1.2zm-382.6 1.3c.3.5-.1.9-.9.9s-1.2-.4-.9-.9c.3-.4.7-.8.9-.8.2 0 .6.4.9.8zM68 547.7c0 .7-3.9-1.7-4.6-2.8-.3-.6.5-.3 2 .6 1.4 1 2.6 1.9 2.6 2.2zm-55 15.9c0 .8-1.9 1.3-2.4.6-.3-.5.1-.9.9-.9s1.5.2 1.5.3zm12 5.4c0 .5-.2 1-.4 1-.3 0-.8-.5-1.1-1-.3-.6-.1-1 .4-1 .6 0 1.1.4 1.1 1zm366.1 18.3c-1 .9-1.1.8-.5-.6.3-1 .9-1.5 1.2-1.2.3.3 0 1.1-.7 1.8zm-201.7.5c.3.5-.1.9-.9.9s-1.2-.4-.9-.9c.3-.4.7-.8.9-.8.2 0 .6.4.9.8zm27 8.8c.3.8.2 1.2-.4.9-.6-.3-1-1-1-1.6 0-1.4.7-1.1 1.4.7zM409 616.5c-.7.9-1.5 1.3-1.9 1-.3-.3.1-1 .9-1.5 2.1-1.4 2.4-1.2 1 .5zM235 642c0 .5-.2 1-.4 1-.3 0-.8-.5-1.1-1-.3-.6-.1-1 .4-1 .6 0 1.1.4 1.1 1zm111 15c-.8.5-1.9 1-2.5 1-.5 0-.3-.5.5-1s2-1 2.5-1c.6 0 .3.5-.5 1zm-53.6 4c-2.1.8-3.7.3-2.9-1 .3-.4 1.5-.6 2.7-.2 2.1.5 2.1.6.2 1.2zm43.2 3.2c.4.7.4 1-.1.6-.4-.4-1.3-.4-1.9.2-.7.5-1.7.5-2.6-.2-1.2-.8-1.2-.9.2-.4 1 .3 2 .1 2.3-.4.8-1.3 1.2-1.3 2.1.2z"/><path d="M568.1 104.9c-.8.5-.9 1.1-.3 1.5.5.3 1.2-.1 1.6-.9.6-1.7.6-1.8-1.3-.6zM520 136c-.8.5-1.2 1.1-1 1.4.3.2 1.4-.2 2.4-1 2.2-1.5 1-1.9-1.4-.4zm-5.5 3.1c-1.1 1.6-.1 1.9 1.3.3.7-.8.8-1.4.3-1.4s-1.3.5-1.6 1.1zm-11.8 8c.7.7 1.5 1 1.8.7.3-.3-.2-.9-1.2-1.2-1.4-.6-1.5-.5-.6.5zm34.7 47c0 1.3.3 1.5 1.3.7.7-.6 1.3-1.2 1.3-1.3 0-.2-.6-.5-1.3-.8-.7-.3-1.3.3-1.3 1.4zM367 230.5c-1.3 1.4-1.9 2.5-1.3 2.5.6 0 1.4-.7 1.7-1.6.3-.8 1-1.3 1.4-1 .5.3.9-.1.9-.9 0-1.9.1-1.9-2.7 1zm151.8 3.9c-1.9 1.4-2.3 2.6-1 2.6.4 0 1.3-.9 2-2 1.4-2.3 1.3-2.4-1-.6zM514 240c0 .5.5 1 1.1 1 .5 0 .7-.5.4-1-.3-.6-.8-1-1.1-1-.2 0-.4.4-.4 1zm-170.3 4.8c-1.4 1.5-1.5 1.9-.2 1.9.8 0 1.2-.4.9-.8-.2-.4.2-.9.8-1.2.7-.2 1-.7.7-1.1-.3-.3-1.3.2-2.2 1.2zm-10.4 6.7c-.3.9-.3 1.9.1 2.2.3.4.6-.1.6-1.1s.5-1.4 1.2-1c.7.4.8.3.4-.4-1-1.6-1.5-1.5-2.3.3zm168 18.2c0 .7.4 1.3.8 1.3s.9-.6 1.2-1.3c.3-.8 0-1.4-.7-1.4s-1.3.6-1.3 1.4zm-238.8 25.2c-.3.5-.1 1.2.5 1.6.5.3 1 .1 1-.5s.5-.8 1.2-.4.8.3.4-.4c-.9-1.4-2.3-1.5-3.1-.3zm124.9 12.9c.3.5 0 1.2-.6 1.5-.7.2-1 .7-.7 1.1.3.4 1.2 0 1.8-.8.9-1.1.9-1.6 0-2.2-.7-.4-.9-.3-.5.4zm-49.7 13.5c-.3.8.1 1.4.8 1.4.7 0 1.1-.6.8-1.4-.3-.7-.6-1.3-.8-1.3-.2 0-.5.6-.8 1.3zm-47.8 13.4c-1.3 1.6-1.2 1.7.3.5.9-.8 2.3-1 2.9-.6.8.4.9.3.5-.4-1-1.7-2.1-1.5-3.7.5zM182.5 345c-.3.5-.1 1 .4 1 .6 0 1.1-.5 1.1-1 0-.6-.2-1-.4-1-.3 0-.8.4-1.1 1zm65.6 1.6c0 1.1.3 1.4.6.6.3-.7.2-1.6-.1-1.9-.3-.4-.6.2-.5 1.3zm-27.8 5.9c-1 1.1-.8 1.3 1.2 1.1 1.4-.2 2.8-.7 3.3-1.2.4-.5.3-.6-.2-.2-.5.4-1.4.4-2-.1-.7-.6-1.6-.4-2.3.4zm-66.3 9.9c0 .2.8 1 1.8 1.7 1.5 1.3 1.6 1.2.3-.4s-2.1-2.1-2.1-1.3zm315-37c0 .8.4 1.7.9 2 .5.4.7-.3.4-1.4-.6-2.3-1.3-2.6-1.3-.6zm-78 21.1c-1.1 1.3-1.5 1.3-2.1.3-.6-.9-.9-.9-.9-.1 0 2.1 1.7 2.3 3.5.3 1-1.1 1.6-2 1.3-2-.3 0-1.1.7-1.8 1.5zm-29.6 7.3c.4.3 1.4.7 2.2.8.9.1 1.3 0 1-.4-.4-.3-1.4-.7-2.2-.8-.9-.1-1.3 0-1 .4zm-122.9 33.3c-.4.6-.4 1.3-.1 1.6.3.4.6.1.6-.5s.8-1.3 1.8-1.5c1.5-.4 1.5-.5 0-.6-.9 0-2 .4-2.3 1zm-13 3c-.4.6-1.3.8-2.1.5-.8-.3-1.1 0-.8.9.5 1.1 1 1.2 2.5.2 1-.6 1.9-1.5 1.9-1.9 0-1.1-.8-1-1.5.3zm-58 16.8c-.3.5-.2 1.2.3 1.5.5.3.9-.1.9-.9 0-1.7-.3-1.9-1.2-.6zM147 412c0 .5.5 1 1.1 1 .5 0 .7-.5.4-1-.3-.6-.8-1-1.1-1-.2 0-.4.4-.4 1zm261.4 55.8c.3.5 0 1.3-.6 1.5-.9.4-1 .6-.1.6 1.7.1 2.5-1.6 1.2-2.5-.7-.4-.9-.3-.5.4zm-4.5 9.9c-1.3 1.6-1.2 1.7.4.4.9-.7 1.7-1.5 1.7-1.7 0-.8-.8-.3-2.1 1.3zm-271.8 9.9c0 1.1.3 1.4.6.6.3-.7.2-1.6-.1-1.9-.3-.4-.6.2-.5 1.3zm13.4 10.3c-.3.5-.2 1.2.3 1.5.5.3.9-.1.9-.9 0-1.7-.3-1.9-1.2-.6zm9.1 5.9c-1.2 2 2.3 3.6 4.1 1.9.4-.5.4-.8-.2-.7-2.1.5-3.6 0-3-1 .3-.6.4-1 .1-1-.3 0-.7.4-1 .8zM382 520.4c0 .2.7.7 1.6 1 .8.3 1.2.2.9-.4-.6-1-2.5-1.4-2.5-.6zm95 7.6c0 .5.5 1 1.1 1 .5 0 .7-.5.4-1-.3-.6-.8-1-1.1-1-.2 0-.4.4-.4 1zm-45.5 31c-.4.6-1.1.7-1.7.4-.7-.4-.8-.2-.4.5.6.9 1.1.9 2.2 0 1.4-1.1 1.8-1.9 1-1.9-.3 0-.8.5-1.1 1zm-37.9 23.7c-.6 1.4-.5 1.5.5.6.7-.7 1-1.5.7-1.8-.3-.3-.9.2-1.2 1.2zM262 585.9c0 .6.4 1.3 1 1.6.6.3.7-.1.4-.9-.7-1.8-1.4-2.1-1.4-.7zm7.7 4.6c-.4.8-.3 1.6.1 1.9.4.3.9-.4.9-1.5.2-2.3-.3-2.5-1-.4zm6.3 5.4c0 .6.4 1.3 1 1.6.6.3.7-.1.4-.9-.7-1.8-1.4-2.1-1.4-.7zm94.6 1c-.4.5-.2 1.2.3 1.5.5.4 1.2.2 1.5-.3.4-.5.2-1.2-.3-1.5-.5-.4-1.2-.2-1.5.3zm-83.1 8c-.3.5-.1 1.2.5 1.6.5.3 1-.1 1-.9 0-1.8-.6-2.1-1.5-.7zm56.9 8.9c.3.5 0 1.2-.6 1.5-.7.2-1 .7-.7 1.1.3.4 1.2 0 1.8-.8.9-1.1.9-1.6 0-2.2-.7-.4-.9-.3-.5.4zM51 473.6c0 .8.5 1.2 1 .9.6-.4.8-1.1.5-1.6-.9-1.4-1.5-1.1-1.5.7zm7.1 5.1c.7 1.2 1.5 2 1.8 1.7.3-.2-.3-1.2-1.3-2.2-1.7-1.6-1.8-1.6-.5.5zM95 506.9c0 .5.5 1.3 1 1.6.6.3 1 .2 1-.4 0-.5-.4-1.3-1-1.6-.5-.3-1-.2-1 .4zM56.5 542c.3.5.8 1 1.1 1 .2 0 .4-.5.4-1 0-.6-.5-1-1.1-1-.5 0-.7.4-.4 1zm86.5-.1c0 .6.4 1.3 1 1.6.6.3.7-.1.4-.9-.7-1.8-1.4-2.1-1.4-.7zm-64.3 7.4c-.3.8.1 1.4.8 1.4.7 0 1.1-.6.8-1.4-.3-.7-.6-1.3-.8-1.3-.2 0-.5.6-.8 1.3zm5.9 2.9c.3.5 1 .6 1.5.3 1.3-.9 1.1-1.2-.6-1.2-.8 0-1.2.4-.9.9zM159 555c0 .5.5 1 1.1 1 .5 0 .7-.5.4-1-.3-.6-.8-1-1.1-1-.2 0-.4.4-.4 1zm16 12c0 .5.5 1 1.1 1 .5 0 .7-.5.4-1-.3-.6-.8-1-1.1-1-.2 0-.4.4-.4 1zm-39 1c0 .5.5 1 1.1 1 .5 0 .7-.5.4-1-.3-.6-.8-1-1.1-1-.2 0-.4.4-.4 1zm12.6 4.8c-.3.5.1.9.9.9s1.2-.4.9-.9c-.3-.4-.7-.8-.9-.8-.2 0-.6.4-.9.8zm62.9 21.2c-.3.5-.1 1 .4 1 .6 0 1.1-.5 1.1-1 0-.6-.2-1-.4-1-.3 0-.8.4-1.1 1zM631.6 22.2c.3.5 1 .6 1.5.3 1.3-.9 1.1-1.2-.6-1.2-.8 0-1.2.4-.9.9zM598.5 43c-.3.6.1.7.9.4 1.8-.7 2.1-1.4.7-1.4-.6 0-1.3.4-1.6 1zm47.8 7.7c0 .9.4 1 1.4.2.7-.6 1.3-1.2 1.3-1.4 0-.1-.6-.2-1.3-.2-.8 0-1.4.6-1.4 1.4zm-11.2 23c-1 2.6-1 2.7.4.9.8-1.1 1.5-2.3 1.5-2.8 0-1.5-.7-.8-1.9 1.9zM543.5 77c.4.6 1.1.8 1.6.5 1.4-.9 1.1-1.5-.7-1.5-.8 0-1.2.5-.9 1zm-24 14c-.3.5-.1 1 .4 1 .6 0 1.1-.5 1.1-1 0-.6-.2-1-.4-1-.3 0-.8.4-1.1 1zm96 23.1c-.3.4.2.6 1 .5 2.1-.3 2.8-1.3 1-1.3-.9 0-1.8.4-2 .8zm-147 9.9c-.4.6-1.1.7-1.7.4-.7-.4-.8-.2-.4.5.6.9 1.2.9 2.4-.1 1-.7 1.9-1.4 2.1-1.5.2-.2-.1-.3-.7-.3s-1.4.5-1.7 1zM428 147.9c0 .6.4 1.3 1 1.6.6.3.7-.1.4-.9-.7-1.8-1.4-2.1-1.4-.7zm171.8 1.8c.7.3 1.6.2 1.9-.1.4-.3-.2-.6-1.3-.5-1.1 0-1.4.3-.6.6zM396 167.9c0 .6.4 1.3 1 1.6.6.3.7-.1.4-.9-.7-1.8-1.4-2.1-1.4-.7zm187 16.2c0 .5.5.7 1 .4.6-.3 1-.8 1-1.1 0-.2-.4-.4-1-.4-.5 0-1 .5-1 1.1zm-305 57.8c0 .6.4 1.3 1 1.6.6.3.7-.1.4-.9-.7-1.8-1.4-2.1-1.4-.7zM517.2 323c-1 1.6-1 2 .1 2 .7 0 1.3-.9 1.4-2 .1-1.1.1-2 0-2s-.8.9-1.5 2zm-393.4 14.7c.6.2.9 1 .6 1.5-.4.7-.2.8.5.4 1.3-.9.5-2.6-1.2-2.5-.9 0-.8.2.1.6zm356.9 62.7c-.4 1-.1 1.3.9.9.7-.3 1.4-.9 1.4-1.4 0-1.4-1.7-1-2.3.5zm-24.2 51.5c-.3.5 0 1.3.6 1.7.7.4.9.3.5-.4-.3-.5 0-1.3.6-1.5.9-.4 1-.6.1-.6-.6-.1-1.4.3-1.8.8zm83.4 81.8c-1.3 1.7-1.3 1.7.6.3 1.1-.8 2.2-1.6 2.4-1.7.2-.2 0-.3-.6-.3s-1.7.8-2.4 1.7zM15 567.8c0 .5.7.9 1.5.9s1.2-.4.9-.9c-.3-.4-.9-.8-1.5-.8-.5 0-.9.4-.9.8zm10.9 3.9c-1.3 1.7-1.3 1.7.6.3 1.1-.8 2.2-1.6 2.4-1.7.2-.2 0-.3-.6-.3s-1.7.8-2.4 1.7zm12.2 3.9c0 1.1.3 1.4.6.6.3-.7.2-1.6-.1-1.9-.3-.4-.6.2-.5 1.3zm9.4 3.4c-.3.6.1.7.9.4 1.8-.7 2.1-1.4.7-1.4-.6 0-1.3.4-1.6 1zm3.5.6c0 .8.5 1.2 1 .9.6-.4.8-1.1.5-1.6-.9-1.4-1.5-1.1-1.5.7zm30 9.4c0 .5.5 1 1.1 1 .5 0 .7-.5.4-1-.3-.6-.8-1-1.1-1-.2 0-.4.4-.4 1zm342.9 18.7c-1.2 1.6-1.2 1.7.2.6.9-.7 2-.9 2.4-.5.5.4.5.1.1-.6-.9-1.6-1.1-1.5-2.7.5zM164 618c-1.3.8-1.2 1 .3 1 .9 0 1.7-.5 1.7-1 0-1.2-.1-1.2-2 0zm23.5 9c.3.5.8 1 1.1 1 .2 0 .4-.5.4-1 0-.6-.5-1-1.1-1-.5 0-.7.4-.4 1zm42 14c-.3.5-.1 1 .4 1 .6 0 1.1-.5 1.1-1 0-.6-.2-1-.4-1-.3 0-.8.4-1.1 1zm42.1 14.8c-.3.5.1.9.9.9s1.2-.4.9-.9c-.3-.4-.7-.8-.9-.8-.2 0-.6.4-.9.8z"/></svg>