<svg version="1.1" id="Capa_1" xmlns="http://www.w3.org/2000/svg" x="0" y="0" viewBox="-197 320.9 200 200" xml:space="preserve"><style>.st0{fill:#fff}</style><g id="XMLID_2_"><path id="XMLID_36_" class="st0" d="M-35 344.9h-29v-4.4c0-3.7-2.7-6.6-6.1-6.6h-56.8c-3.4 0-6.1 2.9-6.1 6.6v4.4h-26.7c-5.6 0-10.3 4.6-10.3 10v142.5c0 5.6 4.8 10.5 10.3 10.5H-35c5.4 0 10-4.8 10-10.5V354.9c0-5.5-4.5-10-10-10zm-92-4.4c0-.3.1-.5.1-.6h56.7c.1.1.1.3.1.6v15c0 .3-.1.4-.1.4h-7.7l-.7-1.4c-.6-3.7-5.6-5.6-8.3-5.6h-22.7c-3.3 0-7 2.5-7.4 5.8l-.4 1.2h-9.5s-.1-.2-.1-.5v-14.9zm96 156.9c0 2.4-1.9 4.5-4 4.5h-124.7c-2.2 0-4.3-2.2-4.3-4.5V354.9c0-2.1 2-4 4.3-4h26.7v4.6c0 3.7 2.6 6.4 6.1 6.4h11.7c1.3 0 2.4-.8 2.8-2.1l1.2-3.6c.1-.2.1-.5.1-.7.3-.3 1-.7 1.4-.7h22.8c.7 0 2 .5 2.5.9 0 .3.1.5.2.7l1.7 3.6c.5 1.1 1.6 1.7 2.7 1.7h9.6c3.5 0 6.1-2.8 6.1-6.4v-4.4h29c2.2 0 4 1.8 4 4v142.5h.1z"/><path id="XMLID_40_" class="st0" d="M-149.7 398.9h20.3c1.1 0 1.5-.6 1.5-1.8v-16.7l5.9-8.1c.6-.9.5-2.2-.4-2.8-.9-.6-2.1-.2-2.7.8l-4.5 6.6h-20.1c-1.1 0-2.3.4-2.3 1.5v18.8c0 1.1 1.1 1.7 2.3 1.7zm1.7-12l4.5 8h-4.5v-8zm16 8h-5.7l5.7-8.7v8.7zm-8.5-2.5l-5.7-10.8c-.2-.4-.5-.7-.8-.7h14.7l-8.2 11.5z"/><path id="XMLID_45_" class="st0" d="M-149.7 429.9h20.3c1.1 0 1.5-.9 1.5-2v-16.5l5.9-8.1c.6-.9.5-2.2-.4-2.8-.9-.6-2.1-.4-2.7.5l-4.2 6s0-.1-.1-.1h-20.3c-1.1 0-2.3 1.1-2.3 2.3v18.7c0 1.1 1.1 2 2.3 2zm1.7-12l4.4 8h-4.4v-8zm16 8h-5.5l5.5-8.7v8.7zm-.2-15l-8.3 12.1-5.8-10.9c-.3-.6-.6-.9-1.6-1v-.2h15.7z"/><path id="XMLID_50_" class="st0" d="M-128 440.9c0-1.1-.9-2-2-2h-20c-1.1 0-2 .9-2 2v19c0 1.1.9 2 2 2h20c1.1 0 2-.9 2-2v-19zm-20 2h16v15h-16v-15z"/><path id="XMLID_51_" class="st0" d="M-46 471.9h-104c-1.1 0-2 .9-2 2s.9 2 2 2h104c1.1 0 2-.9 2-2s-.9-2-2-2z"/><path id="XMLID_52_" class="st0" d="M-46 484.9h-104c-1.1 0-2 .9-2 2s.9 2 2 2h104c1.1 0 2-.9 2-2s-.9-2-2-2z"/><path id="XMLID_53_" class="st0" d="M-113.6 389.9h47.1c1 0 1.8-1 1.8-2s-.8-2-1.8-2h-47.1c-1 0-1.8 1-1.8 2s.8 2 1.8 2z"/><path id="XMLID_54_" class="st0" d="M-113.6 421.9h47.1c1 0 1.8-1 1.8-2s-.8-2-1.8-2h-47.1c-1 0-1.8 1-1.8 2s.8 2 1.8 2z"/><path id="XMLID_55_" class="st0" d="M-113.6 452.9h47.1c1 0 1.8-1 1.8-2s-.8-2-1.8-2h-47.1c-1 0-1.8 1-1.8 2s.8 2 1.8 2z"/></g></svg>