<svg version="1.1" id="Capa_1" xmlns="http://www.w3.org/2000/svg" x="0" y="0" viewBox="-197 320.9 200 200" xml:space="preserve"><style>.st0{fill:#fff}</style><g id="XMLID_2_"><path id="XMLID_26_" class="st0" d="M-7.4 394.2c-.3-4.7-2.3-19.4-13.2-28.9-.3-.3-7.5-6.4-19.9-6.4-2.8-9-14.3-35-48.7-36h-.1c-27.5 0-42.3 18.4-46.8 25-7-2.7-27-8.1-41.7 9.6-11.1 12.1-7.6 27.5-5.7 33.3-4.5 3.7-14.9 14.2-11.4 31.7v.2c3.5 13.9 16.9 21.4 38 21.4 1.6 0 3.1 0 4.8-.1l-.3-6c-11.9.6-32.6-.8-36.7-16.7-3.4-17.9 10.2-26.5 10.8-26.8l2.2-1.4-1-2.4c-.1-.2-7.2-17.1 3.8-29.2l.1-.1c15-18.1 36-7.6 36.9-7.1l2.6 1.4 1.4-2.5c.6-1 13.8-24.3 42.9-24.3h.1c35.8 1 43.4 32 43.7 33.3l.6 2.4 2.5-.2c11.3-.7 17.7 4.8 18 5.1 10.8 9.4 11.2 25.9 11.2 26.1v1.5l1.2.9c4.6 3.3 10.9 12.4 5.7 25.9-4.6 12-17.3 13.8-18.8 13.9H-43v6h18.3c.7-.1 17.8-1.7 23.9-17.7 5.5-14 .7-25.8-6.6-31.9z"/><path id="XMLID_27_" class="st0" d="M-166.8 377.8c.1-.5 1.8-14 13.8-14v-6c-14 0-18.7 12.6-19.7 19.2l5.9.8z"/><path id="XMLID_30_" class="st0" d="M-99.8 357.8c-21 1.1-36.5 11.1-43.8 28-7.4 17.3-4.8 39.9 6.1 52.7 11.7 13.8 14.8 32.6 15.4 38.3-2.1 1.7-3.4 4.3-3.4 7.2 0 2.7 1.2 5.1 3 6.8a9.1 9.1 0 00-2.5 6.3c0 4.7 3.6 8.6 8.1 9.2-.4 1-.6 2.2-.6 3.3 0 5.1 4.1 9.3 9.3 9.3H-86c5.1 0 9.3-4.1 9.3-9.3 0-1.1-.2-2.2-.6-3.3 5-.1 9.1-4.2 9.1-9.2 0-2.7-1.2-5.1-3-6.8a9.1 9.1 0 002.5-6.3c0-2.5-1-4.7-2.5-6.3.3-9.3 3.1-21.1 6.6-27.1 1-1.8 2.6-3.9 4.3-6.4 4.7-6.6 10.5-14.7 12.7-23.9 1.9-8.2 1.8-31.4-11.4-47.1-9.4-11.2-23.1-16.4-40.8-15.4zm3.3 82.6c-3.6 0-6.5-2.9-6.5-6.5s2.9-6.5 6.5-6.5 6.5 2.9 6.5 6.5-2.9 6.5-6.5 6.5zm18.5 40.5c1.8 0 3.3 1.2 3.3 3s-1.5 3-3.3 3h-38.2c-1.8 0-3.3-1.2-3.3-3s1.5-3 3.3-3H-78zm-8 32h-22.2c-1.8 0-3.3-1.2-3.3-3s1.5-3 3.3-3H-86c1.8 0 3.3 1.2 3.3 3s-1.5 3-3.3 3zm8.5-12h-38.2c-1.8 0-3.3-1.7-3.3-3.5s1.5-3.5 3.3-3.5h38.2c1.8 0 3.3 1.7 3.3 3.5s-1.5 3.5-3.3 3.5zm23.9-82c-1.9 8-7.3 15.6-11.7 21.8-1.9 2.6-3.5 4.9-4.6 6.9-3.6 6.3-6.5 17.5-7.2 27.3h-16.8v-28.8c5.7-1.2 10-6.2 10-12.2 0-6.9-5.6-12.5-12.5-12.5S-109 427-109 433.9c0 5.7 3.8 10.5 9 12v29h-16.2s0-.1-.1-.1c-1-7.5-4.6-26-16.7-40.2-8.2-9.6-12.4-29.7-5.2-46.5 4.5-10.4 14.8-23.1 38.6-24.4 15.7-.8 27.8 3.6 35.8 13.2 12 14.3 11.7 35.8 10.2 42z"/></g></svg>