<svg version="1.1" id="Capa_1" xmlns="http://www.w3.org/2000/svg" x="0" y="0" viewBox="-197 320.9 200 200" xml:space="preserve"><style>.st0{fill:none;stroke:#fff;stroke-width:6;stroke-linecap:round;stroke-linejoin:round;stroke-miterlimit:10}</style><path id="XMLID_2_" class="st0" d="M-171.9 390.3l79.6 71.9 80.6-71.5"/><path id="XMLID_5_" class="st0" d="M-114.6 442l-56.8 52.1"/><path id="XMLID_6_" class="st0" d="M-69.6 442l57 52.1"/><path id="XMLID_1_" d="M-132 388.9h-36.9c-2.6 0-5.1 2.3-5.1 4.9v96.5c0 2.6 2.6 4.6 5.1 4.6h153.8c2.6 0 4.1-2.1 4.1-4.6v-96.5c0-2.6-1.6-4.9-4.1-4.9H-53" fill="none" stroke="#fff" stroke-width="6" stroke-miterlimit="10"/><circle id="XMLID_4_" class="st0" cx="-92.5" cy="388.2" r="39.3"/><path id="XMLID_7_" class="st0" d="M-119.8 398.1l15.8 16.1 36.7-36.1-8.7-8.7-27.8 27.5-7.9-7.3z"/></svg>