<svg version="1.1" id="Capa_1" xmlns="http://www.w3.org/2000/svg" x="0" y="0" viewBox="-197 320.9 200 200" xml:space="preserve"><style>.st0{fill:#fff}</style><g id="XMLID_1_"><path id="XMLID_21_" class="st0" d="M-49.2 499.7H-145c-5.4 0-9.9-4.4-9.9-9.9V357c0-5.4 4.4-9.9 9.9-9.9h95.8c5.4 0 9.9 4.4 9.9 9.9v132.9c0 5.4-4.5 9.8-9.9 9.8zM-145 351.1c-3.2 0-5.9 2.6-5.9 5.9v132.9c0 3.2 2.6 5.9 5.9 5.9h95.8c3.2 0 5.9-2.6 5.9-5.9V357c0-3.2-2.6-5.9-5.9-5.9H-145z"/></g><g id="XMLID_3_"><path id="XMLID_18_" class="st0" d="M-106.2 434c-16.3 0-29.6-13.3-29.6-29.6s13.3-29.6 29.6-29.6 29.6 13.3 29.6 29.6-13.3 29.6-29.6 29.6zm0-55.2c-14.1 0-25.6 11.5-25.6 25.6 0 14.1 11.5 25.6 25.6 25.6s25.6-11.5 25.6-25.6c0-14.1-11.5-25.6-25.6-25.6z"/></g><g id="XMLID_5_"><path id="XMLID_17_" transform="rotate(-135.004 -84.772 428.064)" class="st0" d="M-89.2 426.1h8.8v4h-8.8z"/></g><g id="XMLID_6_"><path id="XMLID_16_" class="st0" d="M-94 452.9h-39c-.8 0-1.5-.7-1.5-1.5s.7-1.5 1.5-1.5h39c.8 0 1.5.7 1.5 1.5s-.7 1.5-1.5 1.5z"/></g><g id="XMLID_7_"><path id="XMLID_15_" class="st0" d="M-61 466.9h-72c-.8 0-1.5-.7-1.5-1.5s.7-1.5 1.5-1.5h72c.8 0 1.5.7 1.5 1.5s-.7 1.5-1.5 1.5z"/></g><g id="XMLID_8_"><path id="XMLID_14_" class="st0" d="M-61 480.9h-72c-.8 0-1.5-.7-1.5-1.5s.7-1.5 1.5-1.5h72c.8 0 1.5.7 1.5 1.5s-.7 1.5-1.5 1.5z"/></g><g id="XMLID_4_"><path id="XMLID_11_" class="st0" d="M-64.6 455.9c-.8 0-1.5-.3-2-.8l-18.6-18.6c-1.1-1.1-1.1-2.9 0-4l4.8-4.8c1.1-1.1 3-1.1 4 0l18.6 18.6c.5.5.8 1.3.8 2s-.3 1.5-.8 2l-4.8 4.8c-.5.5-1.2.8-2 .8zM-83 434.5l18.4 18.4 4.6-4.6-18.4-18.4-4.6 4.6z"/></g><g id="XMLID_10_"><path id="XMLID_9_" class="st0" d="M-93.5 392.2c-.5 0-1-.2-1.3-.7-3.5-5.3-11.3-4.8-11.3-4.8-.8.1-1.5-.6-1.6-1.4-.1-.8.6-1.5 1.4-1.6.4 0 9.6-.6 14 6.2.5.7.3 1.6-.4 2.1-.2.1-.5.2-.8.2z"/></g></svg>