<svg version="1.1" id="Capa_1" xmlns="http://www.w3.org/2000/svg" x="0" y="0" viewBox="-197 320.9 200 200" xml:space="preserve"><style>.st0{fill:#fff}</style><g id="XMLID_2_"><path id="XMLID_24_" class="st0" d="M-54.2 425.4c-21.1 0-38.3 17.2-38.3 38.3S-75.3 502-54.2 502s38.3-17.2 38.3-38.3-17.3-38.3-38.3-38.3zm0 68.5c-16.7 0-30.3-13.6-30.3-30.3 0-16.7 13.6-30.3 30.3-30.3s30.3 13.6 30.3 30.3-13.7 30.3-30.3 30.3z"/><path id="XMLID_25_" class="st0" d="M-50.3 447c-1.6-1.5-4.1-1.4-5.7.2-1.5 1.6-1.4 4.1.2 5.7l7.5 7.1H-72c-2.2 0-4 1.8-4 4s1.8 4 4 4h23.2l-7 6.6c-1.6 1.5-1.7 4-.2 5.7.8.8 1.8 1.3 2.9 1.3 1 0 2-.4 2.7-1.1l14.6-13.8c.8-.8 1.3-1.8 1.3-2.9 0-1.1-.5-2.2-1.3-2.9L-50.3 447z"/><path id="XMLID_28_" class="st0" d="M-98 493.9h-66.8c-.9-.1-5.2-1.2-5.2-8.1V373.9h144v54c0 2.2 1.8 4 4 4s4-1.8 4-4v-70.8c0-11.2-7.6-14.8-11.7-15.2h-134.8c-9.1 0-12.8 7.4-13.4 11.3 0 .2-.1.4-.1.7v131.9c0 11.8 8.3 15.7 12.6 16.1H-98c2.2 0 4-1.8 4-4s-1.8-4-4-4zm-66.5-144h134.3c.7.1 4.2 1 4.2 7.2v8.8h-144v-11.6c.3-1.3 1.5-4.4 5.5-4.4z"/><path id="XMLID_29_" class="st0" d="M-46 410.9c0-2.2-1.8-4-4-4h-96c-2.2 0-4 1.8-4 4s1.8 4 4 4h96c2.2 0 4-1.8 4-4z"/><path id="XMLID_30_" class="st0" d="M-88 426.9c0-2.2-1.8-4-4-4h-54c-2.2 0-4 1.8-4 4s1.8 4 4 4h54c2.2 0 4-1.8 4-4z"/><path id="XMLID_31_" class="st0" d="M-104 438.9h-42c-2.2 0-4 1.8-4 4s1.8 4 4 4h42c2.2 0 4-1.8 4-4s-1.8-4-4-4z"/><path id="XMLID_32_" class="st0" d="M-104 454.9h-42c-2.2 0-4 1.8-4 4s1.8 4 4 4h42c2.2 0 4-1.8 4-4s-1.8-4-4-4z"/></g></svg>