<svg xmlns="http://www.w3.org/2000/svg" viewBox="0 0 53 35"><path d="M4.1 31.7V2.8h44.8v28.6c-.9.3-1.8.9-2.7.9-13.1.1-26.2.1-39.3 0-.9-.1-1.8-.4-2.8-.6zM43.7 5.3H9.3c.4.5.6.7.8.9 5.1 4.5 10.2 8.9 15.3 13.4.9.8 1.4.8 2.4 0 5-4.5 10.1-8.9 15.1-13.3.2-.2.4-.5.8-1zm-.1 24.3c.1-.1.1-.3.2-.4-3.7-3.2-7.3-6.5-11.1-9.7-.3-.2-1.2-.1-1.6.2-1.3 1-2.5 2.1-3.6 3.2-.7.7-1.3.6-2 0-1.1-1-2.3-2-3.4-3-.9-.8-1.5-.8-2.4 0-3.2 2.9-6.5 5.8-9.8 8.7-.3.2-.4.5-.8 1h34.5zm2.6-22.5c-.1-.1-.3-.2-.4-.2-3.9 3.5-7.9 7-11.9 10.5 4.2 3.7 8.1 7.1 12.3 10.8V7.1zm-39.3 21c4.2-3.7 8.1-7.1 12.2-10.8-4.1-3.6-8-7-12.2-10.8v21.6z" fill="#fff"/></svg>