<svg version="1.1" id="Modo_de_aislamiento" xmlns="http://www.w3.org/2000/svg" x="0" y="0" viewBox="0 0 29.2 29.2" xml:space="preserve"><style>.st0{fill:#c02e3d}</style><path class="st0" d="M9.7 11H8.4c-.5 0-.8-.3-.8-.7 0-.4.3-.7.8-.7h1.9c.5 0 .8.3.8.8V18c0 .2-.1.4-.2.6-1.8 3-3.6 5.9-5.3 8.9-.1.1-.1.2-.2.4h17.1c-.1-.1-.1-.2-.2-.3-1.8-2.9-3.5-5.9-5.3-8.8-.2-.3-.3-.6-.3-.9v-7.3c0-.7.2-.9.9-.9h1.8c.5 0 .8.3.8.7 0 .4-.3.7-.8.7h-1.3v6.5c0 .2.1.4.1.5 2 3.3 3.9 6.6 5.9 9.8.2.3.4.7.2 1.1-.2.4-.6.4-1 .4H3.9c-.6-.1-.9-.6-.5-1.2 1-1.7 2.1-3.5 3.1-5.2 1-1.6 2-3.3 2.9-4.9.1-.1.1-.2.1-.4v-6.5c.2-.1.2-.2.2-.2z"/><path class="st0" d="M14 26.4H9.3c-.3 0-.6-.1-.8-.3-.2-.3-.1-.6.1-.9 1.3-2.1 2.5-4.2 3.8-6.3.1-.2.2-.5.2-.8v-1c0-.4.3-.6.7-.6h1.4c.4 0 .7.3.7.7v.1c-.2.9.2 1.7.7 2.4l3.3 5.4c.3.4.3.7 0 1-.2.1-.4.3-.6.3H14zM10.3 25h7.2l-3.6-6c-1.2 2-2.3 4-3.6 6zm5.1-25c1.2 0 2.1.9 2.1 2.1 0 1.2-.9 2.1-2.1 2.1-1.2 0-2.1-.9-2.1-2.1 0-1.2.9-2.1 2.1-2.1zm1.1 2.1c0-.6-.5-1.1-1.1-1.1-.6 0-1.1.5-1.1 1.1 0 .6.5 1.1 1.1 1.1.6 0 1.1-.4 1.1-1.1zm-4.3 2.1c1 0 1.7.8 1.7 1.8s-.8 1.7-1.8 1.7-1.7-.8-1.7-1.8c0-.9.8-1.7 1.8-1.7zm.9 1.8c0-.6-.4-1-1-1s-1 .4-1 1 .4 1 1 1c.6-.1 1-.5 1-1zm1.9 4.2c-.7 0-1.2-.6-1.2-1.2 0-.7.6-1.2 1.2-1.2.7 0 1.2.6 1.2 1.2.1.7-.5 1.2-1.2 1.2zm.6-1.2c0-.3-.2-.5-.5-.5s-.5.2-.5.5.3.5.5.5c.3 0 .5-.2.5-.5z"/></svg>