<svg xmlns="http://www.w3.org/2000/svg" viewBox="0 0 29 29"><path d="M14.5.1C6.5.1.1 6.5.1 14.5s6.4 14.4 14.4 14.4 14.4-6.4 14.4-14.4S22.4.1 14.5.1zm12.9 13.7h-3.8c-.3-4.5-3.9-8.1-8.4-8.4V1.7c6.5.4 11.8 5.6 12.2 12.1zM14.5 17c-1.3 0-2.4-1-2.5-2.4v-.3c.1-1.3 1.2-2.4 2.5-2.4 1.4 0 2.5 1.1 2.5 2.5S15.9 17 14.5 17zm-.7-6.6c-1.7.3-3.1 1.6-3.4 3.4H7c.4-3.6 3.2-6.4 6.8-6.8v3.4zm-3.4 4.8c.3 1.7 1.6 3.1 3.4 3.4v3.5c-3.6-.4-6.5-3.3-6.8-6.9h3.4zm4.8 3.3c1.7-.3 3.1-1.6 3.4-3.4h3.5c-.3 3.7-3.2 6.6-6.9 6.9v-3.5zm3.4-4.7c-.3-1.7-1.6-3.1-3.4-3.4V7c3.6.3 6.5 3.2 6.9 6.8h-3.5zm-4.8-12v3.6c-4.5.3-8.1 3.9-8.4 8.4H1.8c.4-6.5 5.5-11.6 12-12zm-12 13.4h3.6c.3 4.5 3.9 8.1 8.4 8.4v3.8c-6.5-.4-11.7-5.7-12-12.2zm13.4 12.2v-3.8c4.5-.3 8.1-3.9 8.4-8.4h3.8c-.3 6.6-5.6 11.9-12.2 12.2z" fill="#c02e3d"/></svg>