<svg version="1.1" id="Capa_1" xmlns="http://www.w3.org/2000/svg" x="0" y="0" viewBox="0 0 28.3 31.6" xml:space="preserve"><style>.st0{fill:#c02e3d}</style><path class="st0" d="M3.7 14.1H1.2c-.4 0-.7-.3-.7-.7 0-.4.3-.7.7-.7h2.4c.4 0 .7.3.7.7.1.4-.2.7-.6.7zm3.8 7.6l-1.8 1.7c-.3.3-.7.3-1 0-.3-.3-.3-.7 0-1l1.8-1.7c.3-.3.7-.3 1 0 .3.3.3.8 0 1zm13.3 0l1.8 1.7c.3.3.7.3 1 0 .3-.3.3-.7 0-1l-1.8-1.7c-.3-.3-.7-.3-1 0-.3.3-.3.8 0 1zM6.5 6.6L4.9 4.7c-.3-.3-.2-.7.1-1 .3-.3.8-.2 1 .1l1.6 1.8c.3.3.2.8-.1 1-.3.3-.7.3-1 0zm18.1 7.5H27c.4 0 .7-.3.7-.7 0-.4-.3-.7-.7-.7h-2.4c-.4 0-.7.3-.7.7 0 .4.3.7.7.7zm-2.8-7.5l1.6-1.8c.3-.3.2-.8-.1-1-.3-.3-.8-.2-1 .1l-1.6 1.8c-.3.3-.2.8.1 1 .3.2.7.2 1-.1zm-8.2-2.9V1.3c0-.4.3-.7.7-.7.4 0 .7.3.7.7v2.4c0 .4-.3.7-.7.7-.4 0-.7-.3-.7-.7zM11 24.4c-.2 0-.4-.1-.6-.2-.3-.2-.4-.5-.4-.8 0-.5-.3-1.9-1.1-2.6-.6-.4-4.1-3-3.7-7.4.5-4.7 4.1-7.9 9.1-7.9 2.7 0 5.1 1 6.8 2.7 1.5 1.6 2.2 3.7 2 6.2-.2 2.8-1.3 4.8-3.4 5.9-.3.2-.8.7-.8 1 0 .4-.3.8-.7.9l-6.9 2c-.1.2-.2.2-.3.2zm3.3-17.1c-4.1 0-7 2.5-7.4 6.3-.4 3.6 2.9 5.8 2.9 5.8l.1.1c1 .8 1.4 2 1.6 2.9l5.5-1.6c.4-1.1 1.5-1.9 1.7-2 1.6-.9 2.4-2.3 2.6-4.5.1-1.9-.4-3.6-1.6-4.8-1.1-1.5-3.1-2.2-5.4-2.2z"/><path class="st0" d="M18.2 11.1c-.3-.2-.6-.1-.8.2l-3.6 6.3-2-1.9c-.2-.2-.6-.2-.8 0-.2.2-.2.6 0 .8l2.6 2.4c.2.2.6.2.8 0 .1-.1 4.1-7 4.1-7 0-.3-.1-.6-.3-.8zM10.9 27c-.4 0-.8-.3-1-.7-.1-.5.2-1.1.7-1.2l7.5-2.1c.5-.1 1.1.2 1.2.7s-.2 1.1-.7 1.2L11.1 27h-.2zm7.5 1.2c.4-.1.6-.5.4-.8v-.1c0-.1-.1-.2-.1-.2h.1c.4-.1.6-.5.4-.8v-.1c-.1-.4-.5-.6-.8-.4l-7.6 2.3c-.4.1-.6.5-.4.8v.1c.1.3.5.5.8.4v.4c.1.4.5.6.8.4h.2s1 1.3 3.4.5c2.4-.9 2.3-2.2 2.3-2.2"/></svg>