<svg xmlns="http://www.w3.org/2000/svg" viewBox="0 0 29.2 29.2"><path d="M22.5 18.7c2 2 4 4 6.1 6 .8.8.9 1.4 0 2.2-.7.6-1.3 1.2-1.9 1.9-.6.7-1.1.7-1.8 0-1.8-1.9-3.7-3.7-5.5-5.5-.5-.5-.9-.6-1.6-.3-4.2 2.1-8.4 2-12.4-.6C1.4 19.6-.3 15.7 0 11 .5 4.9 5.8.1 12 0c6.2-.1 11.5 4.5 12.2 10.6.4 2.9-.2 5.5-1.7 8.1m.3-6.6c0-5.8-4.8-10.6-10.6-10.6-5.9 0-10.7 4.8-10.6 10.7 0 5.8 4.8 10.6 10.6 10.6S22.8 18 22.8 12.1m4.4 13.7c-1.8-1.8-3.7-3.7-5.6-5.7-.4.5-.9 1.1-1.3 1.5 1.8 1.9 3.7 3.7 5.7 5.7l1.2-1.5" fill="#c02e3d"/></svg>