<svg baseProfile="tiny" xmlns="http://www.w3.org/2000/svg" xmlns:xlink="http://www.w3.org/1999/xlink" viewBox="0 0 180 180"><image width="530" height="626" xlink:href="F4F0698A.jpg" transform="translate(-8102 -8102)"/><path fill="#FFF" d="M84.8 51h20.4c1.9 0 1.8 0 2 1.9.3 3.2-1.5 5.8-2.8 8.4-4.2 8.2-9.5 15.7-15.9 22.4-.5.5-1.4.9-2.1.9-4.5.1-4.5.1-7.5-3.3-4.8-5.5-9.2-11.2-12.5-17.7-1.2-2.4-2.5-4.8-3.3-7.3-.5-1.4-.2-3-.2-4.5 0-.2.9-.6 1.3-.6h13.6c2.3-.2 4.6-.2 7-.2zm37.2 52.2c-14.1 0-25.5 11.4-25.5 25.5s11.4 25.5 25.5 25.5 25.5-11.4 25.5-25.5-11.4-25.5-25.5-25.5zm10.4 26.9l-9 9c-.4.4-.9.5-1.4.4-.5.1-1 0-1.4-.4l-9-9c-.6-.6-.6-1.6 0-2.3.6-.6 1.6-.6 2.3 0l6.6 6.6v-16.9c0-.9.7-1.6 1.6-1.6.9 0 1.6.7 1.6 1.6v16.9l6.6-6.6c.6-.6 1.6-.6 2.3 0 .5.6.5 1.7-.2 2.3z"/><path fill="#FFF" d="M88.9 133.7H54.1c-.9.1-1.2-.4-1.2-1.3-.5-5.3.9-10.2 3.4-14.8 4.4-8.2 9-16.3 13.4-24.5.9-1.6 1.7-3.3 2.5-5 .6-1.5.1-2.9-.6-4.2-4-7.3-8.1-14.5-12-21.9-2.5-4.6-5.2-9.1-6.2-14.2-.5-2.3-.3-4.8-.3-7.3 0-.3.8-.9 1.3-1 1.1-.1 2.3 0 3.4 0h57.1c1.9 0 1.8 0 2 1.9.7 6.2-1.7 11.5-4.5 16.6-4.1 7.6-8.4 15.1-12.6 22.7-.7 1.2-1.3 2.4-1.9 3.6-.8 1.6-.8 3.1 0 4.6 2 3.6 4.1 7.3 6.1 10.9 1.9-1.1 3.9-2.1 6-2.8-1.7-2.9-3.5-5.8-5.2-8.8-.7-1.2-.7-2.2 0-3.4 4.7-8.2 9.5-16.4 14-24.8 1.8-3.3 3-7 4-10.6.7-2.7.5-5.7.6-8.5 0-1.1.4-1.6 1.5-1.5h4.8V27.5c0-1-.8-.8-1.3-.8H41.9c-1 0-1.4.3-1.4 1.4.1 3.3.1 6.7 0 10 0 1.1.4 1.4 1.4 1.3 1.1-.1 2.2.1 3.3 0 1.2-.1 1.7.3 1.7 1.6-.1 2.1-.2 4.3.1 6.4.6 4 2.2 7.7 3.8 11.4C55 67.9 60.2 76.4 65.3 85c.6 1.1.8 1.8.1 3-4.5 7.7-8.9 15.5-13.2 23.3-2.3 4.3-4.4 8.8-5.1 13.7-.4 2.4-.3 4.9-.3 7.3 0 .9-.3 1.3-1.2 1.3-1.2-.1-2.5 0-3.7 0-1 0-1.4.4-1.4 1.5.1 2.8.1 5.6 0 8.5 0 1.2.4 1.5 1.6 1.5H94c-2.6-3.4-4.3-7.2-5.1-11.4z"/><path fill="#FFF" d="M88 128.2c0-4.6 1-9 2.7-13l-2.7-3.3c-1.6-1.9-1.7-1.9-4.2-1.8-.4 0-.9.2-1.2.5-3.6 3.7-6.5 7.9-8.8 12.5-.7 1.4-1.7 2.9-1.6 4.6.1 1 0 1 1.1 1h14.6c.1-.2.1-.4.1-.5z"/></svg>