<svg version="1.1" id="Capa_1" xmlns="http://www.w3.org/2000/svg" x="0" y="0" viewBox="0 0 180 180" xml:space="preserve"><style>.st0{fill:#fff}</style><g id="XMLID_2_"><g id="XMLID_1_"><path id="XMLID_6_" class="st0" d="M164.2 86.7h-9c-1.5 0-2.6 1.2-2.6 2.6v8.9c0 1.5 1.2 2.6 2.6 2.6h.6v14.6c0 1.5 1.2 2.6 2.6 2.6h2.6c1.5 0 2.6-1.2 2.6-2.6v-14.6h.6c1.5 0 2.6-1.2 2.6-2.6v-8.9c.1-1.4-1.1-2.6-2.6-2.6z"/><circle id="XMLID_5_" class="st0" cx="159.9" cy="79.9" r="3.8"/></g><g id="XMLID_4_"><path id="XMLID_12_" class="st0" d="M37.2 86.7h-9c-1.5 0-2.6 1.2-2.6 2.6v8.9c0 1.5 1.2 2.6 2.6 2.6h.6v14.6c0 1.5 1.2 2.6 2.6 2.6H34c1.5 0 2.6-1.2 2.6-2.6v-14.6h.6c1.5 0 2.6-1.2 2.6-2.6v-8.9c0-1.4-1.1-2.6-2.6-2.6z"/><circle id="XMLID_11_" class="st0" cx="32.9" cy="79.9" r="3.8"/></g><g id="XMLID_13_"><g id="XMLID_15_"><path id="XMLID_35_" class="st0" d="M52.7 118.5h-2.6c-1.7 0-3.1-1.4-3.1-3.1v-14.2h-.2c-1.7 0-3.1-1.4-3.1-3.1v-8.9c0-1.7 1.4-3.1 3.1-3.1h9c1.7 0 3.1 1.4 3.1 3.1v8.9c0 1.7-1.4 3.1-3.1 3.1h-.2v14.2c.2 1.7-1.2 3.1-2.9 3.1zm-5.8-31.4c-1.2 0-2.2 1-2.2 2.2v8.9c0 1.2 1 2.2 2.2 2.2h1v15c0 1.2 1 2.2 2.2 2.2h2.6c1.2 0 2.2-1 2.2-2.2v-15h1c1.2 0 2.2-1 2.2-2.2v-8.9c0-1.2-1-2.2-2.2-2.2h-9z"/></g><g id="XMLID_14_"><path id="XMLID_18_" class="st0" d="M51.6 84c-2.3 0-4.2-1.9-4.2-4.2s1.9-4.2 4.2-4.2 4.2 1.9 4.2 4.2-1.9 4.2-4.2 4.2zm0-7.5c-1.8 0-3.3 1.5-3.3 3.3s1.5 3.3 3.3 3.3 3.3-1.5 3.3-3.3c0-1.8-1.5-3.3-3.3-3.3z"/></g></g><path id="XMLID_9_" class="st0" d="M130.7 44.6H16.8c-2 0-3.6 1.6-3.6 3.6v83.5c0 2 1.6 3.6 3.6 3.6h113.9c2 0 3.6-1.6 3.6-3.6V48.3c.1-2.1-1.6-3.7-3.6-3.7zM35 48l11.6 6.1L35 60.3V48zm-6.6 0v12.2l-11.6-6.1L28.4 48zm102.9 82.9c0 .6-.5 1.1-1.1 1.1H17c-.6 0-1.1-.5-1.1-1.1V64.5c0-.6.5-1.1 1.1-1.1h113.2c.6 0 1.1.5 1.1 1.1v66.4zm0-71.7c0 .6-.5 1.1-1.1 1.1H51.5c-.6 0-1.1-.5-1.1-1.1V49.1c0-.6.5-1.1 1.1-1.1h78.6c.6 0 1.1.5 1.1 1.1l.1 10.1z"/><circle id="XMLID_3_" class="st0" cx="64.8" cy="85.9" r="1.7"/><circle id="XMLID_19_" class="st0" cx="71.3" cy="86.7" r="1.7"/><circle id="XMLID_20_" class="st0" cx="78" cy="88.4" r="1.7"/><circle id="XMLID_21_" class="st0" cx="84.4" cy="91.3" r="1.7"/><circle id="XMLID_22_" class="st0" cx="90.2" cy="95.5" r="1.7"/><circle id="XMLID_23_" class="st0" cx="95.8" cy="99.9" r="1.7"/><circle id="XMLID_24_" class="st0" cx="100.8" cy="105.1" r="1.7"/><circle id="XMLID_25_" class="st0" cx="104.9" cy="110.6" r="1.7"/><circle id="XMLID_26_" class="st0" cx="108.8" cy="117.1" r="1.7"/><circle id="XMLID_27_" class="st0" cx="110.5" cy="110.6" r="1.7"/><circle id="XMLID_28_" class="st0" cx="115.1" cy="105.1" r="1.7"/><circle id="XMLID_29_" class="st0" cx="120" cy="99.9" r="1.7"/><circle id="XMLID_30_" class="st0" cx="126.1" cy="97.2" r="1.7"/><circle id="XMLID_31_" class="st0" cx="139.8" cy="93" r="1.7"/><circle id="XMLID_32_" class="st0" cx="146.8" cy="92.7" r="1.7"/></g></svg>