<svg baseProfile="tiny" xmlns="http://www.w3.org/2000/svg" xmlns:xlink="http://www.w3.org/1999/xlink" viewBox="0 0 180 180"><image width="530" height="626" xlink:href="6804582.jpg" transform="translate(-8102 -8102)"/><g fill="#FFF"><path d="M62.1 144.4c2.3-3.9 4.5-7.7 6.7-11.5 2.6 1 5.1 2 7.7 2.8 26.3 8 54.1-8.2 60.2-35 6-26.4-11.2-52.7-38.1-57.4-15.1-2.8-28.8 1.1-40.8 10.7-.7.6-1.4 1.3-2.2 2l10.6 10.6c-12.5 2.3-24.9 4.5-37.5 6.9 2.3-12.6 4.6-25 6.8-37.4 3.5 3.5 6.9 7 10.4 10.4 5.3-5.1 11.1-9.1 17.6-11.8 24.8-10.2 47.7-7.4 68 10.6 10.8 9.6 17.1 21.9 19 36.3 2.4 17.8-2.1 33.8-13.6 47.6-10.2 12.3-23.5 19.5-39.4 21.5-11.9 1.5-23.3-.4-34.1-5.6-.3-.2-.7-.4-1.3-.7z"/><path d="M120.9 102.1H82.1v-42h12V90h26.8v12.1zm-77.4 27.5c3.7-2.6 7.3-5.2 10.9-7.7 2.3 2.2 4.6 4.2 7 6.4-2.2 3.7-4.4 7.6-6.7 11.6-4.2-3-7.9-6.4-11.2-10.3zm-11.6-19.9c4.8-1.2 9-2.3 13.2-3.4 1.3 2.8 2.6 5.5 4.1 8.5-3.5 2.5-7.2 5.1-11.1 7.9-2.1-4.4-4.1-8.6-6.2-13zm-2.1-8.5c-.3-4.2-.7-8.2-1-12.4h13.5c.2 2.9.4 5.9.7 9-4.3 1.1-8.6 2.2-13.2 3.4z"/></g></svg>