<svg xmlns="http://www.w3.org/2000/svg" preserveAspectRatio="xMidYMid" width="24.594" height="24.969"><path d="M21.089 24.965h-3.515c-1.941 0-3.515-1.597-3.515-3.567v-3.566c0-1.97 1.574-3.567 3.515-3.567h3.515c1.941 0 3.515 1.597 3.515 3.567v3.566c0 1.97-1.574 3.567-3.515 3.567zm1.758-7.133c0-.985-.787-1.784-1.758-1.784h-3.515c-.97 0-1.757.799-1.757 1.784v3.566c0 .985.787 1.784 1.757 1.784h3.515c.971 0 1.758-.799 1.758-1.784v-3.566zm-1.758-7.133h-3.515c-1.941 0-3.515-1.597-3.515-3.566V3.566c0-1.97 1.574-3.567 3.515-3.567h3.515c1.941 0 3.515 1.597 3.515 3.567v3.567c0 1.969-1.574 3.566-3.515 3.566zm1.758-7.133c0-.985-.787-1.784-1.758-1.784h-3.515c-.97 0-1.757.799-1.757 1.784v3.567c0 .984.787 1.783 1.757 1.783h3.515c.971 0 1.758-.799 1.758-1.783V3.566zM7.03 24.965H3.515C1.574 24.965 0 23.368 0 21.398v-3.566c0-1.97 1.574-3.567 3.515-3.567H7.03c1.941 0 3.515 1.597 3.515 3.567v3.566c0 1.97-1.574 3.567-3.515 3.567zm1.757-7.133c0-.985-.787-1.784-1.757-1.784H3.515c-.971 0-1.758.799-1.758 1.784v3.566c0 .985.787 1.784 1.758 1.784H7.03c.97 0 1.757-.799 1.757-1.784v-3.566zM7.03 10.699H3.515C1.574 10.699 0 9.102 0 7.133V3.566C0 1.596 1.574-.001 3.515-.001H7.03c1.941 0 3.515 1.597 3.515 3.567v3.567c0 1.969-1.574 3.566-3.515 3.566zm1.757-7.133c0-.985-.787-1.784-1.757-1.784H3.515c-.971 0-1.758.799-1.758 1.784v3.567c0 .984.787 1.783 1.758 1.783H7.03c.97 0 1.757-.799 1.757-1.783V3.566z" fill="#fff" opacity=".8" fill-rule="evenodd"/></svg>