<svg data-name="Capa 1" xmlns="http://www.w3.org/2000/svg" viewBox="0 0 24.6 24.97"><path d="M21.09 25h-3.52a3.54 3.54 0 01-3.51-3.57v-3.6a3.54 3.54 0 013.51-3.57h3.52a3.54 3.54 0 013.51 3.57v3.57a3.54 3.54 0 01-3.51 3.6zm1.76-7.13A1.77 1.77 0 0021.09 16h-3.52a1.77 1.77 0 00-1.76 1.78v3.62a1.77 1.77 0 001.76 1.78h3.52a1.77 1.77 0 001.76-1.78zm-1.76-7.17h-3.52a3.54 3.54 0 01-3.51-3.57V3.57A3.54 3.54 0 0117.57 0h3.52a3.54 3.54 0 013.51 3.57v3.56a3.54 3.54 0 01-3.51 3.57zm1.76-7.13a1.77 1.77 0 00-1.76-1.78h-3.52a1.77 1.77 0 00-1.76 1.78v3.56a1.77 1.77 0 001.76 1.78h3.52a1.77 1.77 0 001.76-1.78zM7 25H3.52A3.54 3.54 0 010 21.4v-3.57a3.54 3.54 0 013.52-3.57H7a3.54 3.54 0 013.51 3.57v3.57A3.54 3.54 0 017 25zm1.76-7.13A1.77 1.77 0 007 16H3.52a1.77 1.77 0 00-1.76 1.78v3.62a1.77 1.77 0 001.76 1.78H7a1.77 1.77 0 001.79-1.78zM7 10.7H3.52A3.54 3.54 0 010 7.13V3.57A3.54 3.54 0 013.52 0H7a3.54 3.54 0 013.51 3.57v3.56A3.54 3.54 0 017 10.7zm1.79-7.13A1.77 1.77 0 007 1.78H3.52a1.77 1.77 0 00-1.76 1.79v3.56a1.77 1.77 0 001.76 1.79H7a1.77 1.77 0 001.79-1.79z" style="isolation:isolate" fill="#211915"/></svg>