<svg xmlns="http://www.w3.org/2000/svg" viewBox="0 0 28 28"><path d="M24 16h-4c-2.2 0-4 1.8-4 4v4c0 2.2 1.8 4 4 4h4c2.2 0 4-1.8 4-4v-4c0-2.2-1.8-4-4-4zm2 8c0 1.1-.9 2-2 2h-4c-1.1 0-2-.9-2-2v-4c0-1.1.9-2 2-2h4c1.1 0 2 .9 2 2v4zM8 16H4c-2.2 0-4 1.8-4 4v4c0 2.2 1.8 4 4 4h4c2.2 0 4-1.8 4-4v-4c0-2.2-1.8-4-4-4zm2 8c0 1.1-.9 2-2 2H4c-1.1 0-2-.9-2-2v-4c0-1.1.9-2 2-2h4c1.1 0 2 .9 2 2v4zM24 0h-4c-2.2 0-4 1.8-4 4v4c0 2.2 1.8 4 4 4h4c2.2 0 4-1.8 4-4V4c0-2.2-1.8-4-4-4zm2 8c0 1.1-.9 2-2 2h-4c-1.1 0-2-.9-2-2V4c0-1.1.9-2 2-2h4c1.1 0 2 .9 2 2v4zM8 0H4C1.8 0 0 1.8 0 4v4c0 2.2 1.8 4 4 4h4c2.2 0 4-1.8 4-4V4c0-2.2-1.8-4-4-4zm2 8c0 1.1-.9 2-2 2H4c-1.1 0-2-.9-2-2V4c0-1.1.9-2 2-2h4c1.1 0 2 .9 2 2v4z"/></svg>