<svg version="1.1" id="Capa_1" xmlns="http://www.w3.org/2000/svg" x="0" y="0" viewBox="0 0 169 128" xml:space="preserve"><style>.st0{fill:#fff}</style><path id="XMLID_179_" class="st0" d="M169 128H0V0h169v128zM158 24.3H8.4v79.4H158V24.3zM13.6 119.9c3.5-.1 7.7.8 7.5-5.1-.2-5.1-.8-5.6-7.5-5.8-4-.1-7.3.2-7.4 5.5 0 5.3 3.5 5.6 7.4 5.4zm139.9 0c6.9 0 8.1-.9 8.3-5.2.2-4.9-2.7-5.7-6.7-5.7-7.2.1-7.9.6-8.2 5.6-.3 5.7 3.6 5.3 6.6 5.3zm-55.6 0c6.6 0 9.3-2.9 7.1-8-1.9-4.6-6.2-2.5-9.6-2.8-3.1-.3-4.7 1.5-4.7 4.9.2 5.2.8 5.9 7.2 5.9zm-56.5-11.6c-2.1.9-5.3 1.3-6.1 2.9-1 2-.7 7 .2 7.3 3.5 1.1 7.4 1.2 11 .9 1-.1 2.3-2.9 2.4-4.5.4-5.2-.7-5.9-7.5-6.6zm28 11.5c4.3 0 7.9.5 7.8-5.4-.1-5.6-3.4-5.5-7.3-5.5s-7.2-.1-7.2 5.5c0 5.7 3.4 5.5 6.7 5.4zm56.5 0c3.7.1 7.5.5 7.5-5.5 0-5.8-3.6-5.3-7.3-5.3-3.9-.1-7.2 0-7.2 5.6-.1 5.3 3.1 5.4 7 5.2zM13.4 17.2c3.5-.3 7.8 1.5 7.8-5.1S16.8 7.3 13.4 7c-.8-.1-1.7 0-2.5 0-3.2-.2-4.5 1.4-4.7 4.4-.4 4.7.9 5.8 7.2 5.8zM43 7c-1.4 0-2.1.1-2.7 0-4.4-.7-5.9 1.6-6 5.6 0 4.3 2.5 4.8 5.9 4.6 1.3-.1 2.7-.1 4 0 3.6.3 4.9-1.1 5.1-4.8.2-5.8-3.1-5.8-6.3-5.4zm82.9 10.1c7.2 0 9.2-2.1 7.4-7.5-1.6-4.7-5.6-2.4-8.6-2.6-5.6-.3-6.3.7-5.9 6.2.3 5.9 4.7 3.2 7.1 3.9zm27.9 0c.8 0 1.7-.1 2.5 0 3.7.4 5.7-1 5.6-5-.1-3.7-1.6-5.6-5.5-5.2-1.6.2-3.3.1-5 0-3.1-.2-4.5 1-4.5 4.3-.1 5.6.1 5.9 6.9 5.9zm-85.4.1c4.7-.2 9 1.4 9-5.2 0-6.1-3.8-5-7.4-5-3.6 0-7.6-.9-7.8 4.9-.1 5.5 3.4 5.6 6.2 5.3zm29.2-.1h1.5c3.8.4 6.6-.3 6.6-5 0-4.5-2.5-5.6-6.4-5.2-1.3.1-2.7.1-4 0-3.2-.3-4.5 1.2-4.6 4.3-.3 5.2.5 5.9 6.9 5.9z"/><path id="XMLID_162_" class="st0" d="M69.2 91.1v-54c13.3 9 26.1 17.7 39.8 27-13.5 9.1-26.4 17.9-39.8 27z"/></svg>