<svg version="1.1" id="Capa_1" xmlns="http://www.w3.org/2000/svg" x="0" y="0" viewBox="0 0 102.5 128.5" xml:space="preserve"><style>.st0{fill:#fff}</style><g id="XMLID_86_"><path id="XMLID_87_" class="st0" d="M71.7 124.7H10c-2.8 0-5-2.2-5-5V8.8c0-2.8 2.2-5 5-5h83c2.8 0 5 2.2 5 5V96c0 .8-.7 1.5-1.5 1.5H75.2c-1.1 0-2 .9-2 2v23.7c0 .8-.7 1.5-1.5 1.5zM10 6.8c-1.1 0-2 .9-2 2v110.9c0 1.1.9 2 2 2h60.2V99.5c0-2.8 2.2-5 5-5H95V8.8c0-1.1-.9-2-2-2H10z"/></g><g id="XMLID_82_"><path id="XMLID_83_" class="st0" d="M71.7 124.7c-.2 0-.4 0-.5-.1-.6-.2-1-.8-1-1.4v-22.9c0-1.9.8-3.1 1.4-3.7 1.3-1.3 3.1-1.3 3.5-1.3l21.4-.5c.6 0 1.2.3 1.4.9.2.5.1 1.2-.3 1.6l-24.8 26.8c-.3.4-.7.6-1.1.6zM75 98.3c-.2 0-.9.1-1.3.5-.3.3-.5.8-.5 1.5v19.1L93 97.9l-17.9.4H75z"/></g><g id="XMLID_15_"><path id="XMLID_81_" class="st0" d="M51.7 74.1L39.3 86.6c3.2 3 7.5 4.9 12.3 4.9 9.7 0 17.5-7.7 17.9-17.3H51.7z"/><path id="XMLID_80_" class="st0" d="M52.3 71.1h16.9C68.1 62.6 61 56 52.3 55.7v15.4z"/><path id="XMLID_79_" class="st0" d="M49.3 72.2V55.8c-8.9 1.1-15.7 8.6-15.7 17.8 0 4 1.4 7.8 3.6 10.8l12.1-12.2z"/></g><path id="XMLID_14_" class="st0" d="M60 29.8h26.5v4.8H60z"/><path id="XMLID_13_" class="st0" d="M60 20.1h26.5v4.8H60z"/><path id="XMLID_12_" class="st0" d="M60 40.8h26.5v4.8H60z"/><path id="XMLID_11_" class="st0" d="M16.8 98.7h45.8v4.8H16.8z"/><path id="XMLID_10_" class="st0" d="M16.8 109.7h45.8v4.8H16.8z"/><path id="XMLID_7_" class="st0" d="M32 42.9c-1.1-.1-2.3-.3-3.4-.7-.9-.3-1.7-.5-2.5-.9-1-.4-2-.9-2.9-1.4-.9-.5-1.7-1.1-2.5-1.7-1.2-.9-2.2-1.9-3.1-3.1-.4-.6-.9-1.2-1.2-1.9-.3-.6-.2-1.2.2-1.8 1-1.7 2.2-3.1 3.7-4.3 1.3-1 2.7-1.9 4.2-2.6 1.1-.5 2.2-1 3.3-1.3.9-.3 1.8-.5 2.8-.7 1-.2 2.1-.3 3.1-.4.9-.1 1.9-.1 2.8-.1.8 0 1.6.1 2.5.2 1.2.1 2.3.4 3.4.7 1.1.3 2.3.7 3.3 1.2l2.4 1.2c1 .6 1.9 1.3 2.8 2 1.1.9 1.9 1.9 2.7 3 .4.6.9 1.1 1 1.9.1.6-.2 1.2-.5 1.7-.9 1.4-1.9 2.6-3.2 3.7-.8.7-1.7 1.4-2.7 1.9-.9.5-1.8 1-2.8 1.5-.8.4-1.7.6-2.6.9-.6.2-1.1.4-1.7.5-.7.2-1.5.3-2.2.4l-3 .3h-.5c.1.1-2.2-.1-3.4-.2zm3.7-1.5c.7 0 1.5 0 2.2-.1 1-.1 1.9-.3 2.9-.5 1.1-.3 2.1-.6 3.1-1 .9-.3 1.7-.8 2.5-1.2 1.1-.6 2.2-1.4 3.1-2.2 1-.9 1.9-2 2.6-3.1.2-.3.4-.6.2-1-.4-.6-.8-1.3-1.3-1.9-.7-.9-1.6-1.7-2.6-2.4-.9-.7-1.9-1.3-3-1.8s-2.3-1-3.6-1.3l-2.4-.6c-.7-.1-1.5-.2-2.2-.2-1.7-.2-3.5 0-5.2.2-1 .1-2 .3-2.9.7-1.1.4-2.3.8-3.4 1.3-1.2.6-2.4 1.3-3.4 2.2-1.4 1.1-2.5 2.4-3.4 3.9-.1.2-.1.5 0 .7.4.5.7 1.1 1.1 1.6.8 1 1.7 2 2.7 2.7.8.5 1.5 1 2.3 1.5.8.5 1.7.9 2.6 1.2.8.3 1.6.5 2.5.7.7.2 1.5.3 2.2.4 1.1 0 3.4.2 3.4.2z"/><path id="XMLID_4_" class="st0" d="M35.5 39.9c-1.3 0-2.6-.4-3.7-1-1.2-.6-2.1-1.5-2.8-2.7-.4-.7-.7-1.5-.9-2.3-.2-1-.1-1.9.1-2.9.4-1.5 1.1-2.7 2.3-3.7.5-.5 1.1-.9 1.8-1.2.7-.3 1.4-.6 2.2-.6.4 0 .8-.1 1.2-.1.9 0 1.8.2 2.7.6 1.5.6 2.6 1.6 3.4 2.9.5.8.8 1.6 1 2.5.1.7.1 1.4 0 2.1-.2 1.7-1 3.1-2.2 4.3-.9.8-1.9 1.4-3.1 1.7-.1 0-.3.1-.4.1-.4.1-1 .2-1.6.3zm0-1.7c.5-.1 1-.1 1.5-.2.9-.2 1.7-.7 2.4-1.3.8-.8 1.4-1.6 1.7-2.7.2-.8.2-1.5.1-2.3-.1-.8-.4-1.5-.8-2.1-.9-1.2-2-2.1-3.5-2.4-1.2-.3-2.4-.2-3.6.3-.8.4-1.6.9-2.2 1.6-.5.7-.9 1.4-1.1 2.3-.2.9-.2 1.8.1 2.7.2.8.6 1.5 1.1 2 1.1 1.4 2.6 2.1 4.3 2.1z"/><path id="XMLID_2_" class="st0" d="M31.1 32.4c0-1 .4-1.8 1-2.5s1.4-1.2 2.3-1.4c.4-.1.8-.1 1.2-.1.2 0 .3.2.4.4 0 .2-.1.4-.3.5-.2.1-.5.1-.7.1-.8.1-1.4.4-1.9 1-.6.6-.9 1.3-.9 2.2 0 .3-.2.6-.6.5-.3 0-.5-.2-.5-.5v-.2z"/></svg>