<svg version="1.1" id="Capa_1" xmlns="http://www.w3.org/2000/svg" x="0" y="0" viewBox="0 0 102.5 128.5" xml:space="preserve"><style>.st0{fill:#fff}</style><g id="XMLID_5_"><path id="XMLID_83_" class="st0" d="M71.7 125H10c-2.8 0-5-2.2-5-5V9.1c0-2.8 2.2-5 5-5h83c2.8 0 5 2.2 5 5v87.2c0 .8-.7 1.5-1.5 1.5H75.2c-1.1 0-2 .9-2 2v23.7c0 .8-.7 1.5-1.5 1.5zM10 7.1c-1.1 0-2 .9-2 2V120c0 1.1.9 2 2 2h60.2V99.8c0-2.8 2.2-5 5-5H95V9.1c0-1.1-.9-2-2-2H10z"/></g><g id="XMLID_2_"><path id="XMLID_80_" class="st0" d="M71.7 125c-.2 0-.4 0-.5-.1-.6-.2-1-.8-1-1.4v-22.9c0-1.9.8-3.1 1.4-3.7 1.3-1.3 3.1-1.3 3.5-1.3l21.4-.5c.6 0 1.2.3 1.4.9.2.5.1 1.2-.3 1.6l-24.8 26.8c-.3.4-.7.6-1.1.6zM75 98.6c-.2 0-.9.1-1.3.5-.3.3-.5.8-.5 1.5v19.1L93 98.2l-17.9.4H75z"/></g><g id="XMLID_4_"><path class="st0" d="M35.1 43.2L22.7 55.6c3.2 3 7.5 4.9 12.3 4.9 9.7 0 17.5-7.7 17.9-17.3H35.1z" id="XMLID_6_"/><path class="st0" d="M35.8 40.2h16.9c-1.1-8.5-8.2-15.1-16.9-15.4v15.4z" id="XMLID_8_"/><path class="st0" d="M32.8 41.2V24.8C23.9 25.9 17 33.4 17 42.6c0 4 1.4 7.8 3.6 10.8l12.2-12.2z" id="XMLID_9_"/></g><path class="st0" d="M18.3 71h66.3v4.8H18.3z" id="XMLID_10_"/><path class="st0" d="M18.3 81.5h66.3v4.8H18.3z" id="XMLID_11_"/><path class="st0" d="M18.3 91.9h38v4.8h-38z" id="XMLID_12_"/><path class="st0" d="M18.3 102.9h38v4.8h-38z" id="XMLID_15_"/><path class="st0" d="M80.2 26.1h4.5v30.5h-4.5z" id="XMLID_7_"/><path class="st0" d="M71.2 37.8h4.5v18.8h-4.5z" id="XMLID_13_"/><path class="st0" d="M62.2 48.8h4.5v7.8h-4.5z" id="XMLID_14_"/></svg>