<svg version="1.1" id="Capa_1" xmlns="http://www.w3.org/2000/svg" x="0" y="0" viewBox="0 0 102.5 128.5" xml:space="preserve"><style>.st0{fill:#fff}</style><g id="XMLID_128_"><path id="XMLID_129_" class="st0" d="M71.4 124.7H9.7c-2.8 0-5-2.2-5-5V8.8c0-2.8 2.2-5 5-5h83c2.8 0 5 2.2 5 5V96c0 .8-.7 1.5-1.5 1.5H74.9c-1.1 0-2 .9-2 2v23.7c0 .8-.7 1.5-1.5 1.5zM9.7 6.8c-1.1 0-2 .9-2 2v110.9c0 1.1.9 2 2 2h60.2V99.5c0-2.8 2.2-5 5-5h19.8V8.8c0-1.1-.9-2-2-2h-83z"/></g><g id="XMLID_124_"><path id="XMLID_125_" class="st0" d="M71.4 124.7c-.2 0-.4 0-.5-.1-.6-.2-1-.8-1-1.4v-22.9c0-1.9.8-3.1 1.4-3.7 1.3-1.3 3.1-1.3 3.5-1.3l21.4-.5c.6 0 1.2.3 1.4.9.2.5.1 1.2-.3 1.6l-24.8 26.8c-.3.4-.7.6-1.1.6zm3.3-26.4c-.2 0-.9.1-1.3.5-.3.3-.5.8-.5 1.5v19.1L92.7 98l-17.9.4c0-.1 0-.1-.1-.1z"/></g><path id="XMLID_123_" class="st0" d="M18.1 51.7h66.3v4.8H18.1z"/><path id="XMLID_122_" class="st0" d="M18.1 62.2h66.3V67H18.1z"/><path id="XMLID_121_" class="st0" d="M50.4 21h30.5v4.5H50.4z"/><path id="XMLID_120_" class="st0" d="M50.4 30h18.8v4.5H50.4z"/><path id="XMLID_119_" class="st0" d="M50.4 39h7.8v4.5h-7.8z"/><circle id="XMLID_118_" class="st0" cx="33.8" cy="27.2" r="4.6"/><path id="XMLID_117_" class="st0" d="M33.8 40.3c3.2 0 6.1-1.2 8.4-3.1-1.5-2.8-4.7-4.7-8.4-4.7s-6.8 1.9-8.4 4.7c2.3 2 5.2 3.1 8.4 3.1z"/><g id="XMLID_113_"><path id="XMLID_114_" class="st0" d="M44.7 44.8H22.9c-1.3 0-2.3-1-2.3-2.3V20.8c0-1.3 1-2.3 2.3-2.3h21.8c1.3 0 2.3 1 2.3 2.3v21.8c0 1.2-1 2.2-2.3 2.2zM23.5 19.7c-.9 0-1.6.7-1.6 1.6v20.6c0 .9.7 1.6 1.6 1.6h20.6c.9 0 1.6-.7 1.6-1.6V21.4c0-.9-.7-1.6-1.6-1.6H23.5z"/></g><g id="XMLID_79_"><g id="XMLID_111_"><path id="XMLID_112_" class="st0" d="M50.7 105.2c-.4 0-.7-.3-.8-.6l-8.3-24.4-15.8 15.9c-.3.4-.9.4-1.3 0-.4-.3-.4-.9 0-1.3l16.8-16.9c.2-.2.5-.3.8-.2.3.1.5.3.6.6l8 23.6L58 84.6c.1-.3.4-.5.8-.5s.7.2.8.5l5.5 10 11.1-14.1c.3-.4.9-.5 1.3-.1.4.3.5.9.1 1.3l-12 15.1c-.2.2-.5.4-.8.3-.3 0-.6-.2-.7-.5L59 86.9l-7.5 17.8c-.1.3-.4.5-.8.5z"/></g><g id="XMLID_106_"><circle id="XMLID_110_" class="st0" cx="41.2" cy="79.6" r="3"/><path id="XMLID_107_" class="st0" d="M41.2 83.5c-2.1 0-3.9-1.7-3.9-3.9s1.7-3.9 3.9-3.9c2.1 0 3.9 1.7 3.9 3.9s-1.8 3.9-3.9 3.9zm0-6c-1.2 0-2.1.9-2.1 2.1s.9 2.1 2.1 2.1c1.2 0 2.1-.9 2.1-2.1s-1-2.1-2.1-2.1z"/></g><g id="XMLID_101_"><circle id="XMLID_105_" class="st0" cx="23.7" cy="96.5" r="3"/><path id="XMLID_102_" class="st0" d="M23.7 100.4c-2.1 0-3.9-1.7-3.9-3.9 0-2.1 1.7-3.9 3.9-3.9 2.1 0 3.9 1.7 3.9 3.9 0 2.1-1.7 3.9-3.9 3.9zm0-6c-1.2 0-2.1.9-2.1 2.1 0 1.2.9 2.1 2.1 2.1 1.2 0 2.1-.9 2.1-2.1 0-1.2-.9-2.1-2.1-2.1z"/></g><g id="XMLID_96_"><circle id="XMLID_100_" class="st0" cx="50.5" cy="103.6" r="3"/><path id="XMLID_97_" class="st0" d="M50.5 107.5c-2.1 0-3.9-1.7-3.9-3.9 0-2.1 1.7-3.9 3.9-3.9 2.1 0 3.9 1.7 3.9 3.9 0 2.1-1.7 3.9-3.9 3.9zm0-6c-1.2 0-2.1.9-2.1 2.1s.9 2.1 2.1 2.1 2.1-.9 2.1-2.1-.9-2.1-2.1-2.1z"/></g><g id="XMLID_91_"><circle id="XMLID_95_" class="st0" cx="59.2" cy="85.6" r="3"/><path id="XMLID_92_" class="st0" d="M59.2 89.5c-2.1 0-3.9-1.7-3.9-3.9 0-2.1 1.7-3.9 3.9-3.9 2.1 0 3.9 1.7 3.9 3.9s-1.8 3.9-3.9 3.9zm0-6c-1.2 0-2.1.9-2.1 2.1s.9 2.1 2.1 2.1c1.2 0 2.1-.9 2.1-2.1s-1-2.1-2.1-2.1z"/></g><g id="XMLID_86_"><circle id="XMLID_90_" class="st0" cx="77.1" cy="80.8" r="3"/><path id="XMLID_87_" class="st0" d="M77.1 84.7c-2.1 0-3.9-1.7-3.9-3.9 0-2.1 1.7-3.9 3.9-3.9 2.1 0 3.9 1.7 3.9 3.9s-1.8 3.9-3.9 3.9zm0-6c-1.2 0-2.1.9-2.1 2.1s.9 2.1 2.1 2.1c1.2 0 2.1-.9 2.1-2.1s-1-2.1-2.1-2.1z"/></g></g></svg>