<svg><defs><font id="MovementBold" horiz-adv-x="561"><font-face font-family="N.O.- Movement" font-weight="700" panose-1="0 0 7 0 0 0 0 0 0 0" ascent="800" descent="-200" x-height="460" cap-height="739" bbox="-75 -263.002 1100 1000" underline-thickness="10" underline-position="-60" unicode-range="U+0020-U+2122"/><glyph glyph-name=".notdef" horiz-adv-x="500" d="M63 0v1000h375V0H63zm61 312L375 63l-3 629-247 246z"/><glyph glyph-name="space" horiz-adv-x="280"/><glyph glyph-name="exclam" unicode="!" horiz-adv-x="311" d="M220 188H92v551h129zm8-64V-20H84v144h144z"/><glyph glyph-name="quotedbl" unicode="&quot;" horiz-adv-x="426" d="M360 739l-19-321h-98l-18 321h135zm-157 0l-19-321H85L66 739h137z"/><glyph glyph-name="numbersign" unicode="#" d="M557 412H451l-20-104h93V196H409L371 0H256l36 196h-78L174 0H61l36 196H4v112h116l19 104H41v112h119l34 181h117l-36-181h80l33 181h117l-34-181h86V412zm-223 0h-78l-19-104h78z"/><glyph glyph-name="dollar" unicode="$" d="M532 219c0-52.667-18.334-102.667-55.001-150-38-49.333-82.333-77.666-133-84.999v-93h-89v90c-59.333 7.333-111.333 32.666-156 75.999-46.667 45.333-70 97.333-70 156l125 25c7.333-39.333 16.666-68 27.999-86 15.333-24 39.666-39.667 72.999-47v249c-57.333 26-97.666 50.333-120.999 73-35.333 33.333-53 76-53 128 0 49.333 16.833 93.333 50.5 132s74.834 61.667 123.501 69v88h89v-88c68-7.333 125.667-51.666 173-132.999l-109-60c-17.333 24-26.666 36.667-27.999 38-9.333 11.333-21.333 21.333-36 30v-182C469.333 398.334 532 321.667 532 219zM254.999 489v144c-34.667-12-52-37-52-75 0-24.667 17.333-47.667 52-69zm150-276c0 38-20.333 70-61 96V116c17.333 8 31.833 21.333 43.5 40s17.5 37.667 17.5 57z"/><glyph glyph-name="percent" unicode="%" horiz-adv-x="686" d="M378 575c0-50-19-92.167-57-126.5S238.667 397 188 397s-95 17-133 51-57 76-57 126c0 50.667 19.333 92.667 58 126 37.333 31.333 81.333 47 132 47 50 0 94.167-16.333 132.5-49S378 624.333 378 575zm229 138L158-16 82 29l448 725zm83-545c0-50-19-92.001-57-126.001s-82.333-51-133-51c-49.333 0-93.333 17.333-132 52S310 119.333 310 168s19.333 90.667 58 126c37.333 33.333 81 50 131 50 51.333 0 96-16.5 134-49.5s57-75.167 57-126.5zM280 573.999c0 24-9.167 43.833-27.5 59.5s-39.833 23.5-64.5 23.5-46.5-7.667-65.5-23-28.5-35.333-28.5-60 9.5-44.667 28.5-60 40.833-23 65.5-23c24 0 45.333 8 64 24s28 35.667 28 59zm314-406c0 25.333-9.333 45.668-28 61.001s-40.667 23-66 23-47-7.833-65-23.5-27-35.834-27-60.501c0-24 9.167-43.833 27.5-59.5s39.833-23.5 64.5-23.5c24 0 45.667 7.833 65 23.5s29 35.5 29 59.5z"/><glyph glyph-name="ampersand" unicode="&amp;" horiz-adv-x="670" d="M729-1H565.002l-69 85c-38.667-33.333-72.334-57.333-101.001-72-37.333-18.667-77-28-119-28-60.667 0-115.667 19.333-165 58-52.667 42-79 92.333-79 151 0 55.333 15.667 102.333 47 141 20 24.667 58.667 57 116 97-46 49.333-69 99.333-69 150 0 54.667 17.667 97.667 53 129 34 29.333 78.667 44 134 44 51.333 0 94.666-14.333 129.999-43 38.667-30.667 58-71 58-121 0-62.667-41.333-121.667-124-177l126-147 45 10h125l-90-101zM376.002 592c0 37.333-21.333 56-64 56-16 0-30.5-4.833-43.5-14.5s-19.5-22.5-19.5-38.5c0-24 17.333-55.667 52-95 50 36 75 66.667 75 92zm38-416L273.001 340.001c-45.333-32-70.666-50.333-75.999-55-26.667-24.667-40-51.334-40-80.001 0-28 13-52.667 39-74 24-20 50.333-30 79-30 38 0 84.333 25 139 75z"/><glyph glyph-name="quotesingle" unicode="'" horiz-adv-x="269" d="M239 718L92 464l-93 31 125 260z"/><glyph glyph-name="parenleft" unicode="(" horiz-adv-x="284" d="M253 719c-59.333-111.333-89-249.999-89-415.999 0-154.667 29.333-294.667 88-420l-102-72C72.667-47.666 34 115.667 34 301c0 179.333 38.667 343.333 116 492z"/><glyph glyph-name="parenright" unicode=")" horiz-adv-x="284" d="M247 299c0-178.667-37.333-341.333-112-488L30-117c58 114 87 253.333 87 418 0 159.333-28.667 299.666-86 420.999l102 73C209 645.666 247 480.333 247 299z"/><glyph glyph-name="asterisk" unicode="*" horiz-adv-x="419" d="M386 551l-55-82-65 35v-69H159v72l-70-36-55 79 71 36-69 37 50 80 73-36v72h107v-68l65 34 54-81-71-38z"/><glyph glyph-name="plus" unicode="+" d="M549 193H342V0H219v193H12v115h207v194h123V308h207V193z"/><glyph glyph-name="comma" unicode="," horiz-adv-x="280" d="M264 120L128-140l-99-3 119 260z"/><glyph glyph-name="hyphen" unicode="-" horiz-adv-x="322" d="M287 277H35v73h252v-73z"/><glyph glyph-name="hyphen" unicode="‐" horiz-adv-x="322" d="M287 277H35v73h252v-73z"/><glyph glyph-name="period" unicode="." horiz-adv-x="280" d="M204 100V-16H64V98z"/><glyph glyph-name="slash" unicode="/" horiz-adv-x="535" d="M530 804L128-76 5-78l399 882h126z"/><glyph glyph-name="zero" unicode="0" horiz-adv-x="545" d="M513 540V196c0-58.667-22.667-110-68-154S343.667-21.333 277-16c-66.667-2.667-122 17.333-166 60s-70 96-78 160v340c5.333 66.667 33.333 118 84 154s104 55 160 57c61.333 0 114-16.5 158-49.5s70-88.167 78-165.5zM393 200l-1 344c-24.667 66-62.667 99-114 99-50.667 0-90-34.333-118-103V204c27.333-68.667 66.333-103 117-103 52 0 90.667 33 116 99z"/><glyph glyph-name="one" unicode="1" horiz-adv-x="345" d="M305 0H163l-2 536-80-64-40 88 264 184V0z"/><glyph glyph-name="two" unicode="2" horiz-adv-x="577" d="M557 0L19.999.001l358 421c33.333 39.333 50 73.666 50 102.999s-12.167 55.333-36.5 78-51.166 34-80.499 34c-38 0-68.833-11.5-92.5-34.5S183 548 183 510H52c16 162.667 99.333 244 250 244 20 0 37-1 51-3 54.667-8 102-34.167 142-78.5s60-93.833 60-148.5c0-58.667-18.667-110-56-154L285 118h272V0z"/><glyph glyph-name="three" unicode="3" horiz-adv-x="569" d="M534 225c0-36.667-3.666-65.001-10.999-85.001-18.667-50.667-50.667-89.667-96-117-42-26-91-39-147-39-68 0-125 20.667-171 62-48.667 42.667-73 97.334-73 164.001h129c0-34.667 12-62 36-82s53.667-30 89-30c32.667 0 60.167 11.5 82.5 34.5s33.5 50.833 33.5 83.5c0 23.333-4 42.666-12 57.999-14.667 28-34.334 46-59.001 54-14 4-41.667 6-83 6v111c96.667 0 145 30 145 90 0 31.333-10.333 56.833-31 76.5s-47 29.5-79 29.5c-59.333 0-93-34-101-102H53c24.667 144 105 216 241 216 62 0 115.333-18.333 160-55 46.667-39.333 70-89.666 70-150.999 0-68-25.333-121.333-76-160 57.333-36 86-90.667 86-164z"/><glyph glyph-name="four" unicode="4" horiz-adv-x="625" d="M607 96h-84V0H396v96H18l505 675V204h84V96zM396 204v201L245 204h151z"/><glyph glyph-name="five" unicode="5" horiz-adv-x="617" d="M584 261c0-77.333-25.17-142.168-75.503-194.501S394.331-13.667 316.998-17c-16-.667-27.333-1-34-1-48.667 0-94.667 14-138 42-40.667 26-68.167 51.167-82.5 75.5S38.332 152 33 184l131-3c11.333-21.333 30-39.666 56-54.999s51.333-23 76-23c44.667 0 82.667 14.5 114 43.5s47 65.5 47 109.5c0 39.333-15.167 73.666-45.5 102.999s-65.167 44-104.5 44c-53.333 0-97-20.667-131-62l-67 39 137 359h328V622l-237 2-32-108h-13c9.333 1.333 24 2 44 2 66.667 0 124.667-26.167 174-78.5s74-111.833 74-178.5z"/><glyph glyph-name="six" unicode="6" horiz-adv-x="577" d="M551 230c0-66-25.833-123.501-77.5-172.501S363-16.001 297-16.001c-44.667 0-88.5 11-131.5 33s-77.167 51-102.5 87c-6.667 12.667-18 29.667-34 51l-3-18v95c0 57.333 27.667 121 83 191l261 331 99-62-174-223c5.333.667 13 1 23 1 65.333 0 120.5-23.667 165.5-71S551 295.333 551 230zm-127-1.001c0 34-14.832 63.333-44.499 88s-62.167 37-97.5 37c-30 0-59.333-12.667-88-38s-43-53-43-83c0-32.667 13.5-63.5 40.5-92.5s56.833-43.5 89.5-43.5c-.667 0 4.666 1 15.999 3 84.667 14.667 127 57.667 127 129z"/><glyph glyph-name="seven" unicode="7" horiz-adv-x="649" d="M619 739L134-16 30 48l371 575H37v116h582z"/><glyph glyph-name="eight" unicode="8" d="M529 213c0-69.333-24.5-124.835-73.5-166.502s-108.833-62.5-179.5-62.5c-68 0-125.667 21.667-173 65s-71 99-71 167c0 76.667 31.667 133.334 95 170.001-51.333 41.333-77 97.333-77 168 0 60 23.667 109 71 147 44 36 96.333 54 157 54 66 0 121.333-19.667 166-59S511 604.333 511 539c0-66-25-117-75-153 30-14.667 53.333-39 70-73 15.333-30.667 23-64 23-100zM385 539.998c0 28.667-10.333 52.667-31 72s-45.334 29-74.001 29c-27.333 0-51.666-9.5-72.999-28.5s-32-42.167-32-69.5c0-24.667 11.5-48.167 34.5-70.5s46.833-33.5 71.5-33.5c22 0 44.833 11.333 68.5 34s35.5 45 35.5 67zm18-328c0 32.667-12.168 59.998-36.501 81.998s-53.166 33-86.499 33c-35.333 0-64.333-9.667-87-29s-34-46.666-34-81.999c0-31.333 12.5-58.333 37.5-81s53.5-34 85.5-34c28.667 0 56 11.333 82 34s39 48.334 39 77.001z"/><glyph glyph-name="nine" unicode="9" horiz-adv-x="577" d="M551 520c0-42-12.667-85.334-38-130.001-12.667-21.333-39.334-58.333-80.001-111l-225-291h-152l227 291c-9.333-1.333-16.666-2-21.999-2-64 0-119.167 24-165.5 72s-69.5 104-69.5 168c0 66.667 26 124 78 172 50 46.667 108.667 70 176 70 69.333 0 131-22.333 185-67 57.333-47.333 86-104.666 86-171.999zm-128-3.001c0 36.667-13.33 67-39.997 91s-58.334 36-95.001 36c-34.667 0-65.834-12.667-93.501-38s-41.5-55-41.5-89c0-35.333 13.667-65.166 41-89.499S252.667 391 288 391c36 0 67.5 12.167 94.5 36.5s40.5 54.166 40.5 89.499z"/><glyph glyph-name="colon" unicode=":" horiz-adv-x="280" d="M216 472V332H60v140h156zm0-344V-16H60v144h156z"/><glyph glyph-name="semicolon" unicode=";" horiz-adv-x="280" d="M260 472V332H108v140h152zm0-324L116-140l-95-1 87 289h152z"/><glyph glyph-name="less" unicode="&lt;" d="M549 14L12 208v86l537 194V367L211 251l338-117V14z"/><glyph glyph-name="equal" unicode="=" d="M549 286H12v107h537V286zm0-177H12v106h537V109z"/><glyph glyph-name="greater" unicode="&gt;" d="M549 210L12 16v118l338 117L12 367v121l537-194v-84z"/><glyph glyph-name="question" unicode="?" horiz-adv-x="439" d="M418 588l-2-196.001c-16-93.333-53.333-160-112-200H136C213.333 242.666 263.333 309.333 286 392l1 172c2 61.333-22 92-72 92-34.667-2.667-55.667-23-63-61 0 2-.667-13.667-2-47L22 420l1 177c0 49.333 20.333 91 61 125 38.667 32 83 48 133 48 54 4 101-10.667 141-44s60-79.333 60-138zM296 123.999v-140H144v140h152z"/><glyph glyph-name="at" unicode="@" horiz-adv-x="777" d="M613 531l-51-244c-4-19.333-5.667-32-5-38l5-2c2.667 0 7 2.333 13 7 21.333 16 38.5 37.5 51.5 64.5S646 373 646 401c0 48.667-11 92-33 130zm150-114c0-64-20.333-124.333-61-181-44-62-96.667-93-158-93-34.667 0-59.334 14.333-74.001 43-36-28.667-77-43-123-43-48.667 0-91.334 19.5-128.001 58.5s-55 83.167-55 132.5c0 62.667 20.5 118.5 61.5 167.5s92.5 73.5 154.5 73.5c49.333 0 90.333-15 123-45l9 37h74c-45.333 50.667-106.666 76-183.999 76-73.333 0-136.333-25.667-189-77s-79-113.333-79-186c0-85.333 27.5-154 82.5-206s125.5-78 211.5-78c76.667 0 134 17.333 172 52l108-82c-58-32.667-106.333-54.334-145-65.001-41.333-11.333-94-17-158-17-40.667 0-84 8-130 24-81.333 28-145.166 75.167-191.499 141.5S14 292.332 14 378.999c2 2.667 3 8 3 16 0 34.667 4.667 66.334 14 95.001 26 79.333 73.667 143.333 143 192s146.333 73 231 73c96.667 0 180.5-32.333 251.5-97S763 513 763 417zm-293-23c0 21.333-7 38.499-21 51.499s-32 19.5-54 19.5c-31.333 0-58-11.833-80-35.5s-33-51.167-33-82.5c0-21.333 6-41.666 18-60.999 14-22.667 31-34 51-34 79.333 0 119 47.333 119 142z"/><glyph glyph-name="A" unicode="A" horiz-adv-x="754" d="M757 0H616l-49 96H183L139 0H-4l380 771zM511 212L376 495 231 212h280z"/><glyph glyph-name="B" unicode="B" horiz-adv-x="535" d="M500 206c0-70-29.667-124.001-89-162.001-50-32-112.333-48-187-48H35v739l186 1c69.333 0 129.333-12 180-36 64-45.333 92-98.666 84-159.999-8-50.667-20-86-36-106s-42.667-39.333-80-58c40-13.333 71.833-35 95.5-65S500 246 500 206zM353 531.999c0 32-11.333 55.334-34 70.001s-58 22-106 22l-47-1V429l51 3c82.667-2.667 128 30.666 136 99.999zM369 212c0 39.333-16.666 68.333-49.999 87-26.667 15.333-61.334 23-104.001 23h-49V117h54c40.667 2 73 9.667 97 23 32 13.333 49.333 37.333 52 72z"/><glyph glyph-name="C" unicode="C" horiz-adv-x="664" d="M639 42C567.667 2.667 497.332-16.999 427.999-16.999c-110 0-204.833 38.667-284.5 116S23.999 269.667 23.999 379c0 104.667 42 194 126 268 80.667 71.333 174 107 280 107 42.667 0 78.667-3.667 108-11 26.667-6.667 60.334-20 101.001-40l-75-87c-24 14.667-71 22-141 22s-132.167-25.833-186.5-77.5S155 448 155 378c0-75.333 26-140 78-194s115.333-81 190-81c64 0 111 13.667 141 41z"/><glyph glyph-name="D" unicode="D" horiz-adv-x="676" d="M639 379c0-120.667-40.667-215.333-122-284C440.333 31.667 340.333 0 217 0H36v739h172c120 0 219.667-29.333 299-88 88-65.333 132-156 132-272zm-132-7.999c0 166.667-113.333 250-340 250v-503h36c88 0 159 19.667 213 59 60.667 44 91 108.667 91 194z"/><glyph glyph-name="E" unicode="E" horiz-adv-x="425" d="M392 0H39v739l353 1 3-132H171V456h208V328H171V136h224z"/><glyph glyph-name="F" unicode="F" horiz-adv-x="429" d="M392 624l-221-3V463l211 1-2-116-209-3V0H38v739l354 1V624z"/><glyph glyph-name="G" unicode="G" horiz-adv-x="828" d="M793 342c0-74.667-19.831-141.669-59.498-201.002s-94.5-102.666-164.5-129.999c-48-18.667-92.333-28-133-28-52 0-91.333 4.333-118 13-82 26.667-149.5 75-202.5 145s-79.5 148-79.5 234c0 101.333 39.667 189.833 119 265.5s169.666 113.5 270.999 113.5c74.667 0 137.667-12.333 189-37l37-17-87-95c-37.333 20.667-82 31-134 31-68.667 0-130-25.333-184-76s-81-110-81-178l2-3c0-70.667 24-133.667 72-189 50-58 110-87 180-87 54 0 103 15 147 45C614.334 180.666 642.667 222.333 652 273H463v120h330v-51z"/><glyph glyph-name="H" unicode="H" horiz-adv-x="648" d="M610 0H479v337H170V0H39v739h131V457h309v282h131V0z"/><glyph glyph-name="I" unicode="I" horiz-adv-x="225" d="M177 0H46v739h131V0z"/><glyph glyph-name="J" unicode="J" horiz-adv-x="391" d="M354 266c0-188-74.667-282-224-282H40v120c50-.667 83.667-1 101-1 54.667 0 82 54.333 82 163l-3 358H32l4 116 318-1V266z"/><glyph glyph-name="K" unicode="K" horiz-adv-x="670" d="M629 0H454L185 318l-14-14V0H40v739h131V463l283 276h175L279 405z"/><glyph glyph-name="L" unicode="L" horiz-adv-x="446" d="M400 0H47v739h131V118h222V0z"/><glyph glyph-name="M" unicode="M" horiz-adv-x="827" d="M779-4H647l-3 400-228-240-228 240V-4H48v772l364-412 367 408V-4z"/><glyph glyph-name="N" unicode="N" horiz-adv-x="658" d="M615-12L187 416V-8H43v772l424-424v408h148V-12z"/><glyph glyph-name="O" unicode="O" horiz-adv-x="859" d="M832 370c0-108-40.002-199.499-120.002-274.499s-174.333-112.5-283-112.5c-109.333 0-203.666 37.167-282.999 111.5s-119 166.166-119 275.499c0 108 40.333 199.667 121 275C226.666 717.667 320.333 754 429 754s202.667-36.333 282-109c80.667-75.333 121-167 121-275zm-131.002.001c0 74.667-26.5 137.667-79.5 189s-117.167 77-192.5 77-139.5-25.5-192.5-76.5-79.5-114.167-79.5-189.5c0-74 26.833-136.667 80.5-188s117.5-77 191.5-77 137.833 25.833 191.5 77.5 80.5 114.167 80.5 187.5z"/><glyph glyph-name="P" unicode="P" horiz-adv-x="519" d="M480 496c4-69.333-4-120-24-152s-58-62.667-114-92c-53.333-16-109.333-24-168-24l1-228H42l2 739h135c60.667 6 115 1 163-15 58.667-26.667 96.667-56.667 114-90s25.333-79.333 24-138zm-118-16c-5.333 85.333-53.333 133.333-144 144h-44V356h48c93.333 8 140 49.333 140 124z"/><glyph glyph-name="Q" unicode="Q" horiz-adv-x="907" d="M870-17l-166.999-.001-58 58c-66-40-133.667-60-203-60-108.667 0-202.667 36-282 108-82 74-123 165-123 273 0 109.333 38.667 202 116 278s170.666 114 279.999 114c108 0 202.667-36.667 284-110C800.333 568.666 842 477.333 842 370c0-102.667-35.667-189-107-259zM711.001 384.999c0 73.333-29 134.333-87 183-54.667 45.333-119.334 68-194.001 68s-137.167-26.833-187.5-80.5-75.5-118.167-75.5-193.5c0-68.667 27-129 81-181s115.333-78 184-78c38.667 0 78.334 9 119.001 27l-184 170h173l106-101c43.333 52 65 114 65 186z"/><glyph glyph-name="R" unicode="R" horiz-adv-x="599" d="M353 512c-21.333 69.333-81.332 102.667-179.999 100V296l1-296h-131v739h151c91.333 0 161.666-19.667 210.999-59 58.667-50.667 89.334-122.667 92.001-216-2.667-69.333-25.334-125.333-68.001-168l-48-48L557 0H399L193 296c80 10.667 132 46.667 156 108 16 37.333 17.333 73.333 4 108z"/><glyph glyph-name="S" unicode="S" horiz-adv-x="569" d="M542 221c0-64.667-25.501-120.499-76.501-167.499s-109.167-70.5-174.5-70.5c-70 0-128.667 20.333-176 61l-88 84 84 84c50.667-61.333 112.334-97 185.001-107 34 0 61.667 11.5 83 34.5s32 51.5 32 85.5c0 40.667-29 74.667-87 102l-162 75c-58 38-87 90.667-87 158 0 59.333 25.333 107.666 76 144.999 46 33.333 99.333 50 160 50 90.667 0 158.667-26.333 204-79l-76-88c-42 32-86 48-132 48-24.667 0-47-6.667-67-20-22.667-14.667-34-34-34-58 0-29.333 17.667-53.333 53-72 4-2 33.667-13 89-33 35.333-12.667 68.333-30 99-52 37.333-26.667 62-54 74-82 4.667-10 9.667-26.667 15-50 4-16.667 6-32.667 6-48z"/><glyph glyph-name="T" unicode="T" horiz-adv-x="505" d="M464 624l-149-3V0H185v621l-153 3 4 116h428V624z"/><glyph glyph-name="U" unicode="U" horiz-adv-x="658" d="M617 275c0-84.667-27-154.5-81-209.5S412.667-17 328-17c-82.667 0-151.167 27.167-205.5 81.5S41 187.333 41 270v469h131V291c0-55.333 12-99.333 36-132 26.667-36 66.667-54 120-54 105.333 0 158 64.333 158 193v441h131V275z"/><glyph glyph-name="V" unicode="V" horiz-adv-x="694" d="M696 739L350-38-1 739h146l204-466 204 466h143z"/><glyph glyph-name="W" unicode="W" horiz-adv-x="1005" d="M1001 740L712-29 504 444 298-31 5 740h144l152-408 203 423 197-423 160 408h140z"/><glyph glyph-name="X" unicode="X" horiz-adv-x="653" d="M639 0H490L330 270 161 0H13l242 387L42 739h150l139-236 147 236h152L405 386z"/><glyph glyph-name="Y" unicode="Y" horiz-adv-x="699" d="M668 739L415 320V0H284v320L31 739h150l168-281 170 281h149z"/><glyph glyph-name="Z" unicode="Z" horiz-adv-x="673" d="M630 739L258 118h358V0H43l369 621-356 3v116z"/><glyph glyph-name="bracketleft" unicode="[" horiz-adv-x="302" d="M265-189H39v984h226V675h-97V-72h97v-117z"/><glyph glyph-name="backslash" unicode="\" horiz-adv-x="535" d="M535 0H411L-1 852h125z"/><glyph glyph-name="bracketright" unicode="]" horiz-adv-x="302" d="M265-189H39v117h94v749H39v118h226v-984z"/><glyph glyph-name="asciicircum" unicode="^" d="M559 303H425L280 603 136 303H2l210 436h137z"/><glyph glyph-name="underscore" unicode="_" horiz-adv-x="485" d="M505-184H-20v73h525v-73z"/><glyph glyph-name="grave" unicode="`" horiz-adv-x="348" d="M320 532l-89-2L16 720l143-1z"/><glyph glyph-name="a" unicode="a" horiz-adv-x="581" d="M542-1H415.001v37c-37.333-34.667-83-52-137-52-69.333 0-126.5 23.667-171.5 71s-67.5 106-67.5 176c0 68.667 22.667 126 68 172s102.333 69 171 69c83.333 2.667 143.666-17.333 180.999-60l83 49V-1zM418.001 233c0 38-11.499 69.332-34.499 93.999s-53.167 37-90.5 37c-36.667 0-66.834-13-90.501-39s-35.5-57.333-35.5-94c0-35.333 11-66.666 33-93.999 23.333-29.333 52.333-44 87-44 40 0 71.833 13.167 95.5 39.5s35.5 59.833 35.5 100.5z"/><glyph glyph-name="b" unicode="b" horiz-adv-x="581" d="M542 245c0-70.667-20.334-131.001-61.001-181.001-43.333-53.333-99.666-80-168.999-80C218-21.334 152.333 1.333 115 52L41-1l-1 745h128V436c38.667 35.333 84 53 136 53 68.667 0 125.5-23.333 170.5-70S542 314.333 542 245zm-127.001-4.001c0 38.667-11.834 70.999-35.501 96.999s-54.834 39-93.501 39c-36.667 0-66.167-13.667-88.5-41s-33.5-59.666-33.5-96.999c0-40 11-73 33-99 22.667-28 53.334-42 92.001-42 40.667 0 72.334 14 95.001 42 20.667 26 31 59.667 31 101z"/><glyph glyph-name="c" unicode="c" horiz-adv-x="500" d="M452 18c-48-21.333-95.667-31.999-143-31.999-71.333 0-132.666 21.667-183.999 65-55.333 46-83 104-83 174 0 71.333 27 130.666 81 177.999 51.333 44.667 113.333 67 186 67 51.333 0 101-14 149-42l-64-92c-14.667 15.333-46.334 23-95.001 23-34.667 0-64.834-12.5-90.501-37.5s-38.5-54.833-38.5-89.5c0-38 12.5-69.833 37.5-95.5s56.5-38.5 94.5-38.5c30.667 0 58.334 7.667 83.001 23l15 9z"/><glyph glyph-name="d" unicode="d" horiz-adv-x="581" d="M540-8l-67.998 56c-40-48-103.667-69.333-191-64-68.667 0-126 24.333-172 73s-69 107.667-69 177c0 72 21.667 132.5 65 181.5S205.668 489 277.001 489c22.667 0 44.167-1.5 64.5-4.5S386.667 470.667 416 452v284h124V-8zM419.002 235c0 41.333-11.333 75.333-34 102s-54.334 40-95.001 40c-37.333 0-67.666-14.667-90.999-44-20.667-27.333-31-60.333-31-99 0-38 10.667-69.667 32-95 22-27.333 51.333-41 88-41 40.667 0 72.667 12.5 96 37.5s35 58.167 35 99.5z"/><glyph glyph-name="e" unicode="e" horiz-adv-x="634" d="M569 96c-24-32-52.666-58.67-85.999-80.003s-84.666-30.666-153.999-27.999c-99.333-2.667-172 21.333-218 72-46.667 42.667-68 101.334-64 176.001-6.667 53.333 16.666 106.666 69.999 160s120 80 200 80c82.667 2.666 150-24.667 202-82s78-123.333 78-198h-432c16-69.333 70.667-106.666 164-111.999 61.333 0 106.666 20 135.999 60zm-99.999 179.997c-26.667 58.667-76.001 90.667-148.001 96-77.333-5.333-130.666-37.333-159.999-96h308z"/><glyph glyph-name="f" unicode="f" horiz-adv-x="363" d="M322 364h-87l-1-624H108v624H42l66 118-2 70c-2.667 48 21.333 92 72 132s98.667 58.667 144 56V628c-58.667-8-88-44-88-108l1-38 87 2V364z"/><glyph glyph-name="g" unicode="g" horiz-adv-x="571" d="M536 5c0-178.667-79.336-268.001-238.003-268.001-66 7.333-111.667 16.333-137 27s-56.666 28-93.999 52l60 84c32-21.333 58.833-35 80.5-41s54.5-9 98.5-9c40.667 9.333 71 28 91 56 10.667 24.667 15 63.334 13 116.001-31.333-34-78.666-51-141.999-51-70.667 0-128 26-172 78-40.667 49.333-61 110.333-61 183 0 66 22.333 122.5 67 169.5S201.333 472 266 472c72.667 5.333 141-16 205-64l65 53V5zM413.997 225.999c0 36.667-11.001 68-33.001 94-24 27.333-54.333 41-91 41-37.333 0-67.833-12.833-91.5-38.5s-35.5-57.5-35.5-95.5c0-40 10-73 30-99 22.667-29.333 53.334-44 92.001-44 41.333 0 73.333 13.667 96 41 22 25.333 33 59 33 101z"/><glyph glyph-name="h" unicode="h" horiz-adv-x="507" d="M467 0H340.002v293c0 32-6.333 54-19 66s-35.334 18-68.001 18c-56.667 0-85-39.333-85-118V0h-127l-1 740h128V453c29.333 24 69.666 36 120.999 36 118.667 0 178-65.333 178-196V0z"/><glyph glyph-name="i" unicode="i" horiz-adv-x="246" d="M184 716V584H56v132h128zm3-716H60v474h127V0z"/><glyph glyph-name="j" unicode="j" horiz-adv-x="246" d="M184 584H56v132h128V584zm0-844H60v734h127z"/><glyph glyph-name="k" unicode="k" horiz-adv-x="545" d="M502 0H335L180 189l-8-7V0H45l-2 736h128l1-398 143 140h171L272 274z"/><glyph glyph-name="l" unicode="l" horiz-adv-x="216" d="M171 0H44v736h124z"/><glyph glyph-name="m" unicode="m" horiz-adv-x="745" d="M708 0H581v261c0 32-3.667 55.667-11 71-10.667 21.333-30 32-58 32-50 0-75-38.667-75-116V0H310v244c0 36-3.333 62.333-10 79-10.667 27.333-30.667 41-60 41-50.667 0-76-41-76-123V0H37v462l71-58c29.333 42.667 72 64 128 64 74 2.667 128.333-16.333 163-57 34.667 40.667 80.667 61 138 61 114 0 171-65 171-195V0z"/><glyph glyph-name="n" unicode="n" horiz-adv-x="507" d="M467 0L340.001-.001v274c0 33.333-4.667 56.333-14 69-11.333 14-33.333 21-66 21-61.333 0-92-38-92-114v-250h-127v462l67-58C145.334 446.666 194.667 469.333 256 472c140.667 0 211-66.667 211-200V0z"/><glyph glyph-name="o" unicode="o" horiz-adv-x="579" d="M551 227c0-69.333-26.167-127.167-78.5-173.5S359-16 289-16c-68.667 0-129 23-181 69-54 48-81 106-81 174 0 70.667 26.333 129.667 79 177 50.667 45.333 111.667 68 183 68s132.333-22.667 183-68c52.667-47.333 79-106.333 79-177zm-127-.001c0 36.667-13.168 67.5-39.501 92.5s-58.166 37.5-95.499 37.5-69.5-12.5-96.5-37.5-40.5-56.167-40.5-93.5c0-35.333 14.333-65.333 43-90 26.667-24 58-36 94-36s67.5 12.167 94.5 36.5 40.5 54.5 40.5 90.5z"/><glyph glyph-name="p" unicode="p" horiz-adv-x="581" d="M540 224c0-68.667-20.333-127.333-61-176-44-51.333-99.667-77-167-77-57.333 0-105.333 17.333-144 52v-286H41v724l70-61c32 42.667 88 66.667 168 72 88 0 154-24.333 198-73 42-46.667 63-105 63-175zm-125 .001c0 39.333-11.833 72-35.5 98s-55.167 39-94.5 39c-36.667 0-66-13.5-88-40.5s-33-59.167-33-96.5c0-38.667 10.333-71 31-97 21.333-28 50.666-42.667 87.999-44 2.667.667 13.334 2 32.001 4 14 .667 28 6 42 16 38.667 26.667 58 67 58 121z"/><glyph glyph-name="q" unicode="q" horiz-adv-x="589" d="M546-263l-127-.002v287c-48.667-35.333-93.667-53-135-53-69.333 0-126.833 24.167-172.5 72.5S43 150.998 43 220.998c0 64.667 20.667 122 62 172 43.333 52.667 102.666 80.334 177.999 83.001C365.666 478.666 432.333 457.333 483 412l63 49v-724zM422 220.998c0 41.333-11.667 75.001-35 101.001s-55.666 39-96.999 39c-34 0-62.333-14.333-85-43s-34-60-34-94c0-40 11.167-73.333 33.5-100s53.166-40 92.499-40c38.667 0 69.667 13.333 93 40 21.333 25.333 32 57.666 32 96.999z"/><glyph glyph-name="r" unicode="r" horiz-adv-x="341" d="M302 496l-2-136c-94.667-16-139-58.333-133-127V0H40v462l58-58c53.333 45.333 121.333 76 204 92z"/><glyph glyph-name="s" unicode="s" horiz-adv-x="430" d="M391 140c0-42.667-17.333-79.332-52-109.999s-80-44.667-136-42c-69.333 5.333-124 24-164 56l56 84c40-16 80-27.667 120-35 24 4.667 40 15.667 48 33-2.667 25.333-20.334 44.333-53.001 57-59.333 31.333-92.333 49.666-99 54.999-35.333 26.667-53 58.334-53 95.001 0 39.333 15.667 72.333 47 99s67 40 107 40c36 0 66.333-8.667 91-26 21.333-6.667 41.333-19.334 60-38.001l-60-68c-29.333 16-61.666 24-96.999 24-6 0-11.833-2.5-17.5-7.5S180 345.667 180 339c0-12 18.333-25.667 55-41 49.333-20.667 83-38 101-52 36.667-28 55-63.333 55-106z"/><glyph glyph-name="t" unicode="t" horiz-adv-x="353" d="M316 355h-87V0H102v355l-64 1 64 114v165h127V470h87V355z"/><glyph glyph-name="u" unicode="u" horiz-adv-x="513" d="M467-20l-55.999 52c-36-36-86.667-54-152-54-62.667 0-114.167 19.667-154.5 59s-60.5 90-60.5 152v271h127V201c0-30 7-55 21-75 15.333-22.667 37.666-34 66.999-34 54.667 0 82 36.333 82 109v259h127z"/><glyph glyph-name="v" unicode="v" horiz-adv-x="520" d="M522 460L262-16-1 460h144l118-227 117 227h144z"/><glyph glyph-name="w" unicode="w" horiz-adv-x="810" d="M802 438L539-16 404 239 273-16 8 438h144l119-220 133 266 135-266 118 220h145z"/><glyph glyph-name="x" unicode="x" horiz-adv-x="658" d="M622 0H468L329 158 195 0H35l221 248L77 460h154l99-126 106 126h158L411 247z"/><glyph glyph-name="y" unicode="y" horiz-adv-x="645" d="M604 460L272-256H120L240 0 40 460h149l131-308 139 308h145z"/><glyph glyph-name="z" unicode="z" horiz-adv-x="631" d="M597 460L291 113h270V0H34l307 347H110v113h487z"/><glyph glyph-name="braceleft" unicode="{" horiz-adv-x="324" d="M296-189h-92.999c-16.667 0-33.334 7.333-50.001 22-36 31.333-54 69.333-54 114v183c0 64-23.667 105.667-71 125v95c47.333 15.333 71 56.333 71 123v187c0 40.667 17 77.667 51 111 16.667 16 33.667 24 51 24h95V677h-59c-5.333 0-8-8-8-24V456c0-61.333-21-112.666-63-153.999 19.333-17.333 35-42 47-74 10.667-28.667 16-57.334 16-86.001 0-138 1.167-208.167 3.5-210.5S256-72 296-72v-117z"/><glyph glyph-name="bar" unicode="|" horiz-adv-x="553" d="M338 0H215v852h123V0z"/><glyph glyph-name="braceright" unicode="}" horiz-adv-x="324" d="M296 254c-48.667-16.667-73-65.333-73-146 0-12.667.667-32.667 2-60s2-47.666 2-60.999c0-72.667-16.667-123.334-50-152.001-18.667-16-39-24-61-24H28v117h59c6 0 9 8 9 24v196c0 63.333 21 114.666 63 153.999-42 40-63 93.667-63 161v188c0 12-.333 18.667-1 20-2 4.667-7.667 6.667-17 6l-50-3v121h88c22 0 41.333-7 58-21 35.333-30 53-81 53-153 0-13.333-.667-33.833-2-61.5s-2-48.167-2-61.5c0-77.333 24.333-126.666 73-147.999v-96z"/><glyph glyph-name="asciitilde" unicode="~" d="M558 276c-53.333-78-114.668-117-184.001-117-26 0-62.667 13.333-110 40S186.333 239 173 239s-38-23.667-74-71L2 228l83 80c29.333 23.333 67 35 113 35 24.667 0 60.167-13.667 106.5-41s72.5-41 78.5-41c13.333 0 39 25.667 77 77z"/><glyph glyph-name="nonbreakingspace" horiz-adv-x="119"/><glyph glyph-name="exclamdown" unicode="¡" horiz-adv-x="311" d="M231 425c0-22.667-7.501-40.667-22.501-54s-33.833-20-56.5-20c-48.667 0-73 24.667-73 74 0 20 7.333 37.5 22 52.5s32 22.5 52 22.5c22.667 0 41.334-7 56.001-21s22-32 22-54zm-10.001-678h-127v578h127v-578z"/><glyph glyph-name="cent" unicode="¢" d="M485 161c-26-14-66.335-25.333-121.002-34V48h-84v84c-60.667 12.667-109.667 41.5-147 86.5s-56 98.5-56 160.5c0 56 20.333 107 61 153 38.667 44 86 72 142 84v75h86v-72c32.667 0 72.334-11.667 119.001-35V406c-21.333 30-38 50.333-50 61-20.667 20-43.667 32.333-69 37V246c32.667 6.667 72.334 34 119.001 82V161zm-205.002 89v244c-22-7.333-40.5-24.5-55.5-51.5s-22.5-52.833-22.5-77.5c0-46.667 26-85 78-115z"/><glyph glyph-name="sterling" unicode="£" d="M589 129C547.667 37.667 488-7.998 410-7.998c-27.333 0-66.666 9.833-117.999 29.5s-91 29.5-119 29.5c-33.333 0-58-22.333-74-67l-116 55c26 43.333 47.333 72.666 64 87.999 25.333 24 57.666 38.333 96.999 43 6 27.333 9 46.666 9 57.999 0 23.333-4.333 42.333-13 57H6v91h84c-28 56-42 103.667-42 143 0 68 26.333 124.667 79 170 50.667 43.333 110.667 65 180 65 57.333 0 112.166-17 164.499-51s82.833-98.667 91.5-194l-139-51c7.333 24.667 11 41.667 11 51 0 36-11.5 66.333-34.5 91s-52.167 37-87.5 37c-31.333 0-61.666-12-90.999-36-31.333-25.333-47-53.333-47-84 0-28.667 20.333-75.667 61-141h152v-91H273c4.667-19.333 7-44 7-74 0-10-3-27.667-9-53l70-26c34.667-12 58.334-18 71.001-18 13.333 0 27.666 10 42.999 30l31 44z"/><glyph glyph-name="currency" unicode="¤" d="M556 126l-88-75.999-45 40c-40.667-24-89.667-36-147-36-52 0-97.667 12-137 36l-46-39-86 76 43 43c-25.333 43.333-38 83-38 119 0 44.667 12.667 87.667 38 129l-43 42 87 80 45-43c39.333 25.333 86.333 38 141 38s102-12.333 142-37l44 42 89-80-43-41c24.667-36 37-78.667 37-128 0-42.667-12.333-83.334-37-122.001zM429 300.001c0 38.667-15.334 70-46.001 94-28 22-62 33-102 33-41.333 0-76.333-11.667-105-35-30.667-25.333-46-58-46-98 0-36 15.667-67.333 47-94 29.333-25.333 62.333-38 99-38 42.667 0 78.834 12.5 108.501 37.5s44.5 58.5 44.5 100.5z"/><glyph glyph-name="yen" unicode="¥" d="M598 739L446 484.001h129v-91H390l-47-78c3.333 5.333 4.333 11.666 3 18.999h229v-92H346V0H215v242H-14v92h229v-14l-44 73H-14v91h130L-38 739h150l168-281 170 281h148z"/><glyph glyph-name="brokenbar" unicode="¦" horiz-adv-x="328" d="M333 0H209v848h124V0z"/><glyph glyph-name="section" unicode="§" d="M543 355c0-53.333-26-103.666-78-150.999 28-34 42-72.333 42-115 0-59.333-25.667-108-77-146-46.667-34.667-101-52-163-52-75.333 0-132.333 23.667-171 71-36.667 43.333-55 104-55 182h127c0-92 37.333-138 112-138 24.667 0 47.5 8.5 68.5 25.5s31.5 37.5 31.5 61.5c0 15.333-5 29-15 41-6 6.667-17.667 15-35 25-11.333 6.667-28.666 16.334-51.999 29.001l-116 51c-50 22.667-86 45.667-108 69-24 25.333-36 58.666-36 99.999 0 60.667 28.667 112.334 86 155.001-24.667 32.667-37 66-37 100 0 53.333 21.667 98.666 65 135.999 41.333 35.333 89 53 143 53 61.333 0 112.166-17.667 152.499-53s60.5-83.333 60.5-144H364c0 54-28.667 81-86 81-22 0-41-6.833-57-20.5s-24-31.5-24-53.5c0-30 30-59 90-87 104.667-49.333 160-76 166-80 60-38.667 90-85.334 90-140.001zm-127-15c0 19.333-6.667 35.333-20 48-8 6.667-23.667 15.667-47 27l-164 80c-26.667-18.667-40-44.667-40-78 0-19.333 11.667-36.333 35-51 19.333-12.667 51.333-28.667 96-48 50-22 83.333-37.667 100-47 26.667 21.333 40 44.333 40 69z"/><glyph glyph-name="dieresis" unicode="¨" horiz-adv-x="457" d="M408 623c0-19.333-7.831-34.167-23.498-44.5S350.668 563 330.001 563c-20 0-37.667 5-53 15-17.333 11.333-26 26.333-26 45s8.667 33.667 26 45c15.333 9.333 32.666 14 51.999 14 20 0 37.667-4.667 53-14 17.333-11.333 26-26.333 26-45zm-204.998-.001c0-20-7.832-35-23.499-45s-33.834-15-54.501-15c-20 0-37.667 5-53 15-17.333 11.333-26 26.333-26 45 0 16.667 9 31 27 43 16 10.667 33 16 51 16 21.333 0 39-4.333 53-13 17.333-10.667 26-26 26-46z"/><glyph glyph-name="copyright" unicode="©" horiz-adv-x="777" d="M791 370c0-108.667-39.834-200.166-119.501-274.499s-174.167-111.5-283.5-111.5c-108 0-202 37.5-282 112.5s-120 166.167-120 273.5c0 108 40.333 199.333 121 274 78.667 73.333 172.334 110 281.001 110 109.333 0 203.333-36.333 282-109C750.667 570.334 791 478.667 791 370zm-103.001.001c0 81.333-29.5 149.667-88.5 205s-129.5 83-211.5 83c-80.667 0-150.334-27.667-209.001-83-60.667-56.667-91-125-91-205s29.833-147.833 89.5-203.5 129.834-83.5 210.501-83.5c82 0 152.5 27.5 211.5 82.5s88.5 123.167 88.5 204.5zm-104 134.001l-64.003-60c-16.667 19.333-33 34.333-49 45s-40.333 16-73 16c-39.333 0-69.833-12.833-91.5-38.5s-32.5-58.834-32.5-99.501c0-38 12.333-68.333 37-91s56-34 94-34c29.333 0 51.833 6.333 67.5 19s31.5 32.334 47.5 59.001l84-56c-34.667-45.333-66.667-76.833-96-94.5s-63.666-26.5-102.999-26.5c-64 0-119 21-165 63s-69 94.667-69 158c0 70.667 21.333 128.167 64 172.5s99.334 66.5 170.001 66.5c92.667-10 152.334-43 179.001-99z"/><glyph glyph-name="ordfeminine" unicode="ª" horiz-adv-x="365" d="M333 460l-97 .001c3.333 4.667 7.666 11.667 12.999 21l-8-1c-29.333-18-58-27-86-27-46 0-84.667 14-116 42s-47 64.667-47 110 15 81.666 45 108.999 67.667 41 113 41c32.667 0 61.334-8.333 86.001-25v18h97V460zm0-97.999H-8v78h341v-78zm-95 241c0 22.667-7 40.5-21 53.5s-32.667 19.5-56 19.5c-20 0-37.167-6.667-51.5-20s-21.5-30-21.5-50c0-22 6.833-39.667 20.5-53s31.5-20 53.5-20c22.667 0 41 6.167 55 18.5s21 29.5 21 51.5z"/><glyph glyph-name="guillemotleft" unicode="«" horiz-adv-x="507" d="M476 142l-87-56-198 228 197 236 88-56-149-180zm-187 1l-85-57L3 312l200 238 85-56-147-180z"/><glyph glyph-name="logicalnot" unicode="¬" d="M549 113H425v156H12v108h537V113z"/><glyph glyph-name="minus" unicode="­" horiz-adv-x="333" d="M322 215H12v88h310v-88z"/><glyph glyph-name="minus" unicode="−" horiz-adv-x="333" d="M322 215H12v88h310v-88z"/><glyph glyph-name="registered" unicode="®" horiz-adv-x="777" d="M791 370c0-108.667-39.834-200.166-119.501-274.499s-174.167-111.5-283.5-111.5c-108 0-202 37.5-282 112.5s-120 166.167-120 273.5c0 108 40.333 199.333 121 274 78.667 73.333 172.334 110 281.001 110 109.333 0 203.333-36.333 282-109C750.667 570.334 791 478.667 791 370zM569.999 141.001l-90 .002-110 191h-46v-191h-103v451h205c108 0 162-42 162-126 0-72.667-33.667-116.334-101-131.001l102-179c66 56 99 127.333 99 214 0 81.333-29.5 149.666-88.5 204.999s-129.5 83-211.5 83c-80.667 0-150.334-27.667-209.001-83-60.667-56.667-91-125-91-205s29.833-147.833 89.5-203.5 129.834-83.5 210.501-83.5c68 0 128.667 19.333 182 58zm-83 318.002c0 23.333-21.333 35-64 35h-99v-63h108c36.667 0 55 9.333 55 28z"/><glyph glyph-name="macron" unicode="¯" horiz-adv-x="552" d="M587 765H-35v63h622v-63z"/><glyph glyph-name="macron" unicode="ˉ" horiz-adv-x="552" d="M587 765H-35v63h622v-63z"/><glyph glyph-name="degree" unicode="°" horiz-adv-x="400" d="M353 593c0-40-15.667-72.667-47-98s-67.333-38-108-38c-40 0-75.333 12.333-106 37-32.667 26.667-49 59.667-49 99 0 40 16 73 48 99 30 24 65.667 36 107 36s77-12 107-36c32-26 48-59 48-99zm-93 0c0 16-6.332 29.001-18.999 39.001s-27 15-43 15c-17.333 0-32-4.833-44-14.5s-18-22.834-18-39.501c0-15.333 6.667-28.333 20-39s27.666-16 42.999-16c16.667 0 31 5 43 15s18 23.333 18 40z"/><glyph glyph-name="plusminus" unicode="±" d="M549 277H342V120H219v157H12v116h207v159h123V393h207V277zm0-277H12v116h537V0z"/><glyph glyph-name="twosuperior" unicode="²" horiz-adv-x="336" d="M342 297l-370 .001 240 254c17.333 18.667 26 36 26 52 0 15.333-6.5 28.833-19.5 40.5s-27.5 17.5-43.5 17.5c-47.333 0-71-22.667-71-68H-1c10.667 105.333 67.667 158 171 158 44 0 83-13 117-39 36.667-28.667 55-64.334 55-107.001 0-36-12.667-67.667-38-95L186 384h156v-87z"/><glyph glyph-name="threesuperior" unicode="³" horiz-adv-x="336" d="M338 422c0-34.667-17-65.668-51-93.001-30-24-70.667-36-122-36-48 0-87 12-117 36C15.333 355.666-1 392.333-1 439h99c4.667-39.333 28.667-59 72-59 16 0 31 5.167 45 15.5s21 23.5 21 39.5c0 38.667-33 58-99 58v86c62 0 93 14 93 42 0 14.667-6.5 25.667-19.5 33S183 665 167 665c-20 0-33-3.167-39-9.5s-10.333-19.833-13-40.5H5c19.333 93.333 76 140 170 140 42 0 77.667-10.667 107-32 32.667-23.333 49-55.333 49-96 0-38-15-68-45-90 34.667-26 52-64.333 52-115z"/><glyph glyph-name="acute" unicode="´" horiz-adv-x="348" d="M312 669L119 530l-74 37 145 152z"/><glyph glyph-name="mu" unicode="µ" horiz-adv-x="497" d="M461 190c0-67.333-17.332-120.667-51.999-160s-85.667-59-153-59C227.334-29 196.667-20.333 164-3v-260H37v723h127V194c0-70.667 28.667-106 86-106 56 0 84 35.333 84 106v266h127V190z"/><glyph glyph-name="mu" unicode="μ" horiz-adv-x="497" d="M461 190c0-67.333-17.332-120.667-51.999-160s-85.667-59-153-59C227.334-29 196.667-20.333 164-3v-260H37v723h127V194c0-70.667 28.667-106 86-106 56 0 84 35.333 84 106v266h127V190z"/><glyph glyph-name="paragraph" unicode="¶" d="M543 623l-59.999-1v-771h-122v771h-19v-771h-123v409c-24 0-50.667 7.667-80 23-79.333 42-119 114.667-119 218 0 58 22.167 112.167 66.5 162.5S181.667 739 239 739h304V623z"/><glyph glyph-name="periodcentered" unicode="·" d="M485 371c0-54-20.5-98.499-61.5-133.499s-88.833-52.5-143.5-52.5c-52 0-98.333 17.667-139 53C98.333 275.334 77 319.667 77 371c0 52 21 96.333 63 133 40 34 86.667 51 140 51 54 0 101.667-17.333 143-52s62-78.667 62-132z"/><glyph glyph-name="periodcentered" unicode="∙" d="M485 371c0-54-20.5-98.499-61.5-133.499s-88.833-52.5-143.5-52.5c-52 0-98.333 17.667-139 53C98.333 275.334 77 319.667 77 371c0 52 21 96.333 63 133 40 34 86.667 51 140 51 54 0 101.667-17.333 143-52s62-78.667 62-132z"/><glyph glyph-name="cedilla" unicode="¸" horiz-adv-x="320" d="M269-52L141-179l-86 35L161-18z"/><glyph glyph-name="onesuperior" unicode="¹" horiz-adv-x="336" d="M229 297H126v354H25l61 88h143V297z"/><glyph glyph-name="ordmasculine" unicode="º" horiz-adv-x="354" d="M354 604c0-48-20.332-86-60.999-114-35.333-24.667-78-37-128-37-42.667 0-80.834 14.667-114.501 44S0 562 0 604c0 46 19 83.333 57 112 34.667 26 75.334 39 122.001 39 47.333 0 87.666-13 120.999-39 36-28.667 54-66 54-112zm.001-242h-354v78h354v-78zm-96 242c0 20.667-7.833 37.335-23.5 50.002s-34.167 19-55.5 19c-22 0-40.667-6-56-18-17.333-12.667-26-29.667-26-51 0-20.667 8-37.334 24-50.001s34.667-19 56-19c20 0 38.5 6.667 55.5 20s25.5 29.666 25.5 48.999z"/><glyph glyph-name="guillemotright" unicode="»" horiz-adv-x="507" d="M507 318L309 82l-88 56 148 180-148 169 87 57zm-187-1L122 81l-88 60 151 175L34 487l88 59z"/><glyph glyph-name="onequarter" unicode="¼" horiz-adv-x="841" d="M823 65h-47V5H674v60H419l357 449V156h47V65zM692 714L243-16l-85 45 447 725zM205 283H103v361H8l55 89h142V283zm469-127v80l-64-80h64z"/><glyph glyph-name="onehalf" unicode="½" horiz-adv-x="841" d="M823 6H454l239 260c17.333 18.667 26 36 26 52 0 15.333-6.5 28.833-19.5 40.5S672 376 656 376c-47.333 0-71-23-71-69H480c12.667 106.667 69.667 160 171 160 44.667 0 83.667-12.667 117-38 36.667-28 55-63.667 55-107 0-37.333-13-70-39-98L666 98h157V6zM640 714L193-16l-82 46 445 724zM205 284H103v360H8l55 89h142V284z"/><glyph glyph-name="threequarters" unicode="¾" horiz-adv-x="841" d="M823 65h-47V6H674v59H419l357 450V156h47V65zm-77 650L299-16l-85 45 446 726zM359 412c0-41.333-19.331-74.667-57.998-100-33.333-21.333-72-32-116-32-47.333 0-86.333 12.667-117 38-32.667 27.333-49 64-49 110h102c0-39.333 23-59 69-59 17.333 0 32.666 5 45.999 15s20 23.333 20 40c0 39.333-31.667 59-95 59v88c60 0 90 14 90 42 0 14-6.5 25-19.5 33s-27.167 12-42.5 12c-20 0-33.5-3.5-40.5-10.5s-10.5-20.5-10.5-40.5h-107c8 49.333 25 85.333 51 108s63.667 34 113 34c43.333 0 79.666-10.667 108.999-32 32-24.667 48-57.667 48-99 0-36-15-66-45-90 34.667-25.333 52-64 52-116zm315.002-256.001v81l-64-81h64z"/><glyph glyph-name="questiondown" unicode="¿" horiz-adv-x="439" d="M293 429c0-20-7.665-37.667-22.998-53s-33.333-23-54-23-38.334 7-53.001 21-22 31.333-22 52c0 20 7.833 37.333 23.5 52s33.5 22 53.5 22c19.333 0 36.666-7 51.999-21s23-30.667 23-50zM408.002-97c0-46.667-19.5-86.001-58.5-118.001s-82.167-48-129.5-48c-54 0-100 17.667-138 53-40 36-60 80.667-60 134 0 58.667 21 103 63 133 18.667 13.333 57.334 29.666 116.001 48.999 42 13.333 63 29.666 63 48.999 0 12.667-4.167 24-12.5 34s-18.833 15-31.5 15c-34.667 0-52-24-52-72h-127c0 54.667 16.167 99.834 48.5 135.501s75.5 53.5 129.5 53.5c48.667 0 90.167-17 124.5-51s51.5-75.333 51.5-124c0-42-14-75-42-99-16.667-14-47.334-29.167-92.001-45.5s-74.5-30.666-89.5-42.999-22.5-22.166-22.5-29.499c0-50 21.667-75 65-75 18 0 33.833 5.833 47.5 17.5s20.5 26.167 20.5 43.5c0 6-4 22.667-12 50h134c2.667-28 4-48.667 4-62z"/><glyph glyph-name="Agrave" unicode="À" horiz-adv-x="682" d="M476 815l-75-44-191 170 120 59zM722 0H581l-85 177H188L104 0H-39l380 802zM442 296L341 515l-98-219h199z"/><glyph glyph-name="Aacute" unicode="Á" horiz-adv-x="682" d="M479 941L284 771l-72 44 145 185zM722 0H581l-85 177H188L104 0H-39l380 802zM442 296L341 515l-98-219h199z"/><glyph glyph-name="Acircumflex" unicode="Â" horiz-adv-x="682" d="M528 839l-90-68-97 89-96-89-90 68 186 161zM722 0H581l-85 177H188L104 0H-39l380 801zM442 296L341 515l-98-219h199z"/><glyph glyph-name="Atilde" unicode="Ã" horiz-adv-x="682" d="M554 898c-13.333-29.333-32-53-56-71-26-20-54.333-30-85-30-17.333 0-42.5 7.833-75.5 23.5S279.333 844 262 844c-16.667 0-34-17.333-52-52l-78 62c36.667 64 81 96 133 96 22.667 0 50.667-7.833 84-23.5s57-23.5 71-23.5c17.333 0 36.333 19 57 57zM722 0H581l-85 176H188L104 0H-39l380 797zM442 295L341 512l-98-217h199z"/><glyph glyph-name="Adieresis" unicode="Ä" horiz-adv-x="682" d="M522 887c0-22-7.667-40.331-23-54.998s-34-22-56-22c-20.667 0-39 7.667-55 23s-24 33.333-24 54c0 21.333 7.833 39.166 23.5 53.499s34.167 21.5 55.5 21.5c22.667 0 41.5-6.833 56.5-20.5S522 909.667 522 887zm-204 1.002c0-21.333-7.833-39.667-23.5-55s-34.167-23-55.5-23c-22 0-40.5 7.333-55.5 22s-22.5 33-22.5 55 7.5 40 22.5 54 33.5 21 55.5 21c21.333 0 39.833-7 55.5-21s23.5-31.667 23.5-53zM722 .001H580l-84 178H188l-84-178H-39l380 805zm-280 298l-101 219-98-219h199z"/><glyph glyph-name="Aring" unicode="Å" horiz-adv-x="682" d="M450 898c0-29.333-10.5-54.335-31.5-75.002s-46.167-31-75.5-31c-30 0-55.667 10.167-77 30.5s-32 45.5-32 75.5c0 28.667 11 52.834 33 72.501s47.333 29.5 76 29.5c29.333 0 54.5-9.667 75.5-29S450 927.333 450 898zM722-.002H581l-85 178H188l-84-178H-39l380 807zm-356 898c0 15.333-7.667 23-23 23-16.667 0-25-7.667-25-23 0-16.667 8.333-25 25-25 15.333 0 23 8.333 23 25zm76-600l-101 220-98-220h199z"/><glyph glyph-name="AE" unicode="Æ" horiz-adv-x="966" d="M1020 0H584l-80 175H196L114 0H-32l372 739h345l53-118H440l70-158h292l58-118H565l100-227h303zM453 294l-97 206-102-206h199z"/><glyph glyph-name="Ccedilla" unicode="Ç" horiz-adv-x="640" d="M430-20L303.998-179.001l-86 44 86 131c-85.333 24-156 71.333-212 142s-84 151-84 241c0 104.667 42 194 126 268 80.667 71.333 174 107 280 107 42.667 0 78.667-3.667 108-11 26.667-6.667 60.334-20 101.001-40v-158c-73.333 62-145.333 93-216 93-69.333 0-131.333-26.167-186-78.5s-82-113.166-82-182.499c0-75.333 26-140.166 78-194.499s115.333-81.5 190-81.5c65.333 0 137.333 31.333 216 94v-155C557.666 3.334 492.333-16.333 427-19z"/><glyph glyph-name="Egrave" unicode="È" horiz-adv-x="505" d="M384 815l-73-44-193 170 121 59zM483 0H50v745h433V625H181V467h294V348H181V119h302V0z"/><glyph glyph-name="Eacute" unicode="É" horiz-adv-x="505" d="M401 942L207 771l-73 44 145 185zM483 0H50v745h433V625H181V467h294V348H181V119h302V0z"/><glyph glyph-name="Ecircumflex" unicode="Ê" horiz-adv-x="505" d="M438 840l-88-69-98 90-98-90-87 69 185 160zM483 0H50v744h433V626H181V466h294V348H181V118h302V0z"/><glyph glyph-name="Edieresis" unicode="Ë" horiz-adv-x="505" d="M446 887c0-22-7.501-40.334-22.501-55.001s-33.5-22-55.5-22-40.667 7.333-56 22-23 33-23 55c0 22.667 7.5 40.834 22.5 54.501s33.833 20.5 56.5 20.5 41.334-7 56.001-21 22-32 22-54zm-204.001-.001c0-21.333-7.833-39.5-23.5-54.5s-34.167-22.5-55.5-22.5c-22 0-40.667 7.333-56 22s-23 33-23 55 7.5 40 22.5 54 33.833 21 56.5 21c22 0 40.667-7 56-21s23-32 23-54zm241-887h-433v748h433v-120h-302v-159h294v-120h-294v-230h302v-119z"/><glyph glyph-name="Igrave" unicode="Ì" horiz-adv-x="225" d="M243 815l-74-44-193 170 121 59zM179 0H48v745h131V0z"/><glyph glyph-name="Iacute" unicode="Í" horiz-adv-x="225" d="M250 941L57 771l-75 44 146 185zM177 0H46v745h131V0z"/><glyph glyph-name="Icircumflex" unicode="Î" horiz-adv-x="225" d="M298 840l-88-69-98 90-97-90-90 68 187 161zM177 0H46v744h131V0z"/><glyph glyph-name="Idieresis" unicode="Ï" horiz-adv-x="225" d="M293 887c0-21.333-7.833-39.499-23.5-54.499s-34.167-22.5-55.5-22.5-39.833 7.667-55.5 23-23.5 33.333-23.5 54c0 22 7.667 40 23 54s34 21 56 21c22.667 0 41.5-6.833 56.5-20.5S293 909.667 293 887zm-205 .001c0-21.333-7.669-39.501-23.002-54.501S31.332 810 9.999 810c-22 0-40.833 7.333-56.5 22s-23.5 33-23.5 55c0 22.667 7.667 40.834 23 54.501s34.333 20.5 57 20.5 41.334-7 56.001-21 22-32 22-54zM178.998 0h-131v748h131V0z"/><glyph glyph-name="Eth" unicode="Ð" horiz-adv-x="644" d="M645 379c0-120.667-40.667-215.333-122-284C446.333 31.667 346.333 0 223 0H42v337h-62v120h62v282h172c120 0 219.667-29.333 299-88 88-65.333 132-156 132-272zm-132-7.999c0 166.667-113.333 250-340 250v-164h131v-120H173v-219h36c88 0 159 19.667 213 59 60.667 44 91 108.667 91 194z"/><glyph glyph-name="Ntilde" unicode="Ñ" horiz-adv-x="762" d="M593 899c-14-28.667-32.999-51.667-56.999-69-26-19.333-54-29-84-29-16.667 0-41.667 7.667-75 23s-58.333 23-75 23c-14.667 0-32-17-52-51l-78 60c38 63.333 82.333 95 133 95 21.333 0 48.666-7.667 81.999-23s57.333-23 72-23c18 0 37.333 18.333 58 55zM723.001-31l-552 539V26h-130v782l549-539v477h133V-31z"/><glyph glyph-name="Ograve" unicode="Ò" horiz-adv-x="803" d="M531 814l-72-45-191 171 119 60zm274-442c0-108-40-199.833-120-275.5S510.667-17 402-17C292.667-17 198.334 20.667 119.001 96s-119 167.333-119 276 39.667 200.334 119 275.001 173.666 112 282.999 112 203.833-37.333 283.5-112S805 480.667 805 372zm-131 0c0 75.333-26.5 138.831-79.5 190.498s-117.167 77.5-192.5 77.5-139.5-25.833-192.5-77.5-79.5-115.167-79.5-190.5c0-73.333 27-136.166 81-188.499s117.667-78.5 191-78.5c74.667 0 138.667 25.833 192 77.5S674 297.333 674 372z"/><glyph glyph-name="Oacute" unicode="Ó" horiz-adv-x="803" d="M539 941L345 771l-72 44 145 185zm266-569c0-108-40-199.833-120-275.5S510.667-17 402-17C292.667-17 198.334 20.667 119.001 96s-119 167.333-119 276 39.667 200.334 119 275.001 173.666 112 282.999 112 203.833-37.333 283.5-112S805 480.667 805 372zm-131 0c0 75.333-26.5 138.831-79.5 190.498s-117.167 77.5-192.5 77.5-139.5-25.833-192.5-77.5-79.5-115.167-79.5-190.5c0-73.333 27-136.166 81-188.499s117.667-78.5 191-78.5c74.667 0 138.667 25.833 192 77.5S674 297.333 674 372z"/><glyph glyph-name="Ocircumflex" unicode="Ô" horiz-adv-x="803" d="M589 838l-89-67-98 88-96-88-90 67 186 162zm216-466c0-108-40.001-199.833-120.001-275.5S510.666-17 401.999-17C292.666-17 198.333 20.5 119 95.5S0 262.667 0 372c0 108.667 40 200.667 120 276 78.667 73.333 172.667 110 282 110s203.333-36.667 282-110c80.667-75.333 121-167.333 121-276zm-131.001 0c0 74.667-26.667 138.001-80 190.001s-117.333 78-192 78c-75.333 0-139.5-25.833-192.5-77.5s-79.5-115.167-79.5-190.5c0-74 26.833-137 80.5-189s117.5-78 191.5-78 137.833 26.167 191.5 78.5 80.5 115.166 80.5 188.499z"/><glyph glyph-name="Otilde" unicode="Õ" horiz-adv-x="803" d="M611 898c-13.333-29.333-31.666-53.333-54.999-72-26-20-54.333-30-85-30-16 0-40.833 8-74.5 24s-59.167 24-76.5 24c-16 0-32.667-17.333-50-52l-79 61c36.667 64.667 81 97 133 97 24.667 0 53.167-7.833 85.5-23.5S464.667 903 478 903c20 0 39.333 19 58 57zm194-528c0-107.333-40.002-198.666-120.002-273.999s-174.333-113-283-113c-109.333 0-203.666 37.167-282.999 111.5S-.001 260.667-.001 370c0 108 40.333 199.667 121 275C199.666 718.333 293.333 755 402 755s202.667-36.667 282-110c80.667-75.333 121-167 121-275zm-131.002 0c0 74.667-26.667 137.834-80 189.501s-117.333 77.5-192 77.5c-75.333 0-139.5-25.833-192.5-77.5s-79.5-114.834-79.5-189.501c0-74 26.833-136.667 80.5-188s117.5-77 191.5-77 137.833 25.833 191.5 77.5 80.5 114.167 80.5 187.5z"/><glyph glyph-name="Odieresis" unicode="Ö" horiz-adv-x="803" d="M584 887c0-22-7.669-40.333-23.002-55s-34-22-56-22c-21.333 0-39.666 7.5-54.999 22.5s-23 33.167-23 54.5c0 20.667 7.833 38.334 23.5 53.001s33.834 22 54.501 22c22.667 0 41.5-6.833 56.5-20.5S584 909.667 584 887zm-204.002 0c0-21.333-7.668-39.501-23.001-54.501s-33.666-22.5-54.999-22.5c-22 0-40.667 7.333-56 22s-23 33-23 55c0 22.667 7.5 40.834 22.5 54.501s33.833 20.5 56.5 20.5c22 0 40.5-7 55.5-21s22.5-32 22.5-54zm424.999-513.001c0-108-39.999-200.167-119.999-276.5s-174.333-114.5-283-114.5c-110 0-204 37.333-282 112-80 76-120 169-120 279 0 108.667 40 201 120 277 78.667 74 172.667 111 282 111s203.666-37 282.999-111c80-76 120-168.333 120-277zm-130.999 0c0 75.333-26.5 139-79.5 191s-117.167 78-192.5 78c-76 0-140.333-25.833-193-77.5s-79-115.5-79-191.5c0-74 26.833-137.167 80.5-189.5s117.5-78.5 191.5-78.5 137.833 26.333 191.5 79 80.5 115.667 80.5 189z"/><glyph glyph-name="multiply" unicode="×" horiz-adv-x="584" d="M532 219l-86-78-154 135-154-134-87 76 154 135L51 489l89 76 152-135 154 136 85-78-152-135z"/><glyph glyph-name="Oslash" unicode="Ø" horiz-adv-x="803" d="M821 693l-100.001-95c56-68 84-144 84-228 0-106-41-196-123-270C602.666 28 509.333-8 402-8c-91.333 0-174.666 26.667-249.999 80l-98-93-68 67 95 90c-54 61.333-81 139.333-81 234 0 106.667 40.667 196.667 122 270C201.334 711.333 294.667 747 402 747c92.667 0 177-28 253-84l96 92zM673.999 370c0 51.333-15.668 99.333-47.001 144l-380-357c44.667-31.333 96.334-47 155.001-47 73.333 0 137 25.167 191 75.5s81 111.833 81 184.5zM562.998 580c-45.333 34-99 51-161 51-74 0-137.833-25-191.5-75s-80.5-112-80.5-186c0-54.667 15.333-105 46-151z"/><glyph glyph-name="Ugrave" unicode="Ù" horiz-adv-x="650" d="M446 815l-74-44-193 170 121 59zm167-538c0-86-26.667-156.5-80-211.5S410-17 324-17c-82.667 0-151.167 27.333-205.5 82S37 188.667 37 272v473h131V293c0-125.333 52-188 156-188 105.333 0 158 65.333 158 196v444h131V277z"/><glyph glyph-name="Uacute" unicode="Ú" horiz-adv-x="650" d="M461 942L267 771l-73 44 145 185zm152-665c0-86-26.667-156.5-80-211.5S410-17 324-17c-82.667 0-151.167 27.333-205.5 82S37 188.667 37 272v473h131V293c0-125.333 52-188 156-188 105.333 0 158 65.333 158 196v444h131V277z"/><glyph glyph-name="Ucircumflex" unicode="Û" horiz-adv-x="650" d="M512 839l-88-68-98 89-98-89-87 68 185 161zm103-563c0-85.333-26.833-155.5-80.5-210.5S411.333-17 326-17c-82.667 0-151.167 27.5-205.5 82.5S39 189.333 39 272v472h131V293c0-125.333 52-188 156-188 105.333 0 158 65 158 195v444h131V276z"/><glyph glyph-name="Udieresis" unicode="Ü" horiz-adv-x="650" d="M507 887c0-20.667-7.833-38.669-23.5-54.002s-34.167-23-55.5-23c-20.667 0-38.834 7.667-54.501 23s-23.5 33.333-23.5 54c0 22.667 7.333 40.834 22 54.501s33.334 20.5 56.001 20.5c21.333 0 39.833-7.167 55.5-21.5S507 908.333 507 887zm-205-.002c0-21.333-7.835-39.501-23.502-54.501s-34.167-22.5-55.5-22.5-39.666 7.5-54.999 22.5-23 33.167-23 54.5c0 22.667 7.333 40.834 22 54.501s33.334 20.5 56.001 20.5c22 0 40.667-7 56-21s23-32 23-54zm312.998-609.001c0-86-26.667-156.667-80-212s-123-83-209-83c-82.667 0-151.167 27.5-205.5 82.5s-81.5 124.167-81.5 207.5v475h131v-454c0-125.333 52-188 156-188 105.333 0 158 65.333 158 196v446h131v-470z"/><glyph glyph-name="Yacute" unicode="Ý" horiz-adv-x="555" d="M453 938L259 768l-74 45 146 185zm144-193L344 322V0H213v322L-40 745h150l168-283 170 283h149z"/><glyph glyph-name="Thorn" unicode="Þ" horiz-adv-x="479" d="M489 391c0-72-25.001-128.668-75.001-170.001-46.667-38-107-57-181-57h-52v-164h-133l2 739h131v-130h3c.667-.667 1.334-1 2.001-1 20-.667 50-2.667 90-6C418 582.666 489 512.333 489 391zm-125.001-2.001c0 70-53 105-159 105h-24v-214c54.667 0 95 5.333 121 16 41.333 16.667 62 47.667 62 93z"/><glyph glyph-name="germandbls" unicode="ß" horiz-adv-x="563" d="M570 272c0-40-3.666-70.665-10.999-91.998-17.333-50.667-46.5-92.834-87.5-126.501S383.668-1.333 331.001-10c-22.667-4-48.667-6-78-6v117c50 0 93.333 13.667 130 41 40 30 60 69.333 60 118 0 52-19.333 92-58 120-34 24-78 36-132 36v120c37.333 0 67.666 8.333 90.999 25 27.333 18.667 41 46 41 82 0 29.333-11 53.5-33 72.5S304.333 744 275 744c-68 0-102-52.667-102-158V-1H46v363H6v117h40v132c0 78.667 18.667 139.667 56 183 39.333 46.667 97 70 173 70 66 0 121.833-21.833 167.5-65.5S511 700.333 511 635c0-60-23.667-108.667-71-146 38.667-20.667 70-51 94-91s36-82 36-126z"/><glyph glyph-name="agrave" unicode="à" horiz-adv-x="541" d="M402 537l-74-44-191 167 119 59zM507-1l-127-.001v38c-37.333-35.333-83-53-137-53-70 0-127.333 24.167-172 72.5S4 164.332 4 234.999 26.333 364.333 71 411s102 70 172 70c48 0 93.667-17.333 137-52v41h127V-1zM383 236.999c0 37.333-11.497 69-34.497 95s-53.167 39-90.5 39c-36.667 0-66.834-13.333-90.501-40s-35.5-58.667-35.5-96c0-36 10.667-67.667 32-95 23.333-30 52.666-45 87.999-45 41.333 0 73.666 13.667 96.999 41 22.667 25.333 34 59 34 101z"/><glyph glyph-name="aacute" unicode="á" horiz-adv-x="541" d="M407 660L213 493l-73 44 146 182zM507-1l-127-.001v38c-37.333-35.333-83-53-137-53-70 0-127.333 24.167-172 72.5S4 164.332 4 234.999 26.333 364.333 71 411s102 70 172 70c48 0 93.667-17.333 137-52v41h127V-1zM383 236.999c0 37.333-11.497 69-34.497 95s-53.167 39-90.5 39c-36.667 0-66.834-13.333-90.501-40s-35.5-58.667-35.5-96c0-36 10.667-67.667 32-95 23.333-30 52.666-45 87.999-45 41.333 0 73.666 13.667 96.999 41 22.667 25.333 34 59 34 101z"/><glyph glyph-name="acircumflex" unicode="â" horiz-adv-x="541" d="M457 562l-90-69-98 87-97-87-88 69 185 157zM507-1H380v38c-37.333-35.333-83-53-137-53-70 0-127.333 24.167-172 72.5S4 164.333 4 235c0 71.333 22.167 130 66.5 176s101.833 69 172.5 69c50 0 95.667-17 137-51v40h127V-1zM383 237c0 38.667-11.33 70.501-33.997 95.501s-53 37.5-91 37.5c-36.667 0-66.834-13.333-90.501-40s-35.5-58.334-35.5-95.001c0-36 10.667-67.667 32-95 23.333-30 52.666-45 87.999-45 41.333 0 73.666 13.667 96.999 41 22.667 25.333 34 59 34 101z"/><glyph glyph-name="atilde" unicode="ã" horiz-adv-x="541" d="M481 621c-12.667-28.667-31.667-52.5-57-71.5S370.667 521 340 521c-17.333 0-42.833 7.833-76.5 23.5S205 568 189 568s-33-17-51-51l-78 61c40 64 84.333 96 133 96 20.667 0 47.667-8 81-24s58-24 74-24 36 18 60 54zM507-1H380v38c-37.333-35.333-83-53-137-53-70 0-127.333 24-172 72S4 163.333 4 234c0 71.333 22.167 130 66.5 176s101.833 69 172.5 69c50 0 95.667-17 137-51v40h127V-1zM383 236c0 38-11.498 69.832-34.498 95.499s-53.167 38.5-90.5 38.5c-36.667 0-66.834-13.333-90.501-40s-35.5-58.667-35.5-96c0-36 10.667-67.667 32-95 23.333-29.333 52.666-44 87.999-44 40.667 0 72.667 13.333 96 40S383 195.333 383 236z"/><glyph glyph-name="adieresis" unicode="ä" horiz-adv-x="541" d="M452 607c0-22-7.332-39.999-21.999-53.999s-33.334-21-56.001-21c-21.333 0-40 7.167-56 21.5S294 585.667 294 607c0 20.667 8 38.334 24 53.001s34.333 22 55 22 39-7.333 55-22 24-32.334 24-53.001zm-204.999.001c0-22-7.331-40.001-21.998-54.001s-33.334-21-56.001-21-41.5 6.833-56.5 20.5-22.5 31.834-22.5 54.501c0 20.667 7.667 38.334 23 53.001s33.666 22 54.999 22c20.667 0 39-7.333 55-22s24-32.334 24-53.001zM507.003-1l-127 .001v38c-37.333-35.333-83-53-137-53-70.667 0-128.167 24.333-172.5 73s-66.5 108.667-66.5 180S26.17 367.167 70.503 413.5s101.833 69.5 172.5 69.5c55.333 0 101-17.333 137-52v41h127V-1zm-124 239.001c0 37.333-11.5 69.166-34.5 95.499s-53.167 39.5-90.5 39.5c-36 0-66-13.5-90-40.5s-36-58.833-36-95.5 10.667-68.667 32-96c22.667-30 52-45 88-45 40 0 72.333 13.667 97 41 22.667 26.667 34 60.334 34 101.001z"/><glyph glyph-name="aring" unicode="å" horiz-adv-x="541" d="M378 618c0-30-10.333-54.999-31-74.999s-46-30-76-30-55.667 10.167-77 30.5-32 45.166-32 74.499c0 28 11.167 51.833 33.5 71.5S243 719 271 719c28.667 0 53.667-9.667 75-29s32-43.333 32-72zM507-.999H379.999v38c-37.333-35.333-83-53-137-53-70 0-127.667 25-173 75-44 48-66 107.333-66 178 0 70 22.5 128.833 67.5 176.5s102.167 71.5 171.5 71.5c48.667 0 94.334-17 137.001-51v39h127v-474zm-213.001 619c0 14-7.667 21-23 21-17.333 0-26-7.333-26-22 0-6 2.833-11.5 8.5-16.5s11.5-7.5 17.5-7.5c15.333 0 23 8.333 23 25zm89-379c0 38.667-11.331 70.833-33.998 96.5s-53 38.5-91 38.5c-36.667 0-66.834-13.667-90.501-41s-35.5-59.333-35.5-96 10.667-68.667 32-96c23.333-30 52.666-45 87.999-45 41.333 0 74 13.667 98 41 22 26 33 60 33 102z"/><glyph glyph-name="ae" unicode="æ" horiz-adv-x="783" d="M796 124C736.667 30.667 659.001-16 563.001-16c-68.667 0-128 23-178 69-45.333-46-103.333-69-174-69-54.667 0-101.667 13-141 39-45.333 30.667-68 71.667-68 123l2 2c0 28 10.667 56 32 84 35.333 46 89 69 161 69 63.333 0 103-6 119-18 0 34-11.333 57-34 69-16.667 8.667-43.667 13-81 13-36 0-79.333-6.333-130-19v112c47.333 8 94.666 12 141.999 12 81.333 0 138.666-18.333 171.999-55 46 38 102 57 168 57 157.333 0 236-91.667 236-275h-346c12.667-68.667 53.667-103 123-103 46.667 0 87.334 30.333 122.001 91zM660.001 295c-6.667 22-19.5 39.167-38.5 51.5s-40.5 18.5-64.5 18.5c-22 0-42.667-6.5-62-19.5s-33-29.833-41-50.5h206zm-348-149c0 17.333-12.669 31-38.002 41-19.333 6.667-39.666 10-60.999 10-18 0-36-4.333-54-13-22.667-10-34-23-34-39s11.667-29 35-39c18.667-8.667 37.334-13 56.001-13l6 1c20 0 38.667 4 56 12 22.667 10 34 23.333 34 40z"/><glyph glyph-name="ccedilla" unicode="ç" horiz-adv-x="428" d="M324-21L193-179.001l-84 44 86 126c-54.667 15.333-99.667 43-135 83-37.333 43.333-56 93-56 149 0 71.333 27 130.666 81 177.999 52 46 114 69 186 69 52 0 99.667-11.333 143-34v-169c-26.667 30-49 51-67 63-26.667 18.667-55.334 28-86.001 28-35.333 0-65.666-12.667-90.999-38s-38-55.666-38-90.999c0-38 12.667-70 38-96s56.666-39 93.999-39c30.667 0 58.334 7.667 83.001 23 6.667 4.667 29 23.334 67 56.001V14c-32.667-15.333-66.667-25.333-102-30z"/><glyph glyph-name="egrave" unicode="è" horiz-adv-x="474" d="M368 537l-72-44-191 167 119 59zm119-410c-34-50.667-67.334-86.334-100.001-107.001-38-24-85.667-36-143-36-33.333 0-66.333 7.333-99 22-94 42.667-141 124.334-141 245.001 0 68 23.667 123.667 71 167 45.333 42 102 63 170 63 78.667 0 138-24.333 178-73 37.333-44.667 56-107 56-187 0-2-.833-5.5-2.5-10.5s-2.5-8.167-2.5-9.5h-339c4-32 16.667-57.667 38-77s48.333-29 81-29c50.667 0 91.334 31 122.001 93zM346.999 301c-14.667 47.333-47 71-97 71-56 0-91.667-23.667-107-71h204z"/><glyph glyph-name="eacute" unicode="é" horiz-adv-x="474" d="M375 660L182 493l-74 44 145 182zm112-533c-34-50.667-67.334-86.334-100.001-107.001-38-24-85.667-36-143-36-33.333 0-66.333 7.333-99 22-94 42.667-141 124.334-141 245.001 0 68 23.667 123.667 71 167 45.333 42 102 63 170 63 78.667 0 138-24.333 178-73 37.333-44.667 56-107 56-187 0-2-.833-5.5-2.5-10.5s-2.5-8.167-2.5-9.5h-339c4-32 16.667-57.667 38-77s48.333-29 81-29c50.667 0 91.334 31 122.001 93zM346.999 301c-14.667 47.333-47 71-97 71-56 0-91.667-23.667-107-71h204z"/><glyph glyph-name="ecircumflex" unicode="ê" horiz-adv-x="474" d="M423 562l-88-70-98 88-97-87-88 69 185 157zm64-435c-34-50.667-67.668-86.335-101.001-107.002-37.333-24-84.666-36-141.999-36-34 0-67 7.333-99 22C51 48.665 4 130.332 4 250.999c0 28 6.333 57.667 19 89 37.333 93.333 111.333 140 222 140 77.333 0 136.333-23.333 177-70 38-44.667 57-106 57-184 0-2.667-.667-6.667-2-12-2-7.333-3-11.666-3-12.999H135c3.333-32 16-57.667 38-77s49-29 81-29c50 0 90.667 31 122 93zM346.999 300.999c-14.667 46.667-47 70-97 70-55.333 0-91-23.333-107-70h204z"/><glyph glyph-name="edieresis" unicode="ë" horiz-adv-x="474" d="M416 607c0-22-7.332-40-21.999-54S360.667 532 338 532c-22 0-40.833 7-56.5 21S258 585 258 607c0 20.667 8 38.334 24 53.001s34.333 22 55 22 39-7.333 55-22 24-32.334 24-53.001zm-204.999 0c0-22.667-7.333-40.832-22-54.499s-33.334-20.5-56.001-20.5c-22 0-40.667 6.833-56 20.5s-23 31.834-23 54.501c0 21.333 7.833 39.166 23.5 53.499s33.834 21.5 54.501 21.5 39-7.333 55-22 24-32.334 24-53.001zm276-478.998c-32-49.333-65.667-85.332-101-107.999-38.667-24-86-36-142-36-74 0-133.333 27-178 81-41.333 50-62 112.667-62 188 0 27.333 6.333 57 19 89 37.333 94 111.333 141 222 141 78.667 0 138-24.333 178-73 36.667-44.667 55-107.334 55-188.001 0 2.667-1.333-4-4-20h-339c3.333-32 16-57.667 38-77s49-29 81-29c50 0 90.667 31 122 93zm-140 175.001c-16 47.333-48.332 71-96.999 71-54.667 0-90.334-23.667-107.001-71h204z"/><glyph glyph-name="igrave" unicode="ì" horiz-adv-x="246" d="M252 538l-72-45-194 167 122 59zM187 0H60v470h127V0z"/><glyph glyph-name="iacute" unicode="í" horiz-adv-x="246" d="M258 660L64 493l-72 45 145 181zM187 0H60v470h127V0z"/><glyph glyph-name="icircumflex" unicode="î" horiz-adv-x="246" d="M309 562l-88-69-98 87-97-87-89 69 187 157zM187 0H60v469h127V0z"/><glyph glyph-name="idieresis" unicode="ï" horiz-adv-x="246" d="M304 607c0-21.333-7.667-39.167-23-53.5S247 532 225 532s-40.5 7-55.5 21-22.5 32-22.5 54c0 21.333 7.5 39.166 22.5 53.499s33.167 21.5 54.5 21.5 40-7.167 56-21.5 24-32.166 24-53.499zm-204-.001c0-21.333-7.832-39.164-23.499-53.497s-34.167-21.5-55.5-21.5c-22 0-40.667 7.167-56 21.5s-23 32.166-23 53.499 7.667 39.166 23 53.499S-1.333 682 20 682c20.667 0 39.167-7.333 55.5-22s24.5-32.334 24.5-53.001zM187.001.001h-127v472h127v-472z"/><glyph glyph-name="eth" unicode="ð" horiz-adv-x="523" d="M524 234c0-74-25-134.166-75-180.499s-112.333-69.5-187-69.5c-72 0-133.333 23.833-184 71.5S2 162.668 2 234.001c0 68 24.667 127 74 177s108 75 176 75c7.333 0 18.333-.667 33-2-38.667 54-71.667 94.333-99 121l-154-84-78 80 155 85-98 102 112 62 97-104 143 79 73-79-141-80c44.667-50.667 94-117.834 148-201.501S524 304 524 234zm-128 2.001c0 37.333-13 68.667-39 94s-57.667 38-95 38-69.5-13.167-96.5-39.5-40.5-58.166-40.5-95.499c0-34.667 14.5-65.834 43.5-93.501s60.833-41.5 95.5-41.5c36 0 67 14 93 42s39 60 39 96z"/><glyph glyph-name="ntilde" unicode="ñ" horiz-adv-x="507" d="M464 620c-32-66-79-99-141-99-16.667 0-42.5 7.833-77.5 23.5S186.333 568 173 568c-16.667 0-34-17.333-52-52l-78 61c38.667 64 83.334 96 134.001 96 18.667 0 39-4.333 61-13l57-28c9.333-.667 21.666-3 36.999-7 19.333 2 38 20.333 56 55zm3-620L339.999.001v278c0 34-4.667 57.333-14 70-11.333 14-33.333 21-66 21-61.333 0-92-38.667-92-116v-253h-127v468h127v-28c28 26 68.333 39 121 39 64.667 0 111.334-18 140.001-54 25.333-32.667 38-82.334 38-149.001V0z"/><glyph glyph-name="ograve" unicode="ò" horiz-adv-x="523" d="M394 537l-74-44-192 167 121 59zm130-305c0-70-26.167-129-78.5-177S332-17 262-17C193.333-17 132.5 7.5 79.5 56.5S0 164 0 232c0 71.333 25.667 130.666 77 177.999s113 71 185 71 133.667-23.667 185-71S524 303.333 524 232zm-127 0c0 37.333-13.001 68.667-39.001 94s-58 38-96 38c-36.667 0-68.667-12.833-96-38.5s-41-57.167-41-94.5c0-36 13.667-66.5 41-91.5s59.333-37.5 96-37.5 68.334 12.667 95.001 38 40 56 40 92z"/><glyph glyph-name="oacute" unicode="ó" horiz-adv-x="523" d="M399 658L205 491l-73 44 145 182zm125-427c0-69.333-26.167-128-78.5-176S332-17 262-17C193.333-17 133 7 81 55 27 104.333 0 163 0 231c0 71.333 25.667 130.833 77 178.5S190 481 262 481s133.667-23.833 185-71.5 77-107.167 77-178.5zm-127 0c0 37.333-13.168 68.834-39.501 94.501s-58.166 38.5-95.499 38.5c-36.667 0-68.667-13-96-39s-41-57.333-41-94c0-36 13.667-66.5 41-91.5s59.333-37.5 96-37.5c36 0 67.5 12.667 94.5 38S397 195.667 397 231z"/><glyph glyph-name="ocircumflex" unicode="ô" horiz-adv-x="523" d="M448 562l-88-69-98 87-98-88-90 69 189 158zm76-331c0-69.333-26-127.833-78-175.5S332.667-16 262-16C192.667-16 131.667 8 79 56S0 162.333 0 231c0 71.333 26.333 131 79 179 50.667 46.667 111.667 70 183 70 72.667 0 134.5-23.5 185.5-70.5S524 303 524 231zm-127 0c0 36.667-13.169 67.999-39.502 93.999s-58.166 39-95.499 39c-36.667 0-68.667-13-96-39s-41-57.667-41-95c0-35.333 14-65.666 42-90.999s59.667-38 95-38c36.667 0 68.334 12.5 95.001 37.5s40 55.833 40 92.5z"/><glyph glyph-name="otilde" unicode="õ" horiz-adv-x="523" d="M474 621c-32.667-66.667-79.667-100-141-100-16.667 0-42 7.833-76 23.5S198 568 182 568c-16.667 0-34-17-52-51l-77 61c36.667 64 80.667 96 132 96 20 0 46.833-8 80.5-24s59.167-24 76.5-24c14 0 32.333 18 55 54zm50-390c0-69.333-26-127.833-78-175.5S332.667-16 262-16C192.667-16 131.667 8 79 56S0 162.333 0 231c0 70.667 26.333 130 79 178 50.667 46.667 111.667 70 183 70 72 0 133.667-23.5 185-70.5s77-106.167 77-177.5zm-127 0c0 36.667-13.169 67.833-39.502 93.5S299.332 363 261.999 363c-36.667 0-68.667-13-96-39s-41-57.333-41-94c0-36 13.833-66.5 41.5-91.5s59.5-37.5 95.5-37.5c36.667 0 68.334 12.667 95.001 38s40 56 40 92z"/><glyph glyph-name="odieresis" unicode="ö" horiz-adv-x="523" d="M443 607c0-22.667-7.499-40.832-22.499-54.499s-33.833-20.5-56.5-20.5-41.5 6.833-56.5 20.5-22.5 31.834-22.5 54.501c0 21.333 7.667 39.166 23 53.499s33.666 21.5 54.999 21.5c20.667 0 39.167-7.333 55.5-22S443 627.667 443 607zm-204.999.002c0-22-7.667-40.002-23-54.002s-34-21-56-21-40.5 7-55.5 21-22.5 32-22.5 54c0 20.667 7.667 38.334 23 53.001s33.333 22 54 22c21.333 0 40-7.167 56-21.5s24-32.166 24-53.499zm286-374.002c0-70-26-129.167-78-177.5S332.668-17 262.001-17c-68 0-128.667 24.667-182 74s-80 108-80 176c0 72 25.5 131.667 76.5 179s112.833 71 185.5 71c73.333 0 135.333-23.5 186-70.5s76-106.833 76-179.5zm-127 0c0 37.333-13.169 68.833-39.502 94.5S299.333 366 262 366c-36.667 0-68.667-13-96-39s-41-57.667-41-95c0-36 13.833-66.667 41.5-92s59.5-38 95.5-38c36.667 0 68.334 12.667 95.001 38s40 56.333 40 93z"/><glyph glyph-name="divide" unicode="÷" horiz-adv-x="549" d="M344 423H204v127h140V423zm187-125H18v110h513V298zM344 156H204v127h140V156z"/><glyph glyph-name="oslash" unicode="ø" horiz-adv-x="523" d="M537 427l-64-58c34-44.667 51-92.667 51-144 0-67.333-27.333-124-82-170-52-43.333-112.667-65-182-65-58 0-109.333 15-154 45L47-21l-59 52 60 56C14.667 133.667-2 181-2 229c0 67.333 27.667 124 83 170 52 44 112.333 66 181 66 57.333 0 108.333-14.667 153-44l64 59zM397 229c0 18.667-5.668 37.667-17.001 57l-181-170c17.333-9.333 36.333-14 57-14 36.667 0 69.334 12.167 98.001 36.5s43 54.5 43 90.5zm-74.001 110c-20 9.333-40.333 14.001-61 14.001-34 0-65.333-12.5-94-37.5s-43-54.5-43-88.5c0-14.667 5.667-33.334 17-56.001z"/><glyph glyph-name="ugrave" unicode="ù" horiz-adv-x="497" d="M381 537l-74-44-191 167 119 59zm80-336c0-66-18-119.334-54-160.001-38-42-89.667-63-155-63-62.667 0-114.167 20.333-154.5 61S37 131.333 37 194v275h127V205c0-30.667 7-56 21-76 16-22.667 38.333-34 67-34 54.667 0 82 36.667 82 110v264h127V201z"/><glyph glyph-name="uacute" unicode="ú" horiz-adv-x="497" d="M386 660L191 493l-71 44 144 182zm75-459c0-66-18-119.334-54-160.001-38-42-89.667-63-155-63-62.667 0-114.167 20.333-154.5 61S37 131.333 37 194v275h127V205c0-30.667 7-56 21-76 16-22.667 38.333-34 67-34 54.667 0 82 36.667 82 110v264h127V201z"/><glyph glyph-name="ucircumflex" unicode="û" horiz-adv-x="497" d="M434 562l-88-69-97 87-97-88-89 70 187 157zm27-361c0-66-18-119.333-54-160-38-42-89.667-63-155-63-62.667 0-114.167 20.167-154.5 60.5S37 130.333 37 193v276h127V205c0-30.667 7-56 21-76 16-22.667 38.333-34 67-34 54.667 0 82 36.667 82 110v264h127V201z"/><glyph glyph-name="udieresis" unicode="ü" horiz-adv-x="497" d="M432 605c0-21.333-7.832-39.165-23.499-53.498s-34.167-21.5-55.5-21.5c-22 0-40.667 7-56 21s-23 32-23 54c0 21.333 7.667 39.166 23 53.499s33.666 21.5 54.999 21.5c20.667 0 39.167-7.333 55.5-22S432 625.667 432 605zm-204.999.001c0-22.667-7.499-40.834-22.499-54.501s-33.833-20.5-56.5-20.5-41.5 6.833-56.5 20.5-22.5 31.834-22.5 54.501c0 21.333 7.667 39.166 23 53.499s33.666 21.5 54.999 21.5 40-7.167 56-21.5 24-32.166 24-53.499zm234.001-405c0-67.333-17.667-121-53-161-37.333-42-89.333-63-156-63-63.333 0-115 20.333-155 61s-60 92.667-60 156v277h127v-266c0-30 7-55.333 21-76 16-23.333 38.333-35 67-35 54.667 0 82 37 82 111v266h127v-270z"/><glyph glyph-name="yacute" unicode="ý" horiz-adv-x="469" d="M371 659L177 490l-73 45 145 184zm145-193L128-263H-15L172 82-48 466h149l141-256 129 256h145z"/><glyph glyph-name="thorn" unicode="þ" horiz-adv-x="541" d="M533 233c0-68.667-20.333-128-61-178-44-53.333-99.667-80-167-80-57.333 0-105.333 18-144 54v-292H34V852h127V431l4 3c45.333 34 90.333 51 135 51 70 0 127-25 171-75 41.333-47.333 62-106.333 62-177zm-125-1c0 40-11.832 73.333-35.499 100s-55.167 40-94.5 40c-36.667 0-66-13.833-88-41.5s-33-60.167-33-97.5c0-39.333 10-72.333 30-99 22-28.667 51.667-43.667 89-45 1.333.667 4.666 1 9.999 1 36.667 0 66.667 14.667 90 44 21.333 27.333 32 60 32 98z"/><glyph glyph-name="ydieresis" unicode="ÿ" horiz-adv-x="469" d="M416 606c0-21.333-7.668-39.5-23.001-54.5S359.333 529 338 529c-20 0-38.333 7.833-55 23.5S258 586 258 606c0 21.333 7.833 39.333 23.5 54s34.167 22 55.5 22 39.833-7.333 55.5-22 23.5-32.667 23.5-54zm-205.001 0c0-22-7.499-40.333-22.499-55S155 529 133 529c-21.333 0-39.833 7.5-55.5 22.5S54 584.667 54 606s7.667 39.333 23 54 33.666 22 54.999 22 39.833-7.333 55.5-22 23.5-32.667 23.5-54zM516 469L128-263H-15L172 83-48 469h149l141-257 129 257h145z"/><glyph glyph-name="OE" unicode="Œ" horiz-adv-x="1109" d="M1100-1l-421.998-.001v87c-74-68-165-102-273-102s-202 36-282 108c-82 74.667-123 165.334-123 272.001 0 110.667 39.667 204 119 280 77.333 74 171.666 111 282.999 111 41.333 0 83.666-6.667 126.999-20 46.667-14.667 84.667-34 114-58l35-29v92h422V622H801V463h291V345H801V117h299V-1zM674.002 364.999c0 78.667-25.499 143.5-76.499 194.5s-115.833 76.5-194.5 76.5-143.834-25.667-195.501-77-77.5-116.333-77.5-195c0-72 27.667-133.667 83-185 53.333-49.333 116.333-74 189-74 73.333 0 137 25.167 191 75.5s81 111.833 81 184.5z"/><glyph glyph-name="oe" unicode="œ" horiz-adv-x="869" d="M884 125C831.333 30.333 752.999-17.001 648.999-17.001c-83.333 0-147.666 27.333-192.999 82C433.333 39.666 404 19.333 368 4s-71.333-23-106-23C196-19 136.667 3.333 84 48 28 95.333 0 151.333 0 216c0 70 24 130.167 72 180.5S179 472 249 472c80 0 149-27.333 207-82 47.333 54.667 112 82 194 82 68.667 0 123.667-22.333 165-67s62-102 62-172v-36H532c5.333-30.667 18.5-55.5 39.5-74.5S618.333 94 649 94c52 0 93.333 30 124 90zM742.999 294.999c-10.667 46.667-49.332 70-115.999 70-18 0-35.333-7.167-52-21.5s-28.334-30.5-35.001-48.5h203zm-345.998-68c0 36-13 66.667-39 92s-57 38-93 38c-38 0-69.667-10.667-95-32-28-22.667-42-52.667-42-90 0-34 11.333-64.333 34-91 24-28.667 52.667-43 86-43 40 0 74 11 102 33 31.333 23.333 47 54.333 47 93z"/><glyph glyph-name="Scaron" unicode="Š" horiz-adv-x="521" d="M278 938l-7-10-9 13 10-8zm233-684c0-54-13.501-102.499-40.501-145.499s-64.833-76.167-113.5-99.5c-36-17.333-68.333-26-97-26-73.333 0-132.333 26.667-177 80-39.333 46-63.666 107.333-72.999 184l133 33c0-106 40.667-159 122-159 38 0 67.333 15.667 88 47 18 27.333 27 60.666 27 99.999 0 40.667-29 76-87 106-101.333 52.667-155.333 81.334-162 86.001-58 44.667-87 104.667-87 180 0 64 23.333 117 70 159s102 63 166 63c91.333 0 163-49.667 215-149l-105-72c-31.333 57.333-69.333 86-114 86-26 0-49.333-8.5-70-25.5s-31-38.167-31-63.5c0-32.667 16.667-59.334 50-80.001 7.333-4.667 38-18 92-40 129.333-53.333 194-141.333 194-264z"/><glyph glyph-name="scaron" unicode="š" horiz-adv-x="374" d="M198 668l-7-10-9 13 10-8zm170-495c0-47.333-16.001-90.002-48.001-128.002-34.667-40.667-75-61-121-61-91.333 0-155 49.333-191 148l112 60c19.333-50.667 43.333-76 72-76 10 0 20.5 4.333 31.5 13s16.5 17.667 16.5 27c0 22-17.667 44.667-53 68-58 38-91 60.333-99 67-35.333 32.667-53 71.334-53 116.001 0 44 14.833 83 44.5 117s66.167 51 109.5 51c37.333 0 69-11.667 95-35 18.667-17.333 38-45.666 58-84.999l-107-65c-17.333 36-34.666 54-51.999 54s-26-10-26-30c0-14.667 18.333-31 55-49 49.333-24 83-44.667 101-62 36.667-34 55-77.333 55-130z"/><glyph glyph-name="Ydieresis" unicode="Ÿ" horiz-adv-x="555" d="M468 826c0-22-7.5-40.167-22.5-54.5S412 750 390 750s-40.5 7.167-55.5 21.5S312 804 312 826c0 21.333 7.5 39.333 22.5 54s33.167 22 54.5 22 39.833-7.333 55.5-22 23.5-32.667 23.5-54zm-205 0c0-22.667-7.332-41-21.999-55S207.667 750 185 750c-22 0-40.667 7.167-56 21.5S106 804 106 826c0 20 8 37.667 24 53s34 23 54 23c22 0 40.667-7.167 56-21.5s23-32.5 23-54.5zm334.001-80l-253-423V0h-131v323l-253 423h150l168-284 170 284h149z"/><glyph glyph-name="florin" unicode="ƒ" d="M547 810l-20.999-118.999c-34.667 7.333-55.667 11-63 11-36.667 0-60.334-26.667-71.001-80l-23-113h123l-13-103H351l-60-319c-16-85.333-43-145-81-179-40-36-102.667-54-188-54 .667 0-10 1-32 3l21 116 37-1c39.333-1.333 68 11.667 86 39 11.333 17.333 21 48.666 29 93.999l54 301-85 2 105 101c16 86 25 134 27 144 14 52.667 34 91.667 60 117 32 32.667 77 49 135 49 14 0 43.333-3 88-9z"/><glyph glyph-name="circumflex" unicode="ˆ" horiz-adv-x="457" d="M414 589l-89-57-98 72-97-72-88 57 185 130z"/><glyph glyph-name="tilde" unicode="˜" horiz-adv-x="495" d="M459 635c-32-49.333-79.334-74-142.001-74-16.667 0-42.5 5.833-77.5 17.5s-59.167 17.5-72.5 17.5c-15.333 0-32.666-13-51.999-39l-78 46c38 48 82.667 72 134 72 19.333 0 45.833-6 79.5-18s58.5-18 74.5-18c16.667 0 35.667 13.667 57 41z"/><glyph glyph-name="endash" unicode="–" horiz-adv-x="485" d="M505 277H-20v75h525v-75z"/><glyph glyph-name="emdash" unicode="—" horiz-adv-x="970" d="M990 277H-20v73H990v-73z"/><glyph glyph-name="quoteleft" unicode="‘" horiz-adv-x="269" d="M268 724L147 464 32 503l147 251z"/><glyph glyph-name="quoteright" unicode="’" horiz-adv-x="269" d="M248 756L92 464H-4l128 291z"/><glyph glyph-name="quotesinglbase" unicode="‚" horiz-adv-x="222" d="M175 32c0-42.667-7.668-74.333-23.001-95S108.333-102 67-118L23-58c20 5.333 33.667 11 41 17 11.333 8 18 20.667 20 38H41v119h134V32z"/><glyph glyph-name="quotedblleft" unicode="“" horiz-adv-x="426" d="M428 722L308 462l-115 42 146 250zm-159 2L147 464 32 503l143 251z"/><glyph glyph-name="quotedblright" unicode="”" horiz-adv-x="426" d="M396 715L249 462l-92 31 124 261zm-161 0L88 462l-93 31 125 261z"/><glyph glyph-name="quotedblbase" unicode="„" horiz-adv-x="426" d="M420 75L275-176l-89 33 119 260zm-161 2L112-177l-87 35 119 259z"/><glyph glyph-name="dagger" unicode="†" d="M520 474H344V-86H217v560H41l176 120v258h127V594h176V474z"/><glyph glyph-name="daggerdbl" unicode="‡" d="M520 312H344V-86H217v398H41v120h176v75H41v119h176v226h127V626h176V507H344v-75h176V312z"/><glyph glyph-name="bullet" unicode="•" horiz-adv-x="280" d="M217 251c0-16-8.334-29.667-25.001-41s-33.667-17-51-17c-18.667 0-35.667 4.667-51 14-18 11.333-27 26-27 44 0 17.333 9 31.666 27 42.999 15.333 9.333 32.333 14 51 14s35.334-4.667 50.001-14c17.333-11.333 26-25.666 26-42.999z"/><glyph glyph-name="ellipsis" unicode="…" horiz-adv-x="970" d="M886 42c0-17.333-8.167-31.333-24.5-42S827.667-16 809-16s-35.667 4.667-51 14c-18 11.333-27 26-27 44 0 17.333 9 31.333 27 42 15.333 9.333 32.333 14 51 14s36.167-5 52.5-15S886 59.333 886 42zm-324 0l1-.001c0-17.333-9-31.666-27-42.999-15.333-10-32.333-15-51-15-19.333 0-36 4.667-50 14-16.667 11.333-25 26-25 44 0 17.333 8.667 31.333 26 42 14 9.333 30.333 14 49 14s36.167-5 52.5-15S562 59.333 562 42zm-324-.001c0-17.333-8.168-31.334-24.501-42.001s-33.833-16-52.5-16c-19.333 0-36.333 4.667-51 14-17.333 10.667-26 25.334-26 44.001 0 17.333 9 31.333 27 42 14.667 9.333 31.334 14 50.001 14s36.167-5 52.5-15 24.5-23.667 24.5-41z"/><glyph glyph-name="perthousand" unicode="‰" horiz-adv-x="1076" d="M1078 166c0-49.333-19.334-91.333-58.001-126s-83-52-133-52c-50.667 0-95.167 17.167-133.5 51.5s-57.5 76.5-57.5 126.5 19.667 92.333 59 127c37.333 33.333 81 50 131 50 50.667 0 95.334-17 134.001-51s58-76 58-126zM383.999 572c0-49.333-19.333-91-58-125s-83-51-133-51-94 16.333-132 49c-40 34.667-60 77-60 127s20 92.333 60 127c37.333 32 81.333 48 132 48 50 0 94-16.333 132-49 39.333-34.667 59-76.667 59-126zm227 141l-446-731-79 44 448 728zm85-547c0-50-19.166-92.167-57.499-126.5S555.667-12 505-12 410.166 5.167 372.499 39.5s-56.5 76.5-56.5 126.5c0 49.333 18.833 91.166 56.5 125.499s81.5 51.5 131.5 51.5c52 0 97-16.667 135-50s57-75.666 57-126.999zM979 166c0 24.667-9.167 45-27.5 61s-39.833 24-64.5 24-46.167-8.167-64.5-24.5S795 190 795 166c0-23.333 9.333-43 28-59s40-24 64-24c23.333 0 44.5 8.167 63.5 24.5S979 143.333 979 166zM285 573c0 24.667-9.667 45.332-29 61.999-18 14.667-39.667 22-65 22-24 0-45.167-8.167-63.5-24.5S100 596.333 100 573c0-24.667 9-45 27-61s39.333-24 64-24 46.5 8 65.5 24 28.5 36.333 28.5 61zm313-407.002c0 24-9.332 44.167-27.999 60.5s-40.334 24.5-65.001 24.5c-24 0-45.5-8.333-64.5-25s-28.5-36.667-28.5-60c0-24 9.333-43.833 28-59.5s40.334-23.5 65.001-23.5c23.333 0 44.666 8 63.999 24s29 35.667 29 59z"/><glyph glyph-name="guilsinglleft" unicode="‹" horiz-adv-x="326" d="M281 143l-85-57L-5 314l198 236 88-56-148-180z"/><glyph glyph-name="guilsinglright" unicode="›" horiz-adv-x="326" d="M331 314L133 86l-87 56 147 172L47 494l84 56z"/><glyph glyph-name="trademark" unicode="™" horiz-adv-x="911" d="M899 327H797v242L690 327h-65L520 571V327H418v412h137l104-235 107 235h133V327zM384 646H249V327H147v319H12v93h372v-93z"/><glyph glyph-name="glyph1" horiz-adv-x="0"/><glyph glyph-name="glyph2" horiz-adv-x="280"/><glyph glyph-name=".null" horiz-adv-x="0"/><glyph glyph-name="HT" horiz-adv-x="280"/><glyph glyph-name="nonmarkingreturn" horiz-adv-x="280"/><glyph glyph-name="dotoperator" d="M485 371c0-54-20.5-98.499-61.5-133.499s-88.833-52.5-143.5-52.5c-52 0-98.333 17.667-139 53C98.333 275.334 77 319.667 77 371c0 52 21 96.333 63 133 40 34 86.667 51 140 51 54 0 101.667-17.333 143-52s62-78.667 62-132z"/><glyph glyph-name="GS" horiz-adv-x="0"/><glyph glyph-name="BS" horiz-adv-x="0"/><glyph glyph-name="glyph224" horiz-adv-x="449" d="M503 0H336L181 189l-8-7V0H46l-2 736h128l1-398 143 140h171L273 274z"/></font>
</defs>
</svg>
