<?xml version="1.0" encoding="UTF-8" standalone="no"?>
<svg
   version="1.1"
   id="Capa_1"
   x="0"
   y="0"
   viewBox="0 0 371.5 658.6"
   xml:space="preserve"
   sodipodi:docname="grafica-mb-en.svg"
   inkscape:version="1.2 (dc2aedaf03, 2022-05-15)"
   xmlns:inkscape="http://www.inkscape.org/namespaces/inkscape"
   xmlns:sodipodi="http://sodipodi.sourceforge.net/DTD/sodipodi-0.dtd"
   xmlns="http://www.w3.org/2000/svg"
   xmlns:svg="http://www.w3.org/2000/svg"><defs
     id="defs1134" /><sodipodi:namedview
     id="namedview1132"
     pagecolor="#ffffff"
     bordercolor="#000000"
     borderopacity="0.25"
     inkscape:showpageshadow="2"
     inkscape:pageopacity="0.0"
     inkscape:pagecheckerboard="0"
     inkscape:deskcolor="#d1d1d1"
     showgrid="false"
     inkscape:zoom="0.71211664"
     inkscape:cx="185.36289"
     inkscape:cy="330.70425"
     inkscape:window-width="1280"
     inkscape:window-height="650"
     inkscape:window-x="-6"
     inkscape:window-y="-6"
     inkscape:window-maximized="1"
     inkscape:current-layer="Capa_1" /><style
     id="style1095">.st0{fill:#1b3069;stroke:#8cf8c1;stroke-miterlimit:10}.st1{enable-background:new}.st2{fill:#fff}.st3{fill:#8cf8c1}</style><path
     class="st0"
     d="M186.5 525.7H7.4v-75h179.1v75z"
     id="path1097" /><path
     class="st0"
     d="M365.5 525.7h-179v-75h179.1l-.1 75z"
     id="path1103" /><path
     class="st0"
     d="M276 648.3H96.9v-75H276v75z"
     id="path1109" /><path
     class="st3"
     d="M187 555.2l8.3-8.3c.3-.3.3-.8 0-1.1s-.8-.3-1.1 0l-7.7 7.7-7.7-7.7c-.3-.3-.8-.3-1.1 0-.3.3-.3.8 0 1.1l8.3 8.3c.3.3.7.3 1 0z"
     id="path1115" /><path
     class="st0"
     d="M287.9 80.6H74.2v-75h213.7v75z"
     id="path1117" /><circle
     class="st0"
     cx="186.1"
     cy="257.3"
     r="99.9"
     id="circle1123" /><path
     class="st3"
     d="M310.4 257.8c0-68.9-56-124.9-124.9-124.9-20.5 0-39.8 4.9-56.9 13.7-2.8.9-5.8 1.5-9 1.5-15.3 0-27.7-12.4-27.7-27.7s12.4-27.7 27.7-27.7c12.4 0 22.9 8.1 26.4 19.4l-9.3 2.1 18.6 11.6 3.4-5.4h.1v-.2l8.1-12.9-9.7 2.2c-4.7-16.3-19.8-28.4-37.7-28.4-21.7 0-39.3 17.6-39.3 39.3 0 18.4 12.6 33.8 29.6 38.1-29.8 22.8-49.1 58.7-49.2 99h-10L66.1 273l15.5-15.5h-9.5c.2-62.4 51-113.1 113.4-113.1 62.5 0 113.4 50.9 113.4 113.4 0 61.2-48.9 111.3-109.6 113.3H180V422h-9.8l15.5 15.5 15.5-15.5h-9.7v-39.4c66-3.1 118.9-57.9 118.9-124.8z"
     id="path1129" /><text
     xml:space="preserve"
     style="font-size:14.6667px;font-family:sans-serif;-inkscape-font-specification:'sans-serif, Normal';text-align:center;text-anchor:middle;fill:#ffffff"
     x="181.15009"
     y="37.915138"
     id="text2462"><tspan
       sodipodi:role="line"
       id="tspan2460"
       x="181.15009"
       y="37.915138">CUSTOMER</tspan><tspan
       sodipodi:role="line"
       x="181.15009"
       y="56.248512"
       id="tspan2464">REQUIREMENTS</tspan></text><text
     xml:space="preserve"
     style="font-size:14.6667px;font-family:sans-serif;-inkscape-font-specification:'sans-serif, Normal';text-align:center;text-anchor:middle;fill:#ffffff"
     x="190.97995"
     y="237.32068"
     id="text3194"><tspan
       sodipodi:role="line"
       id="tspan3192"
       x="190.97995"
       y="237.32068">2 TO 4 WEEKS </tspan><tspan
       sodipodi:role="line"
       x="190.97995"
       y="255.65405"
       id="tspan3196">CYCLES BY</tspan><tspan
       sodipodi:role="line"
       x="190.97995"
       y="273.98743"
       id="tspan3198">REQUIREMENTS</tspan></text><text
     xml:space="preserve"
     style="font-size:14.6667px;font-family:sans-serif;-inkscape-font-specification:'sans-serif, Normal';text-align:center;text-anchor:middle;fill:#ffffff"
     x="188.17142"
     y="606.64221"
     id="text3202"><tspan
       sodipodi:role="line"
       id="tspan3200"
       x="188.17142"
       y="606.64221">SOFTWARE</tspan><tspan
       sodipodi:role="line"
       x="188.17142"
       y="624.97559"
       id="tspan3204">DELIVERY</tspan></text><text
     xml:space="preserve"
     style="font-size:14.6667px;font-family:sans-serif;-inkscape-font-specification:'sans-serif, Normal';text-align:center;text-anchor:middle;fill:#ffffff"
     x="92.68145"
     y="483.06693"
     id="text3208"><tspan
       sodipodi:role="line"
       id="tspan3206"
       x="92.68145"
       y="483.06693">CUSTOMER</tspan><tspan
       sodipodi:role="line"
       x="92.68145"
       y="501.4003"
       id="tspan3210">REQUIREMENTS</tspan></text><text
     xml:space="preserve"
     style="font-size:14.6667px;font-family:sans-serif;-inkscape-font-specification:'sans-serif, Normal';text-align:center;text-anchor:middle;fill:#ffffff"
     x="275.23581"
     y="485.87546"
     id="text3214"><tspan
       sodipodi:role="line"
       id="tspan3212"
       x="275.23581"
       y="485.87546">STEP-BY-STEP</tspan><tspan
       sodipodi:role="line"
       x="275.23581"
       y="504.20883"
       id="tspan3216">ACTIVITIES</tspan></text></svg>
