<svg version="1.1" id="Capa_1" xmlns="http://www.w3.org/2000/svg" x="0" y="0" viewBox="0 0 901.8 419" xml:space="preserve"><style>.st0{fill:#1b3069;stroke:#8cf8c1;stroke-miterlimit:10}.st1{enable-background:new}.st2{fill:#fff}.st3{fill:#8cf8c1}</style><path class="st0" d="M610.9 80.6H397.2v-75h213.7v75zM427.5 413h-179v-75h179.1l-.1 75zm467 0H715.4v-75h179.1v75zm-709 0H6.4v-75h179.1v75z"/><circle class="st0" cx="574.4" cy="257.3" r="99.9"/><g class="st1"><path class="st2" d="M434.3 38v-9.6h5.8v1.2h-4.6v3h4v1.2h-4V38h-1.2zm7.4 0v-9.6h5.9v1.1h-4.7v3h4.3v1.1h-4.3v3.2h4.7V38h-5.9zm7.8 0v-9.6h5.9v1.1h-4.7v3h4.3v1.1h-4.3v3.2h4.7V38h-5.9zm7.9 0v-9.6h3.5c1.4 0 2.4.4 3.2 1.3s1.2 2 1.2 3.5-.4 2.6-1.2 3.5c-.8.9-1.9 1.3-3.3 1.3h-3.4zm1.2-1.2h2.2c1 0 1.8-.3 2.4-1s.9-1.6.9-2.7-.3-1.9-.9-2.6-1.4-1-2.4-1h-2.3l.1 7.3zm15.5-1.6c0 .7-.3 1.4-.8 1.9s-1.2.8-2.2.8h-3.9v-9.6h3.7c.8 0 1.5.2 1.9.7.5.5.7 1 .7 1.7 0 .9-.5 1.7-1.3 2 1.2.4 1.9 1.4 1.9 2.5zm-5.7-5.7v2.8h2.4c1 0 1.6-.7 1.6-1.4s-.6-1.3-1.5-1.3h-2.5v-.1zm2.5 7.3c.6 0 1-.2 1.4-.5s.5-.7.5-1.2c0-.9-.7-1.7-2-1.7h-2.5v3.4h2.6zm10.8 1.2l-1-2.6H477l-1 2.6h-1.3l3.9-9.6h.6L483 38h-1.3zm-2.9-7.4l-1.4 3.7h2.9l-1.5-3.7zm6.1 6.1c-.9-.9-1.4-2.1-1.4-3.5 0-1.5.5-2.7 1.5-3.6s2.1-1.4 3.5-1.4c.9 0 1.7.2 2.4.6s1.3.9 1.7 1.5l-.9.7c-.8-1-1.9-1.7-3.2-1.7-1.1 0-1.9.4-2.7 1.1-.7.7-1.1 1.7-1.1 2.8s.4 2 1.1 2.7 1.6 1.1 2.7 1.1c1.4 0 2.4-.6 3.3-1.7l.9.7c-.9 1.2-2.5 2.1-4.2 2.1-1.5 0-2.7-.4-3.6-1.4zm15.3 1.3l-3.5-4.3-1.3 1.6V38h-1.2v-9.6h1.2v5.3l4.5-5.3h1.4l-3.8 4.5 4.2 5.1h-1.5zm11.8-9.6l-3.3 6.1V38h-1.2v-3.5l-3.3-6.1h1.3l2.5 5 2.6-5h1.4zm9.9 9.6l-1-2.6h-3.7l-1 2.6h-1.3l3.9-9.6h.6l3.9 9.6h-1.4zm-2.8-7.4l-1.4 3.7h2.9l-1.5-3.7zm11.2-2.2h1.3l-4.1 9.6h-.6l-4.2-9.6h1.4l3.1 7.5 3.1-7.5zm7.9 9.6l-1-2.6h-3.7l-1 2.6h-1.3l3.9-9.6h.6l3.9 9.6h-1.4zm-2.9-7.4l-1.4 3.7h2.9l-1.5-3.7zm12-2.2h1.2V38h-.5l-5.9-7v7h-1.2v-9.6h.5l6 7-.1-7zm4.5 8.3c-.9-.9-1.4-2.1-1.4-3.5 0-1.5.5-2.7 1.5-3.6s2.1-1.4 3.5-1.4c.9 0 1.7.2 2.4.6s1.3.9 1.7 1.5l-.9.7c-.8-1-1.9-1.7-3.2-1.7-1.1 0-1.9.4-2.7 1.1-.7.7-1.1 1.7-1.1 2.8s.4 2 1.1 2.7 1.6 1.1 2.7 1.1c1.4 0 2.4-.6 3.3-1.7l.9.7c-.9 1.2-2.5 2.1-4.2 2.1-1.5 0-2.6-.4-3.6-1.4zm9.3 1.3v-9.6h5.9v1.1h-4.7v3h4.3v1.1h-4.3v3.2h4.7V38h-5.9zm7-1.9l.9-.7c.5 1.1 1.3 1.6 2.3 1.6 1.1 0 1.8-.7 1.8-1.5 0-.5-.3-1-1-1.4-.2-.1-.5-.3-1-.5s-.8-.4-1.1-.6c-.9-.6-1.4-1.4-1.4-2.3 0-.7.3-1.3.8-1.8s1.2-.7 2.1-.7c1.2 0 2.1.5 2.8 1.4l-.9.8c-.5-.7-1.1-1.1-1.9-1.1-.9 0-1.6.5-1.6 1.4 0 .5.3.9.8 1.3.2.1.5.3 1.1.6l1.2.6c.9.5 1.4 1.3 1.4 2.2 0 .8-.3 1.5-.9 2-.6.5-1.3.8-2.2.8-1.3-.1-2.6-.8-3.2-2.1zm-94.2 21.6c-.9-.9-1.4-2.1-1.4-3.5 0-1.5.5-2.7 1.5-3.6 1-.9 2.1-1.4 3.5-1.4.9 0 1.7.2 2.4.6s1.3.9 1.7 1.5l-.9.7c-.8-1-1.9-1.7-3.2-1.7-1.1 0-1.9.4-2.7 1.1-.7.7-1.1 1.7-1.1 2.8s.4 2 1.1 2.7 1.6 1.1 2.7 1.1c1.4 0 2.4-.6 3.3-1.7l.9.7c-.9 1.2-2.5 2.1-4.2 2.1-1.4 0-2.6-.4-3.6-1.4zm15.2 1.3l-1-2.6h-3.7l-1 2.6H482l3.9-9.6h.6l3.9 9.6h-1.3zm-2.9-7.4l-1.4 3.7h2.9l-1.5-3.7zm5.6 7.4v-9.6h3.5c1.4 0 2.4.4 3.2 1.3s1.2 2 1.2 3.5-.4 2.6-1.2 3.5c-.8.9-1.9 1.3-3.3 1.3h-3.4zm1.2-1.2h2.2c1 0 1.8-.3 2.4-1s.9-1.6.9-2.7-.3-1.9-.9-2.6c-.6-.7-1.4-1-2.4-1H493v7.3zm14.3 1.2l-1-2.6h-3.7l-1 2.6h-1.3l3.9-9.6h.6l3.9 9.6h-1.4zm-2.9-7.4l-1.4 3.7h2.9l-1.5-3.7zm9.6 6.3h4.2V59h-6v-1l3.1-3.3c.4-.4.6-.7.8-.9.4-.5.8-1.2.8-1.8 0-.5-.2-.9-.5-1.2-.4-.3-.8-.5-1.3-.5-.8 0-1.6.4-2.3 1.1l-.7-.9c.9-.9 1.9-1.3 3-1.3.9 0 1.6.3 2.1.8.6.5.8 1.2.8 2.1 0 .8-.4 1.7-1.3 2.7l-2.7 3.1zm11.8-2.4v1.1h-1.1V59h-1.2v-2.4H519l-.2-.7 5.3-6.4h.7v6.1l1-.1zm-5.4 0h3.1v-3.8l-3.1 3.8zm7.2 3.5v-9.6h1.2v4.1h5v-4.1h1.2V59h-1.2v-4.4h-5V59h-1.2z"/></g><g class="st1"><path class="st2" d="M48.6 368.6l-2.6-4h-1.4v4h-1.2V359h3.2c.9 0 1.7.3 2.2.8.5.6.8 1.2.8 2 0 .6-.2 1.2-.6 1.7-.4.5-1 .9-1.7 1l2.7 4h-1.4v.1zm-4-8.4v3.3h1.7c1.4 0 2-.7 2-1.7 0-.9-.6-1.7-1.7-1.7h-2v.1zm7.1 8.4V359h5.9v1.1h-4.7v3h4.3v1.1h-4.3v3.2h4.7v1.1l-5.9.1zm16.8.4l.1 1c-.4.2-.8.2-1.3.2-1.2 0-2.2-.5-3.1-1.5h-.5c-1.4 0-2.5-.5-3.5-1.5s-1.5-2.1-1.5-3.5.5-2.5 1.5-3.5 2.2-1.5 3.5-1.5c1.4 0 2.5.5 3.5 1.5s1.5 2.1 1.5 3.5c0 1-.3 2-.9 2.8s-1.3 1.4-2.3 1.8c.6.5 1.2.7 1.9.7.4.2.7.1 1.1 0zm-7.4-2.5c.7.7 1.6 1.1 2.6 1.1s1.9-.4 2.6-1.1 1.1-1.6 1.1-2.7-.4-2-1.1-2.7-1.6-1.1-2.6-1.1-1.9.4-2.6 1.1c-.7.7-1.1 1.6-1.1 2.7s.4 2 1.1 2.7zm9.3-7.5h1.2v6.2c0 1.6.8 2.4 2.2 2.4 1.4 0 2.2-.9 2.2-2.4V359h1.2v6.4c0 1-.3 1.9-.9 2.5s-1.5.9-2.5.9-1.9-.3-2.5-.9-.9-1.4-.9-2.5V359zm9.2 9.6V359h5.9v1.1h-4.7v3h4.3v1.1h-4.3v3.2h4.7v1.1l-5.9.1zm13 0l-2.6-4h-1.4v4h-1.2V359h3.2c.9 0 1.7.3 2.2.8.5.6.8 1.2.8 2 0 .6-.2 1.2-.6 1.7s-1 .9-1.7 1l2.7 4h-1.4v.1zm-3.9-8.4v3.3h1.7c1.4 0 2-.7 2-1.7 0-.9-.6-1.7-1.7-1.7h-2v.1zm7.1-1.2H97v9.6h-1.2V359zm3.6 9.6V359h.5l4.2 6.2 4.2-6.2h.5v9.6h-1.2V362l-3.4 5h-.2l-3.4-5v6.6h-1.2zm12-9.6h1.2v9.6h-1.2V359zm3.6 9.6V359h5.9v1.1h-4.7v3h4.3v1.1h-4.3v3.2h4.7v1.1l-5.9.1zm14.3-9.6h1.2v9.6h-.5l-5.9-7v7h-1.2V359h.5l6 7-.1-7zm5.5 1.2h-2.9V359h6.9v1.2H136v8.4h-1.2v-8.4zm5.8.1c1-1 2.1-1.5 3.5-1.5s2.5.5 3.5 1.5 1.5 2.1 1.5 3.5-.5 2.5-1.5 3.5-2.2 1.4-3.5 1.4-2.6-.5-3.5-1.4-1.4-2.1-1.4-3.5c0-1.3.5-2.5 1.4-3.5zm6.2 6.2c.7-.7 1.1-1.6 1.1-2.7s-.4-2-1.1-2.7c-.7-.7-1.6-1.1-2.6-1.1s-1.9.4-2.6 1.1c-.7.7-1.1 1.6-1.1 2.7s.4 2 1.1 2.7c.7.7 1.6 1.1 2.7 1.1.9 0 1.8-.3 2.5-1.1zm-91.1 23.1V380h3.5c1.4 0 2.4.4 3.2 1.3s1.2 2 1.2 3.5-.4 2.6-1.2 3.5-1.9 1.3-3.3 1.3h-3.4zm1.2-1.1h2.2c1 0 1.8-.3 2.4-1 .6-.7.9-1.6.9-2.7s-.3-1.9-.9-2.6c-.6-.7-1.4-1-2.4-1h-2.3l.1 7.3zm8.6 1.1V380h5.9v1.1h-4.7v3H71v1.1h-4.3v3.2h4.7v1.1l-5.9.1zm7.9 0V380h1.2v8.4h5.2v1.2h-6.4zm11.4-1.2c-.9-.9-1.4-2.1-1.4-3.5 0-1.5.5-2.7 1.5-3.6s2.1-1.4 3.5-1.4c.9 0 1.7.2 2.4.6s1.3.9 1.7 1.5l-.9.7c-.8-1-1.9-1.7-3.2-1.7-1.1 0-1.9.4-2.7 1.1-.7.7-1.1 1.7-1.1 2.8 0 1.1.4 2 1.1 2.7s1.6 1.1 2.7 1.1c1.4 0 2.4-.6 3.3-1.7l.9.7c-.9 1.2-2.5 2.1-4.2 2.1-1.5 0-2.7-.5-3.6-1.4zm9.3 1.2V380h1.2v8.4h5.2v1.2h-6.4zm7.8-9.6h1.2v9.6h-1.2V380zm3.7 9.6V380h5.9v1.1h-4.7v3h4.3v1.1h-4.3v3.2h4.7v1.1l-5.9.1zm14.3-9.6h1.2v9.6h-.6l-5.9-7v7h-1.2V380h.5l6 7v-7zm5.4 1.2h-2.9V380h6.9v1.2h-2.9v8.4h-1.2l.1-8.4zm5.5 8.4V380h5.9v1.1H132v3h4.3v1.1H132v3.2h4.7v1.1l-5.9.1z"/></g><g class="st1"><path class="st2" d="M302.6 368.6l-1-2.6h-3.7l-1 2.6h-1.3l3.9-9.6h.6l3.9 9.6h-1.4zm-2.9-7.4l-1.4 3.7h2.9l-1.5-3.7zm6.1 6.2c-.9-.9-1.4-2.1-1.4-3.5 0-1.5.5-2.7 1.5-3.6s2.1-1.4 3.5-1.4c.9 0 1.7.2 2.4.6s1.3.9 1.7 1.5l-.9.7c-.8-1-1.9-1.7-3.2-1.7-1.1 0-1.9.4-2.7 1.1-.7.7-1.1 1.7-1.1 2.8 0 1.1.4 2 1.1 2.7s1.6 1.1 2.7 1.1c1.4 0 2.4-.6 3.3-1.7l.9.7c-.9 1.2-2.5 2.1-4.2 2.1-1.5 0-2.7-.5-3.6-1.4zm11.1-7.2H314V359h6.9v1.2H318v8.4h-1.2v-8.4h.1zm5.5-1.2h1.2v9.6h-1.2V359zm10.1 0h1.3l-4.1 9.6h-.6l-4.2-9.6h1.4l3.1 7.5 3.1-7.5zm2.7 0h1.2v9.6h-1.2V359zm3.7 9.6V359h3.5c1.4 0 2.4.4 3.2 1.3s1.2 2 1.2 3.5-.4 2.6-1.2 3.5c-.8.9-1.9 1.3-3.3 1.3h-3.4zm1.2-1.1h2.2c1 0 1.8-.3 2.4-1s.9-1.6.9-2.7-.3-1.9-.9-2.6-1.4-1-2.4-1H340l.1 7.3zm14.3 1.1l-1-2.6h-3.7l-1 2.6h-1.3l3.9-9.6h.6l3.9 9.6h-1.4zm-2.9-7.4l-1.4 3.7h2.9l-1.5-3.7zm5.6 7.4V359h3.5c1.4 0 2.4.4 3.2 1.3s1.2 2 1.2 3.5-.4 2.6-1.2 3.5c-.8.9-1.9 1.3-3.3 1.3h-3.4zm1.2-1.1h2.2c1 0 1.8-.3 2.4-1s.9-1.6.9-2.7-.3-1.9-.9-2.6-1.4-1-2.4-1h-2.3l.1 7.3zm8.6 1.1V359h5.9v1.1h-4.7v3h4.3v1.1h-4.3v3.2h4.7v1.1l-5.9.1zm7-1.8l.9-.7c.5 1.1 1.3 1.6 2.3 1.6 1.1 0 1.8-.7 1.8-1.5 0-.5-.3-1-1-1.4-.2-.1-.5-.3-1-.5s-.8-.4-1.1-.6c-.9-.6-1.4-1.4-1.4-2.3 0-.7.3-1.3.8-1.8s1.2-.7 2.1-.7c1.2 0 2.1.5 2.8 1.4l-.9.8c-.5-.7-1.1-1.1-1.9-1.1-.9 0-1.6.5-1.6 1.4 0 .5.3.9.8 1.3.2.1.5.3 1.1.6l1.2.6c.9.5 1.4 1.3 1.4 2.2 0 .8-.3 1.5-.9 2s-1.3.8-2.2.8c-1.3-.1-2.6-.8-3.2-2.1zM301.3 380c1 0 1.8.3 2.3.9s.8 1.3.8 2.1-.3 1.5-.8 2.1-1.3.9-2.4.9h-1.8v3.7h-1.2V380h3.1zm-.1 4.8c1.3 0 2-.8 2-1.8s-.6-1.8-1.8-1.8h-2v3.6h1.8zm10 4.8l-1-2.6h-3.7l-1 2.6h-1.3l3.9-9.6h.6l3.9 9.6h-1.4zm-2.8-7.4l-1.4 3.7h2.9l-1.5-3.7zm4.5 5.6l.9-.7c.5 1.1 1.3 1.6 2.3 1.6 1.1 0 1.8-.7 1.8-1.5 0-.5-.3-1-1-1.4-.2-.1-.5-.3-1-.5s-.8-.4-1.1-.6c-.9-.6-1.4-1.4-1.4-2.3 0-.7.3-1.3.8-1.8s1.2-.7 2.1-.7c1.2 0 2.1.5 2.8 1.4l-.9.8c-.5-.7-1.1-1.1-1.9-1.1-.9 0-1.6.5-1.6 1.4 0 .5.3.9.8 1.3.2.1.5.3 1.1.6l1.2.6c.9.5 1.4 1.3 1.4 2.2 0 .8-.3 1.5-.9 2s-1.3.8-2.2.8c-1.4-.1-2.6-.8-3.2-2.1zm8.9-6.5c1-1 2.1-1.5 3.5-1.5s2.5.5 3.5 1.5 1.5 2.1 1.5 3.5-.5 2.5-1.5 3.5-2.2 1.4-3.5 1.4-2.6-.5-3.5-1.4-1.4-2.1-1.4-3.5c0-1.3.4-2.5 1.4-3.5zm6.2 6.2c.7-.7 1.1-1.6 1.1-2.7s-.4-2-1.1-2.7-1.6-1.1-2.6-1.1-1.9.4-2.6 1.1-1.1 1.6-1.1 2.7.4 2 1.1 2.7 1.6 1.1 2.7 1.1c.9 0 1.7-.3 2.5-1.1zm12.9 2.1l-1-2.6h-3.7l-1 2.6h-1.3l3.9-9.6h.6l3.9 9.6h-1.4zm-2.8-7.4l-1.4 3.7h2.9l-1.5-3.7zm11.6-2.2c1 0 1.8.3 2.3.9s.8 1.3.8 2.1-.3 1.5-.8 2.1-1.3.9-2.4.9h-1.8v3.7h-1.2V380h3.1zm-.1 4.8c1.3 0 2-.8 2-1.8s-.6-1.8-1.8-1.8h-2v3.6h1.8zm10 4.8l-1-2.6h-3.7l-1 2.6h-1.3l3.9-9.6h.6l3.9 9.6h-1.4zm-2.8-7.4l-1.4 3.7h2.9l-1.5-3.7zm4.5 5.6l.9-.7c.5 1.1 1.3 1.6 2.3 1.6 1.1 0 1.8-.7 1.8-1.5 0-.5-.3-1-1-1.4-.2-.1-.5-.3-1-.5s-.8-.4-1.1-.6c-.9-.6-1.4-1.4-1.4-2.3 0-.7.3-1.3.8-1.8s1.2-.7 2.1-.7c1.2 0 2.1.5 2.8 1.4l-.9.8c-.5-.7-1.1-1.1-1.9-1.1-.9 0-1.6.5-1.6 1.4 0 .5.3.9.8 1.3.2.1.5.3 1.1.6l1.2.6c.9.5 1.4 1.3 1.4 2.2 0 .8-.3 1.5-.9 2s-1.3.8-2.2.8c-1.4-.1-2.6-.8-3.2-2.1zm8.9-6.5c1-1 2.1-1.5 3.5-1.5s2.5.5 3.5 1.5 1.5 2.1 1.5 3.5-.5 2.5-1.5 3.5-2.2 1.4-3.5 1.4-2.6-.5-3.5-1.4-1.4-2.1-1.4-3.5c-.1-1.3.4-2.5 1.4-3.5zm6.1 6.2c.7-.7 1.1-1.6 1.1-2.7s-.4-2-1.1-2.7-1.6-1.1-2.6-1.1-1.9.4-2.6 1.1-1.1 1.6-1.1 2.7.4 2 1.1 2.7 1.6 1.1 2.7 1.1c1 0 1.8-.3 2.5-1.1z"/></g><g class="st1"><path class="st2" d="M776.2 368.6V359h5.9v1.1h-4.7v3h4.3v1.1h-4.3v3.2h4.7v1.1l-5.9.1zm14.4-9.6h1.2v9.6h-.6l-5.9-7v7h-1.2V359h.5l6 7v-7zm5.4 1.2h-2.9V359h6.9v1.2h-2.9v8.4H796v-8.4zm10.6 8.4l-2.6-4h-1.4v4h-1.2V359h3.2c.9 0 1.7.3 2.2.8.5.6.8 1.2.8 2 0 .6-.2 1.2-.6 1.7-.4.5-1 .9-1.7 1l2.7 4h-1.4v.1zm-3.9-8.4v3.3h1.7c1.4 0 2-.7 2-1.7 0-.9-.6-1.7-1.7-1.7h-2v.1zm7.1 8.4V359h5.9v1.1H811v3h4.3v1.1H811v3.2h4.7v1.1l-5.9.1zm8.4-1.2c-.9-.9-1.4-2.1-1.4-3.5s.5-2.6 1.5-3.6c1-.9 2.1-1.4 3.5-1.4.8 0 1.6.2 2.3.5s1.3.8 1.7 1.3l-.9.8a4.1 4.1 0 00-3.1-1.4c-1.1 0-2 .4-2.7 1.1s-1.1 1.6-1.1 2.7.4 2 1.1 2.7 1.6 1.1 2.7 1.1c1.2 0 2.3-.5 3.2-1.4v-2h-3.3v-1.1h4.4v3.6c-1.2 1.4-2.6 2-4.4 2-1.4 0-2.5-.5-3.5-1.4zm15.5 1.2l-1-2.6H829l-1 2.6h-1.3l3.9-9.6h.6l3.9 9.6h-1.4zm-2.8-7.4l-1.4 3.7h2.9l-1.5-3.7zm-70.5 28.4V380h3.5c1.4 0 2.4.4 3.2 1.3s1.2 2 1.2 3.5-.4 2.6-1.2 3.5-1.9 1.3-3.3 1.3h-3.4zm1.2-1.1h2.2c1 0 1.8-.3 2.4-1 .6-.7.9-1.6.9-2.7s-.3-1.9-.9-2.6c-.6-.7-1.4-1-2.4-1h-2.3l.1 7.3zm8.6 1.1V380h5.9v1.1h-4.7v3h4.3v1.1h-4.3v3.2h4.7v1.1l-5.9.1zm10.2-1.8l.9-.7c.5 1.1 1.3 1.6 2.3 1.6 1.1 0 1.8-.7 1.8-1.5 0-.5-.3-1-1-1.4-.2-.1-.5-.3-1-.5s-.8-.4-1.1-.6c-.9-.6-1.4-1.4-1.4-2.3 0-.7.3-1.3.8-1.8s1.2-.7 2.1-.7c1.2 0 2.1.5 2.8 1.4l-.9.8c-.5-.7-1.1-1.1-1.9-1.1-.9 0-1.6.5-1.6 1.4 0 .5.3.9.8 1.3.2.1.5.3 1.1.6l1.2.6c.9.5 1.4 1.3 1.4 2.2 0 .8-.3 1.5-.9 2-.6.5-1.3.8-2.2.8-1.3-.1-2.6-.8-3.2-2.1zm8.9-6.5c1-1 2.1-1.5 3.5-1.5s2.5.5 3.5 1.5 1.5 2.1 1.5 3.5-.5 2.5-1.5 3.5-2.2 1.4-3.5 1.4c-1.4 0-2.6-.5-3.5-1.4s-1.4-2.1-1.4-3.5c0-1.3.5-2.5 1.4-3.5zm6.2 6.2c.7-.7 1.1-1.6 1.1-2.7s-.4-2-1.1-2.7c-.7-.7-1.6-1.1-2.6-1.1s-1.9.4-2.6 1.1c-.7.7-1.1 1.6-1.1 2.7s.4 2 1.1 2.7c.7.7 1.6 1.1 2.7 1.1.9 0 1.8-.3 2.5-1.1zm4.2 2.1V380h5.8v1.2h-4.6v3h4v1.2h-4v4.3h-1.2v-.1zm9.1-8.4H806V380h6.9v1.2H810v8.4h-1.2v-8.4zm7.8 8.4l-3.3-9.6h1.3l2.4 7.1 2.6-7.1h.5l2.7 7.1 2.3-7.1h1.3l-3.3 9.6h-.6l-2.6-7.3-2.6 7.3h-.7zm16.5 0l-1-2.6h-3.7l-1 2.6h-1.3l3.9-9.6h.6l3.9 9.6h-1.4zm-2.9-7.4l-1.4 3.7h2.9l-1.5-3.7zm10.8 7.4l-2.6-4H837v4h-1.2V380h3.2c.9 0 1.7.3 2.2.8.5.6.8 1.2.8 2 0 .6-.2 1.2-.6 1.7-.4.5-1 .9-1.7 1l2.7 4H841v.1zm-4-8.4v3.3h1.7c1.4 0 2-.7 2-1.7 0-.9-.6-1.7-1.7-1.7h-2v.1zm7.1 8.4V380h5.9v1.1h-4.7v3h4.3v1.1h-4.3v3.2h4.7v1.1l-5.9.1z"/></g><g class="st1"><path class="st2" d="M541.3 232.8c-.9-.9-1.4-2.1-1.4-3.5 0-1.5.5-2.7 1.5-3.6 1-.9 2.1-1.4 3.5-1.4.9 0 1.7.2 2.4.6s1.3.9 1.7 1.5l-.9.7c-.8-1-1.9-1.7-3.2-1.7-1.1 0-1.9.4-2.7 1.1-.7.7-1.1 1.7-1.1 2.8s.4 2 1.1 2.7 1.6 1.1 2.7 1.1c1.4 0 2.4-.6 3.3-1.7l.9.7c-.9 1.2-2.5 2.1-4.2 2.1-1.5 0-2.6-.5-3.6-1.4zm9.3-8.4h1.2v9.6h-1.2v-9.6zm4.5 8.4c-.9-.9-1.4-2.1-1.4-3.5 0-1.5.5-2.7 1.5-3.6 1-.9 2.1-1.4 3.5-1.4.9 0 1.7.2 2.4.6s1.3.9 1.7 1.5l-.9.7c-.8-1-1.9-1.7-3.2-1.7-1.1 0-1.9.4-2.7 1.1-.7.7-1.1 1.7-1.1 2.8s.4 2 1.1 2.7 1.6 1.1 2.7 1.1c1.4 0 2.4-.6 3.3-1.7l.9.7c-.9 1.2-2.5 2.1-4.2 2.1-1.5 0-2.6-.5-3.6-1.4zm9.3 1.2v-9.6h1.2v8.4h5.2v1.2h-6.4zm8-8.3c1-1 2.1-1.5 3.5-1.5s2.5.5 3.5 1.5 1.5 2.1 1.5 3.5-.5 2.5-1.5 3.5-2.2 1.4-3.5 1.4c-1.4 0-2.6-.5-3.5-1.4s-1.4-2.1-1.4-3.5c0-1.3.5-2.5 1.4-3.5zm6.2 6.3c.7-.7 1.1-1.6 1.1-2.7s-.4-2-1.1-2.7c-.7-.7-1.6-1.1-2.6-1.1s-1.9.4-2.6 1.1c-.7.7-1.1 1.6-1.1 2.7s.4 2 1.1 2.7c.7.7 1.6 1.1 2.7 1.1.9-.1 1.8-.4 2.5-1.1zm3.2.2l.9-.7c.5 1.1 1.3 1.6 2.3 1.6 1.1 0 1.8-.7 1.8-1.5 0-.5-.3-1-1-1.4-.2-.1-.5-.3-1-.5s-.8-.4-1.1-.6c-.9-.6-1.4-1.4-1.4-2.3 0-.7.3-1.3.8-1.8s1.2-.7 2.1-.7c1.2 0 2.1.5 2.8 1.4l-.9.8c-.5-.7-1.1-1.1-1.9-1.1-.9 0-1.6.5-1.6 1.4 0 .5.3.9.8 1.3.2.1.5.3 1.1.6l1.2.6c.9.5 1.4 1.3 1.4 2.2 0 .8-.3 1.5-.9 2-.6.5-1.3.8-2.2.8-1.3-.1-2.6-.8-3.2-2.1zm11.3 1.8v-9.6h3.5c1.4 0 2.4.4 3.2 1.3s1.2 2 1.2 3.5-.4 2.6-1.2 3.5-1.9 1.3-3.3 1.3h-3.4zm1.2-1.1h2.2c1 0 1.8-.3 2.4-1 .6-.7.9-1.6.9-2.7s-.3-1.9-.9-2.6c-.6-.7-1.4-1-2.4-1h-2.3l.1 7.3zm8.7 1.1v-9.6h5.9v1.1h-4.7v3h4.3v1.1h-4.3v3.2h4.7v1.1l-5.9.1zm-88.5 19.9h4.2v1.1h-6v-1l3.1-3.3c.4-.4.6-.7.8-.9.4-.5.8-1.2.8-1.8 0-.5-.2-.9-.5-1.2-.4-.3-.8-.5-1.3-.5-.8 0-1.6.4-2.3 1.1l-.7-.9c.9-.9 1.9-1.3 3-1.3.9 0 1.6.3 2.1.8.6.5.8 1.2.8 2.1 0 .8-.4 1.7-1.3 2.7l-2.7 3.1zm14.9 1.1l-1-2.6h-3.7l-1 2.6h-1.3l3.9-9.6h.6l3.9 9.6h-1.4zm-2.8-7.4l-1.4 3.7h2.9l-1.5-3.7zm14.3 3.9v1.1h-1.1v2.4h-1.2v-2.4h-4.5l-.2-.7 5.3-6.4h.7v6.1h1v-.1zm-5.4 0h3.1v-3.8l-3.1 3.8zm9.5 1.7l.9-.7c.5 1.1 1.3 1.6 2.3 1.6 1.1 0 1.8-.7 1.8-1.5 0-.5-.3-1-1-1.4-.2-.1-.5-.3-1-.5s-.8-.4-1.1-.6c-.9-.6-1.4-1.4-1.4-2.3 0-.7.3-1.3.8-1.8s1.2-.7 2.1-.7c1.2 0 2.1.5 2.8 1.4l-.9.8c-.5-.7-1.1-1.1-1.9-1.1-.9 0-1.6.5-1.6 1.4 0 .5.3.9.8 1.3.2.1.5.3 1.1.6l1.2.6c.9.5 1.4 1.3 1.4 2.2 0 .8-.3 1.5-.9 2-.6.5-1.3.8-2.2.8-1.3-.1-2.6-.8-3.2-2.1zm8.1 1.8v-9.6h5.9v1.1h-4.7v3h4.3v1.1h-4.3v3.2h4.7v1.1l-5.9.1zm7.9 0v-9.6h.5l4.2 6.2 4.2-6.2h.5v9.6h-1.2v-6.6l-3.4 5h-.3l-3.4-5v6.6H561zm17.9 0l-1-2.6h-3.7l-1 2.6h-1.3l3.9-9.6h.6l3.9 9.6h-1.4zm-2.9-7.4l-1.4 3.7h2.9l-1.5-3.7zm12.1-2.2h1.2v9.6h-.6l-5.9-7v7h-1.2v-9.6h.5l6 7v-7zm9.6 9.6l-1-2.6H593l-1 2.6h-1.3l3.9-9.6h.6l3.9 9.6h-1.4zm-2.8-7.4l-1.4 3.7h2.9l-1.5-3.7zm4.5 5.6l.9-.7c.5 1.1 1.3 1.6 2.3 1.6 1.1 0 1.8-.7 1.8-1.5 0-.5-.3-1-1-1.4-.2-.1-.5-.3-1-.5s-.8-.4-1.1-.6c-.9-.6-1.4-1.4-1.4-2.3 0-.7.3-1.3.8-1.8s1.2-.7 2.1-.7c1.2 0 2.1.5 2.8 1.4l-.9.8c-.5-.7-1.1-1.1-1.9-1.1-.9 0-1.6.5-1.6 1.4 0 .5.3.9.8 1.3.2.1.5.3 1.1.6l1.2.6c.9.5 1.4 1.3 1.4 2.2 0 .8-.3 1.5-.9 2-.6.5-1.3.8-2.2.8-1.4-.1-2.6-.8-3.2-2.1zm14.5-7.8c1 0 1.8.3 2.3.9.5.6.8 1.3.8 2.1s-.3 1.5-.8 2.1-1.3.9-2.4.9H612v3.7h-1.2v-9.6l3.1-.1zm-.1 4.8c1.3 0 2-.8 2-1.8s-.6-1.8-1.8-1.8h-2v3.6h1.8zm5.6-3.5c1-1 2.1-1.5 3.5-1.5s2.5.5 3.5 1.5 1.5 2.1 1.5 3.5-.5 2.5-1.5 3.5-2.2 1.4-3.5 1.4c-1.4 0-2.6-.5-3.5-1.4s-1.4-2.1-1.4-3.5c-.1-1.3.4-2.5 1.4-3.5zm6.1 6.3c.7-.7 1.1-1.6 1.1-2.7s-.4-2-1.1-2.7c-.7-.7-1.6-1.1-2.6-1.1s-1.9.4-2.6 1.1c-.7.7-1.1 1.6-1.1 2.7s.4 2 1.1 2.7c.7.7 1.6 1.1 2.7 1.1.9-.1 1.8-.4 2.5-1.1zm9.3 2l-2.6-4h-1.4v4h-1.2v-9.6h3.2c.9 0 1.7.3 2.2.8.5.6.8 1.2.8 2 0 .6-.2 1.2-.6 1.7-.4.5-1 .9-1.7 1l2.7 4h-1.4v.1zm-3.9-8.4v3.3h1.7c1.4 0 2-.7 2-1.7 0-.9-.6-1.7-1.7-1.7l-2 .1zM527 276l-2.6-4H523v4h-1.2v-9.6h3.2c.9 0 1.7.3 2.2.8.5.6.8 1.2.8 2 0 .6-.2 1.2-.6 1.7-.4.5-1 .9-1.7 1l2.7 4H527v.1zm-3.9-8.4v3.3h1.7c1.4 0 2-.7 2-1.7 0-.9-.6-1.7-1.7-1.7h-2v.1zm7.1 8.4v-9.6h5.9v1.1h-4.7v3h4.3v1.1h-4.3v3.2h4.7v1.1l-5.9.1zm16.8.4l.1 1c-.4.2-.8.2-1.3.2-1.2 0-2.2-.5-3.1-1.5h-.5c-1.4 0-2.5-.5-3.5-1.5s-1.5-2.1-1.5-3.5.5-2.5 1.5-3.5 2.2-1.5 3.5-1.5 2.5.5 3.5 1.5 1.5 2.1 1.5 3.5c0 1-.3 2-.9 2.8s-1.3 1.4-2.3 1.8c.6.5 1.2.7 1.9.7.3.2.7.1 1.1 0zm-7.4-2.4c.7.7 1.6 1.1 2.6 1.1s1.9-.4 2.6-1.1c.7-.7 1.1-1.6 1.1-2.7s-.4-2-1.1-2.7c-.7-.7-1.6-1.1-2.6-1.1s-1.9.4-2.6 1.1c-.7.7-1.1 1.6-1.1 2.7s.3 1.9 1.1 2.7zm9.3-7.6h1.2v6.2c0 1.6.8 2.4 2.2 2.4s2.2-.9 2.2-2.4v-6.2h1.2v6.4c0 1-.3 1.9-.9 2.5-.6.6-1.5.9-2.5.9s-1.9-.3-2.5-.9-.9-1.4-.9-2.5v-6.4zm9.2 9.6v-9.6h5.9v1.1h-4.7v3h4.3v1.1h-4.3v3.2h4.7v1.1l-5.9.1zm13 0l-2.6-4h-1.4v4H566v-9.6h3.2c.9 0 1.7.3 2.2.8.5.6.8 1.2.8 2 0 .6-.2 1.2-.6 1.7-.4.5-1 .9-1.7 1l2.7 4h-1.5v.1zm-3.9-8.4v3.3h1.7c1.4 0 2-.7 2-1.7 0-.9-.6-1.7-1.7-1.7h-2v.1zm7.1-1.2h1.2v9.6h-1.2v-9.6zm3.6 9.6v-9.6h.5l4.2 6.2 4.2-6.2h.5v9.6h-1.2v-6.6l-3.4 5h-.3l-3.4-5v6.6h-1.1zm11.9-9.6h1.2v9.6h-1.2v-9.6zm3.7 9.6v-9.6h5.9v1.1h-4.7v3h4.3v1.1h-4.3v3.2h4.7v1.1l-5.9.1zm14.3-9.6h1.2v9.6h-.6l-5.9-7v7h-1.2v-9.6h.5l6 7v-7zm5.5 1.2h-2.9v-1.2h6.9v1.2h-2.9v8.4h-1.2v-8.4h.1zm5.8.1c1-1 2.1-1.5 3.5-1.5s2.5.5 3.5 1.5 1.5 2.1 1.5 3.5-.5 2.5-1.5 3.5-2.2 1.4-3.5 1.4c-1.4 0-2.6-.5-3.5-1.4s-1.4-2.1-1.4-3.5c0-1.3.4-2.5 1.4-3.5zm6.2 6.3c.7-.7 1.1-1.6 1.1-2.7s-.4-2-1.1-2.7c-.7-.7-1.6-1.1-2.6-1.1s-1.9.4-2.6 1.1c-.7.7-1.1 1.6-1.1 2.7s.4 2 1.1 2.7c.7.7 1.6 1.1 2.7 1.1.9-.1 1.8-.4 2.5-1.1z"/></g><path class="st3" d="M574.4 132.4c-68.9 0-124.9 56-124.9 124.9H461c0-62.5 50.9-113.4 113.4-113.4s113.4 50.9 113.4 113.4-50.9 113.4-113.4 113.4h-.3v11.5h.3c68.9 0 124.9-56 124.9-124.9s-56-124.9-124.9-124.9z"/><path class="st3" d="M574 370.7h98.8v11.5H574zM470.5 257L455 272.5 439.5 257zm85.3-150.2l-11.6 18.5-18.6-11.6z"/><path class="st3" d="M671.7 361l15.5 15.5-15.5 15.5zM508.5 147.6c-15.3 0-27.7-12.4-27.7-27.7s12.4-27.7 27.7-27.7c15.3 0 27.7 12.4 27.7 27.7h11.5c0-21.6-17.6-39.3-39.3-39.3s-39.3 17.6-39.3 39.3 17.6 39.3 39.3 39.3c4 0 7.9-.6 11.6-1.7v-12.3c-3.4 1.4-7.3 2.4-11.5 2.4zM221.5 375l-8.3-8.3c-.3-.3-.8-.3-1.1 0s-.3.8 0 1.1l7.7 7.7-7.7 7.7c-.3.3-.3.8 0 1.1.3.3.8.3 1.1 0l8.3-8.3c.3-.3.3-.7 0-1zm243.1 0l-8.3-8.3c-.3-.3-.8-.3-1.1 0-.3.3-.3.8 0 1.1l7.7 7.7-7.7 7.7c-.3.3-.3.8 0 1.1.3.3.8.3 1.1 0l8.3-8.3c.3-.3.3-.7 0-1z"/></svg>