<?xml version="1.0" encoding="UTF-8" standalone="no"?>
<svg
   version="1.1"
   id="Capa_1"
   x="0"
   y="0"
   viewBox="0 0 901.8 419"
   xml:space="preserve"
   sodipodi:docname="grafica-en.svg"
   inkscape:version="1.2 (dc2aedaf03, 2022-05-15)"
   xmlns:inkscape="http://www.inkscape.org/namespaces/inkscape"
   xmlns:sodipodi="http://sodipodi.sourceforge.net/DTD/sodipodi-0.dtd"
   xmlns="http://www.w3.org/2000/svg"
   xmlns:svg="http://www.w3.org/2000/svg"><defs
     id="defs37" /><sodipodi:namedview
     id="namedview35"
     pagecolor="#ffffff"
     bordercolor="#000000"
     borderopacity="0.25"
     inkscape:showpageshadow="2"
     inkscape:pageopacity="0.0"
     inkscape:pagecheckerboard="0"
     inkscape:deskcolor="#d1d1d1"
     showgrid="false"
     inkscape:zoom="1"
     inkscape:cx="494.5"
     inkscape:cy="294.5"
     inkscape:window-width="1440"
     inkscape:window-height="878"
     inkscape:window-x="3834"
     inkscape:window-y="917"
     inkscape:window-maximized="1"
     inkscape:current-layer="Capa_1" /><style
     id="style2">.st0{fill:#1b3069;stroke:#8cf8c1;stroke-miterlimit:10}.st1{enable-background:new}.st2{fill:#fff}.st3{fill:#8cf8c1}</style><path
     class="st0"
     d="M610.9 80.6H397.2v-75h213.7v75zM427.5 413h-179v-75h179.1l-.1 75zm467 0H715.4v-75h179.1v75zm-709 0H6.4v-75h179.1v75z"
     id="path4" /><circle
     class="st0"
     cx="574.4"
     cy="257.3"
     r="99.9"
     id="circle6" /><path
     class="st3"
     d="M574.4 132.4c-68.9 0-124.9 56-124.9 124.9H461c0-62.5 50.9-113.4 113.4-113.4s113.4 50.9 113.4 113.4-50.9 113.4-113.4 113.4h-.3v11.5h.3c68.9 0 124.9-56 124.9-124.9s-56-124.9-124.9-124.9z"
     id="path28" /><path
     class="st3"
     d="M574 370.7h98.8v11.5H574zM470.5 257L455 272.5 439.5 257zm85.3-150.2l-11.6 18.5-18.6-11.6z"
     id="path30" /><path
     class="st3"
     d="M671.7 361l15.5 15.5-15.5 15.5zM508.5 147.6c-15.3 0-27.7-12.4-27.7-27.7s12.4-27.7 27.7-27.7c15.3 0 27.7 12.4 27.7 27.7h11.5c0-21.6-17.6-39.3-39.3-39.3s-39.3 17.6-39.3 39.3 17.6 39.3 39.3 39.3c4 0 7.9-.6 11.6-1.7v-12.3c-3.4 1.4-7.3 2.4-11.5 2.4zM221.5 375l-8.3-8.3c-.3-.3-.8-.3-1.1 0s-.3.8 0 1.1l7.7 7.7-7.7 7.7c-.3.3-.3.8 0 1.1.3.3.8.3 1.1 0l8.3-8.3c.3-.3.3-.7 0-1zm243.1 0l-8.3-8.3c-.3-.3-.8-.3-1.1 0-.3.3-.3.8 0 1.1l7.7 7.7-7.7 7.7c-.3.3-.3.8 0 1.1.3.3.8.3 1.1 0l8.3-8.3c.3-.3.3-.7 0-1z"
     id="path32" /><text
     xml:space="preserve"
     style="font-style:normal;font-variant:normal;font-weight:normal;font-stretch:normal;font-size:14.66670036px;font-family:sans-serif;-inkscape-font-specification:'sans-serif, Normal';font-variant-ligatures:normal;font-variant-caps:normal;font-variant-numeric:normal;font-variant-east-asian:normal;text-align:center;text-anchor:middle;white-space:pre;inline-size:138.703;display:inline;fill:#ffffff"
     x="92.660721"
     y="370.75693"
     id="text989"
     inkscape:label="text989"><tspan
       x="92.660721"
       y="370.75693"
       id="tspan1116">CUSTOMER
</tspan><tspan
       x="92.660721"
       y="389.09029"
       id="tspan1118">REQUIREMENTS</tspan></text><text
     xml:space="preserve"
     style="font-size:14.6667px;text-align:center;text-anchor:middle;fill:#ffffff;-inkscape-font-specification:'sans-serif, Normal';font-family:sans-serif;font-weight:normal;font-style:normal;font-stretch:normal;font-variant:normal;font-variant-ligatures:normal;font-variant-caps:normal;font-variant-numeric:normal;font-variant-east-asian:normal"
     x="338.69724"
     y="372.07675"
     id="text995"><tspan
       sodipodi:role="line"
       id="tspan993"
       x="338.69724"
       y="372.07675">STEP-BY-STEP</tspan><tspan
       sodipodi:role="line"
       x="338.69724"
       y="390.41013"
       id="tspan997">ACTIVITIES</tspan></text><text
     xml:space="preserve"
     style="font-size:14.6667px;text-align:center;text-anchor:middle;fill:#ffffff;-inkscape-font-specification:'sans-serif, Normal';font-family:sans-serif;font-weight:normal;font-style:normal;font-stretch:normal;font-variant:normal;font-variant-ligatures:normal;font-variant-caps:normal;font-variant-numeric:normal;font-variant-east-asian:normal"
     x="503"
     y="37"
     id="text1001"><tspan
       sodipodi:role="line"
       id="tspan999"
       x="503"
       y="37">FEEDBACK AND</tspan><tspan
       sodipodi:role="line"
       x="503"
       y="55.333374"
       id="tspan1003">DAILY MEETING</tspan></text><text
     xml:space="preserve"
     style="font-size:14.6667px;text-align:center;text-anchor:middle;fill:#ffffff;-inkscape-font-specification:'sans-serif, Normal';font-family:sans-serif;font-weight:normal;font-style:normal;font-stretch:normal;font-variant:normal;font-variant-ligatures:normal;font-variant-caps:normal;font-variant-numeric:normal;font-variant-east-asian:normal"
     x="574"
     y="242"
     id="text1007"><tspan
       sodipodi:role="line"
       id="tspan1005"
       x="574"
       y="242">2 TO 4 WEEKS </tspan><tspan
       sodipodi:role="line"
       x="574"
       y="260.33337"
       id="tspan1009">CYCLES BY</tspan><tspan
       sodipodi:role="line"
       x="574"
       y="278.66675"
       id="tspan1011">REQUIREMENTS</tspan></text><text
     xml:space="preserve"
     style="font-style:normal;font-variant:normal;font-weight:normal;font-stretch:normal;font-size:14.6667px;font-family:sans-serif;-inkscape-font-specification:'sans-serif, Normal';font-variant-ligatures:normal;font-variant-caps:normal;font-variant-numeric:normal;font-variant-east-asian:normal;text-align:center;text-anchor:middle;fill:#ffffff"
     x="806"
     y="373"
     id="text1015"><tspan
       sodipodi:role="line"
       id="tspan1000"
       x="806"
       y="373">SOFTWARE</tspan><tspan
       sodipodi:role="line"
       id="tspan1002"
       x="806"
       y="391.33337">DELIVERY</tspan></text></svg>
