<svg baseProfile="tiny" xmlns="http://www.w3.org/2000/svg" viewBox="0 0 1180.9 496.6"><path fill="#FFF" d="M113.3 234.1c-2 0-4-.1-6-.2l.1-1c2 .1 4 .2 6 .2l-.1 1zm8.1-.2l-.1-1c2-.1 4-.3 6-.5l.1 1c-2 .3-4 .4-6 .5zm-22.1-.9c-2-.3-4-.6-5.9-1l.2-1c1.9.4 3.9.7 5.9 1l-.2 1zm36-.7l-.2-1c1.9-.3 3.9-.7 5.9-1.2l.2 1a56 56 0 01-5.9 1.2zm-49.7-2c-1.9-.5-3.9-1.1-5.8-1.7l.3-1c1.9.6 3.8 1.2 5.7 1.7l-.2 1zM149 229l-.3-1c1.9-.6 3.8-1.2 5.7-1.9l.3.9c-1.9.8-3.8 1.5-5.7 2zm-76.8-3.2c-1.9-.7-3.7-1.6-5.5-2.4l.4-.9c1.8.8 3.7 1.6 5.5 2.4l-.4.9zm89.9-1.7l-.4-.9c1.8-.8 3.6-1.7 5.4-2.6l.5.9c-1.8.9-3.6 1.8-5.5 2.6zm-102.6-4.3c-1.8-1-3.5-2-5.2-3.1l.5-.8c1.7 1 3.4 2.1 5.2 3l-.5.9zm115.1-2.2l-.5-.9c1.7-1 3.4-2.1 5-3.2l.6.8c-1.7 1.2-3.4 2.3-5.1 3.3zm-127-5.3c-1.6-1.2-3.2-2.4-4.8-3.7l.6-.8c1.5 1.2 3.1 2.5 4.7 3.6l-.5.9zm138.5-2.7l-.6-.8c1.6-1.2 3.1-2.5 4.6-3.8l.7.8c-1.5 1.3-3.1 2.6-4.7 3.8zm-149.3-6.3c-1.5-1.4-2.9-2.8-4.3-4.2l.7-.7c1.4 1.4 2.8 2.8 4.3 4.2l-.7.7zm159.8-3l-.7-.7c1.4-1.4 2.8-2.9 4.1-4.3l.7.7c-1.3 1.4-2.7 2.9-4.1 4.3zm-169.5-7.1c-1.3-1.5-2.6-3.1-3.8-4.7l.8-.6c1.2 1.6 2.5 3.2 3.7 4.7l-.7.6zm178.8-3.4l-.8-.6 3.6-4.8.8.6c-1.1 1.6-2.3 3.2-3.6 4.8zm-187.2-7.9c-1.1-1.7-2.2-3.4-3.2-5.1l.9-.5c1 1.7 2.1 3.4 3.1 5.1l-.8.5zm195.2-3.7l-.9-.5c1-1.7 2-3.4 2.9-5.2l.9.5c-.9 1.7-1.9 3.5-2.9 5.2zm-202.2-8.5c-.9-1.8-1.7-3.6-2.5-5.5l.9-.4c.8 1.8 1.6 3.6 2.5 5.4l-.9.5zm208.7-4l-.9-.4c.8-1.8 1.6-3.7 2.3-5.5l.9.4c-.7 1.8-1.5 3.7-2.3 5.5zM6.3 156.8c-.7-1.9-1.3-3.8-1.8-5.7l1-.3 1.8 5.7-1 .3zm219-4.2l-1-.3c.6-1.9 1.1-3.8 1.6-5.8l1 .2c-.4 2-1 3.9-1.6 5.9zM2.5 143.3c-.4-2-.8-3.9-1.1-5.9l1-.2c.3 2 .7 3.9 1.1 5.9l-1 .2zm226.1-4.4l-1-.2c.3-2 .6-3.9.9-5.9l1 .1-.9 6zM.4 129.4c-.2-2-.3-4-.4-6h1c.1 2 .2 4 .4 6h-1zm229.8-4.5l-1-.1c.1-2 .2-4 .2-6h1c-.1 2.1-.1 4.1-.2 6.1zm-.9-6.9c0-2-.1-4-.2-6l1-.1c.1 2 .2 4 .2 6l-1 .1zM1 115.4H0l.3-6 1 .1c-.1 1.9-.2 3.9-.3 5.9zm227.4-11.3c-.3-2-.6-4-.9-5.9l1-.2c.4 2 .7 4 .9 6l-1 .1zM2.3 101.5l-1-.2c.3-2 .7-4 1.1-5.9l1 .2c-.5 2-.8 3.9-1.1 5.9zm223.4-11.1c-.5-1.9-1-3.9-1.6-5.7l1-.3c.6 1.9 1.2 3.9 1.7 5.8l-1.1.2zM5.2 87.9l-1-.3c.5-1.9 1.1-3.9 1.8-5.8l1 .4c-.7 1.9-1.3 3.8-1.8 5.7zm216.3-10.7c-.7-1.8-1.5-3.7-2.3-5.5l.9-.4c.8 1.8 1.6 3.7 2.3 5.5l-.9.4zM9.8 74.7l-.9-.4c.8-1.8 1.6-3.7 2.5-5.5l.9.4c-.9 1.9-1.7 3.7-2.5 5.5zm205.8-10.1c-.9-1.7-1.9-3.5-3-5.2l.9-.5c1 1.7 2.1 3.5 3 5.2l-.9.5zM16 62.2l-.9-.5c1-1.7 2-3.5 3.1-5.2l.8.5c-1 1.8-2 3.5-3 5.2zm192.2-9.4c-1.1-1.6-2.4-3.2-3.6-4.8l.8-.6c1.2 1.6 2.5 3.2 3.6 4.8l-.8.6zM23.6 50.6l-.8-.6c1.2-1.6 2.5-3.2 3.7-4.7l.8.6c-1.2 1.5-2.5 3.1-3.7 4.7zm175.9-8.7c-1.3-1.5-2.7-2.9-4.1-4.3l.7-.7c1.4 1.4 2.8 2.9 4.2 4.3l-.8.7zM32.6 40l-.7-.7c1.4-1.4 2.8-2.9 4.3-4.2l.7.7c-1.5 1.3-2.9 2.7-4.3 4.2zm156.9-7.8c-1.5-1.3-3.1-2.6-4.6-3.8l.6-.8c1.6 1.2 3.2 2.5 4.7 3.8l-.7.8zM42.9 30.5l-.6-.8c1.5-1.3 3.1-2.5 4.8-3.7l.6.8c-1.7 1.2-3.3 2.4-4.8 3.7zm135.5-6.7c-1.7-1.1-3.4-2.2-5.1-3.2l.5-.9c1.7 1 3.4 2.1 5.1 3.2l-.5.9zM54.1 22.4l-.5-.8c1.7-1.1 3.4-2.1 5.2-3.1l.5.9c-1.8.9-3.5 1.9-5.2 3zm112.2-5.6c-1.8-.9-3.6-1.7-5.4-2.5l.4-.9c1.8.8 3.7 1.7 5.5 2.6l-.5.8zm-100-1.2l-.4-.9c1.8-.9 3.7-1.7 5.5-2.4l.4.9c-1.8.8-3.7 1.6-5.5 2.4zm87.2-4.3c-1.9-.7-3.8-1.3-5.7-1.9l.3-1c1.9.6 3.8 1.2 5.7 1.9l-.3 1zm-74.2-.8l-.3-.9c1.9-.6 3.8-1.2 5.8-1.7l.3 1c-2 .4-4 1-5.8 1.6zm60.8-3c-1.9-.4-3.9-.8-5.9-1.1l.2-1c2 .3 4 .7 5.9 1.2l-.2.9zm-47.4-.6l-.2-1c2-.4 4-.7 5.9-1l.1 1c-1.9.3-3.8.6-5.8 1zm33.7-1.6c-2-.2-4-.3-6-.4v-1c2 .1 4 .2 6 .4v1zM106.5 5l-.1-1 6-.3v1c-1.9.1-3.9.2-5.9.3zm31.2 76.2c-10.9 0-19.8 8.9-19.8 19.8s8.9 19.8 19.8 19.8 19.8-8.9 19.8-19.8-8.9-19.8-19.8-19.8zm0 35.4c-8.6 0-15.7-7-15.7-15.7s7-15.7 15.7-15.7c8.6 0 15.7 7 15.7 15.7s-7.1 15.7-15.7 15.7z"/><path fill="#FFF" d="M139.7 92.4c-.8-.8-2.1-.7-2.9.1-.8.8-.7 2.1.1 2.9l3.9 3.7h-12.2c-1.1 0-2.1.9-2.1 2.1 0 1.1.9 2.1 2.1 2.1h12l-3.6 3.4c-.8.8-.9 2.1-.1 2.9.4.4.9.7 1.5.7.5 0 1-.2 1.4-.6l7.5-7.1c.4-.4.7-.9.7-1.5s-.3-1.1-.7-1.5l-7.6-7.2z"/><path fill="#FFF" d="M115.1 116.6H80.6c-.5-.1-2.7-.6-2.7-4.2V54.6h74.4v27.9c0 1.1.9 2.1 2.1 2.1 1.1 0 2.1-.9 2.1-2.1V45.9c0-5.8-3.9-7.6-6-7.9H80.8c-4.7 0-6.6 3.8-6.9 5.8 0 .1-.1.2-.1.4v68.1c0 6.1 4.3 8.1 6.5 8.3h34.8c1.1 0 2.1-.9 2.1-2.1s-1-1.9-2.1-1.9zM80.8 42.2h69.4c.4.1 2.2.5 2.2 3.7v4.5H77.9v-6c.2-.6.8-2.2 2.9-2.2z"/><path fill="#FFF" d="M142 73.7c0-1.1-.9-2.1-2.1-2.1H90.3c-1.1 0-2.1.9-2.1 2.1s.9 2.1 2.1 2.1h49.6c1.1 0 2.1-.9 2.1-2.1zM120.3 82c0-1.1-.9-2.1-2.1-2.1H90.3c-1.1 0-2.1.9-2.1 2.1s.9 2.1 2.1 2.1h27.9c1.1 0 2.1-1 2.1-2.1zm-8.3 6.2H90.3c-1.1 0-2.1.9-2.1 2.1s.9 2.1 2.1 2.1H112c1.1 0 2.1-.9 2.1-2.1s-1-2.1-2.1-2.1zm0 8.3H90.3c-1.1 0-2.1.9-2.1 2.1s.9 2.1 2.1 2.1H112c1.1 0 2.1-.9 2.1-2.1s-1-2.1-2.1-2.1z"/><circle fill="#FFF" cx="115.5" cy="232.9" r="14.4"/><path fill="#FFF" d="M29.1 155.8v5.3h-1.7v-12.4h3.3c1.5 0 2.7.3 3.5.9.8.6 1.2 1.5 1.2 2.6 0 .9-.2 1.6-.7 2.1s-1.1.9-2 1.2l3.3 5.6h-2l-3-5.3h-1.9zm3.8-1.9c.5-.4.7-1 .7-1.8s-.2-1.3-.7-1.7c-.5-.3-1.2-.5-2.2-.5h-1.5v4.5h1.7c.8.1 1.5-.1 2-.5zm12 3h-6c.1 1 .3 1.8.8 2.3.5.5 1 .7 1.8.7.5 0 .9-.1 1.3-.2s.8-.3 1.2-.6l.7 1c-1 .8-2.1 1.2-3.3 1.2-1.3 0-2.3-.4-3.1-1.3-.7-.9-1.1-2.1-1.1-3.6 0-1 .2-1.9.5-2.6.3-.8.8-1.4 1.4-1.8.6-.4 1.3-.6 2.1-.6 1.3 0 2.2.4 2.9 1.2.7.8 1 2 1 3.4-.2.3-.2.6-.2.9zm-1.6-1.4c0-.9-.2-1.6-.6-2.1-.4-.5-.9-.7-1.7-.7-1.4 0-2.1 1-2.2 3h4.4v-.2zm9.3-3.9c.5.2.9.4 1.4.8l-.8 1.1c-.3-.3-.6-.4-1-.6s-.7-.2-1.1-.2c-.8 0-1.4.3-1.8.9-.4.6-.6 1.5-.6 2.7 0 1.2.2 2.1.6 2.7.4.6 1 .9 1.8.9.4 0 .7-.1 1-.2.3-.1.6-.3 1-.6l.8 1.1c-.9.7-1.8 1-2.9 1-1.3 0-2.3-.4-3-1.3-.7-.9-1.1-2.1-1.1-3.6 0-1 .2-1.9.5-2.6.3-.8.8-1.3 1.4-1.8s1.4-.6 2.2-.6c.7.1 1.2.1 1.6.3zm5.3-4.3c.2.2.3.5.3.8 0 .3-.1.6-.3.8-.2.2-.5.3-.8.3-.3 0-.6-.1-.8-.3-.2-.2-.3-.5-.3-.8 0-.3.1-.6.3-.8.2-.2.5-.3.8-.3.3 0 .6.1.8.3zm-1.7 13.8v-9.5h1.7v9.5h-1.7zm12-8.4c.6.9 1 2.1 1 3.6 0 1-.2 1.9-.5 2.6-.3.8-.7 1.3-1.3 1.7-.6.4-1.2.6-2 .6-1 0-1.8-.4-2.5-1.3l-.2 1h-1.5v-13.3l1.7-.2v5.2c.7-.9 1.6-1.4 2.7-1.4 1.1.2 2 .6 2.6 1.5zm-1.4 6.4c.4-.6.6-1.5.6-2.8 0-1.3-.2-2.2-.6-2.8-.4-.6-.9-.9-1.6-.9-.8 0-1.6.5-2.2 1.5v4.5c.3.4.6.7.9.9.4.2.8.3 1.2.3.7.2 1.3-.1 1.7-.7zm6.9-11.8c.2.2.3.5.3.8 0 .3-.1.6-.3.8-.2.2-.5.3-.8.3-.3 0-.6-.1-.8-.3-.2-.2-.3-.5-.3-.8 0-.3.1-.6.3-.8.2-.2.5-.3.8-.3.3 0 .6.1.8.3zM72 161.1v-9.5h1.7v9.5H72zm10.1-9.6l-.3 1.6c-.3-.1-.6-.1-.8-.1-.6 0-1.1.2-1.4.6s-.6 1.1-.8 2v5.4h-1.7v-9.5h1.4l.2 1.9c.3-.7.6-1.2 1-1.6.4-.4.9-.5 1.5-.5.3.1.7.1.9.2zm11.8 0l-.3 1.6c-.3-.1-.6-.1-.8-.1-.6 0-1.1.2-1.4.6s-.6 1.1-.8 2v5.4h-1.7v-9.5h1.4l.2 1.9c.3-.7.6-1.2 1-1.6.4-.4.9-.5 1.5-.5.3.1.6.1.9.2zm8.8 5.4h-6c.1 1 .3 1.8.8 2.3.5.5 1 .7 1.8.7.5 0 .9-.1 1.3-.2s.8-.3 1.2-.6l.7 1c-1 .8-2.1 1.2-3.3 1.2-1.3 0-2.3-.4-3.1-1.3-.7-.9-1.1-2.1-1.1-3.6 0-1 .2-1.9.5-2.6.3-.8.8-1.4 1.4-1.8.6-.4 1.3-.6 2.1-.6 1.3 0 2.2.4 2.9 1.2.7.8 1 2 1 3.4-.2.3-.2.6-.2.9zm-1.6-1.4c0-.9-.2-1.6-.6-2.1-.4-.5-.9-.7-1.7-.7-1.4 0-2.1 1-2.2 3h4.4v-.2zm11.6 9.4l-1.7-.2v-4.9c-.3.5-.7.8-1.2 1.1s-1 .4-1.5.4c-1.1 0-2-.4-2.6-1.3-.6-.9-.9-2.1-.9-3.6 0-1 .1-1.8.5-2.6.3-.8.7-1.3 1.3-1.8.6-.4 1.2-.6 2-.6 1 0 1.9.4 2.7 1.3l.1-1.1h1.4v13.3zm-2.7-5.3c.4-.2.7-.6 1-1.1v-4.6c-.3-.4-.6-.7-1-.9-.4-.2-.8-.3-1.2-.3-.7 0-1.3.3-1.7.9-.4.6-.6 1.5-.6 2.7 0 1.2.2 2.1.6 2.7.4.6.9.9 1.6.9.5.1 1-.1 1.3-.3zm11.8 1.5l-.1-1.5c-.4.6-.8 1-1.2 1.3-.5.3-1 .4-1.7.4-.8 0-1.5-.3-1.9-.8-.5-.5-.7-1.2-.7-2.1v-6.8h1.7v6.6c0 .6.1 1.1.3 1.4.2.3.6.4 1.1.4.9 0 1.7-.5 2.4-1.6v-6.8h1.7v9.5h-1.6zm12-4.2h-6c.1 1 .3 1.8.8 2.3.5.5 1 .7 1.8.7.5 0 .9-.1 1.3-.2s.8-.3 1.2-.6l.7 1c-1 .8-2.1 1.2-3.3 1.2-1.3 0-2.3-.4-3.1-1.3-.7-.9-1.1-2.1-1.1-3.6 0-1 .2-1.9.5-2.6.3-.8.8-1.4 1.4-1.8.6-.4 1.3-.6 2.1-.6 1.3 0 2.2.4 2.9 1.2.7.8 1 2 1 3.4-.2.3-.2.6-.2.9zm-1.7-1.4c0-.9-.2-1.6-.6-2.1-.4-.5-.9-.7-1.7-.7-1.4 0-2.1 1-2.2 3h4.4v-.2zm9.5-4l-.3 1.6c-.3-.1-.6-.1-.8-.1-.6 0-1.1.2-1.4.6s-.6 1.1-.8 2v5.4h-1.7v-9.5h1.4l.2 1.9c.3-.7.6-1.2 1-1.6.4-.4.9-.5 1.5-.5.3.1.6.1.9.2zm3.5-4.2c.2.2.3.5.3.8 0 .3-.1.6-.3.8-.2.2-.5.3-.8.3-.3 0-.6-.1-.8-.3-.2-.2-.3-.5-.3-.8 0-.3.1-.6.3-.8.2-.2.5-.3.8-.3.3 0 .6.1.8.3zm-1.6 13.8v-9.5h1.7v9.5h-1.7zm16.4-9c.5.5.7 1.2.7 2.1v6.8H159v-6.6c0-1.2-.4-1.8-1.3-1.8-.5 0-.9.1-1.2.4-.3.3-.7.7-1 1.3v6.7h-1.7v-6.6c0-1.2-.4-1.8-1.3-1.8-.5 0-.9.1-1.2.4-.3.3-.7.7-1 1.3v6.7h-1.7v-9.5h1.4l.1 1.4c.7-1.1 1.6-1.6 2.7-1.6.6 0 1.1.2 1.5.5s.7.7.9 1.3c.4-.6.8-1 1.2-1.3.4-.3 1-.4 1.6-.4.8 0 1.5.2 1.9.7zm5.7-4.8c.2.2.3.5.3.8 0 .3-.1.6-.3.8-.2.2-.5.3-.8.3-.3 0-.6-.1-.8-.3-.2-.2-.3-.5-.3-.8 0-.3.1-.6.3-.8.2-.2.5-.3.8-.3.3 0 .6.1.8.3zm-1.6 13.8v-9.5h1.7v9.5H164zm12.2-4.2h-6c.1 1 .3 1.8.8 2.3.5.5 1 .7 1.8.7.5 0 .9-.1 1.3-.2s.8-.3 1.2-.6l.7 1c-1 .8-2.1 1.2-3.3 1.2-1.3 0-2.3-.4-3.1-1.3-.7-.9-1.1-2.1-1.1-3.6 0-1 .2-1.9.5-2.6.3-.8.8-1.4 1.4-1.8.6-.4 1.3-.6 2.1-.6 1.3 0 2.2.4 2.9 1.2.7.8 1 2 1 3.4-.2.3-.2.6-.2.9zm-1.6-1.4c0-.9-.2-1.6-.6-2.1-.4-.5-.9-.7-1.7-.7-1.4 0-2.1 1-2.2 3h4.4v-.2zm10.8-3.4c.5.5.7 1.2.7 2.1v6.8h-1.7v-6.6c0-.7-.1-1.1-.4-1.4-.3-.3-.6-.4-1.1-.4-.5 0-.9.1-1.3.4-.4.3-.7.7-1.1 1.2v6.7h-1.7v-9.5h1.4l.1 1.4c.3-.5.8-.9 1.3-1.2s1-.4 1.6-.4c1.1.2 1.8.4 2.2.9zm6.8 9.2c-.8 0-1.4-.2-1.9-.7-.5-.5-.7-1.1-.7-2v-5.7h-1.7v-1.3h1.7v-2.1l1.7-.2v2.3h2.3l-.2 1.3h-2.1v5.7c0 .5.1.8.3 1.1s.5.3.9.3.8-.1 1.3-.4l.6 1.1c-.7.4-1.4.6-2.2.6zm10.3-8.6c.7.9 1.1 2.1 1.1 3.6 0 1-.2 1.9-.5 2.6s-.8 1.3-1.5 1.7c-.6.4-1.4.6-2.3.6-1.3 0-2.4-.4-3.1-1.3-.7-.9-1.1-2.1-1.1-3.6 0-1 .2-1.9.5-2.6s.8-1.3 1.5-1.7c.6-.4 1.4-.6 2.3-.6 1.3 0 2.3.4 3.1 1.3zm-5.6 3.6c0 2.4.8 3.6 2.4 3.6s2.4-1.2 2.4-3.6c0-2.4-.8-3.6-2.4-3.6-1.6 0-2.4 1.2-2.4 3.6zM65.5 189.7c-.7.6-1.6 1-2.9 1.2l-.2-1.3c.6-.1 1.1-.3 1.5-.5.4-.2.7-.5.9-.8.2-.3.4-.7.6-1.3h-.6l-3.2-9.5h1.8l2.5 8.3 2.5-8.3h1.7l-3.2 9.5c-.3 1.2-.8 2.1-1.4 2.7zm7.6-.8l-1.4-.3 4.2-16.1 1.4.3-4.2 16.1zm12.8-10.2c.7.9 1.1 2.1 1.1 3.6 0 1-.2 1.9-.5 2.6s-.8 1.3-1.5 1.7c-.6.4-1.4.6-2.3.6-1.3 0-2.4-.4-3.1-1.3-.7-.9-1.1-2.1-1.1-3.6 0-1 .2-1.9.5-2.6s.8-1.3 1.5-1.7c.6-.4 1.4-.6 2.3-.6 1.4 0 2.4.4 3.1 1.3zm-5.5 3.6c0 2.4.8 3.6 2.4 3.6s2.4-1.2 2.4-3.6c0-2.4-.8-3.6-2.4-3.6-1.6 0-2.4 1.2-2.4 3.6zm21.2-3.7c.6.9.8 2.1.8 3.7 0 1.5-.3 2.7-1 3.6s-1.6 1.4-2.8 1.4c-1.1 0-1.9-.4-2.5-1.1v4.5l-1.7.2v-13.3H96l.1 1.3c.3-.5.8-.8 1.3-1.1.5-.3 1-.4 1.5-.4 1.2 0 2.1.4 2.7 1.2zm-1 3.7c0-2.4-.7-3.6-2.1-3.6-.5 0-.9.1-1.3.4-.4.3-.7.6-1 1.1v4.6c.2.4.5.7.9.9.4.2.8.3 1.2.3 1.6-.1 2.3-1.3 2.3-3.7zm9.7-4.8l-.3 1.6c-.3-.1-.6-.1-.8-.1-.6 0-1.1.2-1.4.6s-.6 1.1-.8 2v5.4h-1.7v-9.5h1.4l.2 1.9c.3-.7.6-1.2 1-1.6.4-.4.9-.5 1.5-.5.3.1.6.1.9.2zm8.4 1.2c.7.9 1.1 2.1 1.1 3.6 0 1-.2 1.9-.5 2.6s-.8 1.3-1.5 1.7c-.6.4-1.4.6-2.3.6-1.3 0-2.4-.4-3.1-1.3-.7-.9-1.1-2.1-1.1-3.6 0-1 .2-1.9.5-2.6s.8-1.3 1.5-1.7c.6-.4 1.4-.6 2.3-.6 1.3 0 2.3.4 3.1 1.3zm-5.6 3.6c0 2.4.8 3.6 2.4 3.6s2.4-1.2 2.4-3.6c0-2.4-.8-3.6-2.4-3.6-1.6 0-2.4 1.2-2.4 3.6zm11.5 7.4c-.7.6-1.6 1-2.9 1.2l-.2-1.3c.6-.1 1.1-.3 1.5-.5.4-.2.7-.5.9-.8.2-.3.4-.7.6-1.3h-.5l-3.2-9.5h1.8l2.5 8.3 2.5-8.3h1.7l-3.2 9.5c-.3 1.2-.8 2.1-1.5 2.7zm13.5-6.8h-6c.1 1 .3 1.8.8 2.3.5.5 1 .7 1.8.7.5 0 .9-.1 1.3-.2s.8-.3 1.2-.6l.7 1c-1 .8-2.1 1.2-3.3 1.2-1.3 0-2.3-.4-3.1-1.3-.7-.9-1.1-2.1-1.1-3.6 0-1 .2-1.9.5-2.6.3-.8.8-1.4 1.4-1.8.6-.4 1.3-.6 2.1-.6 1.3 0 2.2.4 2.9 1.2.7.8 1 2 1 3.4-.2.3-.2.6-.2.9zm-1.6-1.4c0-.9-.2-1.6-.6-2.1-.4-.5-.9-.7-1.7-.7-1.4 0-2.1 1-2.2 3h4.4v-.2zm9.3-3.9c.5.2.9.4 1.4.8l-.8 1.1c-.3-.3-.6-.4-1-.6s-.7-.2-1.1-.2c-.8 0-1.4.3-1.8.9-.4.6-.6 1.5-.6 2.7 0 1.2.2 2.1.6 2.7.4.6 1 .9 1.8.9.4 0 .7-.1 1-.2.3-.1.6-.3 1-.6l.8 1.1c-.9.7-1.8 1-2.9 1-1.3 0-2.3-.4-3-1.3-.7-.9-1.1-2.1-1.1-3.6 0-1 .2-1.9.5-2.6.3-.8.8-1.3 1.4-1.8s1.4-.6 2.2-.6c.7.1 1.2.1 1.6.3zm6.3 9.7c-.8 0-1.4-.2-1.9-.7-.5-.5-.7-1.1-.7-2v-5.7h-1.7v-1.3h1.7v-2.1l1.7-.2v2.3h2.3l-.2 1.3h-2.1v5.7c0 .5.1.8.3 1.1s.5.3.9.3.8-.1 1.3-.4l.6 1.1c-.7.4-1.4.6-2.2.6zm10.3-8.6c.7.9 1.1 2.1 1.1 3.6 0 1-.2 1.9-.5 2.6s-.8 1.3-1.5 1.7c-.6.4-1.4.6-2.3.6-1.3 0-2.4-.4-3.1-1.3-.7-.9-1.1-2.1-1.1-3.6 0-1 .2-1.9.5-2.6s.8-1.3 1.5-1.7c.6-.4 1.4-.6 2.3-.6 1.4 0 2.4.4 3.1 1.3zm-5.5 3.6c0 2.4.8 3.6 2.4 3.6s2.4-1.2 2.4-3.6c0-2.4-.8-3.6-2.4-3.6-1.6 0-2.4 1.2-2.4 3.6zm10.5 2.8c.2.2.4.5.4.9s-.1.6-.4.9c-.2.2-.5.4-.9.4-.3 0-.6-.1-.9-.4-.2-.2-.4-.5-.4-.9s.1-.6.4-.9c.2-.2.5-.4.9-.4.4.1.7.2.9.4z"/><path fill="#EE4E4E" d="M122.1 232.3h-6v-6.1h-1.2v6.1h-6.1v1.1h6.1v6.1h1.2v-6.1h6z"/><path fill="#FFF" d="M338.2 477.1c-2 0-4-.1-6-.2l.1-1c2 .1 4 .2 6 .2l-.1 1zm8.1-.1l-.1-1c2-.1 4-.3 6-.5l.1 1c-2 .2-4.1.4-6 .5zm-22.1-.9c-2-.3-4-.6-5.9-1l.2-1c1.9.4 3.9.7 5.9 1l-.2 1zm36-.7l-.2-1c2-.3 3.9-.7 5.9-1.2l.2 1c-1.9.4-3.9.8-5.9 1.2zm-49.8-2.1c-1.9-.5-3.9-1.1-5.8-1.7l.3-1c1.9.6 3.8 1.2 5.7 1.7l-.2 1zm63.5-1.2l-.3-1c1.9-.6 3.8-1.2 5.7-1.9l.3.9c-1.9.8-3.8 1.4-5.7 2zm-76.8-3.2c-1.9-.7-3.7-1.6-5.5-2.4l.4-.9c1.8.8 3.7 1.6 5.5 2.4l-.4.9zm89.9-1.7l-.4-.9c1.8-.8 3.6-1.7 5.4-2.6l.5.9c-1.9.9-3.7 1.7-5.5 2.6zm-102.6-4.3c-1.8-1-3.5-2-5.2-3.1l.5-.8c1.7 1 3.4 2.1 5.2 3l-.5.9zm115-2.2l-.5-.9c1.7-1 3.4-2.1 5-3.2l.6.8-5.1 3.3zm-126.9-5.4c-1.6-1.2-3.2-2.4-4.8-3.7l.6-.8c1.6 1.3 3.1 2.5 4.7 3.6l-.5.9zm138.5-2.6l-.6-.8c1.6-1.2 3.1-2.5 4.6-3.8l.7.8c-1.6 1.3-3.1 2.6-4.7 3.8zm-149.3-6.3c-1.5-1.4-2.9-2.8-4.3-4.2l.7-.7c1.4 1.4 2.8 2.8 4.3 4.2l-.7.7zm159.8-3l-.7-.7c1.4-1.4 2.8-2.9 4.1-4.3l.7.7c-1.3 1.4-2.7 2.8-4.1 4.3zM252 436.2c-1.3-1.5-2.6-3.1-3.8-4.7l.8-.6c1.2 1.6 2.5 3.2 3.7 4.7l-.7.6zm178.8-3.4l-.8-.6 3.6-4.8.8.6c-1.1 1.6-2.4 3.3-3.6 4.8zM243.6 425c-1.1-1.7-2.2-3.4-3.2-5.1l.9-.5c1 1.7 2.1 3.4 3.1 5.1l-.8.5zm195.2-3.7l-.9-.5c1-1.7 2-3.4 2.9-5.2l.9.5c-.9 1.7-1.9 3.5-2.9 5.2zm-202.2-8.5c-.9-1.8-1.7-3.6-2.5-5.5l.9-.4c.8 1.8 1.6 3.6 2.5 5.4l-.9.5zm208.7-4l-.9-.4c.8-1.8 1.6-3.7 2.3-5.5l.9.4c-.7 1.8-1.5 3.7-2.3 5.5zm-214.1-8.9c-.7-1.9-1.3-3.8-1.8-5.7l1-.3 1.8 5.7-1 .3zm219-4.3l-1-.3c.6-1.9 1.1-3.8 1.6-5.8l1 .2c-.5 2-1 4-1.6 5.9zm-222.8-9.3c-.4-2-.8-3.9-1.1-5.9l1-.2c.3 2 .7 3.9 1.1 5.9l-1 .2zm226.1-4.4l-1-.2c.3-2 .6-3.9.9-5.9l1 .1c-.3 2.1-.6 4.1-.9 6zm-228.2-9.5c-.2-2-.3-4-.4-6h1c.1 2 .2 4 .4 6h-1zM455 368l-1-.1c.1-2 .2-4 .2-6h1c0 2.1-.1 4.1-.2 6.1zm-.8-6.9c0-2-.1-4-.2-6l1-.1c.1 2 .2 4 .2 6l-1 .1zm-228.3-2.7h-1l.3-6 1 .1c-.2 1.9-.3 3.9-.3 5.9zm227.3-11.2c-.3-2-.6-3.9-.9-5.9l1-.2c.4 2 .7 4 .9 6l-1 .1zm-226.1-2.6l-1-.2c.3-2 .7-4 1.1-5.9l1 .2c-.4 1.9-.8 3.9-1.1 5.9zm223.5-11.1c-.5-1.9-1-3.8-1.6-5.7l1-.3c.6 1.9 1.2 3.9 1.7 5.8l-1.1.2zM230.1 331l-1-.3c.5-1.9 1.1-3.9 1.8-5.8l.9.3c-.6 1.9-1.2 3.8-1.7 5.8zm216.2-10.7c-.7-1.8-1.5-3.7-2.3-5.5l.9-.4c.8 1.8 1.6 3.7 2.3 5.5l-.9.4zm-211.6-2.5l-.9-.4c.8-1.8 1.6-3.7 2.5-5.5l.9.4c-.9 1.8-1.8 3.7-2.5 5.5zm205.8-10.2c-.9-1.7-1.9-3.5-3-5.2l.9-.5c1 1.7 2.1 3.5 3 5.2l-.9.5zm-199.6-2.3l-.9-.5c1-1.7 2.1-3.5 3.1-5.2l.8.5c-1 1.8-2.1 3.5-3 5.2zm192.2-9.5c-1.1-1.6-2.4-3.2-3.6-4.8l.8-.6c1.2 1.6 2.5 3.2 3.6 4.8l-.8.6zm-184.6-2.2l-.8-.6c1.2-1.6 2.5-3.2 3.7-4.7l.8.6c-1.3 1.6-2.5 3.2-3.7 4.7zm175.9-8.6c-1.3-1.5-2.7-2.9-4.1-4.3l.7-.7c1.4 1.4 2.8 2.9 4.2 4.3l-.8.7zm-166.9-2l-.7-.7c1.4-1.4 2.8-2.9 4.3-4.2l.7.7c-1.5 1.4-2.9 2.8-4.3 4.2zm156.9-7.7c-1.5-1.3-3.1-2.6-4.6-3.8l.6-.8c1.6 1.2 3.2 2.5 4.7 3.8l-.7.8zm-146.7-1.7l-.6-.8c1.6-1.3 3.2-2.5 4.8-3.7l.6.8c-1.6 1.2-3.2 2.4-4.8 3.7zm135.6-6.7c-1.7-1.1-3.4-2.2-5.1-3.2l.5-.9c1.7 1 3.4 2.1 5.1 3.2l-.5.9zM279 265.4l-.5-.8c1.7-1.1 3.4-2.1 5.2-3.1l.5.9c-1.8.9-3.5 1.9-5.2 3zm112.2-5.5c-1.8-.9-3.6-1.7-5.4-2.5l.4-.9c1.8.8 3.7 1.7 5.5 2.6l-.5.8zm-100-1.2l-.4-.9c1.8-.9 3.7-1.7 5.5-2.4l.4.9c-1.9.7-3.7 1.6-5.5 2.4zm87.2-4.3c-1.9-.7-3.8-1.3-5.7-1.9l.3-1c1.9.6 3.8 1.2 5.7 1.9l-.3 1zm-74.3-.9l-.3-.9c1.9-.6 3.8-1.2 5.8-1.7l.3 1c-2 .4-3.9 1-5.8 1.6zm60.9-3c-1.9-.4-3.9-.8-5.9-1.1l.2-1c2 .3 4 .7 5.9 1.2l-.2.9zm-47.4-.5l-.2-1c2-.4 4-.7 5.9-1l.1 1c-1.9.3-3.9.6-5.8 1zm33.7-1.7c-2-.2-4-.3-6-.4v-1c2 .1 4 .2 6 .4v1zm-19.9-.2l-.1-1 6-.3v1c-1.9.1-3.9.2-5.9.3z"/><circle fill="#FFF" cx="340.3" cy="475.9" r="14.4"/><path fill="#FFF" d="M309.9 403l-.9 3.1h-1.7l4-12.4h2.2l4 12.4h-1.8l-.9-3.1h-4.9zm2.4-7.9l-1.9 6.5h3.9l-2-6.5zm13.4 2.1c.5.5.7 1.2.7 2.1v6.8h-1.7v-6.6c0-.7-.1-1.1-.4-1.4-.3-.3-.6-.4-1.1-.4-.5 0-.9.1-1.3.4-.4.3-.7.7-1.1 1.2v6.7h-1.7v-9.5h1.4l.1 1.4c.3-.5.8-.9 1.3-1.2s1-.4 1.6-.4c1 .1 1.7.4 2.2.9zm10.6 7.6c.1.2.3.3.6.4l-.4 1.2c-.5-.1-.9-.2-1.2-.4-.3-.2-.5-.6-.7-1-.6.9-1.6 1.4-2.8 1.4-.9 0-1.7-.3-2.2-.8-.5-.5-.8-1.2-.8-2.1 0-1 .4-1.8 1.1-2.3s1.8-.8 3.1-.8h1.5v-.7c0-.7-.2-1.2-.5-1.4s-.8-.4-1.5-.4-1.5.2-2.6.5l-.4-1.2c1.2-.4 2.3-.6 3.3-.6 1.1 0 1.9.3 2.5.8.6.5.8 1.3.8 2.3v4.3c0 .3.1.6.2.8zm-1.8-1.2v-2.2h-1.2c-1.8 0-2.6.6-2.6 1.9 0 .6.1 1 .4 1.3s.7.4 1.2.4c.9.1 1.6-.4 2.2-1.4zm6.7 1.2c.1.1.2.2.5.2.2 0 .4 0 .6-.1l.4 1.2c-.4.2-.9.3-1.4.3-.6 0-1.1-.2-1.4-.5-.3-.4-.5-.9-.5-1.6v-11.4l1.7-.2v11.6c0 .2 0 .4.1.5zm5.3-12.4c.2.2.3.5.3.8 0 .3-.1.6-.3.8-.2.2-.5.3-.8.3-.3 0-.6-.1-.8-.3-.2-.2-.3-.5-.3-.8 0-.3.1-.6.3-.8.2-.2.5-.3.8-.3.3 0 .6.1.8.3zm-1.7 13.7v-9.5h1.7v9.5h-1.7zm5.7-1.4h5l-.2 1.4h-6.7v-1.2l4.9-6.8H349v-1.4h6.4v1.3l-4.9 6.7zm13.8.1c.1.2.3.3.6.4l-.4 1.2c-.5-.1-.9-.2-1.2-.4-.3-.2-.5-.6-.7-1-.6.9-1.6 1.4-2.8 1.4-.9 0-1.7-.3-2.2-.8-.5-.5-.8-1.2-.8-2.1 0-1 .4-1.8 1.1-2.3s1.8-.8 3.1-.8h1.5v-.7c0-.7-.2-1.2-.5-1.4s-.8-.4-1.5-.4-1.5.2-2.6.5l-.4-1.2c1.2-.4 2.3-.6 3.3-.6 1.1 0 1.9.3 2.5.8.6.5.8 1.3.8 2.3v4.3c0 .3.1.6.2.8zm-1.8-1.2v-2.2h-1.2c-1.8 0-2.6.6-2.6 1.9 0 .6.1 1 .4 1.3s.7.4 1.2.4c.9.1 1.6-.4 2.2-1.4zm10.1-7.1l-.3 1.6c-.3-.1-.6-.1-.8-.1-.6 0-1.1.2-1.4.6-.4.4-.6 1.1-.8 2v5.4h-1.7v-9.5h1.4l.2 1.9c.3-.7.6-1.2 1-1.6.4-.4.9-.5 1.5-.5.3.1.6.1.9.2zm-54.5 31.4h-6c.1 1 .3 1.8.8 2.3.5.5 1 .7 1.8.7.5 0 .9-.1 1.3-.2s.8-.3 1.2-.6l.7 1c-1 .8-2.1 1.2-3.3 1.2-1.3 0-2.3-.4-3.1-1.3-.7-.9-1.1-2.1-1.1-3.6 0-1 .2-1.9.5-2.6s.8-1.4 1.4-1.8c.6-.4 1.3-.6 2.1-.6 1.3 0 2.2.4 2.9 1.2.7.8 1 2 1 3.4-.1.4-.2.6-.2.9zm-1.6-1.3c0-.9-.2-1.6-.6-2.1-.4-.5-.9-.7-1.7-.7-1.4 0-2.1 1-2.2 3h4.4v-.2zm6.1 4.2c.1.1.2.2.5.2.2 0 .4 0 .6-.1l.4 1.2c-.4.2-.9.3-1.4.3-.6 0-1.1-.2-1.4-.5-.3-.4-.5-.9-.5-1.6v-11.4l1.7-.2v11.6c0 .2 0 .4.1.5zm13.3-8.1c.5.2.9.4 1.4.8l-.8 1.1c-.3-.3-.6-.4-1-.6s-.7-.2-1.1-.2c-.8 0-1.4.3-1.8.9-.4.6-.6 1.5-.6 2.7 0 1.2.2 2.1.6 2.7.4.6 1 .9 1.8.9.4 0 .7-.1 1-.2.3-.1.6-.3 1-.6l.8 1.1c-.9.7-1.8 1-2.9 1-1.3 0-2.3-.4-3-1.3-.7-.9-1.1-2.1-1.1-3.6 0-1 .2-1.9.5-2.6s.8-1.3 1.4-1.8 1.4-.6 2.2-.6c.7 0 1.2.1 1.6.3zm10.2 8.1c.1.2.3.3.6.4l-.4 1.2c-.5-.1-.9-.2-1.2-.4-.3-.2-.5-.6-.7-1-.6.9-1.6 1.4-2.8 1.4-.9 0-1.7-.3-2.2-.8-.5-.5-.8-1.2-.8-2.1 0-1 .4-1.8 1.1-2.3s1.8-.8 3.1-.8h1.5v-.7c0-.7-.2-1.2-.5-1.4s-.8-.4-1.5-.4-1.5.2-2.6.5l-.4-1.2c1.2-.4 2.3-.6 3.3-.6 1.1 0 1.9.3 2.5.8.6.5.8 1.3.8 2.3v4.3c0 .3.1.6.2.8zm-1.8-1.2v-2.2H343c-1.8 0-2.6.6-2.6 1.9 0 .6.1 1 .4 1.3s.7.4 1.2.4c1 .1 1.7-.4 2.3-1.4zm9.3-6.9c.5.2 1 .5 1.5.8l-.7 1.1c-.4-.3-.8-.5-1.2-.7s-.8-.2-1.2-.2c-.5 0-1 .1-1.3.3s-.5.5-.5.9.1.7.4.9c.3.2.8.4 1.6.6 1.1.3 1.8.6 2.4 1.1.5.5.8 1.1.8 1.9 0 .9-.4 1.7-1.1 2.1s-1.6.7-2.7.7c-1.4 0-2.6-.4-3.6-1.2l.9-1c.7.6 1.6 1 2.6 1 .6 0 1.1-.1 1.5-.4.4-.3.6-.6.6-1 0-.3-.1-.6-.2-.8-.1-.2-.4-.4-.7-.5-.3-.2-.8-.3-1.4-.5-1-.3-1.7-.6-2.2-1.1-.5-.4-.7-1-.7-1.7 0-.5.1-.9.4-1.3.3-.4.7-.7 1.2-.9.5-.2 1.1-.3 1.8-.3s1.3 0 1.8.2zm10.8 1c.7.9 1.1 2.1 1.1 3.6 0 1-.2 1.9-.5 2.6s-.8 1.3-1.5 1.7c-.6.4-1.4.6-2.3.6-1.3 0-2.4-.4-3.1-1.3-.7-.9-1.1-2.1-1.1-3.6 0-1 .2-1.9.5-2.6s.8-1.3 1.5-1.7c.6-.4 1.4-.6 2.3-.6 1.3 0 2.4.5 3.1 1.3zm-5.6 3.7c0 2.4.8 3.6 2.4 3.6s2.4-1.2 2.4-3.6c0-2.4-.8-3.6-2.4-3.6-1.5-.1-2.4 1.2-2.4 3.6zm10.6 2.8c.2.2.4.5.4.9 0 .3-.1.6-.4.9-.2.2-.5.4-.9.4-.3 0-.6-.1-.9-.4-.2-.2-.4-.5-.4-.9 0-.3.1-.6.4-.9.2-.2.5-.4.9-.4s.7.1.9.4z"/><path fill="#EE4E4E" d="M347 475.3h-6.1v-6h-1.1v6h-6.1v1.2h6.1v6.1h1.1v-6.1h6.1z"/><path fill="#FFF" d="M573.6 305.6c-2 0-4-.1-6-.2l.1-1c2 .1 4 .2 6 .2l-.1 1zm8-.2l-.1-1c2-.1 4-.3 6-.5l.1 1c-2 .3-4 .4-6 .5zm-22.1-.9c-2-.3-4-.6-5.9-1l.2-1c1.9.4 3.9.7 5.9 1l-.2 1zm36-.7l-.2-1c2-.3 3.9-.7 5.9-1.2l.2 1a56 56 0 01-5.9 1.2zm-49.7-2c-1.9-.5-3.9-1.1-5.8-1.7l.3-1c1.9.6 3.8 1.2 5.7 1.7l-.2 1zm63.4-1.2l-.3-1c1.9-.6 3.8-1.2 5.7-1.9l.3.9c-1.9.7-3.8 1.4-5.7 2zm-76.8-3.3c-1.9-.7-3.7-1.6-5.5-2.4l.4-.9c1.8.8 3.7 1.6 5.5 2.4l-.4.9zm89.9-1.7l-.4-.9c1.8-.8 3.6-1.7 5.4-2.6l.5.9c-1.8.9-3.6 1.8-5.5 2.6zm-102.6-4.3c-1.8-1-3.5-2-5.2-3.1l.5-.8c1.7 1 3.4 2.1 5.2 3l-.5.9zm115.1-2.2l-.5-.9c1.7-1 3.4-2.1 5-3.2l.6.8c-1.7 1.2-3.4 2.3-5.1 3.3zm-126.9-5.3c-1.6-1.2-3.2-2.4-4.8-3.7l.6-.8c1.6 1.3 3.1 2.5 4.7 3.6l-.5.9zm138.4-2.7l-.6-.8c1.6-1.2 3.1-2.5 4.6-3.8l.7.8c-1.5 1.3-3.1 2.6-4.7 3.8zM497 274.9c-1.5-1.4-2.9-2.8-4.3-4.2l.7-.7c1.4 1.4 2.8 2.8 4.3 4.2l-.7.7zm159.8-3.1l-.7-.7c1.4-1.4 2.8-2.9 4.1-4.3l.7.7c-1.3 1.4-2.6 2.9-4.1 4.3zm-169.5-7.1c-1.3-1.5-2.6-3.1-3.8-4.7l.8-.6c1.2 1.6 2.5 3.2 3.7 4.7l-.7.6zm178.9-3.4l-.8-.6 3.6-4.8.8.6-3.6 4.8zm-187.3-7.9c-1.1-1.7-2.2-3.4-3.2-5.1l.9-.5c1 1.7 2.1 3.4 3.1 5.1l-.8.5zm195.2-3.7l-.9-.5c1-1.7 2-3.5 2.9-5.2l.9.5c-.8 1.7-1.8 3.5-2.9 5.2zm-202.2-8.5c-.9-1.8-1.7-3.6-2.5-5.5l.9-.4c.8 1.8 1.6 3.6 2.5 5.4l-.9.5zm208.7-4l-.9-.4c.8-1.8 1.6-3.7 2.3-5.5l.9.4c-.7 1.8-1.5 3.7-2.3 5.5zm-214.1-8.9c-.7-1.9-1.3-3.8-1.8-5.7l1-.3 1.8 5.7-1 .3zm219-4.2l-1-.3c.6-1.9 1.1-3.8 1.6-5.8l1 .2c-.4 2-1 3.9-1.6 5.9zm-222.8-9.3c-.4-2-.8-3.9-1.1-5.9l1-.2c.3 2 .7 3.9 1.1 5.9l-1 .2zm226.1-4.4l-1-.2c.3-1.9.6-3.9.9-5.9l1 .1-.9 6zm-228.2-9.5c-.2-2-.3-4-.4-6h1c.1 2 .2 4 .4 6h-1zm229.8-4.5l-1-.1c.1-2 .2-4 .2-6h1c-.1 2.1-.1 4.1-.2 6.1zm-.9-6.9c0-2-.1-4-.2-6l1-.1c.1 2 .2 4 .2 6l-1 .1zm-228.3-2.6h-1l.3-6 1 .1c-.1 1.9-.2 3.9-.3 5.9zm227.4-11.3c-.3-2-.6-4-.9-5.9l1-.2c.4 2 .7 4 .9 6l-1 .1zM462.5 173l-1-.2c.3-2 .7-4 1.1-5.9l1 .2c-.5 2-.8 4-1.1 5.9zM686 162c-.5-1.9-1-3.9-1.6-5.7l1-.3c.6 1.9 1.2 3.8 1.7 5.8l-1.1.2zm-220.6-2.6l-1-.3c.5-1.9 1.1-3.9 1.8-5.8l.9.3c-.6 2-1.1 3.9-1.7 5.8zm216.3-10.7c-.7-1.8-1.5-3.7-2.3-5.5l.9-.4c.8 1.8 1.6 3.7 2.3 5.5l-.9.4zM470 146.2l-.9-.4c.8-1.8 1.6-3.7 2.5-5.5l.9.4c-.9 1.9-1.7 3.7-2.5 5.5zm205.8-10.1c-.9-1.7-1.9-3.5-3-5.2l.9-.5c1 1.7 2.1 3.5 3 5.2l-.9.5zm-199.6-2.4l-.9-.5c1-1.7 2-3.5 3.1-5.2l.8.5c-1 1.8-2 3.5-3 5.2zm192.2-9.4c-1.1-1.6-2.3-3.2-3.6-4.8l.8-.6c1.2 1.6 2.5 3.2 3.6 4.8l-.8.6zm-184.6-2.2l-.8-.6c1.2-1.6 2.5-3.2 3.7-4.7l.8.6c-1.2 1.5-2.5 3.1-3.7 4.7zm175.9-8.6c-1.3-1.5-2.7-2.9-4.1-4.3l.7-.7c1.4 1.4 2.8 2.9 4.2 4.3l-.8.7zm-166.9-2l-.7-.7c1.4-1.4 2.8-2.9 4.3-4.2l.7.7c-1.5 1.3-2.9 2.7-4.3 4.2zm156.9-7.7c-1.5-1.3-3.1-2.6-4.6-3.8l.6-.8c1.6 1.2 3.2 2.5 4.7 3.8l-.7.8zM503.1 102l-.6-.8c1.5-1.3 3.1-2.5 4.8-3.7l.6.8c-1.7 1.2-3.3 2.5-4.8 3.7zm135.5-6.7c-1.6-1.1-3.3-2.2-5.1-3.2l.5-.9c1.7 1 3.4 2.1 5.1 3.2l-.5.9zm-124.2-1.4l-.5-.8c1.7-1.1 3.4-2.1 5.2-3.1l.5.9c-1.9.9-3.6 1.9-5.2 3zm112.2-5.6c-1.8-.9-3.6-1.7-5.4-2.5l.4-.9c1.8.8 3.7 1.7 5.5 2.6l-.5.8zm-100.1-1.1l-.4-.9c1.8-.9 3.7-1.7 5.5-2.4l.4.9c-1.8.7-3.7 1.5-5.5 2.4zm87.2-4.4c-1.9-.7-3.8-1.3-5.7-1.9l.3-1c1.9.6 3.8 1.2 5.7 1.9l-.3 1zm-74.2-.8l-.3-.9c1.9-.6 3.8-1.2 5.8-1.7l.3 1c-2 .4-4 1-5.8 1.6zm60.9-3c-1.9-.4-3.9-.8-5.9-1.1l.2-1c2 .3 4 .7 5.9 1.2l-.2.9zm-47.5-.6l-.2-1c2-.4 4-.7 5.9-1l.1 1c-1.8.3-3.8.6-5.8 1zm33.7-1.6c-2-.2-4-.3-6-.4v-1c2 .1 4 .2 6 .4v1zm-19.9-.2l-.1-1 6-.3v1c-1.9 0-3.9.1-5.9.3z"/><circle fill="#FFF" cx="577.7" cy="77.4" r="14.4"/><path fill="#FFF" d="M484.4 224.1c.8.6 1.3 1.6 1.3 2.9 0 1.4-.4 2.4-1.3 3-.9.7-2 1-3.5 1h-1.6v4.6h-1.7v-12.4h3.3c1.5 0 2.7.3 3.5.9zm-1.3 5c.5-.4.8-1.1.8-2.1 0-.9-.3-1.5-.8-1.9-.5-.4-1.3-.6-2.2-.6h-1.5v5.2h1.5c.9 0 1.6-.2 2.2-.6zm9.9-3.1l-.3 1.6c-.3-.1-.6-.1-.8-.1-.6 0-1.1.2-1.4.6s-.6 1.1-.8 2v5.4H488V226h1.4l.2 1.9c.3-.7.6-1.2 1-1.6.4-.4.9-.5 1.5-.5.3.1.6.1.9.2zm8.4 1.2c.7.9 1.1 2.1 1.1 3.6 0 1-.2 1.9-.5 2.6s-.8 1.3-1.5 1.7c-.6.4-1.4.6-2.3.6-1.3 0-2.4-.4-3.1-1.3-.7-.9-1.1-2.1-1.1-3.6 0-1 .2-1.9.5-2.6s.8-1.3 1.5-1.7c.6-.4 1.4-.6 2.3-.6 1.3 0 2.3.4 3.1 1.3zm-5.6 3.6c0 2.4.8 3.6 2.4 3.6s2.4-1.2 2.4-3.6c0-2.4-.8-3.6-2.4-3.6-1.6 0-2.4 1.2-2.4 3.6zm16.4-3.6c.6.9.8 2.1.8 3.7 0 1.5-.3 2.7-1 3.6s-1.6 1.4-2.8 1.4c-1.1 0-1.9-.4-2.5-1.1v4.5l-1.7.2v-13.3h1.4l.1 1.3c.3-.5.8-.8 1.3-1.1.5-.3 1-.4 1.5-.4 1.5-.1 2.4.3 2.9 1.2zm-.9 3.6c0-2.4-.7-3.6-2.1-3.6-.5 0-.9.1-1.3.4-.4.3-.7.6-1 1.1v4.6c.2.4.5.7.9.9.4.2.8.3 1.2.3 1.5-.1 2.3-1.3 2.3-3.7zm11.3-3.6c.7.9 1.1 2.1 1.1 3.6 0 1-.2 1.9-.5 2.6s-.8 1.3-1.5 1.7c-.6.4-1.4.6-2.3.6-1.3 0-2.4-.4-3.1-1.3-.7-.9-1.1-2.1-1.1-3.6 0-1 .2-1.9.5-2.6s.8-1.3 1.5-1.7c.6-.4 1.4-.6 2.3-.6 1.3 0 2.3.4 3.1 1.3zm-5.6 3.6c0 2.4.8 3.6 2.4 3.6s2.4-1.2 2.4-3.6c0-2.4-.8-3.6-2.4-3.6-1.6 0-2.4 1.2-2.4 3.6zm15.9-4.2c.5.5.7 1.2.7 2.1v6.8H532V229c0-.7-.1-1.1-.4-1.4-.3-.3-.6-.4-1.1-.4-.5 0-.9.1-1.3.4-.4.3-.7.7-1.1 1.2v6.7h-1.7V226h1.4l.1 1.4c.3-.5.8-.9 1.3-1.2s1-.4 1.6-.4c1 .1 1.6.3 2.1.8zm11.2 4.8h-6c.1 1 .3 1.8.8 2.3.5.5 1 .7 1.8.7.5 0 .9-.1 1.3-.2s.8-.3 1.2-.6l.7 1c-1 .8-2.1 1.2-3.3 1.2-1.3 0-2.3-.4-3.1-1.3-.7-.9-1.1-2.1-1.1-3.6 0-1 .2-1.9.5-2.6.3-.8.8-1.4 1.4-1.8.6-.4 1.3-.6 2.1-.6 1.3 0 2.2.4 2.9 1.2.7.8 1 2 1 3.4-.2.3-.2.6-.2.9zm-1.6-1.3c0-.9-.2-1.6-.6-2.1-.4-.5-.9-.7-1.7-.7-1.4 0-2.1 1-2.2 3h4.4v-.2zm9.4-4.1l-.3 1.6c-.3-.1-.6-.1-.8-.1-.6 0-1.1.2-1.4.6s-.6 1.1-.8 2v5.4h-1.7V226h1.4l.2 1.9c.3-.7.6-1.2 1-1.6.4-.4.9-.5 1.5-.5.3.1.6.1.9.2zm13.8 5.4h-6c.1 1 .3 1.8.8 2.3.5.5 1 .7 1.8.7.5 0 .9-.1 1.3-.2s.8-.3 1.2-.6l.7 1c-1 .8-2.1 1.2-3.3 1.2-1.3 0-2.3-.4-3.1-1.3-.7-.9-1.1-2.1-1.1-3.6 0-1 .2-1.9.5-2.6.3-.8.8-1.4 1.4-1.8.6-.4 1.3-.6 2.1-.6 1.3 0 2.2.4 2.9 1.2.7.8 1 2 1 3.4-.1.3-.2.6-.2.9zm-1.6-1.3c0-.9-.2-1.6-.6-2.1-.4-.5-.9-.7-1.7-.7-1.4 0-2.1 1-2.2 3h4.4v-.2zm10.8-8.3c.2.2.3.5.3.8 0 .3-.1.6-.3.8-.2.2-.5.3-.8.3-.3 0-.6-.1-.8-.3-.2-.2-.3-.5-.3-.8 0-.3.1-.6.3-.8.2-.2.5-.3.8-.3.3 0 .6.1.8.3zm-1.6 13.8v-9.5h1.7v9.5h-1.7zm16.4-9c.5.5.7 1.2.7 2.1v6.8h-1.7V229c0-1.2-.4-1.8-1.3-1.8-.5 0-.9.1-1.2.4-.3.3-.7.7-1 1.3v6.7h-1.7V229c0-1.2-.4-1.8-1.3-1.8-.5 0-.9.1-1.2.4-.3.3-.7.7-1 1.3v6.7h-1.7v-9.5h1.4l.1 1.4c.7-1.1 1.6-1.6 2.7-1.6.6 0 1.1.2 1.5.5s.7.7.9 1.3c.4-.6.8-1 1.2-1.3.4-.3 1-.4 1.6-.4.9-.1 1.6.1 2 .6zm11.1.6c.6.9.8 2.1.8 3.7 0 1.5-.3 2.7-1 3.6-.6.9-1.6 1.4-2.8 1.4-1.1 0-1.9-.4-2.5-1.1v4.5l-1.7.2v-13.3h1.4l.1 1.3c.3-.5.8-.8 1.3-1.1.5-.3 1-.4 1.5-.4 1.4-.1 2.3.3 2.9 1.2zm-1 3.6c0-2.4-.7-3.6-2.1-3.6-.5 0-.9.1-1.3.4-.4.3-.7.6-1 1.1v4.6c.2.4.5.7.9.9.4.2.8.3 1.2.3 1.6-.1 2.3-1.3 2.3-3.7zm6.4 3.4c.1.1.2.2.5.2.2 0 .4 0 .6-.1l.4 1.2c-.4.2-.9.3-1.4.3-.6 0-1.1-.2-1.4-.5-.3-.4-.5-.9-.5-1.6v-11.4l1.7-.2v11.6c-.1.2 0 .4.1.5zm10.5-2.8h-6c.1 1 .3 1.8.8 2.3.5.5 1 .7 1.8.7.5 0 .9-.1 1.3-.2s.8-.3 1.2-.6l.7 1c-1 .8-2.1 1.2-3.3 1.2-1.3 0-2.3-.4-3.1-1.3-.7-.9-1.1-2.1-1.1-3.6 0-1 .2-1.9.5-2.6.3-.8.8-1.4 1.4-1.8.6-.4 1.3-.6 2.1-.6 1.3 0 2.2.4 2.9 1.2s1 2 1 3.4c-.2.3-.2.6-.2.9zm-1.6-1.3c0-.9-.2-1.6-.6-2.1-.4-.5-.9-.7-1.7-.7-1.4 0-2.1 1-2.2 3h4.4v-.2zm15.7-3.5c.5.5.7 1.2.7 2.1v6.8h-1.7V229c0-1.2-.4-1.8-1.3-1.8-.5 0-.9.1-1.2.4-.3.3-.7.7-1 1.3v6.7h-1.7V229c0-1.2-.4-1.8-1.3-1.8-.5 0-.9.1-1.2.4-.3.3-.7.7-1 1.3v6.7h-1.7v-9.5h1.4l.1 1.4c.7-1.1 1.6-1.6 2.7-1.6.6 0 1.1.2 1.5.5s.7.7.9 1.3c.4-.6.8-1 1.2-1.3.4-.3 1-.4 1.6-.4 1-.1 1.6.1 2 .6zm11.2 4.8h-6c.1 1 .3 1.8.8 2.3.5.5 1 .7 1.8.7.5 0 .9-.1 1.3-.2s.8-.3 1.2-.6l.7 1c-1 .8-2.1 1.2-3.3 1.2-1.3 0-2.3-.4-3.1-1.3-.7-.9-1.1-2.1-1.1-3.6 0-1 .2-1.9.5-2.6.3-.8.8-1.4 1.4-1.8.6-.4 1.3-.6 2.1-.6 1.3 0 2.2.4 2.9 1.2.7.8 1 2 1 3.4-.2.3-.2.6-.2.9zm-1.6-1.3c0-.9-.2-1.6-.6-2.1s-.9-.7-1.7-.7c-1.4 0-2.1 1-2.2 3h4.4v-.2zm10.9-3.5c.5.5.7 1.2.7 2.1v6.8h-1.7V229c0-.7-.1-1.1-.4-1.4-.3-.3-.6-.4-1.1-.4-.5 0-.9.1-1.3.4-.4.3-.7.7-1.1 1.2v6.7h-1.7V226h1.4l.1 1.4c.3-.5.8-.9 1.3-1.2s1-.4 1.6-.4c1 .1 1.7.3 2.2.8zm6.7 9.2c-.8 0-1.4-.2-1.9-.7s-.7-1.1-.7-2v-5.7h-1.7v-1.3h1.7V224l1.7-.2v2.3h2.3l-.2 1.3h-2.1v5.7c0 .5.1.8.3 1.1s.5.3.9.3.8-.1 1.3-.4l.6 1.1c-.7.4-1.4.6-2.2.6zm10.4-1.6c.1.2.3.3.6.4l-.4 1.2c-.5-.1-.9-.2-1.2-.4-.3-.2-.5-.6-.7-1-.6.9-1.6 1.4-2.8 1.4-.9 0-1.7-.3-2.2-.8-.5-.5-.8-1.2-.8-2.1 0-1 .4-1.8 1.1-2.3.7-.5 1.8-.8 3.1-.8h1.5v-.7c0-.7-.2-1.2-.5-1.4s-.8-.4-1.5-.4-1.5.2-2.6.5l-.4-1.2c1.2-.4 2.3-.6 3.3-.6 1.1 0 2 .3 2.5.8s.8 1.3.8 2.3v4.3c0 .3.1.6.2.8zm-1.8-1.1v-2.2h-1.2c-1.8 0-2.6.6-2.6 1.9 0 .6.1 1 .4 1.3.3.3.7.4 1.2.4.9 0 1.6-.5 2.2-1.4zm10.1-7.1l-.3 1.6c-.3-.1-.6-.1-.8-.1-.6 0-1.1.2-1.4.6-.4.4-.6 1.1-.8 2v5.4h-1.7V226h1.4l.2 1.9c.3-.7.6-1.2 1-1.6.4-.4.9-.5 1.5-.5.3.1.6.1.9.2zm-143.8 34.2c.1.1.2.2.5.2.2 0 .4 0 .6-.1l.4 1.2c-.4.2-.9.3-1.4.3-.6 0-1.1-.2-1.4-.5-.3-.4-.5-.9-.5-1.6v-11.4l1.7-.2v11.6c0 .2.1.4.1.5zm10.2 0c.1.2.3.3.6.4l-.4 1.2c-.5-.1-.9-.2-1.2-.4-.3-.2-.5-.6-.7-1-.6.9-1.6 1.4-2.8 1.4-.9 0-1.7-.3-2.2-.8s-.8-1.2-.8-2.1c0-1 .4-1.8 1.1-2.3.7-.5 1.8-.8 3.1-.8h1.5v-.7c0-.7-.2-1.2-.5-1.4s-.8-.4-1.5-.4-1.5.2-2.6.5l-.4-1.2c1.2-.4 2.3-.6 3.3-.6 1.1 0 1.9.3 2.5.8.6.5.8 1.3.8 2.3v4.3c0 .3.1.6.2.8zm-1.9-1.1v-2.2H540c-1.8 0-2.6.6-2.6 1.9 0 .6.1 1 .4 1.3s.7.4 1.2.4c1 0 1.7-.5 2.2-1.4zm14.2-7c.5.2 1 .5 1.5.8l-.7 1.1c-.4-.3-.8-.5-1.2-.7-.4-.1-.8-.2-1.2-.2-.5 0-1 .1-1.3.3-.3.2-.5.5-.5.9s.1.7.4.9c.3.2.8.4 1.6.6 1.1.3 1.8.6 2.4 1.1s.8 1.1.8 1.9c0 .9-.4 1.7-1.1 2.1-.7.5-1.6.7-2.7.7-1.4 0-2.6-.4-3.6-1.2l.9-1c.7.6 1.6 1 2.6 1 .6 0 1.1-.1 1.5-.4.4-.3.6-.6.6-1 0-.3-.1-.6-.2-.8-.1-.2-.4-.4-.7-.5-.3-.1-.8-.3-1.4-.5-1-.3-1.7-.6-2.2-1.1-.5-.5-.7-1-.7-1.7 0-.5.1-.9.4-1.3.3-.4.7-.7 1.2-.9s1.1-.3 1.8-.3 1.3.1 1.8.2zm10.8 1.1c.7.9 1.1 2.1 1.1 3.6 0 1-.2 1.9-.5 2.6s-.8 1.3-1.5 1.7c-.6.4-1.4.6-2.3.6-1.3 0-2.4-.4-3.1-1.3-.7-.9-1.1-2.1-1.1-3.6 0-1 .2-1.9.5-2.6s.8-1.3 1.5-1.7c.6-.4 1.4-.6 2.3-.6 1.3 0 2.3.4 3.1 1.3zm-5.6 3.6c0 2.4.8 3.6 2.4 3.6s2.4-1.2 2.4-3.6c0-2.4-.8-3.6-2.4-3.6-1.6 0-2.4 1.2-2.4 3.6zm11.1 3.4c.1.1.2.2.5.2.2 0 .4 0 .6-.1l.4 1.2c-.4.2-.9.3-1.4.3-.6 0-1.1-.2-1.4-.5-.3-.4-.5-.9-.5-1.6v-11.4l1.7-.2v11.6c0 .2 0 .4.1.5zm9.2 1.4l-.1-1.5c-.4.6-.8 1-1.2 1.3-.5.3-1 .4-1.7.4-.8 0-1.5-.3-1.9-.8-.5-.5-.7-1.2-.7-2.1v-6.8h1.7v6.6c0 .6.1 1.1.3 1.4.2.3.6.4 1.1.4.9 0 1.7-.5 2.4-1.6v-6.8h1.7v9.5h-1.6zm9.8-9.5c.5.2.9.4 1.4.8l-.8 1.1c-.3-.3-.6-.4-1-.6s-.7-.2-1.1-.2c-.8 0-1.4.3-1.8.9-.4.6-.6 1.5-.6 2.7s.2 2.1.6 2.7c.4.6 1 .9 1.8.9.4 0 .7-.1 1-.2s.6-.3 1-.6l.8 1.1c-.9.7-1.8 1-2.9 1-1.3 0-2.3-.4-3-1.3-.7-.9-1.1-2.1-1.1-3.6 0-1 .2-1.9.5-2.6.3-.8.8-1.3 1.4-1.8s1.4-.6 2.2-.6c.7.1 1.2.1 1.6.3zm5.3-4.3c.2.2.3.5.3.8s-.1.6-.3.8c-.2.2-.5.3-.8.3-.3 0-.6-.1-.8-.3-.2-.2-.3-.5-.3-.8s.1-.6.3-.8c.2-.2.5-.3.8-.3.3 0 .6.1.8.3zm-1.7 13.8v-9.5h1.7v9.5h-1.7zm11.8-8.4c.7.9 1.1 2.1 1.1 3.6 0 1-.2 1.9-.5 2.6s-.8 1.3-1.5 1.7c-.6.4-1.4.6-2.3.6-1.3 0-2.4-.4-3.1-1.3-.7-.9-1.1-2.1-1.1-3.6 0-1 .2-1.9.5-2.6s.8-1.3 1.5-1.7 1.4-.6 2.3-.6c1.3 0 2.4.4 3.1 1.3zm-5.6 3.6c0 2.4.8 3.6 2.4 3.6s2.4-1.2 2.4-3.6c0-2.4-.8-3.6-2.4-3.6-1.6 0-2.4 1.2-2.4 3.6zm.6-6.7l-.5-.9 3.6-2.1.7 1.4-3.8 1.6zm15.3 2.5c.5.5.7 1.2.7 2.1v6.8h-1.7V255c0-.7-.1-1.1-.4-1.4s-.6-.4-1.1-.4c-.5 0-.9.1-1.3.4-.4.3-.7.7-1.1 1.2v6.7h-1.7V252h1.4l.1 1.4c.3-.5.8-.9 1.3-1.2s1-.4 1.6-.4c1.1.1 1.7.3 2.2.8zm5.4 7c.2.2.4.5.4.9 0 .3-.1.6-.4.9-.2.2-.5.4-.9.4-.3 0-.6-.1-.9-.4s-.4-.5-.4-.9c0-.3.1-.6.4-.9.2-.2.5-.4.9-.4.4.1.7.2.9.4z"/><path fill="#EE4E4E" d="M584.3 76.8h-6v-6.1h-1.2v6.1H571V78h6.1v6h1.2v-6h6z"/><path fill="#FFF" d="M885.7 230.3c-2 0-4-.1-6-.2l.1-1c2 .1 4 .2 6 .2l-.1 1zm8-.1l-.1-1c2-.1 4-.3 6-.5l.1 1c-2 .2-4 .4-6 .5zm-22-.9c-2-.3-4-.6-5.9-1l.2-1c1.9.4 3.9.7 5.9 1l-.2 1zm35.9-.7l-.2-1c1.9-.3 3.9-.7 5.8-1.2l.2 1c-1.8.4-3.8.8-5.8 1.2zm-49.7-2.1c-1.9-.5-3.9-1.1-5.8-1.7l.3-1c1.9.6 3.8 1.2 5.7 1.7l-.2 1zm63.4-1.2l-.3-1c1.9-.6 3.8-1.2 5.7-1.9l.3.9c-1.9.8-3.8 1.4-5.7 2zm-76.8-3.2c-1.9-.7-3.7-1.6-5.5-2.4l.4-.9c1.8.8 3.6 1.6 5.5 2.4l-.4.9zm89.9-1.7l-.4-.9c1.8-.8 3.6-1.7 5.4-2.6l.5.9c-1.8.9-3.6 1.7-5.5 2.6zm-102.6-4.3c-1.8-1-3.5-2-5.2-3.1l.5-.8c1.7 1 3.4 2.1 5.2 3l-.5.9zm115.1-2.3l-.5-.9c1.7-1 3.4-2.1 5-3.2l.6.8c-1.7 1.2-3.4 2.3-5.1 3.3zM820 208.5c-1.6-1.2-3.2-2.4-4.8-3.7l.6-.8c1.5 1.2 3.1 2.5 4.7 3.6l-.5.9zm138.4-2.6l-.6-.8c1.6-1.2 3.1-2.5 4.6-3.8l.7.8c-1.5 1.3-3.1 2.5-4.7 3.8zm-149.3-6.3c-1.5-1.4-2.9-2.8-4.3-4.2l.7-.7c1.4 1.4 2.8 2.8 4.3 4.2l-.7.7zm159.8-3l-.7-.7c1.4-1.4 2.8-2.9 4.1-4.3l.7.7c-1.3 1.4-2.6 2.8-4.1 4.3zm-169.5-7.2c-1.3-1.5-2.6-3.1-3.8-4.7l.8-.6c1.2 1.6 2.4 3.1 3.7 4.7l-.7.6zm178.9-3.4l-.8-.6 3.6-4.8.8.6-3.6 4.8zM791 178.2c-1.1-1.7-2.2-3.4-3.2-5.1l.9-.5c1 1.7 2 3.4 3.1 5.1l-.8.5zm195.2-3.7l-.9-.5c1-1.7 2-3.5 2.9-5.2l.9.5c-.8 1.7-1.8 3.4-2.9 5.2zM784.1 166c-.9-1.8-1.7-3.6-2.5-5.5l.9-.4c.8 1.8 1.6 3.6 2.5 5.4l-.9.5zm208.6-4l-.9-.4c.8-1.8 1.6-3.7 2.3-5.5l.9.4c-.7 1.8-1.5 3.7-2.3 5.5zm-214.1-9c-.7-1.9-1.3-3.8-1.8-5.7l1-.3 1.8 5.7-1 .3zm219-4.2l-1-.3c.6-1.9 1.1-3.8 1.6-5.8l1 .2c-.4 2-1 4-1.6 5.9zm-222.8-9.3c-.4-2-.8-3.9-1.1-5.9l1-.2c.3 2 .7 3.9 1.1 5.9l-1 .2zm226.1-4.4l-1-.2c.3-1.9.6-3.9.9-5.9l1 .1c-.3 2.1-.5 4.1-.9 6zm-228.2-9.5c-.2-2-.3-4-.4-6h1c.1 2 .2 4 .4 6h-1zm229.8-4.4l-1-.1c.1-2 .2-4 .2-6h1c-.1 2.1-.1 4.1-.2 6.1zm-.9-6.9c0-2-.1-4-.2-6l1-.1c.1 2 .2 4 .2 6l-1 .1zm-228.3-2.7h-1l.3-6 1 .1c-.1 1.9-.2 3.9-.3 5.9zm227.4-11.2c-.3-2-.6-4-.9-5.9l1-.2c.4 2 .7 4 .9 6l-1 .1zm-226.1-2.6l-1-.2c.3-2 .7-4 1.1-5.9l1 .2c-.5 1.9-.8 3.9-1.1 5.9zm223.5-11.1c-.5-1.9-1-3.9-1.6-5.7l1-.3c.6 1.9 1.2 3.8 1.7 5.8l-1.1.2zm-220.6-2.6l-1-.3c.5-1.9 1.1-3.9 1.8-5.8l.9.3c-.5 2-1.1 3.9-1.7 5.8zm216.3-10.7c-.7-1.8-1.5-3.7-2.3-5.5l.9-.4c.8 1.8 1.6 3.7 2.3 5.5l-.9.4zM782.1 71l-.9-.4c.8-1.8 1.6-3.7 2.5-5.5l.9.4c-.9 1.8-1.7 3.7-2.5 5.5zm205.8-10.2c-.9-1.7-1.9-3.5-3-5.2l.9-.5c1 1.7 2.1 3.5 3 5.2l-.9.5zm-199.6-2.3l-.9-.5c1-1.7 2-3.5 3.1-5.2l.8.5c-1 1.7-2 3.5-3 5.2zM980.5 49c-1.1-1.6-2.3-3.2-3.6-4.8l.8-.6c1.2 1.6 2.5 3.2 3.6 4.8l-.8.6zm-184.6-2.2l-.8-.6c1.2-1.6 2.5-3.2 3.7-4.7l.8.6c-1.2 1.6-2.5 3.2-3.7 4.7zm175.9-8.6c-1.3-1.5-2.7-2.9-4.1-4.3l.7-.7c1.4 1.4 2.8 2.9 4.2 4.3l-.8.7zm-166.9-2l-.7-.7c1.4-1.4 2.8-2.9 4.3-4.2l.7.7c-1.5 1.4-2.9 2.8-4.3 4.2zm156.9-7.7c-1.5-1.3-3.1-2.6-4.6-3.8l.6-.8c1.6 1.2 3.2 2.5 4.7 3.8l-.7.8zm-146.6-1.7l-.6-.8c1.5-1.3 3.1-2.5 4.8-3.7l.6.8c-1.7 1.2-3.3 2.4-4.8 3.7zm135.5-6.7c-1.6-1.1-3.3-2.2-5.1-3.2l.5-.9c1.7 1 3.4 2.1 5.1 3.2l-.5.9zm-124.2-1.5l-.5-.8c1.7-1.1 3.4-2.1 5.2-3.1l.5.9c-1.8.9-3.6 1.9-5.2 3zm112.2-5.5c-1.8-.9-3.6-1.7-5.4-2.5l.4-.9c1.8.8 3.7 1.7 5.5 2.6l-.5.8zm-100.1-1.2l-.4-.9c1.8-.9 3.6-1.7 5.5-2.4l.4.9c-1.8.7-3.7 1.5-5.5 2.4zm87.2-4.3c-1.9-.7-3.8-1.3-5.7-1.9l.3-1c1.9.6 3.8 1.2 5.7 1.9l-.3 1zm-74.2-.9l-.3-.9c1.9-.6 3.8-1.2 5.8-1.7l.3 1c-2 .4-4 1-5.8 1.6zm60.9-3c-1.9-.4-3.9-.8-5.9-1.1l.2-1c2 .3 4 .7 5.9 1.2l-.2.9zM865 3.2l-.2-1c2-.4 4-.7 5.9-1l.1 1c-1.8.2-3.8.6-5.8 1zm33.7-1.7c-2-.2-4-.3-6-.4v-1c2 .1 4 .2 6 .4v1zm-19.9-.2l-.1-1 6-.3v1c-1.9 0-3.9.1-5.9.3z"/><circle fill="#FFF" cx="771.3" cy="116" r="14.4"/><path fill="#FFF" d="M809.1 152v5.3h-1.7v-12.4h3.3c1.5 0 2.7.3 3.5.9.8.6 1.2 1.5 1.2 2.6 0 .9-.2 1.6-.7 2.1-.4.5-1.1.9-2 1.2l3.3 5.6h-2l-3-5.3h-1.9zm3.7-1.8c.5-.4.7-1 .7-1.8s-.2-1.3-.7-1.7c-.5-.3-1.2-.5-2.2-.5h-1.5v4.5h1.7c.9 0 1.6-.2 2-.5zm12 2.9h-6c.1 1 .3 1.8.8 2.3.5.5 1 .7 1.8.7.5 0 .9-.1 1.3-.2s.8-.3 1.2-.6l.7 1c-1 .8-2.1 1.2-3.3 1.2-1.3 0-2.3-.4-3.1-1.3-.7-.9-1.1-2.1-1.1-3.6 0-1 .2-1.9.5-2.6.3-.8.8-1.4 1.4-1.8.6-.4 1.3-.6 2.1-.6 1.3 0 2.2.4 2.9 1.2s1 2 1 3.4c-.1.4-.1.6-.2.9zm-1.6-1.3c0-.9-.2-1.6-.6-2.1-.4-.5-.9-.7-1.7-.7-1.4 0-2.1 1-2.2 3h4.4v-.2zm11 4.1c.1.2.3.3.6.4l-.4 1.2c-.5-.1-.9-.2-1.2-.4-.3-.2-.5-.6-.7-1-.6.9-1.6 1.4-2.8 1.4-.9 0-1.7-.3-2.2-.8-.5-.5-.8-1.2-.8-2.1 0-1 .4-1.8 1.1-2.3.7-.5 1.8-.8 3.1-.8h1.5v-.7c0-.7-.2-1.2-.5-1.4s-.8-.4-1.5-.4-1.5.2-2.6.5l-.4-1.2c1.2-.4 2.3-.6 3.3-.6 1.1 0 2 .3 2.5.8s.8 1.3.8 2.3v4.3c0 .4.1.7.2.8zm-1.9-1.1v-2.2h-1.2c-1.8 0-2.6.6-2.6 1.9 0 .6.1 1 .4 1.3.3.3.7.4 1.2.4 1 .1 1.7-.4 2.2-1.4zm6.8 1.2c.1.1.2.2.5.2.2 0 .4 0 .6-.1l.4 1.2c-.4.2-.9.3-1.4.3-.6 0-1.1-.2-1.4-.5-.3-.4-.5-.9-.5-1.6V144l1.7-.2v11.6c0 .3 0 .5.1.6zm5.2-12.4c.2.2.3.5.3.8 0 .3-.1.6-.3.8s-.5.3-.8.3c-.3 0-.6-.1-.8-.3s-.3-.5-.3-.8c0-.3.1-.6.3-.8.2-.2.5-.3.8-.3.3 0 .6.1.8.3zm-1.6 13.7v-9.5h1.7v9.5h-1.7zm5.7-1.4h5l-.2 1.4h-6.7v-1.2l4.9-6.8h-4.5v-1.4h6.4v1.3l-4.9 6.7zm13.8 0c.1.2.3.3.6.4l-.4 1.2c-.5-.1-.9-.2-1.2-.4-.3-.2-.5-.6-.7-1-.6.9-1.6 1.4-2.8 1.4-.9 0-1.7-.3-2.2-.8-.5-.5-.8-1.2-.8-2.1 0-1 .4-1.8 1.1-2.3.7-.5 1.8-.8 3.1-.8h1.5v-.7c0-.7-.2-1.2-.5-1.4s-.8-.4-1.5-.4-1.5.2-2.6.5l-.4-1.2c1.2-.4 2.3-.6 3.3-.6 1.1 0 2 .3 2.5.8s.8 1.3.8 2.3v4.3c0 .4.1.7.2.8zm-1.8-1.1v-2.2h-1.2c-1.8 0-2.6.6-2.6 1.9 0 .6.1 1 .4 1.3.3.3.7.4 1.2.4.9.1 1.6-.4 2.2-1.4zm10.1-7.1l-.3 1.6c-.3-.1-.6-.1-.8-.1-.6 0-1.1.2-1.4.6-.4.4-.6 1.1-.8 2v5.4h-1.7v-9.5h1.4l.2 1.9c.3-.7.6-1.2 1-1.6.4-.4.9-.5 1.5-.5.3.1.6.1.9.2zm13.7 1.2c.6.9.8 2.1.8 3.7 0 1.5-.3 2.7-1 3.6-.6.9-1.6 1.4-2.8 1.4-1.1 0-1.9-.4-2.5-1.1v4.5l-1.7.2v-13.3h1.4l.1 1.3c.3-.5.8-.8 1.3-1.1.5-.3 1-.4 1.5-.4 1.4-.1 2.3.3 2.9 1.2zm-1 3.7c0-2.4-.7-3.6-2.1-3.6-.5 0-.9.1-1.3.4-.4.3-.7.6-1 1.1v4.6c.2.4.5.7.9.9.4.2.8.3 1.2.3 1.5-.1 2.3-1.3 2.3-3.7zm9.7-4.9l-.3 1.6c-.3-.1-.6-.1-.8-.1-.6 0-1.1.2-1.4.6-.4.4-.6 1.1-.8 2v5.4h-1.7v-9.5h1.4l.2 1.9c.3-.7.6-1.2 1-1.6.4-.4.9-.5 1.5-.5.3.1.6.1.9.2zm7.5 9.6l-.1-1.5c-.4.6-.8 1-1.2 1.3-.5.3-1 .4-1.7.4-.8 0-1.5-.3-1.9-.8s-.7-1.2-.7-2.1v-6.8h1.7v6.6c0 .6.1 1.1.3 1.4s.6.4 1.1.4c.9 0 1.7-.5 2.4-1.6v-6.8h1.7v9.5h-1.6zm12-4.2h-6c.1 1 .3 1.8.8 2.3.5.5 1 .7 1.8.7.5 0 .9-.1 1.3-.2s.8-.3 1.2-.6l.7 1c-1 .8-2.1 1.2-3.3 1.2-1.3 0-2.3-.4-3.1-1.3-.7-.9-1.1-2.1-1.1-3.6 0-1 .2-1.9.5-2.6.3-.8.8-1.4 1.4-1.8.6-.4 1.3-.6 2.1-.6 1.3 0 2.2.4 2.9 1.2.7.8 1 2 1 3.4-.2.4-.2.6-.2.9zm-1.6-1.3c0-.9-.2-1.6-.6-2.1s-.9-.7-1.7-.7c-1.4 0-2.1 1-2.2 3h4.4v-.2zm11.3-2.9c.6.9 1 2.1 1 3.6 0 1-.2 1.9-.5 2.6-.3.8-.7 1.3-1.3 1.7-.6.4-1.2.6-2 .6-1 0-1.8-.4-2.5-1.3l-.2 1h-1.5V144l1.7-.2v5.2c.7-.9 1.6-1.4 2.7-1.4s1.9.4 2.6 1.3zm-1.5 6.4c.4-.6.6-1.5.6-2.8 0-1.3-.2-2.2-.6-2.8-.4-.6-.9-.9-1.6-.9-.8 0-1.6.5-2.2 1.5v4.5c.3.4.6.7.9.9.4.2.8.3 1.2.3.7.2 1.3-.1 1.7-.7zm11.8.6c.1.2.3.3.6.4l-.4 1.2c-.5-.1-.9-.2-1.2-.4-.3-.2-.5-.6-.7-1-.6.9-1.6 1.4-2.8 1.4-.9 0-1.7-.3-2.2-.8-.5-.5-.8-1.2-.8-2.1 0-1 .4-1.8 1.1-2.3.7-.5 1.8-.8 3.1-.8h1.5v-.7c0-.7-.2-1.2-.5-1.4s-.8-.4-1.5-.4-1.5.2-2.6.5l-.4-1.2c1.2-.4 2.3-.6 3.3-.6 1.1 0 1.9.3 2.5.8.6.5.8 1.3.8 2.3v4.3c0 .4.1.7.2.8zm-1.8-1.1v-2.2h-1.2c-1.8 0-2.6.6-2.6 1.9 0 .6.1 1 .4 1.3.3.3.7.4 1.2.4.9.1 1.6-.4 2.2-1.4zm9.3-6.9c.5.2 1 .5 1.5.8l-.7 1.1c-.4-.3-.8-.5-1.2-.7-.4-.1-.8-.2-1.2-.2-.5 0-1 .1-1.3.3-.3.2-.5.5-.5.9s.1.7.4.9c.3.2.8.4 1.6.6 1.1.3 1.8.6 2.4 1.1.5.5.8 1.1.8 1.9 0 .9-.4 1.7-1.1 2.1-.7.5-1.6.7-2.7.7-1.4 0-2.6-.4-3.6-1.2l.9-1c.7.6 1.6 1 2.6 1 .6 0 1.1-.1 1.5-.4.4-.3.6-.6.6-1 0-.3-.1-.6-.2-.8s-.4-.4-.7-.5c-.3-.1-.8-.3-1.4-.5-1-.3-1.7-.6-2.2-1.1-.5-.4-.7-1-.7-1.7 0-.5.1-.9.4-1.3.3-.4.7-.7 1.2-.9.5-.2 1.1-.3 1.8-.3.8-.1 1.3 0 1.8.2zm17.6 9c.5.2 1.1.5 1.6.8l-1.1 1.4c-.7-.6-1.4-1.1-2.1-1.3-.6-.2-1.5-.4-2.6-.4-1 0-1.9-.2-2.7-.7-.8-.5-1.4-1.2-1.8-2.2-.4-1-.7-2.1-.7-3.5 0-1.3.2-2.5.7-3.5.4-1 1.1-1.7 1.8-2.2.8-.5 1.7-.8 2.7-.8 1 0 2 .2 2.7.7.8.5 1.4 1.2 1.8 2.2.4 1 .7 2.1.7 3.5 0 1.5-.2 2.6-.7 3.5s-1.2 1.5-2.1 2c.7.2 1.3.3 1.8.5zm-6.7-2c.6.8 1.4 1.2 2.5 1.2 2.3 0 3.4-1.7 3.4-5s-1.1-5-3.4-5c-1.1 0-1.9.4-2.5 1.2-.6.8-.9 2.1-.9 3.8 0 1.7.3 3 .9 3.8zm10.9-.7l-.9 3.1h-1.7l4-12.4h2.2l4 12.4h-1.8l-.9-3.1h-4.9zm2.4-7.9l-1.9 6.5h3.9l-2-6.5zm-142.4 23.3c.2.2.3.5.3.8 0 .3-.1.6-.3.8-.2.2-.5.3-.8.3-.3 0-.6-.1-.8-.3-.2-.2-.3-.5-.3-.8 0-.3.1-.6.3-.8.2-.2.5-.3.8-.3.3 0 .6.1.8.3zm-1.7 13.7v-9.5h1.7v9.5H820zm11.6-8.9c.5.5.7 1.2.7 2.1v6.8h-1.7v-6.6c0-.7-.1-1.1-.4-1.4-.3-.3-.6-.4-1.1-.4-.5 0-.9.1-1.3.4-.4.3-.7.7-1.1 1.2v6.7H825v-9.5h1.4l.1 1.4c.3-.5.8-.9 1.3-1.2s1-.4 1.6-.4c1 .1 1.7.4 2.2.9zm6.7 9.1c-.8 0-1.4-.2-1.9-.7-.5-.5-.7-1.1-.7-2v-5.7H834v-1.3h1.7v-2.1l1.7-.2v2.3h2.3l-.2 1.3h-2.1v5.7c0 .5.1.8.3 1.1s.5.3.9.3.8-.1 1.3-.4l.6 1.1c-.7.4-1.4.6-2.2.6zm10.8-4.4h-6c.1 1 .3 1.8.8 2.3.5.5 1 .7 1.8.7.5 0 .9-.1 1.3-.2s.8-.3 1.2-.6l.7 1c-1 .8-2.1 1.2-3.3 1.2-1.3 0-2.3-.4-3.1-1.3-.7-.9-1.1-2.1-1.1-3.6 0-1 .2-1.9.5-2.6.3-.8.8-1.4 1.4-1.8.6-.4 1.3-.6 2.1-.6 1.3 0 2.2.4 2.9 1.2s1 2 1 3.4c-.2.4-.2.6-.2.9zm-1.6-1.3c0-.9-.2-1.6-.6-2.1-.4-.5-.9-.7-1.7-.7-1.4 0-2.1 1-2.2 3h4.4v-.2zm9.4-4.1l-.3 1.6c-.3-.1-.6-.1-.8-.1-.6 0-1.1.2-1.4.6-.4.4-.6 1.1-.8 2v5.4h-1.7v-9.5h1.4l.2 1.9c.3-.7.6-1.2 1-1.6.4-.4.9-.5 1.5-.5.3.1.6.1.9.2zm8.4.7c.5.5.7 1.2.7 2.1v6.8h-1.7v-6.6c0-.7-.1-1.1-.4-1.4-.3-.3-.6-.4-1.1-.4-.5 0-.9.1-1.3.4s-.7.7-1.1 1.2v6.7h-1.7v-9.5h1.4l.1 1.4c.3-.5.8-.9 1.3-1.2s1-.4 1.6-.4c1.1.1 1.7.4 2.2.9zm10.7.5c.7.9 1.1 2.1 1.1 3.6 0 1-.2 1.9-.5 2.6s-.8 1.3-1.5 1.7c-.6.4-1.4.6-2.3.6-1.3 0-2.4-.4-3.1-1.3-.7-.9-1.1-2.1-1.1-3.6 0-1 .2-1.9.5-2.6s.8-1.3 1.5-1.7 1.4-.6 2.3-.6c1.4 0 2.4.4 3.1 1.3zm-5.5 3.7c0 2.4.8 3.6 2.4 3.6s2.4-1.2 2.4-3.6c0-2.4-.8-3.6-2.4-3.6-1.6-.1-2.4 1.1-2.4 3.6zm16.4 7.4c-.7.6-1.6 1-2.9 1.2l-.2-1.3c.6-.1 1.1-.3 1.5-.5s.7-.5.9-.8c.2-.3.4-.7.6-1.3h-.6l-3.2-9.5h1.8l2.5 8.3 2.5-8.3h1.7l-3.2 9.5c-.2 1.2-.7 2-1.4 2.7zm16.4-12.2c.5.2.9.4 1.3.8l-.8 1.1c-.3-.3-.6-.4-1-.6-.3-.1-.7-.2-1.1-.2-.8 0-1.4.3-1.8.9-.4.6-.6 1.5-.6 2.7 0 1.2.2 2.1.6 2.7s1 .9 1.8.9c.4 0 .7-.1 1-.2.3-.1.6-.3 1-.6l.8 1.1c-.9.7-1.8 1-2.9 1-1.3 0-2.3-.4-3-1.3-.7-.9-1.1-2.1-1.1-3.6 0-1 .2-1.9.5-2.6.3-.8.8-1.3 1.4-1.8s1.4-.6 2.2-.6c.7.1 1.2.2 1.7.3zm5.3 8.2c.1.1.2.2.5.2.2 0 .4 0 .6-.1l.4 1.2c-.4.2-.9.3-1.4.3-.6 0-1.1-.2-1.4-.5-.3-.4-.5-.9-.5-1.6V170l1.7-.2v11.6c0 .3 0 .5.1.6zm5.2-12.4c.2.2.3.5.3.8 0 .3-.1.6-.3.8-.2.2-.5.3-.8.3-.3 0-.6-.1-.8-.3-.2-.2-.3-.5-.3-.8 0-.3.1-.6.3-.8.2-.2.5-.3.8-.3.3 0 .6.1.8.3zm-1.6 13.7v-9.5h1.7v9.5h-1.7zm12.2-4.2h-6c.1 1 .3 1.8.8 2.3.5.5 1 .7 1.8.7.5 0 .9-.1 1.3-.2s.8-.3 1.2-.6l.7 1c-1 .8-2.1 1.2-3.3 1.2-1.3 0-2.3-.4-3.1-1.3-.7-.9-1.1-2.1-1.1-3.6 0-1 .2-1.9.5-2.6.3-.8.8-1.4 1.4-1.8.6-.4 1.3-.6 2.1-.6 1.3 0 2.2.4 2.9 1.2.7.8 1 2 1 3.4-.2.4-.2.6-.2.9zm-1.6-1.3c0-.9-.2-1.6-.6-2.1s-.9-.7-1.7-.7c-1.4 0-2.1 1-2.2 3h4.4v-.2zm10.8-3.4c.5.5.7 1.2.7 2.1v6.8h-1.7v-6.6c0-.7-.1-1.1-.4-1.4-.3-.3-.6-.4-1.1-.4-.5 0-.9.1-1.3.4-.4.3-.7.7-1.1 1.2v6.7H927v-9.5h1.4l.1 1.4c.3-.5.8-.9 1.3-1.2s1-.4 1.6-.4c1.1.1 1.7.4 2.2.9zm6.7 9.1c-.8 0-1.4-.2-1.9-.7s-.7-1.1-.7-2v-5.7H936v-1.3h1.7v-2.1l1.7-.2v2.3h2.3l-.2 1.3h-2.1v5.7c0 .5.1.8.3 1.1s.5.3.9.3.8-.1 1.3-.4l.6 1.1c-.7.4-1.4.6-2.2.6zm10.8-4.4h-6c.1 1 .3 1.8.8 2.3.5.5 1 .7 1.8.7.5 0 .9-.1 1.3-.2s.8-.3 1.2-.6l.7 1c-1 .8-2.1 1.2-3.3 1.2-1.3 0-2.3-.4-3.1-1.3-.7-.9-1.1-2.1-1.1-3.6 0-1 .2-1.9.5-2.6.3-.8.8-1.4 1.4-1.8.6-.4 1.3-.6 2.1-.6 1.3 0 2.2.4 2.9 1.2.7.8 1 2 1 3.4-.1.4-.1.6-.2.9zm-1.6-1.3c0-.9-.2-1.6-.6-2.1s-.9-.7-1.7-.7c-1.4 0-2.1 1-2.2 3h4.4v-.2zm5.7 3.6c.2.2.4.5.4.9s-.1.6-.4.9c-.2.2-.5.4-.9.4-.3 0-.6-.1-.9-.4-.2-.2-.4-.5-.4-.9s.1-.6.4-.9c.2-.2.5-.4.9-.4s.7.1.9.4z"/><path fill="#EE4E4E" d="M777.9 115.4h-6v-6.1h-1.2v6.1h-6.1v1.2h6.1v6h1.2v-6h6z"/><path fill="#FFF" d="M1064 483.4c-2 0-4-.1-6-.2l.1-1c2 .1 4 .2 6 .2l-.1 1zm8-.2l-.1-1c2-.1 4-.3 6-.5l.1 1c-2 .2-4 .4-6 .5zm-22-.9c-2-.3-4-.6-5.9-1l.2-1c1.9.4 3.9.7 5.9 1l-.2 1zm36-.7l-.2-1c2-.3 3.9-.7 5.9-1.2l.2 1c-2 .5-4 .9-5.9 1.2zm-49.8-2.1c-1.9-.5-3.9-1.1-5.8-1.7l.3-1c1.9.6 3.8 1.2 5.7 1.7l-.2 1zm63.4-1.2l-.3-1c1.9-.6 3.8-1.2 5.7-1.9l.3.9c-1.9.8-3.8 1.4-5.7 2zm-76.8-3.2c-1.9-.7-3.7-1.6-5.5-2.4l.4-.9c1.8.8 3.6 1.6 5.5 2.4l-.4.9zm90-1.7l-.4-.9c1.8-.8 3.6-1.7 5.4-2.6l.5.9c-1.9.9-3.7 1.8-5.5 2.6zm-102.7-4.3c-1.8-1-3.5-2-5.2-3.1l.5-.8c1.7 1 3.4 2.1 5.2 3l-.5.9zm115.1-2.2l-.5-.9c1.7-1 3.4-2.1 5-3.2l.6.8c-1.7 1.2-3.4 2.3-5.1 3.3zm-126.9-5.4c-1.6-1.2-3.2-2.4-4.8-3.7l.6-.8c1.5 1.2 3.1 2.5 4.7 3.6l-.5.9zm138.4-2.6l-.6-.8c1.6-1.2 3.1-2.5 4.6-3.8l.7.8c-1.5 1.3-3.1 2.6-4.7 3.8zm-149.3-6.3c-1.5-1.4-2.9-2.8-4.3-4.2l.7-.7c1.4 1.4 2.8 2.8 4.3 4.2l-.7.7zm159.9-3l-.7-.7c1.4-1.4 2.8-2.9 4.1-4.3l.7.7c-1.3 1.4-2.7 2.9-4.1 4.3zm-169.6-7.1c-1.3-1.5-2.6-3.1-3.8-4.7l.8-.6c1.2 1.6 2.4 3.1 3.7 4.7l-.7.6zm178.9-3.4l-.8-.6 3.6-4.8.8.6-3.6 4.8zm-187.3-7.9c-1.1-1.7-2.2-3.4-3.2-5.1l.9-.5c1 1.7 2 3.4 3.1 5.1l-.8.5zm195.2-3.7l-.9-.5c1-1.7 2-3.5 2.9-5.2l.9.5c-.8 1.7-1.8 3.5-2.9 5.2zM962.4 419c-.9-1.8-1.7-3.6-2.5-5.5l.9-.4c.8 1.8 1.6 3.6 2.5 5.4l-.9.5zm208.6-4l-.9-.4c.8-1.8 1.6-3.7 2.3-5.5l.9.4c-.7 1.8-1.5 3.7-2.3 5.5zm-214.1-8.9c-.7-1.9-1.3-3.8-1.8-5.7l1-.3 1.8 5.7-1 .3zm219.1-4.3l-1-.3c.6-1.9 1.1-3.8 1.6-5.8l1 .2c-.5 2.1-1.1 4-1.6 5.9zm-222.8-9.3c-.4-2-.8-3.9-1.1-5.9l1-.2c.3 2 .7 3.9 1.1 5.9l-1 .2zm226-4.3l-1-.2c.3-2 .6-3.9.9-5.9l1 .1c-.2 2-.5 4-.9 6zM951 378.7c-.2-2-.3-4-.4-6h1c.1 2 .2 4 .4 6h-1zm229.8-4.5l-1-.1c.1-2 .2-4 .2-6h1c-.1 2.1-.1 4.1-.2 6.1zm-.9-6.9c0-2-.1-4-.2-6l1-.1c.1 2 .2 4 .2 6l-1 .1zm-228.3-2.7h-1l.3-6 1 .1c-.1 2-.2 4-.3 5.9zm227.4-11.2c-.3-2-.6-4-.9-5.9l1-.2c.4 2 .7 4 .9 6l-1 .1zm-226.1-2.6l-1-.2c.3-2 .7-4 1.1-5.9l1 .2c-.5 2-.8 3.9-1.1 5.9zm223.5-11.1c-.5-1.9-1-3.9-1.6-5.7l1-.3c.6 1.9 1.2 3.8 1.7 5.8l-1.1.2zm-220.6-2.5l-1-.3c.5-1.9 1.1-3.9 1.8-5.8l.9.3c-.5 1.9-1.1 3.9-1.7 5.8zm216.3-10.7c-.7-1.8-1.5-3.7-2.3-5.5l.9-.4c.8 1.8 1.6 3.7 2.3 5.5l-.9.4zM960.4 324l-.9-.4c.8-1.8 1.6-3.7 2.5-5.5l.9.4c-.9 1.9-1.7 3.7-2.5 5.5zm205.8-10.1c-.9-1.7-1.9-3.5-3-5.2l.9-.5c1 1.7 2.1 3.5 3 5.2l-.9.5zm-199.6-2.4l-.9-.5c1-1.7 2.1-3.5 3.1-5.2l.8.5c-1 1.8-2 3.5-3 5.2zm192.3-9.4c-1.1-1.6-2.3-3.2-3.6-4.8l.8-.6c1.2 1.6 2.5 3.2 3.6 4.8l-.8.6zm-184.6-2.2l-.8-.6c1.2-1.6 2.5-3.2 3.7-4.7l.8.6c-1.3 1.5-2.6 3.1-3.7 4.7zm175.8-8.7c-1.3-1.5-2.7-2.9-4.1-4.3l.7-.7c1.4 1.4 2.8 2.9 4.2 4.3l-.8.7zm-166.8-2l-.7-.7c1.4-1.4 2.8-2.9 4.3-4.2l.7.7c-1.5 1.4-3 2.8-4.3 4.2zm156.8-7.7c-1.5-1.3-3.1-2.6-4.6-3.8l.6-.8c1.6 1.2 3.2 2.5 4.7 3.8l-.7.8zm-146.6-1.7l-.6-.8c1.6-1.3 3.2-2.5 4.8-3.7l.6.8c-1.7 1.2-3.3 2.4-4.8 3.7zm135.5-6.7c-1.6-1.1-3.3-2.2-5.1-3.2l.5-.9c1.7 1 3.4 2.1 5.1 3.2l-.5.9zm-124.2-1.5l-.5-.8c1.7-1.1 3.4-2.1 5.2-3.1l.5.9c-1.8.9-3.5 2-5.2 3zm112.2-5.5c-1.8-.9-3.6-1.7-5.4-2.5l.4-.9c1.8.8 3.7 1.7 5.5 2.6l-.5.8zm-100-1.2l-.4-.9c1.8-.9 3.7-1.7 5.5-2.4l.4.9c-1.9.8-3.8 1.6-5.5 2.4zm87.1-4.3c-1.9-.7-3.8-1.3-5.7-1.9l.3-1c1.9.6 3.8 1.2 5.7 1.9l-.3 1zm-74.2-.8l-.3-.9c1.9-.6 3.8-1.2 5.8-1.7l.3 1c-2 .3-3.9.9-5.8 1.6zm60.9-3.1c-1.9-.4-3.9-.8-5.9-1.1l.2-1c2 .3 4 .7 5.9 1.2l-.2.9zm-47.5-.5l-.2-1c2-.4 3.9-.7 5.9-1l.1 1c-1.8.3-3.8.6-5.8 1zm33.7-1.7c-2-.2-4-.3-6-.4v-1c2 .1 4 .2 6 .4v1zm-19.9-.2l-.1-1 6-.3v1c-1.9.1-3.9.2-5.9.3z"/><circle fill="#FFF" cx="1066.1" cy="482.1" r="14.4"/><path fill="#EE4E4E" d="M1072.8 481.5h-6.1v-6h-1.2v6h-6.1v1.2h6.1v6.1h1.2v-6.1h6.1z"/><path fill="#FFF" d="M228.1 167.6c36.6-8.4 76.5 13 82.2 60.4 2.2-2.9 4.1-5.5 6-8.1 1.9-2.6 3.9-5.1 6.1-7.9.8.6 1.6 1.1 2.4 1.7-5 9.1-9.9 17.9-14.8 26.8-7.5-6.7-15-13.4-22.7-20.2.5-.8 1-1.6 1.7-2.6 5.6 3.7 11 7.3 16.7 11.1-1-9.7-3.5-18.5-8-26.7-11.4-21-29.4-31.2-53-32.1-4.4-.2-8.8.6-13.2 1-1 .1-2 0-3 0 0-1.2-.2-2.3-.4-3.4zm232.8 211.2c35 13.7 77.6-1.7 90.2-47.7 1.7 3.2 3.2 6.1 4.8 8.9 1.5 2.8 3.1 5.6 4.9 8.7.9-.5 1.8-.9 2.7-1.3-3.6-9.7-7.1-19.2-10.7-28.7-8.4 5.5-16.8 11-25.4 16.7.4.8.8 1.7 1.3 2.8 6-2.8 11.9-5.6 18.1-8.5-2.4 9.4-6.2 17.8-11.8 25.3-14.4 19.1-33.7 26.6-57.1 24-4.4-.5-8.6-1.9-12.9-2.9-1-.2-2-.3-2.9-.4-.5 1-.9 2.1-1.2 3.1zm202.7-276.4c13.8-35 54-55.7 96.3-33.7-1.2-3.4-2.3-6.5-3.3-9.6-1-3.1-2-6.1-3.1-9.5 1-.4 1.8-.7 2.8-1 4.7 9.3 9.2 18.3 13.7 27.3-9.8 2.4-19.5 4.8-29.5 7.3-.3-.8-.7-1.7-1.2-2.8 6.2-2.5 12.2-4.9 18.6-7.5-8.5-4.6-17.3-7.6-26.6-8.5C707.7 61.9 689 71 675 89.9c-2.6 3.5-4.4 7.6-6.7 11.4-.5.9-1.1 1.6-1.7 2.4-1-.4-2-.9-3-1.3zm341.8 57.3c37.5-1.9 73 26.2 70.4 73.9 2.6-2.5 5-4.7 7.4-6.9 2.4-2.2 4.8-4.3 7.4-6.7l2.1 2.1c-6.5 8.1-12.9 15.9-19.2 23.8-6.2-7.9-12.5-15.8-18.8-23.9.6-.7 1.3-1.4 2.1-2.2 4.8 4.6 9.5 9.1 14.5 13.8.7-9.7-.2-18.8-3.2-27.7-7.5-22.6-23.5-35.9-46.5-40.9-4.3-.9-8.8-.9-13.2-1.3-1-.1-1.9-.3-2.9-.5-.1-1.3-.1-2.4-.1-3.5z"/><g fill="#FFF"><path d="M365.1 371.3h-51.8c-2.9 0-5.4-2.4-5.4-5.4v-72.7c0-3 2.4-5.4 5.4-5.4h51.8c2.9 0 5.4 2.4 5.4 5.4v72.7c-.1 3-2.5 5.4-5.4 5.4zM313.3 290c-1.7 0-3.2 1.4-3.2 3.2v72.7c0 1.8 1.4 3.2 3.2 3.2h51.8c1.7 0 3.2-1.4 3.2-3.2v-72.7c0-1.8-1.4-3.2-3.2-3.2h-51.8z"/><path d="M333.9 336.6c-9.2 0-16.6-7.5-16.6-16.6 0-9.2 7.5-16.6 16.6-16.6s16.6 7.5 16.6 16.6c0 9.1-7.5 16.6-16.6 16.6zm0-31c-7.9 0-14.4 6.5-14.4 14.4s6.5 14.4 14.4 14.4 14.4-6.5 14.4-14.4c0-8-6.5-14.4-14.4-14.4z"/><path d="M346.864 335.832l-3.465-3.464 1.556-1.556 3.465 3.465zM341.3 346.4h-21.9c-.4 0-.8-.7-.8-1.4s.4-1.4.8-1.4h21.9c.4 0 .8.7.8 1.4s-.3 1.4-.8 1.4zm18 7.6h-40.4c-.4 0-.8-.7-.8-1.5s.4-1.5.8-1.5h40.4c.4 0 .8.7.8 1.5s-.4 1.5-.8 1.5zm0 7.9h-40.4c-.4 0-.8-.7-.8-1.6 0-.9.4-1.6.8-1.6h40.4c.4 0 .8.7.8 1.6 0 .9-.4 1.6-.8 1.6z"/><path d="M357.2 348.9c-.4 0-.8-.2-1.1-.4L345.7 338c-.6-.6-.6-1.6 0-2.2l2.7-2.7c.6-.6 1.7-.6 2.2 0l10.4 10.4c.3.3.4.7.4 1.1s-.2.8-.4 1.1l-2.7 2.7c-.2.3-.6.5-1.1.5zm-10.3-12l10.3 10.3 2.6-2.6-10.3-10.3-2.6 2.6zm-5.9-23.8c-.3 0-.6-.1-.7-.4-2-3-6.3-2.7-6.3-2.7-.4.1-.8-.3-.9-.8-.1-.4.3-.8.8-.9.2 0 5.4-.3 7.9 3.5.3.4.2.9-.2 1.2-.2 0-.4.1-.6.1z"/></g><g fill="#FFF"><path d="M617.1 146.2c-.1-2.1-1-8.6-5.9-12.9-.1-.1-3.3-2.9-8.9-2.9-1.2-4-6.4-15.6-21.7-16-12.2 0-18.8 8.2-20.8 11.1-3.1-1.2-12-3.6-18.6 4.3-4.9 5.4-3.4 12.2-2.5 14.8-2 1.6-6.6 6.3-5.1 14.1v.1c1.6 6.2 7.5 9.5 16.9 9.5h2.1l-.1-2.7c-5.3.3-14.5-.4-16.3-7.4-1.5-8 4.5-11.8 4.8-11.9l1-.6-.4-1.1c0-.1-3.2-7.6 1.7-13 6.7-8.1 16-3.4 16.4-3.2l1.2.6.6-1.1c.3-.4 6.1-10.8 19.1-10.8 15.9.4 19.3 14.3 19.5 14.8l.3 1.1 1.1-.1c5-.3 7.9 2.1 8 2.3 4.8 4.2 5 11.5 5 11.6v.7l.5.4c2 1.5 4.9 5.5 2.5 11.5-2 5.3-7.7 6.1-8.4 6.2h-7.9v2.7h8.1c.3 0 7.9-.8 10.6-7.9 2.6-6.2.5-11.5-2.8-14.2z"/><path d="M546.1 138.9c0-.2.8-6.2 6.1-6.2V130c-6.2 0-8.3 5.6-8.8 8.6l2.7.3zM576 130c-9.4.5-16.3 4.9-19.5 12.5-3.3 7.7-2.1 17.8 2.7 23.5 5.2 6.1 6.6 14.5 6.9 17.1-.9.8-1.5 1.9-1.5 3.2 0 1.2.5 2.3 1.3 3-.7.8-1.1 1.7-1.1 2.8 0 2.1 1.6 3.8 3.6 4.1-.2.4-.3 1-.3 1.5 0 2.3 1.8 4.1 4.1 4.1h9.9c2.3 0 4.1-1.8 4.1-4.1 0-.5-.1-1-.3-1.5 2.2 0 4.1-1.9 4.1-4.1 0-1.2-.5-2.3-1.3-3 .7-.8 1.1-1.7 1.1-2.8 0-1.1-.4-2.1-1.1-2.8.1-4.1 1.4-9.4 2.9-12.1.4-.8 1.2-1.7 1.9-2.9 2.1-2.9 4.7-6.5 5.7-10.6.8-3.7.8-14-5.1-21-4.2-5-10.3-7.3-18.1-6.9zm1.4 36.8c-1.6 0-2.9-1.3-2.9-2.9 0-1.6 1.3-2.9 2.9-2.9s2.9 1.3 2.9 2.9c0 1.6-1.3 2.9-2.9 2.9zm8.3 18c.8 0 1.5.5 1.5 1.3s-.7 1.3-1.5 1.3h-17c-.8 0-1.5-.5-1.5-1.3s.7-1.3 1.5-1.3h17zm-3.6 14.3h-9.9c-.8 0-1.5-.5-1.5-1.3s.7-1.3 1.5-1.3h9.9c.8 0 1.5.5 1.5 1.3s-.7 1.3-1.5 1.3zm3.8-5.3h-17c-.8 0-1.5-.8-1.5-1.6s.7-1.6 1.5-1.6h17c.8 0 1.5.8 1.5 1.6s-.7 1.6-1.5 1.6zm10.6-36.6c-.8 3.6-3.3 6.9-5.2 9.7-.8 1.2-1.6 2.2-2 3.1-1.6 2.8-2.9 7.8-3.2 12.2h-7.5v-12.8c2.5-.5 4.5-2.8 4.5-5.4 0-3.1-2.5-5.6-5.6-5.6s-5.6 2.5-5.6 5.6c0 2.5 1.7 4.7 4 5.3v12.9h-7.2c-.4-3.3-2-11.6-7.4-17.9-3.7-4.3-5.5-13.2-2.3-20.7 2-4.6 6.6-10.3 17.2-10.9 7-.4 12.4 1.6 15.9 5.9 5.2 6.3 5.1 15.9 4.4 18.6z"/></g><g fill="#FFF"><path d="M916.9 45.4H903v-2.1c0-1.8-1.3-3.2-2.9-3.2h-27.2c-1.6 0-2.9 1.4-2.9 3.2v2.1h-12.8c-2.7 0-4.9 2.2-4.9 4.8v68.3c0 2.7 2.3 5 4.9 5H917c2.6 0 4.8-2.3 4.8-5V50.2c-.1-2.7-2.3-4.8-4.9-4.8zm-44.1-2.1V43H900v7.7h-3.7l-.3-.7c-.3-1.8-2.7-2.7-4-2.7h-10.9c-1.6 0-3.4 1.2-3.5 2.8l-.2.6h-4.6v-7.4zm46 75.2c0 1.2-.9 2.2-1.9 2.2h-59.8c-1.1 0-2.1-1.1-2.1-2.2V50.2c0-1 1-1.9 2.1-1.9h12.8v2.2c0 1.8 1.2 3.1 2.9 3.1h5.6c.6 0 1.2-.4 1.3-1l.6-1.7v-.3c.1-.1.5-.3.7-.3h11c.3 0 1 .2 1.2.4 0 .1 0 .2.1.3l.8 1.7c.2.5.8.8 1.3.8h4.6c1.7 0 2.9-1.3 2.9-3.1v-2.1h13.9c1.1 0 1.9.9 1.9 1.9l.1 68.3z"/><path d="M861.9 71.3h9.7c.5 0 .7-.3.7-.9v-8l2.8-3.9c.3-.4.2-1.1-.2-1.3s-1-.1-1.3.4l-2.2 3.2h-9.6c-.5 0-1.1.2-1.1.7v9c.1.5.7.8 1.2.8zm.9-5.8l2.2 3.8h-2.2v-3.8zm7.6 3.8h-2.7l2.7-4.2v4.2zm-4-1.2l-2.7-5.2c-.1-.2-.2-.3-.4-.3h7l-3.9 5.5zm-4.5 18h9.7c.5 0 .7-.4.7-1v-7.9l2.8-3.9c.3-.4.2-1.1-.2-1.3-.4-.3-1-.2-1.3.2l-2 2.9h-9.7c-.5 0-1.1.5-1.1 1.1v9c0 .5.6.9 1.1.9zm.9-5.7l2.1 3.8h-2.1v-3.8zm7.6 3.8h-2.6l2.6-4.2v4.2zm-.1-7.2l-4 5.8-2.8-5.2c-.1-.3-.3-.4-.8-.5V77h7.6zm2 14.4c0-.5-.4-1-1-1h-9.6c-.5 0-1 .4-1 1v9.1c0 .5.4 1 1 1h9.6c.5 0 1-.4 1-1v-9.1zm-9.5.9h7.7v7.2h-7.7v-7.2zm48.8 13.9h-49.8c-.5 0-1 .4-1 1s.4 1 1 1h49.8c.5 0 1-.4 1-1s-.4-1-1-1zm0 6.3h-49.8c-.5 0-1 .4-1 1s.4 1 1 1h49.8c.5 0 1-.4 1-1s-.4-1-1-1zm-32.4-45.6h22.6c.5 0 .9-.5.9-1s-.4-1-.9-1h-22.6c-.5 0-.9.5-.9 1 .1.6.5 1 .9 1zm0 15.4h22.6c.5 0 .9-.5.9-1s-.4-1-.9-1h-22.6c-.5 0-.9.5-.9 1 .1.5.5 1 .9 1zm0 14.8h22.6c.5 0 .9-.5.9-1s-.4-1-.9-1h-22.6c-.5 0-.9.5-.9 1 .1.5.5 1 .9 1z"/></g><g fill="#FFF"><path d="M1107.6 314.5c0-.3-.2-.5-.4-.8-.1-.1-.2-.2-.3-.2-.6-.7-1.5-1.1-2.5-1.1H1087c-.6-11-9.7-19.8-20.9-19.8s-20.3 8.8-20.9 19.8h-16.9c-2.1 0-4 1.8-4 3.9v47.8c0 2.3 2.1 3.8 4 3.8h76.2c.8 0 1.5-.2 2-.6.1-.1.2-.1.2-.2.7-.7 1.2-1.7 1.2-2.9v-47.8c0-.8-.1-1.4-.3-1.9zm-80.4 2.4l25.7 23.2-25.7 23.6v-46.8zm38.9 17.5c10.9 0 19.9-8.4 20.9-19.1h16.2l-26.6 23.6c-.1.1-.2.1-.3.2v.1l-10.1 9-9.9-9v-.1c-.1-.1-.2-.2-.3-.2l-26.1-23.6h15.4c.9 10.7 9.9 19.1 20.8 19.1zm-11 7.8l10.1 9.1c.3.3.6.4 1 .4s.7-.1 1-.4l10.3-9.1 24.8 22.7h-71.9l24.7-22.7zm24.6-2l25.3-22.4v45.6l-25.3-23.2zm-13.6-44.7c9.9 0 18 8.1 18 18s-8.1 18-18 18-18-8.1-18-18 8.1-18 18-18z"/><path d="M1060.4 327.9c.4 0 .8-.2 1.1-.4l18.2-17.9c.3-.3.4-.7.4-1.1 0-.4-.2-.8-.4-1.1l-4.3-4.3c-.6-.6-1.5-.6-2.1 0l-12.8 12.6-2.9-2.7c-.6-.6-1.5-.5-2.1.1l-4 4.2c-.6.6-.5 1.5 0 2.1l7.8 8c.3.3.7.5 1.1.5zm-3.7-11.6l2.8 2.6c.6.5 1.5.5 2.1 0l12.7-12.6 2.2 2.2-16 15.8-5.8-5.9 2-2.1z"/></g><path d="M1029.5 396.6c1.1.9 1.7 2.5 1.7 4.8s-.6 3.9-1.7 4.9c-1.1.9-2.5 1.4-4.1 1.4h-3v-12.4h2.6c1.9 0 3.4.4 4.5 1.3zm-5.4 9.7h1.4c1.2 0 2.1-.4 2.8-1.1s1.1-2 1.1-3.9c0-1.3-.2-2.3-.6-3s-.8-1.2-1.4-1.4c-.6-.2-1.3-.4-2-.4h-1.3v9.8zm16.9-2.8h-6c.1 1 .3 1.8.8 2.3s1 .7 1.8.7c.5 0 .9-.1 1.3-.2s.8-.3 1.2-.6l.7 1c-1 .8-2.1 1.2-3.3 1.2-1.3 0-2.3-.4-3.1-1.3s-1.1-2.1-1.1-3.6c0-1 .2-1.9.5-2.6.3-.8.8-1.4 1.4-1.8.6-.4 1.3-.6 2.1-.6 1.3 0 2.2.4 2.9 1.2.7.8 1 2 1 3.4-.1.3-.1.6-.2.9zm-1.6-1.3c0-.9-.2-1.7-.6-2.1-.4-.5-.9-.7-1.7-.7-1.4 0-2.1 1-2.2 3h4.4v-.2zm8.7-4c.5.2 1 .4 1.5.8l-.7 1.1c-.4-.3-.8-.5-1.2-.7-.4-.1-.8-.2-1.2-.2-.5 0-1 .1-1.3.3-.3.2-.5.5-.5.9s.1.7.4.9.8.4 1.6.6c1.1.3 1.8.6 2.4 1.1.5.5.8 1.1.8 1.9 0 .9-.4 1.7-1.1 2.1-.7.5-1.6.7-2.7.7-1.4 0-2.6-.4-3.6-1.2l.9-1c.7.6 1.6 1 2.6 1 .6 0 1.1-.1 1.5-.4s.6-.6.6-1c0-.3-.1-.6-.2-.8s-.4-.4-.7-.5c-.3-.1-.8-.3-1.4-.5-1-.3-1.7-.6-2.2-1.1s-.7-1-.7-1.7c0-.5.1-.9.4-1.3.3-.4.7-.7 1.2-.9.5-.2 1.1-.3 1.8-.3s1.3.1 1.8.2zm11.1 1.1c.6.9.8 2.1.8 3.7 0 1.5-.3 2.7-1 3.6-.6.9-1.6 1.4-2.8 1.4-1.1 0-1.9-.4-2.5-1.1v4.5l-1.7.2v-13.3h1.4l.1 1.3c.3-.5.8-.8 1.3-1.1.5-.3 1-.4 1.5-.4 1.5-.1 2.4.3 2.9 1.2zm-.9 3.6c0-2.4-.7-3.6-2.1-3.6-.5 0-.9.1-1.3.4-.4.3-.7.6-1 1.1v4.6c.2.4.5.7.9.9.4.2.8.3 1.2.3 1.5-.1 2.3-1.3 2.3-3.7zm6.3 3.4c.1.1.2.2.5.2.2 0 .4 0 .6-.1l.4 1.2c-.4.2-.9.3-1.4.3-.6 0-1.1-.2-1.4-.5-.3-.4-.5-.9-.5-1.6v-11.4l1.7-.2v11.6c0 .2 0 .4.1.5zm5.2-12.3c.2.2.3.5.3.8s-.1.6-.3.8c-.2.2-.5.3-.8.3-.3 0-.6-.1-.8-.3-.2-.2-.3-.5-.3-.8s.1-.6.3-.8c.2-.2.5-.3.8-.3.3-.1.6 0 .8.3zm-1.6 13.7v-9.5h1.7v9.5h-1.7zm12.2-4.2h-6c.1 1 .3 1.8.8 2.3s1 .7 1.8.7c.5 0 .9-.1 1.3-.2s.8-.3 1.2-.6l.7 1c-1 .8-2.1 1.2-3.3 1.2-1.3 0-2.3-.4-3.1-1.3s-1.1-2.1-1.1-3.6c0-1 .2-1.9.5-2.6.3-.8.8-1.4 1.4-1.8.6-.4 1.3-.6 2.1-.6 1.3 0 2.2.4 2.9 1.2.7.8 1 2 1 3.4-.2.3-.2.6-.2.9zm-1.6-1.3c0-.9-.2-1.7-.6-2.1-.4-.5-.9-.7-1.7-.7-1.4 0-2.1 1-2.2 3h4.4v-.2zm10.8-3.4c-.4 0-1 .1-1.6.1 1.1.5 1.7 1.3 1.7 2.4 0 .9-.3 1.7-1 2.3-.6.6-1.5.9-2.6.9-.4 0-.8-.1-1.2-.2-.1.1-.3.2-.3.4s-.1.3-.1.5c0 .5.4.8 1.2.8h1.5c.6 0 1.2.1 1.7.3.5.2.9.5 1.1.9.3.4.4.8.4 1.4 0 .9-.4 1.6-1.1 2.1s-1.9.7-3.3.7c-1 0-1.8-.1-2.4-.3-.6-.2-1-.5-1.3-.9s-.4-1-.4-1.6h1.5c0 .4.1.7.2.9.1.2.4.4.8.5.4.1.9.2 1.6.2 1 0 1.7-.1 2.1-.4.4-.2.6-.6.6-1.1 0-.4-.2-.8-.5-1-.3-.2-.8-.3-1.4-.3h-1.5c-.8 0-1.4-.2-1.8-.5-.4-.3-.6-.8-.6-1.3 0-.3.1-.6.3-.9s.4-.5.8-.8c-.6-.3-1-.6-1.2-1.1-.3-.4-.4-.9-.4-1.6 0-.6.2-1.2.5-1.7s.8-.9 1.3-1.2c.6-.3 1.2-.4 1.9-.4s1.4 0 1.9-.1.9-.2 1.3-.3.7-.3 1.2-.5l.5 1.5c-.5.2-.9.3-1.4.3zm-5.1.9c-.3.4-.5.9-.5 1.5s.2 1.2.5 1.6c.3.4.8.6 1.5.6.6 0 1.1-.2 1.5-.6.3-.4.5-.9.5-1.6 0-1.4-.7-2.1-2-2.1-.6.1-1.1.2-1.5.6zm13.7 8l-.1-1.5c-.4.6-.8 1-1.2 1.3-.5.3-1 .4-1.7.4-.8 0-1.5-.3-1.9-.8-.5-.5-.7-1.2-.7-2.1v-6.8h1.7v6.6c0 .6.1 1.1.3 1.4.2.3.6.4 1.1.4.9 0 1.7-.5 2.4-1.6v-6.8h1.7v9.5h-1.6zm11.9-4.2h-6c.1 1 .3 1.8.8 2.3s1 .7 1.8.7c.5 0 .9-.1 1.3-.2s.8-.3 1.2-.6l.7 1c-1 .8-2.1 1.2-3.3 1.2-1.3 0-2.3-.4-3.1-1.3s-1.1-2.1-1.1-3.6c0-1 .2-1.9.5-2.6.3-.8.8-1.4 1.4-1.8.6-.4 1.3-.6 2.1-.6 1.3 0 2.2.4 2.9 1.2.7.8 1 2 1 3.4-.1.3-.1.6-.2.9zm-1.6-1.3c0-.9-.2-1.7-.6-2.1-.4-.5-.9-.7-1.7-.7-1.4 0-2.1 1-2.2 3h4.4v-.2zm-92.6 27.3h-6c.1 1 .3 1.8.8 2.3s1 .7 1.8.7c.5 0 .9-.1 1.3-.2s.8-.3 1.2-.6l.7 1c-1 .8-2.1 1.2-3.3 1.2-1.3 0-2.3-.4-3.1-1.3s-1.1-2.1-1.1-3.6c0-1 .2-1.9.5-2.6.3-.8.8-1.4 1.4-1.8.6-.4 1.3-.6 2.1-.6 1.3 0 2.2.4 2.9 1.2.7.8 1 2 1 3.4-.1.3-.1.6-.2.9zm-1.6-1.3c0-.9-.2-1.7-.6-2.1-.4-.5-.9-.7-1.7-.7-1.4 0-2.1 1-2.2 3h4.4v-.2zm10.9-3.5c.5.5.7 1.2.7 2.1v6.8h-1.7V427c0-.7-.1-1.1-.4-1.4-.3-.3-.6-.4-1.1-.4-.5 0-.9.1-1.3.4-.4.3-.7.7-1.1 1.2v6.7h-1.7V424h1.4l.1 1.4c.3-.5.8-.9 1.3-1.2.5-.3 1-.4 1.6-.4 1 .2 1.7.4 2.2.9zm15.9.6c.6.9.8 2.1.8 3.7 0 1.5-.3 2.7-1 3.6-.6.9-1.6 1.4-2.8 1.4-1.1 0-1.9-.4-2.5-1.1v4.5l-1.7.2v-13.3h1.4l.1 1.3c.3-.5.8-.8 1.3-1.1.5-.3 1-.4 1.5-.4 1.4-.1 2.3.3 2.9 1.2zm-1 3.6c0-2.4-.7-3.6-2.1-3.6-.5 0-.9.1-1.3.4-.4.3-.7.6-1 1.1v4.6c.2.4.5.7.9.9.4.2.8.3 1.2.3 1.5-.1 2.3-1.3 2.3-3.7zm9.7-4.8l-.3 1.6c-.3-.1-.6-.1-.8-.1-.6 0-1.1.2-1.4.6-.4.4-.6 1.1-.8 2v5.4h-1.7v-9.5h1.4l.2 1.9c.3-.7.6-1.2 1-1.6.4-.4.9-.5 1.5-.5.3.1.6.1.9.2zm8.4 1.2c.7.9 1.1 2.1 1.1 3.6 0 1-.2 1.9-.5 2.6-.3.8-.8 1.3-1.5 1.7-.6.4-1.4.6-2.3.6-1.3 0-2.4-.4-3.1-1.3-.7-.9-1.1-2.1-1.1-3.6 0-1 .2-1.9.5-2.6s.8-1.3 1.5-1.7c.6-.4 1.4-.6 2.3-.6 1.3 0 2.3.4 3.1 1.3zm-5.6 3.6c0 2.4.8 3.6 2.4 3.6s2.4-1.2 2.4-3.6c0-2.4-.8-3.6-2.4-3.6-1.6 0-2.4 1.2-2.4 3.6zm16.7 4.8h-1.5l-.2-1.3c-.3.5-.7.9-1.2 1.1-.5.3-1 .4-1.6.4-1.1 0-2-.4-2.6-1.3-.6-.9-.9-2.1-.9-3.6 0-1 .1-1.8.5-2.6.3-.8.7-1.3 1.3-1.8.6-.4 1.2-.6 2-.6 1 0 1.8.4 2.6 1.2v-5l1.7.2v13.3zm-2.7-1.5c.4-.2.7-.6 1-1.1v-4.6c-.3-.4-.6-.7-1-.9-.4-.2-.8-.3-1.2-.3-.7 0-1.3.3-1.7.9-.4.6-.6 1.5-.6 2.7 0 1.2.2 2.1.6 2.7.4.6.9.9 1.6.9.6.1 1 0 1.3-.3zm11.8 1.5l-.1-1.5c-.4.6-.8 1-1.2 1.3-.5.3-1 .4-1.7.4-.8 0-1.5-.3-1.9-.8-.5-.5-.7-1.2-.7-2.1v-6.8h1.7v6.6c0 .6.1 1.1.3 1.4.2.3.6.4 1.1.4.9 0 1.7-.5 2.4-1.6v-6.8h1.7v9.5h-1.6zm9.8-9.5c.5.2.9.4 1.4.8l-.8 1.1c-.3-.3-.6-.4-1-.6-.3-.1-.7-.2-1.1-.2-.8 0-1.4.3-1.8.9-.4.6-.6 1.5-.6 2.7 0 1.2.2 2.1.6 2.7.4.6 1 .9 1.8.9.4 0 .7-.1 1-.2.3-.1.6-.3 1-.6l.8 1.1c-.9.7-1.8 1-2.9 1-1.3 0-2.3-.4-3-1.3s-1.1-2.1-1.1-3.6c0-1 .2-1.9.5-2.6.3-.8.8-1.3 1.4-1.8.6-.4 1.4-.6 2.2-.6.7.1 1.2.1 1.6.3zm8.5 0c.5.2.9.4 1.4.8l-.8 1.1c-.3-.3-.6-.4-1-.6-.3-.1-.7-.2-1.1-.2-.8 0-1.4.3-1.8.9-.4.6-.6 1.5-.6 2.7 0 1.2.2 2.1.6 2.7.4.6 1 .9 1.8.9.4 0 .7-.1 1-.2.3-.1.6-.3 1-.6l.8 1.1c-.9.7-1.8 1-2.9 1-1.3 0-2.3-.4-3-1.3s-1.1-2.1-1.1-3.6c0-1 .2-1.9.5-2.6.3-.8.8-1.3 1.4-1.8.6-.4 1.4-.6 2.2-.6.6.1 1.1.1 1.6.3zm5.2-4.2c.2.2.3.5.3.8s-.1.6-.3.8c-.2.2-.5.3-.8.3-.3 0-.6-.1-.8-.3-.2-.2-.3-.5-.3-.8s.1-.6.3-.8c.2-.2.5-.3.8-.3.3-.1.6 0 .8.3zm-1.6 13.7v-9.5h1.7v9.5h-1.7zm11.7-8.4c.7.9 1.1 2.1 1.1 3.6 0 1-.2 1.9-.5 2.6-.3.8-.8 1.3-1.5 1.7-.6.4-1.4.6-2.3.6-1.3 0-2.4-.4-3.1-1.3-.7-.9-1.1-2.1-1.1-3.6 0-1 .2-1.9.5-2.6s.8-1.3 1.5-1.7c.6-.4 1.4-.6 2.3-.6 1.3 0 2.4.4 3.1 1.3zm-5.6 3.6c0 2.4.8 3.6 2.4 3.6s2.4-1.2 2.4-3.6c0-2.4-.8-3.6-2.4-3.6-1.5 0-2.4 1.2-2.4 3.6zm.7-6.7l-.5-.9 3.6-2.1.7 1.4-3.8 1.6zm15.2 2.5c.5.5.7 1.2.7 2.1v6.8h-1.7V427c0-.7-.1-1.1-.4-1.4-.3-.3-.6-.4-1.1-.4-.5 0-.9.1-1.3.4-.4.3-.7.7-1.1 1.2v6.7h-1.7V424h1.4l.1 1.4c.3-.5.8-.9 1.3-1.2.5-.3 1-.4 1.6-.4 1.1.2 1.8.4 2.2.9z" fill="#FFF"/></svg>