<svg baseProfile="tiny" xmlns="http://www.w3.org/2000/svg" viewBox="0 0 372.5 645.7"><g fill="#FFF"><path d="M66.1 627.1c-4.6 2.8-9.1 5.6-13.8 8.3-1.3.7-2.8 1.3-4.3 1.4-3.4.2-6.7.1-10.1.1-.5 0-1-.4-1.4-.7.5-.2 1-.6 1.5-.7 3-.1 6.1-.2 9.1-.2h1c1.5-.1 2.5-1.1 2.6-2.5 0-1.4-.9-2.5-2.5-2.6-6.5-.3-12.7-1.7-19-3.4-2.9-.8-6.2-.3-9.3-.1-1.2.1-2.3.7-3.4-.5-.3-.3-1-.4-1.6-.3-1.9 0-3.9.1-5.8.3-2 .2-3.2 1.4-3.2 3.5 0 2 .2 6 .3 6 .1 2.2.3 4.4.4 6.6.1 1.6.9 2.9 2.3 3 3.1.2 6.4.9 9.3-1.1.2-.2.6-.2.9-.1 8.9.6 17.8 1.3 26.7 1.8 2.9.2 5.7-.9 8.1-2.5 5.3-3.6 10.5-7.3 15.7-11 .6-.5 1.4-1.4 1.3-2.1-.1-1-.6-2.2-1.3-2.9-1-1.2-2.3-1-3.5-.3zM11.7 643c-1.2 0-2.2-1-2.2-2.2 0-1.2 1-2.2 2.2-2.2s2.2 1 2.2 2.2c-.1 1.2-1 2.2-2.2 2.2z"/><path d="M64 626.2c-.1-.2-.1-.4-.2-.6-.9 0-2-.3-2.8.1-3.1 1.4-6 3.1-9 4.6.2.9.4 1.7.6 2.8 3.9-2.3 7.6-4.6 11.4-6.9zM48 628c1 .4 2.2 1 3 .7 2.5-1 4.8-2.3 7.2-3.5-.1-.2-.1-.4-.2-.5-3.7-.1-6.6 2.3-10 3.3zM160.4 57.3l17.5-18.7-35.9.3zm17.5 69.3l-35.9.3 18.4 18.4zm22.6 412l-20.6.1v-18.2c56.4-16.4 96.6-68.9 96.6-132.8 0-76.2-62-138.3-138.3-138.3-12.7 0-25 1.7-36.7 5-13.9-2.6-26.6-12.1-26.6-29.6 0-19.5 15.1-35.3 33.6-35.3 12.4 0 23.6 7.2 29.4 18.3l-7.7.1 16.7 16.7 15.9-16.9-9.6.1c-6.9-19.3-24.6-32.2-44.6-32.2-26.2 0-47.6 22.1-47.6 49.3 0 15.9 7.9 29.1 20.5 36.9-48 21.7-81.4 70-81.4 126v1l1.6 15.8 39.8-4-1.5-13.9c.5-53.7 44.4-97.3 98.2-97.3 54.2 0 98.3 44.1 98.3 98.3 0 55.1-41.5 98.2-94.5 98.2v.1h-2.1v53l-19.6.1 41.1 41.1 39.1-41.6zM23.2 608.5v11.7c0 1.5.5 2 2 2h11.7c.5 0 1.1.2 1.5.5 5.1 4 12.4 3.4 16.7-1.5 4.3-4.9 4-12.2-.7-16.7-.4-.4-.5-.8-.5-1.3v-11.7h-5.3v4.3h-4.1c0 1.1-.1 2.2-.1 3.3 0 .7-.1.9-.8.9h-6.8c-.7 0-.8-.2-.8-.9v-3.4h-4.1c0 .3-.1.6-.1.9v7.6h-4.3v4.3h-4.3zm22.7-5.3c5.5 0 10 4.5 10 10 0 5.6-4.5 10.1-10 10.1s-10.1-4.5-10-10c0-5.7 4.5-10.1 10-10.1zm2.6-11.7c0-.1 0-.1 0 0z"/><path d="M40.2 591.5v4.3h4.2v-4.3h-4.2zm4.2 4.2c0 .1 0 .1 0 0 0 .1 0 .1 0 0 0 .1 0 .1 0 0zm-12.7 0zm-4.2-4.1v4.1h4.2v-4.1h-4.2zm21-4.2h-4.1v4.1h4.1v-4.1zm-4.1 4c0 .1 0 .1 0 0 0 .1 0 .1 0 0 0 .1 0 .1 0 0zm-17 12.8zm-4.2-4.1v4.1h4.1v-4.1h-4.1zm22.7 15.7c1.5 0 2.7-1.1 2.7-2.6s-1.1-2.6-2.6-2.6c-1.4 0-2.6 1.1-2.7 2.6-.1 1.4 1.1 2.6 2.6 2.6zM29.6 11.3H31l3.1 5.8h4.1l-3.9-6.5c1-.5 1.7-1 2.2-1.7s.7-1.5.7-2.4c0-1.6-.5-2.7-1.6-3.5-1-.8-2.6-1.1-4.7-1.1h-5v15.2h3.6v-5.8zm0-6.9h1.3c.9 0 1.6.2 2 .5.4.3.6.9.6 1.6 0 .8-.2 1.4-.6 1.7-.4.4-1 .5-1.8.5h-1.5V4.4zm19.3 10.1h-5.8v-3.9h4.7V8.1h-4.7V4.5h5.4l.4-2.6h-9.4v15.2h9.4zm4.6 2c1 .6 2.2.9 3.5.9 1.3 0 2.4.3 3.3.8.9.5 1.7 1.2 2.6 2.2l2.2-2.8c-.6-.5-1.3-.8-2-1-.7-.2-1.5-.3-2.5-.3 2.4-1.3 3.6-3.5 3.6-6.6 0-2.5-.6-4.5-1.8-5.9-1.2-1.4-2.9-2.1-5.1-2.1-1.4 0-2.6.3-3.7 1-1 .6-1.8 1.6-2.4 2.8-.5 1.2-.8 2.6-.8 4.3 0 1.7.3 3.1.8 4.3.5.8 1.3 1.8 2.3 2.4zm1.4-11.1c.5-.8 1.3-1.3 2.3-1.3 1 0 1.8.4 2.3 1.2.5.8.8 2.2.8 4.1 0 1.9-.3 3.2-.8 4.1-.5.8-1.3 1.3-2.3 1.3-1 0-1.8-.4-2.3-1.3-.5-.8-.8-2.2-.8-4.1 0-1.8.3-3.1.8-4zm17 12.1c1.3 0 2.4-.2 3.3-.7.9-.5 1.6-1.1 2-1.9.4-.8.7-1.7.7-2.8V1.9h-3.6v10c0 1-.2 1.7-.6 2.2-.4.5-1 .7-1.8.7s-1.4-.2-1.8-.7c-.4-.5-.6-1.2-.6-2.2v-10H66V12c0 1.7.5 3 1.5 3.9 1 1.1 2.5 1.6 4.4 1.6zm17.9-3h-5.7v-3.9h4.6V8.1h-4.6V4.5h5.3l.4-2.6h-9.3v15.2h9.3zm5.8-3.2H97l3.1 5.8h4.1l-3.9-6.5c1-.5 1.7-1 2.2-1.7s.7-1.5.7-2.4c0-1.6-.5-2.7-1.6-3.5-1-.8-2.6-1.1-4.7-1.1h-5v15.2h3.6v-5.8zm0-6.9h1.3c.9 0 1.6.2 2 .5.4.3.6.9.6 1.6 0 .8-.2 1.4-.6 1.7-.4.4-1 .5-1.8.5h-1.5V4.4zm9.9-2.5h3.6v15.2h-3.6zm9.5 9.3c0-.9.1-1.7.1-2.6 0-1.2 0-2.4-.1-3.7l2.5 10.5h3.4L123.2 5c0 .7-.1 1.5-.1 2.3 0 1.1 0 2.4.1 3.9l.3 5.9h3.5l-1.1-15.2h-4.6l-2.1 10.3-2.3-10.3h-4.5l-1.1 15.2h3.5l.2-5.9zm14.4-9.3h3.6v15.2h-3.6zm15.7 12.6h-5.7v-3.9h4.7V8.1h-4.7V4.5h5.3l.4-2.6h-9.3v15.2h9.3zm5.4-3c0-1.2 0-2.3-.1-3.1-.1-.9-.2-1.9-.3-3.1l4.4 11.8h4.6V1.9h-3.2V8c0 1.8.2 3.7.5 5.7l-4.5-11.8h-4.5v15.2h3.2v-5.6zm14.1 5.6h3.6V4.7h3.7l.4-2.8h-11.7v2.8h4zm8.4-3.3c.5 1.2 1.3 2.1 2.4 2.7 1 .6 2.2.9 3.7.9 1.4 0 2.6-.3 3.7-1s1.8-1.6 2.4-2.8c.5-1.2.8-2.6.8-4.3 0-2.5-.6-4.5-1.8-5.9-1.2-1.4-2.9-2.1-5.1-2.1-1.4 0-2.6.3-3.7 1-1 .6-1.8 1.6-2.4 2.8-.5 1.2-.8 2.6-.8 4.3 0 1.8.3 3.2.8 4.4zm3.7-8.4c.5-.8 1.3-1.3 2.3-1.3 1 0 1.8.4 2.3 1.2.5.8.8 2.2.8 4.1 0 1.9-.3 3.2-.8 4.1-.5.8-1.3 1.3-2.3 1.3-1 0-1.8-.4-2.3-1.3-.5-.8-.8-2.2-.8-4.1.1-1.8.3-3.1.8-4zm20.8 12c.7 0 1.3-.2 1.9-.5.6-.3 1-.8 1.4-1.4l.2 1.6h1.8V.9l-2-.2v6c-.9-.9-1.9-1.4-3.1-1.4-.9 0-1.7.3-2.4.8s-1.2 1.2-1.6 2.2c-.4.9-.5 2-.5 3.2 0 1.8.4 3.3 1.2 4.4s1.8 1.5 3.1 1.5zM196.1 8c.5-.7 1.2-1.1 2.1-1.1.5 0 1 .1 1.5.4.4.3.8.6 1.2 1.1v5.7c-.4.6-.8 1-1.3 1.3-.4.3-1 .4-1.6.4-.8 0-1.5-.4-2-1.1-.5-.7-.7-1.8-.7-3.3.1-1.5.3-2.7.8-3.4zm15 9.4c1.5 0 2.8-.5 4-1.4l-.9-1.2c-.5.4-1 .6-1.5.8-.5.2-1 .2-1.5.2-.9 0-1.6-.3-2.1-.9-.6-.6-.9-1.5-1-2.8h7.4v-1c0-1.8-.4-3.2-1.2-4.2s-2-1.5-3.5-1.5c-1 0-1.8.3-2.6.8-.7.5-1.3 1.3-1.7 2.2-.4.9-.6 2-.6 3.2 0 1.8.5 3.3 1.3 4.3 1 .9 2.3 1.5 3.9 1.5zm-.3-10.5c.9 0 1.6.3 2 .9.5.6.7 1.5.7 2.6v.1h-5.4c.2-2.4 1.1-3.6 2.7-3.6zM221 17.4c.6 0 1.2-.1 1.7-.4l-.5-1.4c-.2.1-.5.1-.7.1-.3 0-.4-.1-.6-.2-.1-.1-.2-.4-.2-.7V.7l-2 .2v13.9c0 .8.2 1.5.6 1.9.4.4 1 .7 1.7.7zm14.3 0c1.3 0 2.5-.4 3.5-1.3l-1-1.4c-.4.3-.8.6-1.2.7-.4.1-.8.2-1.3.2-1 0-1.7-.3-2.2-1-.5-.7-.8-1.8-.8-3.2 0-1.5.3-2.6.8-3.3.5-.7 1.2-1.1 2.2-1.1.5 0 .9.1 1.3.2s.8.4 1.2.7l1-1.3c-.5-.4-1.1-.8-1.6-1-.6-.2-1.2-.3-1.9-.3-1 0-1.9.3-2.7.8-.8.5-1.3 1.2-1.7 2.1-.4.9-.6 2-.6 3.2 0 1.9.5 3.3 1.3 4.4.9 1 2.1 1.6 3.7 1.6zm8.5 0c.6 0 1.2-.1 1.7-.4l-.5-1.4c-.2.1-.5.1-.7.1-.3 0-.4-.1-.6-.2-.1-.1-.2-.4-.2-.7V.7l-2 .2v13.9c0 .8.2 1.5.6 1.9.3.4.9.7 1.7.7zM249 2.7c.4 0 .8-.1 1-.4.3-.3.4-.6.4-1s-.1-.7-.4-1c-.3-.3-.6-.4-1-.4s-.7.1-1 .4-.4.6-.4 1 .1.7.4 1c.2.3.6.4 1 .4zm-1 2.8h2v11.6h-2zm10.4 11.9c1.5 0 2.8-.5 4-1.4l-.9-1.2c-.5.4-1 .6-1.5.8-.5.2-1 .2-1.5.2-.9 0-1.6-.3-2.1-.9-.6-.6-.9-1.5-1-2.8h7.4v-1c0-1.8-.4-3.2-1.2-4.2s-2-1.5-3.5-1.5c-1 0-1.8.3-2.6.8-.7.5-1.3 1.3-1.7 2.2-.4.9-.6 2-.6 3.2 0 1.8.5 3.3 1.3 4.3 1.1.9 2.3 1.5 3.9 1.5zm-.2-10.5c.9 0 1.6.3 2 .9.5.6.7 1.5.7 2.6v.1h-5.4c.1-2.4 1-3.6 2.7-3.6zm10 2c.4-.7.8-1.2 1.3-1.5.5-.4 1-.5 1.6-.5.6 0 1.1.2 1.4.5.3.3.5.9.5 1.7v8h2V8.8c0-1.1-.3-2-.9-2.6-.6-.6-1.4-.9-2.5-.9-.7 0-1.4.2-2 .5-.6.4-1.1.8-1.5 1.4l-.1-1.7h-1.7v11.6h2V8.9zm11 5.2c0 1.1.3 1.9.8 2.4.5.6 1.3.8 2.3.8 1 0 1.8-.3 2.6-.8l-.8-1.4c-.5.3-1.1.5-1.5.5-.5 0-.9-.1-1.1-.4-.2-.3-.3-.7-.3-1.3V7.1h2.5l.2-1.6h-2.7V2.7l-2 .2v2.6h-2v1.6h2v7zm11.8 3.3c1.5 0 2.8-.5 4-1.4l-.9-1.2c-.5.4-1 .6-1.5.8-.5.2-1 .2-1.5.2-.9 0-1.6-.3-2.1-.9-.6-.6-.9-1.5-1-2.8h7.4v-1c0-1.8-.4-3.2-1.2-4.2s-2-1.5-3.5-1.5c-1 0-1.8.3-2.6.8-.7.5-1.3 1.3-1.7 2.2-.4.9-.6 2-.6 3.2 0 1.8.5 3.3 1.3 4.3 1.1.9 2.3 1.5 3.9 1.5zm-.2-10.5c.9 0 1.6.3 2 .9.5.6.7 1.5.7 2.6v.1h-5.4c.1-2.4 1-3.6 2.7-3.6zM37.5 100l.8-3.3h4.4l.8 3.3h3.8l-4.6-15.2h-4.4L33.8 100h3.7zm3-12.5l1.6 6.7h-3.2l1.6-6.7zm6.6 4.9c0 1.7.3 3.1.9 4.4s1.4 2.1 2.4 2.7c1 .6 2.3.9 3.7.9 1 0 1.9-.2 2.7-.6.8-.4 1.5-.8 2.1-1.4l-1.6-2.1c-.5.4-1 .7-1.5.9-.4.2-.9.3-1.5.3-1.1 0-1.9-.4-2.5-1.3-.6-.9-.9-2.2-.9-3.9 0-1.8.3-3.1.9-4 .6-.9 1.4-1.3 2.4-1.3s1.9.4 2.7 1.1l1.8-2.1c-.7-.6-1.4-1-2.1-1.2-.7-.3-1.6-.4-2.6-.4-1.3 0-2.5.3-3.5.9-1 .6-1.8 1.5-2.4 2.7s-1 2.8-1 4.4zm19.6 7.6V87.6h3.7l.4-2.8H59.2v2.8h3.9V100zm5.5-15.2h3.6V100h-3.6zm11.4 12.4l-2.9-12.4H77l4.3 15.2h4.5L90 84.8h-3.6zm7.6-12.4h3.6V100h-3.6zm16.4 1.7c-1.4-1.1-3.4-1.6-5.7-1.6h-4.2V100h4.6c2.2 0 4.1-.6 5.5-1.7 1.4-1.1 2.1-3.1 2.1-6-.2-2.8-.9-4.8-2.3-5.8zm-2.5 9.8c-.6.7-1.5 1.1-2.7 1.1h-1.2v-10h1.1c.8 0 1.4.1 2 .4.5.3.9.8 1.2 1.5.3.7.5 1.7.5 3 0 2-.3 3.3-.9 4zm9-11.5l-4.6 15.2h3.7l.8-3.3h4.4l.8 3.3h3.8l-4.6-15.2h-4.3zm.5 9.4l1.6-6.7 1.6 6.7h-3.2zm9.5 5.8h4.6c2.2 0 4.1-.6 5.5-1.7 1.4-1.1 2.1-3.1 2.1-6s-.7-4.8-2.2-5.9c-1.4-1.1-3.4-1.6-5.7-1.6h-4.2V100zm3.6-12.5h1.1c.8 0 1.4.1 2 .4.5.3.9.8 1.2 1.5.3.7.5 1.7.5 3 0 1.9-.3 3.2-.9 4-.6.7-1.5 1.1-2.7 1.1h-1.2v-10zm10.7 12.5h9.3v-2.6H142v-3.8h4.7V91H142v-3.6h5.4l.3-2.6h-9.3zm17.7-2.8c-.4.3-1 .5-1.8.5-1.4 0-2.7-.5-3.8-1.5l-1.8 2c.7.7 1.5 1.2 2.5 1.6s2.1.6 3.3.6 2.3-.2 3.2-.6c.9-.4 1.6-1 2.1-1.7s.7-1.6.7-2.5c0-1.3-.4-2.4-1.1-3.1-.7-.7-1.9-1.3-3.4-1.8-.8-.3-1.4-.5-1.8-.7-.4-.2-.7-.4-.9-.6s-.2-.5-.2-.8c0-.5.2-.9.5-1.1.4-.3.9-.4 1.5-.4 1.2 0 2.3.4 3.3 1.3l1.7-2c-.7-.7-1.5-1.1-2.3-1.5-.8-.3-1.8-.5-3-.5-1.1 0-2 .2-2.8.5-.8.4-1.5.9-2 1.5s-.7 1.4-.7 2.3c0 1.1.4 2.1 1.1 2.8.7.7 1.9 1.4 3.6 1.9.7.2 1.3.5 1.7.7s.7.4.8.7.2.6.2 1c.1.7-.1 1.1-.6 1.4zm17.5-9c-.7 0-1.3.2-1.9.5-.6.3-1.1.8-1.5 1.3l-.2-1.6h-1.7v16.2l2-.2V99c.7.9 1.7 1.3 3 1.3 1.4 0 2.6-.6 3.4-1.7.8-1.1 1.2-2.6 1.2-4.4 0-1.9-.3-3.4-1-4.4-.7-1.1-1.8-1.6-3.3-1.6zm-.7 10.5c-.5 0-1-.1-1.4-.4s-.8-.6-1.1-1v-5.6c.4-.5.8-1 1.2-1.3.5-.3 1-.5 1.6-.5 1.7 0 2.6 1.5 2.6 4.4-.1 2.9-1 4.4-2.9 4.4zm8.2-9.7l.5 1.5c1.2-.4 2.3-.6 3.1-.6.8 0 1.4.2 1.8.5.4.4.6.9.6 1.8v.8h-1.8c-1.6 0-2.9.3-3.8 1s-1.3 1.6-1.3 2.8c0 1 .3 1.9 1 2.5.7.6 1.6 1 2.7 1 1.5 0 2.7-.6 3.4-1.7.2.6.4 1 .8 1.2.4.3.8.4 1.4.5l.5-1.4c-.3-.1-.6-.3-.7-.5-.2-.2-.2-.6-.2-1v-5.3c0-1.2-.3-2.2-1-2.8s-1.7-1-3-1c-1.2-.1-2.6.2-4 .7zm6 8c-.7 1.2-1.6 1.8-2.7 1.8-.7 0-1.2-.2-1.5-.5-.3-.4-.5-.9-.5-1.6 0-1.6 1.1-2.4 3.2-2.4h1.5V97zm10.8 1.2c-.5.3-1.1.5-1.8.5-1.2 0-2.3-.4-3.2-1.2l-1.1 1.3c1.2 1 2.6 1.5 4.4 1.5 1.3 0 2.3-.3 3.2-.9.9-.6 1.3-1.5 1.3-2.6 0-1-.3-1.7-1-2.3-.6-.6-1.6-1-2.9-1.3-.9-.2-1.6-.5-1.9-.8-.4-.3-.5-.6-.5-1.1s.2-.8.6-1.1.9-.4 1.6-.4c.5 0 1 .1 1.5.3.5.2 1 .4 1.5.8l.9-1.3c-.6-.4-1.2-.8-1.8-1-.6-.2-1.3-.3-2.1-.3s-1.5.1-2.1.4-1.1.6-1.5 1.1c-.4.5-.5 1-.5 1.6 0 .8.3 1.5.8 2.1s1.4 1 2.7 1.3c.8.2 1.4.4 1.7.6.4.2.7.4.8.7.2.3.2.6.2 1-.2.4-.4.8-.8 1.1zm6.1.5c.9 1.1 2.2 1.6 3.8 1.6 1.1 0 2-.3 2.8-.8.8-.5 1.4-1.2 1.8-2.1.4-.9.6-2 .6-3.2 0-1.9-.4-3.3-1.3-4.4-.9-1.1-2.2-1.6-3.8-1.6-1.1 0-2 .3-2.8.8-.8.5-1.4 1.2-1.8 2.1-.4.9-.6 2-.6 3.2 0 1.8.4 3.3 1.3 4.4zm3.9-8.9c2 0 3 1.5 3 4.4 0 3-1 4.4-3 4.4s-3-1.5-3-4.4c0-2.9 1-4.4 3-4.4zm14.5.7c1.2-.4 2.3-.6 3.1-.6.8 0 1.4.2 1.8.5.4.4.6.9.6 1.8v.8h-1.8c-1.6 0-2.9.3-3.8 1s-1.3 1.6-1.3 2.8c0 1 .3 1.9 1 2.5.7.6 1.6 1 2.7 1 1.5 0 2.7-.6 3.4-1.7.2.6.4 1 .8 1.2.4.3.8.4 1.4.5l.5-1.4c-.3-.1-.6-.3-.7-.5-.2-.2-.2-.6-.2-1v-5.3c0-1.2-.3-2.2-1-2.8s-1.7-1-3-1c-1.2 0-2.6.3-4 .8l.5 1.4zm5.5 6.5c-.7 1.2-1.6 1.8-2.7 1.8-.7 0-1.2-.2-1.5-.5-.3-.4-.5-.9-.5-1.6 0-1.6 1.1-2.4 3.2-2.4h1.5V97zm14 2c.7.9 1.7 1.3 3 1.3 1.4 0 2.6-.6 3.4-1.7.8-1.1 1.2-2.6 1.2-4.4 0-1.9-.3-3.4-1-4.4-.7-1.1-1.8-1.6-3.2-1.6-.7 0-1.3.2-1.9.5-.6.3-1.1.8-1.5 1.3l-.2-1.6H240v16.2l2-.2V99zm0-7.4c.4-.5.8-1 1.2-1.3.5-.3 1-.5 1.6-.5 1.7 0 2.6 1.5 2.6 4.4 0 2.9-1 4.4-2.8 4.4-.5 0-1-.1-1.4-.4s-.8-.6-1.1-1v-5.6zm13.6 8.7c1.5 0 2.7-.6 3.4-1.7.2.6.4 1 .8 1.2.4.3.8.4 1.4.5l.5-1.4c-.3-.1-.6-.3-.7-.5-.2-.2-.2-.6-.2-1v-5.3c0-1.2-.3-2.2-1-2.8s-1.7-1-3-1c-1.2 0-2.6.3-4 .8l.5 1.5c1.2-.4 2.3-.6 3.1-.6.8 0 1.4.2 1.8.5.4.4.6.9.6 1.8v.7h-1.8c-1.6 0-2.9.3-3.8 1s-1.3 1.6-1.3 2.8c0 1 .3 1.9 1 2.5.6.7 1.5 1 2.7 1zm1.6-6h1.5V97c-.7 1.2-1.6 1.8-2.7 1.8-.7 0-1.2-.2-1.5-.5-.3-.4-.5-.9-.5-1.6 0-1.6 1.1-2.4 3.2-2.4zm12.3 3.9c-.5.3-1.1.5-1.8.5-1.2 0-2.3-.4-3.2-1.2l-1.1 1.3c1.2 1 2.6 1.5 4.4 1.5 1.3 0 2.3-.3 3.2-.9.9-.6 1.3-1.5 1.3-2.6 0-1-.3-1.7-1-2.3-.6-.6-1.6-1-2.9-1.3-.9-.2-1.6-.5-1.9-.8-.4-.3-.5-.6-.5-1.1s.2-.8.6-1.1.9-.4 1.6-.4c.5 0 1 .1 1.5.3.5.2 1 .4 1.5.8l.9-1.3c-.6-.4-1.2-.8-1.8-1-.6-.2-1.3-.3-2.1-.3s-1.5.1-2.1.4-1.1.6-1.5 1.1c-.4.5-.5 1-.5 1.6 0 .8.3 1.5.8 2.1s1.4 1 2.7 1.3c.8.2 1.4.4 1.7.6.4.2.7.4.8.7.2.3.2.6.2 1-.1.4-.4.8-.8 1.1zm4.8-3.9c0 1.9.5 3.3 1.4 4.4s2.2 1.6 3.8 1.6c1.1 0 2-.3 2.8-.8.8-.5 1.4-1.2 1.8-2.1.4-.9.6-2 .6-3.2 0-1.9-.4-3.3-1.3-4.4-.9-1.1-2.2-1.6-3.8-1.6-1.1 0-2 .3-2.8.8-.8.5-1.4 1.2-1.8 2.1-.5.9-.7 2-.7 3.2zm5.2-4.5c2 0 3 1.5 3 4.4 0 3-1 4.4-3 4.4s-3-1.5-3-4.4c0-2.9 1-4.4 3-4.4zm-92.5 106.3l.2-1.7h-8v15.1h2.1v-6.6h4.9v-1.7h-4.9v-5.1zm1.6 7.8c0 1.8.5 3.3 1.3 4.3s2.2 1.6 3.8 1.6c1.5 0 2.8-.5 4-1.4l-.9-1.2c-.5.4-1 .6-1.5.8-.5.2-1 .2-1.5.2-.9 0-1.6-.3-2.1-.9-.6-.6-.9-1.5-1-2.8h7.4v-1c0-1.8-.4-3.2-1.2-4.2-.8-1-2-1.5-3.5-1.5-1 0-1.8.3-2.6.8-.7.5-1.3 1.3-1.7 2.2-.4.8-.5 1.9-.5 3.1zm4.8-4.6c.9 0 1.6.3 2 .9.5.6.7 1.5.7 2.6v.1h-5.4c.1-2.4 1-3.6 2.7-3.6zm16.3 9l-.9-1.2c-.5.4-1 .6-1.5.8-.5.2-1 .2-1.5.2-.9 0-1.6-.3-2.1-.9-.6-.6-.9-1.5-1-2.8h7.4v-1c0-1.8-.4-3.2-1.2-4.2-.8-1-2-1.5-3.5-1.5-1 0-1.8.3-2.6.8-.7.5-1.3 1.3-1.7 2.2-.4.9-.6 2-.6 3.2 0 1.8.5 3.3 1.3 4.3s2.2 1.6 3.8 1.6c1.6 0 2.9-.5 4.1-1.5zm-4.2-9c.9 0 1.6.3 2 .9.5.6.7 1.5.7 2.6v.1h-5.4c.1-2.4 1-3.6 2.7-3.6zm7.8 1.4c-.4.9-.5 2-.5 3.2 0 1.8.4 3.3 1.2 4.4.8 1.1 1.8 1.6 3.2 1.6.7 0 1.3-.2 1.9-.5.6-.3 1-.8 1.4-1.4l.2 1.6h1.8v-16.2l-2-.2v6c-.9-.9-1.9-1.4-3.1-1.4-.9 0-1.7.3-2.4.8-.8.4-1.3 1.1-1.7 2.1zm2.4-.3c.5-.7 1.2-1.1 2.1-1.1.5 0 1 .1 1.5.4.4.3.8.6 1.2 1.1v5.7c-.4.6-.8 1-1.3 1.3-.4.3-1 .4-1.6.4-.8 0-1.5-.4-2-1.1-.5-.7-.7-1.8-.7-3.3 0-1.5.3-2.6.8-3.4zM234 209c.7-.5 1.2-1.2 1.6-2.1.4-.9.5-2 .5-3.2 0-1.9-.4-3.4-1.2-4.4-.8-1.1-1.8-1.6-3.1-1.6s-2.4.6-3.3 1.7v-6.3l-2 .2v16.2h1.8l.2-1.3c.8 1 1.9 1.5 3.1 1.5.9.1 1.7-.2 2.4-.7zm-4.3-1.2c-.4-.3-.8-.7-1.1-1.1v-5.5c.8-1.2 1.7-1.8 2.7-1.8.9 0 1.5.3 2 1s.7 1.8.7 3.4c0 1.5-.3 2.6-.8 3.4-.5.7-1.2 1.1-2.1 1.1-.5-.1-1-.2-1.4-.5zm13.8-5.3c-1.6 0-2.9.3-3.8 1-.9.7-1.3 1.6-1.3 2.8 0 1 .3 1.9 1 2.5.7.6 1.6 1 2.7 1 1.5 0 2.7-.6 3.4-1.7.2.6.4 1 .8 1.2.4.3.8.4 1.4.5l.5-1.4c-.3-.1-.6-.3-.7-.5-.2-.2-.2-.6-.2-1v-5.3c0-1.2-.3-2.2-1-2.8s-1.7-1-3-1c-1.2 0-2.6.3-4 .8l.5 1.5c1.2-.4 2.3-.6 3.1-.6.8 0 1.4.2 1.8.5.4.4.6.9.6 1.8v.9h-1.8zm1.8 4c-.7 1.2-1.6 1.8-2.7 1.8-.7 0-1.2-.2-1.5-.5-.3-.4-.5-.9-.5-1.6 0-1.6 1.1-2.4 3.2-2.4h1.5v2.7zm10.4 3.3c1.3 0 2.5-.4 3.5-1.3l-1-1.4c-.4.3-.8.6-1.2.7-.4.1-.8.2-1.3.2-1 0-1.7-.3-2.2-1-.5-.7-.8-1.8-.8-3.2 0-1.5.3-2.6.8-3.3s1.2-1.1 2.2-1.1c.5 0 .9.1 1.3.2s.8.4 1.2.7l1-1.3c-.5-.4-1.1-.8-1.6-1-.6-.2-1.2-.3-1.9-.3-1 0-1.9.3-2.7.8-.8.5-1.3 1.2-1.7 2.1-.4.9-.6 2-.6 3.2 0 1.9.5 3.3 1.3 4.4s2.1 1.6 3.7 1.6zm12.6-11.8l-4.2 5.2 4.6 6.3h2.4l-4.8-6.4 4.3-5.1zm-6.4 11.5h2v-16.4l-2 .2zm25.5-11.5h-2.1l-3 10.1-3.1-10.1h-2.1l3.9 11.6h.7c-.2.7-.5 1.2-.8 1.6-.3.4-.6.7-1.1 1-.5.2-1.1.4-1.8.6l.2 1.6c1.5-.2 2.7-.6 3.5-1.4.8-.8 1.4-1.8 1.9-3.2l3.8-11.8zm14.2 10.1c.2.6.4 1 .8 1.2.4.3.8.4 1.4.5l.5-1.4c-.3-.1-.6-.3-.7-.5-.2-.2-.2-.6-.2-1v-5.3c0-1.2-.3-2.2-1-2.8s-1.7-1-3-1c-1.2 0-2.6.3-4 .8l.5 1.5c1.2-.4 2.3-.6 3.1-.6.8 0 1.4.2 1.8.5.4.4.6.9.6 1.8v.9h-1.8c-1.6 0-2.9.3-3.8 1-.9.7-1.3 1.6-1.3 2.8 0 1 .3 1.9 1 2.5.7.6 1.6 1 2.7 1 1.5-.2 2.6-.8 3.4-1.9zm-5-1.9c0-1.6 1.1-2.4 3.2-2.4h1.5v2.7c-.7 1.2-1.6 1.8-2.7 1.8-.7 0-1.2-.2-1.5-.5-.3-.4-.5-.9-.5-1.6zm14 1.5l-3-9.7h-2.2l4 11.5h2.4l3.9-11.5h-2.1zm15.2-.9v-5.3c0-1.2-.3-2.2-1-2.8s-1.7-1-3-1c-1.2 0-2.6.3-4 .8l.5 1.5c1.2-.4 2.3-.6 3.1-.6.8 0 1.4.2 1.8.5.4.4.6.9.6 1.8v.9H322c-1.6 0-2.9.3-3.8 1-.9.7-1.3 1.6-1.3 2.8 0 1 .3 1.9 1 2.5.7.6 1.6 1 2.7 1 1.5 0 2.7-.6 3.4-1.7.2.6.4 1 .8 1.2.4.3.8.4 1.4.5l.5-1.4c-.3-.1-.6-.3-.7-.5-.1-.3-.2-.7-.2-1.2zm-2-.3c-.7 1.2-1.6 1.8-2.7 1.8-.7 0-1.2-.2-1.5-.5-.3-.4-.5-.9-.5-1.6 0-1.6 1.1-2.4 3.2-2.4h1.5v2.7zm11.6-8.8c-.7 0-1.4.2-2 .5s-1.1.8-1.5 1.4l-.2-1.7H330v11.6h2v-8.2c.4-.7.8-1.2 1.3-1.5s1-.5 1.6-.5c.6 0 1.1.2 1.4.5s.5.9.5 1.7v8h2v-8.3c0-1.1-.3-2-.9-2.6-.6-.6-1.4-.9-2.5-.9zm11.7 1.7c.5 0 .9.1 1.3.2s.8.4 1.2.7l1-1.3c-.5-.4-1.1-.8-1.6-1-.6-.2-1.2-.3-1.9-.3-1 0-1.9.3-2.7.8-.8.5-1.3 1.2-1.7 2.1-.4.9-.6 2-.6 3.2 0 1.9.5 3.3 1.3 4.4s2.1 1.6 3.7 1.6c1.3 0 2.5-.4 3.5-1.3l-1-1.4c-.4.3-.8.6-1.2.7-.4.1-.8.2-1.3.2-1 0-1.7-.3-2.2-1-.5-.7-.8-1.8-.8-3.2 0-1.5.3-2.6.8-3.3s1.3-1.1 2.2-1.1zm9.9-1.7c-1 0-1.8.3-2.6.8-.7.5-1.3 1.3-1.7 2.2-.4.9-.6 2-.6 3.2 0 1.8.5 3.3 1.3 4.3s2.2 1.6 3.8 1.6c1.5 0 2.8-.5 4-1.4l-.9-1.2c-.5.4-1 .6-1.5.8-.5.2-1 .2-1.5.2-.9 0-1.6-.3-2.1-.9-.6-.6-.9-1.5-1-2.8h7.4v-1c0-1.8-.4-3.2-1.2-4.2-.6-1.1-1.8-1.6-3.4-1.6zm2.8 5.3h-5.4c.1-2.4 1-3.6 2.7-3.6.9 0 1.6.3 2 .9.5.6.7 1.5.7 2.6v.1zm11.8 1c-.6-.6-1.6-1-2.9-1.3-.9-.2-1.6-.5-1.9-.8s-.5-.6-.5-1.1.2-.8.6-1.1.9-.4 1.6-.4c.5 0 1 .1 1.5.3s1 .4 1.5.8l.9-1.3c-.6-.4-1.2-.8-1.8-1-.6-.2-1.3-.3-2.1-.3s-1.5.1-2.1.4-1.1.6-1.5 1.1c-.4.5-.5 1-.5 1.6 0 .8.3 1.5.8 2.1s1.4 1 2.7 1.3c.8.2 1.4.4 1.7.6.4.2.7.4.8.7.2.3.2.6.2 1 0 .5-.2.9-.7 1.2-.5.3-1.1.5-1.8.5-1.2 0-2.3-.4-3.2-1.2l-1.1 1.3c1.2 1 2.6 1.5 4.4 1.5 1.3 0 2.3-.3 3.2-.9.9-.6 1.3-1.5 1.3-2.6-.2-1.1-.5-1.8-1.1-2.4zm-190.7 31c1 .6 2.3.9 3.7.9 1 0 1.9-.2 2.7-.6s1.5-.8 2.1-1.4l-1.6-2.1c-.5.4-1 .7-1.5.9-.4.2-.9.3-1.5.3-1.1 0-1.9-.4-2.5-1.3-.6-.9-.9-2.2-.9-3.9 0-1.8.3-3.1.9-4 .6-.9 1.4-1.3 2.4-1.3s1.9.4 2.7 1.1l1.8-2.1c-.7-.6-1.4-1-2.1-1.3-.7-.3-1.6-.4-2.6-.4-1.3 0-2.5.3-3.5.9s-1.8 1.5-2.4 2.7-.9 2.6-.9 4.3c0 1.7.3 3.1.9 4.4.4 1.4 1.3 2.3 2.3 2.9zm12.8-2.7h4.4l.8 3.3h3.8l-4.6-15.2h-4.4l-4.6 15.2h3.7l.9-3.3zm2.2-9.3l1.6 6.7h-3.2l1.6-6.7zm18 10.8c1.4-1.1 2.1-3.1 2.1-6s-.7-4.8-2.2-5.9c-1.4-1.1-3.4-1.6-5.7-1.6h-4.2v15.2h4.6c2.1 0 4-.5 5.4-1.7zm-6.5-10.8h1.1c.8 0 1.4.1 2 .4s.9.8 1.2 1.5c.3.7.5 1.7.5 3 0 1.9-.3 3.2-.9 4-.6.7-1.5 1.1-2.7 1.1h-1.2v-10zm12.8 9.3h4.4l.8 3.3h3.8l-4.6-15.2h-4.4l-4.6 15.2h3.7l.9-3.3zm2.3-9.3l1.6 6.7h-3.2l1.6-6.7zm16.2 6.1c-.8.9-2.1 2.2-3.9 4v2.5h9.6l.4-2.7h-6.1c1.6-1.4 2.8-2.6 3.6-3.5.8-.9 1.4-1.8 1.7-2.5s.5-1.5.5-2.3c0-.8-.2-1.5-.6-2.1-.4-.6-1-1.2-1.8-1.5-.8-.4-1.7-.6-2.8-.6s-2 .2-2.9.7c-.9.5-1.6 1.1-2.2 1.9l2.1 1.6c.4-.5.9-.9 1.3-1.2s.9-.4 1.4-.4c.6 0 1 .2 1.4.5.3.3.5.8.5 1.4 0 .6-.2 1.2-.5 1.8-.3.7-.9 1.5-1.7 2.4zm7.4 3.2h6.3v3.2h3.3v-3.2h1.7v-2.6h-1.7v-3.5h-2.9l-.4 3.5h-2.7l3.5-8.3-2.9-1.1-4.2 9.7zm30.1 3.2v-15.2h-3.6v5.9h-4.5v-5.9h-3.6v15.2h3.6V229h4.5v6.5zm-185 385.9h5v-1.7h-5v-4.9H97l.2-1.7h-8.1v15.1h8.3v-1.7h-6.2zm14.9-5c-.7 0-1.4.2-2 .5-.6.4-1.1.8-1.5 1.4l-.2-1.7h-1.7v11.6h2V620c.4-.7.8-1.2 1.3-1.5.5-.4 1-.5 1.6-.5.6 0 1.1.2 1.4.5.3.3.5.9.5 1.7v8h2v-8.3c0-1.1-.3-2-.9-2.6-.6-.6-1.4-.9-2.5-.9zm11 10.4c-.5 0-.9-.1-1.1-.4-.2-.3-.3-.7-.3-1.3v-6.9h2.5l.2-1.6h-2.7v-2.8l-2 .2v2.6h-2v1.6h2v7c0 1.1.3 1.9.8 2.4.5.6 1.3.8 2.3.8 1 0 1.8-.3 2.6-.8l-.8-1.4c-.5.4-1.1.6-1.5.6zm7.5-9.8c-.5.4-.9 1.1-1.2 2l-.2-2.3h-1.7v11.6h2v-6.6c.2-1.1.6-1.9 1-2.5s1-.8 1.7-.8c.3 0 .7 0 1 .1l.4-2c-.4-.1-.7-.1-1.1-.1-.7 0-1.3.2-1.9.6zm9.1-.6c-1 0-1.8.3-2.6.8s-1.3 1.3-1.7 2.2c-.4.9-.6 2-.6 3.2 0 1.8.5 3.3 1.3 4.3.9 1.1 2.2 1.6 3.8 1.6 1.5 0 2.8-.5 4-1.4l-.9-1.2c-.5.4-1 .6-1.5.8-.5.2-1 .2-1.5.2-.9 0-1.6-.3-2.1-.9-.6-.6-.9-1.5-1-2.8h7.4v-1c0-1.8-.4-3.2-1.2-4.2-.7-1.1-1.9-1.6-3.4-1.6zm2.7 5.2H131c.1-2.4 1-3.6 2.7-3.6.9 0 1.6.3 2 .9.5.6.7 1.5.7 2.6v.1zm14.7-4.4l-.6-1.8c-.6.3-1.1.5-1.5.6-.4.1-.9.2-1.5.3-.6.1-1.4.1-2.3.1-.8 0-1.6.2-2.3.5-.7.3-1.2.8-1.6 1.4-.4.6-.6 1.3-.6 2.1 0 .7.2 1.4.5 1.9s.8 1 1.5 1.3c-.4.3-.7.6-.9.9-.2.4-.3.7-.3 1.1 0 .6.3 1.2.8 1.6.5.4 1.2.6 2.2.6h1.8c.7 0 1.3.1 1.7.4s.6.7.6 1.2c0 .6-.3 1-.8 1.3s-1.4.4-2.6.4c-.8 0-1.5-.1-1.9-.2-.5-.1-.8-.3-.9-.6-.2-.3-.3-.6-.3-1.1h-1.8c0 .8.2 1.5.5 2s.8.9 1.5 1.2 1.7.4 2.9.4c1.8 0 3.1-.3 4-.9s1.4-1.5 1.4-2.6c0-.6-.2-1.2-.5-1.6-.3-.5-.8-.9-1.4-1.1-.6-.3-1.3-.4-2.1-.4h-1.8c-1 0-1.5-.3-1.5-.9 0-.2.1-.4.2-.6.1-.2.2-.4.4-.5.5.1.9.2 1.5.2 1.4 0 2.4-.4 3.2-1.1s1.2-1.7 1.2-2.8c0-1.3-.7-2.3-2-2.9.8 0 1.4 0 1.9-.1.4-.1.9-.2 1.4-.3zm-4.1 5.1c-.4.5-1 .7-1.8.7s-1.4-.2-1.8-.7c-.4-.5-.6-1.1-.6-1.9 0-.8.2-1.4.6-1.9.4-.5 1-.7 1.8-.7 1.7 0 2.5.9 2.5 2.6 0 .8-.2 1.5-.7 1.9zm13.9 3.2v-5.3c0-1.2-.3-2.2-1-2.8s-1.7-1-3-1c-1.2 0-2.6.3-4 .8l.5 1.5c1.2-.4 2.3-.6 3.1-.6.8 0 1.4.2 1.8.5s.6.9.6 1.8v.9h-1.8c-1.6 0-2.9.3-3.8 1-.9.7-1.3 1.6-1.3 2.8 0 1 .3 1.9 1 2.5.7.6 1.6 1 2.7 1 1.5 0 2.7-.6 3.4-1.7.2.6.4 1 .8 1.2.4.3.8.4 1.4.5l.5-1.4c-.3-.1-.6-.3-.7-.5-.1-.4-.2-.7-.2-1.2zm-2-.3c-.7 1.2-1.6 1.8-2.7 1.8-.7 0-1.2-.2-1.5-.5s-.5-.9-.5-1.6c0-1.6 1.1-2.4 3.2-2.4h1.5v2.7zm18.9-7.4c-.9-1-1.9-1.4-3.1-1.4-.9 0-1.7.3-2.4.8s-1.2 1.2-1.6 2.2c-.4.9-.5 2-.5 3.2 0 1.8.4 3.3 1.2 4.4.8 1.1 1.8 1.6 3.2 1.6.7 0 1.3-.2 1.9-.5.6-.3 1-.8 1.4-1.4l.2 1.6h1.8V612l-2-.2v6zm0 7.4c-.4.6-.8 1-1.3 1.3-.4.3-1 .4-1.6.4-.8 0-1.5-.4-2-1.1-.5-.7-.7-1.8-.7-3.3 0-1.5.2-2.6.7-3.3.5-.7 1.2-1.1 2.1-1.1.5 0 1 .1 1.5.4.4.3.8.6 1.2 1.1v5.6zm9.9-8.8c-1 0-1.8.3-2.6.8s-1.3 1.3-1.7 2.2c-.4.9-.6 2-.6 3.2 0 1.8.5 3.3 1.3 4.3.9 1.1 2.2 1.6 3.8 1.6 1.5 0 2.8-.5 4-1.4l-.9-1.2c-.5.4-1 .6-1.5.8-.5.2-1 .2-1.5.2-.9 0-1.6-.3-2.1-.9-.6-.6-.9-1.5-1-2.8h7.4v-1c0-1.8-.4-3.2-1.2-4.2-.7-1.1-1.8-1.6-3.4-1.6zm2.8 5.2h-5.4c.1-2.4 1-3.6 2.7-3.6.9 0 1.6.3 2 .9.5.6.7 1.5.7 2.6v.1zm16.5-2.7c-.8-.3-1.4-.5-1.8-.7-.4-.2-.7-.4-.9-.6s-.2-.5-.2-.8c0-.5.2-.9.5-1.1.4-.3.9-.4 1.5-.4 1.2 0 2.3.4 3.3 1.3l1.7-2c-.7-.7-1.5-1.1-2.3-1.5-.8-.3-1.8-.5-3-.5-1.1 0-2 .2-2.8.5-.8.4-1.5.9-2 1.5s-.7 1.4-.7 2.3c0 1.1.4 2.1 1.1 2.8.7.7 1.9 1.4 3.6 1.9.7.2 1.3.5 1.7.7.4.2.7.4.8.7s.2.6.2 1c0 .6-.2 1-.6 1.4-.4.3-1 .5-1.8.5-1.4 0-2.7-.5-3.8-1.5l-1.8 2c.7.7 1.5 1.2 2.5 1.6s2.1.6 3.3.6 2.3-.2 3.2-.6c.9-.4 1.6-1 2.1-1.7s.7-1.6.7-2.5c0-1.3-.4-2.4-1.1-3.1-.7-.7-1.8-1.3-3.4-1.8zm12.6-6.3c-1.4 0-2.6.3-3.7 1-1 .6-1.8 1.6-2.4 2.8-.5 1.2-.8 2.6-.8 4.3 0 1.7.3 3.1.8 4.3.5 1.2 1.3 2.1 2.4 2.7 1 .6 2.2.9 3.7.9 1.4 0 2.6-.3 3.7-1s1.8-1.6 2.4-2.8c.5-1.2.8-2.6.8-4.3 0-2.5-.6-4.5-1.8-5.9-1.2-1.3-2.9-2-5.1-2zm2.4 12.1c-.5.8-1.3 1.3-2.3 1.3-1 0-1.8-.4-2.3-1.3-.5-.8-.8-2.2-.8-4.1 0-1.9.3-3.2.8-4.1.5-.8 1.3-1.3 2.3-1.3 1 0 1.8.4 2.3 1.2.5.8.8 2.2.8 4.1-.1 2-.3 3.3-.8 4.2zm6.7 3.5h3.6v-6h4.4v-2.6h-4.4v-4h5l.4-2.6h-9zm9.4-12.4h3.9v12.4h3.6v-12.4h3.8l.3-2.8h-11.6zm26.6-2.8l-1.8 12.5-2-12.5h-3.7l-2.2 12.5-1.5-12.5h-3.6l2.5 15.2h4.6l2-11.6 1.9 11.6h4.6l2.6-15.2zm7.5 0l-4.6 15.2h3.7l.8-3.3h4.4l.8 3.3h3.8l-4.6-15.2h-4.3zm.5 9.3l1.6-6.7 1.6 6.7h-3.2zm20.1-2.2c.5-.6.7-1.5.7-2.4 0-1.6-.5-2.7-1.6-3.5-1-.8-2.6-1.1-4.7-1.1h-5v15.2h3.6v-5.8h1.4l3.1 5.8h4.1l-3.9-6.5c1-.5 1.8-1.1 2.3-1.7zm-3.7-.7c-.4.4-1 .5-1.8.5h-1.5v-4.4h1.3c.9 0 1.6.2 2 .5.4.3.6.9.6 1.6 0 .8-.2 1.4-.6 1.8zm15.6-3.8l.4-2.6h-9.3v15.2h9.3v-2.6h-5.8v-3.9h4.7v-2.5h-4.7v-3.6zM104.5 355.8c.7-.3 1.3-.7 1.8-1.2l-1.1-1.3c-.6.4-1.1.7-1.5.9-.5.2-1 .3-1.7.3-1.3 0-2.3-.5-3-1.5s-1.1-2.5-1.1-4.6c0-2.1.4-3.7 1.2-4.6.8-1 1.8-1.4 3-1.4 1 0 2 .4 2.9 1.1l1.1-1.3c-.6-.5-1.3-.9-1.9-1.1-.6-.2-1.4-.4-2.3-.4-1.2 0-2.2.3-3.2.9-.9.6-1.7 1.5-2.3 2.7-.6 1.2-.8 2.6-.8 4.2s.3 3.1.8 4.2c.5 1.2 1.3 2.1 2.2 2.7s2 .9 3.3.9c1 0 1.8-.2 2.6-.5zm6.7-15.5c0-.4-.1-.7-.4-1-.3-.3-.6-.4-1-.4s-.7.1-1 .4c-.3.3-.4.6-.4 1s.1.7.4 1 .6.4 1 .4.8-.1 1-.4c.3-.3.4-.6.4-1zm-2.4 4.2h2v11.6h-2zm10.5 1.4c.5 0 .9.1 1.3.2s.8.4 1.2.7l1-1.3c-.5-.4-1.1-.8-1.6-1-.6-.2-1.2-.3-1.9-.3-1 0-1.9.3-2.7.8-.8.5-1.3 1.2-1.7 2.1-.4.9-.6 2-.6 3.2 0 1.9.5 3.3 1.3 4.4s2.1 1.6 3.7 1.6c1.3 0 2.5-.4 3.5-1.3l-1-1.4c-.4.3-.8.6-1.2.7-.4.1-.8.2-1.3.2-1 0-1.7-.3-2.2-1-.5-.7-.8-1.8-.8-3.2 0-1.5.3-2.6.8-3.3s1.2-1.1 2.2-1.1zm6-6.1v13.9c0 .8.2 1.5.6 1.9s1 .6 1.7.6c.6 0 1.2-.1 1.7-.4l-.5-1.4c-.2.1-.5.1-.7.1-.3 0-.4-.1-.6-.2-.1-.1-.2-.4-.2-.7v-14.1l-2 .3zm10.7 4.4c-1.1 0-2 .3-2.8.8-.8.5-1.4 1.2-1.8 2.1s-.6 2-.6 3.2c0 1.9.5 3.3 1.4 4.4.9 1.1 2.2 1.6 3.8 1.6 1.1 0 2-.3 2.8-.8.8-.5 1.4-1.2 1.8-2.1.4-.9.6-2 .6-3.2 0-1.9-.4-3.3-1.3-4.4-1-1-2.3-1.6-3.9-1.6zm0 10.5c-2 0-3-1.5-3-4.4 0-3 1-4.4 3-4.4s3 1.5 3 4.4c-.1 2.9-1.1 4.4-3 4.4zm13-.5c-.5.3-1.1.5-1.8.5-1.2 0-2.3-.4-3.2-1.2l-1.1 1.3c1.2 1 2.6 1.5 4.4 1.5 1.3 0 2.3-.3 3.2-.9.9-.6 1.3-1.5 1.3-2.6 0-1-.3-1.7-1-2.3-.6-.6-1.6-1-2.9-1.3-.9-.2-1.6-.5-1.9-.8s-.5-.6-.5-1.1.2-.8.6-1.1.9-.4 1.6-.4c.5 0 1 .1 1.5.3s1 .4 1.5.8l.9-1.3c-.6-.4-1.2-.8-1.8-1-.6-.2-1.3-.3-2.1-.3s-1.5.1-2.1.4-1.1.6-1.5 1.1c-.4.5-.5 1-.5 1.6 0 .8.3 1.5.8 2.1s1.4 1 2.7 1.3c.8.2 1.4.4 1.7.6.4.2.7.4.8.7.2.3.2.6.2 1-.1.4-.3.8-.8 1.1zm15.1 2.1c.7 0 1.3-.2 1.9-.5.6-.3 1-.8 1.4-1.4l.2 1.6h1.8v-16.2l-2-.2v6c-.9-.9-1.9-1.4-3.1-1.4-.9 0-1.7.3-2.4.8s-1.2 1.2-1.6 2.2-.5 2-.5 3.2c0 1.8.4 3.3 1.2 4.4.7 1 1.7 1.5 3.1 1.5zm-1.4-9.4c.5-.7 1.2-1.1 2.1-1.1.5 0 1 .1 1.5.4.4.3.8.6 1.2 1.1v5.7c-.4.6-.8 1-1.3 1.3-.4.3-1 .4-1.6.4-.8 0-1.5-.4-2-1.1-.5-.7-.7-1.8-.7-3.3 0-1.5.3-2.6.8-3.4zm14.6-2.7c-1 0-1.8.3-2.6.8-.7.5-1.3 1.3-1.7 2.2-.4.9-.6 2-.6 3.2 0 1.8.5 3.3 1.3 4.3s2.2 1.6 3.8 1.6c1.5 0 2.8-.5 4-1.4l-.9-1.2c-.5.4-1 .6-1.5.8-.5.2-1 .2-1.5.2-.9 0-1.6-.3-2.1-.9-.6-.6-.9-1.5-1-2.8h7.4v-1c0-1.8-.4-3.2-1.2-4.2-.7-1.1-1.8-1.6-3.4-1.6zm2.8 5.3h-5.4c.1-2.4 1-3.6 2.7-3.6.9 0 1.6.3 2 .9.5.6.7 1.5.7 2.6v.1zM73.7 373.9c.8-.9 1.4-1.8 1.7-2.5s.5-1.5.5-2.3c0-.8-.2-1.5-.6-2.1-.4-.6-1-1.2-1.8-1.5-.8-.4-1.7-.6-2.8-.6s-2 .2-2.9.7c-.9.5-1.6 1.1-2.2 1.9l2.1 1.6c.4-.5.9-.9 1.3-1.2s.9-.4 1.4-.4c.6 0 1 .2 1.4.5.3.3.5.8.5 1.4 0 .6-.2 1.2-.5 1.8-.3.6-.9 1.3-1.7 2.2-.8.9-2.1 2.2-3.9 4v2.5h9.6l.4-2.7h-6.1c1.6-1.2 2.8-2.4 3.6-3.3zm12.6 2.9h4.4l.8 3.3h3.8l-4.6-15.2h-4.4L81.8 380h3.7l.8-3.2zm2.2-9.3l1.6 6.7h-3.2l1.6-6.7zm16.5-2.7l-4.2 9.7v2.3h6.3v3.2h3.4v-3.2h1.6v-2.6h-1.6v-3.5h-3l-.4 3.5h-2.7l3.6-8.3zm16.3.2c-.8.4-1.5.9-2 1.5s-.7 1.4-.7 2.3c0 1.1.4 2.1 1.1 2.8.7.7 1.9 1.4 3.6 1.9.7.2 1.3.5 1.7.7.4.2.7.4.8.7s.2.6.2 1c0 .6-.2 1-.6 1.4-.4.3-1 .5-1.8.5-1.4 0-2.7-.5-3.8-1.5l-1.8 2c.7.7 1.5 1.2 2.5 1.6s2.1.6 3.3.6 2.3-.2 3.2-.6 1.6-1 2.1-1.7.7-1.6.7-2.5c0-1.3-.4-2.4-1.1-3.1-.7-.7-1.9-1.3-3.4-1.8-.8-.3-1.4-.5-1.8-.7-.4-.2-.7-.4-.9-.6s-.2-.5-.2-.8c0-.5.2-.9.5-1.1.4-.3.9-.4 1.5-.4 1.2 0 2.3.4 3.3 1.3l1.7-2c-.7-.7-1.5-1.1-2.3-1.5-.8-.3-1.8-.5-3-.5-1 0-2 .1-2.8.5zm19.4 2.4l.4-2.6h-9.3V380h9.3v-2.6h-5.7v-3.8h4.6V371h-4.6v-3.6zm5.4 12.6l.3-5.9c0-.9.1-1.7.1-2.6 0-1.2 0-2.4-.1-3.7l2.5 10.5h3.4l2.3-10.5c0 .7-.1 1.5-.1 2.3 0 1.1 0 2.4.1 3.9l.3 5.9h3.5l-1.1-15.2h-4.6l-2.1 10.3-2.3-10.3h-4.5l-1.1 15.2h3.4zm16.6 0l.8-3.3h4.4l.8 3.3h3.8l-4.6-15.2h-4.4L159 380h3.7zm3-12.5l1.6 6.7h-3.2l1.6-6.7zm7.9-2.7V380h3.2v-5.6c0-1.2 0-2.3-.1-3.1-.1-.9-.2-1.9-.3-3.1l4.4 11.8h4.6v-15.2h-3.2v6.1c0 1.8.2 3.7.5 5.7l-4.5-11.8h-4.6zm17.4 0l-4.6 15.2h3.7l.8-3.3h4.4l.8 3.3h3.8l-4.6-15.2H191zm.5 9.4l1.6-6.7 1.6 6.7h-3.2zm15.8 3c-.4.3-1 .5-1.8.5-1.4 0-2.7-.5-3.8-1.5l-1.8 2c.7.7 1.5 1.2 2.5 1.6s2.1.6 3.3.6 2.3-.2 3.2-.6 1.6-1 2.1-1.7.7-1.6.7-2.5c0-1.3-.4-2.4-1.1-3.1-.7-.7-1.9-1.3-3.4-1.8-.8-.3-1.4-.5-1.8-.7-.4-.2-.7-.4-.9-.6s-.2-.5-.2-.8c0-.5.2-.9.5-1.1.4-.3.9-.4 1.5-.4 1.2 0 2.3.4 3.3 1.3l1.7-2c-.7-.7-1.5-1.1-2.3-1.5-.8-.3-1.8-.5-3-.5-1.1 0-2 .2-2.8.5s-1.5.9-2 1.5-.7 1.4-.7 2.3c0 1.1.4 2.1 1.1 2.8.7.7 1.9 1.4 3.6 1.9.7.2 1.3.5 1.7.7.4.2.7.4.8.7s.2.6.2 1c0 .7-.2 1.1-.6 1.4zm-80.1 15.5c-.6.3-1.1.8-1.5 1.3l-.2-1.6h-1.7v16.2l2-.2V403c.7.9 1.7 1.3 3 1.3 1.4 0 2.6-.6 3.4-1.7.8-1.1 1.2-2.6 1.2-4.4 0-1.9-.3-3.4-1-4.5s-1.8-1.6-3.2-1.6c-.7.1-1.4.3-2 .6zm4 5.5c0 2.9-1 4.4-2.8 4.4-.5 0-1-.1-1.4-.4s-.8-.6-1.1-1v-5.6c.4-.5.8-1 1.2-1.3.5-.3 1-.5 1.6-.5 1.7 0 2.5 1.5 2.5 4.4zm7.2-5.2c-.8.5-1.4 1.2-1.8 2.1s-.6 2-.6 3.2c0 1.9.5 3.3 1.4 4.4.9 1.1 2.2 1.6 3.8 1.6 1.1 0 2-.3 2.8-.8.8-.5 1.4-1.2 1.8-2.1.4-.9.6-2 .6-3.2 0-1.9-.4-3.3-1.3-4.4-.9-1.1-2.2-1.6-3.8-1.6-1.2 0-2.1.3-2.9.8zm5.7 5.2c0 3-1 4.4-3 4.4s-3-1.5-3-4.4c0-3 1-4.4 3-4.4 2.1 0 3 1.5 3 4.4zm7.6-.8c.2-1.1.6-1.9 1-2.5.4-.5 1-.8 1.7-.8.3 0 .7 0 1 .1l.4-2c-.4-.1-.7-.1-1.1-.1-.7 0-1.3.2-1.8.7s-.9 1.1-1.2 2l-.2-2.3h-1.7V404h2v-6.6zm-79.1 19.5c-.5.4-.9 1.1-1.2 2l-.2-2.3h-1.7V428h2v-6.6c.2-1.1.6-1.9 1-2.5.4-.5 1-.8 1.7-.8.3 0 .7 0 1 .1l.4-2c-.4-.1-.7-.1-1.1-.1-.8.1-1.4.3-1.9.8zm9-.7c-1 0-1.8.3-2.6.8-.7.5-1.3 1.3-1.7 2.2-.4.9-.6 2-.6 3.2 0 1.8.5 3.3 1.3 4.3s2.2 1.6 3.8 1.6c1.5 0 2.8-.5 4-1.4l-.9-1.2c-.5.4-1 .6-1.5.8-.5.2-1 .2-1.5.2-.9 0-1.6-.3-2.1-.9-.6-.6-.9-1.5-1-2.8h7.4v-1c0-1.8-.4-3.2-1.2-4.2-.7-1.1-1.9-1.6-3.4-1.6zm2.8 5.3H79c.1-2.4 1-3.6 2.7-3.6.9 0 1.6.3 2 .9.5.6.7 1.5.7 2.6v.1zm12.3-3.7c-.9-1-2-1.6-3.2-1.6-.9 0-1.7.3-2.4.8s-1.2 1.2-1.6 2.2c-.4.9-.5 2-.5 3.2 0 1.8.4 3.3 1.2 4.4.8 1.1 1.8 1.6 3.2 1.6.7 0 1.3-.2 1.9-.5.6-.3 1-.8 1.4-1.3v6l2 .2v-16.2H97l-.3 1.2zm-.2 7.2c-.4.6-.8 1-1.3 1.3s-1 .4-1.6.4c-.8 0-1.5-.4-2-1.1-.5-.7-.7-1.8-.7-3.3 0-1.5.2-2.6.7-3.3.5-.7 1.2-1.1 2.1-1.1.5 0 1 .1 1.5.4.4.3.8.6 1.2 1.1v5.6zm12.8-.3c-.8 1.3-1.8 2-2.9 2-.6 0-1.1-.2-1.4-.5-.3-.3-.4-.9-.4-1.7v-8.1h-2v8.3c0 1.1.3 2 .9 2.6.6.6 1.4.9 2.4.9.8 0 1.5-.2 2.1-.5.6-.3 1.1-.9 1.5-1.6l.2 1.8h1.7v-11.6h-2v8.4zm13.6.9c-.5.4-1 .6-1.5.8-.5.2-1 .2-1.5.2-.9 0-1.6-.3-2.1-.9-.6-.6-.9-1.5-1-2.8h7.4v-1c0-1.8-.4-3.2-1.2-4.2-.8-1-2-1.5-3.5-1.5-1 0-1.8.3-2.6.8-.7.5-1.3 1.3-1.7 2.2-.4.9-.6 2-.6 3.2 0 1.8.5 3.3 1.3 4.3s2.2 1.6 3.8 1.6c1.5 0 2.8-.5 4-1.4l-.8-1.3zm-3.4-7.8c.9 0 1.6.3 2 .9.5.6.7 1.5.7 2.6v.1h-5.4c.1-2.4 1-3.6 2.7-3.6zm11.2-.9c-.5.4-.9 1.1-1.2 2l-.2-2.3h-1.7V428h2v-6.6c.2-1.1.6-1.9 1-2.5.4-.5 1-.8 1.7-.8.3 0 .7 0 1 .1l.4-2c-.4-.1-.7-.1-1.1-.1-.8.1-1.4.3-1.9.8zm7.7-4.6c0-.4-.1-.7-.4-1-.3-.3-.6-.4-1-.4s-.7.1-1 .4c-.3.3-.4.6-.4 1s.1.7.4 1 .6.4 1 .4.8-.1 1-.4c.3-.3.4-.6.4-1zm-2.4 4.2h2v11.6h-2zm20.9 11.5v-8.3c0-1.1-.3-1.9-.9-2.6-.6-.6-1.3-1-2.3-1-.7 0-1.4.2-1.9.5-.5.4-1 .9-1.5 1.5-.2-.7-.6-1.2-1.1-1.5-.5-.4-1.1-.5-1.8-.5-1.4 0-2.5.7-3.3 2l-.2-1.7h-1.7V428h2v-8.2c.4-.7.9-1.2 1.3-1.5s.9-.5 1.5-.5c1.1 0 1.6.7 1.6 2.2v8h2v-8.2c.5-.7.9-1.2 1.3-1.5.4-.3.9-.5 1.4-.5 1.1 0 1.6.7 1.6 2.2v8h2zm4-11.5h2v11.6h-2zm2.5-4.2c0-.4-.1-.7-.4-1-.3-.3-.6-.4-1-.4s-.7.1-1 .4c-.3.3-.4.6-.4 1s.1.7.4 1 .6.4 1 .4.8-.1 1-.4c.2-.3.4-.6.4-1zm5.1 4.7c-.7.5-1.3 1.3-1.7 2.2-.4.9-.6 2-.6 3.2 0 1.8.5 3.3 1.3 4.3s2.2 1.6 3.8 1.6c1.5 0 2.8-.5 4-1.4l-.9-1.2c-.5.4-1 .6-1.5.8-.5.2-1 .2-1.5.2-.9 0-1.6-.3-2.1-.9-.6-.6-.9-1.5-1-2.8h7.4v-1c0-1.8-.4-3.2-1.2-4.2-.8-1-2-1.5-3.5-1.5-.9-.1-1.7.2-2.5.7zm4.7 1.7c.5.6.7 1.5.7 2.6v.1h-5.4c.1-2.4 1-3.6 2.7-3.6.8 0 1.5.3 2 .9zm9.4-2c-.6.4-1.1.8-1.5 1.4l-.2-1.7h-1.7V428h2v-8.2c.4-.7.8-1.2 1.3-1.5s1-.5 1.6-.5c.6 0 1.1.2 1.4.5s.5.9.5 1.7v8h2v-8.3c0-1.1-.3-2-.9-2.6-.6-.6-1.4-.9-2.5-.9-.7 0-1.4.2-2 .5zm10.4 10.8c.5.6 1.3.8 2.3.8 1 0 1.8-.3 2.6-.8l-.8-1.4c-.5.3-1.1.5-1.5.5-.5 0-.9-.1-1.1-.4-.2-.3-.3-.7-.3-1.3V418h2.5l.2-1.6h-2.7v-2.8l-2 .2v2.6h-2v1.6h2v7c0 1.1.2 1.9.8 2.5zm11.1-11.3c-1.1 0-2 .3-2.8.8-.8.5-1.4 1.2-1.8 2.1s-.6 2-.6 3.2c0 1.9.5 3.3 1.4 4.4.9 1.1 2.2 1.6 3.8 1.6 1.1 0 2-.3 2.8-.8.8-.5 1.4-1.2 1.8-2.1.4-.9.6-2 .6-3.2 0-1.9-.4-3.3-1.3-4.4-1.1-1-2.3-1.6-3.9-1.6zm-.1 10.5c-2 0-3-1.5-3-4.4 0-3 1-4.4 3-4.4s3 1.5 3 4.4c0 2.9-1 4.4-3 4.4z"/></g></svg>