<svg baseProfile="tiny" xmlns="http://www.w3.org/2000/svg" viewBox="0 0 1215.8 493.7"><path fill="#FFF" d="M919.6 450l-44.3-41.6.2 23.2H842c24.7-25 40.1-59.7 40.1-97.9 0-76-60.6-137.9-135.2-137.9-11.4 0-22.4 1.4-33 4.2-17.9-.2-32.5-14.8-32.5-32.8 0-18.1 14.7-32.8 32.8-32.8 13.1 0 25 7.9 30.1 19.8l-5.6.1 15.4 15.3 14.3-15.9-8.4.2-.7-2.3-.2-.5c-6.8-19-24.9-31.7-45-31.7h-1.3c18.4-11.4 30.6-31.7 30.6-54.8C743.4 29 714.5.1 678.9.1S614.4 29 614.4 64.6s28.9 64.5 64.5 64.5c2.3 0 4.6-.1 6.9-.4-11.8 8.7-19.5 22.7-19.5 38.5 0 17.6 9.6 33 23.8 41.3-46.3 21.9-78.6 69.8-78.6 125.2 0 5.5.3 11 1 16.4l-22.3 8.8 54.1 23.8 14.4-35.9c6.3 41.6 42.2 73.6 85.3 73.6 47.6 0 86.3-38.9 86.3-86.8s-38.7-86.8-86.3-86.8c-47.1 0-85.5 38.1-86.3 85.2l-6.2 2.4v-.9c0-54 42.7-97.9 95.2-97.9s95.2 43.9 95.2 97.9-42.7 97.9-95.2 97.9v40h128.8l.2 22.1 43.9-43.5zm-301-385.5c0-33.4 27.1-60.5 60.5-60.5s60.5 27.1 60.5 60.5-27.2 60.5-60.5 60.5-60.5-27.1-60.5-60.5zm125.7 186.4c45.4 0 82.3 37.1 82.3 82.8s-36.9 82.8-82.3 82.8c-43.6 0-79.5-34.3-82.2-77.5l4-10-4.1 1.6c1.7-44.3 37.9-79.7 82.3-79.7zm316 208.8c-.9-.9-2.2-.7-3.4 0-4.6 2.8-9.1 5.6-13.8 8.3-1.3.7-2.8 1.3-4.3 1.4-3.4.2-6.7.1-10.1.1-.5 0-1-.4-1.4-.7.5-.2 1-.6 1.5-.7 3-.1 6.1-.2 9.1-.2h1c1.5-.1 2.5-1.1 2.6-2.5 0-1.4-.9-2.5-2.5-2.6-6.5-.3-12.7-1.7-19-3.4-2.9-.8-6.2-.3-9.3-.1-1.2.1-2.3.7-3.4-.5-.3-.3-1-.4-1.6-.3-1.9 0-3.9.1-5.8.3-2 .2-3.2 1.4-3.2 3.5 0 2 .2 6 .3 6 .1 2.2.3 4.4.4 6.6.1 1.6.9 2.9 2.3 3 3.1.2 6.4.9 9.3-1.1.2-.2.6-.2.9-.1 8.9.6 17.8 1.3 26.7 1.8 2.9.2 5.7-.9 8.1-2.5 5.3-3.6 10.5-7.3 15.7-11 .6-.5 1.4-1.4 1.3-2.1-.1-1.3-.7-2.5-1.4-3.2zm-57.8 15.8c-1.2 0-2.2-1-2.2-2.2 0-1.2 1-2.2 2.2-2.2s2.2 1 2.2 2.2c-.1 1.3-1 2.2-2.2 2.2z"/><path fill="#FFF" d="M1043.4 465.7c-.2-1.1-.4-1.9-.6-2.8 3-1.5 6-3.2 9-4.6.8-.4 1.8-.1 2.8-.1.1.2.1.4.2.6-3.8 2.3-7.5 4.5-11.4 6.9zm5.6-7.9c-2.4 1.2-4.7 2.5-7.2 3.5-.8.3-2-.3-3-.7 3.4-1 6.3-3.4 10-3.3.1.1.1.3.2.5z"/><path fill="#FFF" d="M1215.8 492.9H955v-82.8h260.8v82.8zm-256.8-4h252.8v-74.8H959v74.8zm-415.2 4H303v-82.8h240.8v82.8zm-236.8-4h232.8v-74.8H307v74.8zm-66.2 4H0v-82.8h240.8v82.8zM4 488.9h232.8v-74.8H4v74.8z"/><path fill="#FFF" d="M59.6 441.6v4.8h-3v-12.5h4.1c1.7 0 3 .3 3.8.9.9.6 1.3 1.6 1.3 2.9 0 .8-.2 1.5-.6 2-.4.5-1 1-1.8 1.4l3.2 5.3h-3.3l-2.6-4.8h-1.1zm1.2-2c.7 0 1.2-.2 1.5-.5.3-.3.5-.8.5-1.4 0-.6-.2-1-.5-1.3-.4-.3-.9-.4-1.6-.4h-1.1v3.6h1.2zm9.9-3.6v3h3.8v2.1h-3.8v3.2h4.7v2.1h-7.6v-12.5h7.6l-.3 2.1h-4.4zm16.3 9.9c.6.2 1.1.5 1.7.9l-1.8 2.3c-.7-.8-1.4-1.4-2.1-1.8-.7-.4-1.6-.6-2.7-.6s-2.1-.3-2.9-.8-1.4-1.3-1.9-2.2c-.4-1-.7-2.1-.7-3.5 0-1.3.2-2.5.7-3.5.5-1 1.1-1.7 1.9-2.3.8-.5 1.8-.8 3-.8 1.8 0 3.2.6 4.1 1.7 1 1.1 1.5 2.7 1.5 4.8 0 2.5-1 4.4-2.9 5.4.8.1 1.5.2 2.1.4zm-6.6-2.4c.4.7 1.1 1 1.9 1 .9 0 1.5-.3 1.9-1 .4-.7.6-1.8.6-3.4s-.2-2.7-.6-3.3c-.4-.7-1.1-1-1.9-1s-1.5.3-1.9 1-.6 1.8-.6 3.3.1 2.7.6 3.4zm18.2 1.1c-.4.7-.9 1.2-1.6 1.6-.7.4-1.6.6-2.7.6-1.6 0-2.8-.4-3.6-1.2-.8-.8-1.2-1.9-1.2-3.2v-8.3h3v8.2c0 .8.2 1.4.5 1.8.3.4.8.6 1.4.6.7 0 1.2-.2 1.5-.6.3-.4.5-1 .5-1.8v-8.2h3v8.3c-.2.7-.4 1.5-.8 2.2zm5.7-8.6v3h3.8v2.1h-3.8v3.2h4.7v2.1h-7.6v-12.5h7.6l-.3 2.1h-4.4zm9.5 5.6v4.8h-3v-12.5h4.1c1.7 0 3 .3 3.8.9.9.6 1.3 1.6 1.3 2.9 0 .8-.2 1.5-.6 2-.4.5-1 1-1.8 1.4l3.2 5.3h-3.3l-2.6-4.8h-1.1zm1.2-2c.7 0 1.2-.2 1.5-.5.3-.3.5-.8.5-1.4 0-.6-.2-1-.5-1.3-.4-.3-.9-.4-1.6-.4h-1.1v3.6h1.2zm6.9 6.8v-12.5h3v12.5h-3zm14.8 0l-.2-4.9c-.1-1.2-.1-2.3-.1-3.2 0-.7 0-1.3.1-1.9l-1.9 8.7h-2.8l-2.1-8.7c.1 1.1.1 2.1.1 3 0 .7 0 1.4-.1 2.1l-.2 4.8h-2.9l.9-12.5h3.7l1.9 8.5 1.7-8.5h3.7l.9 12.5h-2.7zm4.8 0v-12.5h3v12.5h-3zm8.2-10.4v3h3.8v2.1h-3.8v3.2h4.7v2.1h-7.6v-12.5h7.6l-.3 2.1h-4.4zm12.4 10.4l-3.6-9.7c.1.9.2 1.8.3 2.5.1.7.1 1.6.1 2.6v4.6h-2.6v-12.5h3.7l3.7 9.7c-.3-1.6-.4-3.2-.4-4.6v-5h2.6v12.5h-3.8zm11.3-10.2v10.2h-3v-10.2h-3.2v-2.3h9.5l-.3 2.3h-3zm13-.9c1 1.1 1.5 2.7 1.5 4.8 0 1.4-.2 2.5-.7 3.5-.4 1-1.1 1.7-1.9 2.3-.8.5-1.9.8-3 .8s-2.2-.3-3-.8c-.8-.5-1.5-1.3-1.9-2.2-.5-1-.7-2.2-.7-3.5 0-1.3.2-2.5.7-3.5.5-1 1.1-1.7 1.9-2.3.8-.5 1.8-.8 3-.8 1.8 0 3.2.6 4.1 1.7zm-6 1.5c-.4.7-.6 1.8-.6 3.3s.2 2.7.6 3.3c.4.7 1.1 1 1.9 1 .9 0 1.5-.3 1.9-1 .4-.7.6-1.8.6-3.4s-.2-2.7-.6-3.3c-.4-.7-1.1-1-1.9-1s-1.5.4-1.9 1.1zm-88.6 33.6h-1.3l-.1-1.2c-.3.4-.6.8-1 1s-.9.4-1.4.4c-1 0-1.8-.4-2.3-1.2-.6-.8-.8-1.9-.8-3.2 0-.9.1-1.6.4-2.3.3-.7.7-1.2 1.2-1.6.5-.4 1.1-.6 1.8-.6.9 0 1.6.3 2.3 1v-4.4l1.5.2v11.9zm-2.4-1.3c.3-.2.6-.5.9-.9v-4.1c-.3-.4-.6-.6-.9-.8-.3-.2-.7-.3-1.1-.3-.7 0-1.2.3-1.5.8s-.5 1.4-.5 2.4c0 1.1.2 1.9.5 2.4s.8.8 1.4.8c.5 0 .8-.1 1.2-.3zm11.6-2.4h-5.4c.1.9.3 1.6.7 2 .4.4.9.7 1.6.7.4 0 .8-.1 1.1-.2.3-.1.7-.3 1.1-.6l.6.9c-.9.7-1.9 1.1-2.9 1.1-1.2 0-2.1-.4-2.7-1.2s-1-1.8-1-3.2c0-.9.1-1.7.4-2.3.3-.7.7-1.2 1.2-1.6.5-.4 1.1-.6 1.9-.6 1.1 0 2 .4 2.6 1.1.6.7.9 1.8.9 3.1-.1.3-.1.5-.1.8zm-1.4-1.2c0-.8-.2-1.5-.5-1.9s-.8-.7-1.5-.7c-1.2 0-1.9.9-2 2.7l4-.1zm5.4 3.7c.1.1.2.2.4.2s.4 0 .5-.1l.4 1c-.4.2-.8.3-1.2.3-.5 0-1-.2-1.2-.5s-.4-.8-.4-1.4v-10.2l1.5-.2v10.3c-.2.3-.1.5 0 .6zm11.8-7.2c.4.1.8.4 1.2.7l-.7 1c-.3-.2-.6-.4-.8-.5-.3-.1-.6-.2-.9-.2-.7 0-1.2.3-1.6.8-.4.5-.6 1.3-.6 2.4s.2 1.9.6 2.4c.4.5.9.8 1.6.8.3 0 .6-.1.9-.2s.6-.3.9-.5l.7 1c-.8.6-1.6.9-2.6.9-1.1 0-2-.4-2.7-1.2s-1-1.8-1-3.2c0-.9.1-1.7.4-2.4s.7-1.2 1.3-1.6c.5-.4 1.2-.6 2-.6.4.2.9.3 1.3.4zm4.7 7.2c.1.1.2.2.4.2s.4 0 .5-.1l.4 1c-.4.2-.8.3-1.2.3-.5 0-1-.2-1.2-.5s-.4-.8-.4-1.4v-10.2l1.5-.2v10.3c-.1.3-.1.5 0 .6zm4.7-11c.2.2.3.4.3.7s-.1.5-.3.7c-.2.2-.4.3-.8.3-.3 0-.5-.1-.7-.3s-.3-.4-.3-.7.1-.5.3-.7c.2-.2.4-.3.7-.3.3 0 .6.1.8.3zm-1.5 12.2V462h1.5v8.4h-1.5zm10.9-3.7h-5.4c.1.9.3 1.6.7 2 .4.4.9.7 1.6.7.4 0 .8-.1 1.1-.2.3-.1.7-.3 1.1-.6l.6.9c-.9.7-1.9 1.1-2.9 1.1-1.2 0-2.1-.4-2.7-1.2s-1-1.8-1-3.2c0-.9.1-1.7.4-2.3.3-.7.7-1.2 1.2-1.6.5-.4 1.1-.6 1.9-.6 1.1 0 2 .4 2.6 1.1.6.7.9 1.8.9 3.1-.1.3-.1.5-.1.8zm-1.5-1.2c0-.8-.2-1.5-.5-1.9s-.8-.7-1.5-.7c-1.2 0-1.9.9-2 2.7l4-.1zm9.7-3c.4.5.6 1.1.6 1.9v6H143v-5.8c0-.6-.1-1-.3-1.3-.2-.2-.6-.4-1-.4s-.8.1-1.2.4c-.3.3-.7.6-1 1.1v6H138V462h1.3l.1 1.2c.3-.4.7-.8 1.1-1.1.4-.3.9-.4 1.5-.4.8.1 1.4.3 1.8.8zm6 8.1c-.7 0-1.3-.2-1.7-.6-.4-.4-.6-1-.6-1.8v-5.1H146V462h1.5v-1.9l1.5-.2v2.1h2l-.2 1.1H149v5c0 .4.1.8.2 1 .2.2.4.3.8.3s.7-.1 1.1-.4l.6 1c-.6.4-1.2.6-1.9.6zm9.5-3.9H154c.1.9.3 1.6.7 2 .4.4.9.7 1.6.7.4 0 .8-.1 1.1-.2.3-.1.7-.3 1.1-.6l.6.9c-.9.7-1.9 1.1-2.9 1.1-1.2 0-2.1-.4-2.7-1.2s-1-1.8-1-3.2c0-.9.1-1.7.4-2.3.3-.7.7-1.2 1.2-1.6.5-.4 1.1-.6 1.9-.6 1.1 0 2 .4 2.6 1.1.6.7.9 1.8.9 3.1-.1.3-.1.5-.2.8zm-1.4-1.2c0-.8-.2-1.5-.5-1.9s-.8-.7-1.5-.7c-1.2 0-1.9.9-2 2.7l4-.1zm216.8-21.8l-.6 2.7H371l3.8-12.5h3.6l3.8 12.5H379l-.6-2.7h-3.7zm1.8-7.6l-1.3 5.5h2.6l-1.3-5.5zm13.2-2.1c.6.2 1.2.6 1.7 1l-1.4 1.7c-.7-.6-1.4-.9-2.2-.9-.8 0-1.5.4-2 1.1s-.7 1.8-.7 3.3c0 1.5.2 2.5.7 3.2s1.2 1.1 2 1.1c.4 0 .8-.1 1.2-.3.4-.2.8-.4 1.2-.8l1.3 1.7c-.5.5-1 .8-1.7 1.1-.7.3-1.4.5-2.2.5-1.2 0-2.2-.3-3-.8s-1.5-1.3-2-2.2c-.5-1-.7-2.2-.7-3.6s.2-2.5.7-3.5c.5-1 1.2-1.7 2-2.2.8-.5 1.8-.8 2.9-.8.8 0 1.6.1 2.2.4zm8.3 2.2v10.2h-3v-10.2h-3.2v-2.3h9.5l-.3 2.3h-3zm4.6 10.2v-12.5h3v12.5h-3zm7.4 0l-3.6-12.5h3.1l2.4 10.2 2.2-10.2h3l-3.5 12.5H410zm8.1 0v-12.5h3v12.5h-3zm13.5-11.1c1.2.9 1.8 2.5 1.8 4.9 0 2.3-.6 3.9-1.7 4.9-1.2.9-2.6 1.4-4.5 1.4h-3.7V434h3.5c1.8-.1 3.4.4 4.6 1.3zm-5.2 9h1c1 0 1.7-.3 2.2-.9.5-.6.8-1.7.8-3.2 0-1.1-.1-1.9-.4-2.5s-.6-1-1-1.2c-.4-.2-1-.3-1.6-.3h-.9v8.1zm10.5-.6l-.6 2.7h-3.1l3.8-12.5h3.6l3.8 12.5h-3.1l-.6-2.7h-3.8zm1.8-7.6l-1.3 5.5h2.6l-1.3-5.5zm14.7-.8c1.2.9 1.8 2.5 1.8 4.9 0 2.3-.6 3.9-1.7 4.9-1.2.9-2.6 1.4-4.5 1.4h-3.7V434h3.5c1.8-.1 3.4.4 4.6 1.3zm-5.2 9h1c1 0 1.7-.3 2.2-.9.5-.6.8-1.7.8-3.2 0-1.1-.1-1.9-.4-2.5s-.6-1-1-1.2c-.4-.2-1-.3-1.6-.3h-.9v8.1zm11.7-8.3v3h3.8v2.1h-3.8v3.2h4.7v2.1H457v-12.5h7.6l-.3 2.1h-4.4zm12.9-2c.7.3 1.3.7 1.9 1.2l-1.4 1.6c-.8-.7-1.7-1-2.7-1-.5 0-.9.1-1.2.3s-.4.5-.4.9c0 .3.1.5.2.7s.4.3.7.5c.3.2.8.3 1.5.6 1.3.4 2.2.9 2.8 1.5s.9 1.4.9 2.5c0 .8-.2 1.5-.6 2.1s-1 1.1-1.7 1.4c-.7.3-1.6.5-2.6.5s-1.9-.2-2.7-.5c-.8-.3-1.5-.8-2-1.3l1.5-1.7c.9.8 2 1.2 3.1 1.2.6 0 1.1-.1 1.4-.4.4-.3.5-.6.5-1.1 0-.3-.1-.6-.2-.8s-.4-.4-.7-.6c-.3-.2-.8-.3-1.4-.5-1.4-.4-2.4-.9-2.9-1.5-.6-.6-.9-1.4-.9-2.3 0-.7.2-1.4.6-1.9.4-.5.9-1 1.6-1.3.7-.3 1.5-.4 2.3-.4.9-.1 1.7.1 2.4.3zm-85.3 28.9c.5.8.8 1.9.8 3.2 0 1.3-.3 2.4-.9 3.2-.6.8-1.4 1.2-2.4 1.2-.9 0-1.7-.3-2.2-1v4l-1.5.2V462h1.3l.1 1.1c.3-.4.7-.8 1.1-1 .4-.2.9-.3 1.4-.3 1 0 1.8.4 2.3 1.1zm-.8 3.3c0-2.2-.6-3.2-1.9-3.2-.4 0-.8.1-1.1.4-.3.2-.6.6-.9.9v4.1c.2.3.5.6.8.8.3.2.7.3 1.1.3 1.3-.1 2-1.2 2-3.3zm9.9 3c.1.2.3.3.5.4l-.3 1c-.4-.1-.8-.2-1.1-.4-.3-.2-.5-.5-.6-.9-.6.8-1.4 1.3-2.5 1.3-.8 0-1.5-.2-2-.7-.5-.5-.7-1.1-.7-1.8 0-.9.3-1.6 1-2.1.6-.5 1.6-.7 2.7-.7h1.3v-.6c0-.6-.1-1-.4-1.3s-.7-.4-1.3-.4c-.6 0-1.4.1-2.3.4l-.4-1.1c1-.4 2-.6 2.9-.6 1 0 1.7.2 2.2.7.5.5.7 1.2.7 2.1v3.9c.2.4.2.6.3.8zm-1.6-1v-1.9h-1.1c-1.6 0-2.3.6-2.3 1.7 0 .5.1.9.4 1.1.2.3.6.4 1.1.4.7 0 1.4-.4 1.9-1.3zm8.3-6.2c.5.2.9.4 1.3.7l-.6 1c-.4-.3-.7-.5-1.1-.6-.3-.1-.7-.2-1.1-.2-.5 0-.9.1-1.1.3-.3.2-.4.5-.4.8 0 .3.1.6.4.8.3.2.7.4 1.4.6.9.2 1.6.6 2.1 1s.7 1 .7 1.7c0 .8-.3 1.5-1 1.9s-1.4.7-2.4.7c-1.3 0-2.3-.4-3.2-1.1l.8-.9c.7.6 1.4.8 2.3.8.5 0 1-.1 1.3-.3.3-.2.5-.5.5-.9 0-.3-.1-.5-.2-.7-.1-.2-.3-.3-.6-.5-.3-.1-.7-.3-1.3-.4-.9-.2-1.5-.6-1.9-1-.4-.4-.6-.9-.6-1.5 0-.4.1-.8.4-1.2.3-.4.6-.6 1.1-.8s1-.3 1.6-.3c.7-.1 1.2 0 1.6.1zm9.6 1c.7.8 1 1.9 1 3.2 0 .9-.1 1.6-.4 2.3-.3.7-.7 1.2-1.3 1.6-.6.4-1.2.6-2 .6-1.2 0-2.1-.4-2.8-1.2-.7-.8-1-1.9-1-3.2 0-.9.1-1.6.4-2.3.3-.7.7-1.2 1.3-1.6s1.2-.6 2-.6c1.2 0 2.1.4 2.8 1.2zm-5 3.2c0 2.1.7 3.2 2.2 3.2s2.2-1.1 2.2-3.2-.7-3.2-2.2-3.2c-1.4 0-2.2 1-2.2 3.2zm18.5 3c.1.2.3.3.5.4l-.3 1c-.4-.1-.8-.2-1.1-.4-.3-.2-.5-.5-.6-.9-.6.8-1.4 1.3-2.5 1.3-.8 0-1.5-.2-2-.7-.5-.5-.7-1.1-.7-1.8 0-.9.3-1.6 1-2.1.6-.5 1.6-.7 2.7-.7h1.3v-.6c0-.6-.1-1-.4-1.3s-.7-.4-1.3-.4c-.6 0-1.4.1-2.3.4l-.4-1.1c1-.4 2-.6 2.9-.6 1 0 1.7.2 2.2.7.5.5.7 1.2.7 2.1v3.9c.1.4.2.6.3.8zm-1.6-1v-1.9h-1.1c-1.6 0-2.3.6-2.3 1.7 0 .5.1.9.4 1.1.2.3.6.4 1.1.4.7 0 1.4-.4 1.9-1.3zm14.9-5.3c.5.8.8 1.9.8 3.2 0 1.3-.3 2.4-.9 3.2-.6.8-1.4 1.2-2.4 1.2-.9 0-1.7-.3-2.2-1v4l-1.5.2V462h1.3l.1 1.1c.3-.4.7-.8 1.1-1 .4-.2.9-.3 1.4-.3 1 0 1.8.4 2.3 1.1zm-.8 3.3c0-2.2-.6-3.2-1.9-3.2-.4 0-.8.1-1.1.4-.3.2-.6.6-.9.9v4.1c.2.3.5.6.8.8.3.2.7.3 1.1.3 1.3-.1 2-1.2 2-3.3zm9.9 3c.1.2.3.3.5.4l-.3 1c-.4-.1-.8-.2-1.1-.4-.3-.2-.5-.5-.6-.9-.6.8-1.4 1.3-2.5 1.3-.8 0-1.5-.2-2-.7-.5-.5-.7-1.1-.7-1.8 0-.9.3-1.6 1-2.1.6-.5 1.6-.7 2.7-.7h1.3v-.6c0-.6-.1-1-.4-1.3s-.7-.4-1.3-.4c-.6 0-1.4.1-2.3.4l-.4-1.1c1-.4 2-.6 2.9-.6 1 0 1.7.2 2.2.7.5.5.7 1.2.7 2.1v3.9c.2.4.2.6.3.8zm-1.6-1v-1.9h-1.1c-1.6 0-2.3.6-2.3 1.7 0 .5.1.9.4 1.1.2.3.6.4 1.1.4.8 0 1.4-.4 1.9-1.3zm8.3-6.2c.5.2.9.4 1.3.7l-.6 1c-.4-.3-.7-.5-1.1-.6-.3-.1-.7-.2-1.1-.2-.5 0-.9.1-1.1.3-.3.2-.4.5-.4.8 0 .3.1.6.4.8.3.2.7.4 1.4.6.9.2 1.6.6 2.1 1s.7 1 .7 1.7c0 .8-.3 1.5-1 1.9s-1.4.7-2.4.7c-1.3 0-2.3-.4-3.2-1.1l.8-.9c.7.6 1.4.8 2.3.8.5 0 1-.1 1.3-.3.3-.2.5-.5.5-.9 0-.3-.1-.5-.2-.7-.1-.2-.3-.3-.6-.5-.3-.1-.7-.3-1.3-.4-.9-.2-1.5-.6-1.9-1-.4-.4-.6-.9-.6-1.5 0-.4.1-.8.4-1.2.3-.4.6-.6 1.1-.8s1-.3 1.6-.3c.7-.1 1.2 0 1.6.1zm9.6 1c.7.8 1 1.9 1 3.2 0 .9-.1 1.6-.4 2.3-.3.7-.7 1.2-1.3 1.6-.6.4-1.2.6-2 .6-1.2 0-2.1-.4-2.8-1.2-.7-.8-1-1.9-1-3.2 0-.9.1-1.6.4-2.3.3-.7.7-1.2 1.3-1.6s1.2-.6 2-.6c1.2 0 2.1.4 2.8 1.2zm-5 3.2c0 2.1.7 3.2 2.2 3.2s2.2-1.1 2.2-3.2-.7-3.2-2.2-3.2c-1.4 0-2.2 1-2.2 3.2zM718.6 302c.5.2.9.4 1.4.8l-.8 1c-.7-.5-1.4-.8-2.1-.8-.9 0-1.7.4-2.2 1.1-.6.7-.8 1.8-.8 3.4 0 1.5.3 2.6.8 3.4.6.7 1.3 1.1 2.2 1.1.5 0 .9-.1 1.2-.2.3-.2.7-.4 1.1-.7l.8 1c-.3.4-.8.6-1.3.9-.5.2-1.2.4-1.8.4-.9 0-1.7-.2-2.4-.7s-1.2-1.1-1.6-2c-.4-.9-.6-1.9-.6-3.1 0-1.2.2-2.2.6-3.1.4-.9 1-1.5 1.6-1.9s1.5-.7 2.3-.7c.6-.2 1.1-.1 1.6.1zm4.8-1.3c.2.2.3.4.3.7s-.1.5-.3.7c-.2.2-.4.3-.8.3-.3 0-.5-.1-.7-.3-.2-.2-.3-.4-.3-.7s.1-.5.3-.7c.2-.2.4-.3.7-.3.4 0 .6.1.8.3zm-1.5 12.2v-8.4h1.5v8.4h-1.5zm9-8.4c.4.1.8.4 1.2.7l-.7 1c-.3-.2-.6-.4-.8-.5s-.6-.2-.9-.2c-.7 0-1.2.3-1.6.8s-.6 1.3-.6 2.4.2 1.9.6 2.4c.4.5.9.8 1.6.8.3 0 .6-.1.9-.2.3-.1.6-.3.9-.5l.7 1c-.8.6-1.6.9-2.6.9-1.1 0-2-.4-2.7-1.2-.7-.8-1-1.8-1-3.2 0-.9.1-1.7.4-2.4s.7-1.2 1.3-1.6c.5-.4 1.2-.6 2-.6.4.2.9.3 1.3.4zm4.7 7.2c.1.1.2.2.4.2s.4 0 .5-.1l.4 1c-.4.2-.8.3-1.2.3-.5 0-1-.2-1.2-.5s-.4-.8-.4-1.4V301l1.5-.2v10.3c-.1.3-.1.5 0 .6zm9-6.2c.7.8 1 1.9 1 3.2 0 .9-.1 1.6-.4 2.3-.3.7-.7 1.2-1.3 1.6-.6.4-1.2.6-2 .6-1.2 0-2.1-.4-2.8-1.2-.7-.8-1-1.9-1-3.2 0-.9.1-1.6.4-2.3.3-.7.7-1.2 1.3-1.6s1.2-.6 2-.6c1.2 0 2.1.4 2.8 1.2zm-5 3.2c0 2.1.7 3.2 2.2 3.2 1.5 0 2.2-1.1 2.2-3.2s-.7-3.2-2.2-3.2c-1.5 0-2.2 1-2.2 3.2zm12.2-4.2c.5.2.9.4 1.3.7l-.6 1c-.4-.3-.7-.5-1.1-.6-.3-.1-.7-.2-1.1-.2-.5 0-.9.1-1.1.3s-.4.5-.4.8c0 .3.1.6.4.8.3.2.7.4 1.4.6.9.2 1.6.6 2.1 1s.7 1 .7 1.7c0 .8-.3 1.5-1 1.9s-1.4.7-2.4.7c-1.3 0-2.3-.4-3.2-1.1l.8-.9c.7.6 1.4.8 2.3.8.5 0 1-.1 1.3-.3.3-.2.5-.5.5-.9 0-.3-.1-.5-.2-.7s-.3-.3-.6-.5c-.3-.1-.7-.3-1.3-.4-.9-.2-1.5-.6-1.9-1-.4-.4-.6-.9-.6-1.5 0-.4.1-.8.4-1.2.3-.4.6-.6 1.1-.8s1-.3 1.6-.3 1.2 0 1.6.1zm14.4 8.4h-1.3l-.1-1.2c-.3.4-.6.8-1 1s-.9.4-1.4.4c-1 0-1.8-.4-2.3-1.2-.6-.8-.8-1.9-.8-3.2 0-.9.1-1.6.4-2.3.3-.7.7-1.2 1.2-1.6.5-.4 1.1-.6 1.8-.6.9 0 1.6.3 2.3 1v-4.4l1.5.2v11.9zm-2.4-1.3c.3-.2.6-.5.9-.9v-4.1c-.3-.4-.6-.6-.9-.8s-.7-.3-1.1-.3c-.7 0-1.2.3-1.5.8s-.5 1.4-.5 2.4c0 1.1.2 1.9.5 2.4s.8.8 1.4.8c.5 0 .9-.1 1.2-.3zm11.6-2.4H770c.1.9.3 1.6.7 2 .4.4.9.7 1.6.7.4 0 .8-.1 1.1-.2s.7-.3 1.1-.6l.6.9c-.9.7-1.9 1.1-2.9 1.1-1.2 0-2.1-.4-2.7-1.2-.7-.8-1-1.8-1-3.2 0-.9.1-1.7.4-2.3.3-.7.7-1.2 1.2-1.6.5-.4 1.1-.6 1.9-.6 1.1 0 2 .4 2.6 1.1.6.7.9 1.8.9 3.1 0 .3 0 .5-.1.8zM774 308c0-.8-.2-1.5-.5-1.9-.3-.4-.8-.7-1.5-.7-1.2 0-1.9.9-2 2.7l4-.1zm-83.7 17c.6.3 1.1.7 1.4 1.3.3.5.5 1.1.5 1.7 0 .6-.1 1.3-.4 1.9-.3.6-.7 1.3-1.4 2-.7.8-1.7 1.7-2.9 2.9h5l-.3 2.2h-7.9v-2c1.5-1.5 2.5-2.5 3.2-3.3.7-.7 1.1-1.4 1.4-1.8.3-.5.4-1 .4-1.5s-.1-.9-.4-1.2c-.3-.3-.7-.4-1.1-.4-.4 0-.8.1-1.2.3-.3.2-.7.5-1 1l-1.7-1.3c.5-.7 1.1-1.2 1.8-1.5.7-.4 1.5-.6 2.4-.6.8-.2 1.5-.1 2.2.3zm10.4 9.2l-.6 2.7H697l3.8-12.5h3.6l3.8 12.5H705l-.6-2.7h-3.7zm1.9-7.6l-1.3 5.5h2.6l-1.3-5.5zm18 7.7v2.6h-2.8v-2.6h-5.1v-1.9l3.5-8 2.4.9-2.9 6.8h2.2l.3-2.9h2.4v2.9h1.4v2.1h-1.4zm13.6-9.8c.7.3 1.3.7 1.9 1.2l-1.4 1.6c-.8-.7-1.7-1-2.7-1-.5 0-.9.1-1.2.3s-.5.5-.5.9c0 .3.1.5.2.7s.4.3.7.5c.3.2.8.3 1.5.6 1.3.4 2.2.9 2.8 1.5.6.6.9 1.4.9 2.5 0 .8-.2 1.5-.6 2.1-.4.6-1 1.1-1.7 1.4-.7.3-1.6.5-2.6.5s-1.9-.2-2.7-.5c-.8-.3-1.5-.8-2-1.3l1.5-1.7c.9.8 2 1.2 3.1 1.2.6 0 1.1-.1 1.4-.4.4-.3.5-.6.5-1.1 0-.3-.1-.6-.2-.8s-.4-.4-.7-.6c-.3-.2-.8-.3-1.4-.5-1.4-.4-2.4-.9-2.9-1.5-.6-.6-.9-1.4-.9-2.3 0-.7.2-1.4.6-1.9s.9-1 1.6-1.3c.7-.3 1.5-.4 2.3-.4 1-.1 1.8.1 2.5.3zm6.8 2v3h3.8v2.1H741v3.2h4.7v2.1h-7.6v-12.5h7.6l-.3 2.1H741zm16 10.4l-.2-4.9c-.1-1.2-.1-2.3-.1-3.2 0-.7 0-1.3.1-1.9l-1.9 8.7h-2.8l-2.1-8.7c.1 1.1.1 2.1.1 3 0 .7 0 1.4-.1 2.1l-.2 4.8H747l.9-12.5h3.7l1.9 8.5 1.7-8.5h3.7l.9 12.5H757zm7.1-2.7l-.6 2.7h-3.1l3.8-12.5h3.6l3.8 12.5h-3.1l-.6-2.7h-3.8zm1.8-7.6l-1.3 5.5h2.6l-1.3-5.5zm12.4 10.3l-3.6-9.7c.1.9.2 1.8.3 2.5.1.7.1 1.6.1 2.6v4.6h-2.6v-12.5h3.7l3.7 9.7c-.3-1.6-.4-3.2-.4-4.6v-5h2.6V337h-3.8zm8.4-2.7l-.6 2.7H783l3.8-12.5h3.6l3.8 12.5h-3.1l-.6-2.7h-3.8zm1.8-7.6l-1.3 5.5h2.6l-1.3-5.5zm12.9-2.1c.7.3 1.3.7 1.9 1.2l-1.4 1.6c-.8-.7-1.7-1-2.7-1-.5 0-.9.1-1.2.3s-.4.5-.4.9c0 .3.1.5.2.7s.4.3.7.5c.3.2.8.3 1.5.6 1.3.4 2.2.9 2.8 1.5.6.6.9 1.4.9 2.5 0 .8-.2 1.5-.6 2.1-.4.6-1 1.1-1.7 1.4-.7.3-1.6.5-2.6.5s-1.9-.2-2.7-.5c-.8-.3-1.5-.8-2-1.3l1.5-1.7c.9.8 2 1.2 3.1 1.2.6 0 1.1-.1 1.4-.4.4-.3.5-.6.5-1.1 0-.3-.1-.6-.2-.8s-.4-.4-.7-.6-.8-.3-1.4-.5c-1.4-.4-2.4-.9-2.9-1.5-.6-.6-.9-1.4-.9-2.3 0-.7.2-1.4.6-1.9.4-.5.9-1 1.6-1.3s1.5-.4 2.3-.4c.9-.1 1.8.1 2.4.3zm-116.6 28.9c.5.8.8 1.9.8 3.2 0 1.3-.3 2.4-.9 3.2-.6.8-1.4 1.2-2.4 1.2-.9 0-1.7-.3-2.2-1v4l-1.5.2v-11.8h1.3l.1 1.1c.3-.4.7-.8 1.1-1 .4-.2.9-.3 1.4-.3 1 .1 1.8.5 2.3 1.2zm-.8 3.3c0-2.2-.6-3.2-1.9-3.2-.4 0-.8.1-1.1.4l-.9.9v4.1c.2.3.5.6.8.8.3.2.7.3 1.1.3 1.3-.1 2-1.2 2-3.3zm10-3.2c.7.8 1 1.9 1 3.2 0 .9-.1 1.6-.4 2.3-.3.7-.7 1.2-1.3 1.6-.6.4-1.2.6-2 .6-1.2 0-2.1-.4-2.8-1.2-.7-.8-1-1.9-1-3.2 0-.9.1-1.6.4-2.3.3-.7.7-1.2 1.3-1.6s1.2-.6 2-.6c1.2 0 2.1.4 2.8 1.2zm-4.9 3.2c0 2.1.7 3.2 2.2 3.2 1.5 0 2.2-1.1 2.2-3.2s-.7-3.2-2.2-3.2c-1.5 0-2.2 1-2.2 3.2zm12.8-4.3l-.3 1.4c-.3-.1-.5-.1-.7-.1-.5 0-.9.2-1.3.6-.3.4-.6 1-.8 1.8v4.8h-1.5v-8.4h1.3l.1 1.7c.2-.6.5-1.1.9-1.4.4-.3.8-.5 1.3-.5s.8 0 1 .1zm10.4 0l-.3 1.4c-.3-.1-.5-.1-.7-.1-.5 0-.9.2-1.3.6-.3.4-.6 1-.8 1.8v4.8h-1.5v-8.4h1.3l.1 1.7c.2-.6.5-1.1.9-1.4.4-.3.8-.5 1.3-.5s.8 0 1 .1zm7.9 4.8h-5.4c.1.9.3 1.6.7 2s.9.7 1.6.7c.4 0 .8-.1 1.1-.2.3-.1.7-.3 1.1-.6l.6.9c-.9.7-1.9 1.1-2.9 1.1-1.2 0-2.1-.4-2.7-1.2-.7-.8-1-1.8-1-3.2 0-.9.1-1.7.4-2.3.3-.7.7-1.2 1.2-1.6s1.1-.6 1.9-.6c1.1 0 2 .4 2.6 1.1.6.7.9 1.8.9 3.1-.1.3-.1.5-.1.8zm-1.4-1.2c0-.8-.2-1.5-.5-1.9-.3-.4-.8-.7-1.5-.7-1.2 0-1.9.9-2 2.7l4-.1zm10.3 8.3l-1.5-.2v-4.4c-.3.4-.6.7-1 1-.4.2-.9.3-1.4.3-1 0-1.8-.4-2.3-1.2-.6-.8-.8-1.9-.8-3.2 0-.9.1-1.6.4-2.3.3-.7.7-1.2 1.2-1.6.5-.4 1.1-.6 1.8-.6.9 0 1.7.4 2.4 1.1l.1-.9h1.3v12zm-2.4-4.7c.3-.2.6-.5.9-.9v-4.1c-.3-.4-.6-.6-.9-.8s-.7-.3-1.1-.3c-.7 0-1.2.3-1.5.8-.4.5-.5 1.4-.5 2.4 0 1.1.2 1.9.5 2.4s.8.8 1.4.8c.5 0 .9-.1 1.2-.3zm10.4 1.3l-.1-1.3c-.3.5-.7.9-1.1 1.1s-.9.4-1.5.4c-.7 0-1.3-.2-1.7-.7-.4-.4-.6-1.1-.6-1.9v-6h1.5v5.9c0 .6.1 1 .3 1.2.2.2.5.4 1 .4.8 0 1.5-.5 2.1-1.5v-6h1.5v8.4h-1.4zm10.7-3.7h-5.4c.1.9.3 1.6.7 2s.9.7 1.6.7c.4 0 .8-.1 1.1-.2.3-.1.7-.3 1.1-.6l.6.9c-.9.7-1.9 1.1-2.9 1.1-1.2 0-2.1-.4-2.7-1.2-.7-.8-1-1.8-1-3.2 0-.9.1-1.7.4-2.3.3-.7.7-1.2 1.2-1.6s1.1-.6 1.9-.6c1.1 0 2 .4 2.6 1.1.6.7.9 1.8.9 3.1-.1.3-.1.5-.1.8zm-1.4-1.2c0-.8-.2-1.5-.5-1.9-.3-.4-.8-.7-1.5-.7-1.2 0-1.9.9-2 2.7l4-.1zm8.3-3.6l-.3 1.4c-.3-.1-.5-.1-.7-.1-.5 0-.9.2-1.3.6-.3.4-.6 1-.8 1.8v4.8h-1.5v-8.4h1.3l.1 1.7c.2-.6.5-1.1.9-1.4.4-.3.8-.5 1.3-.5s.8 0 1 .1zm3.2-3.7c.2.2.3.4.3.7s-.1.5-.3.7c-.2.2-.4.3-.8.3-.3 0-.5-.1-.7-.3-.2-.2-.3-.4-.3-.7s.1-.5.3-.7c.2-.2.4-.3.7-.3.4 0 .6.1.8.3zm-1.5 12.2v-8.4h1.5v8.4h-1.5zm14.7-7.9c.4.5.6 1.1.6 1.9v6h-1.5v-5.8c0-1.1-.4-1.6-1.2-1.6-.4 0-.8.1-1.1.4-.3.2-.6.6-.9 1.1v6h-1.5v-5.8c0-1.1-.4-1.6-1.2-1.6-.4 0-.8.1-1.1.4-.3.2-.6.6-.9 1.1v6h-1.5v-8.4h1.3l.1 1.2c.6-.9 1.4-1.4 2.4-1.4.5 0 1 .1 1.3.4s.6.6.8 1.1c.3-.5.7-.9 1.1-1.1.4-.3.9-.4 1.4-.4.9-.2 1.5 0 1.9.5zm5-4.3c.2.2.3.4.3.7s-.1.5-.3.7c-.2.2-.4.3-.8.3-.3 0-.5-.1-.7-.3-.2-.2-.3-.4-.3-.7s.1-.5.3-.7c.2-.2.4-.3.7-.3.4 0 .6.1.8.3zm-1.4 12.2v-8.4h1.5v8.4h-1.5zm10.8-3.7h-5.4c.1.9.3 1.6.7 2 .4.4.9.7 1.6.7.4 0 .8-.1 1.1-.2s.7-.3 1.1-.6l.6.9c-.9.7-1.9 1.1-2.9 1.1-1.2 0-2.1-.4-2.7-1.2-.7-.8-1-1.8-1-3.2 0-.9.1-1.7.4-2.3.3-.7.7-1.2 1.2-1.6.5-.4 1.1-.6 1.9-.6 1.1 0 2 .4 2.6 1.1.6.7.9 1.8.9 3.1-.1.3-.1.5-.1.8zm-1.4-1.2c0-.8-.2-1.5-.5-1.9-.3-.4-.8-.7-1.5-.7-1.2 0-1.9.9-2 2.7l4-.1zm9.6-3c.4.5.6 1.1.6 1.9v6h-1.5v-5.8c0-.6-.1-1-.3-1.3-.2-.2-.6-.4-1-.4s-.8.1-1.2.4-.7.6-1 1.1v6H788v-8.4h1.3l.1 1.2c.3-.4.7-.8 1.1-1.1.4-.3.9-.4 1.5-.4.7.1 1.3.3 1.7.8zm6 8.1c-.7 0-1.3-.2-1.7-.6-.4-.4-.6-1-.6-1.8v-5.1H796v-1.1h1.5v-1.9l1.5-.2v2.1h2l-.2 1.1H799v5c0 .4.1.8.2 1 .2.2.4.3.8.3s.7-.1 1.1-.4l.6 1c-.7.4-1.3.6-2 .6zm9.2-7.6c.7.8 1 1.9 1 3.2 0 .9-.1 1.6-.4 2.3-.3.7-.7 1.2-1.3 1.6-.6.4-1.2.6-2 .6-1.2 0-2.1-.4-2.8-1.2-.7-.8-1-1.9-1-3.2 0-.9.1-1.6.4-2.3.3-.7.7-1.2 1.3-1.6s1.2-.6 2-.6c1.2 0 2.1.4 2.8 1.2zm-5 3.2c0 2.1.7 3.2 2.2 3.2 1.5 0 2.2-1.1 2.2-3.2s-.7-3.2-2.2-3.2c-1.4 0-2.2 1-2.2 3.2zM647.3 36.8v3.8h3.6v1.2h-3.6v4.8h-1.5v-11h5.9l-.2 1.2h-4.2zm12.3 6.1h-5.4c.1.9.3 1.6.7 2s.9.7 1.6.7c.4 0 .8-.1 1.1-.2.3-.1.7-.3 1.1-.6l.6.9c-.9.7-1.9 1.1-2.9 1.1-1.2 0-2.1-.4-2.7-1.2-.7-.8-1-1.8-1-3.2 0-.9.1-1.7.4-2.3.3-.7.7-1.2 1.2-1.6s1.1-.6 1.9-.6c1.1 0 2 .4 2.6 1.1.6.7.9 1.8.9 3.1-.1.3-.1.5-.1.8zm-1.4-1.2c0-.8-.2-1.5-.5-1.9-.3-.4-.8-.7-1.5-.7-1.2 0-1.9.9-2 2.7l4-.1zm10.2 1.2H663c.1.9.3 1.6.7 2s.9.7 1.6.7c.4 0 .8-.1 1.1-.2.3-.1.7-.3 1.1-.6l.6.9c-.9.7-1.9 1.1-2.9 1.1-1.2 0-2.1-.4-2.7-1.2-.7-.8-1-1.8-1-3.2 0-.9.1-1.7.4-2.3.3-.7.7-1.2 1.2-1.6s1.1-.6 1.9-.6c1.1 0 2 .4 2.6 1.1.6.7.9 1.8.9 3.1-.1.3-.1.5-.1.8zm-1.4-1.2c0-.8-.2-1.5-.5-1.9-.3-.4-.8-.7-1.5-.7-1.2 0-1.9.9-2 2.7l4-.1zm10.4 4.9h-1.3l-.1-1.2c-.3.4-.6.8-1 1s-.9.4-1.4.4c-1 0-1.8-.4-2.3-1.2-.6-.8-.8-1.9-.8-3.2 0-.9.1-1.6.4-2.3.3-.7.7-1.2 1.2-1.6.5-.4 1.1-.6 1.8-.6.9 0 1.6.3 2.3 1v-4.4l1.5.2v11.9zm-2.4-1.3c.3-.2.6-.5.9-.9v-4.1c-.3-.4-.6-.6-.9-.8s-.7-.3-1.1-.3c-.7 0-1.2.3-1.5.8s-.5 1.4-.5 2.4c0 1.1.2 1.9.5 2.4s.8.8 1.4.8c.5 0 .9-.1 1.2-.3zm11.6-6.2c.6.8.8 1.9.8 3.2 0 .9-.1 1.6-.4 2.3-.3.7-.7 1.2-1.2 1.6-.5.4-1.1.6-1.8.6-.9 0-1.6-.4-2.2-1.1l-.1.9h-1.3V34.8l1.5-.2v4.6c.6-.8 1.4-1.2 2.4-1.2.9 0 1.7.3 2.3 1.1zm-1.3 5.7c.4-.5.6-1.3.6-2.5 0-1.1-.2-2-.5-2.5s-.8-.8-1.5-.8-1.4.4-2 1.3v4c.2.4.5.6.8.8.3.2.7.3 1 .3.7.2 1.2-.1 1.6-.6zm10.5.6c.1.2.3.3.5.4l-.3 1c-.4-.1-.8-.2-1.1-.4-.3-.2-.5-.5-.6-.9-.6.8-1.4 1.3-2.5 1.3-.8 0-1.5-.2-2-.7-.5-.5-.7-1.1-.7-1.8 0-.9.3-1.6 1-2.1.6-.5 1.6-.7 2.7-.7h1.3v-.6c0-.6-.1-1-.4-1.3s-.7-.4-1.3-.4c-.6 0-1.4.1-2.3.4l-.4-1.1c1-.4 2-.6 2.9-.6 1 0 1.7.2 2.2.7.5.5.7 1.2.7 2.1v3.9c.1.4.2.6.3.8zm-1.7-1v-1.9H693c-1.6 0-2.3.6-2.3 1.7 0 .5.1.9.4 1.1s.6.4 1.1.4c.8 0 1.5-.5 1.9-1.3zm9-6.2c.4.1.8.4 1.2.7l-.7 1c-.3-.2-.6-.4-.8-.5-.3-.1-.6-.2-.9-.2-.7 0-1.2.3-1.6.8-.4.5-.6 1.3-.6 2.4s.2 1.9.6 2.4c.4.5.9.8 1.6.8.3 0 .6-.1.9-.2.3-.1.6-.3.9-.5l.7 1c-.8.6-1.6.9-2.6.9-1.1 0-2-.4-2.7-1.2-.7-.8-1-1.8-1-3.2 0-.9.1-1.7.4-2.4s.7-1.2 1.3-1.6c.5-.4 1.2-.6 2-.6.4.2.9.2 1.3.4zm3.2 8.4V34.8l1.5-.2v12h-1.5zm6.7 0h-1.8l-3.3-4.6 3.1-3.8h1.6l-3.1 3.7 3.5 4.7zM646.9 73c-.6.6-1.4.9-2.5 1l-.2-1.2c.6-.1 1-.2 1.3-.4.3-.2.6-.4.8-.7.2-.3.4-.7.6-1.1h-.5l-2.8-8.4h1.6l2.3 7.4 2.2-7.4h1.5l-2.8 8.5c-.4.9-.9 1.7-1.5 2.3zm16-3.6c.1.2.3.3.5.4l-.3 1c-.4-.1-.8-.2-1.1-.4-.3-.2-.5-.5-.6-.9-.6.8-1.4 1.3-2.5 1.3-.8 0-1.5-.2-2-.7-.5-.5-.7-1.1-.7-1.8 0-.9.3-1.6 1-2.1s1.6-.7 2.7-.7h1.3v-.6c0-.6-.1-1-.4-1.3s-.7-.4-1.3-.4c-.6 0-1.4.1-2.3.4l-.4-1.1c1-.4 2-.6 2.9-.6 1 0 1.7.2 2.2.7.5.5.7 1.2.7 2.1v3.9c.1.4.2.6.3.8zm-1.7-1v-1.9h-1.1c-1.6 0-2.3.6-2.3 1.7 0 .5.1.9.4 1.1.2.3.6.4 1.1.4.8 0 1.5-.5 1.9-1.3zm5.9 2.2l-2.9-8.4h1.6l2.2 7.1 2.2-7.1h1.6l-2.9 8.4h-1.8zm12.2-1.2c.1.2.3.3.5.4l-.3 1c-.4-.1-.8-.2-1.1-.4-.3-.2-.5-.5-.6-.9-.6.8-1.4 1.3-2.5 1.3-.8 0-1.5-.2-2-.7-.5-.5-.7-1.1-.7-1.8 0-.9.3-1.6 1-2.1.6-.5 1.6-.7 2.7-.7h1.3v-.6c0-.6-.1-1-.4-1.3s-.7-.4-1.3-.4c-.6 0-1.4.1-2.3.4l-.4-1.1c1-.4 2-.6 2.9-.6 1 0 1.7.2 2.2.7.5.5.7 1.2.7 2.1v3.9c.1.4.2.6.3.8zm-1.6-1v-1.9h-1.1c-1.6 0-2.3.6-2.3 1.7 0 .5.1.9.4 1.1s.6.4 1.1.4c.7 0 1.4-.5 1.9-1.3zm10.2-5.8c.4.5.6 1.1.6 1.9v6H687v-5.8c0-.6-.1-1-.3-1.3-.2-.2-.6-.4-1-.4s-.8.1-1.2.4-.7.6-1 1.1v6H682v-8.4h1.3l.1 1.2c.3-.4.7-.8 1.1-1.1.4-.3.9-.4 1.5-.4.9.2 1.5.4 1.9.8zm8.1-.4c.4.1.8.4 1.2.7l-.7 1c-.3-.2-.6-.4-.8-.5-.3-.1-.6-.2-.9-.2-.7 0-1.2.3-1.6.8-.4.5-.6 1.3-.6 2.4s.2 1.9.6 2.4c.4.5.9.8 1.6.8.3 0 .6-.1.9-.2.3-.1.6-.3.9-.5l.7 1c-.8.6-1.6.9-2.6.9-1.1 0-2-.4-2.7-1.2-.7-.8-1-1.8-1-3.2 0-.9.1-1.7.4-2.4s.7-1.2 1.3-1.6c.5-.4 1.2-.6 2-.6.4.2.9.2 1.3.4zm9.4 4.7H700c.1.9.3 1.6.7 2 .4.4.9.7 1.6.7.4 0 .8-.1 1.1-.2s.7-.3 1.1-.6l.6.9c-.9.7-1.9 1.1-2.9 1.1-1.2 0-2.1-.4-2.7-1.2-.7-.8-1-1.8-1-3.2 0-.9.1-1.7.4-2.3.3-.7.7-1.2 1.2-1.6.5-.4 1.1-.6 1.9-.6 1.1 0 2 .4 2.6 1.1.6.7.9 1.8.9 3.1-.1.3-.1.5-.1.8zm-1.5-1.2c0-.8-.2-1.5-.5-1.9-.3-.4-.8-.7-1.5-.7-1.2 0-1.9.9-2 2.7l4-.1zm7.8-3.5c.5.2.9.4 1.3.7l-.6 1c-.4-.3-.7-.5-1.1-.6-.3-.1-.7-.2-1.1-.2-.5 0-.9.1-1.1.3-.3.2-.4.5-.4.8 0 .3.1.6.4.8.3.2.7.4 1.4.6.9.2 1.6.6 2.1 1s.7 1 .7 1.7c0 .8-.3 1.5-1 1.9s-1.4.7-2.4.7c-1.3 0-2.3-.4-3.2-1.1l.8-.9c.7.6 1.4.8 2.3.8.5 0 1-.1 1.3-.3.3-.2.5-.5.5-.9 0-.3-.1-.5-.2-.7-.1-.2-.3-.3-.6-.5-.3-.1-.7-.3-1.3-.4-.9-.2-1.5-.6-1.9-1-.4-.4-.6-.9-.6-1.5 0-.4.1-.8.4-1.2.3-.4.6-.6 1.1-.8s1-.3 1.6-.3c.6-.1 1.1-.1 1.6.1zm-66.2 19.9c.6.2 1.2.6 1.7 1l-1.4 1.7c-.7-.6-1.4-.9-2.2-.9-.8 0-1.5.4-2 1.1-.5.7-.7 1.8-.7 3.3 0 1.5.2 2.5.7 3.2.5.7 1.2 1.1 2 1.1.4 0 .8-.1 1.2-.3.4-.2.8-.4 1.2-.8l1.3 1.7c-.5.5-1 .8-1.7 1.1-.7.3-1.4.5-2.2.5-1.2 0-2.2-.3-3-.8-.9-.5-1.5-1.3-2-2.2-.5-1-.7-2.2-.7-3.6s.2-2.5.7-3.5c.5-1 1.2-1.7 2-2.2.8-.5 1.8-.8 2.9-.8.9.1 1.6.2 2.2.4zm5.5 9.8l-.6 2.7h-3.1l3.8-12.5h3.6l3.8 12.5h-3.1l-.6-2.7H651zm1.8-7.7l-1.3 5.5h2.6l-1.3-5.5zm14.7-.8c1.2.9 1.8 2.5 1.8 4.9 0 2.3-.6 3.9-1.7 4.9-1.2.9-2.6 1.4-4.5 1.4h-3.7V82.1h3.5c1.9 0 3.4.4 4.6 1.3zm-5.2 9h1c1 0 1.7-.3 2.2-.9.5-.6.8-1.7.8-3.2 0-1.1-.1-1.9-.4-2.5s-.6-1-1-1.2c-.4-.2-1-.3-1.6-.3h-.9v8.1zm10.5-.5l-.6 2.7h-3.1l3.8-12.5h3.6l3.8 12.5h-3.1l-.6-2.7h-3.8zm1.8-7.7l-1.3 5.5h2.6l-1.3-5.5zm16.2-1.6c.6.3 1.1.7 1.4 1.3.3.5.5 1.1.5 1.7 0 .6-.1 1.3-.4 1.9s-.7 1.3-1.4 2c-.7.8-1.7 1.7-2.9 2.9h5l-.3 2.2h-7.9v-2c1.5-1.5 2.5-2.5 3.2-3.3.7-.7 1.1-1.4 1.4-1.8.3-.5.4-1 .4-1.5s-.1-.9-.4-1.2c-.3-.3-.7-.4-1.1-.4-.4 0-.8.1-1.2.3-.3.2-.7.5-1 1l-1.7-1.3c.5-.7 1.1-1.2 1.8-1.5.7-.4 1.5-.6 2.4-.6s1.5 0 2.2.3zm11.2 9.3v2.6h-2.8v-2.6H694V90l3.5-8 2.4.9-2.9 6.8h2.2l.3-2.9h2.4v2.9h1.4v2.1H702zm10.1-2.7v5.3h-3V82.1h3v4.8h3.7v-4.8h3v12.5h-3v-5.3h-3.7zm375.6 345.6v3.6h3.7v1.2h-3.7v3.8h4.6v1.2h-6.1v-11h6l-.2 1.2h-4.3zm12.7 1.8c.4.5.6 1.1.6 1.9v6h-1.5v-5.8c0-.6-.1-1-.3-1.3-.2-.2-.6-.4-1-.4s-.8.1-1.2.4-.7.6-1 1.1v6h-1.5v-8.4h1.3l.1 1.2c.3-.4.7-.8 1.1-1.1.4-.3.9-.4 1.5-.4.9.2 1.5.4 1.9.8zm6 8.2c-.7 0-1.3-.2-1.7-.6-.4-.4-.6-1-.6-1.8v-5.1h-1.5v-1.1h1.5v-1.9l1.5-.2v2.1h2l-.2 1.1h-1.8v5c0 .4.1.8.2 1 .2.2.4.3.8.3s.7-.1 1.1-.4l.6 1c-.6.4-1.2.6-1.9.6zm7.9-8.8l-.3 1.4c-.3-.1-.5-.1-.7-.1-.5 0-.9.2-1.3.6-.3.4-.6 1-.8 1.8v4.8h-1.5v-8.4h1.3l.1 1.7c.2-.6.5-1.1.9-1.4.4-.3.8-.5 1.3-.5.5.1.8.1 1 .1zm7.9 4.9h-5.4c.1.9.3 1.6.7 2s.9.7 1.6.7c.4 0 .8-.1 1.1-.2.3-.1.7-.3 1.1-.6l.6.9c-.9.7-1.9 1.1-2.9 1.1-1.2 0-2.1-.4-2.7-1.2-.7-.8-1-1.8-1-3.2 0-.9.1-1.7.4-2.3.3-.7.7-1.2 1.2-1.6s1.1-.6 1.9-.6c1.1 0 2 .4 2.6 1.1.6.7.9 1.8.9 3.1-.1.3-.1.5-.1.8zm-1.5-1.2c0-.8-.2-1.5-.5-1.9-.3-.4-.8-.7-1.5-.7-1.2 0-1.9.9-2 2.7l4-.1zm9.7-3h-1.4c1 .4 1.5 1.2 1.5 2.1 0 .8-.3 1.5-.9 2.1s-1.4.8-2.4.8c-.4 0-.7-.1-1.1-.2l-.3.3c-.1.1-.1.3-.1.4 0 .5.4.7 1.1.7h1.3c.6 0 1.1.1 1.5.3.4.2.8.5 1 .8.2.4.4.8.4 1.2 0 .8-.3 1.5-1 1.9-.7.4-1.7.7-2.9.7-.9 0-1.6-.1-2.2-.3-.5-.2-.9-.5-1.1-.8-.2-.4-.3-.9-.3-1.4h1.3c0 .3.1.6.2.8s.4.3.7.4c.3.1.8.2 1.4.2.9 0 1.5-.1 1.9-.3.4-.2.6-.5.6-1 0-.4-.1-.7-.4-.9-.3-.2-.7-.3-1.2-.3h-1.3c-.7 0-1.3-.2-1.6-.5s-.6-.7-.6-1.1c0-.3.1-.5.2-.8s.4-.5.7-.7c-.5-.3-.9-.6-1.1-1s-.3-.8-.3-1.4c0-.6.1-1.1.4-1.5.3-.4.7-.8 1.2-1 .5-.3 1-.4 1.7-.4s1.2 0 1.7-.1c.4-.1.8-.1 1.1-.2.3-.1.7-.2 1.1-.4l.4 1.3c-.5.2-.8.3-1.2.3zm-4.5.8c-.3.3-.5.8-.5 1.4 0 .6.2 1 .5 1.4.3.3.7.5 1.3.5.6 0 1-.2 1.3-.5s.5-.8.5-1.4c0-1.2-.6-1.9-1.8-1.9-.6 0-1 .2-1.3.5zm12.9 5.9c.1.2.3.3.5.4l-.3 1c-.4-.1-.8-.2-1.1-.4-.3-.2-.5-.5-.6-.9-.6.8-1.4 1.3-2.5 1.3-.8 0-1.5-.2-2-.7-.5-.5-.7-1.1-.7-1.8 0-.9.3-1.6 1-2.1.6-.5 1.6-.7 2.7-.7h1.3v-.6c0-.6-.1-1-.4-1.3s-.7-.4-1.3-.4c-.6 0-1.4.1-2.3.4l-.4-1.1c1-.4 2-.6 2.9-.6 1 0 1.7.2 2.2.7.5.5.7 1.2.7 2.1v3.9c.1.4.2.6.3.8zm-1.6-1v-1.9h-1.1c-1.6 0-2.3.6-2.3 1.7 0 .5.1.9.4 1.1s.6.4 1.1.4c.7 0 1.4-.5 1.9-1.3zm15.2 2.2h-1.3l-.1-1.2c-.3.4-.6.8-1 1s-.9.4-1.4.4c-1 0-1.8-.4-2.3-1.2-.6-.8-.8-1.9-.8-3.2 0-.9.1-1.6.4-2.3.3-.7.7-1.2 1.2-1.6.5-.4 1.1-.6 1.8-.6.9 0 1.6.3 2.3 1v-4.4l1.5.2v11.9zm-2.4-1.3c.3-.2.6-.5.9-.9v-4.1c-.3-.4-.6-.6-.9-.8s-.7-.3-1.1-.3c-.7 0-1.2.3-1.5.8s-.5 1.4-.5 2.4c0 1.1.2 1.9.5 2.4s.8.8 1.4.8c.5 0 .9-.1 1.2-.3zm11.6-2.4h-5.4c.1.9.3 1.6.7 2 .4.4.9.7 1.6.7.4 0 .8-.1 1.1-.2s.7-.3 1.1-.6l.6.9c-.9.7-1.9 1.1-2.9 1.1-1.2 0-2.1-.4-2.7-1.2-.7-.8-1-1.8-1-3.2 0-.9.1-1.7.4-2.3.3-.7.7-1.2 1.2-1.6.5-.4 1.1-.6 1.9-.6 1.1 0 2 .4 2.6 1.1.6.7.9 1.8.9 3.1 0 .3 0 .5-.1.8zm-1.4-1.2c0-.8-.2-1.5-.5-1.9-.3-.4-.8-.7-1.5-.7-1.2 0-1.9.9-2 2.7l4-.1zm-72.6 16.5c.7.3 1.3.7 1.9 1.2l-1.4 1.6c-.8-.7-1.7-1-2.7-1-.5 0-.9.1-1.2.3s-.4.5-.4.9c0 .3.1.5.2.7s.4.3.7.5c.3.2.8.3 1.5.6 1.3.4 2.2.9 2.8 1.5.6.6.9 1.4.9 2.5 0 .8-.2 1.5-.6 2.1-.4.6-1 1.1-1.7 1.4-.7.3-1.6.5-2.6.5s-1.9-.2-2.7-.5c-.8-.3-1.5-.8-2-1.3l1.5-1.7c.9.8 2 1.2 3.1 1.2.6 0 1.1-.1 1.4-.4.4-.3.5-.6.5-1.1 0-.3-.1-.6-.2-.8s-.4-.4-.7-.6-.8-.3-1.4-.5c-1.4-.4-2.4-.9-2.9-1.5-.6-.6-.9-1.4-.9-2.3 0-.7.2-1.4.6-1.9.4-.5.9-1 1.6-1.3s1.5-.4 2.3-.4c.9-.1 1.7 0 2.4.3zm13 1.3c1 1.1 1.5 2.7 1.5 4.8 0 1.4-.2 2.5-.7 3.5-.4 1-1.1 1.7-1.9 2.3-.8.5-1.9.8-3 .8s-2.2-.3-3-.8-1.5-1.3-1.9-2.2c-.5-1-.7-2.2-.7-3.5 0-1.3.2-2.5.7-3.5.5-1 1.1-1.7 1.9-2.3.8-.5 1.8-.8 3-.8 1.7 0 3.1.6 4.1 1.7zm-6.1 1.5c-.4.7-.6 1.8-.6 3.3s.2 2.7.6 3.3c.4.7 1 1 1.9 1 .9 0 1.5-.3 1.9-1 .4-.7.6-1.8.6-3.4s-.2-2.7-.6-3.3c-.4-.7-1.1-1-1.9-1-.8.1-1.4.4-1.9 1.1zm12.3-.8v3.3h3.6v2.1h-3.6v5h-3v-12.5h7.4l-.3 2.1h-4.1zm11 .2v10.2h-3v-10.2h-3.2v-2.3h9.5l-.3 2.3h-3zm12.5 10.2l-1.5-9.5-1.6 9.5h-3.7l-2.1-12.5h3l1.2 10.2 1.7-10.2h3.1l1.6 10.2 1.5-10.2h2.8l-2.1 12.5h-3.9zm9.2-2.7l-.6 2.7h-3.1l3.8-12.5h3.6l3.8 12.5h-3.1l-.6-2.7h-3.8zm1.8-7.7l-1.3 5.5h2.6l-1.3-5.5zm9.5 5.6v4.8h-3v-12.5h4.1c1.7 0 3 .3 3.8.9.9.6 1.3 1.6 1.3 2.9 0 .8-.2 1.5-.6 2-.4.5-1 1-1.8 1.4l3.2 5.3h-3.3l-2.6-4.8h-1.1zm1.2-2c.7 0 1.2-.2 1.5-.5.3-.3.5-.8.5-1.4 0-.6-.2-1-.5-1.3-.4-.3-.9-.4-1.6-.4h-1.1v3.6h1.2zm9.9-3.6v3h3.8v2.1h-3.8v3.2h4.7v2.1h-7.7v-12.5h7.7l-.3 2.1h-4.4zm-911.6-25.8l18.6 17.5-18.4 18.4zm303 0l18.6 17.5-18.4 18.4z"/><g fill="#FFF"><path d="M1018.2 436.7h4.3v-7.6c0-.3.1-.6.1-.9h4.2v3.4c0 .6.1.9.8.9h6.8c.7 0 .9-.3.8-.9 0-1.1 0-2.2.1-3.4h4.2v-4.3h5.3v11.7c0 .5.1.9.5 1.3 4.7 4.5 5 11.9.7 16.7-4.3 4.9-11.6 5.5-16.7 1.5-.4-.3-1-.5-1.5-.5h-11.7c-1.5 0-2-.5-2-2v-11.7h4.2c-.1-1.4-.1-2.8-.1-4.2zm18.5 19.1c5.5 0 10-4.5 10-10.1s-4.5-10-10-10c-5.6 0-10 4.5-10 10.1 0 5.5 4.5 10 10 10z"/><path d="M1035.2 428.3h-4.3V424h4.2c.1 1.4.1 2.9.1 4.3zm-12.7-.1h-4.3v-4.1h4.2c.1 1.4.1 2.8.1 4.1 0 .1 0 0 0 0zm12.7-4.2v-4.1h4.1v4.1h-4.1zm-17 12.7h-4.2v-4.1h4.1c.1 1.4.1 2.8.1 4.1zm18.5 6.4c1.5 0 2.6 1.2 2.6 2.6 0 1.5-1.2 2.7-2.7 2.6-1.4 0-2.6-1.3-2.6-2.7.1-1.3 1.3-2.5 2.7-2.5z"/></g></svg>