<svg version="1.1" id="Capa_1" xmlns="http://www.w3.org/2000/svg" x="0" y="0" viewBox="0 0 441.5 343" xml:space="preserve"><style>.st1{fill:#e4e9fe}.st2{fill:#87b7fd}.st5{opacity:.2;fill:#444460}.st7{fill:#f9fbfc}.st8{fill:#8a6fea}.st11{fill:#cfd5fd}.st12{fill:#edd2a9}.st13{fill:#534eb4}.st14{fill:#e58a47}.st16{fill:#efc14d}.st19{fill:#fff}.st21{fill:#73cbfd}.st22{fill:#df57a5}.st23{fill:#efc261}.st25{fill:#e19975}.st26{fill:#de5070}</style><path d="M364.9 277.4c16.8-10.3 22.1-32.3 11.8-49.1-2.3-3.8-5.2-6.9-8.5-9.5 4.3-6 9.1-11.9 14.7-17.4 2.6-2.6 5.2-5 7.8-7.3 1.1.9 2.1 1.8 3.1 2.8l8.8-5.4c4.5-2.7 10.4-1.3 13.1 3.2l8.7 14.2c2.7 4.5 1.3 10.4-3.2 13.1l-8.8 5.4c2 6.7 2.9 13.5 2.8 20.3l9.9 2.8c5.1 1.4 8 6.7 6.6 11.7l-4.5 16.1c-1.4 5.1-6.7 8-11.7 6.6l-9.9-2.8c-2.6 4.5-5.8 8.6-9.4 12.5l5.4 8.8c2.7 4.5 1.3 10.4-3.2 13.1l-14.2 8.7c-4.5 2.7-10.4 1.3-13.1-3.2l-5.4-8.8c-5.1 1.5-10.4 2.4-15.6 2.7-3-10.7-4.3-21.9-3.9-33.2 6.5-.1 12.9-1.8 18.7-5.3z" fill="#6899fc"/><path class="st1" d="M348.2 318.8H25.3c-3.8 0-6.9-3.1-6.9-6.9V86.5c0-3.8 3.1-6.9 6.9-6.9h322.9c3.8 0 6.9 3.1 6.9 6.9v225.4c0 3.8-3.1 6.9-6.9 6.9z"/><path class="st2" d="M345.2 315.7H28.3c-3 0-5.5-2.5-5.5-5.5v-222c0-3 2.5-5.5 5.5-5.5h316.9c3 0 5.5 2.5 5.5 5.5v222c0 3-2.5 5.5-5.5 5.5z"/><path d="M333.1 295.1H40.4c-1.9 0-3.4-1.5-3.4-3.4V97.1c0-1.9 1.5-3.4 3.4-3.4h292.7c1.9 0 3.4 1.5 3.4 3.4v194.7c0 1.8-1.5 3.3-3.4 3.3z" fill="#496dfb"/><path class="st1" d="M10.2 306.4c-1 1.8-1.6 3.8-1.6 6 0 7 5.7 12.6 12.6 12.6h331c7 0 12.6-5.7 12.6-12.6 0-2.2-.6-4.2-1.6-6h-353z"/><path d="M10.2 318.4c2.1 3.9 6.3 6.6 11.1 6.6h331c4.8 0 8.9-2.7 11.1-6.6H10.2z" fill="#cbd5f0"/><path class="st5" d="M340.1 79.6H115.4v150.2c0 3.3 2.7 6 6 6h233.7V94.6c0-8.3-6.7-15-15-15z"/><path d="M383.9 229H126.4c-1.5 0-2.8-1.2-2.8-2.8V64.9c0-1.5 1.2-2.8 2.8-2.8h257.5c1.5 0 2.8 1.2 2.8 2.8v161.3c0 1.5-1.3 2.8-2.8 2.8z" opacity=".21" fill="#e4e9fe"/><path class="st7" d="M394.4 217.7H136.9c-1.5 0-2.8-1.2-2.8-2.8V53.6c0-1.5 1.2-2.8 2.8-2.8h257.5c1.5 0 2.8 1.2 2.8 2.8v161.3c0 1.6-1.3 2.8-2.8 2.8z"/><path class="st5" d="M87.6 164.7H56.9c-1 0-1.7-.8-1.7-1.7v-32.2c0-1 .8-1.7 1.7-1.7h30.7c1 0 1.7.8 1.7 1.7V163c.1 1-.7 1.7-1.7 1.7z"/><path class="st2" d="M85.7 216.6H54.9c-1 0-1.7-.8-1.7-1.7v-32.2c0-1 .8-1.7 1.7-1.7h30.7c1 0 1.7.8 1.7 1.7v32.2c.1.9-.7 1.7-1.6 1.7zm0 50.7H54.9c-1 0-1.7-.8-1.7-1.7v-32.2c0-1 .8-1.7 1.7-1.7h30.7c1 0 1.7.8 1.7 1.7v32.2c.1.9-.7 1.7-1.6 1.7z"/><path class="st8" d="M77.8 245.5c0-4.5-3.6-8.1-8.1-8.1s-8.1 3.6-8.1 8.1c0 0-1.1 8.6 8.1 15.5 9.2-6.9 8.1-15.5 8.1-15.5z"/><path class="st7" d="M70.1 251.4c-3.6.3-6.6-2.7-6.3-6.3.2-2.9 2.5-5.2 5.4-5.4 3.6-.3 6.6 2.7 6.3 6.3-.2 2.9-2.5 5.2-5.4 5.4z"/><path class="st8" d="M80.7 198.3c0 6.2-5 11.2-11.2 11.2s-11.2-5-11.2-11.2c0-6.2 5-11.2 11.2-11.2s11.2 5 11.2 11.2z"/><path class="st7" d="M78.5 198.3c0 5-4.1 9.1-9.1 9.1s-9.1-4.1-9.1-9.1 4.1-9.1 9.1-9.1c5.1 0 9.1 4.1 9.1 9.1z"/><path d="M69.5 189.2c4.1 0 7.6 2.7 8.7 6.5 0 .2.2.3.3.3.2 0 .4-.2.3-.5-1.2-4.1-4.9-7-9.4-7-4.4 0-8.2 3-9.4 7-.1.2.1.5.3.5.2 0 .3-.1.3-.3 1.3-3.8 4.8-6.5 8.9-6.5z" fill="#ad86ea"/><path d="M79.5 198.6c-.5 0-1 .4-1.1.9-.6 4.4-4.4 7.8-9 7.8s-8.4-3.4-9-7.8c-.1-.5-.5-.9-1.1-.9-.7 0-1.2.6-1.1 1.2.7 5.5 5.4 9.7 11.1 9.7 5.7 0 10.4-4.2 11.1-9.7.3-.7-.2-1.2-.9-1.2z" fill="#7558e9"/><path class="st7" d="M78.5 198.3c0 5-4.1 9.1-9.1 9.1s-9.1-4.1-9.1-9.1 4.1-9.1 9.1-9.1c5.1 0 9.1 4.1 9.1 9.1z"/><path class="st8" d="M78.3 201.2c-.2 0-.3.1-.3.2-1.3 3.4-4.6 5.9-8.5 5.9-3.9 0-7.2-2.5-8.5-5.9-.1-.1-.2-.2-.3-.2-.3 0-.4.3-.3.5 1.4 3.7 5 6.4 9.2 6.4 4.2 0 7.8-2.7 9.2-6.4-.1-.3-.2-.5-.5-.5zm-8.9-2.1c-.2 0-.4-.2-.4-.4v-6.4c0-.2.2-.4.4-.4s.4.2.4.4v6.4c.1.2-.1.4-.4.4z"/><path class="st8" d="M69.1 198.4c.2-.2.4-.2.6-.1l3.9 3.3c.2.2.2.4.1.6-.2.2-.4.2-.6.1l-3.9-3.3c-.2-.2-.2-.4-.1-.6z"/><path class="st11" d="M69.2 189.8h.3v.9h-.3zm0 15.9h.3v.9h-.3z"/><path transform="rotate(-90 61.432 198.192)" class="st11" d="M61.3 197.8h.3v.9h-.3z"/><path transform="rotate(-90 77.32 198.192)" class="st11" d="M77.2 197.8h.3v.9h-.3z"/><path transform="rotate(-44.976 63.757 192.578)" class="st11" d="M63.6 192.1h.3v.9h-.3z"/><path transform="rotate(-45.001 74.99 203.811)" class="st11" d="M74.8 203.4h.3v.9h-.3z"/><path transform="rotate(-134.999 63.753 203.81)" class="st11" d="M63.6 203.4h.3v.9h-.3z"/><path transform="rotate(-135.024 74.998 192.576)" class="st11" d="M74.8 192.1h.3v.9h-.3z"/><path class="st2" d="M85.7 163.6H54.9c-1 0-1.7-.8-1.7-1.7v-32.2c0-1 .8-1.7 1.7-1.7h30.7c1 0 1.7.8 1.7 1.7v32.2c.1.9-.7 1.7-1.6 1.7z"/><path class="st12" d="M51.5 159.9l2.9-1.9 1.2-4.7-1.4-.3-.8 1.7.8-8-1.4.3-1.4 7.7-1.7 3.7 1.6 1m16.9 8.9l.4-3.4 4.1-4.1 1 1.3-1.5 1.7 7.9-1.9v1.7l-7.4 2.8-1.5 2.7z"/><path class="st13" d="M16.8 251.9l15.3 75.2 11.7-1.3-7.9-2.9 2.9-.8-4.2-70.2z"/><path class="st13" d="M41.3 250.7S60.8 269 57.9 291c-3.3 17.4-10.4 24-10.4 24l-2.1-.4 3.2 8.5-9.3-10s11.5-15.9 4.4-32.4C36.5 264.2 21 258.3 21 258.3s13.4-12.1 14.3-11.8c.9.3 6 4.2 6 4.2z"/><path class="st14" d="M49.6 157.1S17.5 196 13.8 203.8c0 0-1.6 2.8-1.6 10.9s2.8 38 2.8 38l32.7 1.9s-10.6-36.4-10.9-37.4c-.3-.9-5.6-6.5-10.6-7.8l27.4-49.5-4-2.8z"/><path class="st12" d="M29.3 205.7s1.4 4 2.1 6.5c0 0-6.7-.1-9-3.2l2.5-6 4.4 2.7z"/><path class="st12" d="M34.3 193s2 11.5 0 14.1c-2 2.6-8.7-1.8-11.6-6-2.8-4.2-3.4-13.6 1.4-14.4 4.9-.7 9.1 2.2 10.2 6.3z"/><path class="st14" d="M31.3 214.3s25.7-16.2 27.8-19.5c2.1-3.3 7.9-28 7.9-28l5 1.2s-2.9 27.6-3.7 30.5c-.8 2.9-26.1 29.9-32 29.9-5.8 0-7.9-7.4-5-14.1z"/><path class="st13" d="M20.5 187.3s3.4-4.7 9.4-3.6 7.5-.2 7.5-.2-1.3 6.6-5.4 8.1c-4.1 1.5-5.3 1.1-5.3 1.1s2.3 2.3 2.8 3.9c.6 1.7-1.9-2.1-2.8-.8-.9 1.3 0 4.1 1.9 3.9 1.9-.2.8 1.3 0 2.8-.8 1.5-1.9 3.4-3 2.8-1.1-.6-5.1-2.8-6.6-7.5-1.5-4.5-1.9-9 1.5-10.5z"/><path class="st1" d="M227.9 201.4h-76.3c-.7 0-1.3-.6-1.3-1.3V69.6c0-.7.6-1.3 1.3-1.3h76.3c.7 0 1.3.6 1.3 1.3V200c0 .8-.6 1.4-1.3 1.4z"/><path class="st2" d="M213.9 90.3h-49c-.6 0-1-.5-1-1v-9.2c0-.6.5-1 1-1h49c.6 0 1 .5 1 1v9.2c0 .6-.4 1-1 1zm-33 62.7h-10.1c-2.4 0-4.3-1.9-4.3-4.3s1.9-4.3 4.3-4.3h10.1c2.4 0 4.3 1.9 4.3 4.3.1 2.4-1.9 4.3-4.3 4.3z"/><path class="st8" d="M210.3 153h-10.1c-2.4 0-4.3-1.9-4.3-4.3s1.9-4.3 4.3-4.3h10.1c2.4 0 4.3 1.9 4.3 4.3s-2 4.3-4.3 4.3z"/><path class="st7" d="M162.7 101.6h54.9v8.6h-54.9zm0 14.7h54.9v8.6h-54.9z"/><path fill="#ced3fd" d="M174.6 130.4h31.6v2h-31.6z"/><path class="st8" d="M391.8 176.8h-98.6c-6.1 0-11-4.9-11-11s4.9-11 11-11h98.6c6.1 0 11 4.9 11 11 0 6-4.9 11-11 11z"/><path class="st1" d="M306.4 83.6H245c-5 0-9-4-9-9s4-9 9-9h61.4c5 0 9 4 9 9 .1 4.9-4 9-9 9z"/><path class="st16" d="M259.7 74.6c0 1.6-1.3 2.8-2.8 2.8s-2.8-1.3-2.8-2.8c0-1.6 1.3-2.8 2.8-2.8s2.8 1.2 2.8 2.8z"/><path d="M279 74.6c0 1.6-1.3 2.8-2.8 2.8s-2.8-1.3-2.8-2.8c0-1.6 1.3-2.8 2.8-2.8s2.8 1.2 2.8 2.8z" fill="#9fc14d"/><path d="M296.9 74.6c0 1.6-1.3 2.8-2.8 2.8s-2.8-1.3-2.8-2.8c0-1.6 1.3-2.8 2.8-2.8s2.8 1.2 2.8 2.8z" fill="#cd502b"/><circle class="st19" cx="69.9" cy="148" r="6.9"/><path class="st8" d="M77 139.7h-1.2l-1.7-2.4c-.1-.2-.4-.3-.6-.3h-6.9c-.2 0-.5.1-.6.3l-1.7 2.4H63c-1.9 0-3.4 1.5-3.4 3.4v10c0 1.9 1.5 3.4 3.4 3.4h14c1.9 0 3.4-1.5 3.4-3.4v-10c0-1.9-1.5-3.4-3.4-3.4zM70 153c-2.8 0-5-2.3-5-5 0-2.8 2.3-5 5-5 2.8 0 5 2.3 5 5 0 2.8-2.2 5-5 5z"/><circle class="st2" cx="70" cy="148" r="3.3"/><path class="st1" d="M317.8 141.7h-56.4c-1.1 0-2-.9-2-2v-35.6c0-1.1.9-2 2-2h56.4c1.1 0 2 .9 2 2v35.6c0 1.1-.9 2-2 2z"/><path d="M289.6 121.6h-.1c-.3 0-.5-.1-.8-.2l-23.3-12.9c-.8-.4-1-1.4-.6-2.2.4-.8 1.4-1 2.2-.6l22.6 12.6 22.6-12.6c.8-.4 1.7-.2 2.2.6.4.8.2 1.7-.6 2.2l-23.3 12.9c-.3.1-.6.2-.9.2z" fill="#dc4a42"/><path class="st13" d="M406.6 137.7h-71.3c-1 0-1.8-.8-1.8-1.8V42.5c0-1 .8-1.8 1.8-1.8h71.3c1 0 1.8.8 1.8 1.8v93.3c.1 1.1-.8 1.9-1.8 1.9z"/><path class="st21" d="M350.2 53.7h-5c-.3 0-.5-.4-.5-1 0-.5.2-1 .5-1h5c.3 0 .5.4.5 1s-.2 1-.5 1zm31 0h-28.6c-.3 0-.5-.4-.5-1 0-.5.2-1 .5-1h28.6c.3 0 .5.4.5 1-.1.6-.3 1-.5 1z"/><path class="st22" d="M361.7 57.7h-9.1c-.3 0-.5-.4-.5-1 0-.5.2-1 .5-1h9.1c.3 0 .5.4.5 1s-.2 1-.5 1z"/><path class="st1" d="M376.7 57.7h-13.1c-.3 0-.5-.4-.5-1 0-.5.2-1 .5-1h13.1c.3 0 .5.4.5 1s-.2 1-.5 1zm4.5 19.5h-28.6c-.3 0-.5-.4-.5-1 0-.5.2-1 .5-1h28.6c.3 0 .5.4.5 1-.1.5-.3 1-.5 1z"/><path class="st21" d="M350.2 81.1h-5c-.3 0-.5-.4-.5-1 0-.5.2-1 .5-1h5c.3 0 .5.4.5 1s-.2 1-.5 1z"/><path class="st1" d="M361.7 81.1h-9.1c-.3 0-.5-.4-.5-1 0-.5.2-1 .5-1h9.1c.3 0 .5.4.5 1s-.2 1-.5 1z"/><path class="st22" d="M376.7 81.1h-13.1c-.3 0-.5-.4-.5-1 0-.5.2-1 .5-1h13.1c.3 0 .5.4.5 1s-.2 1-.5 1zm11.5-19.4h-35.7c-.3 0-.5-.4-.5-1 0-.5.2-1 .5-1h35.7c.3 0 .5.4.5 1s-.2 1-.5 1z"/><path class="st21" d="M381.1 65.7h-8.9c-.1 0-.2-.1-.2-.2V64c0-.1.1-.2.2-.2h8.9c.1 0 .2.1.2.2v1.5c0 .1-.1.2-.2.2z"/><path class="st1" d="M364.4 65.7h-11.8c-.3 0-.5-.4-.5-1 0-.5.2-1 .5-1h11.8c.3 0 .5.4.5 1s-.2 1-.5 1z"/><path class="st21" d="M370.7 65.7H366c-.3 0-.5-.4-.5-1 0-.5.2-1 .5-1h4.7c.3 0 .5.4.5 1s-.2 1-.5 1z"/><path class="st1" d="M350.2 69.6h-5c-.3 0-.5-.4-.5-1 0-.5.2-1 .5-1h5c.3 0 .5.4.5 1 0 .5-.2 1-.5 1zm38 0h-35.7c-.3 0-.5-.4-.5-1 0-.5.2-1 .5-1h35.7c.3 0 .5.4.5 1 0 .5-.2 1-.5 1zm-38 15.2h-5c-.3 0-.5-.4-.5-1 0-.5.2-1 .5-1h5c.3 0 .5.4.5 1s-.2 1-.5 1zm34.4 0h-12.3c-.2 0-.3-.1-.3-.3v-1.4c0-.2.1-.3.3-.3h12.3c.2 0 .3.1.3.3v1.4c0 .2-.2.3-.3.3zm-20.2 0h-11.8c-.3 0-.5-.4-.5-1 0-.5.2-1 .5-1h11.8c.3 0 .5.4.5 1s-.2 1-.5 1zm6.3 0H366c-.3 0-.5-.4-.5-1 0-.5.2-1 .5-1h4.7c.3 0 .5.4.5 1s-.2 1-.5 1z"/><path class="st23" d="M350.2 88.7h-5c-.3 0-.5-.4-.5-1 0-.5.2-1 .5-1h5c.3 0 .5.4.5 1s-.2 1-.5 1z"/><path class="st21" d="M358.8 88.7h-6.2c-.3 0-.5-.4-.5-1 0-.5.2-1 .5-1h6.2c.3 0 .5.4.5 1-.1.6-.3 1-.5 1zm-13.6-15.1c-.3 0-.5-.4-.5-1 0-.5.2-1 .5-1h5c.3 0 .5.4.5 1 0 .5-.2 1-.5 1"/><path class="st1" d="M386.2 73.6h-14c-.2 0-.3-.1-.3-.3V72c0-.2.1-.3.3-.3h14c.2 0 .3.1.3.3v1.3c0 .1-.1.3-.3.3z"/><path class="st23" d="M364.4 73.6h-11.8c-.3 0-.5-.4-.5-1 0-.5.2-1 .5-1h11.8c.3 0 .5.4.5 1 0 .5-.2 1-.5 1zm6.3 0H366c-.3 0-.5-.4-.5-1 0-.5.2-1 .5-1h4.7c.3 0 .5.4.5 1 0 .5-.2 1-.5 1z"/><path class="st1" d="M381.2 92.8h-28.6c-.3 0-.5-.4-.5-1 0-.5.2-1 .5-1h28.6c.3 0 .5.4.5 1-.1.6-.3 1-.5 1zm-19.5 4h-9.1c-.3 0-.5-.4-.5-1 0-.5.2-1 .5-1h9.1c.3 0 .5.4.5 1s-.2 1-.5 1zm15 0h-13.1c-.3 0-.5-.4-.5-1 0-.5.2-1 .5-1h13.1c.3 0 .5.4.5 1s-.2 1-.5 1zm4.5 19.4h-28.6c-.3 0-.5-.4-.5-1 0-.5.2-1 .5-1h28.6c.3 0 .5.4.5 1-.1.6-.3 1-.5 1z"/><path class="st22" d="M350.2 120.2h-5c-.3 0-.5-.4-.5-1 0-.5.2-1 .5-1h5c.3 0 .5.4.5 1s-.2 1-.5 1z"/><path class="st21" d="M361.7 120.2h-9.1c-.3 0-.5-.4-.5-1 0-.5.2-1 .5-1h9.1c.3 0 .5.4.5 1s-.2 1-.5 1z"/><path class="st1" d="M376.7 120.2h-13.1c-.3 0-.5-.4-.5-1 0-.5.2-1 .5-1h13.1c.3 0 .5.4.5 1s-.2 1-.5 1z"/><path class="st22" d="M350.2 100.8h-5c-.3 0-.5-.4-.5-1 0-.5.2-1 .5-1h5c.3 0 .5.4.5 1s-.2 1-.5 1zm28.2 0h-26c-.1 0-.3-.1-.3-.3v-1.4c0-.1.1-.3.3-.3h26c.1 0 .3.1.3.3v1.4c0 .2-.1.3-.3.3z"/><path class="st1" d="M350.2 104.8h-5c-.3 0-.5-.4-.5-1 0-.5.2-1 .5-1h5c.3 0 .5.4.5 1 0 .5-.2 1-.5 1zm14.2 0h-11.8c-.3 0-.5-.4-.5-1 0-.5.2-1 .5-1h11.8c.3 0 .5.4.5 1 0 .5-.2 1-.5 1zm6.3 0H366c-.3 0-.5-.4-.5-1 0-.5.2-1 .5-1h4.7c.3 0 .5.4.5 1 0 .5-.2 1-.5 1zm-20.5 3.8h-5c-.3 0-.5-.4-.5-1 0-.5.2-1 .5-1h5c.3 0 .5.4.5 1s-.2 1-.5 1zm35.1 0h-32.9c-.2 0-.3-.1-.3-.3V107c0-.2.1-.3.3-.3h32.9c.2 0 .3.1.3.3v1.3c0 .2-.2.3-.3.3zm-35.1 15.3h-5c-.3 0-.5-.4-.5-1 0-.5.2-1 .5-1h5c.3 0 .5.4.5 1s-.2 1-.5 1zm38 0h-15.8c-.3 0-.5-.4-.5-1 0-.5.2-1 .5-1h15.8c.3 0 .5.4.5 1s-.2 1-.5 1zm-23.8 0h-11.8c-.3 0-.5-.4-.5-1 0-.5.2-1 .5-1h11.8c.3 0 .5.4.5 1s-.2 1-.5 1zm6.3 0H366c-.3 0-.5-.4-.5-1 0-.5.2-1 .5-1h4.7c.3 0 .5.4.5 1s-.2 1-.5 1z"/><path class="st23" d="M374 127.8h-21.6c-.1 0-.2-.1-.2-.2v-1.4c0-.1.1-.2.2-.2H374c.1 0 .2.1.2.2v1.4c0 .1-.1.2-.2.2z"/><path class="st22" d="M387.1 112.6h-14.8c-.2 0-.3-.1-.3-.3V111c0-.2.1-.3.3-.3h14.8c.2 0 .3.1.3.3v1.3c0 .2-.1.3-.3.3z"/><path class="st23" d="M364.4 112.6h-11.8c-.3 0-.5-.4-.5-1 0-.5.2-1 .5-1h11.8c.3 0 .5.4.5 1s-.2 1-.5 1zm6.3 0H366c-.3 0-.5-.4-.5-1 0-.5.2-1 .5-1h4.7c.3 0 .5.4.5 1s-.2 1-.5 1z"/><circle cx="402.4" cy="42.7" r="15.8" fill="#de4ecc"/><path class="st7" d="M401.3 41.3l-6.3 2.3 6.3 2.3v2.4l-9-3.4v-2.4l9-3.4v2.2zm2-2.4l9 3.4v2.4l-9 3.4v-2.4l6.3-2.3-6.3-2.3v-2.2z"/><circle transform="rotate(-34.147 297.996 308.83)" class="st16" cx="298" cy="308.8" r="17.1"/><path class="st19" d="M307.1 307.9c0 1.1-.2 2-.5 2.9-.3.9-.8 1.6-1.4 2.1-.6.5-1.3.8-2.2.8-.5 0-1-.1-1.5-.4-.4-.3-.7-.6-.9-1h-.2c-.8 1-1.8 1.4-3 1.4-1.3 0-2.3-.4-3.1-1.2-.8-.8-1.1-1.9-1.1-3.2 0-1.6.5-2.8 1.5-3.8s2.3-1.4 3.9-1.4c.6 0 1.3.1 2.1.2s1.4.3 1.9.4l-.3 5.4c0 1 .3 1.5.8 1.5s.8-.3 1.1-1c.3-.7.4-1.6.4-2.7 0-1.2-.2-2.2-.7-3.1-.5-.9-1.2-1.6-2.1-2.1-.9-.5-1.9-.7-3.1-.7-1.5 0-2.8.3-3.9.9-1.1.6-1.9 1.5-2.5 2.7-.6 1.2-.9 2.5-.9 4 0 2 .5 3.6 1.6 4.7s2.7 1.6 4.7 1.6c.8 0 1.6-.1 2.6-.3.9-.2 1.9-.4 2.8-.8v2.1c-1.6.7-3.3 1-5.3 1-2.8 0-5-.7-6.6-2.2-1.6-1.5-2.4-3.5-2.4-6.2 0-1.8.4-3.5 1.2-5 .8-1.5 1.9-2.7 3.4-3.5 1.5-.8 3.2-1.3 5.1-1.3 1.6 0 3.1.3 4.4 1 1.3.7 2.3 1.6 3 2.8.8 1.3 1.2 2.8 1.2 4.4zm-11.4 1.3c0 1.6.6 2.3 1.9 2.3.7 0 1.2-.2 1.5-.7.3-.5.6-1.2.6-2.3l.1-2.4c-.4-.1-.8-.1-1.3-.1-.9 0-1.6.3-2.2.9-.3.6-.6 1.3-.6 2.3z"/><path class="st8" d="M212 12.7H104.6c-8.7 0-15.8 7.1-15.8 15.8 0 8.7 7.1 15.8 15.8 15.8h7.9l7.6 7.6 7.6-7.6H212c8.7 0 15.8-7.1 15.8-15.8 0-8.7-7.1-15.8-15.8-15.8z"/><path class="st19" d="M181.3 33.5h-70.7c-1 0-1.8-.8-1.8-1.8s.8-1.8 1.8-1.8h70.7c1 0 1.8.8 1.8 1.8-.1 1-.9 1.8-1.8 1.8zm-22.1-9.7h-48.6c-1 0-1.8-.8-1.8-1.8s.8-1.8 1.8-1.8h48.6c1 0 1.8.8 1.8 1.8s-.8 1.8-1.8 1.8z"/><path class="st12" d="M358.8 212.8s-1.3 3.9-2 6.3c0 0 6.4-.1 8.7-3.1l-2.4-5.8-4.3 2.6z"/><path class="st25" d="M357.8 320.3l.6 2.5 3.5.2-.7-3z"/><path class="st13" d="M358.4 322.8s-6 3.1-5.9 3.3c0 .2 10.1-.9 10.1-.9l-.6-2.3-3.6-.1z"/><path class="st25" d="M387.9 315.4l1.4 2.1 3.3-1.1-1.7-2.5z"/><path class="st13" d="M389.3 317.5s-4.4 5-4.3 5.2c.1.2 9.1-4.4 9.1-4.4l-1.4-1.9-3.4 1.1z"/><path class="st16" d="M351.2 255.5s-10.2 33.3 6 65.5h4.8s-9.6-36.4 2.4-65.8l-13.2.3z"/><path class="st16" d="M360.1 256.7s1.6 34.8 27.7 59.7l4.5-1.6s-21.3-31-19.8-62.8l-12.4 4.7z"/><path class="st25" d="M355.4 178.2v-2.4l-.4-1.5-1.2.3-1.2-1.1c-.5-.5-1.3-.3-1.6.3-.4.8-.8 1.8-.9 2.6-.1.3 0 .6.3.8l1.8 2c.3.3.7.4 1 .3l1.5-.4c.4-.1.7-.5.7-.9z"/><path class="st26" d="M373 223.3s-13.3-14.3-14.2-19.6c-.9-5.3-2.8-25.2-2.8-25.2l-4.1.8s-1.4 28.4-.2 31.7c1.2 3.3 9.3 20 14.5 21.5 5.2 1.5 8.9-3.7 6.8-9.2z"/><path class="st25" d="M354.5 199.7s-3 10-1.1 12.5 8.9.2 11.6-3.8c2.7-4 3.3-13.1-1.4-13.9-4.5-.7-8 1.2-9.1 5.2z"/><path class="st26" d="M372.5 258.2s2.7-28.8 2.7-36.7v-1c-2-5.1-7-5-9-4.6-2 .4-9.8 2.9-9.8 3.2-2.7 2-4.7 4.3-4.9 4.8 0 0-7.2 15-.9 33l21.9 1.3z"/><path class="st25" d="M334.4 179.6l-.3-2c0-.1 0-.2-.1-.3l-.6-1.4-1.1.5-1.4-.9c-.6-.4-1.3-.1-1.5.6-.2.8-.5 1.9-.5 2.7 0 .3.2.6.4.8l2.1 1.6c.3.2.7.3 1.1.1l1.4-.7c.3-.1.5-.5.5-1z"/><path class="st26" d="M359.6 220.9s-15.6-11.7-17.4-16.8c-1.8-5.1-7.2-24.3-7.2-24.3l-3.9 1.5s3.6 28.2 5.4 31.2c1.8 3 12.6 18 18 18.6 5.4.7 8.1-5.1 5.1-10.2z"/><path class="st13" d="M365.6 194.5s-8-3.4-11.8 3.6c-2 4.4 4.4.2 5.6 1.6 1.2 1.4-1.6 4.2-.8 5.2s2.2-1.8 3-.2c.8 1.6-1.2 1.8-2.6 3.6-1.4 1.8 1.2 4.4-.8 6-2 1.6-7.6 2.8-4.2 11.4s-5.6 10.8-1.8 22.6 29.6 18.4 34.4 4.4c4.8-14-11.2-17.4-10.2-23.6 1-6.2 4.6-7.8-.2-14s-7.8-9.8-6.4-13.8c1.4-4-2.4-6.8-4.2-6.8z"/><path d="M387.5 146.1c-9.5 0-17.2 7.7-17.2 17.2s7.7 17.2 17.2 17.2 17.2-7.7 17.2-17.2-7.7-17.2-17.2-17.2zm-8.7 15.9c0-1.2.9-2.1 2.1-2.1s2.1.9 2.1 2.1-.9 2.1-2.1 2.1-2.1-1-2.1-2.1zm8.7 10.7c-2.8 0-5.1-2.1-5.4-4.7h10.8c-.4 2.6-2.7 4.7-5.4 4.7zm6.6-8.6c-1.2 0-2.1-.9-2.1-2.1s.9-2.1 2.1-2.1c1.2 0 2.1.9 2.1 2.1s-1 2.1-2.1 2.1z" fill="#f0c72f"/><path class="st7" d="M131.7 285.8l-1-2 27.3-13.7 34.4.6 37.4-14.1h28.6l30.4-10.2.3.1 24.5 2.7 13.7-7.1 1.1 2-14.4 7.5-.4-.1-24.5-2.8-30.6 10.2H230L192.8 273l-.2-.1-34.1-.5z"/><path class="st13" d="M231.9 231.7s27.1 43.8 23.7 74.3l18.4.4-7.9-4.6 2.3-.4s-6.8-47.2-13.2-64c-6.7-17.6-8.6-11.1-8.6-11.1l-14.7 5.4z"/><path class="st13" d="M222.1 229s1.5 30.4-.8 42.1c-2.3 11.6-9 34.6-9 34.6l17.3.4-4.5-3.2-2.9-1.7s12.3-33.1 13.4-48.8c1.1-15.8 3-24.8 3-24.8l-16.5 1.4z"/><path class="st12" d="M257.5 138.9l2.8-2 1.2-4.6-1.4-.3-.8 1.7.8-8-1.4.2-1.4 7.8-1.7 3.6 1.6 1m16.9 9l.4-3.4 4.1-4.2 1 1.4-1.5 1.7 7.9-1.9v1.7l-7.4 2.8-1.5 2.6z"/><path class="st2" d="M255.5 136.1s-32.1 38.9-35.8 46.7c0 0-1.6 2.8-1.6 10.9s2.8 38 2.8 38l32.7 1.9s-10.6-36.4-10.9-37.4c-.3-.9-5.6-6.5-10.6-7.8l27.4-49.5-4-2.8z"/><path class="st12" d="M235.2 184.6s1.4 4 2.1 6.5c0 0-6.7-.1-9-3.2l2.5-6 4.4 2.7z"/><path class="st12" d="M240.3 172s2 11.5 0 14.1c-2 2.6-8.7-1.8-11.6-6-2.8-4.2-3.4-13.6 1.4-14.4 4.8-.8 9 2.1 10.2 6.3z"/><path class="st2" d="M237.2 193.3s25.7-16.2 27.8-19.5c2.1-3.3 7.9-28 7.9-28l5 1.2s-2.9 27.6-3.7 30.5c-.8 2.9-26.1 29.9-32 29.9-5.8 0-7.9-7.5-5-14.1z"/><path class="st13" d="M238.4 169.4s1.3-4.5-1.5-6.8-7.7-1.9-8.5-1.1c0 1.3 3 2.1 2.3 2.8-.8.8-4.7 0-5.6 3.9-.9 3.9.4 4.7.4 4.7s-2.1 2.4.4 5.8c2.4 3.4 8 6.2 9.3 5.8 1.4-.4.6-5.6.6-5.6s-3.2-.4-3.4-2.4c-.2-2.1 1.5-2.3 2.3-1.5.8.8.9 2.4 1.5 2.1.6-.4-.2-4.3-.2-4.3s2.1-1.7 2.4-3.4z"/><path class="st8" d="M253.6 284.5l-19.3 5.3c-5.3 1.5-8.5 7-7 12.3l3.7 13.3c1.5 5.3 7 8.5 12.3 7l5.8-1.6 5.7 5.6 2-7.8 5.8-1.6c5.3-1.5 8.5-7 7-12.3l-3.7-13.3c-1.5-5.2-7-8.3-12.3-6.9z"/><path class="st19" d="M240.8 306.4c.3 1.2-.4 2.4-1.6 2.7-1.2.3-2.4-.4-2.7-1.6-.3-1.2.4-2.4 1.6-2.7 1.1-.3 2.4.4 2.7 1.6zm9.7-2.7c.3 1.2-.4 2.4-1.6 2.7-1.2.3-2.4-.4-2.7-1.6-.3-1.2.4-2.4 1.6-2.7s2.4.4 2.7 1.6zm9.8-2.7c.3 1.2-.4 2.4-1.6 2.7-1.2.3-2.4-.4-2.7-1.6-.3-1.2.4-2.4 1.6-2.7 1.1-.2 2.3.4 2.7 1.6z"/><circle class="st16" cx="158" cy="270.7" r="3.6"/><circle class="st26" cx="289.2" cy="247.8" r="3.6"/></svg>