<svg baseProfile="tiny" xmlns="http://www.w3.org/2000/svg" viewBox="0 0 187 59"><path fill="#FFF" d="M112.3 45.3c-.2-.6-.4-1.1-.5-1.7 6.3-2.1 12.5-4.2 18.7-6.4.3 1.4.1 1.8-1.1 2.2l-16.5 5.7c-.2 0-.3.1-.6.2zm-5.4-15.8c-.2-.6-.3-1.1-.5-1.6 1.8-.6 3.6-1.2 5.3-1.8 4.1-1.4 8.1-2.7 12.2-4.2 1.1-.4 1.3.5 2.1 1.1-6.6 2.1-12.8 4.3-19.1 6.5zm6.5 18.9c-.2-.6-.4-1-.6-1.6 5.6-1.9 11.1-3.8 16.7-5.8-.3 1-1.1 2-2.3 2.5-2.7 1-5.4 2-8.2 2.9-1.8.7-3.6 1.3-5.6 2zm-7.6-22.1c-.2-.5-.4-1-.6-1.6 1.4-.5 2.8-1 4.1-1.5 3-1 6-2.1 9-3.1 1.3-.5 3.1-.3 4.3.3-5.6 2-11.1 4-16.8 5.9zm6.8 9.9c1.5-.5 3-1 4.4-1.5 2.5-.9 5.1-1.6 7.6-2.6 1.3-.5 2.3-.2 3.4.7-5 1.7-9.8 3.4-14.8 5.1-.1-.5-.3-1-.6-1.7zm13.7-8.1c-.3 1.3-.8 2.1-2.1 2.5-4 1.3-8 2.7-12.1 4.1-.2-.5-.4-.9-.6-1.5 5-1.7 9.8-3.4 14.8-5.1zm-15.5 17.7c-3.9 1.3-7.7 2.7-11.6 4-.2-.5-.4-1-.6-1.7 3.9-1.3 7.7-2.7 11.7-4 .1.6.3 1.1.5 1.7zm-11.2 5.6c3.9-1.4 7.8-2.7 11.7-4 .2.5.4 1 .6 1.6-3.9 1.3-7.7 2.7-11.7 4-.2-.6-.4-1-.6-1.6zm-7-20.6c-.2-.5-.4-1-.6-1.6 3.9-1.3 7.7-2.7 11.7-4 .2.4.3.8.4 1.1 0 .2-.2.6-.3.6-3.7 1.4-7.4 2.6-11.2 3.9zm12.2-2.4c.2.6.4 1 .6 1.6-3.9 1.3-7.8 2.7-11.7 4-.2-.6-.3-1.1-.5-1.6 3.8-1.3 7.6-2.7 11.6-4zm48.3-16.6c.2.5.4 1 .6 1.6-3.8 1.3-7.6 2.6-11.5 4v-1.8c3.6-1.3 7.2-2.5 10.9-3.8zm-16.3 5.6c.4.5.7.9 1.1 1.4-3.7 1.3-7.3 2.5-11 3.8-.2-.5-.4-1-.6-1.6l10.5-3.6zM152 8.6c.2.4.3.7.4 1 .2.5 0 .7-.5.9-3.1 1.1-6.2 2.1-9.4 3.2-.1 0-.2 0-.4.1 0-.6-.1-1.1-.1-1.7 3.3-1.2 6.6-2.3 10-3.5zm-26.2 10.8c-.2-.4-.3-.7-.4-.9-.2-.5-.1-.7.4-.9 2.8-.9 5.5-1.9 8.3-2.8 1.1-.4 1 .8 1.9 1.2l-10.2 3.4zM151 16c.2.6.4 1 .6 1.7-3.1 1.1-6.1 2.1-9.2 3.2-.4-1.7-.4-1.7 1.1-2.2 2.5-1 4.9-1.8 7.5-2.7zm1.7 4.7c-1.8.6-3.5 1.2-5.2 1.8-.2-.3-.3-.6-.6-1.2v1.4c-1.5.5-2.9 1-4.3 1.5-.4-1.4-.4-1.6 1-2.1l7.8-2.7c.2-.1.5-.1.8-.2.1.6.3 1 .5 1.5zm-15.6 4.4c.1.2.2.5.3.9-1.7.6-3.4 1.2-5.2 1.8-.2-.5-.3-1-.5-1.5 3.1-1.1 6.2-2.1 9.3-3.2.3.4.6.9 1 1.4-1.3.4-2.4.9-3.7 1.2-.3 0-.8-.4-1.2-.6zm-6-.4c-.2-.6-.4-1.1-.5-1.7 1.2-.4 2.3-.8 3.5-1.2l3.6-1.2c1.4-.5 1.5-.4 2.2 1.1-3 1-5.8 2-8.8 3zm1.1 13.7c-.2-.6-.3-1.1-.5-1.7 2.8-1 5.5-1.9 8.4-2.9.2.6.4 1.1.6 1.7-2.8 1-5.6 1.9-8.5 2.9zm18.5-6.3c-.2-.6-.4-1.1-.6-1.7 2.8-1 5.6-1.9 8.4-2.9.2.6.4 1 .6 1.6-2.8 1.1-5.5 2-8.4 3zm-9.5 4.9c.2.6.4 1.1.6 1.6-2.8 1-5.6 1.9-8.4 2.9-.2-.5-.4-1-.6-1.6 2.8-.9 5.5-1.9 8.4-2.9zm10.6-1.8c-.2-.6-.3-1-.5-1.6 2.8-1 5.6-1.9 8.4-2.9.2.6.4 1 .6 1.6-2.9 1-5.7 2-8.5 2.9zm-12.7-8.1c2.6-.9 5.2-1.8 7.7-2.6.4 1.6.4 1.7-1.1 2.3l-4.2 1.5c-1.6.4-1.6.4-2.4-1.2zm-18 1.1c-.2-.6-.4-1.1-.6-1.6 1.9-.7 3.8-1.3 5.8-2 .1.3.2.5.3.7.3.7.2 1.1-.7 1.4-1.6.3-3.2.9-4.8 1.5zm-10.6 1.7c1.8-.6 3.6-1.2 5.3-1.8.2.6.4 1.1.6 1.7-1.8.6-3.5 1.2-5.4 1.9-.1-.6-.3-1.1-.5-1.8zm22.2-.6c1.8-.6 3.5-1.2 5.2-1.8.2.6.4 1.1.6 1.7-1.8.6-3.5 1.2-5.3 1.8-.1-.5-.3-1-.5-1.7zm-8.9 6.7c1.8-.6 3.4-1.2 5-1.8.7-.2.8-.1 1.2 1.3l-5.4 1.8c-.1 0-.4-.2-.5-.3-.1-.2-.2-.5-.3-1zm-19 2.9c.2.6.4 1.1.6 1.7-1.8.6-3.4 1.2-5.2 1.8-.2-.6-.4-1.1-.6-1.7 1.7-.6 3.4-1.1 5.2-1.8zm43.7-13.1c-.2-.6-.4-1.1-.6-1.7 1.7-.6 3.4-1.2 5.2-1.8.2.5.4 1.1.6 1.7-1.7.6-3.4 1.2-5.2 1.8zM98 36.1c-.2-.6-.4-1-.6-1.6 1.7-.6 3.4-1.2 5.2-1.8.2.6.4 1.1.6 1.7-1.8.5-3.5 1.1-5.2 1.7zm21.1 1.5c.2.6.3 1 .5 1.6-1.7.6-3.3 1.1-4.9 1.7-.2.1-.5-.2-.6-.3-.2-.3-.2-.6-.3-1.1 1.8-.7 3.5-1.3 5.3-1.9zm15.2-3.5c-.2-.6-.4-1-.5-1.5 1.7-.6 3.5-1.2 5.3-1.8l.6 1.5-5.4 1.8zm20-8.6c.2.6.3 1 .5 1.6-1.8.6-3.4 1.2-5.2 1.8-.2-.5-.3-1-.5-1.6 1.7-.6 3.4-1.2 5.2-1.8zM141.2 30c1.9-.7 3.8-1.3 5.6-1.9.4 1.6.4 1.6-1.1 2.1-.8.3-1.6.5-2.3.8-1.3.5-1.3.5-2.2-1zm-40 15.5c-.2-.6-.3-1-.5-1.6 1.7-.6 3.4-1.2 5.2-1.8.2.5.3 1 .5 1.6-1.7.6-3.4 1.2-5.2 1.8zm2.5-9.6c.2.5.3 1 .5 1.5-1.7.6-3.4 1.2-5.2 1.8-.2-.5-.3-1-.5-1.5 1.8-.6 3.5-1.2 5.2-1.8zm43.3-4.4c-.2.8.5 1.7-.7 2.1-2.1.7-2.1.8-3-.9 1.2-.4 2.4-.7 3.7-1.2zm-1.7 4.2c.7-.2 1.2-.4 1.6-.6.1.1.1.1.1.2-.1.6-.2 1.1-.3 1.7-.4-.4-.9-.8-1.4-1.3zm10-26.6l-.4-1.3.6-.2c.1 0 .2-.1.3-.1.1 0 .1 0 .2.1.1 0 .1.1.1.2v.3c0 .1-.1.2-.2.2h.1c.1 0 .1.1.2.1l.3.3-.2.1-.3-.2c-.1-.1-.1-.1-.2-.1s-.1-.1-.1-.1h-.2l-.2.1.2.6h-.2zm-.1-.8l.4-.1c.1 0 .1-.1.2-.1l.1-.1v-.1c0-.1-.1-.1-.1-.1h-.2l-.4.1v.4z"/><path fill="#FFF" d="M156 9.6c-.7.2-1.4-.2-1.7-.8-.2-.7.2-1.4.8-1.7.7-.2 1.4.2 1.7.8.3.7-.1 1.4-.8 1.7zm-.7-2.4c-.6.2-.9.8-.7 1.4.2.6.8.9 1.4.7s.9-.8.7-1.4-.8-.9-1.4-.7zM28 14.1h4.2c1.7 0 3.2.6 3.2 2.5 0 1.1-.7 2-1.7 2.2 1.3.2 2.1 1.1 2.1 2.4 0 1-.3 2.9-3.6 2.9H28v-10zm.9 4.4h3.3c1.5 0 2.3-.8 2.3-1.7 0-1.3-.8-1.9-2.3-1.9h-3.3v3.6zm0 4.9h3.3c1.4 0 2.6-.5 2.6-2.1 0-1.3-1-1.9-2.6-1.9h-3.3v4zm14 .8h-.8v-1.3c-.5 1-1.4 1.5-2.5 1.5-1.8 0-2.5-1.1-2.5-2.8v-4.7h.9v4.7c0 1.3.5 2 1.9 2 1.5 0 2.2-1.4 2.2-2.9v-3.8h.9v7.3zm5.9-5.2c0-1.1-.9-1.6-1.9-1.6-.8 0-1.7.3-1.7 1.3 0 .8.9 1.1 1.5 1.2l1.2.3c1 .2 2.1.7 2.1 2 0 1.6-1.6 2.2-2.9 2.2-1.7 0-2.8-.8-3-2.6h.9c.1 1.2 1 1.8 2.1 1.8.8 0 2-.4 2-1.4 0-.8-.8-1.1-1.6-1.3l-1.1-.3c-1.2-.3-2-.7-2-1.9 0-1.5 1.4-2 2.7-2 1.4 0 2.6.8 2.7 2.3h-1zm2.3-4.9h.9v1.4h-.9v-1.4zm0 2.8h.9v7.3h-.9v-7.3zm2.4 0h.9v1.3c.3-.9 1.3-1.5 2.3-1.5 2 0 2.7 1.1 2.7 2.8v4.7h-.9v-4.5c0-1.3-.4-2.2-1.8-2.2s-2.2 1.1-2.3 2.5v4.2h-.9v-7.3zm7.9 3.9c0 1.3.7 2.9 2.4 2.9 1.3 0 2-.8 2.3-1.9h.9c-.4 1.6-1.3 2.6-3.2 2.6-2.3 0-3.3-1.8-3.3-3.8 0-1.9 1-3.8 3.3-3.8s3.3 2 3.2 4.1h-5.6zm4.7-.8c0-1.3-.9-2.6-2.3-2.6s-2.2 1.3-2.4 2.6h4.7zm6.3-1c0-1.1-.9-1.6-1.9-1.6-.8 0-1.7.3-1.7 1.3 0 .8.9 1.1 1.5 1.2l1.2.3c1 .2 2.1.7 2.1 2 0 1.6-1.6 2.2-2.9 2.2-1.7 0-2.8-.8-3-2.6h.9c.1 1.2 1 1.8 2.1 1.8.8 0 2-.4 2-1.4 0-.8-.8-1.1-1.6-1.3l-1.1-.2c-1.2-.3-2-.7-2-1.9 0-1.5 1.4-2 2.7-2 1.4 0 2.6.8 2.7 2.3h-1zm6.6 0c0-1.1-.9-1.6-1.9-1.6-.8 0-1.7.3-1.7 1.3 0 .8.9 1.1 1.5 1.2l1.2.3c1 .2 2.1.7 2.1 2 0 1.6-1.6 2.2-2.9 2.2-1.7 0-2.8-.8-3-2.6h.9c.1 1.2 1 1.8 2.1 1.8.8 0 2-.4 2-1.4 0-.8-.8-1.1-1.6-1.3l-1.1-.3c-1.2-.3-2-.7-2-1.9 0-1.5 1.4-2 2.7-2 1.4 0 2.6.8 2.7 2.3h-1zm-51 7.4h4.5c1.8 0 3 1.1 3 2.9 0 1.8-1.2 2.9-3 2.9H29v4.3h-1V26.4zm.9 5h3.3c1.3 0 2.2-.7 2.2-2.1 0-1.4-.9-2.1-2.2-2.1h-3.3v4.2zm7.5 0c.1-1.7 1.3-2.4 2.9-2.4 1.3 0 2.7.4 2.7 2.3v3.9c0 .3.2.5.5.5.1 0 .2 0 .3-.1v.7c-.2 0-.3.1-.6.1-.9 0-1-.5-1-1.3-.6.9-1.3 1.5-2.6 1.5s-2.4-.7-2.4-2.1c0-2 2-2.1 3.9-2.3.7-.1 1.1-.2 1.1-1 0-1.2-.9-1.5-1.9-1.5-1.1 0-1.9.5-1.9 1.7h-1zm4.7 1.1c-.1.2-.5.3-.8.3-1.5.3-3.4.3-3.4 1.7 0 .9.8 1.4 1.6 1.4 1.3 0 2.5-.9 2.5-2.3v-1.1zm2.6-3.3h.8v1.7c.4-1.2 1.4-1.9 2.7-1.8v.9c-1.6-.1-2.7 1.1-2.7 2.6v3.9h-.9v-7.3zm5.7 0h1.5v.8h-1.5v4.9c0 .6.1.9.7 1h.8v.8h-.8c-1.2 0-1.6-.4-1.6-1.6v-5h-1.3v-.7h1.3V27h.9v2.2zm2.6 0h.9v1.3c.3-.9 1.3-1.5 2.3-1.5 2 0 2.7 1.1 2.7 2.8v4.7H57V32c0-1.3-.4-2.2-1.8-2.2s-2.2 1.1-2.3 2.5v4.2H52v-7.3zm7.9 3.9c0 1.3.7 2.9 2.4 2.9 1.3 0 2-.8 2.3-1.9h.9c-.4 1.6-1.3 2.6-3.2 2.6-2.3 0-3.3-1.8-3.3-3.8 0-1.9 1-3.8 3.3-3.8s3.3 2 3.2 4.1h-5.6zm4.7-.8c0-1.3-.9-2.6-2.3-2.6s-2.2 1.3-2.4 2.6h4.7zm1.9-3.1h.8v1.7c.4-1.2 1.4-1.9 2.7-1.8v.9c-1.6-.1-2.7 1.1-2.7 2.6v3.9h-.9v-7.3z"/><path fill="#FFF" d="M167 56.8H19.3V2.1H167v54.7zm-145.5-2h143.2v-51H21.5v51z"/></svg>