<svg baseProfile="tiny" xmlns="http://www.w3.org/2000/svg" viewBox="0 0 187 59"><path fill="#545457" d="M73.6 16.3h2.1v11.9h-2.1V16.3zm4.9 0h5.8c2.1 0 3.5 1 3.5 2.9 0 1.2-.6 2.1-1.7 2.5 1.4.3 2.2 1.4 2.2 3.1 0 1.9-1.3 3.3-4.4 3.3h-5.5V16.3zm2.1 5H84c1 0 1.7-.6 1.7-1.6 0-1.2-.6-1.6-1.7-1.6h-3.4v3.2zm0 5.2h3.7c1.3 0 2-.7 2-1.9s-.7-1.8-2-1.8h-3.7v3.7zm9.9-10.2h2.9l3.3 9.3 3.2-9.3h2.9v11.9h-2V19l-3.3 9.2h-1.7L92.5 19v9.2h-2V16.3z"/><path d="M77.4 34.8h1.3l4.8 12.4h-1.3l-1.5-3.8h-5.6l-1.5 3.8h-1.3l5.1-12.4zm-1.9 7.5h4.9L78 35.9l-2.5 6.4zm9.9-4.1h1.1v1.5c.4-1.1 1.6-1.8 2.9-1.8 2.5 0 3.3 1.3 3.3 3.4V47h-1.1v-5.6c0-1.5-.5-2.7-2.3-2.7-1.7 0-2.8 1.3-2.8 3.1V47h-1.1v-8.8zm10.1 2.7c.1-2.1 1.6-3 3.6-3 1.6 0 3.3.5 3.3 2.9v4.7c0 .4.2.7.6.7.1 0 .3 0 .3-.1v.9c-.2.1-.4.1-.7.1-1.1 0-1.3-.6-1.3-1.6-.8 1.2-1.5 1.8-3.3 1.8-1.6 0-3-.8-3-2.6 0-2.5 2.4-2.6 4.8-2.9.9-.1 1.4-.2 1.4-1.2 0-1.5-1.1-1.8-2.3-1.8-1.4 0-2.4.6-2.4 2.1h-1zm5.8 1.3c-.2.3-.7.3-1 .4-1.9.3-4.2.3-4.2 2.1 0 1.1 1 1.8 2 1.8 1.7 0 3.1-1.1 3.1-2.8v-1.5zm4.2-7.4h1.1v12.4h-1.1V34.8zm3.1 3.4h1.2l2.9 7.6 2.8-7.6h1.1l-3.9 10.3c-.6 1.5-1 1.9-2.4 1.9-.4 0-.7 0-.8-.1v-.9c.3.1.5.1.7.1 1 0 1.2-.6 1.6-1.4l.4-1-3.6-8.9zm11.6 0h1.8v.9h-1.8v6c0 .7.1 1.1.9 1.2.3 0 .6 0 .9-.1v.9h-1c-1.5 0-2-.5-1.9-2V39h-1.6v-.9h1.6v-2.7h1.1v2.8zm4.3-3.4h1.1v1.7h-1.1v-1.7zm0 3.4h1.1v8.9h-1.1v-8.9zm10.4 2.8c-.3-1.3-1.1-2.1-2.5-2.1-2.1 0-3.1 1.9-3.1 3.8s1 3.8 3.1 3.8c1.3 0 2.5-1.1 2.6-2.5h1.1c-.3 2.1-1.7 3.5-3.7 3.5-2.7 0-4.2-2.2-4.2-4.7 0-2.6 1.5-4.7 4.2-4.7 1.9 0 3.4 1 3.6 3.1h-1.1zm8.9-.2c-.1-1.3-1.1-2-2.3-2-1 0-2.1.4-2.1 1.5 0 1 1.1 1.3 1.9 1.5l1.5.3c1.2.2 2.5.9 2.5 2.5 0 1.9-1.9 2.7-3.6 2.7-2.1 0-3.5-1-3.7-3.1h1.1c.1 1.5 1.2 2.2 2.6 2.2 1 0 2.4-.5 2.4-1.7 0-1-1-1.4-2-1.6l-1.4-.3c-1.4-.4-2.5-.9-2.5-2.4 0-1.8 1.8-2.5 3.4-2.5 1.8 0 3.2.9 3.3 2.9h-1.1zm-25.9-20.2c-.2-1.2-1.1-1.8-2.4-1.8-2 0-2.8 1.8-2.8 3.5s.8 3.5 2.8 3.5c1.5 0 2.3-.8 2.4-2.2h3.1c-.2 3.1-2.4 4.9-5.4 4.9-3.6 0-5.9-2.8-5.9-6.2s2.3-6.2 5.9-6.2c2.6 0 5.4 1.6 5.4 4.5h-3.1zm9.2-1.2c2.7 0 4.6 2 4.6 4.6s-1.9 4.6-4.6 4.6-4.6-2-4.6-4.6 1.9-4.6 4.6-4.6zm0 7c1.3 0 1.7-1.3 1.7-2.4s-.4-2.4-1.7-2.4-1.7 1.3-1.7 2.4.4 2.4 1.7 2.4zm15 .8c0 1.4-.3 4.1-4.3 4.1-2 0-3.9-.5-4.3-2.8h2.8c.1.4.2.6.5.8.3.1.6.2 1 .2 1.4 0 1.5-1 1.5-2v-.8c-.5.8-1.4 1.3-2.3 1.3-2.6 0-3.8-1.9-3.8-4.3 0-2.3 1.4-4.2 3.8-4.2 1 0 1.8.5 2.3 1.3v-1.1h2.7v7.5zm-4.4-5.7c-1.3 0-1.7 1.1-1.7 2.2 0 1 .5 2 1.6 2 1.2 0 1.7-.9 1.7-2 .1-1.1-.4-2.2-1.6-2.2zm6.7-1.9h2.8v1.2c.5-.9 1.7-1.4 2.7-1.4 2.9 0 3.1 2.1 3.1 3.4v5.6h-2.8v-4.2c0-1.2.1-2.4-1.4-2.4-1.1 0-1.5.9-1.5 1.9v4.7h-2.8v-8.8zm15.1-.2c2.7 0 4.6 2 4.6 4.6s-1.9 4.6-4.6 4.6-4.6-2-4.6-4.6 1.9-4.6 4.6-4.6zm0 7c1.3 0 1.7-1.3 1.7-2.4s-.4-2.4-1.7-2.4-1.7 1.3-1.7 2.4.4 2.4 1.7 2.4zm8.8-1c0 .4.2.8.5 1 .3.2.7.3 1.1.3.6 0 1.3-.2 1.3-.9s-.9-.8-1.4-.9c-1.8-.5-4-.5-4-2.8 0-2.1 2.3-2.7 4-2.7 1.9 0 3.9.6 4 2.8h-2.6c0-.4-.1-.6-.4-.8s-.5-.2-.9-.2c-.5 0-1.2 0-1.2.7 0 .8 1.9 1 3.2 1.3 1.8.3 2.2 1.6 2.2 2.3 0 2.3-2.2 3.1-4.2 3.1-2.1 0-4.2-.7-4.2-3.1h2.6zM24.1 17.7h-5.4c-.7 0-1.3-.6-1.3-1.3V11c0-.7.6-1.3 1.3-1.3h5.4c.7 0 1.3.6 1.3 1.3v5.4c-.1.7-.7 1.3-1.3 1.3zm0 20.3h-5.4c-.7 0-1.3-.6-1.3-1.3v-5.4c0-.7.6-1.3 1.3-1.3h5.4c.7 0 1.3.6 1.3 1.3v5.4c-.1.7-.7 1.3-1.3 1.3zm0 10.1h-5.4c-.7 0-1.3-.6-1.3-1.3v-5.4c0-.7.6-1.3 1.3-1.3h5.4c.7 0 1.3.6 1.3 1.3v5.4c-.1.8-.7 1.3-1.3 1.3zM34.2 38h-5.4c-.7 0-1.3-.6-1.3-1.3v-5.4c0-.7.6-1.3 1.3-1.3h5.4c.7 0 1.3.6 1.3 1.3v5.4c0 .7-.6 1.3-1.3 1.3z"/><path fill="#545457" d="M44.4 27.8H39c-.7 0-1.3-.6-1.3-1.3v-5.4c0-.7.6-1.3 1.3-1.3h5.4c.7 0 1.3.6 1.3 1.3v5.4c-.1.8-.6 1.3-1.3 1.3zm13.2-14.1l-5-5c-.1-.1-.4-.1-.5 0l-5 5c-.1.1-.1.4 0 .5l5 5c.1.1.4.1.5 0l5-5c.1-.1.1-.3 0-.5zm-5.1 2.8c-.1.1-.3.1-.4 0l-2.3-2.3c-.1-.1-.1-.3 0-.4l2.3-2.3c.1-.1.3-.1.4 0l2.3 2.3c.1.1.1.3 0 .4l-2.3 2.3zM55 38.1h-5.4c-.7 0-1.3-.6-1.3-1.3v-5.4c0-.7.6-1.3 1.3-1.3H55c.7 0 1.3.6 1.3 1.3v5.4c-.1.7-.6 1.3-1.3 1.3z"/><path d="M34.2 48.1h-5.4c-.7 0-1.3-.6-1.3-1.3v-5.4c0-.7.6-1.3 1.3-1.3h5.4c.7 0 1.3.6 1.3 1.3v5.4c0 .8-.6 1.3-1.3 1.3zm10.2 0H39c-.7 0-1.3-.6-1.3-1.3v-5.4c0-.7.6-1.3 1.3-1.3h5.4c.7 0 1.3.6 1.3 1.3v5.4c0 .8-.6 1.3-1.3 1.3z"/></svg>