<svg baseProfile="tiny" xmlns="http://www.w3.org/2000/svg" viewBox="0 0 187 59"><path d="M8.8 34.4h2.6v11.9H8.8V34.4zm5.2 3.3h2.3v1.2h.1c.6-1 1.6-1.4 2.6-1.4 2.5 0 3.2 1.4 3.2 3.6v5.3h-2.4v-4.9c0-1.4-.4-2.1-1.5-2.1-1.3 0-1.8.7-1.8 2.5v4.5H14v-8.7zm10.9 1.5h-1.4v-1.6h1.4V37c0-1.5 1-2.6 2.9-2.6.4 0 .9 0 1.3.1v1.8h-.9c-.6 0-.9.3-.9 1v.5h1.6v1.6h-1.6v7.1h-2.4v-7.3zm9.8-1.8c2.7 0 4.5 1.8 4.5 4.6 0 2.7-1.8 4.5-4.5 4.5s-4.5-1.8-4.5-4.5c0-2.8 1.8-4.6 4.5-4.6zm0 7.3c1.6 0 2.1-1.4 2.1-2.8s-.5-2.8-2.1-2.8-2.1 1.4-2.1 2.8c0 1.5.5 2.8 2.1 2.8zm8.5-2.4c0 1.6 1.2 2.2 2.6 2.2.9 0 2.3-.3 2.3-1.5 0-1.3-1.8-1.5-3.5-2-1.8-.5-3.6-1.2-3.6-3.4 0-2.4 2.3-3.6 4.5-3.6 2.5 0 4.8 1.1 4.8 3.8h-2.5c-.1-1.4-1.1-1.8-2.4-1.8-.8 0-1.8.4-1.8 1.4 0 .9.6 1 3.6 1.8.9.2 3.5.8 3.5 3.5 0 2.2-1.7 3.8-5 3.8-2.6 0-5.1-1.3-5.1-4.2h2.6zm9.3-4.6h2.3v1.1c.6-.9 1.5-1.3 2.6-1.3 2.7 0 3.9 2.2 3.9 4.6 0 2.3-1.3 4.5-3.8 4.5-1 0-2-.5-2.6-1.3v4.1h-2.4V37.7zM59 42c0-1.4-.6-2.8-2.1-2.8-1.6 0-2.1 1.4-2.1 2.8s.5 2.7 2.1 2.7S59 43.4 59 42zm4.3-7.6h2.4v4.5h.1c.6-1 1.6-1.4 2.5-1.4 2.5 0 3.2 1.4 3.2 3.6v5.3H69v-4.9c0-1.4-.4-2.1-1.5-2.1-1.3 0-1.8.7-1.8 2.5v4.5h-2.4v-12zm12.3 8.2c.1 1.5.8 2.2 2.1 2.2 1 0 1.7-.6 1.9-1.1h2.1c-.7 2-2.1 2.9-4 2.9-2.7 0-4.4-1.9-4.4-4.5s1.8-4.6 4.4-4.6c2.9 0 4.4 2.5 4.2 5.1h-6.3zm3.9-1.6c-.2-1.2-.7-1.8-1.9-1.8-1.5 0-1.9 1.2-2 1.8h3.9zm4.3-3.3H86v1.6c.4-1.1 1.6-1.8 2.8-1.8.2 0 .4 0 .5.1v2.2c-.2-.1-.6-.1-.9-.1-1.7 0-2.3 1.3-2.3 2.8v3.9h-2.4v-8.7zm8.6 4.9c.1 1.5.8 2.2 2.1 2.2 1 0 1.7-.6 1.9-1.1h2.1c-.7 2-2.1 2.9-4 2.9-2.7 0-4.4-1.9-4.4-4.5s1.8-4.6 4.4-4.6c2.9 0 4.4 2.5 4.2 5.1h-6.3zm3.9-1.6c-.2-1.2-.7-1.8-1.9-1.8-1.5 0-1.9 1.2-2 1.8h3.9z"/><path fill="#6D6D6D" d="M106 34.4h5.2c3.1 0 5.4 1.9 5.4 5.9 0 3.5-1.8 6-5.4 6H106V34.4zm2.6 9.7h2.3c1.5 0 3-.9 3-3.6 0-2.4-.8-3.9-3.4-3.9h-1.9v7.5zm9.9-3.8c.1-2.2 2.1-2.9 4.1-2.9 1.7 0 3.8.4 3.8 2.5v4.5c0 .8.1 1.6.3 1.9h-2.4c-.1-.3-.2-.6-.2-.8-.8.8-1.9 1.1-2.9 1.1-1.6 0-2.9-.8-2.9-2.6 0-2 1.5-2.4 2.9-2.6 1.5-.2 2.8-.2 2.8-1.1 0-1-.7-1.2-1.5-1.2-.9 0-1.5.4-1.6 1.3h-2.4zm5.5 1.8c-.4.4-1.2.4-2 .5-.7.2-1.4.4-1.4 1.3s.7 1.1 1.5 1.1c1.9 0 1.9-1.5 1.9-2v-.9zm7.7-4.4h1.7v1.6h-1.7v4.3c0 .8.2 1 1 1 .3 0 .5 0 .7-.1v1.9c-.4.1-.9.1-1.4.1-1.5 0-2.7-.3-2.7-2.1v-5.1h-1.4v-1.6h1.4v-2.6h2.4v2.6zm3.3 2.6c.1-2.2 2.1-2.9 4.1-2.9 1.7 0 3.8.4 3.8 2.5v4.5c0 .8.1 1.6.3 1.9h-2.4c-.1-.3-.2-.6-.2-.8-.8.8-1.9 1.1-2.9 1.1-1.6 0-2.9-.8-2.9-2.6 0-2 1.5-2.4 2.9-2.6 1.5-.2 2.8-.2 2.8-1.1 0-1-.7-1.2-1.5-1.2-.9 0-1.5.4-1.6 1.3H135zm5.5 1.8c-.4.4-1.2.4-2 .5-.7.2-1.4.4-1.4 1.3s.7 1.1 1.5 1.1c1.9 0 1.9-1.5 1.9-2v-.9zm4.7-7.7h2.4v4.3c.6-.9 1.7-1.3 2.7-1.3 1.7 0 3.6 1.4 3.6 4.5 0 3.2-1.9 4.6-3.6 4.6-1.3 0-2.3-.4-2.8-1.3v1.1h-2.3V34.4zm4.3 4.8c-1.4 0-2 1.3-2 2.8 0 1.4.6 2.8 2 2.8s2-1.3 2-2.8c0-1.5-.6-2.8-2-2.8zm6.3 1.1c.1-2.2 2.1-2.9 4.1-2.9 1.7 0 3.8.4 3.8 2.5v4.5c0 .8.1 1.6.3 1.9h-2.4c-.1-.3-.2-.6-.2-.8-.8.8-1.9 1.1-2.9 1.1-1.6 0-2.9-.8-2.9-2.6 0-2 1.5-2.4 2.9-2.6 1.5-.2 2.8-.2 2.8-1.1 0-1-.7-1.2-1.5-1.2-.9 0-1.5.4-1.6 1.3h-2.4zm5.5 1.8c-.4.4-1.2.4-2 .5-.7.2-1.4.4-1.4 1.3s.7 1.1 1.5 1.1c1.9 0 1.9-1.5 1.9-2v-.9zm6.6 1.4c0 1 .9 1.5 1.8 1.5.7 0 1.6-.3 1.6-1.1 0-.7-1-1-2.7-1.3-1.4-.3-2.7-.8-2.7-2.3 0-2.2 1.9-2.8 3.8-2.8s3.6.6 3.8 2.8h-2.3c-.1-.9-.8-1.2-1.6-1.2-.5 0-1.3.1-1.3.8 0 .9 1.3 1 2.7 1.3 1.4.3 2.7.8 2.7 2.4 0 2.3-2 3-3.9 3-2 0-4-.8-4.1-3h2.2zm9.6-.9c.1 1.5.8 2.2 2.1 2.2 1 0 1.7-.6 1.9-1.1h2.1c-.7 2-2.1 2.9-4 2.9-2.7 0-4.4-1.9-4.4-4.5s1.8-4.6 4.4-4.6c2.9 0 4.4 2.5 4.2 5.1h-6.3zm3.8-1.6c-.2-1.2-.7-1.8-1.9-1.8-1.5 0-1.9 1.2-2 1.8h3.9z"/><path d="M18.1 26.6v-1.3c4.9 0 9.8 0 14.7.1-.1 1.1-.3 1.3-1.3 1.3h-13c-.1-.1-.2-.1-.4-.1zm0-12.4v-1.3h13.8c.9 0 .8.7 1.2 1.3h-15zm0 14.9v-1.3h13.2c-.4.7-1.3 1.2-2.2 1.2-2.2.1-4.3.1-6.5.1h-4.5zm0-17.4v-1.3h10.4c1.1 0 2.3.5 3 1.3H18.1zm2.4 8.6H24c2 0 4 .1 6 0 1 0 1.6.4 2.3 1.3H20.6c0-.4-.1-.8-.1-1.3zm11.6-2.4c-.5.9-1.1 1.3-2.1 1.2-3.1-.1-6.3 0-9.5 0v-1.2h11.6zm-15.2 8.7H7.7v-1.3h9.2v1.3zm-9.2 1.2h9.2v1.3H7.7v-1.3zm0-16.1v-1.3h9.2c0 .4.1.6 0 .9 0 .1-.2.4-.4.4H7.7zm9.2 1.2v1.3H7.7v-1.3h9.2zm38.1 0v1.3h-9.1c.2-.5.3-.8.4-1.3H55zm-12.9 0c.1.4.2.8.4 1.3h-8.7v-1.3h8.3zM55 10.4v.8c0 .4-.2.5-.6.5H47c-.1 0-.2 0-.3-.1l.3-1.2h8zm-21.1 1.3V11c0-.4.1-.6.5-.5h6.5c.9 0 .5.8 1 1.3-2.8-.1-5.4-.1-8-.1zm18.6 3.7v1.3h-7.2c.1-1.3.1-1.3 1.3-1.3h5.9zm0 3.7h-4.1c0-.3-.1-.5-.1-1-.2.4-.2.7-.3 1h-3.4c0-1.1.1-1.2 1.2-1.2h6.8c-.1.5-.1.8-.1 1.2zm-12-.7v.7h-4.1v-1.2h7.4c.1.4.2.8.4 1.2-1 0-2 .1-2.9 0-.3 0-.6-.5-.8-.7zm-4.2-1.7v-1.3h5.5c1.1 0 1.2.1 1.3 1.3h-6.8zm-2.5 10c0-.5 0-.9.1-1.3h6.6v1.3h-6.7zm14.6 0v-1.3H55v1.3h-6.6zm-7.9 1.1v1.3h-6.6v-1.3c2.1.1 4.3.1 6.6 0zm7.9 1.3v-1.3H55v1.3h-6.6zm-7-8.8h6.1c-.1 1.2-.2 1.3-1.4 1.3h-3.3c-1.2.1-1.2.1-1.4-1.3zm-13-3.6v-1.3h4.5v.5c.1.6-.2.8-.8.8-1.1-.1-2.3 0-3.7 0zm-7.9-1.3h4.2v1.3h-4.2v-1.3zm15.9 4.9h4.1v1.3h-4.2c0-.4 0-.8.1-1.3zm-8 2.6h4c.5 0 .6.1.5 1.2h-4.2c-.1 0-.3-.2-.3-.4v-.8zm-14.1-2.6v1.3h-4.1v-1.3h4.1zm34.1 1.4v-1.3h4.1v1.3h-4.1zm-38.2-5v-1.3h4.1v1.3h-4.1zm14.6 6.2v1.2h-3.9c-.1 0-.3-.2-.4-.4-.1-.2 0-.5 0-.8h4.3zm11.5 1.2v-1.2h4.2v1.2h-4.2zm16.2-1.2v1.2h-4.1v-1.2h4.1zm-10.3 0h4.4c-.1 1.2-.1 1.2-1.3 1.2h-1.8c-1.1 0-1.1 0-1.3-1.2zm-32 1.2v-1.2h4.1v1.2h-4.1zm4.1-6.2v1.2h-4.1v-1.2h4.1zm31.6 7.4c-.3.6 0 1.3-1 1.3-1.7 0-1.7 0-1.9-1.3h2.9zm-2.2 2.6H45c0 .1.1.1 0 .2-.2.4-.4.7-.6 1.1-.2-.5-.4-.8-.7-1.3zm13.5-16.3v-1h.7l.1.1v.2c0 .1 0 .1-.1.2 0 0-.1.1-.2.1 0 0 .1 0 .1.1l.1.1.2.3h-.2l-.1-.2c0-.1-.1-.1-.1-.1s0-.1-.1-.1h-.4v.5-.2zm.2-.6h.4s.1 0 .1-.1v-.1s0-.1-.1-.1h-.5l.1.3z"/><path d="M57.6 12.1c-.5 0-1-.5-1-1s.5-1 1-1 1 .5 1 1-.4 1-1 1zm.1-1.9c-.5 0-.9.4-.9.8s.4.9.8.9.9-.4.9-.8c0-.5-.4-.9-.8-.9z"/></svg>