<svg baseProfile="tiny" xmlns="http://www.w3.org/2000/svg" viewBox="0 0 187 59"><path d="M52.2 25.7v-.5H52l-17-9.8h-.7l-17 9.8h-.2v.1s0 .1-.1.1v20.3s0 .1.1.1h.2l17 9.8h.8l17-9.8h.2v-.1s0-.1.1-.1v-.2l-.2-19.7c0 .1 0 .1 0 0zm-1.8 18.1L45.6 41l4.8-10.9v13.7zM18.1 30.2l4.6 10.7-4.6 2.9V30.2zM43 40.6H25.2l8.9-15.4L43 40.6zm-19.1-1.4l-5.4-12.7 13.7-1.7-8.3 14.4zm18.6 3.2l-8.3 11.3-8.4-11.3h16.7zM36 24.8l14 1.7-5.6 12.8L36 24.8zm-.9-1.9v-5.4L47 24.3l-11.9-1.4zm-1.8 0l-11.8 1.4 11.8-6.8v5.4zm-9.6 19.6l7.3 9.9-12-6.9 4.7-3zm21 0l4.8 2.9-12 6.9 7.2-9.8zM8.126 16.674l.892-1.563 7.644 4.36-.892 1.563zM20.22 5.771l4.623 7.838-1.55.915-4.624-7.838zM33.2 2.8H35v9h-1.8zm14.766 2.971l1.548.92-4.647 7.823-1.548-.919zm3.667 13.722l7.758-4.361.882 1.569-7.758 4.36zM72 6.8h1.3V14H72V6.8zm2.9 0h3.5c1.3 0 2.1.6 2.1 1.8 0 .7-.4 1.3-1 1.5.9.2 1.4.9 1.4 1.9 0 1.1-.8 2-2.7 2h-3.3V6.8zm1.2 3h2.1c.6 0 1.1-.4 1.1-1 0-.7-.4-1-1.1-1h-2.1v2zm0 3.2h2.2c.8 0 1.2-.4 1.2-1.1 0-.7-.4-1.1-1.2-1.1h-2.2V13zM82 6.8h1.8l2 5.7 1.9-5.7h1.8V14h-1.2V8.4l-2 5.6h-1l-2-5.6V14H82V6.8zM71.8 19.6h3.7v.4h-3.2v2h3v.4h-3v2.1h3.2v.5h-3.7v-5.4zm6.7 2.7c0-.6-.5-.8-1-.8-.4 0-.9.2-.9.7 0 .4.5.6.8.7l.6.1c.5.1 1.1.4 1.1 1.1 0 .8-.8 1.2-1.6 1.2-.9 0-1.5-.4-1.6-1.4h.5c0 .6.5 1 1.1 1 .4 0 1.1-.2 1.1-.7 0-.5-.4-.6-.8-.7l-.6-.1c-.6-.2-1.1-.4-1.1-1 0-.8.8-1.1 1.5-1.1.8 0 1.4.4 1.4 1.2h-.5zm1.3-1.2h.4v.7c.2-.5.8-.8 1.4-.8 1.2 0 1.7 1 1.7 2.1s-.6 2.1-1.7 2.1c-.6 0-1.1-.3-1.3-.8v2.2h-.5v-5.5zm1.8.3c-1 0-1.4.8-1.4 1.7 0 .8.4 1.7 1.4 1.7.9 0 1.3-.8 1.3-1.7s-.4-1.7-1.3-1.7zm2.5.9c0-.9.7-1.3 1.6-1.3.7 0 1.4.2 1.4 1.2v2.1c0 .2.1.3.3.3h.2v.4h-.3c-.5 0-.6-.3-.6-.7-.3.5-.7.8-1.4.8S84 24.7 84 24c0-1.1 1.1-1.1 2.1-1.2.4 0 .6-.1.6-.5 0-.6-.5-.8-1-.8-.6 0-1 .3-1 .9h-.6zm2.5.6c-.1.1-.3.2-.4.2-.8.1-1.8.1-1.8.9 0 .5.4.8.9.8.7 0 1.4-.5 1.4-1.2v-.7zm4.1-.5c-.1-.6-.5-.9-1.1-.9-.9 0-1.4.8-1.4 1.7s.5 1.7 1.4 1.7c.6 0 1.1-.5 1.1-1.1h.5c-.1.9-.7 1.5-1.6 1.5-1.2 0-1.8-.9-1.8-2.1s.6-2.1 1.8-2.1c.8 0 1.5.4 1.6 1.3h-.5zm1.2-2.8h.5v.8h-.5v-.8zm0 1.5h.5V25h-.5v-3.9zm4.9 2c0 1.1-.6 2.1-1.8 2.1s-1.8-.9-1.8-2.1.6-2.1 1.8-2.1 1.8 1 1.8 2.1zm-3.2 0c0 .8.5 1.7 1.4 1.7s1.4-.8 1.4-1.7-.5-1.7-1.4-1.7-1.4.8-1.4 1.7zM103 25h-.4v-.7c-.2.5-.8.8-1.4.8-1.2 0-1.7-1-1.7-2.1s.6-2.1 1.7-2.1c.6 0 1.1.3 1.3.8v-2.2h.5V25zm-1.9-.3c1 0 1.4-.8 1.4-1.7s-.4-1.7-1.4-1.7c-.9 0-1.3.8-1.3 1.7s.4 1.7 1.3 1.7zm3.1-1.5c0 .7.4 1.5 1.3 1.5.7 0 1.1-.4 1.2-1h.5c-.2.9-.7 1.4-1.7 1.4-1.2 0-1.8-.9-1.8-2.1 0-1 .5-2.1 1.8-2.1 1.2 0 1.7 1.1 1.7 2.2h-3zm2.5-.4c0-.7-.5-1.4-1.2-1.4-.8 0-1.2.7-1.3 1.4h2.5zm3.9-1.7h.8v.4h-.8v2.6c0 .3 0 .5.4.5h.4v.4h-.4c-.6 0-.8-.2-.8-.9v-2.7h-.7V21h.7v-1h.5v1.1zm1.5 0h.4v.9c.2-.6.8-1 1.5-1v.5c-.9 0-1.4.6-1.4 1.4V25h-.5v-3.9zm2.3 1.2c0-.9.7-1.3 1.6-1.3.7 0 1.4.2 1.4 1.2v2.1c0 .2.1.3.3.3h.2v.4h-.3c-.5 0-.6-.3-.6-.7-.3.5-.7.8-1.4.8s-1.3-.4-1.3-1.1c0-1.1 1.1-1.1 2.1-1.2.4 0 .6-.1.6-.5 0-.6-.5-.8-1-.8-.6 0-1 .3-1 .9h-.6zm2.5.6c-.1.1-.3.2-.4.2-.8.1-1.8.1-1.8.9 0 .5.4.8.9.8.7 0 1.4-.5 1.4-1.2v-.7zm1.5-3.3h.5v2.2c.2-.6.8-.8 1.3-.8 1.2 0 1.7 1 1.7 2.1s-.6 2.1-1.7 2.1c-.6 0-1.2-.3-1.4-.8v.6h-.4v-5.4zm1.8 1.8c-1 0-1.4.8-1.4 1.7s.4 1.7 1.4 1.7c.9 0 1.3-.8 1.3-1.7s-.4-1.7-1.3-1.7zm2.4.9c0-.9.7-1.3 1.6-1.3.7 0 1.4.2 1.4 1.2v2.1c0 .2.1.3.3.3h.2v.4h-.3c-.5 0-.6-.3-.6-.7-.3.5-.7.8-1.4.8s-1.3-.4-1.3-1.1c0-1.1 1.1-1.1 2.1-1.2.4 0 .6-.1.6-.5 0-.6-.5-.8-1-.8-.6 0-1 .3-1 .9h-.6zm2.5.6c-.1.1-.3.2-.4.2-.8.1-1.8.1-1.8.9 0 .5.4.8.9.8.7 0 1.4-.5 1.4-1.2v-.7zm1.5-1.8h.5v4.2c0 .6-.2 1.1-.8 1.1h-.3V26h.3c.4 0 .4-.2.4-.6v-4.3zm0-1.5h.5v.8h-.5v-.8zm4.8 3.5c0 1.1-.6 2.1-1.8 2.1s-1.8-.9-1.8-2.1.6-2.1 1.8-2.1 1.8 1 1.8 2.1zm-3.2 0c0 .8.5 1.7 1.4 1.7s1.4-.8 1.4-1.7-.5-1.7-1.4-1.7-1.4.8-1.4 1.7zM73.1 35.8h-.5l-1.3-3.6h.5l1 3.1 1-3.1h.5l-1.2 3.6zm3.5-.8c-.1.6-.5.9-1.1.9-.8 0-1.2-.6-1.2-1.4 0-.8.5-1.3 1.2-1.3.9 0 1.2.9 1.2 1.5h-1.9c0 .4.2.8.8.8.3 0 .6-.2.7-.5h.3zm-.4-.7c0-.4-.3-.7-.7-.7-.4 0-.7.3-.7.7h1.4zm.9-2.1h.4v3.6h-.4v-3.6zm2.2 1c.8 0 1.3.6 1.3 1.4 0 .8-.4 1.3-1.3 1.3s-1.3-.6-1.3-1.4c0-.7.4-1.3 1.3-1.3zm0 2.3c.4 0 .8-.3.8-1 0-.6-.4-1-.8-1s-.8.3-.8 1c0 .6.3 1 .8 1zm3.5-1.5c-.1-.3-.3-.5-.6-.5-.6 0-.8.5-.8 1s.2.9.8.9c.4 0 .7-.2.7-.6h.4c-.1.6-.5 1-1.1 1-.8 0-1.2-.5-1.2-1.3s.4-1.4 1.2-1.4c.6 0 1.1.3 1.1.9h-.5zm1.3-1.2h-.4v-.5h.4v.5zm-.4.4h.4v2.6h-.4v-2.6zm3.4 2.6h-.4v-.3c-.1.3-.5.4-.8.4-.8 0-1.2-.6-1.2-1.4 0-.7.4-1.3 1.2-1.3.3 0 .6.1.8.4v-1.3h.4v3.5zm-1.2-.3c.6 0 .8-.5.8-1s-.2-1-.8-1c-.6 0-.8.5-.8 1s.3 1 .8 1zm4.1.3c-.1 0-.2.1-.3.1-.2 0-.4-.1-.4-.4-.2.3-.5.4-.9.4-.5 0-.9-.2-.9-.7 0-.6.4-.7.9-.8.5-.1.9-.1.9-.4 0-.4-.3-.4-.6-.4-.4 0-.6.1-.6.5h-.4c0-.6.5-.9 1.1-.9.5 0 1 .1 1 .7v1.3c0 .2 0 .3.1.3h.1v.3zm-.6-1.3c-.2.1-.5.1-.8.2-.3 0-.5.1-.5.5 0 .3.2.4.5.4.6 0 .8-.3.8-.6v-.5zm3.3 1.3h-.4v-.3c-.1.3-.5.4-.8.4-.8 0-1.2-.6-1.2-1.4 0-.7.4-1.3 1.2-1.3.3 0 .6.1.8.4v-1.3h.4v3.5zm-1.2-.3c.6 0 .8-.5.8-1s-.2-1-.8-1c-.6 0-.8.5-.8 1s.3 1 .8 1zm2-.3h.5v.6h-.6v-.6zm3.7-3h.5l1.4 3.6h-.5l-.4-1.1h-1.5l-.4 1.1h-.5l1.4-3.6zm-.3 2.1h1.2l-.6-1.7-.6 1.7zm4.7 1.3c0 .8-.4 1.3-1.2 1.3-.5 0-1-.2-1.1-.8h.4c0 .3.4.4.7.4.6 0 .8-.4.8-1v-.2c-.1.3-.5.5-.8.5-.8 0-1.2-.6-1.2-1.3 0-.6.3-1.4 1.2-1.4.3 0 .6.1.8.4v-.4h.4v2.5zm-.4-1.1c0-.5-.2-.9-.7-.9-.5 0-.8.4-.8.9s.2 1 .7 1c.6 0 .8-.6.8-1zm1.5-1.7h-.4v-.5h.4v.5zm-.4.4h.4v2.6h-.4v-2.6zm1.1-1h.4v3.6h-.4v-3.6zm1.5.6h-.4v-.5h.4v.5zm-.4.4h.4v2.6h-.4v-2.6zm3.4 2.6h-.4v-.3c-.1.3-.5.4-.8.4-.8 0-1.2-.6-1.2-1.4 0-.7.4-1.3 1.2-1.3.3 0 .6.1.8.4v-1.3h.4v3.5zm-1.2-.3c.6 0 .8-.5.8-1s-.2-1-.8-1c-.6 0-.8.5-.8 1s.3 1 .8 1zm4.1.3c-.1 0-.2.1-.3.1-.2 0-.4-.1-.4-.4-.2.3-.5.4-.9.4-.5 0-.9-.2-.9-.7 0-.6.4-.7.9-.8.5-.1.9-.1.9-.4 0-.4-.3-.4-.6-.4-.4 0-.6.1-.6.5h-.4c0-.6.5-.9 1.1-.9.5 0 1 .1 1 .7v1.3c0 .2 0 .3.1.3h.1v.3zm-.7-1.3c-.2.1-.5.1-.8.2-.3 0-.5.1-.5.5 0 .3.2.4.5.4.6 0 .8-.3.8-.6v-.5zm3.4 1.3h-.4v-.3c-.1.3-.5.4-.8.4-.8 0-1.2-.6-1.2-1.4 0-.7.4-1.3 1.2-1.3.3 0 .6.1.8.4v-1.3h.4v3.5zm-1.2-.3c.6 0 .8-.5.8-1s-.2-1-.8-1c-.6 0-.8.5-.8 1s.3 1 .8 1zm2-.3h.6v.6h-.6v-.6zm2.7-3h1.6c.7 0 1.1.4 1.1 1.1s-.4 1.1-1.1 1.1h-1.1v1.5h-.5v-3.7zm.5 1.7h.9c.5 0 .8-.2.8-.7 0-.4-.2-.7-.8-.7h-.9v1.4zm2.7-.7h.4v.5c.2-.4.5-.6.9-.6v.4c-.7 0-.9.4-.9 1v1.1h-.4v-2.4zM124 35c-.1.6-.5.9-1.1.9-.8 0-1.2-.6-1.2-1.4 0-.8.5-1.3 1.2-1.3.9 0 1.2.9 1.2 1.5h-1.9c0 .4.2.8.8.8.3 0 .6-.2.7-.5h.3zm-.4-.7c0-.4-.3-.7-.7-.7-.4 0-.7.3-.7.7h1.4zm2 1.5h-.5l-1-2.6h.5l.7 2.2.7-2.2h.4l-.8 2.6zm1.8-3h-.4v-.5h.4v.5zm-.4.4h.4v2.6h-.4v-2.6zm1.3 1.8c0 .4.3.5.7.5.3 0 .6-.1.6-.4 0-.3-.4-.4-.8-.5-.4-.1-.8-.2-.8-.7 0-.5.5-.7 1-.7.6 0 1 .2 1.1.8h-.4c0-.3-.3-.4-.6-.4s-.5.1-.5.3c0 .3.4.4.8.4.4.1.8.2.8.7 0 .6-.6.8-1.1.8-.6 0-1.1-.2-1.1-.9h.3zm2.7-2.2h-.4v-.5h.4v.5zm-.4.4h.4v2.6h-.4v-2.6zm2.2 0c.8 0 1.3.6 1.3 1.4 0 .8-.4 1.3-1.3 1.3s-1.3-.6-1.3-1.3c0-.8.4-1.4 1.3-1.4zm0 2.3c.4 0 .8-.3.8-1 0-.6-.4-1-.8-1s-.8.3-.8 1c0 .6.3 1 .8 1zm.1-3.3h.5l-.7.7h-.3l.5-.7zm1.6 1h.4v.4c.2-.3.5-.5.8-.5.7 0 .9.4.9.9v1.7h-.4V34c0-.3-.2-.5-.5-.5-.5 0-.8.3-.8.8v1.5h-.4v-2.6zM93.4 6.8h3.2c2 0 2.4 1.3 2.4 2.2 0 .9-.4 2.2-2.5 2.2h-1.9V14h-1.3V6.8zm1.2 3.4h1.9c.6 0 1.3-.3 1.3-1.2 0-1-.6-1.2-1.2-1.2h-1.9v2.4zm5.4-3.4h1.2V14H100V6.8zm6.8 6.1c0 .3.1.4.3.4h.3v.7c-.2.1-.5.1-.7.1-.5 0-.8-.2-.9-.6-.5.4-1.2.6-1.8.6-.9 0-1.8-.5-1.8-1.5 0-1.3 1-1.5 2-1.6.8-.2 1.6-.1 1.6-.7s-.6-.7-1.1-.7c-.6 0-1.1.3-1.2.8h-1.2c.1-1.3 1.2-1.7 2.4-1.7 1 0 2.1.4 2.1 1.5v2.7zm-1.2-1.5c-.4.2-.9.2-1.4.3-.5.1-.9.3-.9.9 0 .5.7.7 1.1.7.5 0 1.3-.3 1.3-1v-.9zm2.4-2.6h1.1v.8c.3-.6.9-.9 1.6-.9 1.1 0 1.9.6 1.9 1.8V14h-1.2v-3.3c0-.8-.3-1.2-1-1.2-.8 0-1.3.6-1.3 1.4V14H108V8.8zm5.9 0h1.1v.8c.3-.6.9-.9 1.6-.9 1.1 0 1.9.6 1.9 1.8V14h-1.2v-3.3c0-.8-.3-1.2-1-1.2-.8 0-1.3.6-1.3 1.4V14h-1.2V8.8zm5.8-2h1.2v1.1h-1.2V6.8zm0 2h1.2V14h-1.2V8.8zm2.4 0h1.1v.8c.3-.6.9-.9 1.6-.9 1.1 0 1.9.6 1.9 1.8V14h-1.2v-3.3c0-.8-.3-1.2-1-1.2-.8 0-1.3.6-1.3 1.4V14H122V8.8zm10.7 5c0 1.6-.9 2.3-2.6 2.3-1.1 0-2.2-.4-2.3-1.6h1.2c.1.7.7.8 1.3.8.9 0 1.3-.5 1.3-1.3v-.8c-.3.6-.9.9-1.6.9-1.7 0-2.3-1.3-2.3-2.8 0-1.4.9-2.6 2.4-2.6.7 0 1.3.3 1.5.9v-.8h1.2v5zm-1.2-2.5c0-.9-.4-1.7-1.4-1.7-1 0-1.4 1-1.4 1.8 0 .9.4 1.7 1.4 1.7 1 0 1.4-.9 1.4-1.8zm6.7-4.5h1.3l2.8 7.2H141l-.7-1.9h-2.9l-.7 1.9h-1.3l2.9-7.2zm-.5 4.3h2.2L139 8l-1.2 3.1zm5.1-2.3h1.1v.8c.3-.6.9-.9 1.6-.9 1.1 0 1.9.6 1.9 1.8V14h-1.2v-3.3c0-.8-.3-1.2-1-1.2-.8 0-1.3.6-1.3 1.4V14h-1.2V8.8zm10.2 4.1c0 .3.1.4.3.4h.3v.7c-.2.1-.5.1-.7.1-.5 0-.8-.2-.9-.6-.5.4-1.2.6-1.8.6-.9 0-1.8-.5-1.8-1.5 0-1.3 1-1.5 2-1.6.8-.2 1.6-.1 1.6-.7s-.6-.7-1.1-.7c-.6 0-1.1.3-1.2.8h-1.2c.1-1.3 1.2-1.7 2.4-1.7 1 0 2.1.4 2.1 1.5v2.7zm-1.1-1.5c-.4.2-.9.2-1.4.3-.5.1-.9.3-.9.9 0 .5.7.7 1.1.7.5 0 1.3-.3 1.3-1v-.9zm2.4-4.6h1.2V14h-1.2V6.8zm1.8 2h1.3l1.4 3.9 1.3-3.9h1.2l-2 5.5c-.4.9-.6 1.8-1.9 1.8-.3 0-.5 0-.8-.1v-1c.2 0 .4.1.5.1.5 0 .7-.3.8-.7l.1-.4-1.9-5.2zm5.4 0h.9V7.2h1.2v1.6h1v.9h-1v2.8c0 .5 0 .7.6.7h.5v.8c-.3 0-.5.1-.7.1-1.2 0-1.4-.5-1.4-1.3V9.6h-.9v-.8zm3.9-2h1.2v1.1h-1.2V6.8zm0 2h1.2V14h-1.2V8.8zm5.9 1.7c-.1-.6-.6-1-1.2-1s-1.4.3-1.4 1.9c0 .9.4 1.8 1.4 1.8.7 0 1.1-.4 1.2-1.2h1.2c-.2 1.4-1.1 2.1-2.4 2.1-1.6 0-2.5-1.2-2.5-2.7 0-1.6.9-2.8 2.6-2.8 1.2 0 2.2.6 2.4 1.9h-1.3zm3 1.8c.1.7.6.9 1.2.9.4 0 1.2-.1 1.2-.7s-.9-.7-1.7-.9c-.9-.2-1.7-.5-1.7-1.5 0-1.1 1.2-1.5 2.2-1.5 1.1 0 2 .4 2.2 1.6h-1.2c-.1-.5-.6-.7-1.1-.7-.3 0-1 .1-1 .5 0 .6.9.6 1.7.8.8.2 1.7.5 1.7 1.5 0 1.2-1.3 1.7-2.3 1.7-1.3 0-2.3-.6-2.3-1.8h1.1z"/></svg>