<svg viewBox="0 0 510 134" xmlns="http://www.w3.org/2000/svg" fill-rule="evenodd" clip-rule="evenodd" stroke-linejoin="round" stroke-miterlimit="1.414"><path d="M267.522 101.157c-8.216 5.584-19.437 3.442-25.025-4.775-5.587-8.216-3.441-19.441 4.775-25.037 8.213-5.583 19.438-3.438 25.025 4.779 5.592 8.213 3.45 19.442-4.775 25.033m11.15-29.366c-7.979-11.759-23.987-14.8-35.733-6.813-11.754 7.988-14.804 23.992-6.813 35.738 7.067 10.408 20.413 13.975 31.53 9.129l9.954 16.167 7.9-5.367-9.95-16.167c8.6-8.554 10.191-22.291 3.112-32.687" fill="#070707"/><path d="M490.022 110.45h-6.15c0-49.538-40.875-89.839-91.112-89.839v-6.15c53.633 0 97.262 43.05 97.262 95.988" fill="#499cd2" fill-rule="nonzero"/><path d="M494.272 77.407c-7.379-31.075-32.562-57.012-64.137-66.079l1.417-4.929c33.325 9.57 59.904 36.97 67.704 69.82l-4.984 1.188zm6.925-29.162c-7.608-16.592-20.583-31.063-36.504-40.742L466.823 4c16.624 10.108 30.145 25.204 38.095 42.533l-3.72 1.713z" fill="#489cd2" fill-rule="nonzero"/><path d="M4.3 107.826c3.7 2 9.4 3.5 15.8 3.5 14 0 21.1-6.7 21.1-15.9-.1-7.1-3.9-11.8-13.2-15-6-2-7.9-3.3-7.9-5.6 0-2.4 2.1-3.9 5.8-3.9 4.1 0 8.4 1.6 10.6 2.7l2.6-10.4c-3-1.5-8-2.9-13.7-2.9-12.1 0-19.9 6.9-19.9 16.1-.1 5.7 3.8 11.2 14 14.6 5.6 1.8 7.1 3.1 7.1 5.6 0 2.5-1.9 4-6.5 4-4.5 0-10.3-1.9-13.1-3.6l-2.7 10.8zm63.8 3.6c13 0 25.7-8.2 25.7-26 0-14.8-10-25.1-24.9-25.1-15.8 0-26.2 10.1-26.2 25.9 0 15.8 11 25.2 25.3 25.2h.1zm.2-10.9c-6.4 0-9.9-6.3-9.9-14.6 0-7.3 2.8-14.7 10-14.7 6.9 0 9.7 7.4 9.7 14.6 0 8.8-3.7 14.7-9.7 14.7h-.1zm29.9 9.8h15.2v-28.2c0-1.4.1-2.8.5-3.8 1.1-2.8 3.6-5.7 7.8-5.7 5.5 0 7.7 4.3 7.7 10.6v27.1h15.2v-28.9c0-14.4-7.5-21.1-17.5-21.1-8.2 0-13.1 4.7-15.1 7.9h-.3l-.7-6.8H97.8c.2 4.4.4 9.5.4 15.6v33.3zm94.3-28.9c0-11.5-5.1-21.1-21.4-21.1-8.9 0-15.6 2.5-19 4.4l2.8 9.7c3.2-1.9 8.5-3.6 13.5-3.6 7.5 0 8.9 3.7 8.9 6.3v.6c-17.3 0-28.7 6-28.7 18.7 0 7.8 5.9 15 15.8 15 5.8 0 10.8-2.1 14-6h.3l.9 4.9h13.7c-.6-2.7-.8-7.2-.8-11.8v-17.1zm-14.7 11.1c0 .9-.1 1.8-.3 2.6-1 3.1-4.2 5.6-7.9 5.6-3.4 0-6-1.9-6-5.8 0-5.8 6.2-7.7 14.2-7.7v5.3zm21.8 17.8h15.2v-24.7c0-1.3.1-2.4.3-3.4 1-4.8 4.8-7.7 10.4-7.7 1.7 0 2.9.2 4.1.4v-14.3c-1.1-.2-1.8-.3-3.2-.3-4.8 0-10.7 3-13.2 10.2h-.4l-.6-9.1h-13c.3 4.2.4 8.9.4 16.1v32.8zm129.224-48.129h-8.8v29.6c0 1.7-.3 3.3-.8 4.5-1.6 4-5.7 8.1-11.6 8.1-7.9 0-10.8-6.3-10.8-15.5v-26.7h-8.8v28.3c0 16.9 9.1 21.2 16.7 21.2 8.6 0 13.8-5.1 16-9h.2l.5 7.9h7.8c-.3-3.8-.4-8.2-.4-13.3v-35.1zm9.6 35.9c0 4.3-.1 9.2-.4 12.5h7.6l.5-8h.2c3.7 6.4 9.2 9.1 16.2 9.1 10.8 0 21.8-8.6 21.8-26 0-14.6-8.4-24.6-20.4-24.6-7.8 0-13.4 3.4-16.5 8.8h-.2v-30.3h-8.8v58.5zm8.8-15.6c0-1.4.2-2.6.5-3.7 1.7-6.6 7.3-10.8 13.3-10.8 9.4 0 14.4 8.3 14.4 18.1 0 11.1-5.4 18.6-14.7 18.6-6.3 0-11.5-4.2-13.2-10.3-.2-1-.3-2.1-.3-3.2v-8.7zm82 5.5c.2-1 .3-2.3.3-4.1 0-8.9-4.1-22.8-19.9-22.8-14.1 0-22.8 11.5-22.8 26.1 0 14.5 9 24.4 23.8 24.4 7.7 0 13.1-1.7 16.2-3.1l-1.6-6.3c-3.2 1.4-7.1 2.5-13.4 2.5-8.8 0-16.3-4.9-16.5-16.7h33.9zm-33.8-6.3c.7-6.1 4.5-14.3 13.5-14.3 9.8 0 12.2 8.7 12.1 14.3h-25.6z" fill="#070707" fill-rule="nonzero"/></svg>